999
LibreDWG 0.13.3-67-g07c078ac
  0
SECTION
  2
HEADER
  9
$ACADVER
  1
AC1027
  9
$ACADMAINTVER
 70
     0
  9
$DWGCODEPAGE
  3
ANSI_1252
  9
$LASTSAVEDBY
  1
jncs1
  9
$REQUIREDVERSIONS
160
           0
  9
$INSBASE
 10
0
 20
0
 30
0
  9
$EXTMIN
 10
7716.052678956054
 20
6479.878587460873
 30
0
  9
$EXTMAX
 10
100575.1542696386
 20
51688.2134757911
 30
0
  9
$LIMMIN
 10
0
 20
0
  9
$LIMMAX
 10
420
 20
297
  9
$ORTHOMODE
 70
     1
  9
$REGENMODE
 70
     1
  9
$FILLMODE
 70
     1
  9
$QTEXTMODE
 70
     0
  9
$MIRRTEXT
 70
     0
  9
$LTSCALE
 40
1
  9
$ATTMODE
 70
     1
  9
$TEXTSIZE
 40
2.5
  9
$TRACEWID
 40
1
  9
$TEXTSTYLE
  7
Standard
  9
$CLAYER
  8
0
  9
$CELTYPE
  6
ByLayer
  9
$CECOLOR
 62
     0
  9
$CELTSCALE
 40
1
  9
$DISPSILH
 70
     0
  9
$DIMSCALE
 40
1
  9
$DIMASZ
 40
2.5
  9
$DIMEXO
 40
0.625
  9
$DIMDLI
 40
3.75
  9
$DIMRND
 40
0
  9
$DIMDLE
 40
0
  9
$DIMEXE
 40
1.25
  9
$DIMTP
 40
0
  9
$DIMTM
 40
0
  9
$DIMTXT
 40
2.5
  9
$DIMCEN
 40
2.5
  9
$DIMTSZ
 40
0
  9
$DIMTOL
 70
     0
  9
$DIMLIM
 70
     0
  9
$DIMTIH
 70
     0
  9
$DIMTOH
 70
     0
  9
$DIMSE1
 70
     0
  9
$DIMSE2
 70
     0
  9
$DIMTAD
 70
     1
  9
$DIMZIN
 70
     8
  9
$DIMBLK
  1

  9
$DIMASO
 70
     1
  9
$DIMSHO
 70
     1
  9
$DIMPOST
  1

  9
$DIMAPOST
  1

  9
$DIMALT
 70
     0
  9
$DIMALTD
 70
     3
  9
$DIMALTF
 40
0.03937007874016
  9
$DIMLFAC
 40
1
  9
$DIMTOFL
 70
     1
  9
$DIMTVP
 40
0
  9
$DIMTIX
 70
     0
  9
$DIMSOXD
 70
     0
  9
$DIMSAH
 70
     0
  9
$DIMBLK1
  1

  9
$DIMBLK2
  1

  9
$DIMSTYLE
  2
ISO-25
  9
$DIMCLRD
 70
     0
  9
$DIMCLRE
 70
     0
  9
$DIMCLRT
 70
     0
  9
$DIMTFAC
 40
1
  9
$DIMGAP
 40
0.625
  9
$DIMJUST
 70
     0
  9
$DIMSD1
 70
     0
  9
$DIMSD2
 70
     0
  9
$DIMTOLJ
 70
     0
  9
$DIMTZIN
 70
     8
  9
$DIMALTZ
 70
     0
  9
$DIMALTTZ
 70
     0
  9
$DIMUPT
 70
     0
  9
$DIMDEC
 70
     2
  9
$DIMTDEC
 70
     2
  9
$DIMALTU
 70
     2
  9
$DIMALTTD
 70
     3
  9
$DIMTXSTY
  7
Standard
  9
$DIMAUNIT
 70
     0
  9
$DIMADEC
 70
     0
  9
$DIMALTRND
 40
0
  9
$DIMAZIN
 70
     0
  9
$DIMDSEP
 70
    44
  9
$DIMATFIT
 70
     3
  9
$DIMFRAC
 70
     0
  9
$DIMLDRBLK
  1

  9
$DIMLUNIT
 70
     2
  9
$DIMLWD
 70
    -2
  9
$DIMLWE
 70
    -2
  9
$DIMTMOVE
 70
     0
  9
$DIMFXL
 40
1
  9
$DIMFXLON
 70
     0
  9
$DIMJOGANG
 40
0.7853981633974483
  9
$DIMTFILL
 70
     0
  9
$DIMTFILLCLR
 70
     0
  9
$DIMARCSYM
 70
     0
  9
$DIMLTYPE
  6

  9
$DIMLTEX1
  6

  9
$DIMLTEX2
  6

  9
$DIMTXTDIRECTION
 70
     0
  9
$LUNITS
 70
     2
  9
$LUPREC
 70
     4
  9
$AXISMODE
 70
     0
  9
$AXISUNIT
 10
0
 20
0
  9
$SKETCHINC
 40
1
  9
$FILLETRAD
 40
0
  9
$AUNITS
 70
     0
  9
$AUPREC
 70
     0
  9
$MENU
  1
.
  9
$ELEVATION
 40
0
  9
$PELEVATION
 40
0
  9
$THICKNESS
 40
0
  9
$LIMCHECK
 70
     0
  9
$CHAMFERA
 40
0
  9
$CHAMFERB
 40
0
  9
$CHAMFERC
 40
0
  9
$CHAMFERD
 40
0
  9
$SKPOLY
 70
     0
  9
$TDCREATE
 40
2461095.256600000
  9
$TDUCREATE
 40
2461095.256600000
  9
$TDUPDATE
 40
2461095.296460000
  9
$TDUUPDATE
 40
2461095.296460000
  9
$TDINDWG
 40
0.039860000
  9
$TDUSRTIMER
 40
0.039860000
  9
$USRTIMER
 70
     1
  9
$ANGBASE
 50
0
  9
$ANGDIR
 70
     0
  9
$PDMODE
 70
     0
  9
$PDSIZE
 40
0
  9
$PLINEWID
 40
0
  9
$SPLFRAME
 70
     0
  9
$SPLINETYPE
 70
     6
  9
$SPLINESEGS
 70
     8
  9
$HANDSEED
  5
63B
  9
$SURFTAB1
 70
     6
  9
$SURFTAB2
 70
     6
  9
$SURFTYPE
 70
     6
  9
$SURFU
 70
     6
  9
$SURFV
 70
     6
  9
$UCSBASE
  2

  9
$UCSNAME
  2

  9
$UCSORG
 10
0
 20
0
 30
0
  9
$UCSXDIR
 10
1
 20
0
 30
0
  9
$UCSYDIR
 10
0
 20
1
 30
0
  9
$UCSORTHOREF
  2

  9
$UCSORTHOVIEW
 70
     0
  9
$UCSORGTOP
 10
0
 20
0
 30
0
  9
$UCSORGBOTTOM
 10
0
 20
0
 30
0
  9
$UCSORGLEFT
 10
0
 20
0
 30
0
  9
$UCSORGRIGHT
 10
0
 20
0
 30
0
  9
$UCSORGFRONT
 10
0
 20
0
 30
0
  9
$UCSORGBACK
 10
0
 20
0
 30
0
  9
$PUCSBASE
  2

  9
$PUCSNAME
  2

  9
$PUCSORG
 10
0
 20
0
 30
0
  9
$PUCSXDIR
 10
1
 20
0
 30
0
  9
$PUCSYDIR
 10
0
 20
1
 30
0
  9
$PUCSORTHOREF
  2

  9
$PUCSORTHOVIEW
 70
     0
  9
$PUCSORGTOP
 10
0
 20
0
 30
0
  9
$PUCSORGBOTTOM
 10
0
 20
0
 30
0
  9
$PUCSORGLEFT
 10
0
 20
0
 30
0
  9
$PUCSORGRIGHT
 10
0
 20
0
 30
0
  9
$PUCSORGFRONT
 10
0
 20
0
 30
0
  9
$PUCSORGBACK
 10
0
 20
0
 30
0
  9
$USERI1
 70
     0
  9
$USERI2
 70
     0
  9
$USERI3
 70
     0
  9
$USERI4
 70
     0
  9
$USERI5
 70
     0
  9
$USERR1
 40
0
  9
$USERR2
 40
0
  9
$USERR3
 40
0
  9
$USERR4
 40
0
  9
$USERR5
 40
0
  9
$WORLDVIEW
 70
     1
  9
$SHADEDGE
 70
     3
  9
$SHADEDIF
 70
    70
  9
$TILEMODE
 70
     0
  9
$MAXACTVP
 70
    64
  9
$PINSBASE
 10
0
 20
0
 30
0
  9
$PLIMCHECK
 70
     0
  9
$PEXTMIN
 10
0.8054999638441132
 20
1.042964399296292
 30
0
  9
$PEXTMAX
 10
404.2149068220408
 20
255.8069021316081
 30
0
  9
$PLIMMIN
 10
-7.5
 20
-20
  9
$PLIMMAX
 10
412.5
 20
277
  9
$UNITMODE
 70
     0
  9
$VISRETAIN
 70
     1
  9
$PLINEGEN
 70
     0
  9
$PSLTSCALE
 70
     0
  9
$TREEDEPTH
 70
  3020
  9
$CMLSTYLE
  2
Standard
  9
$CMLJUST
 70
     0
  9
$CMLSCALE
 40
20
  9
$PROXYGRAPHICS
 70
     1
  9
$MEASUREMENT
 70
     1
  9
$CELWEIGHT
370
    -1
  9
$ENDCAPS
280
     0
  9
$JOINSTYLE
280
     0
  9
$LWDISPLAY
290
     0
  9
$INSUNITS
 70
     4
  9
$HYPERLINKBASE
  1

  9
$STYLESHEET
  1

  9
$XEDIT
290
     1
  9
$CEPSNTYPE
380
     0
  9
$PSTYLEMODE
290
     1
  9
$FINGERPRINTGUID
  2
{3B4A4308-A041-0941-A168-51F735D4ECFB}
  9
$VERSIONGUID
  2
{801D867E-3662-AE4E-B3AD-CF15023ED36C}
  9
$EXTNAMES
290
     1
  9
$PSVPSCALE
 40
0
  9
$OLESTARTUP
290
     0
  9
$SORTENTS
280
   127
  9
$INDEXCTL
280
     0
  9
$HIDETEXT
280
     1
  9
$XCLIPFRAME
280
     2
  9
$HALOGAP
280
     0
  9
$OBSCOLOR
 70
   257
  9
$OBSLTYPE
280
     0
  9
$INTERSECTIONDISPLAY
280
     0
  9
$INTERSECTIONCOLOR
 70
   257
  9
$DIMASSOC
280
     2
  9
$PROJECTNAME
  1

  9
$CAMERADISPLAY
290
     0
  9
$LENSLENGTH
 40
50
  9
$CAMERAHEIGHT
 40
0
  9
$STEPSPERSEC
 40
2
  9
$STEPSIZE
 40
6
  9
$3DDWFPREC
 40
2
  9
$PSOLWIDTH
 40
5
  9
$PSOLHEIGHT
 40
80
  9
$LOFTANG1
 40
1.570796326794897
  9
$LOFTANG2
 40
1.570796326794897
  9
$LOFTMAG1
 40
0
  9
$LOFTMAG2
 40
0
  9
$LOFTPARAM
 70
     7
  9
$LOFTNORMALS
280
     1
  9
$LATITUDE
 40
37.795
  9
$LONGITUDE
 40
-122.394
  9
$NORTHDIRECTION
 40
0
  9
$TIMEZONE
 70
 -8000
  9
$LIGHTGLYPHDISPLAY
280
     1
  9
$TILEMODELIGHTSYNCH
280
     1
  9
$CMATERIAL
347
EC
  9
$SOLIDHIST
280
     0
  9
$SHOWHIST
280
     1
  9
$DWFFRAME
280
     2
  9
$DGNFRAME
280
     0
  9
$REALWORLDSCALE
290
     1
  9
$INTERFERECOLOR
 62
   256
  9
$CSHADOW
280
     0
  9
$SHADOWPLANELOCATION
 40
0
  0
ENDSEC
  0
SECTION
  2
CLASSES
  0
CLASS
  1
ACDBDICTIONARYWDFLT
  2
AcDbDictionaryWithDefault
  3
ObjectDBX Classes
 90
        0
 91
        1
280
     0
281
     0
  0
CLASS
  1
DICTIONARYVAR
  2
AcDbDictionaryVar
  3
ObjectDBX Classes
 90
        0
 91
       13
280
     0
281
     0
  0
CLASS
  1
TABLESTYLE
  2
AcDbTableStyle
  3
ObjectDBX Classes
 90
     4095
 91
        1
280
     0
281
     0
  0
CLASS
  1
MATERIAL
  2
AcDbMaterial
  3
ObjectDBX Classes
 90
     1153
 91
        3
280
     0
281
     0
  0
CLASS
  1
VISUALSTYLE
  2
AcDbVisualStyle
  3
ObjectDBX Classes
 90
     4095
 91
       24
280
     0
281
     0
  0
CLASS
  1
SCALE
  2
AcDbScale
  3
ObjectDBX Classes
 90
     1153
 91
       17
280
     0
281
     0
  0
CLASS
  1
MLEADERSTYLE
  2
AcDbMLeaderStyle
  3
ACDB_MLEADERSTYLE_CLASS
 90
     4095
 91
        2
280
     0
281
     0
  0
CLASS
  1
CELLSTYLEMAP
  2
AcDbCellStyleMap
  3
ObjectDBX Classes
 90
        0
 91
      256
280
     1
281
     0
  0
CLASS
  1
EXACXREFPANELOBJECT
  2
ExAcXREFPanelObject
  3
EXAC_ESW
 90
        0
 91
587458113
280
     0
281
     0
  0
CLASS
  1
NPOCOLLECTION
  2
AcDbImpNonPersistentObjectsCollection
  3
ObjectDBX Classes
 90
      513
 91
      145
280
     1
281
     0
  0
CLASS
  1
LAYER_INDEX
  2
AcDbLayerIndex
  3
ObjectDBX Classes
 90
      129
 91
681607289
280
     0
281
     0
  0
CLASS
  1
SPATIAL_INDEX
  2
AcDbSpatialIndex
  3
AutoCAD 2000
 90
        1
 91
        8
280
     0
281
     0
  0
CLASS
  1
IDBUFFER
  2
AcDbIdBuffer
  3
ObjectDBX Classes
 90
     1797
 91
        8
280
     0
281
     0
  0
CLASS
  1
ACDBSECTIONVIEWSTYLE
  2
AcDbSectionViewStyle
  3
ObjectDBX Classes
 90
        0
 91
-2143549438
280
     0
281
     0
  0
CLASS
  1
ACDBDETAILVIEWSTYLE
  2
AcDbDetailViewStyle
  3
ObjectDBX Classes
 90
        0
 91
340836412
280
     0
281
     0
  0
CLASS
  1
RAPIDRTRENDERSETTINGS
  2
AcDbRapidRTRenderSettings
  3
ObjectDBX Classes
 90
    49176
 91
        0
280
     0
281
     0
  0
CLASS
  1
SORTENTSTABLE
  2
AcDbSortentsTable
  3
ObjectDBX Classes
 90
        0
 91
805777415
280
     0
281
     0
  0
CLASS
  1
MULTILEADER
  2
AcDbMLeader
  3
ACDB_MLEADER_CLASS
 90
       17
 91
        0
280
     0
281
     0
  0
CLASS
  1
DIMASSOC
  2
AcDbDimAssoc
  3
"AcDbDimAssoc|Product Desc:     AcDim ARX App For Dimension|Company:          Autodesk, Inc.|WEB Address:      www.autodesk.com"
 90
       55
 91
-1878581241
280
     0
281
     0
  0
ENDSEC
  0
SECTION
  2
TABLES
  0
TABLE
  2
VPORT
  5
8
330
0
100
AcDbSymbolTable
 70
     1
1001
ACAD
1000
DbSaveVer
1071
       33
  0
VPORT
  5
EA
330
8
100
AcDbSymbolTableRecord
100
AcDbViewportTableRecord
  2
*Active
 70
     0
 10
0
 20
0
 11
1
 21
1
 12
58277.64466957247
 22
32145.65133631803
 13
0
 23
0
 14
10
 24
10
 15
10
 25
10
 16
0
 26
0
 36
1
 17
0
 27
0
 37
0
 40
80249.12817591331
 41
2.183041722745626
 42
50
 43
0
 44
0
 50
0
 51
0
 71
     0
 72
  1000
 73
     1
 74
     3
 75
     0
 76
     1
 77
     0
 78
     0
281
     0
 65
     1
110
0
120
0
130
0
111
1
121
0
131
0
112
0
122
1
132
0
 79
     0
146
0
348
F5
 60
     3
 61
     5
292
     1
282
     1
141
0
142
0
 63
   250
421
3258135347
1001
ACAD_NAV_VCDISPLAY
1070
     3
  0
ENDTAB
  0
TABLE
  2
LTYPE
  5
5
330
0
100
AcDbSymbolTable
 70
     5
  0
LTYPE
  5
14
330
5
100
AcDbSymbolTableRecord
100
AcDbLinetypeTableRecord
  2
ByBlock
 70
     0
  3

 72
    65
 73
     0
 40
0
  0
LTYPE
  5
15
330
5
100
AcDbSymbolTableRecord
100
AcDbLinetypeTableRecord
  2
ByLayer
 70
     0
  3

 72
    65
 73
     0
 40
0
  0
LTYPE
  5
16
330
5
100
AcDbSymbolTableRecord
100
AcDbLinetypeTableRecord
  2
Continuous
 70
     0
  3
Solid line
 72
    65
 73
     0
 40
0
  0
LTYPE
  5
2D3
330
5
100
AcDbSymbolTableRecord
100
AcDbLinetypeTableRecord
  2
DASHED
 70
     0
  3
Dashed __ __ __ __ __ __ __ __ __ __ __ __ __ _
 72
    65
 73
     2
 40
19.05
 49
12.7
 74
     0
 49
-6.35
 74
     0
  0
LTYPE
  5
2D4
330
5
100
AcDbSymbolTableRecord
100
AcDbLinetypeTableRecord
  2
CENTER
 70
     0
  3
Center ____ _ ____ _ ____ _ ____ _ ____ _ ____
 72
    65
 73
     4
 40
2
 49
1.25
 74
     4
 75
     0
340
0
 46
1
 50
0
 44
0
 45
0
 49
-0.25
 74
     4
 75
     0
340
0
 46
1
 50
0
 44
0
 45
0
 49
0.25
 74
     4
 75
     0
340
0
 46
1
 50
0
 44
0
 45
0
 49
-0.25
 74
     4
 75
     0
340
0
 46
1
 50
0
 44
0
 45
0
  0
ENDTAB
  0
TABLE
  2
LAYER
  5
2
102
{ACAD_XDICTIONARY
360
1FF
102
}
330
0
100
AcDbSymbolTable
 70
     7
  0
LAYER
  5
10
102
{ACAD_XDICTIONARY
360
13C
102
}
330
2
100
AcDbSymbolTableRecord
100
AcDbLayerTableRecord
  2
0
 70
     8
 62
     7
  6
Continuous
290
     1
370
    -3
390
F
348
0
  0
LAYER
  5
2D5
330
2
100
AcDbSymbolTableRecord
100
AcDbLayerTableRecord
  2
SLD-TXT
 70
     8
 62
     7
  6
Continuous
290
     1
370
    -3
390
F
348
0
1001
AcAecLayerStandard
1000

1000

  0
LAYER
  5
2D6
330
2
100
AcDbSymbolTableRecord
100
AcDbLayerTableRecord
  2
SLD
 70
     8
 62
     2
  6
Continuous
290
     1
370
    -3
390
F
348
0
1001
AcAecLayerStandard
1000

1000

  0
LAYER
  5
2D7
330
2
100
AcDbSymbolTableRecord
100
AcDbLayerTableRecord
  2
SLD-LINE
 70
     8
 62
     7
  6
Continuous
290
     1
370
    -3
390
F
348
0
1001
AcAecLayerStandard
1000

1000

  0
LAYER
  5
2D8
330
2
100
AcDbSymbolTableRecord
100
AcDbLayerTableRecord
  2
E-SLD-LEGENDF
 70
     8
 62
     2
  6
Continuous
290
     1
370
    -3
390
F
348
0
  0
LAYER
  5
2D9
330
2
100
AcDbSymbolTableRecord
100
AcDbLayerTableRecord
  2
E-SLD-FRAME
 70
     8
 62
     8
  6
Continuous
290
     1
370
    -3
390
F
348
0
  0
LAYER
  5
5A0
102
{ACAD_XDICTIONARY
360
5A1
102
}
330
2
100
AcDbSymbolTableRecord
100
AcDbLayerTableRecord
  2
TXT
 70
     8
 62
     7
  6
Continuous
290
     1
370
    -3
390
F
348
0
  0
ENDTAB
  0
TABLE
  2
STYLE
  5
3
330
0
100
AcDbSymbolTable
 70
     8
  0
STYLE
  5
11
330
3
100
AcDbSymbolTableRecord
100
AcDbTextStyleTableRecord
  2
Standard
 70
     0
 40
0
 41
1
 50
0
 71
     0
 42
2.5
  3
arial.ttf
  4

1001
ACAD
1000
Arial
1071
       34
  0
STYLE
  5
132
330
3
100
AcDbSymbolTableRecord
100
AcDbTextStyleTableRecord
  2
Annotative
 70
     0
 40
0
 41
1
 50
0
 71
     0
 42
2.5
  3
arial.ttf
  4

1001
AcadAnnotative
1000
AnnotativeData
1002
{
1070
     1
1070
     1
1002
}
1001
ACAD
1000
Arial
1071
       34
  0
STYLE
  5
2DA
330
3
100
AcDbSymbolTableRecord
100
AcDbTextStyleTableRecord
  2
SLD-TXT
 70
     0
 40
0
 41
0.75
 50
0
 71
     0
 42
390.60125
  3
romans.shx
  4

  0
STYLE
  5
2DB
330
3
100
AcDbSymbolTableRecord
100
AcDbTextStyleTableRecord
  2
SIMPLEX
 70
     0
 40
0
 41
0.75
 50
0
 71
     0
 42
2.5
  3
simplex.shx
  4

  0
STYLE
  5
2DC
330
3
100
AcDbSymbolTableRecord
100
AcDbTextStyleTableRecord
  2
ROMANS
 70
     0
 40
0
 41
0.8
 50
0
 71
     0
 42
1192.399656066903
  3
romans.shx
  4

  0
STYLE
  5
5A2
330
3
100
AcDbSymbolTableRecord
100
AcDbTextStyleTableRecord
  2
ARIAL
 70
     0
 40
0
 41
0.95
 50
0
 71
     0
 42
2.5
  3
arial.ttf
  4

1001
ACAD
1000
Arial
1071
       34
  0
STYLE
  5
5A3
330
3
100
AcDbSymbolTableRecord
100
AcDbTextStyleTableRecord
  2
TAHOMA
 70
     0
 40
0
 41
0.9
 50
0
 71
     0
 42
200
  3
tahoma.ttf
  4

1001
ACAD
1000
Tahoma
1071
       34
  0
ENDTAB
  0
TABLE
  2
VIEW
  5
6
330
0
100
AcDbSymbolTable
 70
     9
  0
ENDTAB
  0
TABLE
  2
UCS
  5
7
330
0
100
AcDbSymbolTable
 70
     0
  0
ENDTAB
  0
TABLE
  2
APPID
  5
9
330
0
100
AcDbSymbolTable
 70
    14
  0
APPID
  5
12
330
9
100
AcDbSymbolTableRecord
100
AcDbRegAppTableRecord
  2
ACAD
 70
     0
  0
APPID
  5
9E
330
9
100
AcDbSymbolTableRecord
100
AcDbRegAppTableRecord
  2
ACAD_PSEXT
 70
     0
  0
APPID
  5
133
330
9
100
AcDbSymbolTableRecord
100
AcDbRegAppTableRecord
  2
AcadAnnoPO
 70
     0
  0
APPID
  5
134
330
9
100
AcDbSymbolTableRecord
100
AcDbRegAppTableRecord
  2
AcadAnnotative
 70
     0
  0
APPID
  5
135
330
9
100
AcDbSymbolTableRecord
100
AcDbRegAppTableRecord
  2
ACAD_DSTYLE_DIMJAG
 70
     0
  0
APPID
  5
136
330
9
100
AcDbSymbolTableRecord
100
AcDbRegAppTableRecord
  2
ACAD_DSTYLE_DIMTALN
 70
     0
  0
APPID
  5
165
330
9
100
AcDbSymbolTableRecord
100
AcDbRegAppTableRecord
  2
ACAD_MLEADERVER
 70
     0
  0
APPID
  5
217
330
9
100
AcDbSymbolTableRecord
100
AcDbRegAppTableRecord
  2
ACAD_NAV_VCDISPLAY
 70
     0
  0
APPID
  5
2DE
330
9
100
AcDbSymbolTableRecord
100
AcDbRegAppTableRecord
  2
AcAecLayerStandard
 70
     0
  0
APPID
  5
2DF
330
9
100
AcDbSymbolTableRecord
100
AcDbRegAppTableRecord
  2
GradientColor1ACI
 70
     0
  0
APPID
  5
2E0
330
9
100
AcDbSymbolTableRecord
100
AcDbRegAppTableRecord
  2
GradientColor2ACI
 70
     0
  0
APPID
  5
2E1
330
9
100
AcDbSymbolTableRecord
100
AcDbRegAppTableRecord
  2
AcDbBlockRepETag
 70
     0
  0
APPID
  5
2E2
330
9
100
AcDbSymbolTableRecord
100
AcDbRegAppTableRecord
  2
ACAD_DSTYLE_DIMBREAK
 70
     0
  0
APPID
  5
4D6
330
9
100
AcDbSymbolTableRecord
100
AcDbRegAppTableRecord
  2
ACAD_EXEMPT_FROM_CAD_STANDARDS
 70
     0
  0
ENDTAB
  0
TABLE
  2
DIMSTYLE
  5
A
330
0
100
AcDbSymbolTable
 70
     6
100
AcDbDimStyleTable
 71
     2
340
27
340
137
  0
DIMSTYLE
105
1B0
330
A
100
AcDbSymbolTableRecord
100
AcDbDimStyleTableRecord
  2
Standard
 70
     0
 41
0.18
 42
0.0625
 43
0.38
 44
0.18
 49
1
 50
45
 73
     1
 74
     1
140
0.18
141
0.09
143
25.4
144
1
146
1
147
0.09
171
     2
176
-1056964608
177
-1056964608
178
-1056964608
271
     4
272
     4
273
     2
274
     2
277
     2
278
    46
283
     1
289
     3
340
11
294
     0
371
    -2
372
    -2
341
0
342
0
343
0
344
0
345
0
346
0
347
0
  0
DIMSTYLE
105
137
330
A
100
AcDbSymbolTableRecord
100
AcDbDimStyleTableRecord
  2
Annotative
 70
     0
 40
0
 41
2.5
 42
0.625
 43
3.75
 44
1.25
 49
1
 50
45
 73
     0
 74
     0
 77
     1
 78
     8
140
2.5
141
2.5
143
0.03937007874016
144
1
146
1
147
0.625
171
     3
172
     1
176
-1056964608
177
-1056964608
178
-1056964608
271
     2
272
     2
273
     2
274
     3
277
     2
278
    44
283
     0
284
     8
289
     3
340
11
294
     0
371
    -2
372
    -2
341
0
342
0
343
0
344
0
345
0
346
0
347
0
1001
AcadAnnotative
1000
AnnotativeData
1002
{
1070
     1
1070
     1
1002
}
1001
ACAD_DSTYLE_DIMJAG
1070
   388
1040
1.5
1001
ACAD_DSTYLE_DIMTALN
1070
   392
1070
     0
  0
DIMSTYLE
105
27
330
A
100
AcDbSymbolTableRecord
100
AcDbDimStyleTableRecord
  2
ISO-25
 70
     0
 41
2.5
 42
0.625
 43
3.75
 44
1.25
 49
1
 50
45
 73
     0
 74
     0
 77
     1
 78
     8
140
2.5
141
2.5
143
0.03937007874016
144
1
146
1
147
0.625
171
     3
172
     1
176
-1056964608
177
-1056964608
178
-1056964608
271
     2
272
     2
273
     2
274
     3
277
     2
278
    44
283
     0
284
     8
289
     3
340
11
294
     0
371
    -2
372
    -2
341
0
342
0
343
0
344
0
345
0
346
0
347
0
  0
DIMSTYLE
105
2DD
330
A
100
AcDbSymbolTableRecord
100
AcDbDimStyleTableRecord
  2
1-100
 70
     0
 41
100
 42
10
 43
10
 44
25
 49
1
 50
45
 90
        2
 73
     0
 74
     0
 77
     1
140
100
143
25.4
144
1
146
1
147
25
171
     2
176
-1023410169
177
-1023410169
178
-1023410169
273
     2
274
     2
277
     2
278
    46
279
     1
283
     1
340
2DB
294
     0
371
    -2
372
    -2
341
0
342
0
343
0
344
0
345
0
346
0
347
0
1001
ACAD_DSTYLE_DIMBREAK
1070
   391
1040
0.125
1001
ACAD_DSTYLE_DIMJAG
1070
   388
1040
1.5
1001
ACAD_DSTYLE_DIMTALN
1070
   392
1070
     0
  0
ENDTAB
  0
TABLE
  2
BLOCK_RECORD
  5
1
330
0
100
AcDbSymbolTable
 70
     6
  0
BLOCK_RECORD
  5
1F
102
{ACAD_XDICTIONARY
360
1CE
102
}
330
1
100
AcDbSymbolTableRecord
100
AcDbBlockTableRecord
  2
*Model_Space
340
22
  0
BLOCK_RECORD
  5
D2
330
1
100
AcDbSymbolTableRecord
100
AcDbBlockTableRecord
  2
*Paper_Space
340
D3
  0
BLOCK_RECORD
  5
D6
330
1
100
AcDbSymbolTableRecord
100
AcDbBlockTableRecord
  2
*Paper_Space0
340
D7
  0
BLOCK_RECORD
  5
2CB
102
{ACAD_XDICTIONARY
360
2CC
102
}
330
1
100
AcDbSymbolTableRecord
100
AcDbBlockTableRecord
  2
DP ISOL
340
0
  0
ENDTAB
  0
ENDSEC
  0
SECTION
  2
BLOCKS
  0
BLOCK
  5
20
330
1F
100
AcDbEntity
  8
0
100
AcDbBlockBegin
 70
     0
 10
0
 20
0
 30
0
  1

  0
ENDBLK
  5
21
330
1F
100
AcDbEntity
  8
0
100
AcDbBlockEnd
  0
BLOCK
  5
D4
330
D2
100
AcDbEntity
 67
     1
  8
0
100
AcDbBlockBegin
 70
     0
 10
0
 20
0
 30
0
  1

  0
ENDBLK
  5
D5
330
D2
100
AcDbEntity
 67
     1
  8
0
100
AcDbBlockEnd
  0
BLOCK
  5
D8
330
D6
100
AcDbEntity
  8
0
100
AcDbBlockBegin
 70
     0
 10
0
 20
0
 30
0
  1

  0
ENDBLK
  5
D9
330
D6
100
AcDbEntity
  8
0
100
AcDbBlockEnd
  0
BLOCK
  5
2CE
330
2CB
100
AcDbEntity
  8
0
100
AcDbBlockBegin
 70
     0
 10
0
 20
0
 30
0
  1

  0
LWPOLYLINE
  5
2CF
330
2CB
100
AcDbEntity
  8
SLD
  6
Continuous
 48
0.5
 62
     3
100
AcDbPolyline
 90
        4
 70
     1
 43
0
 10
0
 20
141.2999416394305
 10
0
 20
-141.2999416394305
 10
282.3756324588467
 20
-141.2999416394305
 10
282.3756324588467
 20
141.2999416394305
  0
LINE
  5
2D0
330
2CB
100
AcDbEntity
  8
SLD
  6
Continuous
 48
0.5
 62
     3
100
AcDbLine
 10
141.1878162294233
 20
-141.2999416394305
 30
0
 11
141.1878162294233
 21
-289.3285409813834
 31
0
  0
LINE
  5
2D1
330
2CB
100
AcDbEntity
  8
SLD
  6
Continuous
 48
0.5
 62
     3
100
AcDbLine
 10
141.1878162294233
 20
-289.3285409813834
 30
0
 11
20.16990319215256
 21
-289.3285409813834
 31
0
  0
ENDBLK
  5
2D2
330
2CB
100
AcDbEntity
  8
0
100
AcDbBlockEnd
  0
ENDSEC
  0
SECTION
  2
ENTITIES
  0
LINE
  5
3E0
330
1F
100
AcDbEntity
  8
E-SLD-FRAME
  6
CENTER
 48
1000
 62
     7
100
AcDbLine
 10
98129.22011246812
 20
10029.53295961823
 30
0
 11
7870.449278272572
 21
10029.53295961829
 31
0
  0
LINE
  5
3E1
330
1F
100
AcDbEntity
  8
E-SLD-FRAME
  6
CENTER
 48
1000
 62
     7
100
AcDbLine
 10
98129.22011246812
 20
26315.67759504165
 30
0
 11
98129.22011246812
 21
10029.53295961823
 31
0
  0
CIRCLE
  5
3E2
330
1F
100
AcDbEntity
  8
E-SLD-LEGENDF
 62
     2
100
AcDbCircle
 10
98129.22011246812
 20
11203.78163764093
 30
0
 40
290.3587476807593
  0
LWPOLYLINE
  5
3E3
330
1F
100
AcDbEntity
  8
E-SLD-LEGENDF
 62
     2
100
AcDbPolyline
 90
        2
 70
     0
 43
111.0622209878904
 43
111.0622209878904
 10
98894.84617857297
 20
9696.346296654636
 10
99894.40616746398
 20
9696.346296654636
1001
AcDbBlockRepETag
1070
     1
1071
        5
1005
0
  0
LWPOLYLINE
  5
3E4
330
1F
100
AcDbEntity
  8
E-SLD-LEGENDF
 62
     2
100
AcDbPolyline
 90
        2
 70
     0
 43
111.0622209878904
 43
111.0622209878904
 10
98728.25284709106
 20
10029.53295961823
 10
100060.9994989457
 20
10029.53295961823
1001
AcDbBlockRepETag
1070
     1
1071
        4
1005
0
  0
LWPOLYLINE
  5
3E5
330
1F
100
AcDbEntity
  8
E-SLD-LEGENDF
 62
     2
100
AcDbPolyline
 90
        2
 70
     0
 43
99.95599888910137
 43
99.95599888910137
 10
99094.75817635108
 20
9363.159633690986
 10
99694.49416968576
 20
9363.159633690986
1001
AcDbBlockRepETag
1070
     1
1071
        6
1005
0
  0
LINE
  5
3E6
330
1F
100
AcDbEntity
  8
E-SLD-LEGENDF
 62
     2
100
AcDbLine
 10
99394.62617301848
 20
10029.53295961823
 30
0
 11
99394.62617301848
 21
11203.78163764093
 31
0
1001
AcDbBlockRepETag
1070
     1
1071
        0
1005
0
  0
HATCH
  5
3E7
330
1F
100
AcDbEntity
  8
E-SLD-LEGENDF
 62
     2
100
AcDbHatch
 10
0
 20
0
 30
0
210
0
220
0
230
1
  2
SOLID
 70
     1
 71
     0
 91
        1
 92
        1
 93
        1
 72
     2
 10
98129.22011246812
 20
11203.78163764082
 40
290.3587476807593
 50
0
 51
360
 73
     1
 97
        0
 75
     1
 76
     1
 98
        1
 10
98129.22011246812
 20
11203.78163764082
1001
GradientColor1ACI
1070
     5
1001
GradientColor2ACI
1070
     2
1001
ACAD
1010
0
1020
0
1030
0
  0
MTEXT
  5
3E8
330
1F
100
AcDbEntity
  8
SLD-TXT
 62
     2
100
AcDbMText
 10
100311.0864085651
 20
9887.388039345242
 30
0
210
0
220
0
230
1
 11
1
 21
0
 31
0
 40
568.761546927605
 41
7194.027757472762
 46
0
 71
     1
 72
     5
  1
{\W0.75;E}
  7
SLD-TXT
 73
     1
 44
0.908108108108108
  0
LINE
  5
3E9
330
1F
100
AcDbEntity
  8
E-SLD-LEGENDF
 62
     2
100
AcDbLine
 10
99394.62617301848
 20
11203.78163764093
 30
0
 11
98129.22011246812
 21
11203.78163764093
 31
0
  0
LWPOLYLINE
  5
3EA
330
1F
100
AcDbEntity
  8
SLD
 62
     2
100
AcDbPolyline
 90
        2
 70
     0
 43
151.8215674210664
 43
151.8215674210664
 10
29518.98724616794
 20
20893.68592741864
 10
58885.53543486787
 20
20893.68592741864
  0
TEXT
  5
3EB
330
1F
100
AcDbEntity
  8
SLD-TXT
100
AcDbText
 10
9247.53678974694
 20
24715.26712428737
 30
0
 40
558.9794072998573
  1
B10A
 41
0.7
  7
SLD-TXT
 11
0
 21
0
 31
0
100
AcDbText
  0
TEXT
  5
3EC
330
1F
100
AcDbEntity
  8
SLD-TXT
100
AcDbText
 10
9267.50034000758
 20
23869.24423756327
 30
0
 40
558.9794072998573
  1
SPN
 41
0.7
  7
SLD-TXT
 11
0
 21
0
 31
0
100
AcDbText
  0
TEXT
  5
3ED
330
1F
100
AcDbEntity
  8
SLD-TXT
100
AcDbText
 10
9247.53678974694
 20
23023.22135083918
 30
0
 40
558.9794072998573
  1
MCB
 41
0.7
  7
SLD-TXT
 11
0
 21
0
 31
0
100
AcDbText
  0
TEXT
  5
3EE
330
1F
100
AcDbEntity
  8
SLD-TXT
100
AcDbText
 10
9207.609689225545
 20
22177.19846411508
 30
0
 40
558.9794072998573
  1
6kA
 41
0.7
  7
SLD-TXT
 11
0
 21
0
 31
0
100
AcDbText
  0
LEADER
  5
3EF
330
1F
100
AcDbEntity
  8
SLD
100
AcDbLeader
  3
1-100
 71
     0
 73
     3
 72
     0
 74
     1
 40
0
 41
0
 76
     2
 10
12942.50682691181
 20
23811.1196278202
 30
0
 10
11053.80625922278
 20
23811.3873123204
 30
0
210
0
220
0
230
1
211
1
221
0
231
0
212
0
222
0
232
0
340
0
1001
ACAD
1000
DSTYLE
1002
{
1070
    41
1040
250
1002
}
  0
LINE
  5
3F0
330
1F
100
AcDbEntity
  8
SLD-LINE
  6
ByBlock
100
AcDbLine
 10
12154.81504350375
 20
24832.23813067702
 30
0
 11
12154.81504350375
 21
32253.20196932478
 31
0
  0
LINE
  5
3F1
330
1F
100
AcDbEntity
  8
SLD-LINE
  6
ByBlock
100
AcDbLine
 10
12157.45097170082
 20
22790.10149027011
 30
0
 11
12157.45097170082
 21
20893.68592741864
 31
0
  0
LINE
  5
3F2
330
1F
100
AcDbEntity
  8
SLD
 62
     7
100
AcDbLine
 10
8249.557697869357
 20
32253.20196932478
 30
0
 11
8249.55769786959
 21
30129.87096293142
 31
0
  0
MTEXT
  5
3F3
330
1F
100
AcDbEntity
  8
SLD-TXT
100
AcDbMText
 10
7716.052678956054
 20
32849.80096782895
 30
0
210
0
220
0
230
1
 11
1E-16
 21
1
 31
0
 40
546.8276810542083
 41
21416.33087607104
 46
2254.474341907001
 71
     1
 72
     5
  1
2 x 1C 1.5mm² PVC + 2.5mm² \PPVC CPC IN TRUNKING/CONDUIT
  7
SLD-TXT
 73
     1
 44
0.8804347825883589
  0
LWPOLYLINE
  5
3F4
330
1F
100
AcDbEntity
  8
SLD-TXT
100
AcDbPolyline
 90
        2
 70
     0
 43
128.0994475062173
 43
128.0994475062173
 10
11883.07507950997
 20
29858.13099893793
 10
12426.55500749753
 20
30401.6109269252
  0
LINE
  5
3F5
330
1F
100
AcDbEntity
  8
SLD
 62
     7
100
AcDbLine
 10
21798.81937531672
 20
30130.18835730684
 30
0
 11
8249.55769786959
 21
30129.87096293142
 31
0
  0
TEXT
  5
3F6
330
1F
100
AcDbEntity
  8
SLD-TXT
100
AcDbText
 10
11248.55434577084
 20
19721.73919038718
 30
0
 40
595.6320252410161
  1
80A HDHC TINNED
 41
0.8
  7
SLD-TXT
 11
0
 21
0
 31
0
100
AcDbText
  0
TEXT
  5
3F7
330
1F
100
AcDbEntity
  8
SLD-TXT
100
AcDbText
 10
12339.13369938066
 20
21261.45414486963
 30
0
 40
568.5578422755154
  1
S1
 41
0.65
  7
ROMANS
 11
0
 21
0
 31
0
100
AcDbText
1001
ACAD
1000
ACAD_MTEXT_DEFINED_HEIGHT_BEGIN
1070
    46
1040
2913.333333333333
1000
ACAD_MTEXT_DEFINED_HEIGHT_END
  0
LEADER
  5
3F8
330
1F
100
AcDbEntity
  8
SLD
100
AcDbLeader
  3
1-100
 71
     0
 73
     3
 72
     0
 74
     1
 40
0
 41
0
 76
     2
 10
32567.2691019275
 20
23811.11962782032
 30
0
 10
30185.48860358386
 20
23811.38731232046
 30
0
210
0
220
0
230
1
211
1
221
0
231
0
212
0
222
0
232
0
340
0
1001
ACAD
1000
DSTYLE
1002
{
1070
    41
1040
250
1002
}
  0
LINE
  5
3F9
330
1F
100
AcDbEntity
  8
SLD-LINE
  6
ByBlock
100
AcDbLine
 10
31779.57731851933
 20
24832.23813067708
 30
0
 11
31779.57731851933
 21
27496.0400243572
 31
0
  0
LINE
  5
3FA
330
1F
100
AcDbEntity
  8
SLD-LINE
  6
ByBlock
100
AcDbLine
 10
31779.57731851933
 20
28759.38558316667
 30
0
 11
31779.57731851933
 21
32253.20196932484
 31
0
  0
LINE
  5
3FB
330
1F
100
AcDbEntity
  8
SLD-LINE
  6
ByBlock
100
AcDbLine
 10
31782.21324671651
 20
22858.4937905778
 30
0
 11
31782.21324671651
 21
20893.68592741864
 31
0
  0
LEADER
  5
3FC
330
1F
100
AcDbEntity
  8
SLD
100
AcDbLeader
  3
1-100
 71
     0
 73
     3
 72
     0
 74
     1
 40
0
 41
0
 76
     2
 10
35099.49049821063
 20
23795.89818931714
 30
0
 10
32717.70999986699
 20
23796.16587381728
 30
0
210
0
220
0
230
1
211
1
221
0
231
0
212
0
222
0
232
0
340
0
1001
ACAD
1000
DSTYLE
1002
{
1070
    41
1040
250
1002
}
  0
LINE
  5
3FD
330
1F
100
AcDbEntity
  8
SLD-LINE
  6
ByBlock
100
AcDbLine
 10
34311.79871480246
 20
24817.01669217389
 30
0
 11
34311.79871480246
 21
32237.98053082171
 31
0
  0
LINE
  5
3FE
330
1F
100
AcDbEntity
  8
SLD-LINE
  6
ByBlock
100
AcDbLine
 10
34314.43464299953
 20
22858.50004352442
 30
0
 11
34314.43464299953
 21
20878.46448891551
 31
0
  0
TEXT
  5
3FF
330
1F
100
AcDbEntity
  8
SLD-TXT
100
AcDbText
 10
31963.89597439624
 20
21261.45414486969
 30
0
 40
568.5578422755154
  1
P1
 41
0.65
  7
ROMANS
 11
0
 21
0
 31
0
100
AcDbText
1001
ACAD
1000
ACAD_MTEXT_DEFINED_HEIGHT_BEGIN
1070
    46
1040
2913.333333333333
1000
ACAD_MTEXT_DEFINED_HEIGHT_END
  0
TEXT
  5
400
330
1F
100
AcDbEntity
  8
SLD-TXT
100
AcDbText
 10
34496.11737067937
 20
21246.23270636651
 30
0
 40
568.5578422755154
  1
P2
 41
0.65
  7
ROMANS
 11
0
 21
0
 31
0
100
AcDbText
1001
ACAD
1000
ACAD_MTEXT_DEFINED_HEIGHT_BEGIN
1070
    46
1040
2913.333333333333
1000
ACAD_MTEXT_DEFINED_HEIGHT_END
  0
LINE
  5
401
330
1F
100
AcDbEntity
  8
E-SLD-FRAME
  6
CENTER
 48
1000
 62
     7
100
AcDbLine
 10
98129.22011246812
 20
26315.67759504165
 30
0
 11
7870.449278272572
 21
26315.67759504171
 31
0
  0
LINE
  5
402
330
1F
100
AcDbEntity
  8
E-SLD-FRAME
  6
CENTER
 48
1000
 62
     7
100
AcDbLine
 10
7870.449278272572
 20
26315.67759504171
 30
0
 11
7870.449278272572
 21
10029.53295961829
 31
0
  0
LINE
  5
403
330
1F
100
AcDbEntity
  8
SLD
 62
     7
100
AcDbLine
 10
27922.17096842951
 20
32305.8285592994
 30
0
 11
27922.17096842962
 21
30182.49755290645
 31
0
  0
MTEXT
  5
404
330
1F
100
AcDbEntity
  8
SLD-TXT
100
AcDbMText
 10
27388.6659495162
 20
32902.42755780351
 30
0
210
0
220
0
230
1
 11
1E-16
 21
1
 31
0
 40
546.8276810542083
 41
21416.33087607104
 46
2254.474341907001
 71
     1
 72
     5
  1
2 x 1C 2.5mm² PVC + 2.5mm² \PPVC CPC IN METAL TRUNKING/CONDUIT
  7
SLD-TXT
 73
     1
 44
0.8804347825883589
  0
LINE
  5
405
330
1F
100
AcDbEntity
  8
SLD
 62
     7
100
AcDbLine
 10
52081.955990119
 20
30129.87096293148
 30
0
 11
27922.17096842962
 21
30182.49755290651
 31
0
  0
LWPOLYLINE
  5
406
330
1F
100
AcDbEntity
  8
SLD-TXT
100
AcDbPolyline
 90
        2
 70
     0
 43
128.0994475062173
 43
128.0994475062173
 10
31507.83735452555
 20
29858.13099893793
 10
32051.31728251334
 20
30401.61092692526
  0
LWPOLYLINE
  5
407
330
1F
100
AcDbEntity
  8
SLD-TXT
100
AcDbPolyline
 90
        2
 70
     0
 43
128.0994475062173
 43
128.0994475062173
 10
34040.0587508088
 20
29842.90956043486
 10
34583.53867879636
 20
30386.38948842213
  0
TEXT
  5
408
330
1F
100
AcDbEntity
  8
SLD-TXT
100
AcDbText
 10
32095.64492554949
 20
32763.24712298204
 30
0
 40
568.5578422755154
  1
4 Nos 13A DOUBLE S/S/O (LIVING)
 50
90
 41
0.65
  7
ROMANS
 11
0
 21
0
 31
0
100
AcDbText
1001
ACAD
1000
ACAD_MTEXT_DEFINED_HEIGHT_BEGIN
1070
    46
1040
2913.333333333333
1000
ACAD_MTEXT_DEFINED_HEIGHT_END
  0
TEXT
  5
409
330
1F
100
AcDbEntity
  8
SLD-TXT
100
AcDbText
 10
34200.98212413499
 20
32748.02568447892
 30
0
 40
568.5578422755154
  1
2 Nos 13A DOUBLE S/S/O
 50
90
 41
0.65
  7
ROMANS
 11
0
 21
0
 31
0
100
AcDbText
1001
ACAD
1000
ACAD_MTEXT_DEFINED_HEIGHT_BEGIN
1070
    46
1040
2913.333333333333
1000
ACAD_MTEXT_DEFINED_HEIGHT_END
  0
LINE
  5
40B
330
1F
100
AcDbEntity
  8
SLD-LINE
100
AcDbLine
 10
31779.57731851933
 20
28759.38558316667
 30
0
 11
31779.57731851933
 21
27379.04640176897
 31
0
  0
TEXT
  5
40C
330
1F
100
AcDbEntity
  8
SLD-TXT
100
AcDbText
 10
28904.51851656949
 20
24763.62935744778
 30
0
 40
558.9794072998573
  1
B20A
 41
0.7
  7
SLD-TXT
 11
0
 21
0
 31
0
100
AcDbText
  0
TEXT
  5
40D
330
1F
100
AcDbEntity
  8
SLD-TXT
100
AcDbText
 10
28924.48206683025
 20
23917.60647072369
 30
0
 40
558.9794072998573
  1
SPN
 41
0.7
  7
SLD-TXT
 11
0
 21
0
 31
0
100
AcDbText
  0
TEXT
  5
40E
330
1F
100
AcDbEntity
  8
SLD-TXT
100
AcDbText
 10
28904.51851656949
 20
23071.58358399959
 30
0
 40
558.9794072998573
  1
MCB
 41
0.7
  7
SLD-TXT
 11
0
 21
0
 31
0
100
AcDbText
  0
TEXT
  5
40F
330
1F
100
AcDbEntity
  8
SLD-TXT
100
AcDbText
 10
28864.59141604821
 20
22225.5606972755
 30
0
 40
558.9794072998573
  1
6kA
 41
0.7
  7
SLD-TXT
 11
0
 21
0
 31
0
100
AcDbText
  0
LINE
  5
410
330
1F
100
AcDbEntity
  8
SLD-LINE
  6
ByBlock
100
AcDbLine
 10
20788.27909962428
 20
18958.62671477446
 30
0
 11
20788.27909962428
 21
20893.68592741864
 31
0
  0
MTEXT
  5
411
330
1F
100
AcDbEntity
  8
SLD-TXT
100
AcDbMText
 10
22678.94910573124
 20
18819.35595758317
 30
0
210
0
220
0
230
1
 11
1
 21
0
 31
0
 40
558.9794072998573
 41
7993.364174969736
 46
0
 71
     1
 72
     5
  1
63A 2P \PRCCB (30mA)
  7
SLD-TXT
 73
     1
 44
0.8695652173913043
  0
LINE
  5
412
330
1F
100
AcDbEntity
  8
SLD-LINE
  6
ByBlock
100
AcDbLine
 10
51268.84042081039
 20
13195.96638757162
 30
0
 11
51268.84042081039
 21
14557.0076955581
 31
0
  0
LINE
  5
413
330
1F
100
AcDbEntity
  8
SLD-LINE
100
AcDbLine
 10
51271.49013173254
 20
6479.878587460873
 30
0
 11
51271.49013173254
 21
11110.32055623145
 31
0
  0
MTEXT
  5
414
330
1F
100
AcDbEntity
  8
SLD-TXT
100
AcDbMText
 10
53083.15742024686
 20
13028.3672061688
 30
0
210
0
220
0
230
1
 11
1
 21
0
 31
0
 40
558.9794072998573
 41
7993.364174969736
 46
3056.426548974302
 71
     1
 72
     5
  1
63A DP\PMCB 10kA\PTYPE B
  7
SLD-TXT
 73
     1
 44
0.8695652173913043
  0
LWPOLYLINE
  5
415
330
1F
100
AcDbEntity
  8
SLD-TXT
100
AcDbPolyline
 90
        2
 70
     0
 43
116.4540601250402
 43
116.4540601250402
 10
51000.52622937143
 20
8207.888933310373
 10
51494.59896303841
 20
8701.961666977062
  0
MTEXT
  5
416
330
1F
100
AcDbEntity
  8
SLD-TXT
 62
     7
100
AcDbMText
 10
54417.60618465708
 20
9196.067618576722
 30
0
210
0
220
0
230
1
 11
1
 21
0
 31
0
 40
510.3725765480025
 41
19469.39453723002
 46
0
 71
     1
 72
     5
  1
2 x 1C 25mm² PVC CABLE + 16mm² \PCPC IN METAL TRUNKING
  7
SLD-TXT
 73
     1
 44
1
  0
LINE
  5
417
330
1F
100
AcDbEntity
  8
0
100
AcDbLine
 10
51271.49013173254
 20
8445.689441616385
 30
0
 11
53938.21549921471
 21
8445.689441616385
 31
0
  0
MTEXT
  5
418
330
1F
100
AcDbEntity
  8
SLD-TXT
 62
     7
100
AcDbMText
 10
8542.67078064708
 20
11602.09859877962
 30
0
210
0
220
0
230
1
 11
1
 21
0
 31
0
 40
510.3725765480025
 41
19469.39453723002
 46
0
 71
     1
 72
     5
  1
63A DP DB
  7
SLD-TXT
 73
     1
 44
1
  0
MTEXT
  5
419
330
1F
100
AcDbEntity
  8
SLD-TXT
 62
     7
100
AcDbMText
 10
8555.036890510237
 20
10728.16311584591
 30
0
210
0
220
0
230
1
 11
1
 21
0
 31
0
 40
353.1316848486255
 41
13471.06096964835
 46
0
 71
     1
 72
     5
  1
APPROVED LOAD: 14.49kVA
  7
SLD-TXT
 73
     1
 44
1
  0
MTEXT
  5
41A
330
1F
100
AcDbEntity
  8
SLD-TXT
 62
     7
100
AcDbMText
 10
8539.278296068078
 20
9431.806907700695
 30
0
210
0
220
0
230
1
 11
1
 21
0
 31
0
 40
224.1086233117555
 41
8549.164682718116
 46
0
 71
     1
 72
     5
  1
LOCATED AT PREMISES UNIT
  7
SLD-TXT
 73
     1
 44
1
  0
LWPOLYLINE
  5
41B
330
1F
100
AcDbEntity
  8
0
370
     0
100
AcDbPolyline
 90
        4
 70
     1
 43
0
 10
8343.322817073087
 20
9543.364556400367
 10
12222.61658207618
 20
9543.364556400367
 10
12222.61658207618
 20
9055.325833997427
 10
8343.322817073087
 20
9055.325833997427
  0
CIRCLE
  5
41C
330
1F
100
AcDbEntity
  8
0
100
AcDbCircle
 10
12151.34201454661
 20
24643.54331791022
 30
0
 40
164.794136700766
  0
CIRCLE
  5
41D
330
1F
100
AcDbEntity
  8
0
100
AcDbCircle
 10
31769.13080112611
 20
24691.90555107063
 30
0
 40
164.794136700766
  0
CIRCLE
  5
41E
330
1F
100
AcDbEntity
  8
0
100
AcDbCircle
 10
34311.79871480246
 20
24691.90555107063
 30
0
 40
164.794136700766
  0
CIRCLE
  5
41F
330
1F
100
AcDbEntity
  8
0
100
AcDbCircle
 10
12151.34201454661
 20
22974.92260685044
 30
0
 40
164.794136700766
  0
CIRCLE
  5
420
330
1F
100
AcDbEntity
  8
0
100
AcDbCircle
 10
31781.20452589458
 20
23023.28484001086
 30
0
 40
164.794136700766
  0
CIRCLE
  5
421
330
1F
100
AcDbEntity
  8
0
100
AcDbCircle
 10
34312.68012372425
 20
23023.28484001086
 30
0
 40
164.794136700766
  0
ARC
  5
422
330
1F
100
AcDbEntity
  8
0
100
AcDbCircle
 10
12223.8294074633
 20
23813.32784869364
 30
0
 40
820.885500579172
100
AcDbArc
 50
283.7768672271041
 51
75.22012274595504
  0
ARC
  5
423
330
1F
100
AcDbEntity
  8
0
100
AcDbCircle
 10
31824.08703179271
 20
23811.11962782032
 30
0
 40
820.885500579172
100
AcDbArc
 50
283.7768672271024
 51
75.22012274596094
  0
ARC
  5
424
330
1F
100
AcDbEntity
  8
0
100
AcDbCircle
 10
34340.69605985875
 20
23861.69008185405
 30
0
 40
820.885500579172
100
AcDbArc
 50
283.7768672271024
 51
75.22012274596094
  0
CIRCLE
  5
425
330
1F
100
AcDbEntity
  8
0
100
AcDbCircle
 10
51266.83061744319
 20
12957.36500609116
 30
0
 40
164.794136700766
  0
CIRCLE
  5
426
330
1F
100
AcDbEntity
  8
0
100
AcDbCircle
 10
51278.90434221167
 20
11288.74429503144
 30
0
 40
164.794136700766
  0
ARC
  5
427
330
1F
100
AcDbEntity
  8
0
100
AcDbCircle
 10
51321.7868481098
 20
12076.57908284085
 30
0
 40
820.885500579172
100
AcDbArc
 50
283.7768672271022
 51
75.2201227459618
  0
CIRCLE
  5
428
330
1F
100
AcDbEntity
  8
0
100
AcDbCircle
 10
20788.90522445404
 20
18768.95576915476
 30
0
 40
164.794136700766
  0
CIRCLE
  5
429
330
1F
100
AcDbEntity
  8
0
100
AcDbCircle
 10
20800.97894922251
 20
17100.33505809504
 30
0
 40
164.794136700766
  0
ARC
  5
42A
330
1F
100
AcDbEntity
  8
0
100
AcDbCircle
 10
20843.86145512064
 20
17888.16984590445
 30
0
 40
820.885500579172
100
AcDbArc
 50
283.7768672270914
 51
75.22012274605581
  0
LINE
  5
42B
330
1F
100
AcDbEntity
  8
0
100
AcDbLine
 10
21664.74695569978
 20
17888.16984590445
 30
0
 11
22104.52830174824
 21
17888.16984590445
 31
0
  0
LINE
  5
42C
330
1F
100
AcDbEntity
  8
0
100
AcDbLine
 10
22104.52830174824
 20
18138.1691177439
 30
0
 11
22104.52830174824
 21
17651.71746228675
 31
0
  0
LEADER
  5
42D
330
1F
100
AcDbEntity
  8
SLD
100
AcDbLeader
  3
1-100
 71
     0
 73
     3
 72
     0
 74
     1
 40
0
 41
0
 76
     2
 10
15405.32821828265
 20
23811.1196278202
 30
0
 10
13196.29004411447
 20
23807.45262001089
 30
0
210
0
220
0
230
1
211
1
221
0
231
0
212
0
222
0
232
0
340
0
1001
ACAD
1000
DSTYLE
1002
{
1070
    41
1040
250
1002
}
  0
LINE
  5
42E
330
1F
100
AcDbEntity
  8
SLD-LINE
  6
ByBlock
100
AcDbLine
 10
14633.33621323014
 20
24807.21833417936
 30
0
 11
14632.02201905868
 21
32253.20196932478
 31
0
  0
LINE
  5
42F
330
1F
100
AcDbEntity
  8
SLD-LINE
  6
ByBlock
100
AcDbLine
 10
14620.27236307166
 20
22790.10149027011
 30
0
 11
14620.27236307166
 21
20893.68592741864
 31
0
  0
LWPOLYLINE
  5
430
330
1F
100
AcDbEntity
  8
SLD-TXT
100
AcDbPolyline
 90
        2
 70
     0
 43
128.0994475062173
 43
128.0994475062173
 10
14360.28205506479
 20
29858.13099893793
 10
14903.76198305246
 20
30401.6109269252
  0
TEXT
  5
431
330
1F
100
AcDbEntity
  8
SLD-TXT
100
AcDbText
 10
14801.95509075139
 20
21261.45414486963
 30
0
 40
568.5578422755154
  1
S2
 41
0.65
  7
ROMANS
 11
0
 21
0
 31
0
100
AcDbText
1001
ACAD
1000
ACAD_MTEXT_DEFINED_HEIGHT_BEGIN
1070
    46
1040
2913.333333333333
1000
ACAD_MTEXT_DEFINED_HEIGHT_END
  0
TEXT
  5
432
330
1F
100
AcDbEntity
  8
SLD-TXT
100
AcDbText
 10
14838.54798004914
 20
32734.93169079243
 30
0
 40
568.5578422755154
  1
2 Nos LIGHTING POINTS ( ENTRANCE & CORRIDOR)
 50
90
 41
0.65
  7
ROMANS
 11
0
 21
0
 31
0
100
AcDbText
1001
ACAD
1000
ACAD_MTEXT_DEFINED_HEIGHT_BEGIN
1070
    46
1040
2913.333333333333
1000
ACAD_MTEXT_DEFINED_HEIGHT_END
  0
CIRCLE
  5
433
330
1F
100
AcDbEntity
  8
0
100
AcDbCircle
 10
14614.16340591745
 20
24643.54331791022
 30
0
 40
164.794136700766
  0
CIRCLE
  5
434
330
1F
100
AcDbEntity
  8
0
100
AcDbCircle
 10
14614.16340591745
 20
22974.92260685044
 30
0
 40
164.794136700766
  0
ARC
  5
435
330
1F
100
AcDbEntity
  8
0
100
AcDbCircle
 10
14686.65079883415
 20
23813.32784869364
 30
0
 40
820.885500579172
100
AcDbArc
 50
283.7768672271041
 51
75.22012274595504
  0
LEADER
  5
437
330
1F
100
AcDbEntity
  8
SLD
100
AcDbLeader
  3
1-100
 71
     0
 73
     3
 72
     0
 74
     1
 40
0
 41
0
 76
     2
 10
17788.54502498078
 20
23811.1196278202
 30
0
 10
15579.5068508126
 20
23807.45262001089
 30
0
210
0
220
0
230
1
211
1
221
0
231
0
212
0
222
0
232
0
340
0
1001
ACAD
1000
DSTYLE
1002
{
1070
    41
1040
250
1002
}
  0
LINE
  5
438
330
1F
100
AcDbEntity
  8
SLD-LINE
  6
ByBlock
100
AcDbLine
 10
17016.55301992827
 20
24807.21833417936
 30
0
 11
17015.23882575681
 21
32253.20196932478
 31
0
  0
LINE
  5
439
330
1F
100
AcDbEntity
  8
SLD-LINE
  6
ByBlock
100
AcDbLine
 10
17003.48916976979
 20
22790.10149027011
 30
0
 11
17003.48916976979
 21
20893.68592741864
 31
0
  0
LWPOLYLINE
  5
43A
330
1F
100
AcDbEntity
  8
SLD-TXT
100
AcDbPolyline
 90
        2
 70
     0
 43
128.0994475062173
 43
128.0994475062173
 10
16743.49886176291
 20
29858.13099893793
 10
17286.97878975059
 20
30401.6109269252
  0
TEXT
  5
43B
330
1F
100
AcDbEntity
  8
SLD-TXT
100
AcDbText
 10
17185.17189744952
 20
21261.45414486963
 30
0
 40
568.5578422755154
  1
S3
 41
0.65
  7
ROMANS
 11
0
 21
0
 31
0
100
AcDbText
1001
ACAD
1000
ACAD_MTEXT_DEFINED_HEIGHT_BEGIN
1070
    46
1040
2913.333333333333
1000
ACAD_MTEXT_DEFINED_HEIGHT_END
  0
TEXT
  5
43C
330
1F
100
AcDbEntity
  8
SLD-TXT
100
AcDbText
 10
16551.57888512615
 20
32734.93169079243
 30
0
 40
568.5578422755154
  1
2 Nos LIGHTING POINTS (MASTER BEDROOM)+
 50
90
 41
0.65
  7
ROMANS
 11
0
 21
0
 31
0
100
AcDbText
1001
ACAD
1000
ACAD_MTEXT_DEFINED_HEIGHT_BEGIN
1070
    46
1040
2913.333333333333
1000
ACAD_MTEXT_DEFINED_HEIGHT_END
  0
CIRCLE
  5
43D
330
1F
100
AcDbEntity
  8
0
100
AcDbCircle
 10
16997.38021261558
 20
24643.54331791022
 30
0
 40
164.794136700766
  0
CIRCLE
  5
43E
330
1F
100
AcDbEntity
  8
0
100
AcDbCircle
 10
16997.38021261558
 20
22974.92260685044
 30
0
 40
164.794136700766
  0
ARC
  5
43F
330
1F
100
AcDbEntity
  8
0
100
AcDbCircle
 10
17069.86760553227
 20
23813.32784869364
 30
0
 40
820.885500579172
100
AcDbArc
 50
283.7768672271041
 51
75.22012274595504
  0
LEADER
  5
440
330
1F
100
AcDbEntity
  8
SLD
100
AcDbLeader
  3
1-100
 71
     0
 73
     3
 72
     0
 74
     1
 40
0
 41
0
 76
     2
 10
20203.39624725886
 20
23811.1196278202
 30
0
 10
17994.35807309068
 20
23807.45262001089
 30
0
210
0
220
0
230
1
211
1
221
0
231
0
212
0
222
0
232
0
340
0
1001
ACAD
1000
DSTYLE
1002
{
1070
    41
1040
250
1002
}
  0
LINE
  5
441
330
1F
100
AcDbEntity
  8
SLD-LINE
  6
ByBlock
100
AcDbLine
 10
19431.40424220635
 20
24807.21833417936
 30
0
 11
19430.09004803489
 21
32253.20196932478
 31
0
  0
LINE
  5
442
330
1F
100
AcDbEntity
  8
SLD-LINE
  6
ByBlock
100
AcDbLine
 10
19418.34039204787
 20
22790.10149027011
 30
0
 11
19418.34039204787
 21
20893.68592741864
 31
0
  0
LWPOLYLINE
  5
443
330
1F
100
AcDbEntity
  8
SLD-TXT
100
AcDbPolyline
 90
        2
 70
     0
 43
128.0994475062173
 43
128.0994475062173
 10
19158.350084041
 20
29858.13099893793
 10
19701.83001202867
 20
30401.6109269252
  0
TEXT
  5
444
330
1F
100
AcDbEntity
  8
SLD-TXT
100
AcDbText
 10
19600.0231197276
 20
21261.45414486963
 30
0
 40
568.5578422755154
  1
S4
 41
0.65
  7
ROMANS
 11
0
 21
0
 31
0
100
AcDbText
1001
ACAD
1000
ACAD_MTEXT_DEFINED_HEIGHT_BEGIN
1070
    46
1040
2913.333333333333
1000
ACAD_MTEXT_DEFINED_HEIGHT_END
  0
TEXT
  5
445
330
1F
100
AcDbEntity
  8
SLD-TXT
100
AcDbText
 10
19636.61600902535
 20
32734.93169079243
 30
0
 40
568.5578422755154
  1
2 Nos LIGHTING POINTS (BEDROOM 2 & BATH 2
 50
90
 41
0.65
  7
ROMANS
 11
0
 21
0
 31
0
100
AcDbText
1001
ACAD
1000
ACAD_MTEXT_DEFINED_HEIGHT_BEGIN
1070
    46
1040
2913.333333333333
1000
ACAD_MTEXT_DEFINED_HEIGHT_END
  0
CIRCLE
  5
446
330
1F
100
AcDbEntity
  8
0
100
AcDbCircle
 10
19412.23143489366
 20
24643.54331791022
 30
0
 40
164.794136700766
  0
CIRCLE
  5
447
330
1F
100
AcDbEntity
  8
0
100
AcDbCircle
 10
19412.23143489366
 20
22974.92260685044
 30
0
 40
164.794136700766
  0
ARC
  5
448
330
1F
100
AcDbEntity
  8
0
100
AcDbCircle
 10
19484.71882781036
 20
23813.32784869364
 30
0
 40
820.885500579172
100
AcDbArc
 50
283.7768672271041
 51
75.22012274595504
  0
LEADER
  5
449
330
1F
100
AcDbEntity
  8
SLD
100
AcDbLeader
  3
1-100
 71
     0
 73
     3
 72
     0
 74
     1
 40
0
 41
0
 76
     2
 10
22571.80818016546
 20
23811.1196278202
 30
0
 10
20362.77000599726
 20
23807.45262001089
 30
0
210
0
220
0
230
1
211
1
221
0
231
0
212
0
222
0
232
0
340
0
1001
ACAD
1000
DSTYLE
1002
{
1070
    41
1040
250
1002
}
  0
LINE
  5
44A
330
1F
100
AcDbEntity
  8
SLD-LINE
  6
ByBlock
100
AcDbLine
 10
21799.81617511295
 20
24807.21833417936
 30
0
 11
21798.5019809415
 21
32253.20196932478
 31
0
  0
LINE
  5
44B
330
1F
100
AcDbEntity
  8
SLD-LINE
  6
ByBlock
100
AcDbLine
 10
21786.75232495448
 20
22790.10149027011
 30
0
 11
21786.75232495448
 21
20893.68592741864
 31
0
  0
LWPOLYLINE
  5
44C
330
1F
100
AcDbEntity
  8
SLD-TXT
100
AcDbPolyline
 90
        2
 70
     0
 43
128.0994475062173
 43
128.0994475062173
 10
21526.7620169476
 20
29858.13099893793
 10
22070.24194493527
 20
30401.6109269252
  0
TEXT
  5
44D
330
1F
100
AcDbEntity
  8
SLD-TXT
100
AcDbText
 10
21968.4350526342
 20
21261.45414486963
 30
0
 40
568.5578422755154
  1
S5
 41
0.65
  7
ROMANS
 11
0
 21
0
 31
0
100
AcDbText
1001
ACAD
1000
ACAD_MTEXT_DEFINED_HEIGHT_BEGIN
1070
    46
1040
2913.333333333333
1000
ACAD_MTEXT_DEFINED_HEIGHT_END
  0
TEXT
  5
44E
330
1F
100
AcDbEntity
  8
SLD-TXT
100
AcDbText
 10
21669.93486160359
 20
32734.93169079243
 30
0
 40
568.5578422755154
  1
2 Nos LIGHTING POINTS (KITCHEN)+
 50
90
 41
0.65
  7
ROMANS
 11
0
 21
0
 31
0
100
AcDbText
1001
ACAD
1000
ACAD_MTEXT_DEFINED_HEIGHT_BEGIN
1070
    46
1040
2913.333333333333
1000
ACAD_MTEXT_DEFINED_HEIGHT_END
  0
CIRCLE
  5
44F
330
1F
100
AcDbEntity
  8
0
100
AcDbCircle
 10
21780.64336780026
 20
24643.54331791022
 30
0
 40
164.794136700766
  0
CIRCLE
  5
450
330
1F
100
AcDbEntity
  8
0
100
AcDbCircle
 10
21780.64336780026
 20
22974.92260685044
 30
0
 40
164.794136700766
  0
ARC
  5
451
330
1F
100
AcDbEntity
  8
0
100
AcDbCircle
 10
21853.13076071696
 20
23813.32784869364
 30
0
 40
820.885500579172
100
AcDbArc
 50
283.7768672271041
 51
75.22012274595504
  0
LEADER
  5
452
330
1F
100
AcDbEntity
  8
SLD
100
AcDbLeader
  3
1-100
 71
     0
 73
     3
 72
     0
 74
     1
 40
0
 41
0
 76
     2
 10
37600.57939264071
 20
23811.11962782032
 30
0
 10
35218.79889429708
 20
23811.38731232046
 30
0
210
0
220
0
230
1
211
1
221
0
231
0
212
0
222
0
232
0
340
0
1001
ACAD
1000
DSTYLE
1002
{
1070
    41
1040
250
1002
}
  0
LINE
  5
453
330
1F
100
AcDbEntity
  8
SLD-LINE
  6
ByBlock
100
AcDbLine
 10
36812.88760923254
 20
24832.23813067708
 30
0
 11
36812.88760923254
 21
27496.0400243572
 31
0
  0
LINE
  5
454
330
1F
100
AcDbEntity
  8
SLD-LINE
  6
ByBlock
100
AcDbLine
 10
36812.88760923254
 20
28759.38558316667
 30
0
 11
36812.88760923254
 21
32253.20196932484
 31
0
  0
LINE
  5
455
330
1F
100
AcDbEntity
  8
SLD-LINE
  6
ByBlock
100
AcDbLine
 10
36815.52353742973
 20
22858.4937905778
 30
0
 11
36815.52353742973
 21
20893.68592741864
 31
0
  0
LEADER
  5
456
330
1F
100
AcDbEntity
  8
SLD
100
AcDbLeader
  3
1-100
 71
     0
 73
     3
 72
     0
 74
     1
 40
0
 41
0
 76
     2
 10
40132.80078892384
 20
23795.89818931714
 30
0
 10
37751.02029058021
 20
23796.16587381728
 30
0
210
0
220
0
230
1
211
1
221
0
231
0
212
0
222
0
232
0
340
0
1001
ACAD
1000
DSTYLE
1002
{
1070
    41
1040
250
1002
}
  0
LINE
  5
457
330
1F
100
AcDbEntity
  8
SLD-LINE
  6
ByBlock
100
AcDbLine
 10
39345.10900551567
 20
24817.01669217389
 30
0
 11
39345.10900551567
 21
32237.98053082171
 31
0
  0
LINE
  5
458
330
1F
100
AcDbEntity
  8
SLD-LINE
  6
ByBlock
100
AcDbLine
 10
39347.74493371274
 20
22858.50004352442
 30
0
 11
39347.74493371274
 21
20878.46448891551
 31
0
  0
TEXT
  5
459
330
1F
100
AcDbEntity
  8
SLD-TXT
100
AcDbText
 10
36997.20626510945
 20
21261.45414486969
 30
0
 40
568.5578422755154
  1
P3
 41
0.65
  7
ROMANS
 11
0
 21
0
 31
0
100
AcDbText
1001
ACAD
1000
ACAD_MTEXT_DEFINED_HEIGHT_BEGIN
1070
    46
1040
2913.333333333333
1000
ACAD_MTEXT_DEFINED_HEIGHT_END
  0
TEXT
  5
45A
330
1F
100
AcDbEntity
  8
SLD-TXT
100
AcDbText
 10
39529.42766139258
 20
21246.23270636651
 30
0
 40
568.5578422755154
  1
P4
 41
0.65
  7
ROMANS
 11
0
 21
0
 31
0
100
AcDbText
1001
ACAD
1000
ACAD_MTEXT_DEFINED_HEIGHT_BEGIN
1070
    46
1040
2913.333333333333
1000
ACAD_MTEXT_DEFINED_HEIGHT_END
  0
LWPOLYLINE
  5
45B
330
1F
100
AcDbEntity
  8
SLD-TXT
100
AcDbPolyline
 90
        2
 70
     0
 43
128.0994475062173
 43
128.0994475062173
 10
36541.14764523877
 20
29858.13099893793
 10
37084.62757322656
 20
30401.61092692526
  0
LWPOLYLINE
  5
45C
330
1F
100
AcDbEntity
  8
SLD-TXT
100
AcDbPolyline
 90
        2
 70
     0
 43
128.0994475062173
 43
128.0994475062173
 10
39073.36904152201
 20
29842.90956043486
 10
39616.84896950957
 20
30386.38948842213
  0
TEXT
  5
45D
330
1F
100
AcDbEntity
  8
SLD-TXT
100
AcDbText
 10
37128.9552162627
 20
32763.24712298204
 30
0
 40
568.5578422755154
  1
5 Nos 13A DOUBLE S/S/O (MASTER BEDROOM)
 50
90
 41
0.65
  7
ROMANS
 11
0
 21
0
 31
0
100
AcDbText
1001
ACAD
1000
ACAD_MTEXT_DEFINED_HEIGHT_BEGIN
1070
    46
1040
2913.333333333333
1000
ACAD_MTEXT_DEFINED_HEIGHT_END
  0
TEXT
  5
45E
330
1F
100
AcDbEntity
  8
SLD-TXT
100
AcDbText
 10
39082.17455150406
 20
32748.02568447892
 30
0
 40
568.5578422755154
  1
1 No. 13A DOUBLE S/S/O
 50
90
 41
0.65
  7
ROMANS
 11
0
 21
0
 31
0
100
AcDbText
1001
ACAD
1000
ACAD_MTEXT_DEFINED_HEIGHT_BEGIN
1070
    46
1040
2913.333333333333
1000
ACAD_MTEXT_DEFINED_HEIGHT_END
  0
LINE
  5
45F
330
1F
100
AcDbEntity
  8
SLD-LINE
100
AcDbLine
 10
36812.88760923254
 20
28759.38558316667
 30
0
 11
36812.88760923254
 21
27379.04640176897
 31
0
  0
CIRCLE
  5
460
330
1F
100
AcDbEntity
  8
0
100
AcDbCircle
 10
36802.44109183932
 20
24691.90555107063
 30
0
 40
164.794136700766
  0
CIRCLE
  5
461
330
1F
100
AcDbEntity
  8
0
100
AcDbCircle
 10
39345.10900551567
 20
24691.90555107063
 30
0
 40
164.794136700766
  0
CIRCLE
  5
462
330
1F
100
AcDbEntity
  8
0
100
AcDbCircle
 10
36814.51481660779
 20
23023.28484001086
 30
0
 40
164.794136700766
  0
CIRCLE
  5
463
330
1F
100
AcDbEntity
  8
0
100
AcDbCircle
 10
39345.99041443747
 20
23023.28484001086
 30
0
 40
164.794136700766
  0
ARC
  5
464
330
1F
100
AcDbEntity
  8
0
100
AcDbCircle
 10
36857.39732250592
 20
23811.11962782032
 30
0
 40
820.885500579172
100
AcDbArc
 50
283.7768672271024
 51
75.22012274596094
  0
ARC
  5
465
330
1F
100
AcDbEntity
  8
0
100
AcDbCircle
 10
39374.00635057197
 20
23861.69008185405
 30
0
 40
820.885500579172
100
AcDbArc
 50
283.7768672271024
 51
75.22012274596094
  0
LEADER
  5
466
330
1F
100
AcDbEntity
  8
SLD
100
AcDbLeader
  3
1-100
 71
     0
 73
     3
 72
     0
 74
     1
 40
0
 41
0
 76
     2
 10
42670.0305954305
 20
23811.11962782032
 30
0
 10
40288.25009708686
 20
23811.38731232046
 30
0
210
0
220
0
230
1
211
1
221
0
231
0
212
0
222
0
232
0
340
0
1001
ACAD
1000
DSTYLE
1002
{
1070
    41
1040
250
1002
}
  0
LINE
  5
467
330
1F
100
AcDbEntity
  8
SLD-LINE
  6
ByBlock
100
AcDbLine
 10
41882.33881202233
 20
24832.23813067708
 30
0
 11
41882.33881202233
 21
27496.0400243572
 31
0
  0
LINE
  5
468
330
1F
100
AcDbEntity
  8
SLD-LINE
  6
ByBlock
100
AcDbLine
 10
41882.33881202233
 20
28759.38558316667
 30
0
 11
41882.33881202233
 21
32253.20196932484
 31
0
  0
LINE
  5
469
330
1F
100
AcDbEntity
  8
SLD-LINE
  6
ByBlock
100
AcDbLine
 10
41884.97474021951
 20
22858.4937905778
 30
0
 11
41884.97474021951
 21
20893.68592741864
 31
0
  0
LEADER
  5
46A
330
1F
100
AcDbEntity
  8
SLD
100
AcDbLeader
  3
1-100
 71
     0
 73
     3
 72
     0
 74
     1
 40
0
 41
0
 76
     2
 10
45202.25199171363
 20
23795.89818931714
 30
0
 10
42820.47149336999
 20
23796.16587381728
 30
0
210
0
220
0
230
1
211
1
221
0
231
0
212
0
222
0
232
0
340
0
1001
ACAD
1000
DSTYLE
1002
{
1070
    41
1040
250
1002
}
  0
LINE
  5
46B
330
1F
100
AcDbEntity
  8
SLD-LINE
  6
ByBlock
100
AcDbLine
 10
44414.56020830546
 20
24817.01669217389
 30
0
 11
44414.56020830546
 21
32237.98053082171
 31
0
  0
LINE
  5
46C
330
1F
100
AcDbEntity
  8
SLD-LINE
  6
ByBlock
100
AcDbLine
 10
44417.19613650253
 20
22858.50004352442
 30
0
 11
44417.19613650253
 21
20878.46448891551
 31
0
  0
TEXT
  5
46D
330
1F
100
AcDbEntity
  8
SLD-TXT
100
AcDbText
 10
42066.65746789924
 20
21261.45414486969
 30
0
 40
568.5578422755154
  1
P5
 41
0.65
  7
ROMANS
 11
0
 21
0
 31
0
100
AcDbText
1001
ACAD
1000
ACAD_MTEXT_DEFINED_HEIGHT_BEGIN
1070
    46
1040
2913.333333333333
1000
ACAD_MTEXT_DEFINED_HEIGHT_END
  0
TEXT
  5
46E
330
1F
100
AcDbEntity
  8
SLD-TXT
100
AcDbText
 10
44598.87886418237
 20
21246.23270636651
 30
0
 40
568.5578422755154
  1
P6
 41
0.65
  7
ROMANS
 11
0
 21
0
 31
0
100
AcDbText
1001
ACAD
1000
ACAD_MTEXT_DEFINED_HEIGHT_BEGIN
1070
    46
1040
2913.333333333333
1000
ACAD_MTEXT_DEFINED_HEIGHT_END
  0
LWPOLYLINE
  5
46F
330
1F
100
AcDbEntity
  8
SLD-TXT
100
AcDbPolyline
 90
        2
 70
     0
 43
128.0994475062173
 43
128.0994475062173
 10
41610.59884802855
 20
29858.13099893793
 10
42154.07877601634
 20
30401.61092692526
  0
LWPOLYLINE
  5
470
330
1F
100
AcDbEntity
  8
SLD-TXT
100
AcDbPolyline
 90
        2
 70
     0
 43
128.0994475062173
 43
128.0994475062173
 10
44142.8202443118
 20
29842.90956043486
 10
44686.30017229936
 20
30386.38948842213
  0
TEXT
  5
471
330
1F
100
AcDbEntity
  8
SLD-TXT
100
AcDbText
 10
42198.40641905249
 20
32763.24712298204
 30
0
 40
568.5578422755154
  1
1 Nos 13A DOUBLE S/S/O (D/B)
 50
90
 41
0.65
  7
ROMANS
 11
0
 21
0
 31
0
100
AcDbText
1001
ACAD
1000
ACAD_MTEXT_DEFINED_HEIGHT_BEGIN
1070
    46
1040
2913.333333333333
1000
ACAD_MTEXT_DEFINED_HEIGHT_END
  0
TEXT
  5
472
330
1F
100
AcDbEntity
  8
SLD-TXT
100
AcDbText
 10
44646.00939299246
 20
32748.02568447892
 30
0
 40
568.5578422755154
  1
1 NO. 20A WATER HEATER (MASTER TOILET)
 50
90
 41
0.65
  7
ROMANS
 11
0
 21
0
 31
0
100
AcDbText
1001
ACAD
1000
ACAD_MTEXT_DEFINED_HEIGHT_BEGIN
1070
    46
1040
2913.333333333333
1000
ACAD_MTEXT_DEFINED_HEIGHT_END
  0
LINE
  5
473
330
1F
100
AcDbEntity
  8
SLD-LINE
100
AcDbLine
 10
41882.33881202233
 20
28759.38558316667
 30
0
 11
41882.33881202233
 21
27379.04640176897
 31
0
  0
CIRCLE
  5
474
330
1F
100
AcDbEntity
  8
0
100
AcDbCircle
 10
41871.89229462911
 20
24691.90555107063
 30
0
 40
164.794136700766
  0
CIRCLE
  5
475
330
1F
100
AcDbEntity
  8
0
100
AcDbCircle
 10
44414.56020830546
 20
24691.90555107063
 30
0
 40
164.794136700766
  0
CIRCLE
  5
476
330
1F
100
AcDbEntity
  8
0
100
AcDbCircle
 10
41883.96601939758
 20
23023.28484001086
 30
0
 40
164.794136700766
  0
CIRCLE
  5
477
330
1F
100
AcDbEntity
  8
0
100
AcDbCircle
 10
44415.44161722725
 20
23023.28484001086
 30
0
 40
164.794136700766
  0
ARC
  5
478
330
1F
100
AcDbEntity
  8
0
100
AcDbCircle
 10
41926.84852529571
 20
23811.11962782032
 30
0
 40
820.885500579172
100
AcDbArc
 50
283.7768672271024
 51
75.22012274596094
  0
ARC
  5
479
330
1F
100
AcDbEntity
  8
0
100
AcDbCircle
 10
44443.45755336175
 20
23861.69008185405
 30
0
 40
820.885500579172
100
AcDbArc
 50
283.7768672271024
 51
75.22012274596094
  0
LEADER
  5
47A
330
1F
100
AcDbEntity
  8
SLD
100
AcDbLeader
  3
1-100
 71
     0
 73
     3
 72
     0
 74
     1
 40
0
 41
0
 76
     2
 10
47727.95917557562
 20
23811.11962782032
 30
0
 10
45346.17867723198
 20
23811.38731232046
 30
0
210
0
220
0
230
1
211
1
221
0
231
0
212
0
222
0
232
0
340
0
1001
ACAD
1000
DSTYLE
1002
{
1070
    41
1040
250
1002
}
  0
LINE
  5
47B
330
1F
100
AcDbEntity
  8
SLD-LINE
  6
ByBlock
100
AcDbLine
 10
46940.26739216745
 20
24832.23813067708
 30
0
 11
46940.26739216745
 21
27496.0400243572
 31
0
  0
LINE
  5
47C
330
1F
100
AcDbEntity
  8
SLD-LINE
  6
ByBlock
100
AcDbLine
 10
46940.26739216745
 20
28759.38558316667
 30
0
 11
46940.26739216745
 21
32253.20196932484
 31
0
  0
LINE
  5
47D
330
1F
100
AcDbEntity
  8
SLD-LINE
  6
ByBlock
100
AcDbLine
 10
46942.90332036463
 20
22858.4937905778
 30
0
 11
46942.90332036463
 21
20893.68592741864
 31
0
  0
LEADER
  5
47E
330
1F
100
AcDbEntity
  8
SLD
100
AcDbLeader
  3
1-100
 71
     0
 73
     3
 72
     0
 74
     1
 40
0
 41
0
 76
     2
 10
50260.18057185875
 20
23795.89818931714
 30
0
 10
47878.40007351511
 20
23796.16587381728
 30
0
210
0
220
0
230
1
211
1
221
0
231
0
212
0
222
0
232
0
340
0
1001
ACAD
1000
DSTYLE
1002
{
1070
    41
1040
250
1002
}
  0
LINE
  5
47F
330
1F
100
AcDbEntity
  8
SLD-LINE
  6
ByBlock
100
AcDbLine
 10
49472.48878845058
 20
24817.01669217389
 30
0
 11
49472.48878845058
 21
32237.98053082171
 31
0
  0
LINE
  5
480
330
1F
100
AcDbEntity
  8
SLD-LINE
  6
ByBlock
100
AcDbLine
 10
49475.12471664765
 20
22858.50004352442
 30
0
 11
49475.12471664765
 21
20878.46448891551
 31
0
  0
TEXT
  5
481
330
1F
100
AcDbEntity
  8
SLD-TXT
100
AcDbText
 10
47124.58604804436
 20
21261.45414486969
 30
0
 40
568.5578422755154
  1
P7
 41
0.65
  7
ROMANS
 11
0
 21
0
 31
0
100
AcDbText
1001
ACAD
1000
ACAD_MTEXT_DEFINED_HEIGHT_BEGIN
1070
    46
1040
2913.333333333333
1000
ACAD_MTEXT_DEFINED_HEIGHT_END
  0
TEXT
  5
482
330
1F
100
AcDbEntity
  8
SLD-TXT
100
AcDbText
 10
49656.80744432749
 20
21246.23270636651
 30
0
 40
568.5578422755154
  1
P8
 41
0.65
  7
ROMANS
 11
0
 21
0
 31
0
100
AcDbText
1001
ACAD
1000
ACAD_MTEXT_DEFINED_HEIGHT_BEGIN
1070
    46
1040
2913.333333333333
1000
ACAD_MTEXT_DEFINED_HEIGHT_END
  0
LWPOLYLINE
  5
483
330
1F
100
AcDbEntity
  8
SLD-TXT
100
AcDbPolyline
 90
        2
 70
     0
 43
128.0994475062173
 43
128.0994475062173
 10
46668.52742817367
 20
29858.13099893793
 10
47212.00735616146
 20
30401.61092692526
  0
LWPOLYLINE
  5
484
330
1F
100
AcDbEntity
  8
SLD-TXT
100
AcDbPolyline
 90
        2
 70
     0
 43
128.0994475062173
 43
128.0994475062173
 10
49200.74882445692
 20
29895.60346209729
 10
49744.22875244448
 20
30439.08339008455
  0
LINE
  5
486
330
1F
100
AcDbEntity
  8
SLD-LINE
100
AcDbLine
 10
46940.26739216745
 20
28759.38558316667
 30
0
 11
46940.26739216745
 21
27379.04640176897
 31
0
  0
CIRCLE
  5
487
330
1F
100
AcDbEntity
  8
0
100
AcDbCircle
 10
46929.82087477422
 20
24691.90555107063
 30
0
 40
164.794136700766
  0
CIRCLE
  5
488
330
1F
100
AcDbEntity
  8
0
100
AcDbCircle
 10
49472.48878845058
 20
24691.90555107063
 30
0
 40
164.794136700766
  0
CIRCLE
  5
489
330
1F
100
AcDbEntity
  8
0
100
AcDbCircle
 10
46941.8945995427
 20
23023.28484001086
 30
0
 40
164.794136700766
  0
CIRCLE
  5
48A
330
1F
100
AcDbEntity
  8
0
100
AcDbCircle
 10
49473.37019737237
 20
23023.28484001086
 30
0
 40
164.794136700766
  0
ARC
  5
48B
330
1F
100
AcDbEntity
  8
0
100
AcDbCircle
 10
46984.77710544083
 20
23811.11962782032
 30
0
 40
820.885500579172
100
AcDbArc
 50
283.7768672271024
 51
75.22012274596094
  0
ARC
  5
48C
330
1F
100
AcDbEntity
  8
0
100
AcDbCircle
 10
49501.38613350687
 20
23861.69008185405
 30
0
 40
820.885500579172
100
AcDbArc
 50
283.7768672271024
 51
75.22012274596094
  0
LEADER
  5
48D
330
1F
100
AcDbEntity
  8
SLD
100
AcDbLeader
  3
1-100
 71
     0
 73
     3
 72
     0
 74
     1
 40
0
 41
0
 76
     2
 10
52869.64777352717
 20
23811.11962782032
 30
0
 10
50487.86727518353
 20
23811.38731232046
 30
0
210
0
220
0
230
1
211
1
221
0
231
0
212
0
222
0
232
0
340
0
1001
ACAD
1000
DSTYLE
1002
{
1070
    41
1040
250
1002
}
  0
LINE
  5
48E
330
1F
100
AcDbEntity
  8
SLD-LINE
  6
ByBlock
100
AcDbLine
 10
52081.955990119
 20
24832.23813067708
 30
0
 11
52081.955990119
 21
27496.0400243572
 31
0
  0
LINE
  5
48F
330
1F
100
AcDbEntity
  8
SLD-LINE
  6
ByBlock
100
AcDbLine
 10
52081.955990119
 20
28759.38558316667
 30
0
 11
52081.955990119
 21
32253.20196932484
 31
0
  0
LINE
  5
490
330
1F
100
AcDbEntity
  8
SLD-LINE
  6
ByBlock
100
AcDbLine
 10
52084.59191831618
 20
22858.4937905778
 30
0
 11
52084.59191831618
 21
20893.68592741864
 31
0
  0
LEADER
  5
491
330
1F
100
AcDbEntity
  8
SLD
100
AcDbLeader
  3
1-100
 71
     0
 73
     3
 72
     0
 74
     1
 40
0
 41
0
 76
     2
 10
55401.8691698103
 20
23795.89818931714
 30
0
 10
53020.08867146666
 20
23796.16587381728
 30
0
210
0
220
0
230
1
211
1
221
0
231
0
212
0
222
0
232
0
340
0
1001
ACAD
1000
DSTYLE
1002
{
1070
    41
1040
250
1002
}
  0
LINE
  5
493
330
1F
100
AcDbEntity
  8
SLD-LINE
  6
ByBlock
100
AcDbLine
 10
54616.8133145992
 20
22858.50004352442
 30
0
 11
54616.8133145992
 21
20878.46448891551
 31
0
  0
TEXT
  5
494
330
1F
100
AcDbEntity
  8
SLD-TXT
100
AcDbText
 10
52266.27464599591
 20
21261.45414486969
 30
0
 40
568.5578422755154
  1
P9
 41
0.65
  7
ROMANS
 11
0
 21
0
 31
0
100
AcDbText
1001
ACAD
1000
ACAD_MTEXT_DEFINED_HEIGHT_BEGIN
1070
    46
1040
2913.333333333333
1000
ACAD_MTEXT_DEFINED_HEIGHT_END
  0
TEXT
  5
495
330
1F
100
AcDbEntity
  8
SLD-TXT
100
AcDbText
 10
54798.49604227904
 20
21246.23270636651
 30
0
 40
568.5578422755154
  1
P10
 41
0.65
  7
ROMANS
 11
0
 21
0
 31
0
100
AcDbText
1001
ACAD
1000
ACAD_MTEXT_DEFINED_HEIGHT_BEGIN
1070
    46
1040
2913.333333333333
1000
ACAD_MTEXT_DEFINED_HEIGHT_END
  0
LWPOLYLINE
  5
496
330
1F
100
AcDbEntity
  8
SLD-TXT
100
AcDbPolyline
 90
        2
 70
     0
 43
128.0994475062173
 43
128.0994475062173
 10
51810.21602612522
 20
29858.13099893793
 10
52353.69595411301
 20
30401.61092692526
  0
LINE
  5
498
330
1F
100
AcDbEntity
  8
SLD-LINE
100
AcDbLine
 10
52081.955990119
 20
28759.38558316667
 30
0
 11
52081.955990119
 21
27379.04640176897
 31
0
  0
CIRCLE
  5
499
330
1F
100
AcDbEntity
  8
0
100
AcDbCircle
 10
52071.50947272577
 20
24691.90555107063
 30
0
 40
164.794136700766
  0
CIRCLE
  5
49A
330
1F
100
AcDbEntity
  8
0
100
AcDbCircle
 10
54614.17738640213
 20
24691.90555107063
 30
0
 40
164.794136700766
  0
CIRCLE
  5
49B
330
1F
100
AcDbEntity
  8
0
100
AcDbCircle
 10
52083.58319749425
 20
23023.28484001086
 30
0
 40
164.794136700766
  0
CIRCLE
  5
49C
330
1F
100
AcDbEntity
  8
0
100
AcDbCircle
 10
54615.05879532392
 20
23023.28484001086
 30
0
 40
164.794136700766
  0
ARC
  5
49D
330
1F
100
AcDbEntity
  8
0
100
AcDbCircle
 10
52126.46570339238
 20
23811.11962782032
 30
0
 40
820.885500579172
100
AcDbArc
 50
283.7768672271024
 51
75.22012274596094
  0
ARC
  5
49E
330
1F
100
AcDbEntity
  8
0
100
AcDbCircle
 10
54643.07473145842
 20
23861.69008185405
 30
0
 40
820.885500579172
100
AcDbArc
 50
283.7768672271024
 51
75.22012274596094
  0
TEXT
  5
49F
330
1F
100
AcDbEntity
  8
SLD-TXT
100
AcDbText
 10
49753.59129894476
 20
32763.24712298204
 30
0
 40
568.5578422755154
  1
1 No. 13A SINGLE S/S/O (KITCHEN)
 50
90
 41
0.65
  7
ROMANS
 11
0
 21
0
 31
0
100
AcDbText
1001
ACAD
1000
ACAD_MTEXT_DEFINED_HEIGHT_BEGIN
1070
    46
1040
2913.333333333333
1000
ACAD_MTEXT_DEFINED_HEIGHT_END
  0
TEXT
  5
4A0
330
1F
100
AcDbEntity
  8
SLD-TXT
100
AcDbText
 10
52373.66292388665
 20
32763.24712298204
 30
0
 40
568.5578422755154
  1
1 No. 13A SINGLE S/S/O (KITCHEN)
 50
90
 41
0.65
  7
ROMANS
 11
0
 21
0
 31
0
100
AcDbText
1001
ACAD
1000
ACAD_MTEXT_DEFINED_HEIGHT_BEGIN
1070
    46
1040
2913.333333333333
1000
ACAD_MTEXT_DEFINED_HEIGHT_END
  0
LEADER
  5
4A2
330
1F
100
AcDbEntity
  8
SLD
100
AcDbLeader
  3
1-100
 71
     0
 73
     3
 72
     0
 74
     1
 40
0
 41
0
 76
     2
 10
58072.02600398145
 20
23795.89818931714
 30
0
 10
55690.24550563782
 20
23796.16587381728
 30
0
210
0
220
0
230
1
211
1
221
0
231
0
212
0
222
0
232
0
340
0
1001
ACAD
1000
DSTYLE
1002
{
1070
    41
1040
250
1002
}
  0
LINE
  5
4A4
330
1F
100
AcDbEntity
  8
SLD-LINE
  6
ByBlock
100
AcDbLine
 10
57286.97014877035
 20
22858.50004352442
 30
0
 11
57286.97014877035
 21
20878.46448891551
 31
0
  0
TEXT
  5
4A5
330
1F
100
AcDbEntity
  8
SLD-TXT
100
AcDbText
 10
57468.65287645019
 20
21246.23270636651
 30
0
 40
568.5578422755154
  1
P11
 41
0.65
  7
ROMANS
 11
0
 21
0
 31
0
100
AcDbText
1001
ACAD
1000
ACAD_MTEXT_DEFINED_HEIGHT_BEGIN
1070
    46
1040
2913.333333333333
1000
ACAD_MTEXT_DEFINED_HEIGHT_END
  0
CIRCLE
  5
4A6
330
1F
100
AcDbEntity
  8
0
100
AcDbCircle
 10
57284.33422057328
 20
24691.90555107063
 30
0
 40
164.794136700766
  0
CIRCLE
  5
4A7
330
1F
100
AcDbEntity
  8
0
100
AcDbCircle
 10
57285.21562949508
 20
23023.28484001086
 30
0
 40
164.794136700766
  0
ARC
  5
4A8
330
1F
100
AcDbEntity
  8
0
100
AcDbCircle
 10
57313.23156562958
 20
23861.69008185405
 30
0
 40
820.885500579172
100
AcDbArc
 50
283.7768672271024
 51
75.22012274596094
  0
LEADER
  5
4AA
330
1F
100
AcDbEntity
  8
SLD
100
AcDbLeader
  3
1-100
 71
     0
 73
     3
 72
     0
 74
     1
 40
0
 41
0
 76
     2
 10
25017.88240146577
 20
23811.1196278202
 30
0
 10
22808.8442272976
 20
23807.45262001089
 30
0
210
0
220
0
230
1
211
1
221
0
231
0
212
0
222
0
232
0
340
0
1001
ACAD
1000
DSTYLE
1002
{
1070
    41
1040
250
1002
}
  0
LINE
  5
4AB
330
1F
100
AcDbEntity
  8
SLD-LINE
  6
DASHED
 48
50
100
AcDbLine
 10
24245.89039641326
 20
24807.21833417936
 30
0
 11
24244.57620224181
 21
32253.20196932478
 31
0
  0
LINE
  5
4AC
330
1F
100
AcDbEntity
  8
SLD-LINE
  6
ByBlock
100
AcDbLine
 10
24232.82654625479
 20
22790.10149027011
 30
0
 11
24232.82654625479
 21
20893.68592741864
 31
0
  0
TEXT
  5
4AE
330
1F
100
AcDbEntity
  8
SLD-TXT
100
AcDbText
 10
24414.50927393451
 20
21261.45414486963
 30
0
 40
568.5578422755154
  1
S6
 41
0.65
  7
ROMANS
 11
0
 21
0
 31
0
100
AcDbText
1001
ACAD
1000
ACAD_MTEXT_DEFINED_HEIGHT_BEGIN
1070
    46
1040
2913.333333333333
1000
ACAD_MTEXT_DEFINED_HEIGHT_END
  0
TEXT
  5
4AF
330
1F
100
AcDbEntity
  8
SLD-TXT
100
AcDbText
 10
24451.10216323227
 20
32734.93169079243
 30
0
 40
568.5578422755154
  1
SPARE
 50
90
 41
0.65
  7
ROMANS
 11
0
 21
0
 31
0
100
AcDbText
1001
ACAD
1000
ACAD_MTEXT_DEFINED_HEIGHT_BEGIN
1070
    46
1040
2913.333333333333
1000
ACAD_MTEXT_DEFINED_HEIGHT_END
  0
CIRCLE
  5
4B0
330
1F
100
AcDbEntity
  8
0
100
AcDbCircle
 10
24226.71758910058
 20
24643.54331791022
 30
0
 40
164.794136700766
  0
CIRCLE
  5
4B1
330
1F
100
AcDbEntity
  8
0
100
AcDbCircle
 10
24226.71758910058
 20
22974.92260685044
 30
0
 40
164.794136700766
  0
ARC
  5
4B2
330
1F
100
AcDbEntity
  8
0
100
AcDbCircle
 10
24299.20498201727
 20
23813.32784869364
 30
0
 40
820.885500579172
100
AcDbArc
 50
283.7768672271041
 51
75.22012274595504
  0
LWPOLYLINE
  5
4D4
330
1F
100
AcDbEntity
  8
SLD
 62
     2
100
AcDbPolyline
 90
        2
 70
     0
 43
151.8215674210664
 43
151.8215674210664
 10
10756.6199209694
 20
20893.68592741864
 10
25500.97504862552
 20
20893.68592741864
  0
LWPOLYLINE
  5
4DE
102
{ACAD_REACTORS
330
586
102
}
330
1F
100
AcDbEntity
  8
0
100
AcDbPolyline
 90
        4
 70
     1
 43
0
 10
50808.88545920153
 20
15480.53243401097
 10
51705.07730821642
 20
15480.53243401097
 10
51705.07730821642
 20
14557.0076955581
 10
50808.88545920153
 20
14557.0076955581
  0
LINE
  5
4DF
330
1F
100
AcDbEntity
  8
0
100
AcDbLine
 10
51705.07730821642
 20
15000.4817087501
 30
0
 11
91478.65586885344
 21
15000.4817087501
 31
0
  0
LINE
  5
4E0
330
1F
100
AcDbEntity
  8
0
100
AcDbLine
 10
50808.88545920153
 20
15000.4817087501
 30
0
 11
19955.11874825213
 21
15000.4817087501
 31
0
  0
LINE
  5
4E1
330
1F
100
AcDbEntity
  8
SLD-LINE
  6
ByBlock
100
AcDbLine
 10
20800.97894922251
 20
15000.4817087501
 30
0
 11
20800.97894922251
 21
16935.54092139428
 31
0
  0
TEXT
  5
4E2
330
1F
100
AcDbEntity
  8
SLD-TXT
100
AcDbText
 10
12361.34100449421
 20
32734.93169079243
 30
0
 40
568.5578422755154
  1
2 Nos LIGHTING POINTS (LIVING & DINING)
 50
90
 41
0.65
  7
ROMANS
 11
0
 21
0
 31
0
100
AcDbText
1001
ACAD
1000
ACAD_MTEXT_DEFINED_HEIGHT_BEGIN
1070
    46
1040
2913.333333333333
1000
ACAD_MTEXT_DEFINED_HEIGHT_END
  0
TEXT
  5
4E3
330
1F
100
AcDbEntity
  8
SLD-TXT
100
AcDbText
 10
17249.10288308769
 20
32734.93169079243
 30
0
 40
568.5578422755154
  1
1 No. LIGHTING POINT (MASTER BATH)+
 50
90
 41
0.65
  7
ROMANS
 11
0
 21
0
 31
0
100
AcDbText
1001
ACAD
1000
ACAD_MTEXT_DEFINED_HEIGHT_BEGIN
1070
    46
1040
2913.333333333333
1000
ACAD_MTEXT_DEFINED_HEIGHT_END
  0
TEXT
  5
4E4
330
1F
100
AcDbEntity
  8
SLD-TXT
100
AcDbText
 10
17971.77739979359
 20
32734.93169079243
 30
0
 40
568.5578422755154
  1
1 No. 1.5w LED LIGHT C/W REMOTE DRIVER (MASTER BATHROOM)
 50
90
 41
0.65
  7
ROMANS
 11
0
 21
0
 31
0
100
AcDbText
1001
ACAD
1000
ACAD_MTEXT_DEFINED_HEIGHT_BEGIN
1070
    46
1040
2913.333333333333
1000
ACAD_MTEXT_DEFINED_HEIGHT_END
  0
TEXT
  5
4E5
330
1F
100
AcDbEntity
  8
SLD-TXT
100
AcDbText
 10
22428.49557784278
 20
32734.93169079243
 30
0
 40
568.5578422755154
  1
1 No. PELMET LIGHTING POINT (KITCHEN)
 50
90
 41
0.65
  7
ROMANS
 11
0
 21
0
 31
0
100
AcDbText
1001
ACAD
1000
ACAD_MTEXT_DEFINED_HEIGHT_BEGIN
1070
    46
1040
2913.333333333333
1000
ACAD_MTEXT_DEFINED_HEIGHT_END
  0
LINE
  5
4E6
330
1F
100
AcDbEntity
  8
SLD-LINE
  6
ByBlock
100
AcDbLine
 10
38362.89338617495
 20
18958.62671477446
 30
0
 11
38362.89338617495
 21
20893.68592741864
 31
0
  0
MTEXT
  5
4E7
330
1F
100
AcDbEntity
  8
SLD-TXT
100
AcDbMText
 10
40253.5633922819
 20
18819.35595758317
 30
0
210
0
220
0
230
1
 11
1
 21
0
 31
0
 40
558.9794072998573
 41
7993.364174969736
 46
0
 71
     1
 72
     5
  1
63A 2P \PRCCB (30mA)
  7
SLD-TXT
 73
     1
 44
0.8695652173913043
  0
CIRCLE
  5
4E8
330
1F
100
AcDbEntity
  8
0
100
AcDbCircle
 10
38363.5195110047
 20
18768.95576915476
 30
0
 40
164.794136700766
  0
CIRCLE
  5
4E9
330
1F
100
AcDbEntity
  8
0
100
AcDbCircle
 10
38375.59323577317
 20
17100.33505809504
 30
0
 40
164.794136700766
  0
ARC
  5
4EA
330
1F
100
AcDbEntity
  8
0
100
AcDbCircle
 10
38418.4757416713
 20
17888.16984590445
 30
0
 40
820.885500579172
100
AcDbArc
 50
283.7768672271015
 51
75.22012274606827
  0
LINE
  5
4EB
330
1F
100
AcDbEntity
  8
0
100
AcDbLine
 10
39239.36124225044
 20
17888.16984590445
 30
0
 11
39679.14258829891
 21
17888.16984590445
 31
0
  0
LINE
  5
4EC
330
1F
100
AcDbEntity
  8
0
100
AcDbLine
 10
39679.14258829891
 20
18138.1691177439
 30
0
 11
39679.14258829891
 21
17651.71746228675
 31
0
  0
LINE
  5
4ED
330
1F
100
AcDbEntity
  8
SLD-LINE
  6
ByBlock
100
AcDbLine
 10
38375.59323577317
 20
15000.4817087501
 30
0
 11
38375.59323577317
 21
16935.54092139428
 31
0
  0
LINE
  5
4EE
330
1F
100
AcDbEntity
  8
SLD-LINE
  6
DASHED
 48
30
100
AcDbLine
 10
57294.55199656203
 20
24856.38261495735
 30
0
 11
57294.55199656203
 21
32277.34645360515
 31
0
  0
TEXT
  5
4EF
330
1F
100
AcDbEntity
  8
SLD-TXT
100
AcDbText
 10
57610.61960359218
 20
32787.39160726236
 30
0
 40
568.5578422755154
  1
SPARE
 50
90
 41
0.65
  7
ROMANS
 11
0
 21
0
 31
0
100
AcDbText
1001
ACAD
1000
ACAD_MTEXT_DEFINED_HEIGHT_BEGIN
1070
    46
1040
2913.333333333333
1000
ACAD_MTEXT_DEFINED_HEIGHT_END
  0
TEXT
  5
4F0
330
1F
100
AcDbEntity
  8
SLD-TXT
100
AcDbText
 10
11248.55434577084
 20
18816.11153382973
 30
0
 40
595.6320252410161
  1
CU BUSBAR
 41
0.8
  7
SLD-TXT
 11
0
 21
0
 31
0
100
AcDbText
  0
TEXT
  5
4F1
330
1F
100
AcDbEntity
  8
SLD-TXT
100
AcDbText
 10
30010.92167096938
 20
19721.73919038718
 30
0
 40
595.6320252410161
  1
80A HDHC TINNED
 41
0.8
  7
SLD-TXT
 11
0
 21
0
 31
0
100
AcDbText
  0
TEXT
  5
4F2
330
1F
100
AcDbEntity
  8
SLD-TXT
100
AcDbText
 10
30010.92167096938
 20
18816.11153382973
 30
0
 40
595.6320252410161
  1
CU BUSBAR
 41
0.8
  7
SLD-TXT
 11
0
 21
0
 31
0
100
AcDbText
  0
LINE
  5
4F3
330
1F
100
AcDbEntity
  8
SLD-LINE
  6
DASHED
 48
30
100
AcDbLine
 10
54624.39516239087
 20
24856.38261495735
 30
0
 11
54624.39516239087
 21
32277.34645360515
 31
0
  0
TEXT
  5
4F4
330
1F
100
AcDbEntity
  8
SLD-TXT
100
AcDbText
 10
54940.46276942103
 20
32787.39160726236
 30
0
 40
568.5578422755154
  1
SPARE
 50
90
 41
0.65
  7
ROMANS
 11
0
 21
0
 31
0
100
AcDbText
1001
ACAD
1000
ACAD_MTEXT_DEFINED_HEIGHT_BEGIN
1070
    46
1040
2913.333333333333
1000
ACAD_MTEXT_DEFINED_HEIGHT_END
  0
TEXT
  5
4F5
330
1F
100
AcDbEntity
  8
SLD-TXT
100
AcDbText
 10
34543.24789948946
 20
41018.37899490791
 30
0
 40
568.5578422755154
  1
(DINING)
 50
90
 41
0.65
  7
ROMANS
 11
0
 21
0
 31
0
100
AcDbText
1001
ACAD
1000
ACAD_MTEXT_DEFINED_HEIGHT_BEGIN
1070
    46
1040
2913.333333333333
1000
ACAD_MTEXT_DEFINED_HEIGHT_END
  0
TEXT
  5
4F6
330
1F
100
AcDbEntity
  8
SLD-TXT
100
AcDbText
 10
34999.60226662874
 20
32748.02568447892
 30
0
 40
568.5578422755154
  1
2 Nos 13A SINGLE S/S/O
 50
90
 41
0.65
  7
ROMANS
 11
0
 21
0
 31
0
100
AcDbText
1001
ACAD
1000
ACAD_MTEXT_DEFINED_HEIGHT_BEGIN
1070
    46
1040
2913.333333333333
1000
ACAD_MTEXT_DEFINED_HEIGHT_END
  0
TEXT
  5
4F7
330
1F
100
AcDbEntity
  8
SLD-TXT
100
AcDbText
 10
39956.85375518769
 20
32748.02568447892
 30
0
 40
568.5578422755154
  1
1 No. 13A SINGLE S/S/O
 50
90
 41
0.65
  7
ROMANS
 11
0
 21
0
 31
0
100
AcDbText
1001
ACAD
1000
ACAD_MTEXT_DEFINED_HEIGHT_BEGIN
1070
    46
1040
2913.333333333333
1000
ACAD_MTEXT_DEFINED_HEIGHT_END
  0
TEXT
  5
4F8
330
1F
100
AcDbEntity
  8
SLD-TXT
100
AcDbText
 10
39576.55819020267
 20
41018.37899490791
 30
0
 40
568.5578422755154
  1
(ROOM)
 50
90
 41
0.65
  7
ROMANS
 11
0
 21
0
 31
0
100
AcDbText
1001
ACAD
1000
ACAD_MTEXT_DEFINED_HEIGHT_BEGIN
1070
    46
1040
2913.333333333333
1000
ACAD_MTEXT_DEFINED_HEIGHT_END
  0
TEXT
  5
4F9
330
1F
100
AcDbEntity
  8
SLD-TXT
100
AcDbText
 10
47171.71657685444
 20
32763.24712298204
 30
0
 40
568.5578422755154
  1
1 NO. 20A WATER HEATER (COMMON TOILET)
 50
90
 41
0.65
  7
ROMANS
 11
0
 21
0
 31
0
100
AcDbText
1001
ACAD
1000
ACAD_MTEXT_DEFINED_HEIGHT_BEGIN
1070
    46
1040
2913.333333333333
1000
ACAD_MTEXT_DEFINED_HEIGHT_END
  0
LWPOLYLINE
  5
4FA
330
1F
100
AcDbEntity
  8
SLD
 62
     2
100
AcDbPolyline
 90
        2
 70
     0
 43
151.8215674210664
 43
151.8215674210664
 10
62486.71369487987
 20
20893.68592741864
 10
78592.6779524927
 20
20893.68592741864
  0
LEADER
  5
4FB
330
1F
100
AcDbEntity
  8
SLD
100
AcDbLeader
  3
1-100
 71
     0
 73
     3
 72
     0
 74
     1
 40
0
 41
0
 76
     2
 10
65534.99555063943
 20
23811.11962782032
 30
0
 10
63153.2150522958
 20
23811.38731232046
 30
0
210
0
220
0
230
1
211
1
221
0
231
0
212
0
222
0
232
0
340
0
1001
ACAD
1000
DSTYLE
1002
{
1070
    41
1040
250
1002
}
  0
LINE
  5
4FC
330
1F
100
AcDbEntity
  8
SLD-LINE
  6
ByBlock
100
AcDbLine
 10
64747.30376723126
 20
24832.23813067708
 30
0
 11
64747.30376723126
 21
27496.0400243572
 31
0
  0
LINE
  5
4FD
330
1F
100
AcDbEntity
  8
SLD-LINE
  6
ByBlock
100
AcDbLine
 10
64747.30376723126
 20
28759.38558316667
 30
0
 11
64747.30376723126
 21
32253.20196932484
 31
0
  0
LINE
  5
4FE
330
1F
100
AcDbEntity
  8
SLD-LINE
  6
ByBlock
100
AcDbLine
 10
64749.93969542845
 20
22858.4937905778
 30
0
 11
64749.93969542845
 21
20893.68592741864
 31
0
  0
TEXT
  5
4FF
330
1F
100
AcDbEntity
  8
SLD-TXT
100
AcDbText
 10
64931.62242310817
 20
21261.45414486969
 30
0
 40
568.5578422755154
  1
P12
 41
0.65
  7
ROMANS
 11
0
 21
0
 31
0
100
AcDbText
1001
ACAD
1000
ACAD_MTEXT_DEFINED_HEIGHT_BEGIN
1070
    46
1040
2913.333333333333
1000
ACAD_MTEXT_DEFINED_HEIGHT_END
  0
LINE
  5
500
330
1F
100
AcDbEntity
  8
SLD
 62
     7
100
AcDbLine
 10
60889.89741714144
 20
32305.8285592994
 30
0
 11
60889.89741714155
 21
30182.49755290645
 31
0
  0
MTEXT
  5
501
330
1F
100
AcDbEntity
  8
SLD-TXT
100
AcDbMText
 10
60356.39239822813
 20
32902.42755780351
 30
0
210
0
220
0
230
1
 11
1E-16
 21
1
 31
0
 40
546.8276810542083
 41
21416.33087607104
 46
2254.474341907001
 71
     1
 72
     5
  1
2 x 1C 2.5mm² PVC + 2.5mm² \PPVC CPC IN METAL TRUNKING/CONDUIT
  7
SLD-TXT
 73
     1
 44
0.8804347825883589
  0
LINE
  5
502
330
1F
100
AcDbEntity
  8
SLD
 62
     7
100
AcDbLine
 10
74813.73987949544
 20
30152.16763285609
 30
0
 11
60889.89741714155
 21
30182.49755290651
 31
0
  0
LWPOLYLINE
  5
503
330
1F
100
AcDbEntity
  8
SLD-TXT
100
AcDbPolyline
 90
        2
 70
     0
 43
128.0994475062173
 43
128.0994475062173
 10
64475.56380323748
 20
29858.13099893793
 10
65019.04373122528
 20
30401.61092692526
  0
TEXT
  5
504
330
1F
100
AcDbEntity
  8
SLD-TXT
100
AcDbText
 10
64564.60537173282
 20
32763.24712298204
 30
0
 40
568.5578422755154
  1
2 Nos 13A DOUBLE S/S/O+
 50
90
 41
0.65
  7
ROMANS
 11
0
 21
0
 31
0
100
AcDbText
1001
ACAD
1000
ACAD_MTEXT_DEFINED_HEIGHT_BEGIN
1070
    46
1040
2913.333333333333
1000
ACAD_MTEXT_DEFINED_HEIGHT_END
  0
LINE
  5
505
330
1F
100
AcDbEntity
  8
SLD-LINE
100
AcDbLine
 10
64747.30376723126
 20
28759.38558316667
 30
0
 11
64747.30376723126
 21
27379.04640176897
 31
0
  0
TEXT
  5
506
330
1F
100
AcDbEntity
  8
SLD-TXT
100
AcDbText
 10
61872.24496528142
 20
24763.62935744778
 30
0
 40
558.9794072998573
  1
B20A
 41
0.7
  7
SLD-TXT
 11
0
 21
0
 31
0
100
AcDbText
  0
TEXT
  5
507
330
1F
100
AcDbEntity
  8
SLD-TXT
100
AcDbText
 10
61892.20851554218
 20
23917.60647072369
 30
0
 40
558.9794072998573
  1
SPN
 41
0.7
  7
SLD-TXT
 11
0
 21
0
 31
0
100
AcDbText
  0
TEXT
  5
508
330
1F
100
AcDbEntity
  8
SLD-TXT
100
AcDbText
 10
61872.24496528142
 20
23071.58358399959
 30
0
 40
558.9794072998573
  1
MCB
 41
0.7
  7
SLD-TXT
 11
0
 21
0
 31
0
100
AcDbText
  0
TEXT
  5
509
330
1F
100
AcDbEntity
  8
SLD-TXT
100
AcDbText
 10
61832.31786476015
 20
22225.5606972755
 30
0
 40
558.9794072998573
  1
6kA
 41
0.7
  7
SLD-TXT
 11
0
 21
0
 31
0
100
AcDbText
  0
CIRCLE
  5
50A
330
1F
100
AcDbEntity
  8
0
100
AcDbCircle
 10
64736.85724983804
 20
24691.90555107063
 30
0
 40
164.794136700766
  0
CIRCLE
  5
50B
330
1F
100
AcDbEntity
  8
0
100
AcDbCircle
 10
64748.93097460651
 20
23023.28484001086
 30
0
 40
164.794136700766
  0
ARC
  5
50C
330
1F
100
AcDbEntity
  8
0
100
AcDbCircle
 10
64791.81348050464
 20
23811.11962782032
 30
0
 40
820.885500579172
100
AcDbArc
 50
283.7768672271022
 51
75.22012274606209
  0
LINE
  5
50D
330
1F
100
AcDbEntity
  8
SLD-LINE
  6
ByBlock
100
AcDbLine
 10
71330.61983488688
 20
18958.62671477446
 30
0
 11
71330.61983488688
 21
20893.68592741864
 31
0
  0
MTEXT
  5
50E
330
1F
100
AcDbEntity
  8
SLD-TXT
100
AcDbMText
 10
73221.28984099384
 20
18819.35595758317
 30
0
210
0
220
0
230
1
 11
1
 21
0
 31
0
 40
558.9794072998573
 41
7993.364174969736
 46
0
 71
     1
 72
     5
  1
63A 2P \PRCCB (30mA)
  7
SLD-TXT
 73
     1
 44
0.8695652173913043
  0
CIRCLE
  5
50F
330
1F
100
AcDbEntity
  8
0
100
AcDbCircle
 10
71331.24595971663
 20
18768.95576915476
 30
0
 40
164.794136700766
  0
CIRCLE
  5
510
330
1F
100
AcDbEntity
  8
0
100
AcDbCircle
 10
71343.3196844851
 20
17100.33505809504
 30
0
 40
164.794136700766
  0
ARC
  5
511
330
1F
100
AcDbEntity
  8
0
100
AcDbCircle
 10
71386.20219038324
 20
17888.16984590445
 30
0
 40
820.885500579172
100
AcDbArc
 50
283.7768672271021
 51
75.22012274606908
  0
LINE
  5
512
330
1F
100
AcDbEntity
  8
0
100
AcDbLine
 10
72207.08769096238
 20
17888.16984590445
 30
0
 11
72646.86903701084
 21
17888.16984590445
 31
0
  0
LINE
  5
513
330
1F
100
AcDbEntity
  8
0
100
AcDbLine
 10
72646.86903701084
 20
18138.1691177439
 30
0
 11
72646.86903701084
 21
17651.71746228675
 31
0
  0
LINE
  5
514
330
1F
100
AcDbEntity
  8
SLD-LINE
  6
ByBlock
100
AcDbLine
 10
71343.3196844851
 20
15000.4817087501
 30
0
 11
71343.3196844851
 21
16935.54092139428
 31
0
  0
TEXT
  5
515
330
1F
100
AcDbEntity
  8
SLD-TXT
100
AcDbText
 10
62978.64811968131
 20
19721.73919038718
 30
0
 40
595.6320252410161
  1
80A HDHC TINNED
 41
0.8
  7
SLD-TXT
 11
0
 21
0
 31
0
100
AcDbText
  0
TEXT
  5
516
330
1F
100
AcDbEntity
  8
SLD-TXT
100
AcDbText
 10
62978.64811968131
 20
18816.11153382973
 30
0
 40
595.6320252410161
  1
CU BUSBAR
 41
0.8
  7
SLD-TXT
 11
0
 21
0
 31
0
100
AcDbText
  0
TEXT
  5
517
330
1F
100
AcDbEntity
  8
SLD-TXT
100
AcDbText
 10
65447.03776916242
 20
32763.24712298204
 30
0
 40
568.5578422755154
  1
1 No. 13A SINGLE S/S/O
 50
90
 41
0.65
  7
ROMANS
 11
0
 21
0
 31
0
100
AcDbText
1001
ACAD
1000
ACAD_MTEXT_DEFINED_HEIGHT_BEGIN
1070
    46
1040
2913.333333333333
1000
ACAD_MTEXT_DEFINED_HEIGHT_END
  0
TEXT
  5
518
330
1F
100
AcDbEntity
  8
SLD-TXT
100
AcDbText
 10
64978.75295191826
 20
41345.52147822072
 30
0
 40
568.5578422755154
  1
(KITCHEN)
 50
90
 41
0.65
  7
ROMANS
 11
0
 21
0
 31
0
100
AcDbText
1001
ACAD
1000
ACAD_MTEXT_DEFINED_HEIGHT_BEGIN
1070
    46
1040
2913.333333333333
1000
ACAD_MTEXT_DEFINED_HEIGHT_END
  0
LEADER
  5
519
330
1F
100
AcDbEntity
  8
SLD
100
AcDbLeader
  3
1-100
 71
     0
 73
     3
 72
     0
 74
     1
 40
0
 41
0
 76
     2
 10
68051.60457870548
 20
23861.69008185405
 30
0
 10
65669.82408036184
 20
23861.95776635419
 30
0
210
0
220
0
230
1
211
1
221
0
231
0
212
0
222
0
232
0
340
0
1001
ACAD
1000
DSTYLE
1002
{
1070
    41
1040
250
1002
}
  0
LINE
  5
51A
330
1F
100
AcDbEntity
  8
SLD-LINE
  6
ByBlock
100
AcDbLine
 10
67263.91279529731
 20
24882.80858471081
 30
0
 11
67263.91279529731
 21
27546.61047839093
 31
0
  0
LINE
  5
51B
330
1F
100
AcDbEntity
  8
SLD-LINE
  6
ByBlock
100
AcDbLine
 10
67263.91279529731
 20
28809.9560372004
 30
0
 11
67263.91279529731
 21
32303.77242335857
 31
0
  0
LINE
  5
51C
330
1F
100
AcDbEntity
  8
SLD-LINE
  6
ByBlock
100
AcDbLine
 10
67266.54872349449
 20
22909.06424461153
 30
0
 11
67266.54872349449
 21
20944.25638145237
 31
0
  0
TEXT
  5
51D
330
1F
100
AcDbEntity
  8
SLD-TXT
100
AcDbText
 10
67448.23145117422
 20
21312.02459890342
 30
0
 40
568.5578422755154
  1
P13
 41
0.65
  7
ROMANS
 11
0
 21
0
 31
0
100
AcDbText
1001
ACAD
1000
ACAD_MTEXT_DEFINED_HEIGHT_BEGIN
1070
    46
1040
2913.333333333333
1000
ACAD_MTEXT_DEFINED_HEIGHT_END
  0
LWPOLYLINE
  5
51E
330
1F
100
AcDbEntity
  8
SLD-TXT
100
AcDbPolyline
 90
        2
 70
     0
 43
128.0994475062173
 43
128.0994475062173
 10
66992.17283130353
 20
29908.70145297166
 10
67535.65275929132
 20
30452.18138095899
  0
LINE
  5
51F
330
1F
100
AcDbEntity
  8
SLD-LINE
100
AcDbLine
 10
67263.91279529731
 20
28809.9560372004
 30
0
 11
67263.91279529731
 21
27429.61685580271
 31
0
  0
CIRCLE
  5
520
330
1F
100
AcDbEntity
  8
0
100
AcDbCircle
 10
67253.46627790408
 20
24742.47600510436
 30
0
 40
164.794136700766
  0
CIRCLE
  5
521
330
1F
100
AcDbEntity
  8
0
100
AcDbCircle
 10
67265.54000267255
 20
23073.85529404459
 30
0
 40
164.794136700766
  0
ARC
  5
522
330
1F
100
AcDbEntity
  8
0
100
AcDbCircle
 10
67308.42250857069
 20
23861.69008185405
 30
0
 40
820.885500579172
100
AcDbArc
 50
283.7768672271022
 51
75.22012274606868
  0
TEXT
  5
523
330
1F
100
AcDbEntity
  8
SLD-TXT
100
AcDbText
 10
67555.61972906496
 20
32813.81757701578
 30
0
 40
568.5578422755154
  1
3 Nos 13A SINGLE S/S/O (KITCHEN)
 50
90
 41
0.65
  7
ROMANS
 11
0
 21
0
 31
0
100
AcDbText
1001
ACAD
1000
ACAD_MTEXT_DEFINED_HEIGHT_BEGIN
1070
    46
1040
2913.333333333333
1000
ACAD_MTEXT_DEFINED_HEIGHT_END
  0
LEADER
  5
524
330
1F
100
AcDbEntity
  8
SLD
100
AcDbLeader
  3
1-100
 71
     0
 73
     3
 72
     0
 74
     1
 40
0
 41
0
 76
     2
 10
70568.21360677152
 20
23912.26053588778
 30
0
 10
68186.43310842788
 20
23912.52822038793
 30
0
210
0
220
0
230
1
211
1
221
0
231
0
212
0
222
0
232
0
340
0
1001
ACAD
1000
DSTYLE
1002
{
1070
    41
1040
250
1002
}
  0
LINE
  5
525
330
1F
100
AcDbEntity
  8
SLD-LINE
  6
ByBlock
100
AcDbLine
 10
69780.52182336335
 20
24933.37903874454
 30
0
 11
69780.52182336335
 21
27597.18093242466
 31
0
  0
LINE
  5
526
330
1F
100
AcDbEntity
  8
SLD-LINE
  6
ByBlock
100
AcDbLine
 10
69780.52182336335
 20
28860.52649123413
 30
0
 11
69780.52182336335
 21
32354.3428773923
 31
0
  0
LINE
  5
527
330
1F
100
AcDbEntity
  8
SLD-LINE
  6
ByBlock
100
AcDbLine
 10
69783.15775156053
 20
22959.63469864526
 30
0
 11
69783.15775156053
 21
20994.8268354861
 31
0
  0
TEXT
  5
528
330
1F
100
AcDbEntity
  8
SLD-TXT
100
AcDbText
 10
69964.84047924026
 20
21362.59505293715
 30
0
 40
568.5578422755154
  1
P14
 41
0.65
  7
ROMANS
 11
0
 21
0
 31
0
100
AcDbText
1001
ACAD
1000
ACAD_MTEXT_DEFINED_HEIGHT_BEGIN
1070
    46
1040
2913.333333333333
1000
ACAD_MTEXT_DEFINED_HEIGHT_END
  0
LWPOLYLINE
  5
529
330
1F
100
AcDbEntity
  8
SLD-TXT
100
AcDbPolyline
 90
        2
 70
     0
 43
128.0994475062173
 43
128.0994475062173
 10
69508.78185936957
 20
29891.39138822747
 10
70052.26178735736
 20
30434.8713162148
  0
LINE
  5
52A
330
1F
100
AcDbEntity
  8
SLD-LINE
100
AcDbLine
 10
69780.52182336335
 20
28860.52649123413
 30
0
 11
69780.52182336335
 21
27480.18730983644
 31
0
  0
CIRCLE
  5
52B
330
1F
100
AcDbEntity
  8
0
100
AcDbCircle
 10
69770.07530597012
 20
24793.0464591381
 30
0
 40
164.794136700766
  0
CIRCLE
  5
52C
330
1F
100
AcDbEntity
  8
0
100
AcDbCircle
 10
69782.1490307386
 20
23124.42574807832
 30
0
 40
164.794136700766
  0
ARC
  5
52D
330
1F
100
AcDbEntity
  8
0
100
AcDbCircle
 10
69825.03153663673
 20
23912.26053588778
 30
0
 40
820.885500579172
100
AcDbArc
 50
283.7768672271022
 51
75.22012274606909
  0
TEXT
  5
52E
330
1F
100
AcDbEntity
  8
SLD-TXT
100
AcDbText
 10
70072.228757131
 20
32864.38803104951
 30
0
 40
568.5578422755154
  1
1 No. 20A CONNECTION UNIT FOR MICROWAVE (KITCHEN)
 50
90
 41
0.65
  7
ROMANS
 11
0
 21
0
 31
0
100
AcDbText
1001
ACAD
1000
ACAD_MTEXT_DEFINED_HEIGHT_BEGIN
1070
    46
1040
2913.333333333333
1000
ACAD_MTEXT_DEFINED_HEIGHT_END
  0
LEADER
  5
52F
330
1F
100
AcDbEntity
  8
SLD
100
AcDbLeader
  3
1-100
 71
     0
 73
     3
 72
     0
 74
     1
 40
0
 41
0
 76
     2
 10
73099.44976103745
 20
23889.07277564791
 30
0
 10
70717.66926269382
 20
23889.34046014805
 30
0
210
0
220
0
230
1
211
1
221
0
231
0
212
0
222
0
232
0
340
0
1001
ACAD
1000
DSTYLE
1002
{
1070
    41
1040
250
1002
}
  0
LINE
  5
530
330
1F
100
AcDbEntity
  8
SLD-LINE
  6
ByBlock
100
AcDbLine
 10
72301.07207011034
 20
24934.65266172247
 30
0
 11
72297.13085142939
 21
27647.7513864584
 31
0
  0
LINE
  5
531
330
1F
100
AcDbEntity
  8
SLD-LINE
  6
ByBlock
100
AcDbLine
 10
72297.13085142939
 20
28911.09694526786
 30
0
 11
72297.13085142939
 21
32404.91333142603
 31
0
  0
LINE
  5
532
330
1F
100
AcDbEntity
  8
SLD-LINE
  6
ByBlock
100
AcDbLine
 10
72314.39390582647
 20
22936.44693840539
 30
0
 11
72314.39390582647
 21
20971.63907524622
 31
0
  0
TEXT
  5
533
330
1F
100
AcDbEntity
  8
SLD-TXT
100
AcDbText
 10
72496.07663350619
 20
21339.40729269728
 30
0
 40
568.5578422755154
  1
P15
 41
0.65
  7
ROMANS
 11
0
 21
0
 31
0
100
AcDbText
1001
ACAD
1000
ACAD_MTEXT_DEFINED_HEIGHT_BEGIN
1070
    46
1040
2913.333333333333
1000
ACAD_MTEXT_DEFINED_HEIGHT_END
  0
LWPOLYLINE
  5
534
330
1F
100
AcDbEntity
  8
SLD-TXT
100
AcDbPolyline
 90
        2
 70
     0
 43
128.0994475062173
 43
128.0994475062173
 10
72025.39088743561
 20
29885.90952854501
 10
72568.8708154234
 20
30429.38945653233
  0
LINE
  5
535
330
1F
100
AcDbEntity
  8
SLD-LINE
100
AcDbLine
 10
72297.13085142939
 20
28911.09694526786
 30
0
 11
72297.13085142939
 21
27530.75776387017
 31
0
  0
CIRCLE
  5
536
330
1F
100
AcDbEntity
  8
0
100
AcDbCircle
 10
72301.31146023606
 20
24769.85869889822
 30
0
 40
164.794136700766
  0
CIRCLE
  5
537
330
1F
100
AcDbEntity
  8
0
100
AcDbCircle
 10
72313.38518500453
 20
23101.23798783845
 30
0
 40
164.794136700766
  0
ARC
  5
538
330
1F
100
AcDbEntity
  8
0
100
AcDbCircle
 10
72356.26769090266
 20
23889.07277564791
 30
0
 40
820.885500579172
100
AcDbArc
 50
283.7768672271023
 51
75.22012274606908
  0
TEXT
  5
539
330
1F
100
AcDbEntity
  8
SLD-TXT
100
AcDbText
 10
72588.83778519704
 20
32914.95848508324
 30
0
 40
568.5578422755154
  1
1 No. 20A CONNECTION UNIT FOR HOOD (KITCHEN)
 50
90
 41
0.65
  7
ROMANS
 11
0
 21
0
 31
0
100
AcDbText
1001
ACAD
1000
ACAD_MTEXT_DEFINED_HEIGHT_BEGIN
1070
    46
1040
2913.333333333333
1000
ACAD_MTEXT_DEFINED_HEIGHT_END
  0
LEADER
  5
53A
330
1F
100
AcDbEntity
  8
SLD
100
AcDbLeader
  3
1-100
 71
     0
 73
     3
 72
     0
 74
     1
 40
0
 41
0
 76
     2
 10
75616.0587891035
 20
23871.43428466154
 30
0
 10
73234.27829075986
 20
23871.70196916168
 30
0
210
0
220
0
230
1
211
1
221
0
231
0
212
0
222
0
232
0
340
0
1001
ACAD
1000
DSTYLE
1002
{
1070
    41
1040
250
1002
}
  0
LINE
  5
53B
330
1F
100
AcDbEntity
  8
SLD-LINE
  6
ByBlock
100
AcDbLine
 10
74817.6866405903
 20
24917.01417869415
 30
0
 11
74813.73987949544
 21
27698.32184049213
 31
0
  0
LINE
  5
53C
330
1F
100
AcDbEntity
  8
SLD-LINE
  6
ByBlock
100
AcDbLine
 10
74813.73987949544
 20
28961.66739930159
 30
0
 11
74813.73987949544
 21
32455.48378545976
 31
0
  0
LINE
  5
53D
330
1F
100
AcDbEntity
  8
SLD-LINE
  6
ByBlock
100
AcDbLine
 10
74831.00293389251
 20
22918.80844741902
 30
0
 11
74831.00293389251
 21
20954.00058425985
 31
0
  0
TEXT
  5
53E
330
1F
100
AcDbEntity
  8
SLD-TXT
100
AcDbText
 10
75012.68566157224
 20
21321.76880171091
 30
0
 40
568.5578422755154
  1
P16
 41
0.65
  7
ROMANS
 11
0
 21
0
 31
0
100
AcDbText
1001
ACAD
1000
ACAD_MTEXT_DEFINED_HEIGHT_BEGIN
1070
    46
1040
2913.333333333333
1000
ACAD_MTEXT_DEFINED_HEIGHT_END
  0
LWPOLYLINE
  5
53F
330
1F
100
AcDbEntity
  8
SLD-TXT
100
AcDbPolyline
 90
        2
 70
     0
 43
128.0994475062173
 43
128.0994475062173
 10
74541.99991550166
 20
29880.42766886254
 10
75085.47984348945
 20
30423.90759684987
  0
LINE
  5
540
330
1F
100
AcDbEntity
  8
SLD-LINE
100
AcDbLine
 10
74813.73987949544
 20
28961.66739930159
 30
0
 11
74813.73987949544
 21
27581.3282179039
 31
0
  0
CIRCLE
  5
541
330
1F
100
AcDbEntity
  8
0
100
AcDbCircle
 10
74817.9204883021
 20
24752.22020791185
 30
0
 40
164.794136700766
  0
CIRCLE
  5
542
330
1F
100
AcDbEntity
  8
0
100
AcDbCircle
 10
74829.99421307057
 20
23083.59949685208
 30
0
 40
164.794136700766
  0
ARC
  5
543
330
1F
100
AcDbEntity
  8
0
100
AcDbCircle
 10
74872.87671896871
 20
23871.43428466154
 30
0
 40
820.885500579172
100
AcDbArc
 50
283.7768672271023
 51
75.22012274606905
  0
TEXT
  5
544
330
1F
100
AcDbEntity
  8
SLD-TXT
100
AcDbText
 10
75105.44681326309
 20
32965.52893911697
 30
0
 40
568.5578422755154
  1
1 No. 20A CONNECTION UNIT FOR OVEN (KITCHEN)
 50
90
 41
0.65
  7
ROMANS
 11
0
 21
0
 31
0
100
AcDbText
1001
ACAD
1000
ACAD_MTEXT_DEFINED_HEIGHT_BEGIN
1070
    46
1040
2913.333333333333
1000
ACAD_MTEXT_DEFINED_HEIGHT_END
  0
LEADER
  5
545
330
1F
100
AcDbEntity
  8
SLD
100
AcDbLeader
  3
1-100
 71
     0
 73
     3
 72
     0
 74
     1
 40
0
 41
0
 76
     2
 10
78132.66781716954
 20
23853.79579367517
 30
0
 10
75750.8873188259
 20
23854.06347817531
 30
0
210
0
220
0
230
1
211
1
221
0
231
0
212
0
222
0
232
0
340
0
1001
ACAD
1000
DSTYLE
1002
{
1070
    41
1040
250
1002
}
  0
LINE
  5
547
330
1F
100
AcDbEntity
  8
SLD-LINE
  6
DASHED
 48
50
100
AcDbLine
 10
77334.44008158369
 20
24899.37582935784
 30
0
 11
77330.34890756148
 21
32437.84529447339
 31
0
  0
LINE
  5
548
330
1F
100
AcDbEntity
  8
SLD-LINE
  6
ByBlock
100
AcDbLine
 10
77347.61196195855
 20
22901.16995643265
 30
0
 11
77347.61196195855
 21
20936.36209327348
 31
0
  0
TEXT
  5
549
330
1F
100
AcDbEntity
  8
SLD-TXT
100
AcDbText
 10
77529.29468963828
 20
21304.13031072454
 30
0
 40
568.5578422755154
  1
P17
 41
0.65
  7
ROMANS
 11
0
 21
0
 31
0
100
AcDbText
1001
ACAD
1000
ACAD_MTEXT_DEFINED_HEIGHT_BEGIN
1070
    46
1040
2913.333333333333
1000
ACAD_MTEXT_DEFINED_HEIGHT_END
  0
CIRCLE
  5
54C
330
1F
100
AcDbEntity
  8
0
100
AcDbCircle
 10
77334.52951636814
 20
24734.58171692548
 30
0
 40
164.794136700766
  0
CIRCLE
  5
54D
330
1F
100
AcDbEntity
  8
0
100
AcDbCircle
 10
77346.60324113662
 20
23065.96100586571
 30
0
 40
164.794136700766
  0
ARC
  5
54E
330
1F
100
AcDbEntity
  8
0
100
AcDbCircle
 10
77389.48574703475
 20
23853.79579367517
 30
0
 40
820.885500579172
100
AcDbArc
 50
283.7768672271022
 51
75.22012274606909
  0
TEXT
  5
54F
330
1F
100
AcDbEntity
  8
SLD-TXT
100
AcDbText
 10
77622.05584132913
 20
32947.8904481306
 30
0
 40
568.5578422755154
  1
SPARE
 50
90
 41
0.65
  7
ROMANS
 11
0
 21
0
 31
0
100
AcDbText
1001
ACAD
1000
ACAD_MTEXT_DEFINED_HEIGHT_BEGIN
1070
    46
1040
2913.333333333333
1000
ACAD_MTEXT_DEFINED_HEIGHT_END
  0
LWPOLYLINE
  5
550
330
1F
100
AcDbEntity
  8
SLD
 62
     2
100
AcDbPolyline
 90
        2
 70
     0
 43
151.8215674210664
 43
151.8215674210664
 10
82917.77190056797
 20
20893.68592741864
 10
91870.6791858183
 20
20893.68592741864
  0
LEADER
  5
551
330
1F
100
AcDbEntity
  8
SLD
100
AcDbLeader
  3
1-100
 71
     0
 73
     3
 72
     0
 74
     1
 40
0
 41
0
 76
     2
 10
85966.05375632753
 20
23811.11962782032
 30
0
 10
83584.27325798389
 20
23811.38731232046
 30
0
210
0
220
0
230
1
211
1
221
0
231
0
212
0
222
0
232
0
340
0
1001
ACAD
1000
DSTYLE
1002
{
1070
    41
1040
250
1002
}
  0
LINE
  5
552
330
1F
100
AcDbEntity
  8
SLD-LINE
  6
ByBlock
100
AcDbLine
 10
85178.36197291936
 20
24832.23813067708
 30
0
 11
85178.36197291936
 21
27496.0400243572
 31
0
  0
LINE
  5
553
330
1F
100
AcDbEntity
  8
SLD-LINE
  6
ByBlock
100
AcDbLine
 10
85178.36197291936
 20
28759.38558316667
 30
0
 11
85178.36197291936
 21
32253.20196932484
 31
0
  0
LINE
  5
554
330
1F
100
AcDbEntity
  8
SLD-LINE
  6
ByBlock
100
AcDbLine
 10
85180.99790111654
 20
22858.4937905778
 30
0
 11
85180.99790111654
 21
20893.68592741864
 31
0
  0
TEXT
  5
555
330
1F
100
AcDbEntity
  8
SLD-TXT
100
AcDbText
 10
85362.68062879627
 20
21261.45414486969
 30
0
 40
568.5578422755154
  1
P18
 41
0.65
  7
ROMANS
 11
0
 21
0
 31
0
100
AcDbText
1001
ACAD
1000
ACAD_MTEXT_DEFINED_HEIGHT_BEGIN
1070
    46
1040
2913.333333333333
1000
ACAD_MTEXT_DEFINED_HEIGHT_END
  0
LINE
  5
556
330
1F
100
AcDbEntity
  8
SLD
 62
     7
100
AcDbLine
 10
81320.95562282953
 20
32305.8285592994
 30
0
 11
81320.95562282964
 21
30182.49755290645
 31
0
  0
MTEXT
  5
557
330
1F
100
AcDbEntity
  8
SLD-TXT
100
AcDbMText
 10
80787.45060391622
 20
32902.42755780351
 30
0
210
0
220
0
230
1
 11
1E-16
 21
1
 31
0
 40
546.8276810542083
 41
21416.33087607104
 46
2254.474341907001
 71
     1
 72
     5
  1
2 x 1C 2.5mm² PVC + 2.5mm² \PPVC CPC IN METAL TRUNKING/CONDUIT
  7
SLD-TXT
 73
     1
 44
0.8804347825883589
  0
LINE
  5
558
330
1F
100
AcDbEntity
  8
SLD
 62
     7
100
AcDbLine
 10
87809.84004377513
 20
30168.36299585188
 30
0
 11
81320.95562282964
 21
30182.49755290651
 31
0
  0
LWPOLYLINE
  5
559
330
1F
100
AcDbEntity
  8
SLD-TXT
100
AcDbPolyline
 90
        2
 70
     0
 43
128.0994475062173
 43
128.0994475062173
 10
84906.62200892558
 20
29858.13099893793
 10
85450.10193691337
 20
30401.61092692526
  0
LINE
  5
55B
330
1F
100
AcDbEntity
  8
SLD-LINE
100
AcDbLine
 10
85178.36197291936
 20
28759.38558316667
 30
0
 11
85178.36197291936
 21
27379.04640176897
 31
0
  0
TEXT
  5
55C
330
1F
100
AcDbEntity
  8
SLD-TXT
100
AcDbText
 10
82303.30317096952
 20
24763.62935744778
 30
0
 40
558.9794072998573
  1
C20A
 41
0.7
  7
SLD-TXT
 11
0
 21
0
 31
0
100
AcDbText
  0
TEXT
  5
55D
330
1F
100
AcDbEntity
  8
SLD-TXT
100
AcDbText
 10
82323.26672123028
 20
23917.60647072369
 30
0
 40
558.9794072998573
  1
SPN
 41
0.7
  7
SLD-TXT
 11
0
 21
0
 31
0
100
AcDbText
  0
TEXT
  5
55E
330
1F
100
AcDbEntity
  8
SLD-TXT
100
AcDbText
 10
82303.30317096952
 20
23071.58358399959
 30
0
 40
558.9794072998573
  1
MCB
 41
0.7
  7
SLD-TXT
 11
0
 21
0
 31
0
100
AcDbText
  0
TEXT
  5
55F
330
1F
100
AcDbEntity
  8
SLD-TXT
100
AcDbText
 10
82263.37607044824
 20
22225.5606972755
 30
0
 40
558.9794072998573
  1
6kA
 41
0.7
  7
SLD-TXT
 11
0
 21
0
 31
0
100
AcDbText
  0
CIRCLE
  5
560
330
1F
100
AcDbEntity
  8
0
100
AcDbCircle
 10
85167.91545552613
 20
24691.90555107063
 30
0
 40
164.794136700766
  0
CIRCLE
  5
561
330
1F
100
AcDbEntity
  8
0
100
AcDbCircle
 10
85179.98918029461
 20
23023.28484001086
 30
0
 40
164.794136700766
  0
ARC
  5
562
330
1F
100
AcDbEntity
  8
0
100
AcDbCircle
 10
85222.87168619274
 20
23811.11962782032
 30
0
 40
820.885500579172
100
AcDbArc
 50
283.7768672271022
 51
75.22012274606867
  0
LINE
  5
563
330
1F
100
AcDbEntity
  8
SLD-LINE
  6
ByBlock
100
AcDbLine
 10
90780.76938576726
 20
18958.62671477446
 30
0
 11
90780.76938576726
 21
20893.68592741864
 31
0
  0
MTEXT
  5
564
330
1F
100
AcDbEntity
  8
SLD-TXT
100
AcDbMText
 10
92671.43939187421
 20
18819.35595758317
 30
0
210
0
220
0
230
1
 11
1
 21
0
 31
0
 40
558.9794072998573
 41
7993.364174969736
 46
0
 71
     1
 72
     5
  1
63A 2P \PRCCB (30mA)
  7
SLD-TXT
 73
     1
 44
0.8695652173913043
  0
CIRCLE
  5
565
330
1F
100
AcDbEntity
  8
0
100
AcDbCircle
 10
90781.39551059701
 20
18768.95576915476
 30
0
 40
164.794136700766
  0
CIRCLE
  5
566
330
1F
100
AcDbEntity
  8
0
100
AcDbCircle
 10
90793.46923536548
 20
17100.33505809504
 30
0
 40
164.794136700766
  0
ARC
  5
567
330
1F
100
AcDbEntity
  8
0
100
AcDbCircle
 10
90836.35174126361
 20
17888.16984590445
 30
0
 40
820.885500579172
100
AcDbArc
 50
283.7768672271021
 51
75.22012274606912
  0
LINE
  5
568
330
1F
100
AcDbEntity
  8
0
100
AcDbLine
 10
91657.23724184275
 20
17888.16984590445
 30
0
 11
92097.01858789122
 21
17888.16984590445
 31
0
  0
LINE
  5
569
330
1F
100
AcDbEntity
  8
0
100
AcDbLine
 10
92097.01858789122
 20
18138.1691177439
 30
0
 11
92097.01858789122
 21
17651.71746228675
 31
0
  0
LINE
  5
56A
330
1F
100
AcDbEntity
  8
SLD-LINE
  6
ByBlock
100
AcDbLine
 10
90793.46923536548
 20
15000.4817087501
 30
0
 11
90793.46923536548
 21
16935.54092139428
 31
0
  0
TEXT
  5
56B
330
1F
100
AcDbEntity
  8
SLD-TXT
100
AcDbText
 10
83409.70632536941
 20
19721.73919038718
 30
0
 40
595.6320252410161
  1
80A HDHC TINNED
 41
0.8
  7
SLD-TXT
 11
0
 21
0
 31
0
100
AcDbText
  0
LWPOLYLINE
  5
56E
330
1F
100
AcDbEntity
  8
0
100
AcDbPolyline
 90
        4
 70
     1
 43
0
 10
84636.79054865257
 20
32253.20196932484
 10
85593.08764044475
 20
32253.20196932484
 10
85593.08764044475
 20
33129.18221389956
 10
84636.79054865257
 20
33129.18221389956
  0
LINE
  5
56F
330
1F
100
AcDbEntity
  8
0
100
AcDbLine
 10
85593.08764044475
 20
33129.18221389956
 30
0
 11
84636.79054865257
 21
32253.20196932484
 31
0
  0
LINE
  5
570
330
1F
100
AcDbEntity
  8
0
100
AcDbLine
 10
85593.08764044475
 20
32686.3293046864
 30
0
 11
86009.36566894036
 21
32686.3293046864
 31
0
  0
LINE
  5
571
330
1F
100
AcDbEntity
  8
0
100
AcDbLine
 10
86009.36566894036
 20
32686.3293046864
 30
0
 11
86009.36566894036
 21
32250.69675329252
 31
0
  0
TEXT
  5
572
330
1F
100
AcDbEntity
  8
SLD-TXT
100
AcDbText
 10
85470.06890668701
 20
33824.50739644805
 30
0
 40
568.5578422755154
  1
1 No. 20A DP ISOLATOR
 50
90
 41
0.65
  7
ROMANS
 11
0
 21
0
 31
0
100
AcDbText
1001
ACAD
1000
ACAD_MTEXT_DEFINED_HEIGHT_BEGIN
1070
    46
1040
2913.333333333333
1000
ACAD_MTEXT_DEFINED_HEIGHT_END
  0
LEADER
  5
573
330
1F
100
AcDbEntity
  8
SLD
100
AcDbLeader
  3
1-100
 71
     0
 73
     3
 72
     0
 74
     1
 40
0
 41
0
 76
     2
 10
88559.03979426285
 20
23811.11962782032
 30
0
 10
86177.25929591921
 20
23811.38731232046
 30
0
210
0
220
0
230
1
211
1
221
0
231
0
212
0
222
0
232
0
340
0
1001
ACAD
1000
DSTYLE
1002
{
1070
    41
1040
250
1002
}
  0
LINE
  5
574
330
1F
100
AcDbEntity
  8
SLD-LINE
  6
ByBlock
100
AcDbLine
 10
87771.34801085468
 20
24832.23813067708
 30
0
 11
87771.34801085468
 21
27496.0400243572
 31
0
  0
LINE
  5
575
330
1F
100
AcDbEntity
  8
SLD-LINE
  6
ByBlock
100
AcDbLine
 10
87771.34801085468
 20
28759.38558316667
 30
0
 11
87771.34801085468
 21
32253.20196932484
 31
0
  0
LINE
  5
576
330
1F
100
AcDbEntity
  8
SLD-LINE
  6
ByBlock
100
AcDbLine
 10
87773.98393905186
 20
22858.4937905778
 30
0
 11
87773.98393905186
 21
20893.68592741864
 31
0
  0
TEXT
  5
577
330
1F
100
AcDbEntity
  8
SLD-TXT
100
AcDbText
 10
87955.66666673159
 20
21261.45414486969
 30
0
 40
568.5578422755154
  1
P19
 41
0.65
  7
ROMANS
 11
0
 21
0
 31
0
100
AcDbText
1001
ACAD
1000
ACAD_MTEXT_DEFINED_HEIGHT_BEGIN
1070
    46
1040
2913.333333333333
1000
ACAD_MTEXT_DEFINED_HEIGHT_END
  0
LWPOLYLINE
  5
578
330
1F
100
AcDbEntity
  8
SLD-TXT
100
AcDbPolyline
 90
        2
 70
     0
 43
128.0994475062173
 43
128.0994475062173
 10
87499.6080468609
 20
29858.13099893793
 10
88043.08797484869
 20
30401.61092692526
  0
LINE
  5
579
330
1F
100
AcDbEntity
  8
SLD-LINE
100
AcDbLine
 10
87771.34801085468
 20
28759.38558316667
 30
0
 11
87771.34801085468
 21
27379.04640176897
 31
0
  0
CIRCLE
  5
57A
330
1F
100
AcDbEntity
  8
0
100
AcDbCircle
 10
87760.90149346145
 20
24691.90555107063
 30
0
 40
164.794136700766
  0
CIRCLE
  5
57B
330
1F
100
AcDbEntity
  8
0
100
AcDbCircle
 10
87772.97521822993
 20
23023.28484001086
 30
0
 40
164.794136700766
  0
ARC
  5
57C
330
1F
100
AcDbEntity
  8
0
100
AcDbCircle
 10
87815.85772412806
 20
23811.11962782032
 30
0
 40
820.885500579172
100
AcDbArc
 50
283.7768672271022
 51
75.22012274606909
  0
LWPOLYLINE
  5
57D
330
1F
100
AcDbEntity
  8
0
100
AcDbPolyline
 90
        4
 70
     1
 43
0
 10
87229.77658658789
 20
32253.20196932484
 10
88186.07367838007
 20
32253.20196932484
 10
88186.07367838007
 20
33129.18221389956
 10
87229.77658658789
 20
33129.18221389956
  0
LINE
  5
57E
330
1F
100
AcDbEntity
  8
0
100
AcDbLine
 10
88186.07367838007
 20
33129.18221389956
 30
0
 11
87229.77658658789
 21
32253.20196932484
 31
0
  0
LINE
  5
57F
330
1F
100
AcDbEntity
  8
0
100
AcDbLine
 10
88186.07367838007
 20
32686.3293046864
 30
0
 11
88602.35170687568
 21
32686.3293046864
 31
0
  0
LINE
  5
580
330
1F
100
AcDbEntity
  8
0
100
AcDbLine
 10
88602.35170687568
 20
32686.3293046864
 30
0
 11
88602.35170687568
 21
32250.69675329252
 31
0
  0
TEXT
  5
581
330
1F
100
AcDbEntity
  8
SLD-TXT
100
AcDbText
 10
88063.05494462233
 20
33824.50739644805
 30
0
 40
568.5578422755154
  1
1 No. 20A DP ISOLATOR
 50
90
 41
0.65
  7
ROMANS
 11
0
 21
0
 31
0
100
AcDbText
1001
ACAD
1000
ACAD_MTEXT_DEFINED_HEIGHT_BEGIN
1070
    46
1040
2913.333333333333
1000
ACAD_MTEXT_DEFINED_HEIGHT_END
  0
TEXT
  5
582
330
1F
100
AcDbEntity
  8
SLD-TXT
100
AcDbText
 10
83409.70632536941
 20
18816.11153382973
 30
0
 40
595.6320252410161
  1
CU BUSBAR
 41
0.8
  7
SLD-TXT
 11
0
 21
0
 31
0
100
AcDbText
  0
MULTILEADER
  5
583
102
{ACAD_REACTORS
330
586
102
}
102
{ACAD_XDICTIONARY
360
585
102
}
330
1F
100
AcDbEntity
  8
0
160
         664
310
98020000180000000C00000016000000000000C00C00000033000000000000000C00000013000000993A0000D400000026000000F783B2F0DE89E940874AB2630C1ED040000000000000000000000000000000000000000000000000000000000000F03F000000000000F03F00000000000000000000000000000000380030
310
004100200042004900200043004F004E004E004500430054004F0052000000630010000000010000000000000000407F40000000000000F03F0000000000000000000000000000F03F00000000000000000000000000000000000000000000000000000000010000002200000041007200690061006C000000000000000000
310
C7220C00000033000000000000000C00000010000000000000000C00000016000000000000C00C00000012000000FF7F00000C00000013000000010000000C00000014000000010000005400000007000000030000000ED1B30A832FE940D9A209EC7EDBCE4000000000000000003067402E37FEE8403034CC26443CCE4000
310
00000000000000B6F932CCEF1FE940C6F5A23DD712CF4000000000000000000C00000014000000010000000C00000013000000891300003C00000006000000020000006265736BB927E940504CD6142BF7CE400000000000000000408A78CE288CE940806E9F11B35DD04000000000000000000C0000001300000011270000
310
3C0000000600000002000000408A78CE288CE940806E9F11B35DD0400000000000000000408A78CE288DE940806E9F11B35DD04000000000000000000C00000016000000000000C00C00000012000000FF7F00000C00000017000000000000000C000000130000009A3A00000C00000016000000000000C00C000000120000
310
00FF7F00000C00000017000000FFFFFFFF0C0000003300000000000000
100
AcDbMLeader
270
     2
300
CONTEXT_DATA{
 40
1
 10
52329.27520396234
 20
16758.79795060912
 30
0
 41
500
140
500
145
2
174
     1
175
     1
176
     0
177
     0
290
     1
304
80A BI CONNECTOR
 11
0
 21
0
 31
1
340
11
 12
52331.27520396234
 22
17013.0612521098
 32
0
 13
1
 23
0
 33
0
 42
0
 43
0
 44
0
 45
1
170
     1
 90
-1073741824
171
     1
172
     5
 91
-1073741824
141
0
 92
        0
291
     0
292
     0
173
     0
293
     0
142
0
143
0
294
     0
295
     0
296
     0
110
51185.72439594415
120
15480.53243401097
130
0
111
1
121
0
131
0
112
0
122
1
132
0
297
     0
302
LEADER{
290
     1
291
     1
 10
52321.27520396234
 20
16758.79795060912
 30
0
 11
1
 21
0
 31
0
 90
        0
 40
8
304
LEADER_LINE{
 10
51185.72439594415
 20
15480.53243401097
 30
0
 91
        0
170
     1
 92
-1056964608
340
0
171
    -2
 40
0
341
0
 93
        0
271
     0
305
}
303
}
273
     9
272
     9
301
}
340
12E
 90
   345600
170
     1
 91
-1056964608
341
14
171
    -2
290
     1
291
     1
 41
8
 42
500
172
     2
343
11
173
     1
 95
        1
174
     1
175
     0
 92
-1056964608
292
     0
 93
-1056964608
 10
1
 20
1
 30
1
 43
0
176
     0
293
     0
271
     0
273
    32
272
  4786
295
     1
  0
VIEWPORT
  5
590
102
{ACAD_XDICTIONARY
360
591
102
}
330
D2
100
AcDbEntity
 67
     1
  8
0
100
AcDbViewport
 10
274.6093069269555
 20
46.79047091280694
 30
0
 40
450.3191623303302
 41
206.8809435798011
 68
     1
 69
     1
 12
274.6093069269555
 22
46.79047091280694
 13
0
 23
0
 14
10
 24
10
 15
10
 25
10
 16
0
 26
0
 36
1
 17
0
 27
0
 37
0
 42
50
 43
0
 44
0
 45
206.8809435798011
 50
0
 51
0
 72
  1000
 90
   819232
  1

281
     0
 71
     1
 74
     0
110
0
120
0
130
0
111
1
121
0
131
0
112
0
122
1
132
0
 79
     0
146
0
170
     0
 61
     5
348
F5
292
     1
282
     1
141
0
142
0
 63
   250
421
3258135347
340
0
345
0
346
0
332
0
333
0
361
0
  0
VIEWPORT
  5
594
102
{ACAD_XDICTIONARY
360
595
102
}
330
D2
100
AcDbEntity
 67
     1
  8
0
100
AcDbViewport
 10
202.455879819733
 20
145.2050768980863
 30
0
 40
403.3007597117778
 41
221.2036504670435
 68
     1
 69
     1
 12
53440.86083214509
 22
27977.496167729
 13
0
 23
0
 14
10
 24
10
 15
10
 25
10
 16
0
 26
0
 36
1
 17
0
 27
0
 37
0
 42
50
 43
0
 44
0
 45
53226.67101898108
 50
0
 51
0
 72
  1000
 90
   819296
  1

281
     0
 71
     1
 74
     0
110
0
120
0
130
0
111
1
121
0
131
0
112
0
122
1
132
0
 79
     0
146
0
170
     0
 61
     5
348
F5
292
     1
282
     1
141
0
142
0
 63
   250
421
3258135347
340
0
345
0
346
0
332
0
333
0
361
0
  0
LINE
  5
5D4
330
D2
100
AcDbEntity
 67
     1
  8
0
 62
     7
100
AcDbLine
 10
0.8054999638441132
 20
1.042964399296303
 30
0
 11
404.2149068220408
 21
1.042964399296303
 31
0
  0
LINE
  5
5D5
330
D2
100
AcDbEntity
 67
     1
  8
0
 62
     7
100
AcDbLine
 10
0.8054999638441132
 20
34.60325166456454
 30
0
 11
404.2149068220407
 21
34.60325166456454
 31
0
  0
LINE
  5
5D6
330
D2
100
AcDbEntity
 67
     1
  8
0
 62
     7
100
AcDbLine
 10
261.2162323830514
 20
34.60325166456454
 30
0
 11
261.2162323830514
 21
1.042964399296303
 31
0
  0
TEXT
  5
5D7
330
D2
100
AcDbEntity
 67
     1
  8
TXT
 62
     7
100
AcDbText
 10
262.6546501358286
 20
30.19704623437987
 30
0
 40
2.397163376090588
  1
LEW :
 41
0.8
  7
SIMPLEX
 11
0
 21
0
 31
0
100
AcDbText
  0
TEXT
  5
5D8
330
D2
100
AcDbEntity
 67
     1
  8
TXT
 62
     7
100
AcDbText
 10
197.4694471167268
 20
30.55543758473703
 30
0
 40
2.397163376090588
  1
DRAWING TITLE :
 41
0.8
  7
SIMPLEX
 11
0
 21
0
 31
0
100
AcDbText
  0
LINE
  5
5D9
330
D2
100
AcDbEntity
 67
     1
  8
0
 62
     7
100
AcDbLine
 10
333.2260772784927
 20
34.60325166456453
 30
0
 11
333.2260772784927
 21
1.042964399296292
 31
0
  0
TEXT
  5
5DA
330
D2
100
AcDbEntity
 67
     1
  8
TXT
 62
     7
100
AcDbText
 10
335.4905559167295
 20
30.19704623437985
 30
0
 40
2.397163376090588
  1
DRAWED BY:
 41
0.8
  7
SIMPLEX
 11
0
 21
0
 31
0
100
AcDbText
  0
LINE
  5
5DB
330
D2
100
AcDbEntity
 67
     1
  8
TXT
 62
     7
100
AcDbLine
 10
333.2260772784927
 20
17.82310803193041
 30
0
 11
404.2149068220407
 21
17.82310803193041
 31
0
  0
LINE
  5
5DC
330
D2
100
AcDbEntity
 67
     1
  8
0
 62
     7
100
AcDbLine
 10
366.6114041999224
 20
34.60325166456453
 30
0
 11
366.6114041999224
 21
17.82310803193041
 31
0
  0
TEXT
  5
5DD
330
D2
100
AcDbEntity
 67
     1
  8
TXT
 62
     7
100
AcDbText
 10
368.8758828381593
 20
30.19704623437985
 30
0
 40
2.397163376090588
  1
DATE :
 41
0.8
  7
SIMPLEX
 11
0
 21
0
 31
0
100
AcDbText
  0
TEXT
  5
5DE
330
D2
100
AcDbEntity
 67
     1
  8
TXT
 62
     7
100
AcDbText
 10
335.4905559167295
 20
13.41690260174573
 30
0
 40
2.397163376090588
  1
DRAWING NO. :
 41
0.8
  7
SIMPLEX
 11
0
 21
0
 31
0
100
AcDbText
  0
TEXT
  5
5DF
330
D2
100
AcDbEntity
 67
     1
  8
TXT
 62
     7
100
AcDbText
 10
335.0798125750297
 20
4.964537744627393
 30
0
 40
3.401880156487394
  1
I2R-DLD-2244-SLD
  7
ARIAL
 11
0
 21
0
 31
0
100
AcDbText
  0
TEXT
  5
5E0
330
D2
100
AcDbEntity
 67
     1
  8
TXT
 62
     7
100
AcDbText
 10
346.3058646790294
 20
21.74421099840934
 30
0
 40
3.356028726526823
  1
cs
  7
TAHOMA
 11
0
 21
0
 31
0
100
AcDbText
  0
LINE
  5
5E1
330
D2
100
AcDbEntity
 67
     1
  8
0
 62
     7
100
AcDbLine
 10
384.5210908504395
 20
17.82310803193042
 30
0
 11
384.5210908504395
 21
1.042964399296292
 31
0
  0
TEXT
  5
5E2
330
D2
100
AcDbEntity
 67
     1
  8
TXT
 62
     7
100
AcDbText
 10
386.7855694886765
 20
13.41690260174573
 30
0
 40
2.397163376090588
  1
REV :
 41
0.8
  7
SIMPLEX
 11
0
 21
0
 31
0
100
AcDbText
  0
TEXT
  5
5E3
330
D2
100
AcDbEntity
 67
     1
  8
TXT
 62
     7
100
AcDbText
 10
393.4519991635609
 20
4.556679643419362
 30
0
 40
3.83546140174494
  1
0
  7
ARIAL
 11
0
 21
0
 31
0
100
AcDbText
  0
MTEXT
  5
5E4
102
{ACAD_XDICTIONARY
360
5E5
102
}
330
D2
100
AcDbEntity
 67
     1
  8
TXT
 62
     7
100
AcDbMText
 10
199.0941667731024
 20
23.7908269767886
 30
0
210
0
220
0
230
1
 11
1
 21
0
 31
0
 40
3.489410343487062
 41
51.99180062120227
 46
16.39492650468035
 71
     1
 72
     5
  1
\pxqc;SINGLE LINE DIAGRAM\P(SLD)
  7
ARIAL
 73
     1
 44
0.975
  0
LINE
  5
5E6
330
D2
100
AcDbEntity
 67
     1
  8
0
 62
     7
100
AcDbLine
 10
192.6607166902649
 20
34.60325166456454
 30
0
 11
192.6607166902649
 21
1.042964399296303
 31
0
  0
LINE
  5
5E7
330
D2
100
AcDbEntity
 67
     1
  8
0
 62
     7
100
AcDbLine
 10
126.5763918148576
 20
34.60325166456453
 30
0
 11
126.5763918148576
 21
1.042964399296292
 31
0
  0
TEXT
  5
5E8
330
D2
100
AcDbEntity
 67
     1
  8
TXT
 62
     7
100
AcDbText
 10
4.149019132904398
 20
30.55543758473703
 30
0
 40
2.397163376090588
  1
CLIENT / ADDRESS :
 41
0.8
  7
SIMPLEX
 11
0
 21
0
 31
0
100
AcDbText
  0
LINE
  5
5E9
330
D2
100
AcDbEntity
 67
     1
  8
0
 62
     7
100
AcDbLine
 10
0.8054999638441132
 20
34.60325166456454
 30
0
 11
0.8054999638441132
 21
1.042964399296303
 31
0
  0
TEXT
  5
5EA
330
D2
100
AcDbEntity
 67
     1
  8
TXT
 62
     7
100
AcDbText
 10
372.2685782133723
 20
21.74421099840934
 30
0
 40
3.356028726526823
  1
23 FEB 2026
  7
TAHOMA
 11
0
 21
0
 31
0
100
AcDbText
  0
LINE
  5
5EB
330
D2
100
AcDbEntity
 67
     1
  8
0
 62
     7
100
AcDbLine
 10
62.85802254887158
 20
34.60325166456454
 30
0
 11
62.85802254887158
 21
1.042964399296303
 31
0
  0
LINE
  5
5EC
330
D2
100
AcDbEntity
 67
     1
  8
0
 62
     7
100
AcDbLine
 10
404.2149068220407
 20
34.60325166456453
 30
0
 11
404.2149068220407
 21
1.042964399296292
 31
0
  0
MTEXT
  5
5F7
330
D2
100
AcDbEntity
 67
     1
  8
0
 62
     7
100
AcDbMText
 10
3.562668347792786
 20
26.70894835657145
 30
0
210
0
220
0
230
1
 11
1
 21
0
 31
0
 40
3.459290841527044
 41
57.68858605030092
 46
0
 71
     1
 72
     5
  1
13 LEEDON HEIGHT\P#22-44 SINGAPORE\P266224
  7
Standard
 73
     1
 44
1
  0
MTEXT
  5
62A
330
D2
100
AcDbEntity
 67
     1
  8
0
 62
     7
100
AcDbMText
 10
265.2662981286359
 20
23.94271344191759
 30
0
210
0
220
0
230
1
 11
1
 21
0
 31
0
 40
3.459290841527044
 41
67.03138248881621
 46
0
 71
     1
 72
     5
  1
NAME : SEOW SWEE LEONG\PLEW NO : 8/25825
  7
Standard
 73
     1
 44
1
  0
ENDSEC
  0
SECTION
  2
OBJECTS
  0
DICTIONARY
  5
C
330
0
100
AcDbDictionary
281
     1
  3
ACAD_CIP_PREVIOUS_PRODUCT_INFO
350
216
  3
ACAD_COLOR
350
6B
  3
ACAD_DETAILVIEWSTYLE
350
21B
  3
ACAD_GROUP
350
D
  3
ACAD_LAST_SAVED_VERSION_INFO
350
2CA
  3
ACAD_LAYOUT
350
1A
  3
ACAD_MATERIAL
350
6A
  3
ACAD_MLEADERSTYLE
350
12D
  3
ACAD_MLINESTYLE
350
17
  3
ACAD_PLOTSETTINGS
350
19
  3
ACAD_PLOTSTYLENAME
350
E
  3
ACAD_RENDER_ACTIVE_RAPIDRT_SETTINGS
350
2C8
  3
ACAD_RENDER_RAPIDRT_SETTINGS
350
2C1
  3
ACAD_SCALELIST
350
10C
  3
ACAD_SECTIONVIEWSTYLE
350
219
  3
ACAD_TABLESTYLE
350
7E
  3
ACAD_VISUALSTYLE
350
EF
  3
AcDbVariableDictionary
350
5E
  0
DICTIONARY
  5
D
102
{ACAD_REACTORS
330
C
102
}
330
C
100
AcDbDictionary
281
     1
  0
ACDBDICTIONARYWDFLT
  5
E
102
{ACAD_REACTORS
330
C
102
}
330
C
100
AcDbDictionary
281
     1
  3
Normal
350
F
100
AcDbDictionaryWithDefault
340
F
  0
ACDBPLACEHOLDER
  5
F
102
{ACAD_REACTORS
330
E
102
}
330
E
  0
DICTIONARY
  5
17
102
{ACAD_REACTORS
330
C
102
}
330
C
100
AcDbDictionary
281
     1
  3
Standard
350
18
  0
MLINESTYLE
  5
18
102
{ACAD_REACTORS
330
17
102
}
330
17
100
AcDbMlineStyle
  2
STANDARD
 70
     0
  3

 62
     0
 51
90
 52
90
 71
     2
 49
0.5
 62
     0
  6
BYLAYER
 49
-0.5
 62
     0
  6
BYLAYER
  0
DICTIONARY
  5
19
102
{ACAD_REACTORS
330
C
102
}
330
C
100
AcDbDictionary
281
     1
  0
DICTIONARY
  5
1A
102
{ACAD_REACTORS
330
C
102
}
330
C
100
AcDbDictionary
281
     1
  3
Layout1
350
D3
  3
Layout2
350
D7
  3
Model
350
22
  0
LAYOUT
  5
22
102
{ACAD_XDICTIONARY
360
205
102
}
102
{ACAD_REACTORS
330
1A
102
}
330
1A
100
AcDbPlotSettings
  1

  2
none_device
  4
ISO_A4_(210.00_x_297.00_MM)
  6

 40
7.5
 41
20
 42
7.5
 43
20
 44
210
 45
297
 46
11.54999923706055
 47
-13.65000009536743
 48
0
 49
0
140
0
141
0
142
1
143
8.704084754739808
 70
 11952
 72
     1
 73
     0
 74
     0
  7

 75
     0
147
0.1148885871608098
148
0
149
0
 76
     0
 77
     2
 78
   300
333
0
100
AcDbLayout
  1
Model
 70
     1
 71
     0
 10
0
 20
0
 11
12
 21
9
 12
0
 22
0
 32
0
 14
0
 24
0
 34
0
 15
0
 25
0
 35
0
146
0
 13
0
 23
0
 33
0
 16
1
 26
0
 36
0
 17
0
 27
1
 37
0
 76
     0
330
1F
331
EA
1001
ACAD_PSEXT
1000
None
1000
None
1000
Not applicable
1000
The layout will not be plotted unless a new plotter configuration name is selected.
1070
     0
  0
DICTIONARY
  5
5E
102
{ACAD_REACTORS
330
C
102
}
330
C
100
AcDbDictionary
281
     1
  3
CANNOSCALE
350
146
  3
CENTEREXE
350
259
  3
CENTERLTYPEFILE
350
25A
  3
CMLEADERSTYLE
350
145
  3
CTABLESTYLE
350
84
  3
CVIEWDETAILSTYLE
350
227
  3
CVIEWSECTIONSTYLE
350
228
  3
DIMASSOC
350
5F
  3
HIDETEXT
350
63
  3
LAYEREVAL
350
1AE
  3
LAYERNOTIFY
350
1AF
  0
DICTIONARYVAR
  5
5F
102
{ACAD_REACTORS
330
5E
102
}
330
5E
100
DictionaryVariables
280
     0
  1
2
  0
DICTIONARYVAR
  5
63
102
{ACAD_REACTORS
330
5E
102
}
330
5E
100
DictionaryVariables
280
     0
  1
1
  0
DICTIONARY
  5
6A
102
{ACAD_REACTORS
330
C
102
}
330
C
100
AcDbDictionary
281
     1
  3
ByBlock
350
ED
  3
ByLayer
350
EC
  3
Global
350
EE
  0
DICTIONARY
  5
6B
102
{ACAD_REACTORS
330
C
102
}
330
C
100
AcDbDictionary
281
     1
  0
DICTIONARY
  5
7E
102
{ACAD_REACTORS
330
C
102
}
330
C
100
AcDbDictionary
281
     1
  3
Standard
350
7F
  0
DICTIONARYVAR
  5
84
102
{ACAD_REACTORS
330
5E
102
}
330
5E
100
DictionaryVariables
280
     0
  1
STANDARD
  0
LAYOUT
  5
D3
102
{ACAD_REACTORS
330
1A
102
}
330
1A
100
AcDbPlotSettings
  1

  2
none_device
  4
ISO_A3_(420.00_x_297.00_MM)
  6

 40
7.5
 41
20
 42
7.5
 43
20
 44
420
 45
297
 46
0
 47
0
 48
0
 49
0
140
0
141
0
142
1
143
1
 70
   688
 72
     1
 73
     0
 74
     5
  7
monochrome.ctb
 75
    16
147
1
148
0
149
0
 76
     0
 77
     2
 78
   300
333
0
100
AcDbLayout
  1
Layout1
 70
     0
 71
     1
 10
-7.5
 20
-20
 11
412.5
 21
277
 12
0
 22
0
 32
0
 14
0.8054999638441132
 24
1.042964399296292
 34
0
 15
404.2149068220408
 25
284.1268305455585
 35
0
146
0
 13
0
 23
0
 33
0
 16
1
 26
0
 36
0
 17
0
 27
1
 37
0
 76
     0
330
D2
331
590
1001
ACAD_PSEXT
1000
None
1000
None
1000
Not applicable
1000
The layout will not be plotted unless a new plotter configuration name is selected.
1070
     0
  0
LAYOUT
  5
D7
102
{ACAD_REACTORS
330
1A
102
}
330
1A
100
AcDbPlotSettings
  1

  2
C:\Documents and Settings\basas\Application Data\Autodesk\AutoCAD 2005\R16.1\enu\plotters\Default Windows System Printer.pc3
  4

  6

 40
0
 41
0
 42
0
 43
0
 44
0
 45
0
 46
0
 47
0
 48
0
 49
0
140
0
141
0
142
1
143
1
 70
   688
 72
     0
 73
     0
 74
     5
  7

 75
    16
147
1
148
0
149
0
 76
     0
 77
     2
 78
   300
333
0
100
AcDbLayout
  1
Layout2
 70
     1
 71
     2
 10
0
 20
0
 11
12
 21
9
 12
0
 22
0
 32
0
 14
0
 24
0
 34
0
 15
0
 25
0
 35
0
146
0
 13
0
 23
0
 33
0
 16
1
 26
0
 36
0
 17
0
 27
1
 37
0
 76
     0
330
D6
  0
DICTIONARY
  5
EF
102
{ACAD_REACTORS
330
C
102
}
330
C
100
AcDbDictionary
281
     1
  3
2dWireframe
350
F5
  3
Basic
350
F4
  3
Brighten
350
FB
  3
ColorChange
350
FF
  3
Conceptual
350
F8
  3
Dim
350
FA
  3
EdgeColorOff
350
1E6
  3
Facepattern
350
FE
  3
Flat
350
F0
  3
FlatWithEdges
350
F1
  3
Gouraud
350
F2
  3
GouraudWithEdges
350
F3
  3
Hidden
350
F7
  3
JitterOff
350
1E4
  3
Linepattern
350
FD
  3
OverhangOff
350
1E5
  3
Realistic
350
F9
  3
Shaded
350
1F3
  3
Shaded with edges
350
1F2
  3
Shades of Gray
350
1EF
  3
Sketchy
350
1F0
  3
Thicken
350
FC
  3
Wireframe
350
F6
  3
X-Ray
350
1F1
  0
VISUALSTYLE
  5
F0
102
{ACAD_REACTORS
330
EF
102
}
330
EF
100
AcDbVisualStyle
  2
Flat
 70
     0
177
     2
291
     1
 70
    58
 90
        2
176
     1
 90
        1
176
     1
 90
        1
176
     1
 90
        2
176
     1
 40
0.6
176
     1
 40
30
176
     1
 62
     7
420
3271557119
176
     1
 90
        0
176
     1
 90
        0
176
     1
 62
     7
176
     1
 62
   257
176
     1
 90
        1
176
     1
 90
        1
176
     1
 40
1
176
     1
 90
        8
176
     1
 62
     7
176
     1
 40
1
176
     1
 90
        1
176
     1
 90
        6
176
     1
 90
        2
176
     1
 62
     7
176
     1
 90
        5
176
     1
 90
        0
176
     1
 90
        0
176
     1
290
     0
176
     1
 90
       13
176
     1
 40
0
176
     1
 90
        0
176
     1
290
     0
176
     1
290
     1
176
     1
290
     1
176
     1
290
     0
290
     0
176
     1
290
     0
290
     0
176
     1
290
     0
176
     1
290
     0
176
     1
 90
       50
176
     1
 40
0
176
     1
 40
1
176
     1
 90
        0
176
     1
 62
     0
420
3254779904
176
     1
 90
       50
176
     1
 90
        3
176
     1
 62
     5
420
3254780159
176
     1
290
     0
176
     1
 90
       50
176
     1
 90
       50
176
     1
 90
       50
176
     1
290
     0
176
     1
 90
       50
176
     1
 62
     0
176
     0
 40
1
176
     0
 90
        2
176
     1
  1
strokes_ogs.tif
176
     1
290
     0
176
     1
 40
1
176
     1
 40
1
176
     1
  0
VISUALSTYLE
  5
F1
102
{ACAD_REACTORS
330
EF
102
}
330
EF
100
AcDbVisualStyle
  2
FlatWithEdges
 70
     1
177
     2
291
     1
 70
    58
 90
        2
176
     1
 90
        1
176
     1
 90
        1
176
     1
 90
        2
176
     1
 40
0.6
176
     1
 40
30
176
     1
 62
     7
420
3271557119
176
     1
 90
        1
176
     1
 90
        0
176
     1
 62
     7
176
     1
 62
   257
176
     1
 90
        1
176
     1
 90
        1
176
     1
 40
1
176
     1
 90
        0
176
     1
 62
   257
176
     1
 40
1
176
     1
 90
        1
176
     1
 90
        6
176
     1
 90
        2
176
     1
 62
     7
176
     1
 90
        5
176
     1
 90
        0
176
     1
 90
        0
176
     1
290
     0
176
     1
 90
       13
176
     1
 40
0
176
     1
 90
        0
176
     1
290
     0
176
     1
290
     1
176
     1
290
     1
176
     1
290
     0
290
     0
176
     1
290
     0
290
     0
176
     1
290
     0
176
     1
290
     0
176
     1
 90
       50
176
     1
 40
0
176
     1
 40
1
176
     1
 90
        0
176
     1
 62
     0
420
3254779904
176
     1
 90
       50
176
     1
 90
        3
176
     1
 62
     5
420
3254780159
176
     1
290
     0
176
     1
 90
       50
176
     1
 90
       50
176
     1
 90
       50
176
     1
290
     0
176
     1
 90
       50
176
     1
 62
     0
176
     0
 40
1
176
     0
 90
        2
176
     1
  1
strokes_ogs.tif
176
     1
290
     0
176
     1
 40
1
176
     1
 40
1
176
     1
  0
VISUALSTYLE
  5
F2
102
{ACAD_REACTORS
330
EF
102
}
330
EF
100
AcDbVisualStyle
  2
Gouraud
 70
     2
177
     2
291
     1
 70
    58
 90
        2
176
     1
 90
        2
176
     1
 90
        1
176
     1
 90
        2
176
     1
 40
0.6
176
     1
 40
30
176
     1
 62
     7
420
3271557119
176
     1
 90
        0
176
     1
 90
        0
176
     1
 62
     7
176
     1
 62
   257
176
     1
 90
        1
176
     1
 90
        1
176
     1
 40
1
176
     1
 90
        0
176
     1
 62
     7
176
     1
 40
1
176
     1
 90
        1
176
     1
 90
        6
176
     1
 90
        2
176
     1
 62
     7
176
     1
 90
        5
176
     1
 90
        0
176
     1
 90
        0
176
     1
290
     0
176
     1
 90
       13
176
     1
 40
0
176
     1
 90
        0
176
     1
290
     0
176
     1
290
     1
176
     1
290
     1
176
     1
290
     0
290
     0
176
     1
290
     0
290
     0
176
     1
290
     0
176
     1
290
     0
176
     1
 90
       50
176
     1
 40
0
176
     1
 40
1
176
     1
 90
        0
176
     1
 62
     0
420
3254779904
176
     1
 90
       50
176
     1
 90
        3
176
     1
 62
     5
420
3254780159
176
     1
290
     0
176
     1
 90
       50
176
     1
 90
       50
176
     1
 90
       50
176
     1
290
     0
176
     1
 90
       50
176
     1
 62
     0
176
     0
 40
1
176
     0
 90
        2
176
     1
  1
strokes_ogs.tif
176
     1
290
     0
176
     1
 40
1
176
     1
 40
1
176
     1
  0
VISUALSTYLE
  5
F3
102
{ACAD_REACTORS
330
EF
102
}
330
EF
100
AcDbVisualStyle
  2
GouraudWithEdges
 70
     3
177
     2
291
     1
 70
    58
 90
        2
176
     1
 90
        2
176
     1
 90
        1
176
     1
 90
        2
176
     1
 40
0.6
176
     1
 40
30
176
     1
 62
     7
420
3271557119
176
     1
 90
        1
176
     1
 90
        0
176
     1
 62
     7
176
     1
 62
   257
176
     1
 90
        1
176
     1
 90
        1
176
     1
 40
1
176
     1
 90
        0
176
     1
 62
   257
176
     1
 40
1
176
     1
 90
        1
176
     1
 90
        6
176
     1
 90
        2
176
     1
 62
     7
176
     1
 90
        5
176
     1
 90
        0
176
     1
 90
        0
176
     1
290
     0
176
     1
 90
       13
176
     1
 40
0
176
     1
 90
        0
176
     1
290
     0
176
     1
290
     1
176
     1
290
     1
176
     1
290
     0
290
     0
176
     1
290
     0
290
     0
176
     1
290
     0
176
     1
290
     0
176
     1
 90
       50
176
     1
 40
0
176
     1
 40
1
176
     1
 90
        0
176
     1
 62
     0
420
3254779904
176
     1
 90
       50
176
     1
 90
        3
176
     1
 62
     5
420
3254780159
176
     1
290
     0
176
     1
 90
       50
176
     1
 90
       50
176
     1
 90
       50
176
     1
290
     0
176
     1
 90
       50
176
     1
 62
     0
176
     0
 40
1
176
     0
 90
        2
176
     1
  1
strokes_ogs.tif
176
     1
290
     0
176
     1
 40
1
176
     1
 40
1
176
     1
  0
VISUALSTYLE
  5
F4
102
{ACAD_REACTORS
330
EF
102
}
330
EF
100
AcDbVisualStyle
  2
Basic
 70
     7
177
     2
291
     1
 70
    58
 90
        1
176
     1
 90
        0
176
     1
 90
        1
176
     1
 90
        0
176
     1
 40
0.6
176
     1
 40
30
176
     1
 62
     7
420
3271557119
176
     1
 90
        0
176
     1
 90
        4
176
     1
 62
     7
176
     1
 62
   257
176
     1
 90
        1
176
     1
 90
        1
176
     1
 40
1
176
     1
 90
        8
176
     1
 62
     7
176
     1
 40
1
176
     1
 90
        1
176
     1
 90
        6
176
     1
 90
        2
176
     1
 62
     7
176
     1
 90
        5
176
     1
 90
        0
176
     1
 90
        0
176
     1
290
     0
176
     1
 90
        1
176
     1
 40
0
176
     1
 90
        0
176
     1
290
     0
176
     1
290
     1
176
     1
290
     1
176
     1
290
     0
290
     0
176
     1
290
     0
290
     0
176
     1
290
     0
176
     1
290
     0
176
     1
 90
       50
176
     1
 40
0
176
     1
 40
1
176
     1
 90
        0
176
     1
 62
     0
420
3254779904
176
     1
 90
       50
176
     1
 90
        3
176
     1
 62
     5
420
3254780159
176
     1
290
     0
176
     1
 90
       50
176
     1
 90
       50
176
     1
 90
       50
176
     1
290
     0
176
     1
 90
       50
176
     1
 62
     0
176
     0
 40
1
176
     0
 90
        2
176
     1
  1
strokes_ogs.tif
176
     1
290
     0
176
     1
 40
1
176
     1
 40
1
176
     1
  0
VISUALSTYLE
  5
F5
102
{ACAD_REACTORS
330
EF
102
}
330
EF
100
AcDbVisualStyle
  2
2dWireframe
 70
     4
177
     2
291
     0
 70
    58
 90
        0
176
     1
 90
        2
176
     1
 90
        1
176
     1
 90
        0
176
     1
 40
0.6
176
     1
 40
30
176
     1
 62
     7
420
3271557119
176
     1
 90
        1
176
     1
 90
        4
176
     1
 62
     7
176
     1
 62
   257
176
     1
 90
        1
176
     1
 90
        1
176
     1
 40
1
176
     1
 90
        0
176
     1
 62
   257
176
     1
 40
1
176
     1
 90
        1
176
     1
 90
        6
176
     1
 90
        2
176
     1
 62
     7
176
     1
 90
        5
176
     1
 90
        0
176
     1
 90
        0
176
     1
290
     0
176
     1
 90
        1
176
     1
 40
0
176
     1
 90
        0
176
     1
290
     1
176
     1
290
     1
176
     1
290
     0
176
     1
290
     0
290
     0
176
     1
290
     0
290
     0
176
     1
290
     0
176
     1
290
     0
176
     1
 90
       50
176
     1
 40
0
176
     1
 40
1
176
     1
 90
        0
176
     1
 62
     0
420
3254779904
176
     1
 90
       50
176
     1
 90
        3
176
     1
 62
     5
420
3254780159
176
     1
290
     0
176
     1
 90
       50
176
     1
 90
       50
176
     1
 90
       50
176
     1
290
     0
176
     1
 90
       50
176
     1
 62
     0
176
     0
 40
1
176
     0
 90
        2
176
     1
  1
strokes_ogs.tif
176
     1
290
     0
176
     1
 40
1
176
     1
 40
1
176
     1
  0
VISUALSTYLE
  5
F6
102
{ACAD_REACTORS
330
EF
102
}
330
EF
100
AcDbVisualStyle
  2
Wireframe
 70
     5
177
     2
291
     0
 70
    58
 90
        0
176
     1
 90
        2
176
     1
 90
        0
176
     1
 90
        0
176
     1
 40
0.6
176
     1
 40
30
176
     1
 62
     7
420
3271557119
176
     1
 90
        1
176
     1
 90
        4
176
     1
 62
     7
176
     1
 62
   257
176
     1
 90
        1
176
     1
 90
        1
176
     1
 40
1
176
     1
 90
        0
176
     1
 62
   257
176
     1
 40
1
176
     1
 90
        1
176
     1
 90
        6
176
     1
 90
        2
176
     1
 62
     7
176
     1
 90
        3
176
     1
 90
        0
176
     1
 90
        0
176
     1
290
     0
176
     1
 90
        1
176
     1
 40
0
176
     1
 90
        0
176
     1
290
     0
176
     1
290
     1
176
     1
290
     1
176
     1
290
     0
290
     0
176
     1
290
     0
290
     0
176
     1
290
     0
176
     1
290
     0
176
     1
 90
       50
176
     1
 40
0
176
     1
 40
1
176
     1
 90
        0
176
     1
 62
     0
420
3254779904
176
     1
 90
       50
176
     1
 90
        3
176
     1
 62
     5
420
3254780159
176
     1
290
     0
176
     1
 90
       50
176
     1
 90
       50
176
     1
 90
       50
176
     1
290
     0
176
     1
 90
       50
176
     1
 62
     0
176
     0
 40
1
176
     0
 90
        2
176
     1
  1
strokes_ogs.tif
176
     1
290
     0
176
     1
 40
1
176
     1
 40
1
176
     1
  0
VISUALSTYLE
  5
F7
102
{ACAD_REACTORS
330
EF
102
}
330
EF
100
AcDbVisualStyle
  2
Hidden
 70
     6
177
     2
291
     0
 70
    58
 90
        1
176
     1
 90
        2
176
     1
 90
        2
176
     1
 90
        0
176
     1
 40
0.6
176
     1
 40
30
176
     1
 62
     7
420
3271557119
176
     1
 90
        2
176
     1
 90
        2
176
     1
 62
     7
176
     1
 62
   257
176
     1
 90
        2
176
     1
 90
        1
176
     1
 40
40
176
     1
 90
        0
176
     1
 62
   257
176
     1
 40
1
176
     1
 90
        1
176
     1
 90
        6
176
     1
 90
        2
176
     1
 62
     7
176
     1
 90
        3
176
     1
 90
        0
176
     1
 90
        0
176
     1
290
     0
176
     1
 90
        1
176
     1
 40
0
176
     1
 90
        0
176
     1
290
     0
176
     1
290
     1
176
     1
290
     1
176
     1
290
     0
290
     0
176
     1
290
     0
290
     0
176
     1
290
     0
176
     1
290
     0
176
     1
 90
       50
176
     1
 40
0
176
     1
 40
1
176
     1
 90
        0
176
     1
 62
     0
420
3254779904
176
     1
 90
       50
176
     1
 90
        3
176
     1
 62
     5
420
3254780159
176
     1
290
     0
176
     1
 90
       50
176
     1
 90
       50
176
     1
 90
       50
176
     1
290
     0
176
     1
 90
       50
176
     1
 62
     0
176
     0
 40
1
176
     0
 90
        2
176
     1
  1
strokes_ogs.tif
176
     1
290
     0
176
     1
 40
1
176
     1
 40
1
176
     1
  0
VISUALSTYLE
  5
F8
102
{ACAD_REACTORS
330
EF
102
}
330
EF
100
AcDbVisualStyle
  2
Conceptual
 70
     9
177
     2
291
     0
 70
    58
 90
        3
176
     1
 90
        2
176
     1
 90
        1
176
     1
 90
        0
176
     1
 40
0.6
176
     1
 40
30
176
     1
 62
     7
420
3271557119
176
     1
 90
        2
176
     1
 90
        2
176
     1
 62
     7
176
     1
 62
   257
176
     1
 90
        1
176
     1
 90
        1
176
     1
 40
40
176
     1
 90
        8
176
     1
 62
     7
176
     1
 40
1
176
     1
 90
        1
176
     1
 90
        6
176
     1
 90
        2
176
     1
 62
     7
176
     1
 90
        3
176
     1
 90
        0
176
     1
 90
        0
176
     1
290
     0
176
     1
 90
        1
176
     1
 40
0
176
     1
 90
        0
176
     1
290
     0
176
     1
290
     1
176
     1
290
     1
176
     1
290
     0
290
     0
176
     1
290
     0
290
     0
176
     1
290
     0
176
     1
290
     0
176
     1
 90
       50
176
     1
 40
0
176
     1
 40
1
176
     1
 90
        0
176
     1
 62
     0
420
3254779904
176
     1
 90
       50
176
     1
 90
        3
176
     1
 62
     5
420
3254780159
176
     1
290
     0
176
     1
 90
       50
176
     1
 90
       50
176
     1
 90
       50
176
     1
290
     0
176
     1
 90
       50
176
     1
 62
     0
176
     0
 40
1
176
     0
 90
        2
176
     1
  1
strokes_ogs.tif
176
     1
290
     0
176
     1
 40
1
176
     1
 40
1
176
     1
  0
VISUALSTYLE
  5
F9
102
{ACAD_REACTORS
330
EF
102
}
330
EF
100
AcDbVisualStyle
  2
Realistic
 70
     8
177
     2
291
     0
 70
    58
 90
        2
176
     1
 90
        3
176
     1
 90
        0
176
     1
 90
        2
176
     1
 40
0.6
176
     1
 40
30
176
     1
 62
     7
420
3271557119
176
     1
 90
        0
176
     1
 90
        0
176
     1
 62
     7
176
     1
 62
   257
176
     1
 90
        1
176
     1
 90
        1
176
     1
 40
1
176
     1
 90
        8
176
     1
 62
   257
176
     1
 40
1
176
     1
 90
        1
176
     1
 90
        6
176
     1
 90
        2
176
     1
 62
     7
176
     1
 90
        3
176
     1
 90
        0
176
     1
 90
        0
176
     1
290
     0
176
     1
 90
       13
176
     1
 40
0
176
     1
 90
        0
176
     1
290
     0
176
     1
290
     1
176
     1
290
     1
176
     1
290
     0
290
     0
176
     1
290
     0
290
     0
176
     1
290
     0
176
     1
290
     0
176
     1
 90
       50
176
     1
 40
0
176
     1
 40
1
176
     1
 90
        0
176
     1
 62
     0
420
3254779904
176
     1
 90
       50
176
     1
 90
        3
176
     1
 62
     5
420
3254780159
176
     1
290
     0
176
     1
 90
       50
176
     1
 90
       50
176
     1
 90
       50
176
     1
290
     0
176
     1
 90
       50
176
     1
 62
     0
176
     0
 40
1
176
     0
 90
        2
176
     1
  1
strokes_ogs.tif
176
     1
290
     0
176
     1
 40
1
176
     1
 40
1
176
     1
  0
VISUALSTYLE
  5
FA
102
{ACAD_REACTORS
330
EF
102
}
330
EF
100
AcDbVisualStyle
  2
Dim
 70
    11
177
     2
291
     1
 70
    58
 90
        2
176
     1
 90
        2
176
     1
 90
        1
176
     1
 90
        0
176
     1
 40
0.6
176
     1
 40
30
176
     1
 62
     7
420
3271557119
176
     1
 90
        1
176
     1
 90
        4
176
     1
 62
     7
176
     1
 62
   257
176
     1
 90
        1
176
     1
 90
        1
176
     1
 40
1
176
     1
 90
        8
176
     1
 62
     7
176
     1
 40
1
176
     1
 90
        1
176
     1
 90
        6
176
     1
 90
        2
176
     1
 62
     7
176
     1
 90
        5
176
     1
 90
        0
176
     1
 90
        0
176
     1
290
     0
176
     1
 90
        1
176
     1
 40
-50
176
     1
 90
        0
176
     1
290
     0
176
     1
290
     1
176
     1
290
     1
176
     1
290
     0
290
     0
176
     1
290
     0
290
     0
176
     1
290
     0
176
     1
290
     0
176
     1
 90
       50
176
     1
 40
0
176
     1
 40
1
176
     1
 90
        0
176
     1
 62
     0
420
3254779904
176
     1
 90
       50
176
     1
 90
        3
176
     1
 62
     5
420
3254780159
176
     1
290
     0
176
     1
 90
       50
176
     1
 90
       50
176
     1
 90
       50
176
     1
290
     0
176
     1
 90
       50
176
     1
 62
     0
176
     0
 40
1
176
     0
 90
        2
176
     1
  1
strokes_ogs.tif
176
     1
290
     0
176
     1
 40
1
176
     1
 40
1
176
     1
  0
VISUALSTYLE
  5
FB
102
{ACAD_REACTORS
330
EF
102
}
330
EF
100
AcDbVisualStyle
  2
Brighten
 70
    12
177
     2
291
     1
 70
    58
 90
        2
176
     1
 90
        2
176
     1
 90
        1
176
     1
 90
        0
176
     1
 40
0.6
176
     1
 40
30
176
     1
 62
     7
420
3271557119
176
     1
 90
        1
176
     1
 90
        4
176
     1
 62
     7
176
     1
 62
   257
176
     1
 90
        1
176
     1
 90
        1
176
     1
 40
1
176
     1
 90
        8
176
     1
 62
     7
176
     1
 40
1
176
     1
 90
        1
176
     1
 90
        6
176
     1
 90
        2
176
     1
 62
     7
176
     1
 90
        5
176
     1
 90
        0
176
     1
 90
        0
176
     1
290
     0
176
     1
 90
        1
176
     1
 40
50
176
     1
 90
        0
176
     1
290
     0
176
     1
290
     1
176
     1
290
     1
176
     1
290
     0
290
     0
176
     1
290
     0
290
     0
176
     1
290
     0
176
     1
290
     0
176
     1
 90
       50
176
     1
 40
0
176
     1
 40
1
176
     1
 90
        0
176
     1
 62
     0
420
3254779904
176
     1
 90
       50
176
     1
 90
        3
176
     1
 62
     5
420
3254780159
176
     1
290
     0
176
     1
 90
       50
176
     1
 90
       50
176
     1
 90
       50
176
     1
290
     0
176
     1
 90
       50
176
     1
 62
     0
176
     0
 40
1
176
     0
 90
        2
176
     1
  1
strokes_ogs.tif
176
     1
290
     0
176
     1
 40
1
176
     1
 40
1
176
     1
  0
VISUALSTYLE
  5
FC
102
{ACAD_REACTORS
330
EF
102
}
330
EF
100
AcDbVisualStyle
  2
Thicken
 70
    13
177
     2
291
     1
 70
    58
 90
        2
176
     1
 90
        2
176
     1
 90
        1
176
     1
 90
        0
176
     1
 40
0.6
176
     1
 40
30
176
     1
 62
     7
420
3271557119
176
     1
 90
        1
176
     1
 90
        4
176
     1
 62
     7
176
     1
 62
   257
176
     1
 90
        1
176
     1
 90
        1
176
     1
 40
1
176
     1
 90
       12
176
     1
 62
     7
176
     1
 40
1
176
     1
 90
        1
176
     1
 90
        6
176
     1
 90
        2
176
     1
 62
     7
176
     1
 90
        5
176
     1
 90
        0
176
     1
 90
        0
176
     1
290
     0
176
     1
 90
        1
176
     1
 40
0
176
     1
 90
        0
176
     1
290
     0
176
     1
290
     1
176
     1
290
     1
176
     1
290
     0
290
     0
176
     1
290
     0
290
     0
176
     1
290
     0
176
     1
290
     0
176
     1
 90
       50
176
     1
 40
0
176
     1
 40
1
176
     1
 90
        0
176
     1
 62
     0
420
3254779904
176
     1
 90
       50
176
     1
 90
        3
176
     1
 62
     5
420
3254780159
176
     1
290
     0
176
     1
 90
       50
176
     1
 90
       50
176
     1
 90
       50
176
     1
290
     0
176
     1
 90
       50
176
     1
 62
     0
176
     0
 40
1
176
     0
 90
        2
176
     1
  1
strokes_ogs.tif
176
     1
290
     0
176
     1
 40
1
176
     1
 40
1
176
     1
  0
VISUALSTYLE
  5
FD
102
{ACAD_REACTORS
330
EF
102
}
330
EF
100
AcDbVisualStyle
  2
Linepattern
 70
    14
177
     2
291
     1
 70
    58
 90
        2
176
     1
 90
        2
176
     1
 90
        1
176
     1
 90
        0
176
     1
 40
0.6
176
     1
 40
30
176
     1
 62
     7
420
3271557119
176
     1
 90
        1
176
     1
 90
        4
176
     1
 62
     7
176
     1
 62
   257
176
     1
 90
        7
176
     1
 90
        7
176
     1
 40
1
176
     1
 90
        8
176
     1
 62
     7
176
     1
 40
1
176
     1
 90
        1
176
     1
 90
        6
176
     1
 90
        2
176
     1
 62
     7
176
     1
 90
        5
176
     1
 90
        0
176
     1
 90
        0
176
     1
290
     0
176
     1
 90
        1
176
     1
 40
0
176
     1
 90
        0
176
     1
290
     0
176
     1
290
     1
176
     1
290
     1
176
     1
290
     0
290
     0
176
     1
290
     0
290
     0
176
     1
290
     0
176
     1
290
     0
176
     1
 90
       50
176
     1
 40
0
176
     1
 40
1
176
     1
 90
        0
176
     1
 62
     0
420
3254779904
176
     1
 90
       50
176
     1
 90
        3
176
     1
 62
     5
420
3254780159
176
     1
290
     0
176
     1
 90
       50
176
     1
 90
       50
176
     1
 90
       50
176
     1
290
     0
176
     1
 90
       50
176
     1
 62
     0
176
     0
 40
1
176
     0
 90
        2
176
     1
  1
strokes_ogs.tif
176
     1
290
     0
176
     1
 40
1
176
     1
 40
1
176
     1
  0
VISUALSTYLE
  5
FE
102
{ACAD_REACTORS
330
EF
102
}
330
EF
100
AcDbVisualStyle
  2
Facepattern
 70
    15
177
     2
291
     1
 70
    58
 90
        2
176
     1
 90
        2
176
     1
 90
        1
176
     1
 90
        0
176
     1
 40
0.6
176
     1
 40
30
176
     1
 62
     7
420
3271557119
176
     1
 90
        1
176
     1
 90
        4
176
     1
 62
     7
176
     1
 62
   257
176
     1
 90
        1
176
     1
 90
        1
176
     1
 40
1
176
     1
 90
        8
176
     1
 62
     7
176
     1
 40
1
176
     1
 90
        1
176
     1
 90
        6
176
     1
 90
        2
176
     1
 62
     7
176
     1
 90
        5
176
     1
 90
        0
176
     1
 90
        0
176
     1
290
     0
176
     1
 90
        1
176
     1
 40
0
176
     1
 90
        0
176
     1
290
     0
176
     1
290
     1
176
     1
290
     1
176
     1
290
     0
290
     0
176
     1
290
     0
290
     0
176
     1
290
     0
176
     1
290
     0
176
     1
 90
       50
176
     1
 40
0
176
     1
 40
1
176
     1
 90
        0
176
     1
 62
     0
420
3254779904
176
     1
 90
       50
176
     1
 90
        3
176
     1
 62
     5
420
3254780159
176
     1
290
     0
176
     1
 90
       50
176
     1
 90
       50
176
     1
 90
       50
176
     1
290
     0
176
     1
 90
       50
176
     1
 62
     0
176
     0
 40
1
176
     0
 90
        2
176
     1
  1
strokes_ogs.tif
176
     1
290
     0
176
     1
 40
1
176
     1
 40
1
176
     1
  0
VISUALSTYLE
  5
FF
102
{ACAD_REACTORS
330
EF
102
}
330
EF
100
AcDbVisualStyle
  2
ColorChange
 70
    16
177
     2
291
     1
 70
    58
 90
        2
176
     1
 90
        2
176
     1
 90
        3
176
     1
 90
        0
176
     1
 40
0.6
176
     1
 40
30
176
     1
 62
     9
420
3263201408
176
     1
 90
        1
176
     1
 90
        4
176
     1
 62
     7
176
     1
 62
   257
176
     1
 90
        1
176
     1
 90
        1
176
     1
 40
1
176
     1
 90
        8
176
     1
 62
     9
420
3263201408
176
     1
 40
1
176
     1
 90
        1
176
     1
 90
        6
176
     1
 90
        2
176
     1
 62
     7
176
     1
 90
        5
176
     1
 90
        0
176
     1
 90
        0
176
     1
290
     0
176
     1
 90
        1
176
     1
 40
0
176
     1
 90
        0
176
     1
290
     0
176
     1
290
     1
176
     1
290
     1
176
     1
290
     0
290
     0
176
     1
290
     0
290
     0
176
     1
290
     0
176
     1
290
     0
176
     1
 90
       50
176
     1
 40
0
176
     1
 40
1
176
     1
 90
        0
176
     1
 62
     0
420
3254779904
176
     1
 90
       50
176
     1
 90
        3
176
     1
 62
     5
420
3254780159
176
     1
290
     0
176
     1
 90
       50
176
     1
 90
       50
176
     1
 90
       50
176
     1
290
     0
176
     1
 90
       50
176
     1
 62
     0
176
     0
 40
1
176
     0
 90
        2
176
     1
  1
strokes_ogs.tif
176
     1
290
     0
176
     1
 40
1
176
     1
 40
1
176
     1
  0
DICTIONARY
  5
10C
102
{ACAD_REACTORS
330
C
102
}
330
C
100
AcDbDictionary
281
     1
  3
A0
350
10D
  3
A1
350
1BE
  3
A2
350
1BF
  3
A3
350
1C0
  3
A4
350
1C1
  3
A5
350
1C2
  3
A6
350
1C3
  3
A7
350
1C4
  3
A8
350
1C5
  3
A9
350
1C6
  3
B0
350
1C7
  3
B1
350
1C8
  3
B2
350
1C9
  3
B3
350
1CA
  3
B4
350
1CB
  3
B5
350
1CC
  3
B6
350
1CD
  0
SCALE
  5
10D
102
{ACAD_REACTORS
330
10C
102
}
330
10C
100
AcDbScale
 70
     0
300
1:1
140
1
141
1
290
     1
  0
DICTIONARY
  5
12D
102
{ACAD_REACTORS
330
C
102
}
330
C
100
AcDbDictionary
281
     1
  3
Annotative
350
13B
  3
Standard
350
12E
  0
DICTIONARY
  5
13C
330
10
100
AcDbDictionary
280
     1
281
     1
  0
DICTIONARYVAR
  5
145
102
{ACAD_REACTORS
330
5E
102
}
330
5E
100
DictionaryVariables
280
     0
  1
STANDARD
  0
DICTIONARYVAR
  5
146
102
{ACAD_REACTORS
330
5E
102
}
330
5E
100
DictionaryVariables
280
     0
  1
1:1
  0
DICTIONARY
  5
162
330
7F
100
AcDbDictionary
280
     1
281
     1
  0
DICTIONARY
  5
173
330
EE
100
AcDbDictionary
280
     1
281
     1
  3
BUMPTILE
360
175
  3
DIFFUSETILE
360
174
  3
FBXASSET
360
1FB
  3
OPACITYTILE
360
176
  3
REFLECTIONTILE
360
177
  0
XRECORD
  5
174
102
{ACAD_REACTORS
330
173
102
}
330
173
100
AcDbXrecord
280
     1
270
     1
271
     1
  0
XRECORD
  5
175
102
{ACAD_REACTORS
330
173
102
}
330
173
100
AcDbXrecord
280
     1
270
     1
271
     1
  0
XRECORD
  5
176
102
{ACAD_REACTORS
330
173
102
}
330
173
100
AcDbXrecord
280
     1
270
     1
271
     1
  0
XRECORD
  5
177
102
{ACAD_REACTORS
330
173
102
}
330
173
100
AcDbXrecord
280
     1
270
     1
271
     1
  0
DICTIONARYVAR
  5
1AE
102
{ACAD_REACTORS
330
5E
102
}
330
5E
100
DictionaryVariables
280
     0
  1
0
  0
DICTIONARYVAR
  5
1AF
102
{ACAD_REACTORS
330
5E
102
}
330
5E
100
DictionaryVariables
280
     0
  1
0
  0
SCALE
  5
1BE
102
{ACAD_REACTORS
330
10C
102
}
330
10C
100
AcDbScale
 70
     0
300
1:2
140
1
141
2
290
     0
  0
SCALE
  5
1BF
102
{ACAD_REACTORS
330
10C
102
}
330
10C
100
AcDbScale
 70
     0
300
1:4
140
1
141
4
290
     0
  0
SCALE
  5
1C0
102
{ACAD_REACTORS
330
10C
102
}
330
10C
100
AcDbScale
 70
     0
300
1:5
140
1
141
5
290
     0
  0
SCALE
  5
1C1
102
{ACAD_REACTORS
330
10C
102
}
330
10C
100
AcDbScale
 70
     0
300
1:8
140
1
141
8
290
     0
  0
SCALE
  5
1C2
102
{ACAD_REACTORS
330
10C
102
}
330
10C
100
AcDbScale
 70
     0
300
1:10
140
1
141
10
290
     0
  0
SCALE
  5
1C3
102
{ACAD_REACTORS
330
10C
102
}
330
10C
100
AcDbScale
 70
     0
300
1:16
140
1
141
16
290
     0
  0
SCALE
  5
1C4
102
{ACAD_REACTORS
330
10C
102
}
330
10C
100
AcDbScale
 70
     0
300
1:20
140
1
141
20
290
     0
  0
SCALE
  5
1C5
102
{ACAD_REACTORS
330
10C
102
}
330
10C
100
AcDbScale
 70
     0
300
1:30
140
1
141
30
290
     0
  0
SCALE
  5
1C6
102
{ACAD_REACTORS
330
10C
102
}
330
10C
100
AcDbScale
 70
     0
300
1:40
140
1
141
40
290
     0
  0
SCALE
  5
1C7
102
{ACAD_REACTORS
330
10C
102
}
330
10C
100
AcDbScale
 70
     0
300
1:50
140
1
141
50
290
     0
  0
SCALE
  5
1C8
102
{ACAD_REACTORS
330
10C
102
}
330
10C
100
AcDbScale
 70
     0
300
1:100
140
1
141
100
290
     0
  0
SCALE
  5
1C9
102
{ACAD_REACTORS
330
10C
102
}
330
10C
100
AcDbScale
 70
     0
300
2:1
140
2
141
1
290
     0
  0
SCALE
  5
1CA
102
{ACAD_REACTORS
330
10C
102
}
330
10C
100
AcDbScale
 70
     0
300
4:1
140
4
141
1
290
     0
  0
SCALE
  5
1CB
102
{ACAD_REACTORS
330
10C
102
}
330
10C
100
AcDbScale
 70
     0
300
8:1
140
8
141
1
290
     0
  0
SCALE
  5
1CC
102
{ACAD_REACTORS
330
10C
102
}
330
10C
100
AcDbScale
 70
     0
300
10:1
140
10
141
1
290
     0
  0
SCALE
  5
1CD
102
{ACAD_REACTORS
330
10C
102
}
330
10C
100
AcDbScale
 70
     0
300
100:1
140
100
141
1
290
     0
  0
DICTIONARY
  5
1CE
330
1F
100
AcDbDictionary
280
     1
281
     1
  0
VISUALSTYLE
  5
1E4
102
{ACAD_REACTORS
330
EF
102
}
330
EF
100
AcDbVisualStyle
  2
JitterOff
 70
    20
177
     2
291
     1
 70
    58
 90
        2
176
     0
 90
        2
176
     0
 90
        0
176
     0
 90
        0
176
     0
 40
0.6
176
     0
 40
30
176
     0
 62
     7
420
3271557119
176
     0
 90
        1
176
     0
 90
        4
176
     0
 62
     7
176
     0
 62
   257
176
     0
 90
        1
176
     0
 90
        1
176
     0
 40
1
176
     0
 90
       10
176
     2
 62
     7
176
     0
 40
1
176
     0
 90
        1
176
     0
 90
        6
176
     0
 90
        2
176
     0
 62
     7
176
     0
 90
        5
176
     0
 90
        0
176
     0
 90
        0
176
     0
290
     0
176
     0
 90
        1
176
     0
 40
0
176
     0
 90
        0
176
     0
290
     0
176
     1
290
     1
176
     1
290
     1
176
     1
290
     0
290
     0
176
     1
290
     0
290
     0
176
     1
290
     0
176
     1
290
     0
176
     1
 90
       50
176
     1
 40
0
176
     1
 40
1
176
     1
 90
        0
176
     1
 62
     0
420
3254779904
176
     1
 90
       50
176
     1
 90
        3
176
     1
 62
     5
420
3254780159
176
     1
290
     0
176
     1
 90
       50
176
     1
 90
       50
176
     1
 90
       50
176
     1
290
     0
176
     1
 90
       50
176
     1
 62
     0
176
     0
 40
1
176
     0
 90
        2
176
     1
  1
strokes_ogs.tif
176
     1
290
     0
176
     1
 40
1
176
     1
 40
1
176
     1
  0
VISUALSTYLE
  5
1E5
102
{ACAD_REACTORS
330
EF
102
}
330
EF
100
AcDbVisualStyle
  2
OverhangOff
 70
    21
177
     2
291
     1
 70
    58
 90
        2
176
     0
 90
        2
176
     0
 90
        0
176
     0
 90
        0
176
     0
 40
0.6
176
     0
 40
30
176
     0
 62
     7
420
3271557119
176
     0
 90
        1
176
     0
 90
        4
176
     0
 62
     7
176
     0
 62
   257
176
     0
 90
        1
176
     0
 90
        1
176
     0
 40
1
176
     0
 90
        9
176
     2
 62
     7
176
     0
 40
1
176
     0
 90
        1
176
     0
 90
        6
176
     0
 90
        2
176
     0
 62
     7
176
     0
 90
        5
176
     0
 90
        0
176
     0
 90
        0
176
     0
290
     0
176
     0
 90
        1
176
     0
 40
0
176
     0
 90
        0
176
     0
290
     0
176
     1
290
     1
176
     1
290
     1
176
     1
290
     0
290
     0
176
     1
290
     0
290
     0
176
     1
290
     0
176
     1
290
     0
176
     1
 90
       50
176
     1
 40
0
176
     1
 40
1
176
     1
 90
        0
176
     1
 62
     0
420
3254779904
176
     1
 90
       50
176
     1
 90
        3
176
     1
 62
     5
420
3254780159
176
     1
290
     0
176
     1
 90
       50
176
     1
 90
       50
176
     1
 90
       50
176
     1
290
     0
176
     1
 90
       50
176
     1
 62
     0
176
     0
 40
1
176
     0
 90
        2
176
     1
  1
strokes_ogs.tif
176
     1
290
     0
176
     1
 40
1
176
     1
 40
1
176
     1
  0
VISUALSTYLE
  5
1E6
102
{ACAD_REACTORS
330
EF
102
}
330
EF
100
AcDbVisualStyle
  2
EdgeColorOff
 70
    22
177
     2
291
     1
 70
    58
 90
        2
176
     0
 90
        2
176
     0
 90
        0
176
     0
 90
        0
176
     0
 40
0.6
176
     0
 40
30
176
     0
 62
     7
420
3271557119
176
     0
 90
        1
176
     0
 90
        4
176
     0
 62
     7
176
     0
 62
   257
176
     0
 90
        1
176
     0
 90
        1
176
     0
 40
1
176
     0
 90
        8
176
     2
 62
     7
176
     0
 40
1
176
     0
 90
        1
176
     0
 90
        6
176
     0
 90
        2
176
     0
 62
     7
176
     0
 90
        5
176
     0
 90
        0
176
     0
 90
        0
176
     0
290
     0
176
     0
 90
        1
176
     0
 40
0
176
     0
 90
        0
176
     0
290
     0
176
     1
290
     1
176
     1
290
     1
176
     1
290
     0
290
     0
176
     1
290
     0
290
     0
176
     1
290
     0
176
     1
290
     0
176
     1
 90
       50
176
     1
 40
0
176
     1
 40
1
176
     1
 90
        0
176
     1
 62
     0
420
3254779904
176
     1
 90
       50
176
     1
 90
        3
176
     1
 62
     5
420
3254780159
176
     1
290
     0
176
     1
 90
       50
176
     1
 90
       50
176
     1
 90
       50
176
     1
290
     0
176
     1
 90
       50
176
     1
 62
     0
176
     0
 40
1
176
     0
 90
        2
176
     1
  1
strokes_ogs.tif
176
     1
290
     0
176
     1
 40
1
176
     1
 40
1
176
     1
  0
VISUALSTYLE
  5
1EF
102
{ACAD_REACTORS
330
EF
102
}
330
EF
100
AcDbVisualStyle
  2
Shades of Gray
 70
    23
177
     2
291
     0
 70
    58
 90
        2
176
     1
 90
        2
176
     1
 90
        3
176
     1
 90
        0
176
     1
 40
0.6
176
     1
 40
30
176
     1
 62
     7
420
3271557119
176
     1
 90
        2
176
     1
 90
        2
176
     1
 62
     7
176
     1
 62
     7
176
     1
 90
        1
176
     1
 90
        1
176
     1
 40
40
176
     1
 90
        8
176
     1
 62
     7
176
     1
 40
1
176
     1
 90
        1
176
     1
 90
        6
176
     1
 90
        2
176
     1
 62
     7
176
     1
 90
        3
176
     1
 90
        0
176
     1
 90
        0
176
     1
290
     0
176
     1
 90
        1
176
     1
 40
0
176
     1
 90
        0
176
     1
290
     0
176
     1
290
     1
176
     1
290
     1
176
     1
290
     0
290
     0
176
     1
290
     0
290
     0
176
     1
290
     0
176
     1
290
     0
176
     1
 90
       50
176
     1
 40
0
176
     1
 40
1
176
     1
 90
        0
176
     1
 62
     0
420
3254779904
176
     1
 90
       50
176
     1
 90
        3
176
     1
 62
     5
420
3254780159
176
     1
290
     0
176
     1
 90
       50
176
     1
 90
       50
176
     1
 90
       50
176
     1
290
     0
176
     1
 90
       50
176
     1
 62
     0
176
     0
 40
1
176
     0
 90
        2
176
     1
  1
strokes_ogs.tif
176
     1
290
     0
176
     1
 40
1
176
     1
 40
1
176
     1
  0
VISUALSTYLE
  5
1F0
102
{ACAD_REACTORS
330
EF
102
}
330
EF
100
AcDbVisualStyle
  2
Sketchy
 70
    24
177
     2
291
     0
 70
    58
 90
        1
176
     1
 90
        2
176
     1
 90
        2
176
     1
 90
        0
176
     1
 40
0.6
176
     1
 40
30
176
     1
 62
     7
420
3271557119
176
     1
 90
        2
176
     1
 90
        2
176
     1
 62
     7
176
     1
 62
     7
176
     1
 90
        1
176
     1
 90
        1
176
     1
 40
40
176
     1
 90
       11
176
     1
 62
     7
176
     1
 40
1
176
     1
 90
        1
176
     1
 90
        6
176
     1
 90
        2
176
     1
 62
     7
176
     1
 90
        6
176
     1
 90
        0
176
     1
 90
        0
176
     1
290
     0
176
     1
 90
        1
176
     1
 40
0
176
     1
 90
        0
176
     1
290
     0
176
     1
290
     1
176
     1
290
     1
176
     1
290
     0
290
     0
176
     1
290
     0
290
     0
176
     1
290
     0
176
     1
290
     0
176
     1
 90
       50
176
     1
 40
0
176
     1
 40
1
176
     1
 90
        0
176
     1
 62
     0
420
3254779904
176
     1
 90
       50
176
     1
 90
        3
176
     1
 62
     5
420
3254780159
176
     1
290
     0
176
     1
 90
       50
176
     1
 90
       50
176
     1
 90
       50
176
     1
290
     0
176
     1
 90
       50
176
     1
 62
     0
176
     0
 40
1
176
     0
 90
        2
176
     1
  1
strokes_ogs.tif
176
     1
290
     0
176
     1
 40
1
176
     1
 40
1
176
     1
  0
VISUALSTYLE
  5
1F1
102
{ACAD_REACTORS
330
EF
102
}
330
EF
100
AcDbVisualStyle
  2
X-Ray
 70
    25
177
     2
291
     0
 70
    58
 90
        2
176
     1
 90
        2
176
     1
 90
        1
176
     1
 90
        1
176
     1
 40
0.5
176
     1
 40
30
176
     1
 62
     7
420
3271557119
176
     1
 90
        1
176
     1
 90
        0
176
     1
 62
     7
176
     1
 62
   257
176
     1
 90
        1
176
     1
 90
        1
176
     1
 40
1
176
     1
 90
        8
176
     1
 62
     7
176
     1
 40
1
176
     1
 90
        1
176
     1
 90
        6
176
     1
 90
        2
176
     1
 62
     7
176
     1
 90
        3
176
     1
 90
        0
176
     1
 90
        0
176
     1
290
     0
176
     1
 90
       13
176
     1
 40
0
176
     1
 90
        0
176
     1
290
     0
176
     1
290
     1
176
     1
290
     1
176
     1
290
     0
290
     0
176
     1
290
     0
290
     0
176
     1
290
     0
176
     1
290
     0
176
     1
 90
       50
176
     1
 40
0
176
     1
 40
1
176
     1
 90
        0
176
     1
 62
     0
420
3254779904
176
     1
 90
       50
176
     1
 90
        3
176
     1
 62
     5
420
3254780159
176
     1
290
     0
176
     1
 90
       50
176
     1
 90
       50
176
     1
 90
       50
176
     1
290
     0
176
     1
 90
       50
176
     1
 62
     0
176
     0
 40
1
176
     0
 90
        2
176
     1
  1
strokes_ogs.tif
176
     1
290
     0
176
     1
 40
1
176
     1
 40
1
176
     1
  0
VISUALSTYLE
  5
1F2
102
{ACAD_REACTORS
330
EF
102
}
330
EF
100
AcDbVisualStyle
  2
Shaded with edges
 70
    26
177
     2
291
     0
 70
    58
 90
        2
176
     1
 90
        2
176
     1
 90
        1
176
     1
 90
        2
176
     1
 40
0.6
176
     1
 40
30
176
     1
 62
     7
420
3271557119
176
     1
 90
        1
176
     1
 90
        2
176
     1
 62
     7
176
     1
 62
   257
176
     1
 90
        2
176
     1
 90
        1
176
     1
 40
1
176
     1
 90
        8
176
     1
 62
   257
176
     1
 40
1
176
     1
 90
        1
176
     1
 90
        6
176
     1
 90
        2
176
     1
 62
     7
176
     1
 90
        3
176
     1
 90
        0
176
     1
 90
        0
176
     1
290
     0
176
     1
 90
        5
176
     1
 40
0
176
     1
 90
        0
176
     1
290
     0
176
     1
290
     1
176
     1
290
     1
176
     1
290
     0
290
     0
176
     1
290
     0
290
     0
176
     1
290
     0
176
     1
290
     0
176
     1
 90
       50
176
     1
 40
0
176
     1
 40
1
176
     1
 90
        0
176
     1
 62
     0
420
3254779904
176
     1
 90
       50
176
     1
 90
        3
176
     1
 62
     5
420
3254780159
176
     1
290
     0
176
     1
 90
       50
176
     1
 90
       50
176
     1
 90
       50
176
     1
290
     0
176
     1
 90
       50
176
     1
 62
     0
176
     0
 40
1
176
     0
 90
        2
176
     1
  1
strokes_ogs.tif
176
     1
290
     0
176
     1
 40
1
176
     1
 40
1
176
     1
  0
VISUALSTYLE
  5
1F3
102
{ACAD_REACTORS
330
EF
102
}
330
EF
100
AcDbVisualStyle
  2
Shaded
 70
    27
177
     2
291
     0
 70
    58
 90
        2
176
     1
 90
        2
176
     1
 90
        1
176
     1
 90
        2
176
     1
 40
0.6
176
     1
 40
30
176
     1
 62
     7
420
3271557119
176
     1
 90
        0
176
     1
 90
        4
176
     1
 62
     7
176
     1
 62
   257
176
     1
 90
        1
176
     1
 90
        1
176
     1
 40
1
176
     1
 90
        8
176
     1
 62
   257
176
     1
 40
1
176
     1
 90
        1
176
     1
 90
        6
176
     1
 90
        2
176
     1
 62
   256
420
3262675064
176
     1
 90
        3
176
     1
 90
        0
176
     1
 90
        0
176
     1
290
     0
176
     1
 90
        5
176
     1
 40
0
176
     1
 90
        0
176
     1
290
     0
176
     1
290
     1
176
     1
290
     1
176
     1
290
     0
290
     0
176
     1
290
     0
290
     0
176
     1
290
     0
176
     1
290
     0
176
     1
 90
       50
176
     1
 40
0
176
     1
 40
1
176
     1
 90
        0
176
     1
 62
     0
420
3254779904
176
     1
 90
       50
176
     1
 90
        3
176
     1
 62
     5
420
3254780159
176
     1
290
     0
176
     1
 90
       50
176
     1
 90
       50
176
     1
 90
       50
176
     1
290
     0
176
     1
 90
       50
176
     1
 62
     0
176
     0
 40
1
176
     0
 90
        2
176
     1
  1
strokes_ogs.tif
176
     1
290
     0
176
     1
 40
1
176
     1
 40
1
176
     1
  0
DICTIONARY
  5
1F7
330
EC
100
AcDbDictionary
280
     1
281
     1
  3
FBXASSET
360
1F8
  0
XRECORD
  5
1F8
102
{ACAD_REACTORS
330
1F7
102
}
330
1F7
100
AcDbXrecord
280
     1
 70
     1
 90
429727718
  1
30362254-06B7-45E0-A893-8CFA70E3D6BC
310
504B03040A0000080000CC70623B3DEE336E79000000790000001B0000006175746F6465736B2D64657369676E2D7061636B6167652E786D6C3C3F786D6C2076657273696F6E3D22312E302220656E636F64696E673D227574662D3822203F3E3C666F726D6174733E3C666F726D61743E687474703A2F2F736368656D612E
310
6175746F6465736B2E636F6D2F64657369676E2D7061636B6167652F323030393C2F666F726D61743E3C2F666F726D6174733E504B0304140006080800CC70623BD486FD9CA0000000F4000000130000005B436F6E74656E745F54797065735D2E786D6C7D8EC10E82300C865F65E91D8A1E8C310C0EEA1BF002731658846E
310
D98AC1B77784ABF1D8FE5FBFBF75BBCE937A534CCEB38643598122B6FEE978D0B0485F9C41B54DDD7D022595594E1A469170414C76A4D9A4D207E29CF43ECE46F218070CC6BECC4078ACAA135ACF422C856C0E68EA1BF5669944DDD7BCDE7B1F8E415D77AECB980613C2E4AC91FC167A2B244592486606FC29C8FD7F045B9A
310
EF7053A7E60B504B0304140006080800CC70623B1EC5D7A3EB0000007C01000008000000636F72652E786D6C8D90416EC3201045AF82665B6103C6756C6122AB4D4ED00B204C5C94182C03558F5F9C3852BBEB6A467FFE9B197D71FC9E6FE8CBACC17AD7032D0820E3B41FAD9B7A48F1820F808E52ACDEC75F36404ECDA687
310
4D0629A6D5A76597B477D1B89855E747B38B2A041301E95B6E7A08FAD3CCAA50296647B8168BD2573599823EBB0CA76447F43862C7BCCF5EAC59410E4DDD9C7973C2755553CCCFA4C603E3040F1565ED3B1FDE4E432BCA0D9622DAF9795FAF464533826484B498524CD807E51D79ED187F21878E10516EF63F505AC67F42C9
310
BA58B1FDDD071640D2FCC87D2045B96591CB3DA85CB7DCE40F504B0304140006080800CC70623B55019EA25F0000007C00000007000000636E782E786D6C4DCB3B0E80201045D1AD90E915ED2CF8AC45050C11660C8261F98AB1B07AC9C97D42D718D865D3E909258CFD00CCE24AC6E326A164D74DC0B4128928FF32603847
310
2BA13128B1252AC747C6BAB984FC68F0B87FE8960A5C09FE86CFB69FBA01504B0304140006080800CC70623B8C9102E971010000D40300000C0000006662782F636F72652E786D6CC5535B6E833010BC8AE5DF0A6C08340F1947A84D4ED00B38C6A128602363A31CBFCB234A53A551FA553EC09AD9F5CE8C31DB9E9B1AF5CA
310
7695D1198E428A91D2D214952E33ECDD315861B4E5CC1AE3BE9561A445A3323CC098B3D21ADFCE9034DA29ED00D5A6503328BA4E398C640D8B0C77F253352214DE4145770A5B214FA2546114020D759C75CE8200340D19DE981F0F6746269C33EFAB6266AB02A655C74A59CCF365BADC27CB5D902ED22848F6340DF238A141
310
BE88E2F57B92BFEDF23523433367AE6A2EEAA455C2A902F398D2751045018D3FA264435F3771F242571B4A1919CA6F9A7C5B3CD9E42BED16F12C776AEB308F40C848FC700B1139D4891EF410CEC810227CC6846F8386402064270EF5C5C709A05E49676C024C61FC95EA45ED154CA5211D1FF4FB8291A913A68E9B83EBBB33
310
E2A7673CDE118E5AE8124C0807CB8377834E366998436B950D7A7746DAD846D4CFD978E0F04FD455FC5D49D2D4C6FE9722321F10997F0F32DC47FE05504B0304140006080800CC70623BFFEA85907E0000009D0000000B0000006662782F636E782E786D6C4DCCD10A83201886E15B91FFDC95D95A811AB6F23E625948A6C3
310
E9D8E5AF46073BFAE0E1E365ED67B3E8ADC3CB78C7815C7240DA3DFC64DCC221C519D7805AC182F7F1EF06C88D9BE6703008B6049F9E274D7A1E938DBB5AE3D6131B2589BA0D3D965551E0B2EA732C9B9A624AAEB41E3A557677029960D9AFB4EF11165F504B0304140006080800CC70623B4FEEA4082C0100001202000031
310
0000006662782F39464131463745442D413632322D343644302D413938332D3331353338454246344243312F636F72652E786D6C8D515B6EC32010BC0AE2AB55850DD871ED0813254D72825EC00192A2C460F1A872FC42ED48ED5F7E00CDCECCCEB26C731F6FE05B39AFADE921293004CA082BB5B9F43086336A21D870E6AC
310
0D7F68109861543DCC30E4ECE26C9C164858139409093556AA051CBC570102714B8F1E7AF1A5C6A11862480C7F2DA6415C878B2A4891CA89C7990F2E050073937C42DE1DB7E4F87ED8A36D4329AA9B3D46DBAEAD504556557BD81DEBDD0761E52CE42C462D17B996298E3E6BE59E35C962CE821E1FF18553435012728A7187
310
0841987E927A8D9B35ADDF70BBC6989599FE4F1427F9A4286A132ABAC49D651EF234CD5CE04CDA78BA3DC2A8FB645D00B9DF8B57E215725C60BCA2A463E54C4CE327C7A65E1C7DB02E7DEFCBF594B864C5CA6CDBD49C957943E9FA5D5FBAF336F90F504B0304140006080800CC70623BAD7543B64E01000033030000300000
310
006662782F39464131463745442D413632322D343644302D413938332D3331353338454246344243312F636E782E786D6CD593CD6EC32010845F0571AD6CE3D48AD20813A9873E410FBD12D82434182C7EAAE6EDBB2424CD25871E7B41D6EC30B3FA84F9E67BB2E40B4234DE8DB46F1925E094D7C6ED479AD3AE5951B2113C
310
789FEE6C943839C1488B4C05DF079FE72A69D8C96C13AAD6B8631503449F83828872B949AC57D26200B826A308D316B4064D6E46FCDA41C05550DC9E483A00797BFD207EFB092A45DE9514C1BBD22178396BD39D891265658C238DEA00936C654E5E433CB65A26D9F6EDB5EBC14EBF49A45CB856E66048291F6939A9A81BB5
310
C8917738143CA680F4AA299D66A042CEB3354A2684DC9D8D178FE0D9B8B41CAAD720F880EE7EF93C0C18769E099ECC04D5A102C8049A8A05632F4DDF376CF1DE0F6BB65C2F8627B65A33C6BB62177CEBBDAD973006829F89F22E814B54F4BC2BE347F8AA8F681390B50FA73F804400B5F542E796F19FF974E7F78DB802FE05
310
E207504B0304140006080800CC70623B16AB87BA640500003C100000340000006662782F39464131463745442D413632322D343644302D413938332D3331353338454246344243312F6F626A656374732E786D6CAD575B6FA33818FD2B887DE6924B3BED8A326A92B68A663B534DD4D13E548A0C38942D60649B369D5FBFC7
310
600890A493BDE42160637FD7F31D7FF63E6FB3D478A55C242CBF3247B66B1A340F5994E4F19559CA8D75611A9F7D8F33263BCB4C232719BD32D5B4E97B316765A1A722BA21652A07B3B7B33F0D11D29C9A46981221AE4C113ED38CD8A4942CA2E2C58E882476BCD9DA23BB5ED8171B73523C0F841684D35CC252CCE79062D4
310
468DFA43D7747CCF51DF7D4FFDEB5593E3AB9CCA9FBEFE241792E4E19EB28198C968BAB8199F5D5A67D3E9C49A9E8F47D6EC76B6B0469F26EEFC7C3EBFBCBEB98462213924694B38DD98FE1D62C393D073EA4FADC5DAF04326852CCF6958F90F0F2B9BB5C48816348F90C7840A68EB78EDF68723159BCEE7891A6B95DDE9D3
310
BCEAEEE8086A6C6F9E5D4B59F0175C10A7A0820BAA5055C7473B5AE3CFDD452D602CD5DF12616444529E90D448938013FE6EFA58AA96F85E4F8C42275708571E98FE6827AF6B2B4AE3D7D83D64E5A64C53054DD3AF90BD06FEA9149565C94FCA0F6B834DC85599E4F2423B24DF0B6AFA979E534DFA9E7A4CC6FA631D486393
310
921829879BF5D781A373557BCB85E97FB90DB62B558F8795179C15944B051F40AB495CF35451D26A4727654E6D8033BD98EF82F21D91FF8AF2DD9982BCF1643BDD4EB516C9492E368C67C88DED563FC36D5EACF66DFF057C3658BDBFA69DF9578B3DA735B64F18C7F20770A9D45CFCF7FCF563D6456A277DBEF78A02637CA2
310
43B90A490AEAB94F72244481D24819A6C0E59B606BFA4B3025981DBB48EAB701D97BF19C577CC77F2D1B6C55A9EF3C732474C0B727303F625995056C3B02963D9EAC146BE78EC5FCEC7FA999EBC5EACBAAE41B12D27B4D2C0BBA49F244E2ECDC81B76B502F113D8F5EE8FB1BE3111CDD4FC2AA9B844CAB1288B68AB90A7CDC
310
1C166AB0D3DC5310625FCC14E779BFD0709F8890A629C9292B1B2DED31A4B0DA928CEE135085754027E3018A397D4D5427D15BD1330B677DC8934285AC3DF45A9EB68FF8F2B8FC0A509AFEECFD0FF2DE25CC6047F7214B195F07EFEB9A094D800F7BFAE8FED187B78EA8A3A400F115961BCAD1215E47C966530AF0EE8128FE
310
58CEBB996A8964FFA529A046635D9353B0336A8F700DDF46271A024E70B0B37C9DE01847591E54DED53D54202AB947E4076556AC49C6CA5C9E1226B7F1A7B1BE15DEED62C41B91E1B3E9AFAAA735036547343A925075041DF0A9979E893B391F8FCFA6967B3EFB644DCF6E5CEBFAE272625DCC6FAF3FB93793C5F90CE1EF57
310
407342756B10D1C489E8953CD1617E5CEECAD6F4EF8914CE5D5D504E5C3F1F9736DA62CFC11E00BCDDB8CC8A9466349744C1F75EBDA4DF09BA8A9E8C7A7E9991989E20E5DBDD6A6003664ED8F7A04A8DBE0DF6EAD9B9AA858342E47399053949D2C146EDB85DE4B176BB0965FBAC19BD19AA918E27FA50C1D22402E144464C
310
59462568E704B6E71915404CB72B8FF4EDE184DDAF753F284990D2C6926782963815403548A70C657FDEF80D2D9CEAA2AE4C1C76F60BFE74219A06527D6582DF6412526107381E55E353090704D085B52408D0933C4ED159D79BDA71BB4BC506F4831350EB6F979CD22D69BF7AC49B91A2C0A9DDA3D5CA36AD20FC478E37E6
310
1844E2352865EBCB6EA275A652E3836BE04EFB400BF1A2556F515F1FBB35B2AB35BD889C744FFA1004B5544B121E57F70215746DD2F5E2C1412B602CBF19455AC6C8E5E9922C4E01E65215385004546899059180EAFCF7A707CE7017CD8CDB0410789AB32C63B91E5CEBBBACB17AC6CD347A022D5075FD106377347AAABA7E
310
7D11590744509B44E205134DC1290F06580320F78E537D3D73540E06CB970B431F185308AD40BBD794D6D77003C5A36E8EAA54BA64597CD8F83BD552A080A365F7FF06504B0304140006080000CC70623B000000000000000000000000350000006662782F39464131463745442D413632322D343644302D413938332D3331
310
353338454246344243312F76657274696365732E62696E504B0304140006080800CC70623BF270F1330600000004000000360000006662782F39464131463745442D413632322D343644302D413938332D3331353338454246344243312F747269616E676C65732E62696E636660600000504B0304140006080000CC70623B
310
000000000000000000000000370000006662782F39464131463745442D413632322D343644302D413938332D3331353338454246344243312F617474726962757465732E62696E504B0304140006080800CC70623B08DA0BD19000000041010000360000006662782F39464131463745442D413632322D343644302D413938
310
332D3331353338454246344243312F6469726563746F72792E786D6C858F410AC3201045AF22B36F53E9A60B35CBEEBAE80D244E44489C6234F4F835464A48035D0DF398FF9F8AF63D0E6CC63039F212F8F9020C7D47C6792B21C5FE7403D62A1188E2E60C98D7234A5830286103A55745067B9D86B8A3CF9C7F90C11DE607
310
FB144396D7B6A82D282E9A152AD114D5EF2CB866EEE831B8EEA07A7BB5A8D7D61A2BAAEB7FD5F70921FF497D00504B0304140006080800CC70623B0D6EF93BFE000000A00100003B0000006662782F39464131463745442D413632322D343644302D413938332D3331353338454246344243312F7265736F75726365732F63
310
6F72652E786D6C8D50596E833010BD0A9ADFCA60B334011947A8694ED00B586642AC041B79A97AFC9A40A5F6AF3F33A3B7689E1E3F7DCD8FEC139DD7D6F4C0720A191A65476DA61E62B892236427C19DB5E1970C322367EC618541F0C9D9B8EC90B226A009093576C41D94DE63804C3DD2D18357379C652E63480A7FCF17A9
310
EE72C29CE5894E3AC17D702940B63D59270887DE46A7D0F36263058F518FBB468FE9A7BE6A7420864373B8D4873369AA8691FA421B3294352543C5CAF65C0F6FEF43CB8BD52C78D0F34F46E550061C419494B6843142CB0F5677F4B52BEB177AEC28E5C52AFF638ACBF84F53D42654E51E77B379102C05791282176B5F693D
310
CB4C7BED567C03504B010214000A0000080000CC70623B3DEE336E79000000790000001B00000000000000000000000000000000006175746F6465736B2D64657369676E2D7061636B6167652E786D6C504B01021400140006080800CC70623BD486FD9CA0000000F40000001300000000000000000000000000B20000005B
310
436F6E74656E745F54797065735D2E786D6C504B01021400140006080800CC70623B1EC5D7A3EB0000007C010000080000000000000000000000000083010000636F72652E786D6C504B01021400140006080800CC70623B55019EA25F0000007C000000070000000000000000000000000094020000636E782E786D6C504B
310
01021400140006080800CC70623B8C9102E971010000D40300000C00000000000000000000000000180300006662782F636F72652E786D6C504B01021400140006080800CC70623BFFEA85907E0000009D0000000B00000000000000000000000000B30400006662782F636E782E786D6C504B01021400140006080800CC70
310
623B4FEEA4082C0100001202000031000000000000000000000000005A0500006662782F39464131463745442D413632322D343644302D413938332D3331353338454246344243312F636F72652E786D6C504B01021400140006080800CC70623BAD7543B64E010000330300003000000000000000000000000000D5060000
310
6662782F39464131463745442D413632322D343644302D413938332D3331353338454246344243312F636E782E786D6C504B01021400140006080800CC70623B16AB87BA640500003C1000003400000000000000000000000000710800006662782F39464131463745442D413632322D343644302D413938332D3331353338
310
454246344243312F6F626A656374732E786D6C504B01021400140006080000CC70623B0000000000000000000000003500000000000000000000000000270E00006662782F39464131463745442D413632322D343644302D413938332D3331353338454246344243312F76657274696365732E62696E504B01021400140006
310
080800CC70623BF270F133060000000400000036000000000000000000000000007A0E00006662782F39464131463745442D413632322D343644302D413938332D3331353338454246344243312F747269616E676C65732E62696E504B01021400140006080000CC70623B0000000000000000000000003700000000000000
310
000000000000D40E00006662782F39464131463745442D413632322D343644302D413938332D3331353338454246344243312F617474726962757465732E62696E504B01021400140006080800CC70623B08DA0BD190000000410100003600000000000000000000000000290F00006662782F39464131463745442D413632
310
322D343644302D413938332D3331353338454246344243312F6469726563746F72792E786D6C504B01021400140006080800CC70623B0D6EF93BFE000000A00100003B000000000000000000000000000D1000006662782F39464131463745442D413632322D343644302D413938332D3331353338454246344243312F7265
310
736F75726365732F636F72652E786D6C504B0506000000000E000E0080040000641100000000
  0
DICTIONARY
  5
1F9
330
ED
100
AcDbDictionary
280
     1
281
     1
  3
FBXASSET
360
1FA
  0
XRECORD
  5
1FA
102
{ACAD_REACTORS
330
1F9
102
}
330
1F9
100
AcDbXrecord
280
     1
 70
     1
 90
429727718
  1
D62C5603-E3A1-4AEA-B7FB-FE5D8D0755AF
310
504B03040A0000080000CC70623B3DEE336E79000000790000001B0000006175746F6465736B2D64657369676E2D7061636B6167652E786D6C3C3F786D6C2076657273696F6E3D22312E302220656E636F64696E673D227574662D3822203F3E3C666F726D6174733E3C666F726D61743E687474703A2F2F736368656D612E
310
6175746F6465736B2E636F6D2F64657369676E2D7061636B6167652F323030393C2F666F726D61743E3C2F666F726D6174733E504B0304140006080800CC70623BD486FD9CA0000000F4000000130000005B436F6E74656E745F54797065735D2E786D6C7D8EC10E82300C865F65E91D8A1E8C310C0EEA1BF002731658846E
310
D98AC1B77784ABF1D8FE5FBFBF75BBCE937A534CCEB38643598122B6FEE978D0B0485F9C41B54DDD7D022595594E1A469170414C76A4D9A4D207E29CF43ECE46F218070CC6BECC4078ACAA135ACF422C856C0E68EA1BF5669944DDD7BCDE7B1F8E415D77AECB980613C2E4AC91FC167A2B244592486606FC29C8FD7F045B9A
310
EF7053A7E60B504B0304140006080800CC70623B853B8169EB0000007C01000008000000636F72652E786D6C8D90416EC3201045AF62CDB6C206821CC7C244919D9CA01740401C94182C03558F5F9C3852BBEB6A467FFE9B197D7EFC9E1EC5975982F5AE035262288C535E5B377690E21535501C055FBC8FBF6C503839990E
310
5619041F179FE64D52DE45E362569DD7661365082642A11EB9E920A89B99642953CC8E702F67A9EE7234257977194EC9EAE275C4EABCCF5EAD5940D4AC6F0E35A568B8F43562CD7046CD199FD07E60174276A7BE677B5EADB0E0D14EEFFB6A31321A0D82627C4084204C3F096B71DD52F6819B16635EADF63F509AF53FA164
310
5DDCD1EDDD17164090FCC8732078B56691CB33A85CD7DCC40F504B0304140006080800CC70623B55019EA25F0000007C00000007000000636E782E786D6C4DCB3B0E80201045D1AD90E915ED2CF8AC45050C11660C8261F98AB1B07AC9C97D42D718D865D3E909258CFD00CCE24AC6E326A164D74DC0B4128928FF32603847
310
2BA13128B1252AC747C6BAB984FC68F0B87FE8960A5C09FE86CFB69FBA01504B0304140006080800CC70623BDBABAAF470010000D40300000C0000006662782F636F72652E786D6CC553D16E823014FD95A6AF4B694182CC941A83FA05FB810A9511A125A5257EFE2E82712ECEB8A7F100CD39F7F69E734AF9FADC366850B6
310
AF8DCE7018308C942E4C59EB2AC3DE1D498AD15A706B8CFB56869196ADCAF00863C12B6B7C374385D14E6907A836A59A41D9F7CA615434B0C8705F7CAA5606D23BA8E84F41278B93AC54100640439DE0BDB320004D43C63716C7C399D30917DCFBBA9CD9BA8469F5B156168B24CED3F7248AC8769F27244EB73B92EED8862C
310
B7F13E0C179B3C8F979C8ECD82BBBABDAA2BAC924E9558448CBD9330242CFA08E3154B5651FCC6D215639C8EE5774DBE2B5F6CF2B5768B68963BB5F5588420E442FC700B1139D4CB01F450C1E918227C2E09DF070D8140C84E1E9AAB8F1340832A9CB13130A5F1376A908D57309505ECF2A0DF179C4E9D30F5B239B87E3823
310
7A79C6F31DE1A8A5AEC08474B03C7837EAE4938639B44E5932B833D2C6B6B279CDC613877FA26EE21F4A2A4C63EC7F29A2F301D1F9F7A0E37D145F504B0304140006080800CC70623B9C113CC27E0000009D0000000B0000006662782F636E782E786D6C4DCCDF0A83201C86E15B91DFB94BFB330DD428C8FB886521330DA7
310
6397BF1A1DECE883878F57749FCDA1B7892F1BBC047A23808C7F84D9FA55424E0BE6803A256208E9EF06C84F9B91703228B1C690F78B66B34CD9A5439DF5CF0BFBF65E35BCA1B8D6A5C6F540381E886698B5741C695F9503EBA150A2F8958E3DC3EA0B504B0304140006080800CC70623B7DF2F77C2A010000120200003100
310
00006662782F41393633353835312D344632462D344230382D423046372D3739314545314133324237412F636F72652E786D6C8D51DB8EC22014FC15C2939B0D2DB4B45643319AE817EC0F6041255A68B86CFCFC856D4D76DF7CE190393373060EDB3DC707F856CE6B6B7A480A0C81328395DA5C7B18C3057510EC3873D686
310
3F34088C18550F330C39BB3A1BA7051AAC09CA84841A2BD5020AEF55806078A44B0FFD7053A328440C89E1EFC52486BBB8AA8214A99D789CF9E05200300FC927E4FB4D5B375D43103D5527440FB843077C5AA3F5861C8F645F5787F59E95B390B318B55CE45AA638FAA2957BD7248B390B7A7CC51F9C124149C82B8C378810
310
84AB2F42B7B8DD56F413775B8C5999E9FF4471926F8AA236A1AE96B8B3CC434E5839373893369E1FAF30EA395917409EB7F26AF8801C171837A4A6AC9C89E9F9C9B1A58BA30FD6A5EF5DDDCF894B9AD9B6A59C957943A9FCAE2FD5BC4DFE03504B0304140006080800CC70623BAD7543B64E01000033030000300000006662
310
782F41393633353835312D344632462D344230382D423046372D3739314545314133324237412F636E782E786D6CD593CD6EC32010845F0571AD6CE3D48AD20813A9873E410FBD12D82434182C7EAAE6EDBB2424CD25871E7B41D6EC30B3FA84F9E67BB2E40B4234DE8DB46F1925E094D7C6ED479AD3AE5951B2113C789FEE
310
6C943839C1488B4C05DF079FE72A69D8C96C13AAD6B8631503449F83828872B949AC57D26200B826A308D316B4064D6E46FCDA41C05550DC9E483A00797BFD207EFB092A45DE9514C1BBD22178396BD39D891265658C238DEA00936C654E5E433CB65A26D9F6EDB5EBC14EBF49A45CB856E66048291F6939A9A81BB5C89177
310
38143CA680F4AA299D66A042CEB3354A2684DC9D8D178FE0D9B8B41CAAD720F880EE7EF93C0C18769E099ECC04D5A102C8049A8A05632F4DDF376CF1DE0F6BB65C2F8627B65A33C6BB62177CEBBDAD973006829F89F22E814B54F4BC2BE347F8AA8F681390B50FA73F804400B5F542E796F19FF974E7F78DB802FE05E20750
310
4B0304140006080800CC70623BE75B7789680500003C100000340000006662782F41393633353835312D344632462D344230382D423046372D3739314545314133324237412F6F626A656374732E786D6CAD575B8F9B3818FD2B887D06C22499CB8AA1CA655245D5B455A356FB305264C061D8018C6C3393D95FBFC7600890
310
A4CD5EF210B0B1BFEBF98E3F7B1FF6596ABC522E1296DF9BAE3D320D9A872C4AF2F8DE2CE5CEBA358D0FBEC719939D65A691938CDE9B6ADAF4BD98B3B2D05311DD91329583D9D5FC0F438434A7A611A644887B5384CF34233629258BA878B12322891DEFF6B66BD70BFB62634E8AE781D082709A4B588AF91C528CDA28B73F
310
1C998EEF39EABBEFA97FBD6A7C7E9553F9D3D79FE442923C3C523610337627CB87ABE99D359D4CC6D6E4FACAB5E6ABF9D2726FC6A3C5F56271377BB88362213924694B38DD99FE47C48627A1E7D49F5A8BB5E1A74C0A599ED3B0F21F1E56366B89112D681E218F0915D0D6F17AD41FBA2A369DCF6335D62ABBD39779D5DDD1
310
11D4D8DE3CBB96B2E04FB8202E41051754A1AA8E8F76B4C6DFE810B580B1547F4B84911149794252234D024EF8BBE963A95AE27B3D310A9D5C215C7960FAEE415ED75694C6AFB17BCACA5D99A60A9AA65F217B0BFC53292ACB92BF283FAD0D3621576592CB5BED907C2FA8E9DF794E35E97BEA31BED21FEB401ABB94C44839
310
DCACBF0E1C5DA8DA5B2F4DFFD32AD86F543D9E565E7056502E157C00AD2671CD534549AB752FCA9CDA00677A313F04E51B22FF19E57B300579E3C97EB29F682D92935CEC18CF901B7B54FD8C51F362B56FC72FE0B3C1EAE335EDCCBF5AEC39ADB17DC238973F804BA5E6F6BFE7AF1FB32E523BE9F3BD571418E3631DCA4D48
310
5250CF639223210A9446CA30052EDF057BD35F8329C1ECD84552BF0DC8D18BE7BCE23BFE6BD960AB4A7DE79923A103BEBD80F911CBAA2C60DB19B01CF164A5583B772EE6D3FFA56666CBCDA74DC97724A48F9A58967497E489C4D979006FD7A05E227A1EBDD0F737C623387A9C844D3709995625106D157315F8B8392CD4E0
310
A0B9A720C4BE9829CEF37EA1E13111214D53925356365ADA634861B52519DD27A00AEB808EAF0628E6F435519D446F45CF2C9CF5214F0A15B2F6D06B79DA3EE3CBF7F56780D2F4E7EF73A0F5E5B02A38D07DC852C6B7C1FBB6664213E0C39E3EBA7FF4E1AD23EA2829407C85E586727488B751B2DB9502BC7B228A3FD68B6E
310
A65A22397E690AA8D158D7E404EC8CDA235CC3B7D1898680131CEC2CDF2638C65196279577750F15884AEE19F94199155B92B13297978469D4F8D358DF0AEF7631E28DC8F0D9F437D5D39A83B2231A1D52D543813A824EF8D44BCFF2FA6A31BD1E8DAD87F1CCB526B3879935BF59CDADD5C37479BB1CDD4CA7B3556B516589
310
EF352754B706114D9C885EC9131DE6EFEB43D99AFE2391C2F958179413D7CFEF6B1B6DB1E7600F00DE6E5C67454A339A4BA2E0FBA85ED26F045D454F463DBFCE484C2F90F2E5E3666003662ED8F755951A7D1BECD5B30B550B2785C8E7320B7292A4838DDA71BBC863ED7613CAF659337A3354231D4FF4A182A54904C2898C
310
98B28C4AD0CE056CCF332A80986E571EE9DBC305BB5FEB7E509220A58D25CF042D712A806AC0AD0C657FDEF80D2D9CEAA2EE4D1C76F60BFE74219A06527D6F82DF6412526107381E55E353090704D085B52408A8913C4ED159D79BDA71BB4BC506F4831350EB6F975CD22D69BF7AC49B91A2C0A9DDA3D5CA36AD20FC478E37
310
E61844E2352865EBCB61A275A65283CAAA9DD27703B4102F5AF51EF5F573B75CBB5AD38BC845F7A49F82A0966A49C2E3EA5EA0ECD326CD965F1DB402C6FA8B51A4658C5C5E2EC9E214602E55810345408596591009A82E7E7FFACA19EEA299B14A0081A705CB3296EBC14CDF658DCD336EA6D1136881AAEB87B81AB9EE53D5
310
F5EB8BC8362082DA24122F98680A4E7930C01A0079749CEA14382A0783E5EBA5A10F8C098456A03D6A4AEB6BB881E2513747552A5DB22C7EDAF83BD5528081A365F7FF06504B0304140006080000CC70623B000000000000000000000000350000006662782F41393633353835312D344632462D344230382D423046372D37
310
39314545314133324237412F76657274696365732E62696E504B0304140006080800CC70623BF270F1330600000004000000360000006662782F41393633353835312D344632462D344230382D423046372D3739314545314133324237412F747269616E676C65732E62696E636660600000504B0304140006080000CC7062
310
3B000000000000000000000000370000006662782F41393633353835312D344632462D344230382D423046372D3739314545314133324237412F617474726962757465732E62696E504B0304140006080800CC70623B08DA0BD19000000041010000360000006662782F41393633353835312D344632462D344230382D4230
310
46372D3739314545314133324237412F6469726563746F72792E786D6C858F410AC3201045AF22B36F53E9A60B35CBEEBAE80D244E44489C6234F4F835464A48035D0DF398FF9F8AF63D0E6CC63039F212F8F9020C7D47C6792B21C5FE7403D62A1188E2E60C98D7234A5830286103A55745067B9D86B8A3CF9C7F90C11DE6
310
07FB144396D7B6A82D282E9A152AD114D5EF2CB866EEE831B8EEA07A7BB5A8D7D61A2BAAEB7FD5F70921FF497D00504B0304140006080800CC70623BEDD1DC58FD000000A00100003B0000006662782F41393633353835312D344632462D344230382D423046372D3739314545314133324237412F7265736F75726365732F
310
636F72652E786D6C8D504B6E833010BD0A9A6D65B00922041947112427E8052C33A156828DFCA97AFC9A40A576D7CDCCE87D344F8F9FBFE667F689CE6B6B3A6039850C8DB2A336530731DC4903D95970676DF82583CCC8193B5861107C72362E3BA4AC096842428D1D7107A5F7182053CF7474E0D507CE32973124857FE48B
310
540F3961CEF244279DE03EB81420DB9EAC1384436FA353E879B1B182C7A8C75DA3C7F453DF353A1075D537A7BA6464B8F535A99AE14A9A2BBD90E350DD183B5CFABE3AF262350B1EF4FC9351399401471025A527C218A1E53BAB5A5AB765F5469B96525EACF23FA6B88CFF34456DC2A1DCE36E360F82A5202F42F062ED2BAD
310
579969AFDD8A6F504B010214000A0000080000CC70623B3DEE336E79000000790000001B00000000000000000000000000000000006175746F6465736B2D64657369676E2D7061636B6167652E786D6C504B01021400140006080800CC70623BD486FD9CA0000000F40000001300000000000000000000000000B20000005B
310
436F6E74656E745F54797065735D2E786D6C504B01021400140006080800CC70623B853B8169EB0000007C010000080000000000000000000000000083010000636F72652E786D6C504B01021400140006080800CC70623B55019EA25F0000007C000000070000000000000000000000000094020000636E782E786D6C504B
310
01021400140006080800CC70623BDBABAAF470010000D40300000C00000000000000000000000000180300006662782F636F72652E786D6C504B01021400140006080800CC70623B9C113CC27E0000009D0000000B00000000000000000000000000B20400006662782F636E782E786D6C504B01021400140006080800CC70
310
623B7DF2F77C2A010000120200003100000000000000000000000000590500006662782F41393633353835312D344632462D344230382D423046372D3739314545314133324237412F636F72652E786D6C504B01021400140006080800CC70623BAD7543B64E010000330300003000000000000000000000000000D2060000
310
6662782F41393633353835312D344632462D344230382D423046372D3739314545314133324237412F636E782E786D6C504B01021400140006080800CC70623BE75B7789680500003C10000034000000000000000000000000006E0800006662782F41393633353835312D344632462D344230382D423046372D3739314545
310
314133324237412F6F626A656374732E786D6C504B01021400140006080000CC70623B0000000000000000000000003500000000000000000000000000280E00006662782F41393633353835312D344632462D344230382D423046372D3739314545314133324237412F76657274696365732E62696E504B01021400140006
310
080800CC70623BF270F133060000000400000036000000000000000000000000007B0E00006662782F41393633353835312D344632462D344230382D423046372D3739314545314133324237412F747269616E676C65732E62696E504B01021400140006080000CC70623B0000000000000000000000003700000000000000
310
000000000000D50E00006662782F41393633353835312D344632462D344230382D423046372D3739314545314133324237412F617474726962757465732E62696E504B01021400140006080800CC70623B08DA0BD1900000004101000036000000000000000000000000002A0F00006662782F41393633353835312D344632
310
462D344230382D423046372D3739314545314133324237412F6469726563746F72792E786D6C504B01021400140006080800CC70623BEDD1DC58FD000000A00100003B000000000000000000000000000E1000006662782F41393633353835312D344632462D344230382D423046372D3739314545314133324237412F7265
310
736F75726365732F636F72652E786D6C504B0506000000000E000E0080040000641100000000
  0
XRECORD
  5
1FB
102
{ACAD_REACTORS
330
173
102
}
330
173
100
AcDbXrecord
280
     1
 70
     0
 90
1673772943
  1
ECE7A1D2-D628-4531-984C-D00F80459256
310
504B03040A0000080000CC70623B3DEE336E79000000790000001B0000006175746F6465736B2D64657369676E2D7061636B6167652E786D6C3C3F786D6C2076657273696F6E3D22312E302220656E636F64696E673D227574662D3822203F3E3C666F726D6174733E3C666F726D61743E687474703A2F2F736368656D612E
310
6175746F6465736B2E636F6D2F64657369676E2D7061636B6167652F323030393C2F666F726D61743E3C2F666F726D6174733E504B0304140006080800CC70623BD486FD9CA0000000F4000000130000005B436F6E74656E745F54797065735D2E786D6C7D8EC10E82300C865F65E91D8A1E8C310C0EEA1BF002731658846E
310
D98AC1B77784ABF1D8FE5FBFBF75BBCE937A534CCEB38643598122B6FEE978D0B0485F9C41B54DDD7D022595594E1A469170414C76A4D9A4D207E29CF43ECE46F218070CC6BECC4078ACAA135ACF422C856C0E68EA1BF5669944DDD7BCDE7B1F8E415D77AECB980613C2E4AC91FC167A2B244592486606FC29C8FD7F045B9A
310
EF7053A7E60B504B0304140006080800CC70623BD9DDAED0EC0000007C01000008000000636F72652E786D6C8D90416EC3201045AF82665B61836D9CD8C2444DD39CA01740405C94182C03558F5F9C3852BBEB6A467FFE9B197D7EF89E6EE8CB2CC17A37002D0820E394D7D68D03A478C17B4007C117EFE32F1B20272733C0
310
2A83E0E3E2D3BC49CABB685CCCAAF3DA6CA20CC14440EA969B0182FA34932C648AD911AEC52CD5558EA6A0CF2EC329598D1E47ACCEFBECC59A050463A7EA5833865FEBDD0E37353BE3EE8DBDE3F6786A48D375FBF6CC78B9C282473B3DEFABC5C86834888A900E538A49F5419B9EB47DD5BC907D4F082F57FB1F28CDFA9F50
310
B22ED6D5F6EE030B20687EE43E10BC5CB3C8E51E54AE6B6EE207504B0304140006080800CC70623B55019EA25F0000007C00000007000000636E782E786D6C4DCB3B0E80201045D1AD90E915ED2CF8AC45050C11660C8261F98AB1B07AC9C97D42D718D865D3E909258CFD00CCE24AC6E326A164D74DC0B4128928FF326038
310
472BA13128B1252AC747C6BAB984FC68F0B87FE8960A5C09FE86CFB69FBA01504B0304140006080800CC70623BA24EB22D72010000D40300000C0000006662782F636F72652E786D6CC5535B6E833010BC8AE5DF0A6C5E49888CA3A6694ED00B38E05014B091B1518EDFE511A5A9D228FD2A1F60CDEC7A67C6986DCE4D8D7A
310
69BA4AAB0C073EC548AA5C17952A33ECECD15B61B4E1CC686DBF9561A44423333CC098B3D268D7CE50AE9595CA02AA74216750749DB418E5352C32DCE59FB211BE70162ABA93DF8AFC244AE9073ED050C759670D0840D390E18DF9F1706664C23973AE2A66B62A605A75ACA4C13C4976E1364A12EF355A2EBD384AF65EFA96
310
BC7B8BED2EA6719AAE16FB8491A199335B351775B991C2CA02F390D2D40B028F861F41BCA68B7518BFD0D59A524686F29B26D7164F36B94AD9289CE54E6D1DE6010819891F6E21228B3AD1831EC219194284CF98F06DD01008846CC5A1BEF83801D4CBDC6A1303536877A57A513B0953A94FC707FDBE6064EA84A9E3E6E0FA
310
EE8CF0E9198F7784A316AA0413C2C2F2E0ECA0934D1AE6D05A69BCDE9E91D2A611F573361E38FC1375157F5752AE6B6DFE4B11990F88CCBF0719EE23FF02504B0304140006080800CC70623B408A7D3B7C0000009D0000000B0000006662782F636E782E786D6C4DCCD10A83201886E15B91FFDC552A92A0064DBC8F581632
310
D3703A76F9ABD1C18E3E78F878E5F0D9027ABBFCF2292AE86E2D20171F69F6715550CB827B40839639A5F2770314A7CD293819B45C73AAFB45B35BA61ACAA1C1C7E7855C58C15BC331339661262CC762340413D68D77DA5B42298546CBE6573AF60CEB2F504B0304140006080800CC70623B449FB9BD290100001202000031
310
0000006662782F36394639363044362D344446342D343946362D394244322D3234314243333846323333332F636F72652E786D6C8D515B6EC32010BC0AE22B55850D98B871848994463E412FE002495162B07854397EA176A4F62F3F2C9A9D991D587EB84F37F0AD7D30CEF6905418026DA553C65E7A98E219ED203808EE9D
310
8B7F6810D871D23D2C3014FCE25D9A57483A1BB58D19B54EE9151C43D0110279CB971E06F9A5A7B11A53CC8C70ADE6515EC78BAE4895DB992778883E0700CB907242D17643D7E2538BD869608875438BBAE38922CAC8F1BDD90DB4691A5E2F42C153326A951B95E398B3D1FE599322163C9AE9115F7A3D46ADA0A018778810
310
84E907617BDCEE297BC5BB3DC6BC2EF47FA234AB2745C9D8D8D035EE220B50105E2F0DC1954B9FB747187D9F9D8FA0CCDB042D5FA0C015C65B42DF78BD10F3F3B363CB56C7109DCFDFBBB97E662ED92EB62D13BC2E1BCAE5777DB9966D8A1F504B0304140006080800CC70623BAD7543B64E01000033030000300000006662
310
782F36394639363044362D344446342D343946362D394244322D3234314243333846323333332F636E782E786D6CD593CD6EC32010845F0571AD6CE3D48AD20813A9873E410FBD12D82434182C7EAAE6EDBB2424CD25871E7B41D6EC30B3FA84F9E67BB2E40B4234DE8DB46F1925E094D7C6ED479AD3AE5951B2113C789FEE
310
6C943839C1488B4C05DF079FE72A69D8C96C13AAD6B8631503449F83828872B949AC57D26200B826A308D316B4064D6E46FCDA41C05550DC9E483A00797BFD207EFB092A45DE9514C1BBD22178396BD39D891265658C238DEA00936C654E5E433CB65A26D9F6EDB5EBC14EBF49A45CB856E66048291F6939A9A81BB5C89177
310
38143CA680F4AA299D66A042CEB3354A2684DC9D8D178FE0D9B8B41CAAD720F880EE7EF93C0C18769E099ECC04D5A102C8049A8A05632F4DDF376CF1DE0F6BB65C2F8627B65A33C6BB62177CEBBDAD973006829F89F22E814B54F4BC2BE347F8AA8F681390B50FA73F804400B5F542E796F19FF974E7F78DB802FE05E20750
310
4B0304140006080800CC70623B8D05915C650500003B100000340000006662782F36394639363044362D344446342D343946362D394244322D3234314243333846323333332F6F626A656374732E786D6CAD575B6FA33814FE2B887D06429276DA1565D4266D158D3A339A6846FB502932E050B66023DB74D2FDF5FB190C01
310
9276B2973C046C8ECFF53B17071F77456EBD502133CEAE6CDF9DD81665314F32965ED995DA3A17B6F5310C04E7AA47665B8C14F4CAD6DB7618A48257A5D94AE89654B91AEDDEDDFC61C998326A5B714EA4BCB265FC440BE2924AF184CA6737218AB8E976E7FA6E4338649B0A523E8D98964450A6A029F619B8588D52FE7039
310
B1BD30F0F4F730D0FF866AF6369557DB33949F31A9088B0F848DD8CCFCF9F2767A76E99CCDE733677E3EF59D9BBB9BA5E37F984D16E78BC5E5F5ED25044B25C0C96822E8D60EEFE11B91C581D77CEA34368A1F5329E68CD1B8B61F16D63A1B8E092D294B10C78C4A48EB593D192E7DED9BDEE7995E1B91FDEDD3ACEA9FE831
310
6A756F9F7D4D79F4274C90A7A04248AA51D5F8C718DAE06FB2F75AC4796EBE65D22A88A22223B995679120E2D50E41AA49C260C046A35368846B0BECD0DFF3EBEB8AD4F835768F69B9ADF25C43D30E6B646F807FAA64AD59F61715C7A54127C4AACA98BA3006A9D792DAE165E0D59B61A01FB3A9F9D838D2DAE62445C86166
310
F37564E842E7DE6A69879FEEA2DD5AE7E371E1A5E025154AC307D06A03D73EB5978C58FFA4C8E9033066E0F3BD53BEC1F39F91BE7B55103791EDE6BBB991A2046172CB4581D8B893FA674DDA17A77B3B7C413D1B511FD2743BFF8A38F03A658705E3ADF8015C3A3417FF3D7E439FF591DA0B5F18BC20C1B8981957AE6392A3
310
F43C640C01D1A0B4728E2DD4F26DB4B3C3152A252A3B4E913CEC1C72F012782FF88EFF8637AA552DBEF76408E8A8DE9E50F9E1CB3A2DA0DB1B6039A893B56063DC5B3E3FFB5F72E67AB9FEB4AEC496C4F4C1149625DD662C53E89D7BF0F6151A046260D1337DFDC94502430F83B0EE07A130A224BCAD7DAE1D9FB6CD422FF6
310
920702629C4BB9AE79C12F243C6432A6794E18E5552BA56B431AAB5D91317302B2B071E86C3A42B1A02F999E24061403B5D0EB639195DA655DD3EBEAB4FB862DDF579F014AD0E73C22F99E28DA57FB98E75C6CA2D74D53086D600F4786E0FE3144B771A8A7B900F03594DB8A633CBC49B2EDB69228BB479CF863B5E807AAAB
310
23872F6DFEB4129B949CA33823F58830E86D65621E10047D9DB34D862E8EAC3C2ABC2F7B2C40D67CDFE01F5545B92105AF983AC54D93D69E56FB8E797F88913F898A9FEC705D3F9D1B54EC8426FB500D40A03BD0119B06E1B95DDC7EB8F6975367793EBD70E66733DFB9BC982F9CE564727731999F5D4ECFCE3B8D6A4DC2A0
310
6D50FD148437D110834A64C6CDDF57FBACB5C307A2A477DFE4939736CFEF2B175371E0E10CF0DD1D5C15654E0BCA14D1E87DD02FF93782A162C0A3D95F1524A52770F972BF1EE9809D13CE7DD599467F8ECE9ADD85CE85A34CD45355448C64F9E8A031DC2D596ACC6E5DD93D9B82DE2EF5CAF81363A8E47996A0DE24564A79
310
4115AACE09C55E14540231FDA13C319787134EBF34E3A022514E5B4D9E0826E25C02D5805B15ABE1BEF51B26383D445DD9E875EE33FE4C22DA16427D65A3BCA92CA6D28DD01DF5DC53330704308475351050232CCD31583787BA75774AFB06E5070DD0C8EF484E19968C5D83BA5B90B244D31E54D55A372320FE4786B7EA58
310
44E135AA5467CB7EA333A61683CC6A8C3257034C10CF46F40EF9F5BE59BE5BD30C3C72D235E95D10345C1D45445A5F0BB47E46A5EBE5570F9380B5FA629579952296A773720405982B9DE04011506178964401AA8BDF1FBF0A8EAB6861DD6580C0E38217056766716DAEB2D6FA0917D3E4116581EADB879C4E7CFFB11EFACD
310
3D641311495D92C8676CB409A72D18610D803CE8A626049E8EC1887CB5B44CC39883690DDA8399B4B9855B481E7D71D4A9D22F96E5BB73BF5793020C02137BF837504B0304140006080000CC70623B000000000000000000000000350000006662782F36394639363044362D344446342D343946362D394244322D32343142
310
43333846323333332F76657274696365732E62696E504B0304140006080800CC70623BF270F1330600000004000000360000006662782F36394639363044362D344446342D343946362D394244322D3234314243333846323333332F747269616E676C65732E62696E636660600000504B0304140006080000CC70623B0000
310
00000000000000000000370000006662782F36394639363044362D344446342D343946362D394244322D3234314243333846323333332F617474726962757465732E62696E504B0304140006080800CC70623B08DA0BD19000000041010000360000006662782F36394639363044362D344446342D343946362D394244322D
310
3234314243333846323333332F6469726563746F72792E786D6C858F410AC3201045AF22B36F53E9A60B35CBEEBAE80D244E44489C6234F4F835464A48035D0DF398FF9F8AF63D0E6CC63039F212F8F9020C7D47C6792B21C5FE7403D62A1188E2E60C98D7234A5830286103A55745067B9D86B8A3CF9C7F90C11DE607FB14
310
4396D7B6A82D282E9A152AD114D5EF2CB866EEE831B8EEA07A7BB5A8D7D61A2BAAEB7FD5F70921FF497D00504B0304140006080800CC70623BCA768048FE000000A00100003B0000006662782F36394639363044362D344446342D343946362D394244322D3234314243333846323333332F7265736F75726365732F636F72
310
652E786D6C8D50596E833010BD0A9ADFCA60D600328E9AA639412F609909B1126CE4A5EAF16B0295DABFFECC8CDEA2797AECF8353F924FB44E193D409E5248504B332A3D0D10FC95B4901C39B3C6F85F3248B49871801506CE266BC2B243D2688FDA47549B11775038871E12F988C7004EDE7016A9083E2ADC3D5D84BC8B09
310
D33C8D74D471E6BC8D0192EDC93A815B742658898E651BCB59086ADC356A8C3FD555A1055ED7E7E254D615792D0F075295F585746FF53B694EE78A565DD736979A65AB9933AFE69F8CD2A2F038022F28ED489E135A7CE4554F9BBEA85E68DB53CAB255FEC71496F19FA6A0B42F8B3DEE6673C0F318E4497096AD7DC5F52C33
310
EEB55BFE0D504B010214000A0000080000CC70623B3DEE336E79000000790000001B00000000000000000000000000000000006175746F6465736B2D64657369676E2D7061636B6167652E786D6C504B01021400140006080800CC70623BD486FD9CA0000000F40000001300000000000000000000000000B20000005B436F
310
6E74656E745F54797065735D2E786D6C504B01021400140006080800CC70623BD9DDAED0EC0000007C010000080000000000000000000000000083010000636F72652E786D6C504B01021400140006080800CC70623B55019EA25F0000007C000000070000000000000000000000000095020000636E782E786D6C504B0102
310
1400140006080800CC70623BA24EB22D72010000D40300000C00000000000000000000000000190300006662782F636F72652E786D6C504B01021400140006080800CC70623B408A7D3B7C0000009D0000000B00000000000000000000000000B50400006662782F636E782E786D6C504B01021400140006080800CC70623B
310
449FB9BD290100001202000031000000000000000000000000005A0500006662782F36394639363044362D344446342D343946362D394244322D3234314243333846323333332F636F72652E786D6C504B01021400140006080800CC70623BAD7543B64E010000330300003000000000000000000000000000D20600006662
310
782F36394639363044362D344446342D343946362D394244322D3234314243333846323333332F636E782E786D6C504B01021400140006080800CC70623B8D05915C650500003B10000034000000000000000000000000006E0800006662782F36394639363044362D344446342D343946362D394244322D32343142433338
310
46323333332F6F626A656374732E786D6C504B01021400140006080000CC70623B0000000000000000000000003500000000000000000000000000250E00006662782F36394639363044362D344446342D343946362D394244322D3234314243333846323333332F76657274696365732E62696E504B010214001400060808
310
00CC70623BF270F13306000000040000003600000000000000000000000000780E00006662782F36394639363044362D344446342D343946362D394244322D3234314243333846323333332F747269616E676C65732E62696E504B01021400140006080000CC70623B00000000000000000000000037000000000000000000
310
00000000D20E00006662782F36394639363044362D344446342D343946362D394244322D3234314243333846323333332F617474726962757465732E62696E504B01021400140006080800CC70623B08DA0BD190000000410100003600000000000000000000000000270F00006662782F36394639363044362D344446342D
310
343946362D394244322D3234314243333846323333332F6469726563746F72792E786D6C504B01021400140006080800CC70623BCA768048FE000000A00100003B000000000000000000000000000B1000006662782F36394639363044362D344446342D343946362D394244322D3234314243333846323333332F7265736F
310
75726365732F636F72652E786D6C504B0506000000000E000E0080040000621100000000
  0
DICTIONARY
  5
1FF
330
2
100
AcDbDictionary
280
     1
281
     1
  3
ACAD_LAYERSTATES
360
200
  0
DICTIONARY
  5
200
102
{ACAD_REACTORS
330
1FF
102
}
330
1FF
100
AcDbDictionary
281
     1
  0
DICTIONARY
  5
205
330
22
100
AcDbDictionary
280
     1
281
     1
  0
XRECORD
  5
216
102
{ACAD_REACTORS
330
C
102
}
330
C
100
AcDbXrecord
280
     1
300
ACD
300
2025
300
87919ACD_2025_0F
  0
DICTIONARY
  5
219
102
{ACAD_REACTORS
330
C
102
}
330
C
100
AcDbDictionary
281
     1
  3
Metric50
350
21A
  0
ACDBSECTIONVIEWSTYLE
  5
21A
102
{ACAD_REACTORS
330
219
102
}
330
219
100
AcDbModelDocViewStyle
 70
     0
  3
Metric50
290
     0
100
AcDbSectionViewStyle
 70
     0
 71
     0
 90
      102
 71
     1
340
11
 62
     0
 40
5
340
0
340
0
 62
     0
 40
5
300
I, O, Q, S, X, Z
 40
10
 90
        0
 40
2.5
 90
        0
 71
     2
340
16
 90
       25
 62
     0
340
16
 90
       50
 62
     0
 40
5
 40
2.5
 40
5
 71
     3
340
11
 62
     0
 40
5
 90
        0
 40
15
 90
        1
300
%<\AcVar ViewSectionStartId>%-%<\AcVar ViewSectionEndId>% (%<\AcVar ViewScale \f "%sn">%)
 71
     4
 62
     0
 62
   257
300
ANSI31
 40
1
 90
        0
290
     0
290
     0
 90
        6
 40
0
 40
1.570796326794897
 40
0.2617993877991494
 40
1.308996938995747
 40
-0.2617993877991494
 40
1.832595714594046
  0
DICTIONARY
  5
21B
102
{ACAD_REACTORS
330
C
102
}
330
C
100
AcDbDictionary
281
     1
  3
Metric50
350
21C
  0
ACDBDETAILVIEWSTYLE
  5
21C
102
{ACAD_REACTORS
330
21B
102
}
330
21B
100
AcDbModelDocViewStyle
 70
     0
  3
Metric50
290
     0
100
AcDbDetailViewStyle
 70
     0
 71
     0
 90
        3
 71
     1
340
11
 62
     0
 40
5
340
0
 62
     0
 40
5
300

 40
0
280
     1
 71
     2
340
16
 90
       25
 62
     0
 71
     3
340
11
 62
     0
 40
5
 90
        0
 40
15
 90
        1
300
%<\AcVar ViewDetailId>% (%<\AcVar ViewScale \f "%sn">%)
 71
     4
340
16
 90
       25
 62
     0
340
16
 90
       25
 62
     0
280
     0
  0
DICTIONARYVAR
  5
227
102
{ACAD_REACTORS
330
5E
102
}
330
5E
100
DictionaryVariables
280
     0
  1
Metric50
  0
DICTIONARYVAR
  5
228
102
{ACAD_REACTORS
330
5E
102
}
330
5E
100
DictionaryVariables
280
     0
  1
Metric50
  0
DICTIONARYVAR
  5
259
102
{ACAD_REACTORS
330
5E
102
}
330
5E
100
DictionaryVariables
280
     0
  1
3.500000
  0
DICTIONARYVAR
  5
25A
102
{ACAD_REACTORS
330
5E
102
}
330
5E
100
DictionaryVariables
280
     0
  1
acadiso.lin
  0
DICTIONARY
  5
2C1
102
{ACAD_REACTORS
330
C
102
}
330
C
100
AcDbDictionary
281
     1
  3
Coffee-Break Quality
350
2C5
  3
High
350
2C4
  3
Low
350
2C2
  3
Lunch Quality
350
2C6
  3
Medium
350
2C3
  3
Overnight Quality
350
2C7
  0
XRECORD
  5
2CA
102
{ACAD_REACTORS
330
C
102
}
330
C
100
AcDbXrecord
280
     1
300
{801D867E-3662-AE4E-B3AD-CF15023ED36C}
301

302
{801D867E-3662-AE4E-B3AD-CF15023ED36C}
303
D:\I2R\Job\AutoCad\SLD\8778 3140\13 Leedon Height #22-44.dwg
  0
DICTIONARY
  5
2CC
330
2CB
100
AcDbDictionary
280
     1
281
     1
  3
ACAD_SORTENTS
360
2CD
  0
SORTENTSTABLE
  5
2CD
102
{ACAD_REACTORS
330
2CC
102
}
330
2CC
100
AcDbSortentsTable
  0
DICTIONARY
  5
585
330
583
100
AcDbDictionary
280
     1
281
     1
  3
ACAD_DIMASSOC
360
586
  0
DICTIONARY
  5
591
330
590
100
AcDbDictionary
280
     1
281
     1
  3
ASDK_XREC_ANNOTATION_SCALE_INFO
360
592
  0
XRECORD
  5
592
102
{ACAD_REACTORS
330
591
102
}
330
591
100
AcDbXrecord
280
     1
 90
        1
340
10D
  0
DICTIONARY
  5
595
330
594
100
AcDbDictionary
280
     1
281
     1
  3
ASDK_XREC_ANNOTATION_SCALE_INFO
360
596
  0
XRECORD
  5
596
102
{ACAD_REACTORS
330
595
102
}
330
595
100
AcDbXrecord
280
     1
 90
        1
340
10D
  0
DICTIONARY
  5
5A1
330
5A0
100
AcDbDictionary
280
     1
281
     1
  0
DICTIONARY
  5
5E5
330
5E4
100
AcDbDictionary
280
     1
281
     1
  0
XRECORD
  5
636
102
{ACAD_REACTORS
330
635
102
}
330
635
100
AcDbXrecord
280
     1
290
     0
292
     0
330
D3
294
     0
  0
XRECORD
  5
637
102
{ACAD_REACTORS
330
635
102
}
330
635
100
AcDbXrecord
280
     1
340
10D
  0
XRECORD
  5
63A
102
{ACAD_REACTORS
330
639
102
}
330
639
100
AcDbXrecord
280
     1
330
10D
  0
ENDSEC
  0
SECTION
  2
THUMBNAILIMAGE
 90
     1708
310
1F256D07D43628289D57CA3F9D44102B980600000201E701000050000000063702000035060000000000000000000000000000000000000000000000000000000000000000000000000000000000000000000000000000000000000000000000000000000000000000000000000000000000000000000089504E470D0A1A0A
310
0000000D49484452000001000000007508030000009634CF9200000300504C5445FFFFFFFFFFFFFFFFFF0000000000000000000000000000000000000000000000000000330000660000990000CC0000FF0033000033330033660033990033CC0033FF0066000066330066660066990066CC0066FF00990000993300996600
310
99990099CC0099FF00CC0000CC3300CC6600CC9900CCCC00CCFF00FF0000FF3300FF6600FF9900FFCC00FFFF3300003300333300663300993300CC3300FF3333003333333333663333993333CC3333FF3366003366333366663366993366CC3366FF3399003399333399663399993399CC3399FF33CC0033CC3333CC6633CC
310
9933CCCC33CCFF33FF0033FF3333FF6633FF9933FFCC33FFFF6600006600336600666600996600CC6600FF6633006633336633666633996633CC6633FF6666006666336666666666996666CC6666FF6699006699336699666699996699CC6699FF66CC0066CC3366CC6666CC9966CCCC66CCFF66FF0066FF3366FF6666FF99
310
66FFCC66FFFF9900009900339900669900999900CC9900FF9933009933339933669933999933CC9933FF9966009966339966669966999966CC9966FF9999009999339999669999999999CC9999FF99CC0099CC3399CC6699CC9999CCCC99CCFF99FF0099FF3399FF6699FF9999FFCC99FFFFCC0000CC0033CC0066CC0099CC
310
00CCCC00FFCC3300CC3333CC3366CC3399CC33CCCC33FFCC6600CC6633CC6666CC6699CC66CCCC66FFCC9900CC9933CC9966CC9999CC99CCCC99FFCCCC00CCCC33CCCC66CCCC99CCCCCCCCCCFFCCFF00CCFF33CCFF66CCFF99CCFFCCCCFFFFFF0000FF0033FF0066FF0099FF00CCFF00FFFF3300FF3333FF3366FF3399FF33
310
CCFF33FFFF6600FF6633FF6666FF6699FF66CCFF66FFFF9900FF9933FF9966FF9999FF99CCFF99FFFFCC00FFCC33FFCC66FFCC99FFCCCCFFCCFFFFFF00FFFF33FFFF66FFFF99FFFFCCFFFFFF0000000D0D0D1A1A1A2828283535354343435050505D5D5D6B6B6B787878868686939393A1A1A1AEAEAEBBBBBBC9C9C9D6D6D6
310
E4E4E4F1F1F1FFFFFF000000000000000000000000000000000000000000000000000000000000AD4AB4E4000002F04944415478DAED9B5B9A83200C85B3FF35F6E93C771133535BE412106A60504E1EF82CC6007F4382A822903F812BDEA52F382E834B539D3663F90B0AF25278368B10000110000110C0CA00707559DD03
310
FA0278133602B059AB07A0B47E1B006FBB99722800C8D608C43F8CBAECF5503FF6AB431D04D69C79144B4F5FE995B507EC0D277DF8FC07C77DF61573237248EAA29AE39990B1F5806264B58DD35E454816390FD0C98CF680A2F3BBD9E3BBB7EEBA9F2910CDB6B4D45AEFE901AE6FFAACB50C82D298052648830B00D8BD3FE7
310
6D505257260866929C288E5D28E30B0A73C00E00DA0044E50800E802E0A1CAC7EAF60BD84A6CC7D86B5C09AF0CF5FFD47D6B78D5633BFE283CFC1A895BF74D7BA7C70188048F5669B32685D6ED01ECAE959963C0969065CFE1F2AD7876EAAC25FAE8B2103A00800E00A411807403A098D201E040B1128034594B5AEF08C005
310
F330DCAA2B5A577F1E40D95ADC7ADA494B0F80086AC6F53D809C35545B4BB40D0148106C50199AE434852026A2453BB8C0C4030EEFBD9CA28491EC9C07D435AB6B1BC60041F46F6457DF0833DAB9F1D7369BD1EE9E054AABCF0A373D1E141A798D4E835F74198B03809C1BD2D501B406855900183EAA19F324C8DE038CC466
310
79D4EE12D30090A1E3270002982F0688BB615BD5035607E02FD757F68041001E73AE03F4FDBB1EE377DBC873658161007E09C88C0086A6C17300AEFF96D87B16ACEB01B30270C940A21B456B44F302D89F0124087A353B491ACC6C100C58114DE6012D5B83F703305A088000A6B91B240002200002200002200002200002B8
310
0200DC464E7A006A215728D56C0334BC1AB96FAB8455B653E03F00C85D0198DE34A3F25A02B83980E08B4A6D964D05A0E235AFDA97C9088000AE08C034065C7021A4F45F51AB7B13B4FC3141FCE9C8ED0120BF9E5C02002E08A0C742483D4900AB6581DD0A0880001803B82586E537458500088000088000088000088000DA
310
003C1717022000022000022000022000022000022000022000022000022000022080A5E40752267E2AF1276DB40000000049454E44AE426082
  0
ENDSEC
  0
EOF
