  0
SECTION
  2
HEADER
  9
$ACADVER
  1
AC1032
  9
$ACADMAINTVER
 90
4
  9
$DWGCODEPAGE
  3
ANSI_1252
  9
$LASTSAVEDBY
  1
ezdxf
  9
$REQUIREDVERSIONS
160
0
  9
$INSBASE
 10
0.0
 20
0.0
 30
0.0
  9
$EXTMIN
 10
1e+20
 20
1e+20
 30
1e+20
  9
$EXTMAX
 10
-1e+20
 20
-1e+20
 30
-1e+20
  9
$LIMMIN
 10
0.0
 20
0.0
  9
$LIMMAX
 10
420.0
 20
297.0
  9
$ORTHOMODE
 70
0
  9
$REGENMODE
 70
1
  9
$FILLMODE
 70
1
  9
$QTEXTMODE
 70
0
  9
$MIRRTEXT
 70
1
  9
$LTSCALE
 40
1.0
  9
$ATTMODE
 70
1
  9
$TEXTSIZE
 40
2.5
  9
$TRACEWID
 40
1.0
  9
$TEXTSTYLE
  7
SLD-TXT
  9
$CLAYER
  8
0
  9
$CELTYPE
  6
ByLayer
  9
$CECOLOR
 62
256
  9
$CELTSCALE
 40
1.0
  9
$DISPSILH
 70
0
  9
$DIMSCALE
 40
1.0
  9
$DIMASZ
 40
2.5
  9
$DIMEXO
 40
0.625
  9
$DIMDLI
 40
3.75
  9
$DIMRND
 40
0.0
  9
$DIMDLE
 40
0.0
  9
$DIMEXE
 40
1.25
  9
$DIMTP
 40
0.0
  9
$DIMTM
 40
0.0
  9
$DIMTXT
 40
2.5
  9
$DIMCEN
 40
2.5
  9
$DIMTSZ
 40
0.0
  9
$DIMTOL
 70
0
  9
$DIMLIM
 70
0
  9
$DIMTIH
 70
0
  9
$DIMTOH
 70
0
  9
$DIMSE1
 70
0
  9
$DIMSE2
 70
0
  9
$DIMTAD
 70
1
  9
$DIMZIN
 70
8
  9
$DIMBLK
  1

  9
$DIMASO
 70
1
  9
$DIMSHO
 70
1
  9
$DIMPOST
  1

  9
$DIMAPOST
  1

  9
$DIMALT
 70
0
  9
$DIMALTD
 70
3
  9
$DIMALTF
 40
0.03937007874
  9
$DIMLFAC
 40
1.0
  9
$DIMTOFL
 70
1
  9
$DIMTVP
 40
0.0
  9
$DIMTIX
 70
0
  9
$DIMSOXD
 70
0
  9
$DIMSAH
 70
0
  9
$DIMBLK1
  1

  9
$DIMBLK2
  1

  9
$DIMSTYLE
  2
ISO-25
  9
$DIMCLRD
 70
0
  9
$DIMCLRE
 70
0
  9
$DIMCLRT
 70
0
  9
$DIMTFAC
 40
1.0
  9
$DIMGAP
 40
0.625
  9
$DIMJUST
 70
0
  9
$DIMSD1
 70
0
  9
$DIMSD2
 70
0
  9
$DIMTOLJ
 70
0
  9
$DIMTZIN
 70
8
  9
$DIMALTZ
 70
0
  9
$DIMALTTZ
 70
0
  9
$DIMUPT
 70
0
  9
$DIMDEC
 70
2
  9
$DIMTDEC
 70
2
  9
$DIMALTU
 70
2
  9
$DIMALTTD
 70
3
  9
$DIMTXSTY
  7
Standard
  9
$DIMAUNIT
 70
0
  9
$DIMADEC
 70
0
  9
$DIMALTRND
 40
0.0
  9
$DIMAZIN
 70
0
  9
$DIMDSEP
 70
44
  9
$DIMATFIT
 70
3
  9
$DIMFRAC
 70
0
  9
$DIMLDRBLK
  1

  9
$DIMLUNIT
 70
2
  9
$DIMLWD
 70
-2
  9
$DIMLWE
 70
-2
  9
$DIMTMOVE
 70
0
  9
$DIMFXL
 40
1.0
  9
$DIMFXLON
 70
0
  9
$DIMJOGANG
 40
0.785398163397
  9
$DIMTFILL
 70
0
  9
$DIMTFILLCLR
 70
0
  9
$DIMARCSYM
 70
0
  9
$DIMLTYPE
  6

  9
$DIMLTEX1
  6

  9
$DIMLTEX2
  6

  9
$DIMTXTDIRECTION
 70
0
  9
$LUNITS
 70
2
  9
$LUPREC
 70
4
  9
$SKETCHINC
 40
1.0
  9
$FILLETRAD
 40
10.0
  9
$AUNITS
 70
0
  9
$AUPREC
 70
2
  9
$MENU
  1
.
  9
$ELEVATION
 40
0.0
  9
$PELEVATION
 40
0.0
  9
$THICKNESS
 40
0.0
  9
$LIMCHECK
 70
0
  9
$CHAMFERA
 40
0.0
  9
$CHAMFERB
 40
0.0
  9
$CHAMFERC
 40
0.0
  9
$CHAMFERD
 40
0.0
  9
$SKPOLY
 70
0
  9
$TDCREATE
 40
2461186.945775463
  9
$TDUCREATE
 40
2458532.153996898
  9
$TDUPDATE
 40
2461186.9457870373
  9
$TDUUPDATE
 40
2458532.1544311
  9
$TDINDWG
 40
0.0
  9
$TDUSRTIMER
 40
0.0
  9
$USRTIMER
 70
1
  9
$ANGBASE
 50
0.0
  9
$ANGDIR
 70
0
  9
$PDMODE
 70
0
  9
$PDSIZE
 40
0.0
  9
$PLINEWID
 40
0.0
  9
$SPLFRAME
 70
0
  9
$SPLINETYPE
 70
6
  9
$SPLINESEGS
 70
8
  9
$HANDSEED
  5
E1
  9
$SURFTAB1
 70
6
  9
$SURFTAB2
 70
6
  9
$SURFTYPE
 70
6
  9
$SURFU
 70
6
  9
$SURFV
 70
6
  9
$UCSBASE
  2

  9
$UCSNAME
  2

  9
$UCSORG
 10
0.0
 20
0.0
 30
0.0
  9
$UCSXDIR
 10
1.0
 20
0.0
 30
0.0
  9
$UCSYDIR
 10
0.0
 20
1.0
 30
0.0
  9
$UCSORTHOREF
  2

  9
$UCSORTHOVIEW
 70
0
  9
$UCSORGTOP
 10
0.0
 20
0.0
 30
0.0
  9
$UCSORGBOTTOM
 10
0.0
 20
0.0
 30
0.0
  9
$UCSORGLEFT
 10
0.0
 20
0.0
 30
0.0
  9
$UCSORGRIGHT
 10
0.0
 20
0.0
 30
0.0
  9
$UCSORGFRONT
 10
0.0
 20
0.0
 30
0.0
  9
$UCSORGBACK
 10
0.0
 20
0.0
 30
0.0
  9
$PUCSBASE
  2

  9
$PUCSNAME
  2

  9
$PUCSORG
 10
0.0
 20
0.0
 30
0.0
  9
$PUCSXDIR
 10
1.0
 20
0.0
 30
0.0
  9
$PUCSYDIR
 10
0.0
 20
1.0
 30
0.0
  9
$PUCSORTHOREF
  2

  9
$PUCSORTHOVIEW
 70
0
  9
$PUCSORGTOP
 10
0.0
 20
0.0
 30
0.0
  9
$PUCSORGBOTTOM
 10
0.0
 20
0.0
 30
0.0
  9
$PUCSORGLEFT
 10
0.0
 20
0.0
 30
0.0
  9
$PUCSORGRIGHT
 10
0.0
 20
0.0
 30
0.0
  9
$PUCSORGFRONT
 10
0.0
 20
0.0
 30
0.0
  9
$PUCSORGBACK
 10
0.0
 20
0.0
 30
0.0
  9
$USERI1
 70
0
  9
$USERI2
 70
0
  9
$USERI3
 70
0
  9
$USERI4
 70
0
  9
$USERI5
 70
0
  9
$USERR1
 40
0.0
  9
$USERR2
 40
0.0
  9
$USERR3
 40
0.0
  9
$USERR4
 40
0.0
  9
$USERR5
 40
0.0
  9
$WORLDVIEW
 70
1
  9
$SHADEDGE
 70
3
  9
$SHADEDIF
 70
70
  9
$TILEMODE
 70
1
  9
$MAXACTVP
 70
64
  9
$PINSBASE
 10
0.0
 20
0.0
 30
0.0
  9
$PLIMCHECK
 70
0
  9
$PEXTMIN
 10
1e+20
 20
1e+20
 30
1e+20
  9
$PEXTMAX
 10
-1e+20
 20
-1e+20
 30
-1e+20
  9
$PLIMMIN
 10
0.0
 20
0.0
  9
$PLIMMAX
 10
420.0
 20
297.0
  9
$UNITMODE
 70
0
  9
$VISRETAIN
 70
1
  9
$PLINEGEN
 70
0
  9
$PSLTSCALE
 70
0
  9
$TREEDEPTH
 70
3020
  9
$CMLSTYLE
  2
Standard
  9
$CMLJUST
 70
0
  9
$CMLSCALE
 40
20.0
  9
$PROXYGRAPHICS
 70
1
  9
$MEASUREMENT
 70
1
  9
$CELWEIGHT
370
-1
  9
$ENDCAPS
280
0
  9
$JOINSTYLE
280
0
  9
$LWDISPLAY
290
0
  9
$INSUNITS
 70
4
  9
$HYPERLINKBASE
  1

  9
$STYLESHEET
  1

  9
$XEDIT
290
1
  9
$CEPSNTYPE
380
0
  9
$PSTYLEMODE
290
1
  9
$FINGERPRINTGUID
  2
{E74AC0A8-DC18-40B3-8FDE-ED7E1C1E0A73}
  9
$VERSIONGUID
  2
{DAFE3F78-1D71-4386-8B12-CA54A1F1F244}
  9
$EXTNAMES
290
1
  9
$PSVPSCALE
 40
0.0
  9
$OLESTARTUP
290
0
  9
$SORTENTS
280
127
  9
$INDEXCTL
280
0
  9
$HIDETEXT
280
1
  9
$XCLIPFRAME
280
1
  9
$HALOGAP
280
0
  9
$OBSCOLOR
 70
257
  9
$OBSLTYPE
280
0
  9
$INTERSECTIONDISPLAY
280
0
  9
$INTERSECTIONCOLOR
 70
257
  9
$DIMASSOC
280
2
  9
$PROJECTNAME
  1

  9
$CAMERADISPLAY
290
0
  9
$LENSLENGTH
 40
50.0
  9
$CAMERAHEIGHT
 40
0.0
  9
$STEPSPERSEC
 40
24.0
  9
$STEPSIZE
 40
100.0
  9
$3DDWFPREC
 40
2.0
  9
$PSOLWIDTH
 40
0.005
  9
$PSOLHEIGHT
 40
0.08
  9
$LOFTANG1
 40
1.570796326795
  9
$LOFTANG2
 40
1.570796326795
  9
$LOFTMAG1
 40
0.0
  9
$LOFTMAG2
 40
0.0
  9
$LOFTPARAM
 70
7
  9
$LOFTNORMALS
280
1
  9
$LATITUDE
 40
37.795
  9
$LONGITUDE
 40
-122.394
  9
$NORTHDIRECTION
 40
0.0
  9
$TIMEZONE
 70
-8000
  9
$LIGHTGLYPHDISPLAY
280
1
  9
$TILEMODELIGHTSYNCH
280
1
  9
$CMATERIAL
347
20
  9
$SOLIDHIST
280
0
  9
$SHOWHIST
280
1
  9
$DWFFRAME
280
2
  9
$DGNFRAME
280
2
  9
$REALWORLDSCALE
290
1
  9
$INTERFERECOLOR
 62
256
  9
$CSHADOW
280
0
  9
$SHADOWPLANELOCATION
 40
0.0
  0
ENDSEC
  0
SECTION
  2
CLASSES
  0
CLASS
  1
ACDBDICTIONARYWDFLT
  2
AcDbDictionaryWithDefault
  3
ObjectDBX Classes
 90
0
 91
0
280
0
281
0
  0
CLASS
  1
SUN
  2
AcDbSun
  3
SCENEOE
 90
1153
 91
0
280
0
281
0
  0
CLASS
  1
VISUALSTYLE
  2
AcDbVisualStyle
  3
ObjectDBX Classes
 90
4095
 91
0
280
0
281
0
  0
CLASS
  1
MATERIAL
  2
AcDbMaterial
  3
ObjectDBX Classes
 90
1153
 91
0
280
0
281
0
  0
CLASS
  1
SCALE
  2
AcDbScale
  3
ObjectDBX Classes
 90
1153
 91
0
280
0
281
0
  0
CLASS
  1
TABLESTYLE
  2
AcDbTableStyle
  3
ObjectDBX Classes
 90
4095
 91
0
280
0
281
0
  0
CLASS
  1
MLEADERSTYLE
  2
AcDbMLeaderStyle
  3
ACDB_MLEADERSTYLE_CLASS
 90
4095
 91
0
280
0
281
0
  0
CLASS
  1
DICTIONARYVAR
  2
AcDbDictionaryVar
  3
ObjectDBX Classes
 90
0
 91
0
280
0
281
0
  0
CLASS
  1
CELLSTYLEMAP
  2
AcDbCellStyleMap
  3
ObjectDBX Classes
 90
1152
 91
0
280
0
281
0
  0
CLASS
  1
MENTALRAYRENDERSETTINGS
  2
AcDbMentalRayRenderSettings
  3
SCENEOE
 90
1024
 91
0
280
0
281
0
  0
CLASS
  1
ACDBDETAILVIEWSTYLE
  2
AcDbDetailViewStyle
  3
ObjectDBX Classes
 90
1025
 91
0
280
0
281
0
  0
CLASS
  1
ACDBSECTIONVIEWSTYLE
  2
AcDbSectionViewStyle
  3
ObjectDBX Classes
 90
1025
 91
0
280
0
281
0
  0
CLASS
  1
RASTERVARIABLES
  2
AcDbRasterVariables
  3
ISM
 90
0
 91
0
280
0
281
0
  0
CLASS
  1
LAYOUT
  2
AcDbLayout
  3
ObjectDBX Classes
 90
0
 91
0
280
0
281
0
  0
CLASS
  1
ACDBPLACEHOLDER
  2
AcDbPlaceHolder
  3
ObjectDBX Classes
 90
0
 91
0
280
0
281
0
  0
ENDSEC
  0
SECTION
  2
TABLES
  0
TABLE
  2
VPORT
  5
8
330
0
100
AcDbSymbolTable
 70
1
  0
VPORT
  5
23
330
8
100
AcDbSymbolTableRecord
100
AcDbViewportTableRecord
  2
*Active
 70
0
 10
0.0
 20
0.0
 11
1.0
 21
1.0
 12
0.0
 22
0.0
 13
0.0
 23
0.0
 14
0.5
 24
0.5
 15
0.5
 25
0.5
 16
0.0
 26
0.0
 36
1.0
 17
0.0
 27
0.0
 37
0.0
 40
1000.0
 41
1.34
 42
50.0
 43
0.0
 44
0.0
 50
0.0
 51
0.0
 71
0
 72
1000
 73
1
 74
3
 75
0
 76
0
 77
0
 78
0
281
0
 65
0
146
0.0
  0
ENDTAB
  0
TABLE
  2
LTYPE
  5
2
330
0
100
AcDbSymbolTable
 70
5
  0
LTYPE
  5
24
330
2
100
AcDbSymbolTableRecord
100
AcDbLinetypeTableRecord
  2
ByBlock
 70
0
  3

 72
65
 73
0
 40
0.0
  0
LTYPE
  5
25
330
2
100
AcDbSymbolTableRecord
100
AcDbLinetypeTableRecord
  2
ByLayer
 70
0
  3

 72
65
 73
0
 40
0.0
  0
LTYPE
  5
26
330
2
100
AcDbSymbolTableRecord
100
AcDbLinetypeTableRecord
  2
Continuous
 70
0
  3

 72
65
 73
0
 40
0.0
  0
LTYPE
  5
2F
330
2
100
AcDbSymbolTableRecord
100
AcDbLinetypeTableRecord
  2
CENTER
 70
0
  3
Center ____ _ ____ _ ____
 72
65
 73
4
 40
1.25
 49
0.75
 74
0
 49
-0.125
 74
0
 49
0.25
 74
0
 49
-0.125
 74
0
  0
LTYPE
  5
30
330
2
100
AcDbSymbolTableRecord
100
AcDbLinetypeTableRecord
  2
DASHED
 70
0
  3
Dashed __ __ __ __ __
 72
65
 73
2
 40
0.75
 49
0.5
 74
0
 49
-0.25
 74
0
  0
ENDTAB
  0
TABLE
  2
LAYER
  5
1
330
0
100
AcDbSymbolTable
 70
9
  0
LAYER
  5
27
330
1
100
AcDbSymbolTableRecord
100
AcDbLayerTableRecord
  2
0
 70
0
 62
7
  6
Continuous
370
-3
390
13
347
21
  0
LAYER
  5
28
330
1
100
AcDbSymbolTableRecord
100
AcDbLayerTableRecord
  2
Defpoints
 70
0
 62
7
  6
Continuous
290
0
370
-3
390
13
347
21
  0
LAYER
  5
31
330
1
100
AcDbSymbolTableRecord
100
AcDbLayerTableRecord
  2
SLD
 70
0
 62
2
  6
Continuous
370
25
390
13
347
21
  0
LAYER
  5
32
330
1
100
AcDbSymbolTableRecord
100
AcDbLayerTableRecord
  2
SLD-LINE
 70
0
 62
7
  6
Continuous
370
25
390
13
347
21
  0
LAYER
  5
33
330
1
100
AcDbSymbolTableRecord
100
AcDbLayerTableRecord
  2
SLD-TXT
 70
0
 62
7
  6
Continuous
370
25
390
13
347
21
  0
LAYER
  5
34
330
1
100
AcDbSymbolTableRecord
100
AcDbLayerTableRecord
  2
TXT
 70
0
 62
7
  6
Continuous
370
25
390
13
347
21
  0
LAYER
  5
35
330
1
100
AcDbSymbolTableRecord
100
AcDbLayerTableRecord
  2
E-SLD-LEGENDF
 70
0
 62
2
  6
Continuous
370
25
390
13
347
21
  0
LAYER
  5
36
330
1
100
AcDbSymbolTableRecord
100
AcDbLayerTableRecord
  2
E-SLD-DB-TXT
 70
0
 62
3
  6
Continuous
370
25
390
13
347
21
  0
LAYER
  5
37
330
1
100
AcDbSymbolTableRecord
100
AcDbLayerTableRecord
  2
E-SLD-FRAME
 70
0
 62
8
  6
Continuous
370
25
390
13
347
21
  0
ENDTAB
  0
TABLE
  2
STYLE
  5
5
330
0
100
AcDbSymbolTable
 70
5
  0
STYLE
  5
29
330
5
100
AcDbSymbolTableRecord
100
AcDbTextStyleTableRecord
  2
Standard
 70
0
 40
0.0
 41
1.0
 50
0.0
 71
0
 42
2.5
  3
arial.ttf
  4

  0
STYLE
  5
38
330
5
100
AcDbSymbolTableRecord
100
AcDbTextStyleTableRecord
  2
SLD-TXT
 70
0
 40
0.0
 41
0.75
 50
0.0
 71
0
 42
2.5
  3
romans.shx
  4

  0
STYLE
  5
39
330
5
100
AcDbSymbolTableRecord
100
AcDbTextStyleTableRecord
  2
ARIAL
 70
0
 40
0.0
 41
0.95
 50
0.0
 71
0
 42
2.5
  3
arial.ttf
  4

  0
STYLE
  5
3A
330
5
100
AcDbSymbolTableRecord
100
AcDbTextStyleTableRecord
  2
SIMPLEX
 70
0
 40
0.0
 41
0.75
 50
0.0
 71
0
 42
2.5
  3
simplex.shx
  4

  0
STYLE
  5
3B
330
5
100
AcDbSymbolTableRecord
100
AcDbTextStyleTableRecord
  2
TAHOMA
 70
0
 40
0.0
 41
0.9
 50
0.0
 71
0
 42
2.5
  3
tahoma.ttf
  4

  0
ENDTAB
  0
TABLE
  2
VIEW
  5
7
330
0
100
AcDbSymbolTable
 70
0
  0
ENDTAB
  0
TABLE
  2
UCS
  5
6
330
0
100
AcDbSymbolTable
 70
0
  0
ENDTAB
  0
TABLE
  2
APPID
  5
3
330
0
100
AcDbSymbolTable
 70
3
  0
APPID
  5
2A
330
3
100
AcDbSymbolTableRecord
100
AcDbRegAppTableRecord
  2
ACAD
 70
0
  0
APPID
  5
DE
330
3
100
AcDbSymbolTableRecord
100
AcDbRegAppTableRecord
  2
HATCHBACKGROUNDCOLOR
 70
0
  0
APPID
  5
DF
330
3
100
AcDbSymbolTableRecord
100
AcDbRegAppTableRecord
  2
EZDXF
 70
0
  0
ENDTAB
  0
TABLE
  2
DIMSTYLE
  5
4
330
0
100
AcDbSymbolTable
 70
2
100
AcDbDimStyleTable
  0
DIMSTYLE
105
2B
330
4
100
AcDbSymbolTableRecord
100
AcDbDimStyleTableRecord
  2
Standard
 70
0
 40
1.0
 41
2.5
 42
0.625
 43
3.75
 44
1.25
 45
0.0
 46
0.0
 47
0.0
 48
0.0
 49
2.5
140
2.5
141
2.5
142
0.0
143
0.03937007874
144
1.0
145
0.0
146
1.0
147
0.625
148
0.0
 69
0
 70
0
 71
0
 72
0
 73
0
 74
0
 75
0
 76
0
 77
1
 78
8
 79
3
170
0
171
3
172
1
173
0
174
0
175
0
176
0
177
0
178
0
179
2
271
2
272
2
273
2
274
3
275
0
276
0
277
2
278
44
279
0
280
0
281
0
282
0
283
0
284
8
285
0
286
0
288
0
289
3
290
0
371
-2
372
-2
  0
DIMSTYLE
105
3C
330
4
100
AcDbSymbolTableRecord
100
AcDbDimStyleTableRecord
  2
A
 70
0
 40
1.0
 41
1.5
 42
0.625
 43
3.75
 44
1.25
 45
0.0
 46
0.0
 47
0.0
 48
0.0
 49
2.5
140
1.8
141
2.5
142
0.0
143
0.03937007874
144
1.0
145
0.0
146
1.0
147
0.9
148
0.0
 69
0
 70
0
 71
0
 72
0
 73
0
 74
0
 75
0
 76
0
 77
1
 78
8
 79
3
170
0
171
3
172
1
173
0
174
0
175
0
176
0
177
0
178
0
179
2
271
2
272
2
273
2
274
3
275
0
276
0
277
2
278
44
279
0
280
0
281
0
282
0
283
0
284
8
285
0
286
0
288
0
289
3
290
0
371
-2
372
-2
  0
ENDTAB
  0
TABLE
  2
BLOCK_RECORD
  5
9
330
0
100
AcDbSymbolTable
 70
2
  0
BLOCK_RECORD
  5
17
330
9
100
AcDbSymbolTableRecord
100
AcDbBlockTableRecord
  2
*Model_Space
340
1A
 70
0
280
1
281
0
  0
BLOCK_RECORD
  5
1B
330
9
100
AcDbSymbolTableRecord
100
AcDbBlockTableRecord
  2
*Paper_Space
340
1E
 70
0
280
1
281
0
  0
ENDTAB
  0
ENDSEC
  0
SECTION
  2
BLOCKS
  0
BLOCK
  5
18
330
17
100
AcDbEntity
  8
0
100
AcDbBlockBegin
  2
*Model_Space
 70
0
 10
0.0
 20
0.0
 30
0.0
  3
*Model_Space
  1

  0
ENDBLK
  5
19
330
17
100
AcDbEntity
  8
0
100
AcDbBlockEnd
  0
BLOCK
  5
1C
330
1B
100
AcDbEntity
  8
0
100
AcDbBlockBegin
  2
*Paper_Space
 70
0
 10
0.0
 20
0.0
 30
0.0
  3
*Paper_Space
  1

  0
ENDBLK
  5
1D
330
1B
100
AcDbEntity
  8
0
100
AcDbBlockEnd
  0
ENDSEC
  0
SECTION
  2
ENTITIES
  0
LWPOLYLINE
  5
3D
330
17
100
AcDbEntity
  8
E-SLD-FRAME
100
AcDbPolyline
 90
4
 70
1
 10
10.0
 20
10.0
 10
410.0
 20
10.0
 10
410.0
 20
287.0
 10
10.0
 20
287.0
  0
LWPOLYLINE
  5
3E
330
17
100
AcDbEntity
  8
TXT
100
AcDbPolyline
 90
4
 70
1
 10
10.0
 20
10.0
 10
410.0
 20
10.0
 10
410.0
 20
42.0
 10
10.0
 20
42.0
  0
LINE
  5
3F
330
17
100
AcDbEntity
  8
TXT
100
AcDbLine
 10
90.0
 20
42.0
 30
0.0
 11
90.0
 21
10.0
 31
0.0
  0
LINE
  5
40
330
17
100
AcDbEntity
  8
TXT
100
AcDbLine
 10
150.0
 20
42.0
 30
0.0
 11
150.0
 21
10.0
 31
0.0
  0
LINE
  5
41
330
17
100
AcDbEntity
  8
TXT
100
AcDbLine
 10
222.0
 20
42.0
 30
0.0
 11
222.0
 21
10.0
 31
0.0
  0
LINE
  5
42
330
17
100
AcDbEntity
  8
TXT
100
AcDbLine
 10
290.0
 20
42.0
 30
0.0
 11
290.0
 21
10.0
 31
0.0
  0
LINE
  5
43
330
17
100
AcDbEntity
  8
TXT
100
AcDbLine
 10
362.0
 20
42.0
 30
0.0
 11
362.0
 21
10.0
 31
0.0
  0
LINE
  5
44
330
17
100
AcDbEntity
  8
TXT
100
AcDbLine
 10
362.0
 20
27.0
 30
0.0
 11
410.0
 21
27.0
 31
0.0
  0
LINE
  5
45
330
17
100
AcDbEntity
  8
TXT
100
AcDbLine
 10
386.0
 20
42.0
 30
0.0
 11
386.0
 21
10.0
 31
0.0
  0
MTEXT
  5
46
330
17
100
AcDbEntity
  8
SLD-TXT
100
AcDbMText
 10
12.0
 20
39.5
 30
0.0
 40
1.8
 71
1
  1
CLIENT / ADDRESS :
  7
SLD-TXT
  0
MTEXT
  5
47
330
17
100
AcDbEntity
  8
SLD-TXT
100
AcDbMText
 10
92.0
 20
39.5
 30
0.0
 40
1.8
 71
1
  1
MAIN CONTRACTOR :
  7
SLD-TXT
  0
MTEXT
  5
48
330
17
100
AcDbEntity
  8
SLD-TXT
100
AcDbMText
 10
152.0
 20
39.5
 30
0.0
 40
1.8
 71
1
  1
ELECTRICAL CONTRACTOR :
  7
SLD-TXT
  0
MTEXT
  5
49
330
17
100
AcDbEntity
  8
SLD-TXT
100
AcDbMText
 10
224.0
 20
39.5
 30
0.0
 40
1.8
 71
1
  1
DRAWING TITLE :
  7
SLD-TXT
  0
MTEXT
  5
4A
330
17
100
AcDbEntity
  8
SLD-TXT
100
AcDbMText
 10
292.0
 20
39.5
 30
0.0
 40
1.8
 71
1
  1
LEW :
  7
SLD-TXT
  0
MTEXT
  5
4B
330
17
100
AcDbEntity
  8
SLD-TXT
100
AcDbMText
 10
364.0
 20
39.5
 30
0.0
 40
1.8
 71
1
  1
CHECKED :
  7
SLD-TXT
  0
MTEXT
  5
4C
330
17
100
AcDbEntity
  8
SLD-TXT
100
AcDbMText
 10
388.0
 20
39.5
 30
0.0
 40
1.8
 71
1
  1
DATE :
  7
SLD-TXT
  0
MTEXT
  5
4D
330
17
100
AcDbEntity
  8
SLD-TXT
100
AcDbMText
 10
364.0
 20
24.5
 30
0.0
 40
1.8
 71
1
  1
DRAWING NO. :
  7
SLD-TXT
  0
MTEXT
  5
4E
330
17
100
AcDbEntity
  8
SLD-TXT
100
AcDbMText
 10
388.0
 20
24.5
 30
0.0
 40
1.8
 71
1
  1
REV :
  7
SLD-TXT
  0
MTEXT
  5
4F
330
17
100
AcDbEntity
  8
SLD-TXT
100
AcDbMText
 10
199.5
 20
272.7
 30
0.0
 40
5.0
 71
1
  1
~
  7
SLD-TXT
  0
MTEXT
  5
50
330
17
100
AcDbEntity
  8
SLD-TXT
100
AcDbMText
 10
222.5
 20
270.7
 30
0.0
 40
2.8
 71
1
  1
FROM LANDLORD SUPPLY
  7
SLD-TXT
  0
MTEXT
  5
51
330
17
100
AcDbEntity
  8
SLD-TXT
100
AcDbMText
 10
196.5
 20
246.9
 30
0.0
 40
2.8
 71
1
  1

  7
SLD-TXT
  0
MTEXT
  5
52
330
17
100
AcDbEntity
  8
SLD-TXT
100
AcDbMText
 10
214.5
 20
250.9
 30
0.0
 40
2.8
 71
1
  1
4x25mm² PVC + 16mm² ECC
  7
SLD-TXT
  0
ARC
  5
53
330
17
100
AcDbEntity
  8
SLD
100
AcDbCircle
 10
200.6438548545231
 20
202.09980365428353
 30
0.0
 40
3.750260135152387
100
AcDbArc
 50
-62.875315520028344
 51
62.88847726338142
  0
CIRCLE
  5
54
330
17
100
AcDbEntity
  8
SLD
100
AcDbCircle
 10
201.30830413547406
 20
205.43798960151403
 30
0.0
 40
0.6620103984859601
  0
CIRCLE
  5
55
330
17
100
AcDbEntity
  8
SLD
100
AcDbCircle
 10
201.3186845557292
 20
198.76201039848596
 30
0.0
 40
0.6620103984859601
  0
LINE
  5
56
330
17
100
AcDbEntity
  8
SLD-LINE
100
AcDbLine
 10
201.5
 20
198.1
 30
0.0
 11
201.5
 21
196.1
 31
0.0
  0
LINE
  5
57
330
17
100
AcDbEntity
  8
SLD-LINE
100
AcDbLine
 10
201.5
 20
206.1
 30
0.0
 11
201.5
 21
208.1
 31
0.0
  0
LWPOLYLINE
  5
58
330
17
100
AcDbEntity
  8
SLD
100
AcDbPolyline
 90
4
 70
1
 10
195.5
 20
212.6
 10
207.5
 20
212.6
 10
207.5
 20
218.6
 10
195.5
 20
218.6
  0
MTEXT
  5
59
330
17
100
AcDbEntity
  8
SLD-TXT
100
AcDbMText
 10
199.1
 20
215.6
 30
0.0
 40
1.6
 71
4
  1
KWH
  7
SLD-TXT
  0
LINE
  5
5A
330
17
100
AcDbEntity
  8
SLD-LINE
100
AcDbLine
 10
201.5
 20
218.6
 30
0.0
 11
201.5
 21
220.6
 31
0.0
  0
LINE
  5
5B
330
17
100
AcDbEntity
  8
SLD-LINE
100
AcDbLine
 10
201.5
 20
212.6
 30
0.0
 11
201.5
 21
210.6
 31
0.0
  0
CIRCLE
  5
5C
330
17
100
AcDbEntity
  8
SLD
100
AcDbCircle
 10
201.5
 20
225.799209039548
 30
0.0
 40
0.6992090395480226
  0
CIRCLE
  5
5D
330
17
100
AcDbEntity
  8
SLD
100
AcDbCircle
 10
201.5
 20
231.40079096045199
 30
0.0
 40
0.6992090395480226
  0
LWPOLYLINE
  5
5E
330
17
100
AcDbEntity
  8
SLD
100
AcDbPolyline
 90
2
 70
0
 10
201.7341242937853
 20
230.74271186440677
 10
203.46949152542373
 20
225.89254237288134
  0
MTEXT
  5
5F
330
17
100
AcDbEntity
  8
SLD-TXT
100
AcDbMText
 10
224.5
 20
215.10000000000002
 30
0.0
 40
2.8
 71
1
  1
KWH METER BY SP
  7
SLD-TXT
  0
MTEXT
  5
60
330
17
100
AcDbEntity
  8
SLD-TXT
100
AcDbMText
 10
196.5
 20
175.3
 30
0.0
 40
2.8
 71
1
  1

  7
SLD-TXT
  0
MTEXT
  5
61
330
17
100
AcDbEntity
  8
SLD-TXT
100
AcDbMText
 10
214.5
 20
179.3
 30
0.0
 40
2.8
 71
1
  1
4x25mm² PVC + 16mm² ECC
  7
SLD-TXT
  0
ARC
  5
62
330
17
100
AcDbEntity
  8
SLD
100
AcDbCircle
 10
200.4868367113385
 20
157.999779111069
 30
0.0
 40
4.219042652046427
100
AcDbArc
 50
-62.875315520028686
 51
62.88847726338145
  0
CIRCLE
  5
63
330
17
100
AcDbEntity
  8
SLD
100
AcDbCircle
 10
201.2343421524083
 20
161.7552383017033
 30
0.0
 40
0.744761698296705
  0
CIRCLE
  5
64
330
17
100
AcDbEntity
  8
SLD
100
AcDbCircle
 10
201.24602012519532
 20
154.2447616982967
 30
0.0
 40
0.744761698296705
  0
LINE
  5
65
330
17
100
AcDbEntity
  8
SLD-LINE
100
AcDbLine
 10
201.45
 20
153.5
 30
0.0
 11
201.45
 21
151.5
 31
0.0
  0
LINE
  5
66
330
17
100
AcDbEntity
  8
SLD-LINE
100
AcDbLine
 10
201.45
 20
162.5
 30
0.0
 11
201.45
 21
164.5
 31
0.0
  0
MTEXT
  5
67
330
17
100
AcDbEntity
  8
SLD-TXT
100
AcDbMText
 10
205.41041879315068
 20
160.0
 30
0.0
 40
1.6
 71
1
  1
63A TPN MCCB\PType B, 10kA
  7
SLD-TXT
  0
ARC
  5
68
330
17
100
AcDbEntity
  8
SLD
100
AcDbCircle
 10
200.6966563252744
 20
136.19977911106898
 30
0.0
 40
4.219042652046427
100
AcDbArc
 50
-62.875315520028686
 51
62.88847726338145
  0
CIRCLE
  5
69
330
17
100
AcDbEntity
  8
SLD
100
AcDbCircle
 10
201.4441617663442
 20
139.95523830170328
 30
0.0
 40
0.744761698296705
  0
CIRCLE
  5
6A
330
17
100
AcDbEntity
  8
SLD
100
AcDbCircle
 10
201.45583973913122
 20
132.4447616982967
 30
0.0
 40
0.744761698296705
  0
LINE
  5
6B
330
17
100
AcDbEntity
  8
SLD
100
AcDbLine
 10
204.91569774269016
 20
136.20026345819744
 30
0.0
 11
206.7289209354422
 21
136.20026345819744
 31
0.0
  0
LINE
  5
6C
330
17
100
AcDbEntity
  8
SLD
100
AcDbLine
 10
206.7289209354422
 20
134.55977550350624
 30
0.0
 11
206.7289209354422
 21
137.84075141288866
 31
0.0
  0
LINE
  5
6D
330
17
100
AcDbEntity
  8
SLD-LINE
100
AcDbLine
 10
201.45
 20
131.7
 30
0.0
 11
201.45
 21
129.7
 31
0.0
  0
LINE
  5
6E
330
17
100
AcDbEntity
  8
SLD-LINE
100
AcDbLine
 10
201.45
 20
140.7
 30
0.0
 11
201.45
 21
142.7
 31
0.0
  0
MTEXT
  5
6F
330
17
100
AcDbEntity
  8
SLD-TXT
100
AcDbMText
 10
207.46476043369734
 20
138.2
 30
0.0
 40
1.6
 71
1
  1
63A 4P RCCB\P30mA
  7
SLD-TXT
  0
MTEXT
  5
70
330
17
100
AcDbEntity
  8
SLD-TXT
100
AcDbMText
 10
196.5
 20
112.9
 30
0.0
 40
2.8
 71
1
  1

  7
SLD-TXT
  0
MTEXT
  5
71
330
17
100
AcDbEntity
  8
SLD-TXT
100
AcDbMText
 10
214.5
 20
116.89999999999999
 30
0.0
 40
2.8
 71
1
  1
4x16mm² PVC + 10mm² ECC
  7
SLD-TXT
  0
LINE
  5
72
330
17
100
AcDbEntity
  8
SLD-LINE
370
50
100
AcDbLine
 10
128.5
 20
100.1
 30
0.0
 11
274.5
 21
100.1
 31
0.0
  0
MTEXT
  5
73
330
17
100
AcDbEntity
  8
SLD-TXT
100
AcDbMText
 10
128.5
 20
106.6
 30
0.0
 40
2.8
 71
1
  1
63A BUSBAR
  7
SLD-TXT
  0
ARC
  5
74
330
17
100
AcDbEntity
  8
SLD
100
AcDbCircle
 10
134.1438548545231
 20
69.29980365428354
 30
0.0
 40
3.750260135152387
100
AcDbArc
 50
-62.875315520028344
 51
62.88847726338142
  0
CIRCLE
  5
75
330
17
100
AcDbEntity
  8
SLD
100
AcDbCircle
 10
134.80830413547406
 20
72.63798960151404
 30
0.0
 40
0.6620103984859601
  0
CIRCLE
  5
76
330
17
100
AcDbEntity
  8
SLD
100
AcDbCircle
 10
134.8186845557292
 20
65.96201039848596
 30
0.0
 40
0.6620103984859601
  0
LINE
  5
77
330
17
100
AcDbEntity
  8
SLD-LINE
100
AcDbLine
 10
135.0
 20
65.3
 30
0.0
 11
135.0
 21
63.3
 31
0.0
  0
LINE
  5
78
330
17
100
AcDbEntity
  8
SLD-LINE
100
AcDbLine
 10
135.0
 20
73.3
 30
0.0
 11
135.0
 21
75.3
 31
0.0
  0
LINE
  5
79
330
17
100
AcDbEntity
  8
SLD
100
AcDbLine
 10
131.89411497839956
 20
69.3
 30
0.0
 11
137.89411497839956
 21
69.3
 31
0.0
  0
LINE
  5
7A
330
17
100
AcDbEntity
  8
SLD
100
AcDbLine
 10
137.89411497839956
 20
69.3
 30
0.0
 11
136.69411497839957
 21
69.89999999999999
 31
0.0
  0
LINE
  5
7B
330
17
100
AcDbEntity
  8
SLD
100
AcDbLine
 10
137.89411497839956
 20
69.3
 30
0.0
 11
136.69411497839957
 21
68.7
 31
0.0
  0
MTEXT
  5
7C
330
17
100
AcDbEntity
  8
SLD-TXT
100
AcDbMText
 10
126.5
 20
72.3
 30
0.0
 40
2.0
 71
1
  1
20A\PSPN\PMCB
  7
SLD-TXT
  0
ARC
  5
7D
330
17
100
AcDbEntity
  8
SLD
100
AcDbCircle
 10
153.1438548545231
 20
69.29980365428354
 30
0.0
 40
3.750260135152387
100
AcDbArc
 50
-62.875315520028344
 51
62.88847726338142
  0
CIRCLE
  5
7E
330
17
100
AcDbEntity
  8
SLD
100
AcDbCircle
 10
153.80830413547406
 20
72.63798960151404
 30
0.0
 40
0.6620103984859601
  0
CIRCLE
  5
7F
330
17
100
AcDbEntity
  8
SLD
100
AcDbCircle
 10
153.8186845557292
 20
65.96201039848596
 30
0.0
 40
0.6620103984859601
  0
LINE
  5
80
330
17
100
AcDbEntity
  8
SLD-LINE
100
AcDbLine
 10
154.0
 20
65.3
 30
0.0
 11
154.0
 21
63.3
 31
0.0
  0
LINE
  5
81
330
17
100
AcDbEntity
  8
SLD-LINE
100
AcDbLine
 10
154.0
 20
73.3
 30
0.0
 11
154.0
 21
75.3
 31
0.0
  0
LINE
  5
82
330
17
100
AcDbEntity
  8
SLD
100
AcDbLine
 10
137.89411497839956
 20
69.3
 30
0.0
 11
156.89411497839956
 21
69.3
 31
0.0
  0
LINE
  5
83
330
17
100
AcDbEntity
  8
SLD
100
AcDbLine
 10
156.89411497839956
 20
69.3
 30
0.0
 11
155.69411497839957
 21
69.89999999999999
 31
0.0
  0
LINE
  5
84
330
17
100
AcDbEntity
  8
SLD
100
AcDbLine
 10
156.89411497839956
 20
69.3
 30
0.0
 11
155.69411497839957
 21
68.7
 31
0.0
  0
MTEXT
  5
85
330
17
100
AcDbEntity
  8
SLD-TXT
100
AcDbMText
 10
145.5
 20
72.3
 30
0.0
 40
2.0
 71
1
  1
20A
  7
SLD-TXT
  0
ARC
  5
86
330
17
100
AcDbEntity
  8
SLD
100
AcDbCircle
 10
172.1438548545231
 20
69.29980365428354
 30
0.0
 40
3.750260135152387
100
AcDbArc
 50
-62.875315520028344
 51
62.88847726338142
  0
CIRCLE
  5
87
330
17
100
AcDbEntity
  8
SLD
100
AcDbCircle
 10
172.80830413547406
 20
72.63798960151404
 30
0.0
 40
0.6620103984859601
  0
CIRCLE
  5
88
330
17
100
AcDbEntity
  8
SLD
100
AcDbCircle
 10
172.8186845557292
 20
65.96201039848596
 30
0.0
 40
0.6620103984859601
  0
LINE
  5
89
330
17
100
AcDbEntity
  8
SLD-LINE
100
AcDbLine
 10
173.0
 20
65.3
 30
0.0
 11
173.0
 21
63.3
 31
0.0
  0
LINE
  5
8A
330
17
100
AcDbEntity
  8
SLD-LINE
100
AcDbLine
 10
173.0
 20
73.3
 30
0.0
 11
173.0
 21
75.3
 31
0.0
  0
LINE
  5
8B
330
17
100
AcDbEntity
  8
SLD
100
AcDbLine
 10
169.89411497839956
 20
69.3
 30
0.0
 11
175.89411497839956
 21
69.3
 31
0.0
  0
LINE
  5
8C
330
17
100
AcDbEntity
  8
SLD
100
AcDbLine
 10
175.89411497839956
 20
69.3
 30
0.0
 11
174.69411497839957
 21
69.89999999999999
 31
0.0
  0
LINE
  5
8D
330
17
100
AcDbEntity
  8
SLD
100
AcDbLine
 10
175.89411497839956
 20
69.3
 30
0.0
 11
174.69411497839957
 21
68.7
 31
0.0
  0
MTEXT
  5
8E
330
17
100
AcDbEntity
  8
SLD-TXT
100
AcDbMText
 10
164.5
 20
72.3
 30
0.0
 40
2.0
 71
1
  1
32A\PSPN\PMCB
  7
SLD-TXT
  0
ARC
  5
8F
330
17
100
AcDbEntity
  8
SLD
100
AcDbCircle
 10
191.1438548545231
 20
69.29980365428354
 30
0.0
 40
3.750260135152387
100
AcDbArc
 50
-62.875315520028344
 51
62.88847726338142
  0
CIRCLE
  5
90
330
17
100
AcDbEntity
  8
SLD
100
AcDbCircle
 10
191.80830413547406
 20
72.63798960151404
 30
0.0
 40
0.6620103984859601
  0
CIRCLE
  5
91
330
17
100
AcDbEntity
  8
SLD
100
AcDbCircle
 10
191.8186845557292
 20
65.96201039848596
 30
0.0
 40
0.6620103984859601
  0
LINE
  5
92
330
17
100
AcDbEntity
  8
SLD-LINE
100
AcDbLine
 10
192.0
 20
65.3
 30
0.0
 11
192.0
 21
63.3
 31
0.0
  0
LINE
  5
93
330
17
100
AcDbEntity
  8
SLD-LINE
100
AcDbLine
 10
192.0
 20
73.3
 30
0.0
 11
192.0
 21
75.3
 31
0.0
  0
LINE
  5
94
330
17
100
AcDbEntity
  8
SLD
100
AcDbLine
 10
175.89411497839956
 20
69.3
 30
0.0
 11
194.89411497839956
 21
69.3
 31
0.0
  0
LINE
  5
95
330
17
100
AcDbEntity
  8
SLD
100
AcDbLine
 10
194.89411497839956
 20
69.3
 30
0.0
 11
193.69411497839957
 21
69.89999999999999
 31
0.0
  0
LINE
  5
96
330
17
100
AcDbEntity
  8
SLD
100
AcDbLine
 10
194.89411497839956
 20
69.3
 30
0.0
 11
193.69411497839957
 21
68.7
 31
0.0
  0
MTEXT
  5
97
330
17
100
AcDbEntity
  8
SLD-TXT
100
AcDbMText
 10
183.5
 20
72.3
 30
0.0
 40
2.0
 71
1
  1
32A
  7
SLD-TXT
  0
ARC
  5
98
330
17
100
AcDbEntity
  8
SLD
100
AcDbCircle
 10
210.1438548545231
 20
69.29980365428354
 30
0.0
 40
3.750260135152387
100
AcDbArc
 50
-62.875315520028344
 51
62.88847726338142
  0
CIRCLE
  5
99
330
17
100
AcDbEntity
  8
SLD
100
AcDbCircle
 10
210.80830413547406
 20
72.63798960151404
 30
0.0
 40
0.6620103984859601
  0
CIRCLE
  5
9A
330
17
100
AcDbEntity
  8
SLD
100
AcDbCircle
 10
210.8186845557292
 20
65.96201039848596
 30
0.0
 40
0.6620103984859601
  0
LINE
  5
9B
330
17
100
AcDbEntity
  8
SLD-LINE
100
AcDbLine
 10
211.0
 20
65.3
 30
0.0
 11
211.0
 21
63.3
 31
0.0
  0
LINE
  5
9C
330
17
100
AcDbEntity
  8
SLD-LINE
100
AcDbLine
 10
211.0
 20
73.3
 30
0.0
 11
211.0
 21
75.3
 31
0.0
  0
LINE
  5
9D
330
17
100
AcDbEntity
  8
SLD
100
AcDbLine
 10
156.89411497839956
 20
69.3
 30
0.0
 11
213.89411497839956
 21
69.3
 31
0.0
  0
LINE
  5
9E
330
17
100
AcDbEntity
  8
SLD
100
AcDbLine
 10
213.89411497839956
 20
69.3
 30
0.0
 11
212.69411497839957
 21
69.89999999999999
 31
0.0
  0
LINE
  5
9F
330
17
100
AcDbEntity
  8
SLD
100
AcDbLine
 10
213.89411497839956
 20
69.3
 30
0.0
 11
212.69411497839957
 21
68.7
 31
0.0
  0
MTEXT
  5
A0
330
17
100
AcDbEntity
  8
SLD-TXT
100
AcDbMText
 10
202.5
 20
72.3
 30
0.0
 40
2.0
 71
1
  1
20A
  7
SLD-TXT
  0
ARC
  5
A1
330
17
100
AcDbEntity
  8
SLD
100
AcDbCircle
 10
229.1438548545231
 20
69.29980365428354
 30
0.0
 40
3.750260135152387
100
AcDbArc
 50
-62.875315520028344
 51
62.88847726338142
  0
CIRCLE
  5
A2
330
17
100
AcDbEntity
  8
SLD
100
AcDbCircle
 10
229.80830413547406
 20
72.63798960151404
 30
0.0
 40
0.6620103984859601
  0
CIRCLE
  5
A3
330
17
100
AcDbEntity
  8
SLD
100
AcDbCircle
 10
229.8186845557292
 20
65.96201039848596
 30
0.0
 40
0.6620103984859601
  0
LINE
  5
A4
330
17
100
AcDbEntity
  8
SLD-LINE
100
AcDbLine
 10
230.0
 20
65.3
 30
0.0
 11
230.0
 21
63.3
 31
0.0
  0
LINE
  5
A5
330
17
100
AcDbEntity
  8
SLD-LINE
100
AcDbLine
 10
230.0
 20
73.3
 30
0.0
 11
230.0
 21
75.3
 31
0.0
  0
LINE
  5
A6
330
17
100
AcDbEntity
  8
SLD
100
AcDbLine
 10
213.89411497839956
 20
69.3
 30
0.0
 11
232.89411497839956
 21
69.3
 31
0.0
  0
LINE
  5
A7
330
17
100
AcDbEntity
  8
SLD
100
AcDbLine
 10
232.89411497839956
 20
69.3
 30
0.0
 11
231.69411497839957
 21
69.89999999999999
 31
0.0
  0
LINE
  5
A8
330
17
100
AcDbEntity
  8
SLD
100
AcDbLine
 10
232.89411497839956
 20
69.3
 30
0.0
 11
231.69411497839957
 21
68.7
 31
0.0
  0
MTEXT
  5
A9
330
17
100
AcDbEntity
  8
SLD-TXT
100
AcDbMText
 10
221.5
 20
72.3
 30
0.0
 40
2.0
 71
1
  1
20A
  7
SLD-TXT
  0
ARC
  5
AA
330
17
100
AcDbEntity
  8
SLD
100
AcDbCircle
 10
248.1438548545231
 20
69.29980365428354
 30
0.0
 40
3.750260135152387
100
AcDbArc
 50
-62.875315520028344
 51
62.88847726338142
  0
CIRCLE
  5
AB
330
17
100
AcDbEntity
  8
SLD
100
AcDbCircle
 10
248.80830413547406
 20
72.63798960151404
 30
0.0
 40
0.6620103984859601
  0
CIRCLE
  5
AC
330
17
100
AcDbEntity
  8
SLD
100
AcDbCircle
 10
248.8186845557292
 20
65.96201039848596
 30
0.0
 40
0.6620103984859601
  0
LINE
  5
AD
330
17
100
AcDbEntity
  8
SLD-LINE
100
AcDbLine
 10
249.0
 20
65.3
 30
0.0
 11
249.0
 21
63.3
 31
0.0
  0
LINE
  5
AE
330
17
100
AcDbEntity
  8
SLD-LINE
100
AcDbLine
 10
249.0
 20
73.3
 30
0.0
 11
249.0
 21
75.3
 31
0.0
  0
LINE
  5
AF
330
17
100
AcDbEntity
  8
SLD
100
AcDbLine
 10
232.89411497839956
 20
69.3
 30
0.0
 11
251.89411497839956
 21
69.3
 31
0.0
  0
LINE
  5
B0
330
17
100
AcDbEntity
  8
SLD
100
AcDbLine
 10
251.89411497839956
 20
69.3
 30
0.0
 11
250.69411497839957
 21
69.89999999999999
 31
0.0
  0
LINE
  5
B1
330
17
100
AcDbEntity
  8
SLD
100
AcDbLine
 10
251.89411497839956
 20
69.3
 30
0.0
 11
250.69411497839957
 21
68.7
 31
0.0
  0
MTEXT
  5
B2
330
17
100
AcDbEntity
  8
SLD-TXT
100
AcDbMText
 10
240.5
 20
72.3
 30
0.0
 40
2.0
 71
1
  1
20A
  7
SLD-TXT
  0
ARC
  5
B3
330
17
100
AcDbEntity
  8
SLD
100
AcDbCircle
 10
267.1438548545231
 20
69.29980365428354
 30
0.0
 40
3.750260135152387
100
AcDbArc
 50
-62.875315520028344
 51
62.88847726338102
  0
CIRCLE
  5
B4
330
17
100
AcDbEntity
  8
SLD
100
AcDbCircle
 10
267.80830413547403
 20
72.63798960151404
 30
0.0
 40
0.6620103984859601
  0
CIRCLE
  5
B5
330
17
100
AcDbEntity
  8
SLD
100
AcDbCircle
 10
267.8186845557292
 20
65.96201039848596
 30
0.0
 40
0.6620103984859601
  0
LINE
  5
B6
330
17
100
AcDbEntity
  8
SLD-LINE
100
AcDbLine
 10
268.0
 20
65.3
 30
0.0
 11
268.0
 21
63.3
 31
0.0
  0
LINE
  5
B7
330
17
100
AcDbEntity
  8
SLD-LINE
100
AcDbLine
 10
268.0
 20
73.3
 30
0.0
 11
268.0
 21
75.3
 31
0.0
  0
LINE
  5
B8
330
17
100
AcDbEntity
  8
SLD
100
AcDbLine
 10
251.89411497839956
 20
69.3
 30
0.0
 11
270.89411497839956
 21
69.3
 31
0.0
  0
LINE
  5
B9
330
17
100
AcDbEntity
  8
SLD
100
AcDbLine
 10
270.89411497839956
 20
69.3
 30
0.0
 11
269.69411497839957
 21
69.89999999999999
 31
0.0
  0
LINE
  5
BA
330
17
100
AcDbEntity
  8
SLD
100
AcDbLine
 10
270.89411497839956
 20
69.3
 30
0.0
 11
269.69411497839957
 21
68.7
 31
0.0
  0
MTEXT
  5
BB
330
17
100
AcDbEntity
  8
SLD-TXT
100
AcDbMText
 10
259.5
 20
72.3
 30
0.0
 40
2.0
 71
1
  1
20A
  7
SLD-TXT
  0
LINE
  5
BC
330
17
100
AcDbEntity
  8
SLD
100
AcDbLine
 10
199.25
 20
55.8
 30
0.0
 11
199.25
 21
54.0
 31
0.0
  0
LINE
  5
BD
330
17
100
AcDbEntity
  8
SLD
100
AcDbLine
 10
197.0
 20
54.0
 30
0.0
 11
201.5
 21
54.0
 31
0.0
  0
LINE
  5
BE
330
17
100
AcDbEntity
  8
SLD
100
AcDbLine
 10
197.75
 20
52.875
 30
0.0
 11
200.75
 21
52.875
 31
0.0
  0
LINE
  5
BF
330
17
100
AcDbEntity
  8
SLD
100
AcDbLine
 10
198.5
 20
51.75
 30
0.0
 11
200.0
 21
51.75
 31
0.0
  0
MTEXT
  5
C0
330
17
100
AcDbEntity
  8
SLD-TXT
100
AcDbMText
 10
204.5
 20
55.55
 30
0.0
 40
1.6
 71
1
  1
E
  7
SLD-TXT
  0
MTEXT
  5
C1
330
17
100
AcDbEntity
  8
SLD-TXT
100
AcDbMText
 10
208.5
 20
55.3
 30
0.0
 40
2.8
 71
1
  1
EARTH BAR 35mm² CPC
  7
SLD-TXT
  0
LINE
  5
C2
330
17
100
AcDbEntity
  8
SLD-LINE
100
AcDbLine
 10
201.5
 20
265.7
 30
0.0
 11
201.45
 21
164.5
 31
0.0
  0
LINE
  5
C3
330
17
100
AcDbEntity
  8
SLD-LINE
100
AcDbLine
 10
201.45
 20
151.5
 30
0.0
 11
201.45
 21
142.7
 31
0.0
  0
LINE
  5
C4
330
17
100
AcDbEntity
  8
SLD-LINE
100
AcDbLine
 10
201.45
 20
129.7
 30
0.0
 11
201.5
 21
100.1
 31
0.0
  0
LINE
  5
C5
330
17
100
AcDbEntity
  8
SLD-LINE
100
AcDbLine
 10
135.0
 20
100.1
 30
0.0
 11
135.0
 21
75.3
 31
0.0
  0
LINE
  5
C6
330
17
100
AcDbEntity
  8
SLD-LINE
100
AcDbLine
 10
154.0
 20
100.1
 30
0.0
 11
154.0
 21
75.3
 31
0.0
  0
LINE
  5
C7
330
17
100
AcDbEntity
  8
SLD-LINE
100
AcDbLine
 10
173.0
 20
100.1
 30
0.0
 11
173.0
 21
75.3
 31
0.0
  0
LINE
  5
C8
330
17
100
AcDbEntity
  8
SLD-LINE
100
AcDbLine
 10
192.0
 20
100.1
 30
0.0
 11
192.0
 21
75.3
 31
0.0
  0
LINE
  5
C9
330
17
100
AcDbEntity
  8
SLD-LINE
100
AcDbLine
 10
211.0
 20
100.1
 30
0.0
 11
211.0
 21
75.3
 31
0.0
  0
LINE
  5
CA
330
17
100
AcDbEntity
  8
SLD-LINE
100
AcDbLine
 10
230.0
 20
100.1
 30
0.0
 11
230.0
 21
75.3
 31
0.0
  0
LINE
  5
CB
330
17
100
AcDbEntity
  8
SLD-LINE
100
AcDbLine
 10
249.0
 20
100.1
 30
0.0
 11
249.0
 21
75.3
 31
0.0
  0
LINE
  5
CC
330
17
100
AcDbEntity
  8
SLD-LINE
100
AcDbLine
 10
268.0
 20
100.1
 30
0.0
 11
268.0
 21
75.3
 31
0.0
  0
LINE
  5
CD
330
17
100
AcDbEntity
  8
SLD-LINE
  6
DASHED
100
AcDbLine
 10
186.5
 20
194.1
 30
0.0
 11
216.5
 21
194.1
 31
0.0
  0
LINE
  5
CE
330
17
100
AcDbEntity
  8
SLD-LINE
  6
DASHED
100
AcDbLine
 10
186.5
 20
236.1
 30
0.0
 11
216.5
 21
236.1
 31
0.0
  0
LINE
  5
CF
330
17
100
AcDbEntity
  8
SLD-LINE
  6
DASHED
100
AcDbLine
 10
186.5
 20
194.1
 30
0.0
 11
186.5
 21
236.1
 31
0.0
  0
LINE
  5
D0
330
17
100
AcDbEntity
  8
SLD-LINE
  6
DASHED
100
AcDbLine
 10
216.5
 20
194.1
 30
0.0
 11
216.5
 21
236.1
 31
0.0
  0
MTEXT
  5
D1
330
17
100
AcDbEntity
  8
SLD-TXT
100
AcDbMText
 10
13.0
 20
35.0
 30
0.0
 40
3.0
 71
1
  1
CP-SAT Solver Adapter Demo
  7
SLD-TXT
  0
MTEXT
  5
D2
330
17
100
AcDbEntity
  8
SLD-TXT
100
AcDbMText
 10
13.0
 20
30.8
 30
0.0
 40
2.0
 71
1
  1
(test fixture)
  7
SLD-TXT
  0
MTEXT
  5
D3
330
17
100
AcDbEntity
  8
SLD-TXT
100
AcDbMText
 10
153.0
 20
35.0
 30
0.0
 40
3.0
 71
1
  1
LicenseKaki
  7
SLD-TXT
  0
MTEXT
  5
D4
330
17
100
AcDbEntity
  8
SLD-TXT
100
AcDbMText
 10
225.0
 20
36.0
 30
0.0
 40
3.5
 71
1
  1
SINGLE LINE DIAGRAM\P(SLD)
  7
SLD-TXT
  0
MTEXT
  5
D5
330
17
100
AcDbEntity
  8
SLD-TXT
100
AcDbMText
 10
293.0
 20
35.0
 30
0.0
 40
3.0
 71
1
  1
—
  7
SLD-TXT
  0
MTEXT
  5
D6
330
17
100
AcDbEntity
  8
SLD-TXT
100
AcDbMText
 10
293.0
 20
30.8
 30
0.0
 40
2.0
 71
1
  1
EMA Licence No. : —
  7
SLD-TXT
  0
MTEXT
  5
D7
330
17
100
AcDbEntity
  8
SLD-TXT
100
AcDbMText
 10
293.0
 20
27.6
 30
0.0
 40
2.0
 71
1
  1
Mobile Number. : —
  7
SLD-TXT
  0
MTEXT
  5
D8
330
17
100
AcDbEntity
  8
SLD-TXT
100
AcDbMText
 10
389.0
 20
33.0
 30
0.0
 40
2.5
 71
1
  1
25 MAY 2026
  7
SLD-TXT
  0
MTEXT
  5
D9
330
17
100
AcDbEntity
  8
SLD-TXT
100
AcDbMText
 10
365.0
 20
21.0
 30
0.0
 40
2.5
 71
1
  1
SLD-001
  7
SLD-TXT
  0
MTEXT
  5
DA
330
17
100
AcDbEntity
  8
SLD-TXT
100
AcDbMText
 10
394.0
 20
21.0
 30
0.0
 40
3.5
 71
1
  1
0
  7
SLD-TXT
  0
MTEXT
  5
DB
330
17
100
AcDbEntity
  8
SLD-TXT
100
AcDbMText
 10
365.0
 20
12.0
 30
0.0
 40
1.6
 71
1
  1
SCALE : NTS
  7
SLD-TXT
  0
MTEXT
  5
DC
330
17
100
AcDbEntity
  8
SLD-TXT
100
AcDbMText
 10
389.0
 20
12.0
 30
0.0
 40
1.6
 71
1
  1
SHEET : 1 OF 1
  7
SLD-TXT
  0
VIEWPORT
  5
DD
330
1B
100
AcDbEntity
 67
1
  8
VIEWPORTS
100
AcDbViewport
 10
210.0
 20
148.5
 30
0.0
 40
400.0
 41
277.0
 68
1
 69
3
 12
211.0
 22
141.35
 13
0.0
 23
0.0
 14
10.0
 24
10.0
 15
10.0
 25
10.0
 16
0.0
 26
0.0
 36
1.0
 17
0.0
 27
0.0
 37
0.0
 42
50.0
 43
0.0
 44
0.0
 45
262.7
 50
0.0
 51
0.0
 72
100
 90
0
  1

281
0
 71
0
 74
0
110
0.0
120
0.0
130
0.0
111
1.0
121
0.0
131
0.0
112
0.0
122
1.0
132
0.0
 79
0
146
0.0
282
0
  0
ENDSEC
  0
SECTION
  2
OBJECTS
  0
DICTIONARY
  5
A
330
0
100
AcDbDictionary
281
1
  3
ACAD_COLOR
350
B
  3
ACAD_GROUP
350
C
  3
ACAD_LAYOUT
350
D
  3
ACAD_MATERIAL
350
E
  3
ACAD_MLEADERSTYLE
350
F
  3
ACAD_MLINESTYLE
350
10
  3
ACAD_PLOTSETTINGS
350
11
  3
ACAD_PLOTSTYLENAME
350
12
  3
ACAD_SCALELIST
350
14
  3
ACAD_TABLESTYLE
350
15
  3
ACAD_VISUALSTYLE
350
16
  3
EZDXF_META
350
2D
  0
DICTIONARY
  5
B
330
A
100
AcDbDictionary
281
1
  0
DICTIONARY
  5
C
330
A
100
AcDbDictionary
281
1
  0
DICTIONARY
  5
D
330
A
100
AcDbDictionary
281
1
  3
Model
350
1A
  3
Layout1
350
1E
  0
DICTIONARY
  5
E
330
A
100
AcDbDictionary
281
1
  3
ByBlock
350
1F
  3
ByLayer
350
20
  3
Global
350
21
  0
DICTIONARY
  5
F
330
A
100
AcDbDictionary
281
1
  3
Standard
350
2C
  0
DICTIONARY
  5
10
330
A
100
AcDbDictionary
281
1
  3
Standard
350
22
  0
DICTIONARY
  5
11
330
A
100
AcDbDictionary
281
1
  0
ACDBDICTIONARYWDFLT
  5
12
330
A
100
AcDbDictionary
281
1
  3
Normal
350
13
100
AcDbDictionaryWithDefault
340
13
  0
ACDBPLACEHOLDER
  5
13
330
12
  0
DICTIONARY
  5
14
330
A
100
AcDbDictionary
281
1
  0
DICTIONARY
  5
15
330
A
100
AcDbDictionary
281
1
  0
DICTIONARY
  5
16
330
A
100
AcDbDictionary
281
1
  0
LAYOUT
  5
1A
330
D
100
AcDbPlotSettings
  1

  4
A3
  6

 40
7.5
 41
20.0
 42
7.5
 43
20.0
 44
420.0
 45
297.0
 46
0.0
 47
0.0
 48
0.0
 49
0.0
140
0.0
141
0.0
142
1.0
143
1.0
 70
1024
 72
1
 73
0
 74
5
  7

 75
16
 76
0
 77
2
 78
300
147
1.0
148
0.0
149
0.0
100
AcDbLayout
  1
Model
 70
1
 71
0
 10
0.0
 20
0.0
 11
420.0
 21
297.0
 12
0.0
 22
0.0
 32
0.0
 14
1e+20
 24
1e+20
 34
1e+20
 15
-1e+20
 25
-1e+20
 35
-1e+20
146
0.0
 13
0.0
 23
0.0
 33
0.0
 16
1.0
 26
0.0
 36
0.0
 17
0.0
 27
1.0
 37
0.0
 76
1
330
17
  0
LAYOUT
  5
1E
330
D
100
AcDbPlotSettings
  1

  4
A3
  6

 40
7.5
 41
20.0
 42
7.5
 43
20.0
 44
420.0
 45
297.0
 46
0.0
 47
0.0
 48
0.0
 49
0.0
140
0.0
141
0.0
142
1.0
143
1.0
 70
0
 72
1
 73
0
 74
5
  7

 75
16
 76
0
 77
2
 78
300
147
1.0
148
0.0
149
0.0
100
AcDbLayout
  1
Layout1
 70
1
 71
1
 10
0.0
 20
0.0
 11
420.0
 21
297.0
 12
0.0
 22
0.0
 32
0.0
 14
1e+20
 24
1e+20
 34
1e+20
 15
-1e+20
 25
-1e+20
 35
-1e+20
146
0.0
 13
0.0
 23
0.0
 33
0.0
 16
1.0
 26
0.0
 36
0.0
 17
0.0
 27
1.0
 37
0.0
 76
1
330
1B
  0
MATERIAL
  5
1F
102
{ACAD_REACTORS
330
E
102
}
330
E
100
AcDbMaterial
  1
ByBlock
  2

 70
0
 40
1.0
 71
1
 41
1.0
 91
-1023410177
 42
1.0
 72
1
  3

 73
1
 74
1
 75
1
 44
0.5
 73
0
 45
1.0
 46
1.0
 77
1
  4

 78
1
 79
1
170
1
 48
1.0
171
1
  6

172
1
173
1
174
1
140
1.0
141
1.0
175
1
  7

176
1
177
1
178
1
143
1.0
179
1
  8

270
1
271
1
272
1
145
1.0
146
1.0
273
1
  9

274
1
275
1
276
1
 42
1.0
 72
1
  3

 73
1
 74
1
 75
1
 94
63
  0
MATERIAL
  5
20
102
{ACAD_REACTORS
330
E
102
}
330
E
100
AcDbMaterial
  1
ByLayer
  2

 70
0
 40
1.0
 71
1
 41
1.0
 91
-1023410177
 42
1.0
 72
1
  3

 73
1
 74
1
 75
1
 44
0.5
 73
0
 45
1.0
 46
1.0
 77
1
  4

 78
1
 79
1
170
1
 48
1.0
171
1
  6

172
1
173
1
174
1
140
1.0
141
1.0
175
1
  7

176
1
177
1
178
1
143
1.0
179
1
  8

270
1
271
1
272
1
145
1.0
146
1.0
273
1
  9

274
1
275
1
276
1
 42
1.0
 72
1
  3

 73
1
 74
1
 75
1
 94
63
  0
MATERIAL
  5
21
102
{ACAD_REACTORS
330
E
102
}
330
E
100
AcDbMaterial
  1
Global
  2

 70
0
 40
1.0
 71
1
 41
1.0
 91
-1023410177
 42
1.0
 72
1
  3

 73
1
 74
1
 75
1
 44
0.5
 73
0
 45
1.0
 46
1.0
 77
1
  4

 78
1
 79
1
170
1
 48
1.0
171
1
  6

172
1
173
1
174
1
140
1.0
141
1.0
175
1
  7

176
1
177
1
178
1
143
1.0
179
1
  8

270
1
271
1
272
1
145
1.0
146
1.0
273
1
  9

274
1
275
1
276
1
 42
1.0
 72
1
  3

 73
1
 74
1
 75
1
 94
63
  0
MLINESTYLE
  5
22
102
{ACAD_REACTORS
330
10
102
}
330
10
100
AcDbMlineStyle
  2
Standard
 70
0
  3

 62
256
 51
90.0
 52
90.0
 71
2
 49
0.5
 62
256
  6
BYLAYER
 49
-0.5
 62
256
  6
BYLAYER
  0
MLEADERSTYLE
  5
2C
102
{ACAD_REACTORS
330
F
102
}
330
F
100
AcDbMLeaderStyle
179
2
170
2
171
1
172
0
 90
2
 40
0.0
 41
0.0
173
1
 91
-1056964608
 92
-2
290
1
 42
2.0
291
1
 43
8.0
  3
Standard
 44
4.0
300

342
29
174
1
175
1
176
0
178
1
 93
-1056964608
 45
4.0
292
0
297
0
 46
4.0
 94
-1056964608
 47
1.0
 49
1.0
140
1.0
294
1
141
0.0
177
0
142
1.0
295
0
296
0
143
3.75
271
0
272
9
273
9
  0
DICTIONARY
  5
2D
330
A
100
AcDbDictionary
280
1
281
1
  3
CREATED_BY_EZDXF
350
2E
  3
WRITTEN_BY_EZDXF
350
E0
  0
DICTIONARYVAR
  5
2E
330
2D
100
DictionaryVariables
280
0
  1
1.4.3 @ 2026-05-25T13:41:55.791630+00:00
  0
DICTIONARYVAR
  5
E0
330
2D
100
DictionaryVariables
280
0
  1
1.4.3 @ 2026-05-25T13:41:56.119506+00:00
  0
ENDSEC
  0
EOF
