  0
SECTION
  2
HEADER
  9
$ACADVER
  1
AC1032
  9
$ACADMAINTVER
 90
4
  9
$DWGCODEPAGE
  3
ANSI_1252
  9
$LASTSAVEDBY
  1
ezdxf
  9
$REQUIREDVERSIONS
160
0
  9
$INSBASE
 10
0.0
 20
0.0
 30
0.0
  9
$EXTMIN
 10
1e+20
 20
1e+20
 30
1e+20
  9
$EXTMAX
 10
-1e+20
 20
-1e+20
 30
-1e+20
  9
$LIMMIN
 10
0.0
 20
0.0
  9
$LIMMAX
 10
420.0
 20
297.0
  9
$ORTHOMODE
 70
0
  9
$REGENMODE
 70
1
  9
$FILLMODE
 70
1
  9
$QTEXTMODE
 70
0
  9
$MIRRTEXT
 70
1
  9
$LTSCALE
 40
1.0
  9
$ATTMODE
 70
1
  9
$TEXTSIZE
 40
2.5
  9
$TRACEWID
 40
1.0
  9
$TEXTSTYLE
  7
SLD-TXT
  9
$CLAYER
  8
0
  9
$CELTYPE
  6
ByLayer
  9
$CECOLOR
 62
256
  9
$CELTSCALE
 40
1.0
  9
$DISPSILH
 70
0
  9
$DIMSCALE
 40
1.0
  9
$DIMASZ
 40
2.5
  9
$DIMEXO
 40
0.625
  9
$DIMDLI
 40
3.75
  9
$DIMRND
 40
0.0
  9
$DIMDLE
 40
0.0
  9
$DIMEXE
 40
1.25
  9
$DIMTP
 40
0.0
  9
$DIMTM
 40
0.0
  9
$DIMTXT
 40
2.5
  9
$DIMCEN
 40
2.5
  9
$DIMTSZ
 40
0.0
  9
$DIMTOL
 70
0
  9
$DIMLIM
 70
0
  9
$DIMTIH
 70
0
  9
$DIMTOH
 70
0
  9
$DIMSE1
 70
0
  9
$DIMSE2
 70
0
  9
$DIMTAD
 70
1
  9
$DIMZIN
 70
8
  9
$DIMBLK
  1

  9
$DIMASO
 70
1
  9
$DIMSHO
 70
1
  9
$DIMPOST
  1

  9
$DIMAPOST
  1

  9
$DIMALT
 70
0
  9
$DIMALTD
 70
3
  9
$DIMALTF
 40
0.03937007874
  9
$DIMLFAC
 40
1.0
  9
$DIMTOFL
 70
1
  9
$DIMTVP
 40
0.0
  9
$DIMTIX
 70
0
  9
$DIMSOXD
 70
0
  9
$DIMSAH
 70
0
  9
$DIMBLK1
  1

  9
$DIMBLK2
  1

  9
$DIMSTYLE
  2
ISO-25
  9
$DIMCLRD
 70
0
  9
$DIMCLRE
 70
0
  9
$DIMCLRT
 70
0
  9
$DIMTFAC
 40
1.0
  9
$DIMGAP
 40
0.625
  9
$DIMJUST
 70
0
  9
$DIMSD1
 70
0
  9
$DIMSD2
 70
0
  9
$DIMTOLJ
 70
0
  9
$DIMTZIN
 70
8
  9
$DIMALTZ
 70
0
  9
$DIMALTTZ
 70
0
  9
$DIMUPT
 70
0
  9
$DIMDEC
 70
2
  9
$DIMTDEC
 70
2
  9
$DIMALTU
 70
2
  9
$DIMALTTD
 70
3
  9
$DIMTXSTY
  7
Standard
  9
$DIMAUNIT
 70
0
  9
$DIMADEC
 70
0
  9
$DIMALTRND
 40
0.0
  9
$DIMAZIN
 70
0
  9
$DIMDSEP
 70
44
  9
$DIMATFIT
 70
3
  9
$DIMFRAC
 70
0
  9
$DIMLDRBLK
  1

  9
$DIMLUNIT
 70
2
  9
$DIMLWD
 70
-2
  9
$DIMLWE
 70
-2
  9
$DIMTMOVE
 70
0
  9
$DIMFXL
 40
1.0
  9
$DIMFXLON
 70
0
  9
$DIMJOGANG
 40
0.785398163397
  9
$DIMTFILL
 70
0
  9
$DIMTFILLCLR
 70
0
  9
$DIMARCSYM
 70
0
  9
$DIMLTYPE
  6

  9
$DIMLTEX1
  6

  9
$DIMLTEX2
  6

  9
$DIMTXTDIRECTION
 70
0
  9
$LUNITS
 70
2
  9
$LUPREC
 70
4
  9
$SKETCHINC
 40
1.0
  9
$FILLETRAD
 40
10.0
  9
$AUNITS
 70
0
  9
$AUPREC
 70
2
  9
$MENU
  1
.
  9
$ELEVATION
 40
0.0
  9
$PELEVATION
 40
0.0
  9
$THICKNESS
 40
0.0
  9
$LIMCHECK
 70
0
  9
$CHAMFERA
 40
0.0
  9
$CHAMFERB
 40
0.0
  9
$CHAMFERC
 40
0.0
  9
$CHAMFERD
 40
0.0
  9
$SKPOLY
 70
0
  9
$TDCREATE
 40
2461262.9382175924
  9
$TDUCREATE
 40
2458532.153996898
  9
$TDUPDATE
 40
2461262.9382175924
  9
$TDUUPDATE
 40
2458532.1544311
  9
$TDINDWG
 40
0.0
  9
$TDUSRTIMER
 40
0.0
  9
$USRTIMER
 70
1
  9
$ANGBASE
 50
0.0
  9
$ANGDIR
 70
0
  9
$PDMODE
 70
0
  9
$PDSIZE
 40
0.0
  9
$PLINEWID
 40
0.0
  9
$SPLFRAME
 70
0
  9
$SPLINETYPE
 70
6
  9
$SPLINESEGS
 70
8
  9
$HANDSEED
  5
139
  9
$SURFTAB1
 70
6
  9
$SURFTAB2
 70
6
  9
$SURFTYPE
 70
6
  9
$SURFU
 70
6
  9
$SURFV
 70
6
  9
$UCSBASE
  2

  9
$UCSNAME
  2

  9
$UCSORG
 10
0.0
 20
0.0
 30
0.0
  9
$UCSXDIR
 10
1.0
 20
0.0
 30
0.0
  9
$UCSYDIR
 10
0.0
 20
1.0
 30
0.0
  9
$UCSORTHOREF
  2

  9
$UCSORTHOVIEW
 70
0
  9
$UCSORGTOP
 10
0.0
 20
0.0
 30
0.0
  9
$UCSORGBOTTOM
 10
0.0
 20
0.0
 30
0.0
  9
$UCSORGLEFT
 10
0.0
 20
0.0
 30
0.0
  9
$UCSORGRIGHT
 10
0.0
 20
0.0
 30
0.0
  9
$UCSORGFRONT
 10
0.0
 20
0.0
 30
0.0
  9
$UCSORGBACK
 10
0.0
 20
0.0
 30
0.0
  9
$PUCSBASE
  2

  9
$PUCSNAME
  2

  9
$PUCSORG
 10
0.0
 20
0.0
 30
0.0
  9
$PUCSXDIR
 10
1.0
 20
0.0
 30
0.0
  9
$PUCSYDIR
 10
0.0
 20
1.0
 30
0.0
  9
$PUCSORTHOREF
  2

  9
$PUCSORTHOVIEW
 70
0
  9
$PUCSORGTOP
 10
0.0
 20
0.0
 30
0.0
  9
$PUCSORGBOTTOM
 10
0.0
 20
0.0
 30
0.0
  9
$PUCSORGLEFT
 10
0.0
 20
0.0
 30
0.0
  9
$PUCSORGRIGHT
 10
0.0
 20
0.0
 30
0.0
  9
$PUCSORGFRONT
 10
0.0
 20
0.0
 30
0.0
  9
$PUCSORGBACK
 10
0.0
 20
0.0
 30
0.0
  9
$USERI1
 70
0
  9
$USERI2
 70
0
  9
$USERI3
 70
0
  9
$USERI4
 70
0
  9
$USERI5
 70
0
  9
$USERR1
 40
0.0
  9
$USERR2
 40
0.0
  9
$USERR3
 40
0.0
  9
$USERR4
 40
0.0
  9
$USERR5
 40
0.0
  9
$WORLDVIEW
 70
1
  9
$SHADEDGE
 70
3
  9
$SHADEDIF
 70
70
  9
$TILEMODE
 70
1
  9
$MAXACTVP
 70
64
  9
$PINSBASE
 10
0.0
 20
0.0
 30
0.0
  9
$PLIMCHECK
 70
0
  9
$PEXTMIN
 10
1e+20
 20
1e+20
 30
1e+20
  9
$PEXTMAX
 10
-1e+20
 20
-1e+20
 30
-1e+20
  9
$PLIMMIN
 10
0.0
 20
0.0
  9
$PLIMMAX
 10
420.0
 20
297.0
  9
$UNITMODE
 70
0
  9
$VISRETAIN
 70
1
  9
$PLINEGEN
 70
0
  9
$PSLTSCALE
 70
0
  9
$TREEDEPTH
 70
3020
  9
$CMLSTYLE
  2
Standard
  9
$CMLJUST
 70
0
  9
$CMLSCALE
 40
20.0
  9
$PROXYGRAPHICS
 70
1
  9
$MEASUREMENT
 70
1
  9
$CELWEIGHT
370
-1
  9
$ENDCAPS
280
0
  9
$JOINSTYLE
280
0
  9
$LWDISPLAY
290
0
  9
$INSUNITS
 70
4
  9
$HYPERLINKBASE
  1

  9
$STYLESHEET
  1

  9
$XEDIT
290
1
  9
$CEPSNTYPE
380
0
  9
$PSTYLEMODE
290
1
  9
$FINGERPRINTGUID
  2
{55505E90-3520-4860-A14C-EDC9F1CD11BC}
  9
$VERSIONGUID
  2
{D9CB89FD-265C-4BC4-8A97-3BF93910AC85}
  9
$EXTNAMES
290
1
  9
$PSVPSCALE
 40
0.0
  9
$OLESTARTUP
290
0
  9
$SORTENTS
280
127
  9
$INDEXCTL
280
0
  9
$HIDETEXT
280
1
  9
$XCLIPFRAME
280
1
  9
$HALOGAP
280
0
  9
$OBSCOLOR
 70
257
  9
$OBSLTYPE
280
0
  9
$INTERSECTIONDISPLAY
280
0
  9
$INTERSECTIONCOLOR
 70
257
  9
$DIMASSOC
280
2
  9
$PROJECTNAME
  1

  9
$CAMERADISPLAY
290
0
  9
$LENSLENGTH
 40
50.0
  9
$CAMERAHEIGHT
 40
0.0
  9
$STEPSPERSEC
 40
24.0
  9
$STEPSIZE
 40
100.0
  9
$3DDWFPREC
 40
2.0
  9
$PSOLWIDTH
 40
0.005
  9
$PSOLHEIGHT
 40
0.08
  9
$LOFTANG1
 40
1.570796326795
  9
$LOFTANG2
 40
1.570796326795
  9
$LOFTMAG1
 40
0.0
  9
$LOFTMAG2
 40
0.0
  9
$LOFTPARAM
 70
7
  9
$LOFTNORMALS
280
1
  9
$LATITUDE
 40
37.795
  9
$LONGITUDE
 40
-122.394
  9
$NORTHDIRECTION
 40
0.0
  9
$TIMEZONE
 70
-8000
  9
$LIGHTGLYPHDISPLAY
280
1
  9
$TILEMODELIGHTSYNCH
280
1
  9
$CMATERIAL
347
20
  9
$SOLIDHIST
280
0
  9
$SHOWHIST
280
1
  9
$DWFFRAME
280
2
  9
$DGNFRAME
280
2
  9
$REALWORLDSCALE
290
1
  9
$INTERFERECOLOR
 62
256
  9
$CSHADOW
280
0
  9
$SHADOWPLANELOCATION
 40
0.0
  0
ENDSEC
  0
SECTION
  2
CLASSES
  0
CLASS
  1
ACDBDICTIONARYWDFLT
  2
AcDbDictionaryWithDefault
  3
ObjectDBX Classes
 90
0
 91
0
280
0
281
0
  0
CLASS
  1
SUN
  2
AcDbSun
  3
SCENEOE
 90
1153
 91
0
280
0
281
0
  0
CLASS
  1
VISUALSTYLE
  2
AcDbVisualStyle
  3
ObjectDBX Classes
 90
4095
 91
0
280
0
281
0
  0
CLASS
  1
MATERIAL
  2
AcDbMaterial
  3
ObjectDBX Classes
 90
1153
 91
0
280
0
281
0
  0
CLASS
  1
SCALE
  2
AcDbScale
  3
ObjectDBX Classes
 90
1153
 91
0
280
0
281
0
  0
CLASS
  1
TABLESTYLE
  2
AcDbTableStyle
  3
ObjectDBX Classes
 90
4095
 91
0
280
0
281
0
  0
CLASS
  1
MLEADERSTYLE
  2
AcDbMLeaderStyle
  3
ACDB_MLEADERSTYLE_CLASS
 90
4095
 91
0
280
0
281
0
  0
CLASS
  1
DICTIONARYVAR
  2
AcDbDictionaryVar
  3
ObjectDBX Classes
 90
0
 91
0
280
0
281
0
  0
CLASS
  1
CELLSTYLEMAP
  2
AcDbCellStyleMap
  3
ObjectDBX Classes
 90
1152
 91
0
280
0
281
0
  0
CLASS
  1
MENTALRAYRENDERSETTINGS
  2
AcDbMentalRayRenderSettings
  3
SCENEOE
 90
1024
 91
0
280
0
281
0
  0
CLASS
  1
ACDBDETAILVIEWSTYLE
  2
AcDbDetailViewStyle
  3
ObjectDBX Classes
 90
1025
 91
0
280
0
281
0
  0
CLASS
  1
ACDBSECTIONVIEWSTYLE
  2
AcDbSectionViewStyle
  3
ObjectDBX Classes
 90
1025
 91
0
280
0
281
0
  0
CLASS
  1
RASTERVARIABLES
  2
AcDbRasterVariables
  3
ISM
 90
0
 91
0
280
0
281
0
  0
CLASS
  1
ACDBPLACEHOLDER
  2
AcDbPlaceHolder
  3
ObjectDBX Classes
 90
0
 91
0
280
0
281
0
  0
CLASS
  1
LAYOUT
  2
AcDbLayout
  3
ObjectDBX Classes
 90
0
 91
0
280
0
281
0
  0
ENDSEC
  0
SECTION
  2
TABLES
  0
TABLE
  2
VPORT
  5
8
330
0
100
AcDbSymbolTable
 70
1
  0
VPORT
  5
23
330
8
100
AcDbSymbolTableRecord
100
AcDbViewportTableRecord
  2
*Active
 70
0
 10
0.0
 20
0.0
 11
1.0
 21
1.0
 12
0.0
 22
0.0
 13
0.0
 23
0.0
 14
0.5
 24
0.5
 15
0.5
 25
0.5
 16
0.0
 26
0.0
 36
1.0
 17
0.0
 27
0.0
 37
0.0
 40
1000.0
 41
1.34
 42
50.0
 43
0.0
 44
0.0
 50
0.0
 51
0.0
 71
0
 72
1000
 73
1
 74
3
 75
0
 76
0
 77
0
 78
0
281
0
 65
0
146
0.0
  0
ENDTAB
  0
TABLE
  2
LTYPE
  5
2
330
0
100
AcDbSymbolTable
 70
5
  0
LTYPE
  5
24
330
2
100
AcDbSymbolTableRecord
100
AcDbLinetypeTableRecord
  2
ByBlock
 70
0
  3

 72
65
 73
0
 40
0.0
  0
LTYPE
  5
25
330
2
100
AcDbSymbolTableRecord
100
AcDbLinetypeTableRecord
  2
ByLayer
 70
0
  3

 72
65
 73
0
 40
0.0
  0
LTYPE
  5
26
330
2
100
AcDbSymbolTableRecord
100
AcDbLinetypeTableRecord
  2
Continuous
 70
0
  3

 72
65
 73
0
 40
0.0
  0
LTYPE
  5
2F
330
2
100
AcDbSymbolTableRecord
100
AcDbLinetypeTableRecord
  2
CENTER
 70
0
  3
Center ____ _ ____ _ ____
 72
65
 73
4
 40
1.25
 49
0.75
 74
0
 49
-0.125
 74
0
 49
0.25
 74
0
 49
-0.125
 74
0
  0
LTYPE
  5
30
330
2
100
AcDbSymbolTableRecord
100
AcDbLinetypeTableRecord
  2
DASHED
 70
0
  3
Dashed __ __ __ __ __
 72
65
 73
2
 40
0.75
 49
0.5
 74
0
 49
-0.25
 74
0
  0
ENDTAB
  0
TABLE
  2
LAYER
  5
1
330
0
100
AcDbSymbolTable
 70
9
  0
LAYER
  5
27
330
1
100
AcDbSymbolTableRecord
100
AcDbLayerTableRecord
  2
0
 70
0
 62
7
  6
Continuous
370
-3
390
13
347
21
  0
LAYER
  5
28
330
1
100
AcDbSymbolTableRecord
100
AcDbLayerTableRecord
  2
Defpoints
 70
0
 62
7
  6
Continuous
290
0
370
-3
390
13
347
21
  0
LAYER
  5
31
330
1
100
AcDbSymbolTableRecord
100
AcDbLayerTableRecord
  2
SLD
 70
0
 62
2
  6
Continuous
370
25
390
13
347
21
  0
LAYER
  5
32
330
1
100
AcDbSymbolTableRecord
100
AcDbLayerTableRecord
  2
SLD-LINE
 70
0
 62
7
  6
Continuous
370
25
390
13
347
21
  0
LAYER
  5
33
330
1
100
AcDbSymbolTableRecord
100
AcDbLayerTableRecord
  2
SLD-TXT
 70
0
 62
7
  6
Continuous
370
25
390
13
347
21
  0
LAYER
  5
34
330
1
100
AcDbSymbolTableRecord
100
AcDbLayerTableRecord
  2
TXT
 70
0
 62
7
  6
Continuous
370
25
390
13
347
21
  0
LAYER
  5
35
330
1
100
AcDbSymbolTableRecord
100
AcDbLayerTableRecord
  2
E-SLD-LEGENDF
 70
0
 62
2
  6
Continuous
370
25
390
13
347
21
  0
LAYER
  5
36
330
1
100
AcDbSymbolTableRecord
100
AcDbLayerTableRecord
  2
E-SLD-DB-TXT
 70
0
 62
3
  6
Continuous
370
25
390
13
347
21
  0
LAYER
  5
37
330
1
100
AcDbSymbolTableRecord
100
AcDbLayerTableRecord
  2
E-SLD-FRAME
 70
0
 62
8
  6
Continuous
370
25
390
13
347
21
  0
ENDTAB
  0
TABLE
  2
STYLE
  5
5
330
0
100
AcDbSymbolTable
 70
5
  0
STYLE
  5
29
330
5
100
AcDbSymbolTableRecord
100
AcDbTextStyleTableRecord
  2
Standard
 70
0
 40
0.0
 41
1.0
 50
0.0
 71
0
 42
2.5
  3
arial.ttf
  4

  0
STYLE
  5
38
330
5
100
AcDbSymbolTableRecord
100
AcDbTextStyleTableRecord
  2
SLD-TXT
 70
0
 40
0.0
 41
0.75
 50
0.0
 71
0
 42
2.5
  3
romans.shx
  4

  0
STYLE
  5
39
330
5
100
AcDbSymbolTableRecord
100
AcDbTextStyleTableRecord
  2
ARIAL
 70
0
 40
0.0
 41
0.95
 50
0.0
 71
0
 42
2.5
  3
arial.ttf
  4

  0
STYLE
  5
3A
330
5
100
AcDbSymbolTableRecord
100
AcDbTextStyleTableRecord
  2
SIMPLEX
 70
0
 40
0.0
 41
0.75
 50
0.0
 71
0
 42
2.5
  3
simplex.shx
  4

  0
STYLE
  5
3B
330
5
100
AcDbSymbolTableRecord
100
AcDbTextStyleTableRecord
  2
TAHOMA
 70
0
 40
0.0
 41
0.9
 50
0.0
 71
0
 42
2.5
  3
tahoma.ttf
  4

  0
ENDTAB
  0
TABLE
  2
VIEW
  5
7
330
0
100
AcDbSymbolTable
 70
0
  0
ENDTAB
  0
TABLE
  2
UCS
  5
6
330
0
100
AcDbSymbolTable
 70
0
  0
ENDTAB
  0
TABLE
  2
APPID
  5
3
330
0
100
AcDbSymbolTable
 70
3
  0
APPID
  5
2A
330
3
100
AcDbSymbolTableRecord
100
AcDbRegAppTableRecord
  2
ACAD
 70
0
  0
APPID
  5
136
330
3
100
AcDbSymbolTableRecord
100
AcDbRegAppTableRecord
  2
HATCHBACKGROUNDCOLOR
 70
0
  0
APPID
  5
137
330
3
100
AcDbSymbolTableRecord
100
AcDbRegAppTableRecord
  2
EZDXF
 70
0
  0
ENDTAB
  0
TABLE
  2
DIMSTYLE
  5
4
330
0
100
AcDbSymbolTable
 70
2
100
AcDbDimStyleTable
  0
DIMSTYLE
105
2B
330
4
100
AcDbSymbolTableRecord
100
AcDbDimStyleTableRecord
  2
Standard
 70
0
 40
1.0
 41
2.5
 42
0.625
 43
3.75
 44
1.25
 45
0.0
 46
0.0
 47
0.0
 48
0.0
 49
2.5
140
2.5
141
2.5
142
0.0
143
0.03937007874
144
1.0
145
0.0
146
1.0
147
0.625
148
0.0
 69
0
 70
0
 71
0
 72
0
 73
0
 74
0
 75
0
 76
0
 77
1
 78
8
 79
3
170
0
171
3
172
1
173
0
174
0
175
0
176
0
177
0
178
0
179
2
271
2
272
2
273
2
274
3
275
0
276
0
277
2
278
44
279
0
280
0
281
0
282
0
283
0
284
8
285
0
286
0
288
0
289
3
290
0
371
-2
372
-2
  0
DIMSTYLE
105
3C
330
4
100
AcDbSymbolTableRecord
100
AcDbDimStyleTableRecord
  2
A
 70
0
 40
1.0
 41
1.5
 42
0.625
 43
3.75
 44
1.25
 45
0.0
 46
0.0
 47
0.0
 48
0.0
 49
2.5
140
1.8
141
2.5
142
0.0
143
0.03937007874
144
1.0
145
0.0
146
1.0
147
0.9
148
0.0
 69
0
 70
0
 71
0
 72
0
 73
0
 74
0
 75
0
 76
0
 77
1
 78
8
 79
3
170
0
171
3
172
1
173
0
174
0
175
0
176
0
177
0
178
0
179
2
271
2
272
2
273
2
274
3
275
0
276
0
277
2
278
44
279
0
280
0
281
0
282
0
283
0
284
8
285
0
286
0
288
0
289
3
290
0
371
-2
372
-2
  0
ENDTAB
  0
TABLE
  2
BLOCK_RECORD
  5
9
330
0
100
AcDbSymbolTable
 70
2
  0
BLOCK_RECORD
  5
17
330
9
100
AcDbSymbolTableRecord
100
AcDbBlockTableRecord
  2
*Model_Space
340
1A
 70
0
280
1
281
0
  0
BLOCK_RECORD
  5
1B
330
9
100
AcDbSymbolTableRecord
100
AcDbBlockTableRecord
  2
*Paper_Space
340
1E
 70
0
280
1
281
0
  0
ENDTAB
  0
ENDSEC
  0
SECTION
  2
BLOCKS
  0
BLOCK
  5
18
330
17
100
AcDbEntity
  8
0
100
AcDbBlockBegin
  2
*Model_Space
 70
0
 10
0.0
 20
0.0
 30
0.0
  3
*Model_Space
  1

  0
ENDBLK
  5
19
330
17
100
AcDbEntity
  8
0
100
AcDbBlockEnd
  0
BLOCK
  5
1C
330
1B
100
AcDbEntity
  8
0
100
AcDbBlockBegin
  2
*Paper_Space
 70
0
 10
0.0
 20
0.0
 30
0.0
  3
*Paper_Space
  1

  0
ENDBLK
  5
1D
330
1B
100
AcDbEntity
  8
0
100
AcDbBlockEnd
  0
ENDSEC
  0
SECTION
  2
ENTITIES
  0
LWPOLYLINE
  5
3D
330
17
100
AcDbEntity
  8
E-SLD-FRAME
100
AcDbPolyline
 90
4
 70
1
 10
10.0
 20
10.0
 10
584.0
 20
10.0
 10
584.0
 20
410.0
 10
10.0
 20
410.0
  0
LWPOLYLINE
  5
3E
330
17
100
AcDbEntity
  8
TXT
100
AcDbPolyline
 90
4
 70
1
 10
10.0
 20
10.0
 10
584.0
 20
10.0
 10
584.0
 20
42.0
 10
10.0
 20
42.0
  0
LINE
  5
3F
330
17
100
AcDbEntity
  8
TXT
100
AcDbLine
 10
124.80000000000001
 20
42.0
 30
0.0
 11
124.80000000000001
 21
10.0
 31
0.0
  0
LINE
  5
40
330
17
100
AcDbEntity
  8
TXT
100
AcDbLine
 10
210.89999999999998
 20
42.0
 30
0.0
 11
210.89999999999998
 21
10.0
 31
0.0
  0
LINE
  5
41
330
17
100
AcDbEntity
  8
TXT
100
AcDbLine
 10
314.22
 20
42.0
 30
0.0
 11
314.22
 21
10.0
 31
0.0
  0
LINE
  5
42
330
17
100
AcDbEntity
  8
TXT
100
AcDbLine
 10
411.79999999999995
 20
42.0
 30
0.0
 11
411.79999999999995
 21
10.0
 31
0.0
  0
LINE
  5
43
330
17
100
AcDbEntity
  8
TXT
100
AcDbLine
 10
515.12
 20
42.0
 30
0.0
 11
515.12
 21
10.0
 31
0.0
  0
LINE
  5
44
330
17
100
AcDbEntity
  8
TXT
100
AcDbLine
 10
515.12
 20
27.0
 30
0.0
 11
584.0
 21
27.0
 31
0.0
  0
LINE
  5
45
330
17
100
AcDbEntity
  8
TXT
100
AcDbLine
 10
549.56
 20
42.0
 30
0.0
 11
549.56
 21
10.0
 31
0.0
  0
MTEXT
  5
46
330
17
100
AcDbEntity
  8
SLD-TXT
100
AcDbMText
 10
12.0
 20
39.5
 30
0.0
 40
1.8
 71
1
  1
CLIENT / ADDRESS :
  7
SLD-TXT
  0
MTEXT
  5
47
330
17
100
AcDbEntity
  8
SLD-TXT
100
AcDbMText
 10
126.80000000000001
 20
39.5
 30
0.0
 40
1.8
 71
1
  1
MAIN CONTRACTOR :
  7
SLD-TXT
  0
MTEXT
  5
48
330
17
100
AcDbEntity
  8
SLD-TXT
100
AcDbMText
 10
212.89999999999998
 20
39.5
 30
0.0
 40
1.8
 71
1
  1
ELECTRICAL CONTRACTOR :
  7
SLD-TXT
  0
MTEXT
  5
49
330
17
100
AcDbEntity
  8
SLD-TXT
100
AcDbMText
 10
316.22
 20
39.5
 30
0.0
 40
1.8
 71
1
  1
DRAWING TITLE :
  7
SLD-TXT
  0
MTEXT
  5
4A
330
17
100
AcDbEntity
  8
SLD-TXT
100
AcDbMText
 10
413.79999999999995
 20
39.5
 30
0.0
 40
1.8
 71
1
  1
LEW :
  7
SLD-TXT
  0
MTEXT
  5
4B
330
17
100
AcDbEntity
  8
SLD-TXT
100
AcDbMText
 10
517.12
 20
39.5
 30
0.0
 40
1.8
 71
1
  1
CHECKED :
  7
SLD-TXT
  0
MTEXT
  5
4C
330
17
100
AcDbEntity
  8
SLD-TXT
100
AcDbMText
 10
551.56
 20
39.5
 30
0.0
 40
1.8
 71
1
  1
DATE :
  7
SLD-TXT
  0
MTEXT
  5
4D
330
17
100
AcDbEntity
  8
SLD-TXT
100
AcDbMText
 10
517.12
 20
24.5
 30
0.0
 40
1.8
 71
1
  1
DRAWING NO. :
  7
SLD-TXT
  0
MTEXT
  5
4E
330
17
100
AcDbEntity
  8
SLD-TXT
100
AcDbMText
 10
551.56
 20
24.5
 30
0.0
 40
1.8
 71
1
  1
REV :
  7
SLD-TXT
  0
MTEXT
  5
4F
330
17
100
AcDbEntity
  8
SLD-TXT
100
AcDbMText
 10
286.4
 20
80.3
 30
0.0
 40
5.0
 71
1
  1
~
  7
SLD-TXT
  0
MTEXT
  5
50
330
17
100
AcDbEntity
  8
SLD-TXT
100
AcDbMText
 10
309.4
 20
78.3
 30
0.0
 40
2.8
 71
1
  1
FROM LANDLORD SUPPLY
  7
SLD-TXT
  0
MTEXT
  5
51
330
17
100
AcDbEntity
  8
SLD-TXT
100
AcDbMText
 10
283.4
 20
104.3
 30
0.0
 40
2.8
 71
1
  1

  7
SLD-TXT
  0
MTEXT
  5
52
330
17
100
AcDbEntity
  8
SLD-TXT
100
AcDbMText
 10
301.4
 20
108.3
 30
0.0
 40
2.8
 71
1
  1
4x70mm² PVC + 35mm² ECC
  7
SLD-TXT
  0
LWPOLYLINE
  5
53
330
17
100
AcDbEntity
  8
SLD
100
AcDbPolyline
 90
4
 70
1
 10
286.2461593889609
 20
143.30001029378462
 10
290.55384061103905
 20
143.30001029378462
 10
290.55384061103905
 20
151.2999897062154
 10
286.2461593889609
 20
151.2999897062154
  0
CIRCLE
  5
54
330
17
100
AcDbEntity
  8
SLD
100
AcDbCircle
 10
293.4
 20
139.3
 30
0.0
 40
2.0
  0
LINE
  5
55
330
17
100
AcDbEntity
  8
SLD
100
AcDbLine
 10
294.81419999999997
 20
140.7142
 30
0.0
 11
295.5213
 21
141.4213
 31
0.0
  0
LINE
  5
56
330
17
100
AcDbEntity
  8
SLD
100
AcDbLine
 10
291.9858
 20
140.7142
 30
0.0
 11
291.27869999999996
 21
141.4213
 31
0.0
  0
LINE
  5
57
330
17
100
AcDbEntity
  8
SLD
100
AcDbLine
 10
294.81419999999997
 20
137.88580000000002
 30
0.0
 11
295.5213
 21
137.17870000000002
 31
0.0
  0
LINE
  5
58
330
17
100
AcDbEntity
  8
SLD
100
AcDbLine
 10
291.9858
 20
137.88580000000002
 30
0.0
 11
291.27869999999996
 21
137.17870000000002
 31
0.0
  0
CIRCLE
  5
59
330
17
100
AcDbEntity
  8
SLD
100
AcDbCircle
 10
299.4
 20
139.3
 30
0.0
 40
2.0
  0
LINE
  5
5A
330
17
100
AcDbEntity
  8
SLD
100
AcDbLine
 10
300.81419999999997
 20
140.7142
 30
0.0
 11
301.5213
 21
141.4213
 31
0.0
  0
LINE
  5
5B
330
17
100
AcDbEntity
  8
SLD
100
AcDbLine
 10
297.9858
 20
140.7142
 30
0.0
 11
297.27869999999996
 21
141.4213
 31
0.0
  0
LINE
  5
5C
330
17
100
AcDbEntity
  8
SLD
100
AcDbLine
 10
300.81419999999997
 20
137.88580000000002
 30
0.0
 11
301.5213
 21
137.17870000000002
 31
0.0
  0
LINE
  5
5D
330
17
100
AcDbEntity
  8
SLD
100
AcDbLine
 10
297.9858
 20
137.88580000000002
 30
0.0
 11
297.27869999999996
 21
137.17870000000002
 31
0.0
  0
CIRCLE
  5
5E
330
17
100
AcDbEntity
  8
SLD
100
AcDbCircle
 10
305.4
 20
139.3
 30
0.0
 40
2.0
  0
LINE
  5
5F
330
17
100
AcDbEntity
  8
SLD
100
AcDbLine
 10
306.81419999999997
 20
140.7142
 30
0.0
 11
307.5213
 21
141.4213
 31
0.0
  0
LINE
  5
60
330
17
100
AcDbEntity
  8
SLD
100
AcDbLine
 10
303.9858
 20
140.7142
 30
0.0
 11
303.27869999999996
 21
141.4213
 31
0.0
  0
LINE
  5
61
330
17
100
AcDbEntity
  8
SLD
100
AcDbLine
 10
306.81419999999997
 20
137.88580000000002
 30
0.0
 11
307.5213
 21
137.17870000000002
 31
0.0
  0
LINE
  5
62
330
17
100
AcDbEntity
  8
SLD
100
AcDbLine
 10
303.9858
 20
137.88580000000002
 30
0.0
 11
303.27869999999996
 21
137.17870000000002
 31
0.0
  0
LINE
  5
63
330
17
100
AcDbEntity
  8
SLD-LINE
100
AcDbLine
 10
295.4
 20
139.3
 30
0.0
 11
297.4
 21
139.3
 31
0.0
  0
LINE
  5
64
330
17
100
AcDbEntity
  8
SLD-LINE
100
AcDbLine
 10
301.4
 20
139.3
 30
0.0
 11
303.4
 21
139.3
 31
0.0
  0
LINE
  5
65
330
17
100
AcDbEntity
  8
SLD-LINE
100
AcDbLine
 10
291.4
 20
139.3
 30
0.0
 11
289.4
 21
139.3
 31
0.0
  0
CIRCLE
  5
66
330
17
100
AcDbEntity
  8
SLD
100
AcDbCircle
 10
293.4
 20
157.3
 30
0.0
 40
2.0
  0
LINE
  5
67
330
17
100
AcDbEntity
  8
SLD
100
AcDbLine
 10
294.81419999999997
 20
158.7142
 30
0.0
 11
295.5213
 21
159.4213
 31
0.0
  0
LINE
  5
68
330
17
100
AcDbEntity
  8
SLD
100
AcDbLine
 10
291.9858
 20
158.7142
 30
0.0
 11
291.27869999999996
 21
159.4213
 31
0.0
  0
LINE
  5
69
330
17
100
AcDbEntity
  8
SLD
100
AcDbLine
 10
294.81419999999997
 20
155.88580000000002
 30
0.0
 11
295.5213
 21
155.17870000000002
 31
0.0
  0
LINE
  5
6A
330
17
100
AcDbEntity
  8
SLD
100
AcDbLine
 10
291.9858
 20
155.88580000000002
 30
0.0
 11
291.27869999999996
 21
155.17870000000002
 31
0.0
  0
CIRCLE
  5
6B
330
17
100
AcDbEntity
  8
SLD
100
AcDbCircle
 10
299.4
 20
157.3
 30
0.0
 40
2.0
  0
LINE
  5
6C
330
17
100
AcDbEntity
  8
SLD
100
AcDbLine
 10
300.81419999999997
 20
158.7142
 30
0.0
 11
301.5213
 21
159.4213
 31
0.0
  0
LINE
  5
6D
330
17
100
AcDbEntity
  8
SLD
100
AcDbLine
 10
297.9858
 20
158.7142
 30
0.0
 11
297.27869999999996
 21
159.4213
 31
0.0
  0
LINE
  5
6E
330
17
100
AcDbEntity
  8
SLD
100
AcDbLine
 10
300.81419999999997
 20
155.88580000000002
 30
0.0
 11
301.5213
 21
155.17870000000002
 31
0.0
  0
LINE
  5
6F
330
17
100
AcDbEntity
  8
SLD
100
AcDbLine
 10
297.9858
 20
155.88580000000002
 30
0.0
 11
297.27869999999996
 21
155.17870000000002
 31
0.0
  0
CIRCLE
  5
70
330
17
100
AcDbEntity
  8
SLD
100
AcDbCircle
 10
305.4
 20
157.3
 30
0.0
 40
2.0
  0
LINE
  5
71
330
17
100
AcDbEntity
  8
SLD
100
AcDbLine
 10
306.81419999999997
 20
158.7142
 30
0.0
 11
307.5213
 21
159.4213
 31
0.0
  0
LINE
  5
72
330
17
100
AcDbEntity
  8
SLD
100
AcDbLine
 10
303.9858
 20
158.7142
 30
0.0
 11
303.27869999999996
 21
159.4213
 31
0.0
  0
LINE
  5
73
330
17
100
AcDbEntity
  8
SLD
100
AcDbLine
 10
306.81419999999997
 20
155.88580000000002
 30
0.0
 11
307.5213
 21
155.17870000000002
 31
0.0
  0
LINE
  5
74
330
17
100
AcDbEntity
  8
SLD
100
AcDbLine
 10
303.9858
 20
155.88580000000002
 30
0.0
 11
303.27869999999996
 21
155.17870000000002
 31
0.0
  0
LINE
  5
75
330
17
100
AcDbEntity
  8
SLD-LINE
100
AcDbLine
 10
295.4
 20
157.3
 30
0.0
 11
297.4
 21
157.3
 31
0.0
  0
LINE
  5
76
330
17
100
AcDbEntity
  8
SLD-LINE
100
AcDbLine
 10
301.4
 20
157.3
 30
0.0
 11
303.4
 21
157.3
 31
0.0
  0
LINE
  5
77
330
17
100
AcDbEntity
  8
SLD-LINE
100
AcDbLine
 10
291.4
 20
157.3
 30
0.0
 11
289.4
 21
157.3
 31
0.0
  0
MTEXT
  5
78
330
17
100
AcDbEntity
  8
SLD-TXT
100
AcDbMText
 10
314.4
 20
147.29999999999998
 30
0.0
 40
2.8
 71
1
  1
2A HRC Fuse\PIndicator Lamp
  7
SLD-TXT
  0
ARC
  5
79
330
17
100
AcDbEntity
  8
SLD
100
AcDbCircle
 10
287.3868367113385
 20
186.799779111069
 30
0.0
 40
4.219042652046427
100
AcDbArc
 50
-62.875315520027996
 51
62.88847726338111
  0
CIRCLE
  5
7A
330
17
100
AcDbEntity
  8
SLD
100
AcDbCircle
 10
288.13434215240835
 20
190.5552383017033
 30
0.0
 40
0.744761698296705
  0
CIRCLE
  5
7B
330
17
100
AcDbEntity
  8
SLD
100
AcDbCircle
 10
288.1460201251954
 20
183.04476169829672
 30
0.0
 40
0.744761698296705
  0
LINE
  5
7C
330
17
100
AcDbEntity
  8
SLD-LINE
100
AcDbLine
 10
288.35
 20
182.3
 30
0.0
 11
288.35
 21
180.3
 31
0.0
  0
LINE
  5
7D
330
17
100
AcDbEntity
  8
SLD-LINE
100
AcDbLine
 10
288.35
 20
191.3
 30
0.0
 11
288.35
 21
193.3
 31
0.0
  0
MTEXT
  5
7E
330
17
100
AcDbEntity
  8
SLD-TXT
100
AcDbMText
 10
292.3104187931507
 20
188.8
 30
0.0
 40
1.6
 71
1
  1
200A TPN MCCB\PType C, 25kA
  7
SLD-TXT
  0
LWPOLYLINE
  5
7F
330
17
100
AcDbEntity
  8
SLD
100
AcDbPolyline
 90
4
 70
1
 10
291.15003345529306
 20
261.0000778595912
 10
291.15003345529306
 20
268.00016301851906
 10
285.6499665447069
 20
268.00016301851906
 10
285.6499665447069
 20
261.0000778595912
  0
LINE
  5
80
330
17
100
AcDbEntity
  8
SLD
100
AcDbLine
 10
288.4
 20
256.8
 30
0.0
 11
288.4
 21
272.20024087811026
 31
0.0
  0
LWPOLYLINE
  5
81
330
17
100
AcDbEntity
  8
SLD
100
AcDbPolyline
 90
4
 70
1
 10
331.4
 20
220.3
 10
343.4
 20
220.3
 10
343.4
 20
226.3
 10
331.4
 20
226.3
  0
MTEXT
  5
82
330
17
100
AcDbEntity
  8
SLD-TXT
100
AcDbMText
 10
335.0
 20
223.3
 30
0.0
 40
1.6
 71
4
  1
KWH
  7
SLD-TXT
  0
LINE
  5
83
330
17
100
AcDbEntity
  8
SLD-LINE
100
AcDbLine
 10
337.4
 20
226.3
 30
0.0
 11
337.4
 21
228.3
 31
0.0
  0
LINE
  5
84
330
17
100
AcDbEntity
  8
SLD-LINE
100
AcDbLine
 10
337.4
 20
220.3
 30
0.0
 11
337.4
 21
218.3
 31
0.0
  0
LWPOLYLINE
  5
85
330
17
100
AcDbEntity
  8
SLD
100
AcDbPolyline
 90
4
 70
1
 10
341.3999749090453
 20
256.55005018190946
 10
341.3999749090453
 20
268.54994981809057
 10
335.40002509095467
 20
268.54994981809057
 10
335.40002509095467
 20
256.55005018190946
  0
MTEXT
  5
86
330
17
100
AcDbEntity
  8
SLD
100
AcDbMText
 10
338.99992472713586
 20
260.15000000000003
 30
0.0
 40
2.0999623635679336
 71
1
  1
ELR
  7
SLD-TXT
 50
90.0
  0
CIRCLE
  5
87
330
17
100
AcDbEntity
  8
SLD
100
AcDbCircle
 10
234.4
 20
220.3
 30
0.0
 40
2.0
  0
MTEXT
  5
88
330
17
100
AcDbEntity
  8
SLD
100
AcDbMText
 10
233.80007527286415
 20
219.70007527286415
 30
0.0
 40
2.4
 71
1
  1
A
  7
SLD-TXT
  0
CIRCLE
  5
89
330
17
100
AcDbEntity
  8
SLD
100
AcDbCircle
 10
240.4
 20
220.3
 30
0.0
 40
2.0
  0
LINE
  5
8A
330
17
100
AcDbEntity
  8
SLD
100
AcDbLine
 10
241.81422657132106
 20
221.71422657132106
 30
0.0
 11
238.98577342867895
 21
218.88577342867896
 31
0.0
  0
CIRCLE
  5
8B
330
17
100
AcDbEntity
  8
SLD
100
AcDbCircle
 10
234.4
 20
259.55
 30
0.0
 40
2.0
  0
MTEXT
  5
8C
330
17
100
AcDbEntity
  8
SLD
100
AcDbMText
 10
233.80007527286415
 20
258.9500752728641
 30
0.0
 40
2.4
 71
1
  1
V
  7
SLD-TXT
  0
CIRCLE
  5
8D
330
17
100
AcDbEntity
  8
SLD
100
AcDbCircle
 10
240.4
 20
259.55
 30
0.0
 40
2.0
  0
LINE
  5
8E
330
17
100
AcDbEntity
  8
SLD
100
AcDbLine
 10
241.81422657132106
 20
260.96422657132103
 30
0.0
 11
238.98577342867895
 21
258.135773428679
 31
0.0
  0
MTEXT
  5
8F
330
17
100
AcDbEntity
  8
SLD-TXT
100
AcDbMText
 10
356.4
 20
241.3
 30
0.0
 40
2.8
 71
1
  1
200/5A CT\PELR / ASS / AMM\PVSS / VLM\PkWh BY SP\PBI CONNECTOR
  7
SLD-TXT
  0
ARC
  5
90
330
17
100
AcDbEntity
  8
SLD
100
AcDbCircle
 10
287.59665632527435
 20
293.799779111069
 30
0.0
 40
4.219042652046427
100
AcDbArc
 50
-62.87531552002783
 51
62.88847726338129
  0
CIRCLE
  5
91
330
17
100
AcDbEntity
  8
SLD
100
AcDbCircle
 10
288.3441617663442
 20
297.5552383017033
 30
0.0
 40
0.744761698296705
  0
CIRCLE
  5
92
330
17
100
AcDbEntity
  8
SLD
100
AcDbCircle
 10
288.3558397391312
 20
290.0447616982967
 30
0.0
 40
0.744761698296705
  0
LINE
  5
93
330
17
100
AcDbEntity
  8
SLD
100
AcDbLine
 10
291.8156977426902
 20
293.8002634581975
 30
0.0
 11
293.62892093544224
 21
293.8002634581975
 31
0.0
  0
LINE
  5
94
330
17
100
AcDbEntity
  8
SLD
100
AcDbLine
 10
293.62892093544224
 20
292.15977550350624
 30
0.0
 11
293.62892093544224
 21
295.4407514128887
 31
0.0
  0
LINE
  5
95
330
17
100
AcDbEntity
  8
SLD-LINE
100
AcDbLine
 10
288.35
 20
289.3
 30
0.0
 11
288.35
 21
287.3
 31
0.0
  0
LINE
  5
96
330
17
100
AcDbEntity
  8
SLD-LINE
100
AcDbLine
 10
288.35
 20
298.3
 30
0.0
 11
288.35
 21
300.3
 31
0.0
  0
MTEXT
  5
97
330
17
100
AcDbEntity
  8
SLD-TXT
100
AcDbMText
 10
294.36476043369737
 20
295.8
 30
0.0
 40
1.6
 71
1
  1
200A 4P RCCB\P100mA
  7
SLD-TXT
  0
MTEXT
  5
98
330
17
100
AcDbEntity
  8
SLD-TXT
100
AcDbMText
 10
283.4
 20
321.3
 30
0.0
 40
2.8
 71
1
  1

  7
SLD-TXT
  0
MTEXT
  5
99
330
17
100
AcDbEntity
  8
SLD-TXT
100
AcDbMText
 10
301.4
 20
325.3
 30
0.0
 40
2.8
 71
1
  1
4x50mm² PVC + 25mm² ECC
  7
SLD-TXT
  0
LINE
  5
9A
330
17
100
AcDbEntity
  8
SLD-LINE
370
50
100
AcDbLine
 10
177.2
 20
352.3
 30
0.0
 11
399.7
 21
352.3
 31
0.0
  0
MTEXT
  5
9B
330
17
100
AcDbEntity
  8
SLD-TXT
100
AcDbMText
 10
377.9
 20
358.8
 30
0.0
 40
2.8
 71
1
  1
200A BUSBAR
  7
SLD-TXT
  0
ARC
  5
9C
330
17
100
AcDbEntity
  8
SLD
100
AcDbCircle
 10
182.9868367113385
 20
366.799779111069
 30
0.0
 40
4.219042652046427
100
AcDbArc
 50
-62.87531552002852
 51
62.88847726338163
  0
CIRCLE
  5
9D
330
17
100
AcDbEntity
  8
SLD
100
AcDbCircle
 10
183.7343421524083
 20
370.5552383017033
 30
0.0
 40
0.744761698296705
  0
CIRCLE
  5
9E
330
17
100
AcDbEntity
  8
SLD
100
AcDbCircle
 10
183.74602012519532
 20
363.0447616982967
 30
0.0
 40
0.744761698296705
  0
LINE
  5
9F
330
17
100
AcDbEntity
  8
SLD-LINE
100
AcDbLine
 10
183.95
 20
362.3
 30
0.0
 11
183.95
 21
360.3
 31
0.0
  0
LINE
  5
A0
330
17
100
AcDbEntity
  8
SLD-LINE
100
AcDbLine
 10
183.95
 20
371.3
 30
0.0
 11
183.95
 21
373.3
 31
0.0
  0
LINE
  5
A1
330
17
100
AcDbEntity
  8
SLD
100
AcDbLine
 10
181.2058793506995
 20
366.8
 30
0.0
 11
187.2058793506995
 21
366.8
 31
0.0
  0
LINE
  5
A2
330
17
100
AcDbEntity
  8
SLD
100
AcDbLine
 10
187.2058793506995
 20
366.8
 30
0.0
 11
186.0058793506995
 21
367.40000000000003
 31
0.0
  0
LINE
  5
A3
330
17
100
AcDbEntity
  8
SLD
100
AcDbLine
 10
187.2058793506995
 20
366.8
 30
0.0
 11
186.0058793506995
 21
366.2
 31
0.0
  0
MTEXT
  5
A4
330
17
100
AcDbEntity
  8
SLD-TXT
100
AcDbMText
 10
175.2
 20
370.3
 30
0.0
 40
2.0
 71
1
  1
32A\PTPN\PMCCB
  7
SLD-TXT
  0
ARC
  5
A5
330
17
100
AcDbEntity
  8
SLD
100
AcDbCircle
 10
201.9868367113385
 20
366.799779111069
 30
0.0
 40
4.219042652046427
100
AcDbArc
 50
-62.87531552002852
 51
62.88847726338163
  0
CIRCLE
  5
A6
330
17
100
AcDbEntity
  8
SLD
100
AcDbCircle
 10
202.7343421524083
 20
370.5552383017033
 30
0.0
 40
0.744761698296705
  0
CIRCLE
  5
A7
330
17
100
AcDbEntity
  8
SLD
100
AcDbCircle
 10
202.74602012519532
 20
363.0447616982967
 30
0.0
 40
0.744761698296705
  0
LINE
  5
A8
330
17
100
AcDbEntity
  8
SLD-LINE
100
AcDbLine
 10
202.95
 20
362.3
 30
0.0
 11
202.95
 21
360.3
 31
0.0
  0
LINE
  5
A9
330
17
100
AcDbEntity
  8
SLD-LINE
100
AcDbLine
 10
202.95
 20
371.3
 30
0.0
 11
202.95
 21
373.3
 31
0.0
  0
LINE
  5
AA
330
17
100
AcDbEntity
  8
SLD
100
AcDbLine
 10
187.2058793506995
 20
366.8
 30
0.0
 11
206.2058793506995
 21
366.8
 31
0.0
  0
LINE
  5
AB
330
17
100
AcDbEntity
  8
SLD
100
AcDbLine
 10
206.2058793506995
 20
366.8
 30
0.0
 11
205.0058793506995
 21
367.40000000000003
 31
0.0
  0
LINE
  5
AC
330
17
100
AcDbEntity
  8
SLD
100
AcDbLine
 10
206.2058793506995
 20
366.8
 30
0.0
 11
205.0058793506995
 21
366.2
 31
0.0
  0
MTEXT
  5
AD
330
17
100
AcDbEntity
  8
SLD-TXT
100
AcDbMText
 10
194.2
 20
370.3
 30
0.0
 40
2.0
 71
1
  1
32A
  7
SLD-TXT
  0
ARC
  5
AE
330
17
100
AcDbEntity
  8
SLD
100
AcDbCircle
 10
220.9868367113385
 20
366.799779111069
 30
0.0
 40
4.219042652046427
100
AcDbArc
 50
-62.87531552002852
 51
62.88847726338163
  0
CIRCLE
  5
AF
330
17
100
AcDbEntity
  8
SLD
100
AcDbCircle
 10
221.7343421524083
 20
370.5552383017033
 30
0.0
 40
0.744761698296705
  0
CIRCLE
  5
B0
330
17
100
AcDbEntity
  8
SLD
100
AcDbCircle
 10
221.74602012519532
 20
363.0447616982967
 30
0.0
 40
0.744761698296705
  0
LINE
  5
B1
330
17
100
AcDbEntity
  8
SLD-LINE
100
AcDbLine
 10
221.95
 20
362.3
 30
0.0
 11
221.95
 21
360.3
 31
0.0
  0
LINE
  5
B2
330
17
100
AcDbEntity
  8
SLD-LINE
100
AcDbLine
 10
221.95
 20
371.3
 30
0.0
 11
221.95
 21
373.3
 31
0.0
  0
LINE
  5
B3
330
17
100
AcDbEntity
  8
SLD
100
AcDbLine
 10
206.2058793506995
 20
366.8
 30
0.0
 11
225.2058793506995
 21
366.8
 31
0.0
  0
LINE
  5
B4
330
17
100
AcDbEntity
  8
SLD
100
AcDbLine
 10
225.2058793506995
 20
366.8
 30
0.0
 11
224.0058793506995
 21
367.40000000000003
 31
0.0
  0
LINE
  5
B5
330
17
100
AcDbEntity
  8
SLD
100
AcDbLine
 10
225.2058793506995
 20
366.8
 30
0.0
 11
224.0058793506995
 21
366.2
 31
0.0
  0
MTEXT
  5
B6
330
17
100
AcDbEntity
  8
SLD-TXT
100
AcDbMText
 10
213.2
 20
370.3
 30
0.0
 40
2.0
 71
1
  1
32A
  7
SLD-TXT
  0
ARC
  5
B7
330
17
100
AcDbEntity
  8
SLD
100
AcDbCircle
 10
239.9868367113385
 20
366.799779111069
 30
0.0
 40
4.219042652046427
100
AcDbArc
 50
-62.87531552002852
 51
62.88847726338163
  0
CIRCLE
  5
B8
330
17
100
AcDbEntity
  8
SLD
100
AcDbCircle
 10
240.7343421524083
 20
370.5552383017033
 30
0.0
 40
0.744761698296705
  0
CIRCLE
  5
B9
330
17
100
AcDbEntity
  8
SLD
100
AcDbCircle
 10
240.74602012519532
 20
363.0447616982967
 30
0.0
 40
0.744761698296705
  0
LINE
  5
BA
330
17
100
AcDbEntity
  8
SLD-LINE
100
AcDbLine
 10
240.95
 20
362.3
 30
0.0
 11
240.95
 21
360.3
 31
0.0
  0
LINE
  5
BB
330
17
100
AcDbEntity
  8
SLD-LINE
100
AcDbLine
 10
240.95
 20
371.3
 30
0.0
 11
240.95
 21
373.3
 31
0.0
  0
LINE
  5
BC
330
17
100
AcDbEntity
  8
SLD
100
AcDbLine
 10
225.2058793506995
 20
366.8
 30
0.0
 11
244.2058793506995
 21
366.8
 31
0.0
  0
LINE
  5
BD
330
17
100
AcDbEntity
  8
SLD
100
AcDbLine
 10
244.2058793506995
 20
366.8
 30
0.0
 11
243.0058793506995
 21
367.40000000000003
 31
0.0
  0
LINE
  5
BE
330
17
100
AcDbEntity
  8
SLD
100
AcDbLine
 10
244.2058793506995
 20
366.8
 30
0.0
 11
243.0058793506995
 21
366.2
 31
0.0
  0
MTEXT
  5
BF
330
17
100
AcDbEntity
  8
SLD-TXT
100
AcDbMText
 10
232.2
 20
370.3
 30
0.0
 40
2.0
 71
1
  1
32A
  7
SLD-TXT
  0
ARC
  5
C0
330
17
100
AcDbEntity
  8
SLD
100
AcDbCircle
 10
258.98683671133847
 20
366.799779111069
 30
0.0
 40
4.219042652046427
100
AcDbArc
 50
-62.87531552002783
 51
62.88847726338129
  0
CIRCLE
  5
C1
330
17
100
AcDbEntity
  8
SLD
100
AcDbCircle
 10
259.7343421524083
 20
370.5552383017033
 30
0.0
 40
0.744761698296705
  0
CIRCLE
  5
C2
330
17
100
AcDbEntity
  8
SLD
100
AcDbCircle
 10
259.74602012519534
 20
363.0447616982967
 30
0.0
 40
0.744761698296705
  0
LINE
  5
C3
330
17
100
AcDbEntity
  8
SLD-LINE
100
AcDbLine
 10
259.95
 20
362.3
 30
0.0
 11
259.95
 21
360.3
 31
0.0
  0
LINE
  5
C4
330
17
100
AcDbEntity
  8
SLD-LINE
100
AcDbLine
 10
259.95
 20
371.3
 30
0.0
 11
259.95
 21
373.3
 31
0.0
  0
LINE
  5
C5
330
17
100
AcDbEntity
  8
SLD
100
AcDbLine
 10
244.2058793506995
 20
366.8
 30
0.0
 11
263.2058793506995
 21
366.8
 31
0.0
  0
LINE
  5
C6
330
17
100
AcDbEntity
  8
SLD
100
AcDbLine
 10
263.2058793506995
 20
366.8
 30
0.0
 11
262.0058793506995
 21
367.40000000000003
 31
0.0
  0
LINE
  5
C7
330
17
100
AcDbEntity
  8
SLD
100
AcDbLine
 10
263.2058793506995
 20
366.8
 30
0.0
 11
262.0058793506995
 21
366.2
 31
0.0
  0
MTEXT
  5
C8
330
17
100
AcDbEntity
  8
SLD-TXT
100
AcDbMText
 10
251.2
 20
370.3
 30
0.0
 40
2.0
 71
1
  1
32A
  7
SLD-TXT
  0
ARC
  5
C9
330
17
100
AcDbEntity
  8
SLD
100
AcDbCircle
 10
277.98683671133847
 20
366.799779111069
 30
0.0
 40
4.219042652046427
100
AcDbArc
 50
-62.87531552002783
 51
62.88847726338129
  0
CIRCLE
  5
CA
330
17
100
AcDbEntity
  8
SLD
100
AcDbCircle
 10
278.7343421524083
 20
370.5552383017033
 30
0.0
 40
0.744761698296705
  0
CIRCLE
  5
CB
330
17
100
AcDbEntity
  8
SLD
100
AcDbCircle
 10
278.74602012519534
 20
363.0447616982967
 30
0.0
 40
0.744761698296705
  0
LINE
  5
CC
330
17
100
AcDbEntity
  8
SLD-LINE
100
AcDbLine
 10
278.95
 20
362.3
 30
0.0
 11
278.95
 21
360.3
 31
0.0
  0
LINE
  5
CD
330
17
100
AcDbEntity
  8
SLD-LINE
100
AcDbLine
 10
278.95
 20
371.3
 30
0.0
 11
278.95
 21
373.3
 31
0.0
  0
LINE
  5
CE
330
17
100
AcDbEntity
  8
SLD
100
AcDbLine
 10
263.2058793506995
 20
366.8
 30
0.0
 11
282.2058793506995
 21
366.8
 31
0.0
  0
LINE
  5
CF
330
17
100
AcDbEntity
  8
SLD
100
AcDbLine
 10
282.2058793506995
 20
366.8
 30
0.0
 11
281.0058793506995
 21
367.40000000000003
 31
0.0
  0
LINE
  5
D0
330
17
100
AcDbEntity
  8
SLD
100
AcDbLine
 10
282.2058793506995
 20
366.8
 30
0.0
 11
281.0058793506995
 21
366.2
 31
0.0
  0
MTEXT
  5
D1
330
17
100
AcDbEntity
  8
SLD-TXT
100
AcDbMText
 10
270.2
 20
370.3
 30
0.0
 40
2.0
 71
1
  1
32A
  7
SLD-TXT
  0
ARC
  5
D2
330
17
100
AcDbEntity
  8
SLD
100
AcDbCircle
 10
296.98683671133847
 20
366.799779111069
 30
0.0
 40
4.219042652046427
100
AcDbArc
 50
-62.87531552002783
 51
62.88847726338129
  0
CIRCLE
  5
D3
330
17
100
AcDbEntity
  8
SLD
100
AcDbCircle
 10
297.7343421524083
 20
370.5552383017033
 30
0.0
 40
0.744761698296705
  0
CIRCLE
  5
D4
330
17
100
AcDbEntity
  8
SLD
100
AcDbCircle
 10
297.74602012519534
 20
363.0447616982967
 30
0.0
 40
0.744761698296705
  0
LINE
  5
D5
330
17
100
AcDbEntity
  8
SLD-LINE
100
AcDbLine
 10
297.95
 20
362.3
 30
0.0
 11
297.95
 21
360.3
 31
0.0
  0
LINE
  5
D6
330
17
100
AcDbEntity
  8
SLD-LINE
100
AcDbLine
 10
297.95
 20
371.3
 30
0.0
 11
297.95
 21
373.3
 31
0.0
  0
LINE
  5
D7
330
17
100
AcDbEntity
  8
SLD
100
AcDbLine
 10
282.2058793506995
 20
366.8
 30
0.0
 11
301.2058793506995
 21
366.8
 31
0.0
  0
LINE
  5
D8
330
17
100
AcDbEntity
  8
SLD
100
AcDbLine
 10
301.2058793506995
 20
366.8
 30
0.0
 11
300.0058793506995
 21
367.40000000000003
 31
0.0
  0
LINE
  5
D9
330
17
100
AcDbEntity
  8
SLD
100
AcDbLine
 10
301.2058793506995
 20
366.8
 30
0.0
 11
300.0058793506995
 21
366.2
 31
0.0
  0
MTEXT
  5
DA
330
17
100
AcDbEntity
  8
SLD-TXT
100
AcDbMText
 10
289.2
 20
370.3
 30
0.0
 40
2.0
 71
1
  1
32A
  7
SLD-TXT
  0
ARC
  5
DB
330
17
100
AcDbEntity
  8
SLD
100
AcDbCircle
 10
315.98683671133847
 20
366.799779111069
 30
0.0
 40
4.219042652046427
100
AcDbArc
 50
-62.87531552002783
 51
62.88847726338129
  0
CIRCLE
  5
DC
330
17
100
AcDbEntity
  8
SLD
100
AcDbCircle
 10
316.7343421524083
 20
370.5552383017033
 30
0.0
 40
0.744761698296705
  0
CIRCLE
  5
DD
330
17
100
AcDbEntity
  8
SLD
100
AcDbCircle
 10
316.74602012519534
 20
363.0447616982967
 30
0.0
 40
0.744761698296705
  0
LINE
  5
DE
330
17
100
AcDbEntity
  8
SLD-LINE
100
AcDbLine
 10
316.95
 20
362.3
 30
0.0
 11
316.95
 21
360.3
 31
0.0
  0
LINE
  5
DF
330
17
100
AcDbEntity
  8
SLD-LINE
100
AcDbLine
 10
316.95
 20
371.3
 30
0.0
 11
316.95
 21
373.3
 31
0.0
  0
LINE
  5
E0
330
17
100
AcDbEntity
  8
SLD
100
AcDbLine
 10
301.2058793506995
 20
366.8
 30
0.0
 11
320.2058793506995
 21
366.8
 31
0.0
  0
LINE
  5
E1
330
17
100
AcDbEntity
  8
SLD
100
AcDbLine
 10
320.2058793506995
 20
366.8
 30
0.0
 11
319.0058793506995
 21
367.40000000000003
 31
0.0
  0
LINE
  5
E2
330
17
100
AcDbEntity
  8
SLD
100
AcDbLine
 10
320.2058793506995
 20
366.8
 30
0.0
 11
319.0058793506995
 21
366.2
 31
0.0
  0
MTEXT
  5
E3
330
17
100
AcDbEntity
  8
SLD-TXT
100
AcDbMText
 10
308.2
 20
370.3
 30
0.0
 40
2.0
 71
1
  1
32A
  7
SLD-TXT
  0
ARC
  5
E4
330
17
100
AcDbEntity
  8
SLD
100
AcDbCircle
 10
334.98683671133847
 20
366.799779111069
 30
0.0
 40
4.219042652046427
100
AcDbArc
 50
-62.87531552002783
 51
62.88847726338129
  0
CIRCLE
  5
E5
330
17
100
AcDbEntity
  8
SLD
100
AcDbCircle
 10
335.7343421524083
 20
370.5552383017033
 30
0.0
 40
0.744761698296705
  0
CIRCLE
  5
E6
330
17
100
AcDbEntity
  8
SLD
100
AcDbCircle
 10
335.74602012519534
 20
363.0447616982967
 30
0.0
 40
0.744761698296705
  0
LINE
  5
E7
330
17
100
AcDbEntity
  8
SLD-LINE
100
AcDbLine
 10
335.95
 20
362.3
 30
0.0
 11
335.95
 21
360.3
 31
0.0
  0
LINE
  5
E8
330
17
100
AcDbEntity
  8
SLD-LINE
100
AcDbLine
 10
335.95
 20
371.3
 30
0.0
 11
335.95
 21
373.3
 31
0.0
  0
LINE
  5
E9
330
17
100
AcDbEntity
  8
SLD
100
AcDbLine
 10
320.2058793506995
 20
366.8
 30
0.0
 11
339.2058793506995
 21
366.8
 31
0.0
  0
LINE
  5
EA
330
17
100
AcDbEntity
  8
SLD
100
AcDbLine
 10
339.2058793506995
 20
366.8
 30
0.0
 11
338.0058793506995
 21
367.40000000000003
 31
0.0
  0
LINE
  5
EB
330
17
100
AcDbEntity
  8
SLD
100
AcDbLine
 10
339.2058793506995
 20
366.8
 30
0.0
 11
338.0058793506995
 21
366.2
 31
0.0
  0
MTEXT
  5
EC
330
17
100
AcDbEntity
  8
SLD-TXT
100
AcDbMText
 10
327.2
 20
370.3
 30
0.0
 40
2.0
 71
1
  1
32A
  7
SLD-TXT
  0
ARC
  5
ED
330
17
100
AcDbEntity
  8
SLD
100
AcDbCircle
 10
353.98683671133847
 20
366.799779111069
 30
0.0
 40
4.219042652046427
100
AcDbArc
 50
-62.87531552002783
 51
62.88847726338129
  0
CIRCLE
  5
EE
330
17
100
AcDbEntity
  8
SLD
100
AcDbCircle
 10
354.7343421524083
 20
370.5552383017033
 30
0.0
 40
0.744761698296705
  0
CIRCLE
  5
EF
330
17
100
AcDbEntity
  8
SLD
100
AcDbCircle
 10
354.74602012519534
 20
363.0447616982967
 30
0.0
 40
0.744761698296705
  0
LINE
  5
F0
330
17
100
AcDbEntity
  8
SLD-LINE
100
AcDbLine
 10
354.95
 20
362.3
 30
0.0
 11
354.95
 21
360.3
 31
0.0
  0
LINE
  5
F1
330
17
100
AcDbEntity
  8
SLD-LINE
100
AcDbLine
 10
354.95
 20
371.3
 30
0.0
 11
354.95
 21
373.3
 31
0.0
  0
LINE
  5
F2
330
17
100
AcDbEntity
  8
SLD
100
AcDbLine
 10
339.2058793506995
 20
366.8
 30
0.0
 11
358.2058793506995
 21
366.8
 31
0.0
  0
LINE
  5
F3
330
17
100
AcDbEntity
  8
SLD
100
AcDbLine
 10
358.2058793506995
 20
366.8
 30
0.0
 11
357.0058793506995
 21
367.40000000000003
 31
0.0
  0
LINE
  5
F4
330
17
100
AcDbEntity
  8
SLD
100
AcDbLine
 10
358.2058793506995
 20
366.8
 30
0.0
 11
357.0058793506995
 21
366.2
 31
0.0
  0
MTEXT
  5
F5
330
17
100
AcDbEntity
  8
SLD-TXT
100
AcDbMText
 10
346.2
 20
370.3
 30
0.0
 40
2.0
 71
1
  1
32A
  7
SLD-TXT
  0
ARC
  5
F6
330
17
100
AcDbEntity
  8
SLD
100
AcDbCircle
 10
372.98683671133847
 20
366.799779111069
 30
0.0
 40
4.219042652046427
100
AcDbArc
 50
-62.87531552002783
 51
62.88847726338129
  0
CIRCLE
  5
F7
330
17
100
AcDbEntity
  8
SLD
100
AcDbCircle
 10
373.7343421524083
 20
370.5552383017033
 30
0.0
 40
0.744761698296705
  0
CIRCLE
  5
F8
330
17
100
AcDbEntity
  8
SLD
100
AcDbCircle
 10
373.74602012519534
 20
363.0447616982967
 30
0.0
 40
0.744761698296705
  0
LINE
  5
F9
330
17
100
AcDbEntity
  8
SLD-LINE
100
AcDbLine
 10
373.95
 20
362.3
 30
0.0
 11
373.95
 21
360.3
 31
0.0
  0
LINE
  5
FA
330
17
100
AcDbEntity
  8
SLD-LINE
100
AcDbLine
 10
373.95
 20
371.3
 30
0.0
 11
373.95
 21
373.3
 31
0.0
  0
LINE
  5
FB
330
17
100
AcDbEntity
  8
SLD
100
AcDbLine
 10
358.2058793506995
 20
366.8
 30
0.0
 11
377.2058793506995
 21
366.8
 31
0.0
  0
LINE
  5
FC
330
17
100
AcDbEntity
  8
SLD
100
AcDbLine
 10
377.2058793506995
 20
366.8
 30
0.0
 11
376.0058793506995
 21
367.40000000000003
 31
0.0
  0
LINE
  5
FD
330
17
100
AcDbEntity
  8
SLD
100
AcDbLine
 10
377.2058793506995
 20
366.8
 30
0.0
 11
376.0058793506995
 21
366.2
 31
0.0
  0
MTEXT
  5
FE
330
17
100
AcDbEntity
  8
SLD-TXT
100
AcDbMText
 10
365.2
 20
370.3
 30
0.0
 40
2.0
 71
1
  1
32A
  7
SLD-TXT
  0
ARC
  5
FF
330
17
100
AcDbEntity
  8
SLD
100
AcDbCircle
 10
391.98683671133847
 20
366.799779111069
 30
0.0
 40
4.219042652046427
100
AcDbArc
 50
-62.87531552002783
 51
62.88847726338129
  0
CIRCLE
  5
100
330
17
100
AcDbEntity
  8
SLD
100
AcDbCircle
 10
392.7343421524083
 20
370.5552383017033
 30
0.0
 40
0.744761698296705
  0
CIRCLE
  5
101
330
17
100
AcDbEntity
  8
SLD
100
AcDbCircle
 10
392.74602012519534
 20
363.0447616982967
 30
0.0
 40
0.744761698296705
  0
LINE
  5
102
330
17
100
AcDbEntity
  8
SLD-LINE
100
AcDbLine
 10
392.95
 20
362.3
 30
0.0
 11
392.95
 21
360.3
 31
0.0
  0
LINE
  5
103
330
17
100
AcDbEntity
  8
SLD-LINE
100
AcDbLine
 10
392.95
 20
371.3
 30
0.0
 11
392.95
 21
373.3
 31
0.0
  0
LINE
  5
104
330
17
100
AcDbEntity
  8
SLD
100
AcDbLine
 10
377.2058793506995
 20
366.8
 30
0.0
 11
396.2058793506995
 21
366.8
 31
0.0
  0
LINE
  5
105
330
17
100
AcDbEntity
  8
SLD
100
AcDbLine
 10
396.2058793506995
 20
366.8
 30
0.0
 11
395.0058793506995
 21
367.40000000000003
 31
0.0
  0
LINE
  5
106
330
17
100
AcDbEntity
  8
SLD
100
AcDbLine
 10
396.2058793506995
 20
366.8
 30
0.0
 11
395.0058793506995
 21
366.2
 31
0.0
  0
MTEXT
  5
107
330
17
100
AcDbEntity
  8
SLD-TXT
100
AcDbMText
 10
384.2
 20
370.3
 30
0.0
 40
2.0
 71
1
  1
32A
  7
SLD-TXT
  0
LINE
  5
108
330
17
100
AcDbEntity
  8
SLD
100
AcDbLine
 10
286.15
 20
63.8
 30
0.0
 11
286.15
 21
62.0
 31
0.0
  0
LINE
  5
109
330
17
100
AcDbEntity
  8
SLD
100
AcDbLine
 10
283.9
 20
62.0
 30
0.0
 11
288.4
 21
62.0
 31
0.0
  0
LINE
  5
10A
330
17
100
AcDbEntity
  8
SLD
100
AcDbLine
 10
284.65
 20
60.875
 30
0.0
 11
287.65
 21
60.875
 31
0.0
  0
LINE
  5
10B
330
17
100
AcDbEntity
  8
SLD
100
AcDbLine
 10
285.4
 20
59.75
 30
0.0
 11
286.9
 21
59.75
 31
0.0
  0
MTEXT
  5
10C
330
17
100
AcDbEntity
  8
SLD-TXT
100
AcDbMText
 10
291.4
 20
63.55
 30
0.0
 40
1.6
 71
1
  1
E
  7
SLD-TXT
  0
MTEXT
  5
10D
330
17
100
AcDbEntity
  8
SLD-TXT
100
AcDbMText
 10
295.4
 20
63.3
 30
0.0
 40
2.8
 71
1
  1
EARTH BAR 35mm² CPC
  7
SLD-TXT
  0
LINE
  5
10E
330
17
100
AcDbEntity
  8
SLD-LINE
100
AcDbLine
 10
288.4
 20
138.3
 30
0.0
 11
291.4
 21
138.3
 31
0.0
  0
LINE
  5
10F
330
17
100
AcDbEntity
  8
SLD-LINE
100
AcDbLine
 10
288.4
 20
156.3
 30
0.0
 11
291.4
 21
156.3
 31
0.0
  0
LINE
  5
110
330
17
100
AcDbEntity
  8
SLD-LINE
100
AcDbLine
 10
288.4
 20
83.3
 30
0.0
 11
288.35
 21
180.3
 31
0.0
  0
LINE
  5
111
330
17
100
AcDbEntity
  8
SLD-LINE
100
AcDbLine
 10
288.35
 20
193.3
 30
0.0
 11
288.35
 21
287.3
 31
0.0
  0
LINE
  5
112
330
17
100
AcDbEntity
  8
SLD-LINE
100
AcDbLine
 10
288.35
 20
300.3
 30
0.0
 11
288.45
 21
352.3
 31
0.0
  0
LINE
  5
113
330
17
100
AcDbEntity
  8
SLD-LINE
100
AcDbLine
 10
183.95
 20
352.3
 30
0.0
 11
183.95
 21
360.3
 31
0.0
  0
LINE
  5
114
330
17
100
AcDbEntity
  8
SLD-LINE
100
AcDbLine
 10
202.95
 20
352.3
 30
0.0
 11
202.95
 21
360.3
 31
0.0
  0
LINE
  5
115
330
17
100
AcDbEntity
  8
SLD-LINE
100
AcDbLine
 10
221.95
 20
352.3
 30
0.0
 11
221.95
 21
360.3
 31
0.0
  0
LINE
  5
116
330
17
100
AcDbEntity
  8
SLD-LINE
100
AcDbLine
 10
240.95
 20
352.3
 30
0.0
 11
240.95
 21
360.3
 31
0.0
  0
LINE
  5
117
330
17
100
AcDbEntity
  8
SLD-LINE
100
AcDbLine
 10
259.95
 20
352.3
 30
0.0
 11
259.95
 21
360.3
 31
0.0
  0
LINE
  5
118
330
17
100
AcDbEntity
  8
SLD-LINE
100
AcDbLine
 10
278.95
 20
352.3
 30
0.0
 11
278.95
 21
360.3
 31
0.0
  0
LINE
  5
119
330
17
100
AcDbEntity
  8
SLD-LINE
100
AcDbLine
 10
297.95
 20
352.3
 30
0.0
 11
297.95
 21
360.3
 31
0.0
  0
LINE
  5
11A
330
17
100
AcDbEntity
  8
SLD-LINE
100
AcDbLine
 10
316.95
 20
352.3
 30
0.0
 11
316.95
 21
360.3
 31
0.0
  0
LINE
  5
11B
330
17
100
AcDbEntity
  8
SLD-LINE
100
AcDbLine
 10
335.95
 20
352.3
 30
0.0
 11
335.95
 21
360.3
 31
0.0
  0
LINE
  5
11C
330
17
100
AcDbEntity
  8
SLD-LINE
100
AcDbLine
 10
354.95
 20
352.3
 30
0.0
 11
354.95
 21
360.3
 31
0.0
  0
LINE
  5
11D
330
17
100
AcDbEntity
  8
SLD-LINE
100
AcDbLine
 10
373.95
 20
352.3
 30
0.0
 11
373.95
 21
360.3
 31
0.0
  0
LINE
  5
11E
330
17
100
AcDbEntity
  8
SLD-LINE
100
AcDbLine
 10
392.95
 20
352.3
 30
0.0
 11
392.95
 21
360.3
 31
0.0
  0
LINE
  5
11F
330
17
100
AcDbEntity
  8
SLD-LINE
  6
DASHED
100
AcDbLine
 10
270.4
 20
133.3
 30
0.0
 11
306.4
 21
133.3
 31
0.0
  0
LINE
  5
120
330
17
100
AcDbEntity
  8
SLD-LINE
  6
DASHED
100
AcDbLine
 10
270.4
 20
161.3
 30
0.0
 11
306.4
 21
161.3
 31
0.0
  0
LINE
  5
121
330
17
100
AcDbEntity
  8
SLD-LINE
  6
DASHED
100
AcDbLine
 10
270.4
 20
133.3
 30
0.0
 11
270.4
 21
161.3
 31
0.0
  0
LINE
  5
122
330
17
100
AcDbEntity
  8
SLD-LINE
  6
DASHED
100
AcDbLine
 10
306.4
 20
133.3
 30
0.0
 11
306.4
 21
161.3
 31
0.0
  0
LINE
  5
123
330
17
100
AcDbEntity
  8
SLD-LINE
  6
DASHED
100
AcDbLine
 10
228.4
 20
214.3
 30
0.0
 11
348.4
 21
214.3
 31
0.0
  0
LINE
  5
124
330
17
100
AcDbEntity
  8
SLD-LINE
  6
DASHED
100
AcDbLine
 10
228.4
 20
268.3
 30
0.0
 11
348.4
 21
268.3
 31
0.0
  0
LINE
  5
125
330
17
100
AcDbEntity
  8
SLD-LINE
  6
DASHED
100
AcDbLine
 10
228.4
 20
214.3
 30
0.0
 11
228.4
 21
268.3
 31
0.0
  0
LINE
  5
126
330
17
100
AcDbEntity
  8
SLD-LINE
  6
DASHED
100
AcDbLine
 10
348.4
 20
214.3
 30
0.0
 11
348.4
 21
268.3
 31
0.0
  0
LWPOLYLINE
  5
127
330
17
100
AcDbEntity
  8
SLD
100
AcDbPolyline
 90
17
 70
0
 10
288.09999999999997
 20
222.3
 10
288.21705419320966
 20
222.30576441587905
 10
288.32961005941905
 20
222.32283614024664
 10
288.4333421398117
 20
222.35055911630926
 10
288.5242640687119
 20
222.38786796564406
 10
288.5988817673815
 20
222.43332893009415
 10
288.65432771950674
 20
222.4851949702905
 10
288.6884711682419
 20
222.54147290339517
 10
288.7
 20
222.60000000000002
 10
288.6884711682419
 20
222.65852709660487
 10
288.65432771950674
 20
222.71480502970954
 10
288.5988817673815
 20
222.7666710699059
 10
288.5242640687119
 20
222.81213203435598
 10
288.4333421398117
 20
222.8494408836908
 10
288.32961005941905
 20
222.8771638597534
 10
288.21705419320966
 20
222.894235584121
 10
288.09999999999997
 20
222.90000000000003
  0
LWPOLYLINE
  5
128
330
17
100
AcDbEntity
  8
SLD
100
AcDbPolyline
 90
17
 70
0
 10
288.09999999999997
 20
221.7
 10
288.21705419320966
 20
221.70576441587903
 10
288.32961005941905
 20
221.7228361402466
 10
288.4333421398117
 20
221.75055911630923
 10
288.5242640687119
 20
221.78786796564404
 10
288.5988817673815
 20
221.83332893009413
 10
288.65432771950674
 20
221.88519497029048
 10
288.6884711682419
 20
221.94147290339515
 10
288.7
 20
222.0
 10
288.6884711682419
 20
222.05852709660485
 10
288.65432771950674
 20
222.11480502970952
 10
288.5988817673815
 20
222.16667106990587
 10
288.5242640687119
 20
222.21213203435596
 10
288.4333421398117
 20
222.24944088369077
 10
288.32961005941905
 20
222.2771638597534
 10
288.21705419320966
 20
222.29423558412097
 10
288.09999999999997
 20
222.3
  0
MTEXT
  5
129
330
17
100
AcDbEntity
  8
SLD-TXT
100
AcDbMText
 10
13.0
 20
35.0
 30
0.0
 40
3.0
 71
1
  1
Track B demo — ct_meter_12_A2
  7
SLD-TXT
  0
MTEXT
  5
12A
330
17
100
AcDbEntity
  8
SLD-TXT
100
AcDbMText
 10
13.0
 20
30.8
 30
0.0
 40
2.0
 71
1
  1
(test fixture)
  7
SLD-TXT
  0
MTEXT
  5
12B
330
17
100
AcDbEntity
  8
SLD-TXT
100
AcDbMText
 10
213.89999999999998
 20
35.0
 30
0.0
 40
3.0
 71
1
  1
LicenseKaki
  7
SLD-TXT
  0
MTEXT
  5
12C
330
17
100
AcDbEntity
  8
SLD-TXT
100
AcDbMText
 10
317.22
 20
36.0
 30
0.0
 40
3.5
 71
1
  1
SINGLE LINE DIAGRAM\P(SLD)
  7
SLD-TXT
  0
MTEXT
  5
12D
330
17
100
AcDbEntity
  8
SLD-TXT
100
AcDbMText
 10
414.79999999999995
 20
35.0
 30
0.0
 40
3.0
 71
1
  1
—
  7
SLD-TXT
  0
MTEXT
  5
12E
330
17
100
AcDbEntity
  8
SLD-TXT
100
AcDbMText
 10
414.79999999999995
 20
30.8
 30
0.0
 40
2.0
 71
1
  1
EMA Licence No. : —
  7
SLD-TXT
  0
MTEXT
  5
12F
330
17
100
AcDbEntity
  8
SLD-TXT
100
AcDbMText
 10
414.79999999999995
 20
27.6
 30
0.0
 40
2.0
 71
1
  1
Mobile Number. : —
  7
SLD-TXT
  0
MTEXT
  5
130
330
17
100
AcDbEntity
  8
SLD-TXT
100
AcDbMText
 10
552.56
 20
33.0
 30
0.0
 40
2.5
 71
1
  1
09 AUG 2026
  7
SLD-TXT
  0
MTEXT
  5
131
330
17
100
AcDbEntity
  8
SLD-TXT
100
AcDbMText
 10
518.12
 20
21.0
 30
0.0
 40
2.5
 71
1
  1
SLD-001
  7
SLD-TXT
  0
MTEXT
  5
132
330
17
100
AcDbEntity
  8
SLD-TXT
100
AcDbMText
 10
557.56
 20
21.0
 30
0.0
 40
3.5
 71
1
  1
0
  7
SLD-TXT
  0
MTEXT
  5
133
330
17
100
AcDbEntity
  8
SLD-TXT
100
AcDbMText
 10
518.12
 20
12.0
 30
0.0
 40
1.6
 71
1
  1
SCALE : NTS
  7
SLD-TXT
  0
MTEXT
  5
134
330
17
100
AcDbEntity
  8
SLD-TXT
100
AcDbMText
 10
552.56
 20
12.0
 30
0.0
 40
1.6
 71
1
  1
SHEET : 1 OF 1
  7
SLD-TXT
  0
VIEWPORT
  5
135
330
1B
100
AcDbEntity
 67
1
  8
VIEWPORTS
100
AcDbViewport
 10
297.0
 20
210.0
 30
0.0
 40
574.0
 41
400.0
 68
1
 69
3
 12
298.0
 22
191.65
 13
0.0
 23
0.0
 14
10.0
 24
10.0
 15
10.0
 25
10.0
 16
0.0
 26
0.0
 36
1.0
 17
0.0
 27
0.0
 37
0.0
 42
50.0
 43
0.0
 44
0.0
 45
363.3
 50
0.0
 51
0.0
 72
100
 90
0
  1

281
0
 71
0
 74
0
110
0.0
120
0.0
130
0.0
111
1.0
121
0.0
131
0.0
112
0.0
122
1.0
132
0.0
 79
0
146
0.0
282
0
  0
ENDSEC
  0
SECTION
  2
OBJECTS
  0
DICTIONARY
  5
A
330
0
100
AcDbDictionary
281
1
  3
ACAD_COLOR
350
B
  3
ACAD_GROUP
350
C
  3
ACAD_LAYOUT
350
D
  3
ACAD_MATERIAL
350
E
  3
ACAD_MLEADERSTYLE
350
F
  3
ACAD_MLINESTYLE
350
10
  3
ACAD_PLOTSETTINGS
350
11
  3
ACAD_PLOTSTYLENAME
350
12
  3
ACAD_SCALELIST
350
14
  3
ACAD_TABLESTYLE
350
15
  3
ACAD_VISUALSTYLE
350
16
  3
EZDXF_META
350
2D
  0
DICTIONARY
  5
B
330
A
100
AcDbDictionary
281
1
  0
DICTIONARY
  5
C
330
A
100
AcDbDictionary
281
1
  0
DICTIONARY
  5
D
330
A
100
AcDbDictionary
281
1
  3
Model
350
1A
  3
Layout1
350
1E
  0
DICTIONARY
  5
E
330
A
100
AcDbDictionary
281
1
  3
ByBlock
350
1F
  3
ByLayer
350
20
  3
Global
350
21
  0
DICTIONARY
  5
F
330
A
100
AcDbDictionary
281
1
  3
Standard
350
2C
  0
DICTIONARY
  5
10
330
A
100
AcDbDictionary
281
1
  3
Standard
350
22
  0
DICTIONARY
  5
11
330
A
100
AcDbDictionary
281
1
  0
ACDBDICTIONARYWDFLT
  5
12
330
A
100
AcDbDictionary
281
1
  3
Normal
350
13
100
AcDbDictionaryWithDefault
340
13
  0
ACDBPLACEHOLDER
  5
13
330
12
  0
DICTIONARY
  5
14
330
A
100
AcDbDictionary
281
1
  0
DICTIONARY
  5
15
330
A
100
AcDbDictionary
281
1
  0
DICTIONARY
  5
16
330
A
100
AcDbDictionary
281
1
  0
LAYOUT
  5
1A
330
D
100
AcDbPlotSettings
  1

  4
A3
  6

 40
7.5
 41
20.0
 42
7.5
 43
20.0
 44
420.0
 45
297.0
 46
0.0
 47
0.0
 48
0.0
 49
0.0
140
0.0
141
0.0
142
1.0
143
1.0
 70
1024
 72
1
 73
0
 74
5
  7

 75
16
 76
0
 77
2
 78
300
147
1.0
148
0.0
149
0.0
100
AcDbLayout
  1
Model
 70
1
 71
0
 10
0.0
 20
0.0
 11
420.0
 21
297.0
 12
0.0
 22
0.0
 32
0.0
 14
1e+20
 24
1e+20
 34
1e+20
 15
-1e+20
 25
-1e+20
 35
-1e+20
146
0.0
 13
0.0
 23
0.0
 33
0.0
 16
1.0
 26
0.0
 36
0.0
 17
0.0
 27
1.0
 37
0.0
 76
1
330
17
  0
LAYOUT
  5
1E
330
D
100
AcDbPlotSettings
  1

  4
A3
  6

 40
7.5
 41
20.0
 42
7.5
 43
20.0
 44
420.0
 45
297.0
 46
0.0
 47
0.0
 48
0.0
 49
0.0
140
0.0
141
0.0
142
1.0
143
1.0
 70
0
 72
1
 73
0
 74
5
  7

 75
16
 76
0
 77
2
 78
300
147
1.0
148
0.0
149
0.0
100
AcDbLayout
  1
Layout1
 70
1
 71
1
 10
0.0
 20
0.0
 11
420.0
 21
297.0
 12
0.0
 22
0.0
 32
0.0
 14
1e+20
 24
1e+20
 34
1e+20
 15
-1e+20
 25
-1e+20
 35
-1e+20
146
0.0
 13
0.0
 23
0.0
 33
0.0
 16
1.0
 26
0.0
 36
0.0
 17
0.0
 27
1.0
 37
0.0
 76
1
330
1B
  0
MATERIAL
  5
1F
102
{ACAD_REACTORS
330
E
102
}
330
E
100
AcDbMaterial
  1
ByBlock
  2

 70
0
 40
1.0
 71
1
 41
1.0
 91
-1023410177
 42
1.0
 72
1
  3

 73
1
 74
1
 75
1
 44
0.5
 73
0
 45
1.0
 46
1.0
 77
1
  4

 78
1
 79
1
170
1
 48
1.0
171
1
  6

172
1
173
1
174
1
140
1.0
141
1.0
175
1
  7

176
1
177
1
178
1
143
1.0
179
1
  8

270
1
271
1
272
1
145
1.0
146
1.0
273
1
  9

274
1
275
1
276
1
 42
1.0
 72
1
  3

 73
1
 74
1
 75
1
 94
63
  0
MATERIAL
  5
20
102
{ACAD_REACTORS
330
E
102
}
330
E
100
AcDbMaterial
  1
ByLayer
  2

 70
0
 40
1.0
 71
1
 41
1.0
 91
-1023410177
 42
1.0
 72
1
  3

 73
1
 74
1
 75
1
 44
0.5
 73
0
 45
1.0
 46
1.0
 77
1
  4

 78
1
 79
1
170
1
 48
1.0
171
1
  6

172
1
173
1
174
1
140
1.0
141
1.0
175
1
  7

176
1
177
1
178
1
143
1.0
179
1
  8

270
1
271
1
272
1
145
1.0
146
1.0
273
1
  9

274
1
275
1
276
1
 42
1.0
 72
1
  3

 73
1
 74
1
 75
1
 94
63
  0
MATERIAL
  5
21
102
{ACAD_REACTORS
330
E
102
}
330
E
100
AcDbMaterial
  1
Global
  2

 70
0
 40
1.0
 71
1
 41
1.0
 91
-1023410177
 42
1.0
 72
1
  3

 73
1
 74
1
 75
1
 44
0.5
 73
0
 45
1.0
 46
1.0
 77
1
  4

 78
1
 79
1
170
1
 48
1.0
171
1
  6

172
1
173
1
174
1
140
1.0
141
1.0
175
1
  7

176
1
177
1
178
1
143
1.0
179
1
  8

270
1
271
1
272
1
145
1.0
146
1.0
273
1
  9

274
1
275
1
276
1
 42
1.0
 72
1
  3

 73
1
 74
1
 75
1
 94
63
  0
MLINESTYLE
  5
22
102
{ACAD_REACTORS
330
10
102
}
330
10
100
AcDbMlineStyle
  2
Standard
 70
0
  3

 62
256
 51
90.0
 52
90.0
 71
2
 49
0.5
 62
256
  6
BYLAYER
 49
-0.5
 62
256
  6
BYLAYER
  0
MLEADERSTYLE
  5
2C
102
{ACAD_REACTORS
330
F
102
}
330
F
100
AcDbMLeaderStyle
179
2
170
2
171
1
172
0
 90
2
 40
0.0
 41
0.0
173
1
 91
-1056964608
 92
-2
290
1
 42
2.0
291
1
 43
8.0
  3
Standard
 44
4.0
300

342
29
174
1
175
1
176
0
178
1
 93
-1056964608
 45
4.0
292
0
297
0
 46
4.0
 94
-1056964608
 47
1.0
 49
1.0
140
1.0
294
1
141
0.0
177
0
142
1.0
295
0
296
0
143
3.75
271
0
272
9
273
9
  0
DICTIONARY
  5
2D
330
A
100
AcDbDictionary
280
1
281
1
  3
CREATED_BY_EZDXF
350
2E
  3
WRITTEN_BY_EZDXF
350
138
  0
DICTIONARYVAR
  5
2E
330
2D
100
DictionaryVariables
280
0
  1
1.4.3 @ 2026-08-09T13:31:02.548882+00:00
  0
DICTIONARYVAR
  5
138
330
2D
100
DictionaryVariables
280
0
  1
1.4.3 @ 2026-08-09T13:31:02.572666+00:00
  0
ENDSEC
  0
EOF
