<svg xmlns="http://www.w3.org/2000/svg" viewBox="0 0 420.0 297.0" width="420.0mm" height="297.0mm">
  <rect width="420.0" height="297.0" fill="white" />
  <polygon points="10.00,287.00 410.00,287.00 410.00,10.00 10.00,10.00" stroke="#000000" stroke-width="0.25" fill="none" />
  <polygon points="10.00,287.00 410.00,287.00 410.00,255.00 10.00,255.00" stroke="#000000" stroke-width="0.25" fill="none" />
  <line x1="90.00" y1="255.00" x2="90.00" y2="287.00" stroke="#000000" stroke-width="0.25" fill="none" />
  <line x1="150.00" y1="255.00" x2="150.00" y2="287.00" stroke="#000000" stroke-width="0.25" fill="none" />
  <line x1="222.00" y1="255.00" x2="222.00" y2="287.00" stroke="#000000" stroke-width="0.25" fill="none" />
  <line x1="290.00" y1="255.00" x2="290.00" y2="287.00" stroke="#000000" stroke-width="0.25" fill="none" />
  <line x1="362.00" y1="255.00" x2="362.00" y2="287.00" stroke="#000000" stroke-width="0.25" fill="none" />
  <line x1="362.00" y1="270.00" x2="410.00" y2="270.00" stroke="#000000" stroke-width="0.25" fill="none" />
  <line x1="386.00" y1="255.00" x2="386.00" y2="287.00" stroke="#000000" stroke-width="0.25" fill="none" />
  <text x="12.00" y="258.94" font-family="Arial, Helvetica, sans-serif" font-size="1.8" fill="#000000">CLIENT / ADDRESS :</text>
  <text x="92.00" y="258.94" font-family="Arial, Helvetica, sans-serif" font-size="1.8" fill="#000000">MAIN CONTRACTOR :</text>
  <text x="152.00" y="258.94" font-family="Arial, Helvetica, sans-serif" font-size="1.8" fill="#000000">ELECTRICAL CONTRACTOR :</text>
  <text x="224.00" y="258.94" font-family="Arial, Helvetica, sans-serif" font-size="1.8" fill="#000000">DRAWING TITLE :</text>
  <text x="292.00" y="258.94" font-family="Arial, Helvetica, sans-serif" font-size="1.8" fill="#000000">LEW :</text>
  <text x="364.00" y="258.94" font-family="Arial, Helvetica, sans-serif" font-size="1.8" fill="#000000">CHECKED :</text>
  <text x="388.00" y="258.94" font-family="Arial, Helvetica, sans-serif" font-size="1.8" fill="#000000">DATE :</text>
  <text x="364.00" y="273.94" font-family="Arial, Helvetica, sans-serif" font-size="1.8" fill="#000000">DRAWING NO. :</text>
  <text x="388.00" y="273.94" font-family="Arial, Helvetica, sans-serif" font-size="1.8" fill="#000000">REV :</text>
  <text x="217.00" y="204.50" font-family="Arial, Helvetica, sans-serif" font-size="2.8" fill="#000000">FROM POWER SUPPLY ON SITE</text>
  <path d="M 210.96,167.02 A 4.22,4.22 0 0,0 210.96,159.51" stroke="#000000" stroke-width="0.25" fill="none" />
  <circle cx="209.78" cy="159.51" r="0.74" stroke="#000000" stroke-width="0.25" fill="none" />
  <circle cx="209.80" cy="167.02" r="0.74" stroke="#000000" stroke-width="0.25" fill="none" />
  <line x1="210.00" y1="167.76" x2="210.00" y2="169.76" stroke="#000000" stroke-width="0.25" fill="none" />
  <line x1="210.00" y1="158.76" x2="210.00" y2="156.76" stroke="#000000" stroke-width="0.25" fill="none" />
  <text x="213.96" y="162.70" font-family="Arial, Helvetica, sans-serif" font-size="1.8" fill="#000000">63A TPN MCCB (25KA)</text>
  <line x1="74.00" y1="149.76" x2="346.00" y2="149.76" stroke="#000000" stroke-width="0.50" fill="none" />
  <text x="86.80" y="155.00" font-family="Arial, Helvetica, sans-serif" font-size="2.8" fill="#000000">200A BUSBAR</text>
  <text x="98.80" y="146.02" font-family="Arial, Helvetica, sans-serif" font-size="2.2" fill="#000000" transform="rotate(-90.0,98.80,145.14)">L1S1</text>
  <path d="M 98.15,137.10 A 3.75,3.75 0 0,0 98.15,130.43" stroke="#000000" stroke-width="0.25" fill="none" />
  <circle cx="97.11" cy="130.43" r="0.66" stroke="#000000" stroke-width="0.25" fill="none" />
  <circle cx="97.12" cy="137.10" r="0.66" stroke="#000000" stroke-width="0.25" fill="none" />
  <line x1="97.30" y1="137.76" x2="97.30" y2="139.76" stroke="#000000" stroke-width="0.25" fill="none" />
  <line x1="97.30" y1="129.76" x2="97.30" y2="127.76" stroke="#000000" stroke-width="0.25" fill="none" />
  <line x1="94.19" y1="133.76" x2="100.19" y2="133.76" stroke="#000000" stroke-width="0.25" fill="none" />
  <line x1="100.19" y1="133.76" x2="98.99" y2="133.16" stroke="#000000" stroke-width="0.25" fill="none" />
  <line x1="100.19" y1="133.76" x2="98.99" y2="134.36" stroke="#000000" stroke-width="0.25" fill="none" />
  <text x="88.80" y="132.36" font-family="Arial, Helvetica, sans-serif" font-size="2.0" fill="#000000"><tspan x="88.80">B10A</tspan><tspan x="88.80" dy="2.8">SPN</tspan><tspan x="88.80" dy="2.8">MCB</tspan><tspan x="88.80" dy="2.8">6kA</tspan></text>
  <text x="97.30" y="105.00" font-family="Arial, Helvetica, sans-serif" font-size="2.8" fill="#000000" transform="rotate(-90.0,97.30,103.88)">1 NO. LIGHTS</text>
  <text x="131.00" y="146.02" font-family="Arial, Helvetica, sans-serif" font-size="2.2" fill="#000000" transform="rotate(-90.0,131.00,145.14)">L2S1</text>
  <path d="M 130.35,137.10 A 3.75,3.75 0 0,0 130.35,130.43" stroke="#000000" stroke-width="0.25" fill="none" />
  <circle cx="129.31" cy="130.43" r="0.66" stroke="#000000" stroke-width="0.25" fill="none" />
  <circle cx="129.32" cy="137.10" r="0.66" stroke="#000000" stroke-width="0.25" fill="none" />
  <line x1="129.50" y1="137.76" x2="129.50" y2="139.76" stroke="#000000" stroke-width="0.25" fill="none" />
  <line x1="129.50" y1="129.76" x2="129.50" y2="127.76" stroke="#000000" stroke-width="0.25" fill="none" />
  <line x1="100.19" y1="133.76" x2="132.39" y2="133.76" stroke="#000000" stroke-width="0.25" fill="none" />
  <line x1="132.39" y1="133.76" x2="131.19" y2="133.16" stroke="#000000" stroke-width="0.25" fill="none" />
  <line x1="132.39" y1="133.76" x2="131.19" y2="134.36" stroke="#000000" stroke-width="0.25" fill="none" />
  <text x="163.20" y="146.02" font-family="Arial, Helvetica, sans-serif" font-size="2.2" fill="#000000" transform="rotate(-90.0,163.20,145.14)">L3S1</text>
  <path d="M 162.55,137.10 A 3.75,3.75 0 0,0 162.55,130.43" stroke="#000000" stroke-width="0.25" fill="none" />
  <circle cx="161.51" cy="130.43" r="0.66" stroke="#000000" stroke-width="0.25" fill="none" />
  <circle cx="161.52" cy="137.10" r="0.66" stroke="#000000" stroke-width="0.25" fill="none" />
  <line x1="161.70" y1="137.76" x2="161.70" y2="139.76" stroke="#000000" stroke-width="0.25" fill="none" />
  <line x1="161.70" y1="129.76" x2="161.70" y2="127.76" stroke="#000000" stroke-width="0.25" fill="none" />
  <line x1="132.39" y1="133.76" x2="164.59" y2="133.76" stroke="#000000" stroke-width="0.25" fill="none" />
  <line x1="164.59" y1="133.76" x2="163.39" y2="133.16" stroke="#000000" stroke-width="0.25" fill="none" />
  <line x1="164.59" y1="133.76" x2="163.39" y2="134.36" stroke="#000000" stroke-width="0.25" fill="none" />
  <text x="201.40" y="146.02" font-family="Arial, Helvetica, sans-serif" font-size="2.2" fill="#000000" transform="rotate(-90.0,201.40,145.14)">L1P1</text>
  <path d="M 200.75,137.10 A 3.75,3.75 0 0,0 200.75,130.43" stroke="#000000" stroke-width="0.25" fill="none" />
  <circle cx="199.71" cy="130.43" r="0.66" stroke="#000000" stroke-width="0.25" fill="none" />
  <circle cx="199.72" cy="137.10" r="0.66" stroke="#000000" stroke-width="0.25" fill="none" />
  <line x1="199.90" y1="137.76" x2="199.90" y2="139.76" stroke="#000000" stroke-width="0.25" fill="none" />
  <line x1="199.90" y1="129.76" x2="199.90" y2="127.76" stroke="#000000" stroke-width="0.25" fill="none" />
  <line x1="196.79" y1="133.76" x2="202.79" y2="133.76" stroke="#000000" stroke-width="0.25" fill="none" />
  <line x1="202.79" y1="133.76" x2="201.59" y2="133.16" stroke="#000000" stroke-width="0.25" fill="none" />
  <line x1="202.79" y1="133.76" x2="201.59" y2="134.36" stroke="#000000" stroke-width="0.25" fill="none" />
  <text x="191.40" y="132.36" font-family="Arial, Helvetica, sans-serif" font-size="2.0" fill="#000000"><tspan x="191.40">B20A</tspan><tspan x="191.40" dy="2.8">SPN</tspan><tspan x="191.40" dy="2.8">MCB</tspan><tspan x="191.40" dy="2.8">6kA</tspan></text>
  <text x="199.90" y="105.00" font-family="Arial, Helvetica, sans-serif" font-size="2.8" fill="#000000" transform="rotate(-90.0,199.90,103.88)">1 NO. POWER 1</text>
  <text x="233.60" y="146.02" font-family="Arial, Helvetica, sans-serif" font-size="2.2" fill="#000000" transform="rotate(-90.0,233.60,145.14)">L2P1</text>
  <path d="M 232.95,137.10 A 3.75,3.75 0 0,0 232.95,130.43" stroke="#000000" stroke-width="0.25" fill="none" />
  <circle cx="231.91" cy="130.43" r="0.66" stroke="#000000" stroke-width="0.25" fill="none" />
  <circle cx="231.92" cy="137.10" r="0.66" stroke="#000000" stroke-width="0.25" fill="none" />
  <line x1="232.10" y1="137.76" x2="232.10" y2="139.76" stroke="#000000" stroke-width="0.25" fill="none" />
  <line x1="232.10" y1="129.76" x2="232.10" y2="127.76" stroke="#000000" stroke-width="0.25" fill="none" />
  <line x1="202.79" y1="133.76" x2="234.99" y2="133.76" stroke="#000000" stroke-width="0.25" fill="none" />
  <line x1="234.99" y1="133.76" x2="233.79" y2="133.16" stroke="#000000" stroke-width="0.25" fill="none" />
  <line x1="234.99" y1="133.76" x2="233.79" y2="134.36" stroke="#000000" stroke-width="0.25" fill="none" />
  <text x="232.10" y="105.00" font-family="Arial, Helvetica, sans-serif" font-size="2.8" fill="#000000" transform="rotate(-90.0,232.10,103.88)">1 NO. POWER 2</text>
  <text x="265.80" y="146.02" font-family="Arial, Helvetica, sans-serif" font-size="2.2" fill="#000000" transform="rotate(-90.0,265.80,145.14)">L3P1</text>
  <path d="M 265.15,137.10 A 3.75,3.75 0 0,0 265.15,130.43" stroke="#000000" stroke-width="0.25" fill="none" />
  <circle cx="264.11" cy="130.43" r="0.66" stroke="#000000" stroke-width="0.25" fill="none" />
  <circle cx="264.12" cy="137.10" r="0.66" stroke="#000000" stroke-width="0.25" fill="none" />
  <line x1="264.30" y1="137.76" x2="264.30" y2="139.76" stroke="#000000" stroke-width="0.25" fill="none" />
  <line x1="264.30" y1="129.76" x2="264.30" y2="127.76" stroke="#000000" stroke-width="0.25" fill="none" />
  <line x1="261.19" y1="133.76" x2="267.19" y2="133.76" stroke="#000000" stroke-width="0.25" fill="none" />
  <line x1="267.19" y1="133.76" x2="265.99" y2="133.16" stroke="#000000" stroke-width="0.25" fill="none" />
  <line x1="267.19" y1="133.76" x2="265.99" y2="134.36" stroke="#000000" stroke-width="0.25" fill="none" />
  <text x="255.80" y="132.36" font-family="Arial, Helvetica, sans-serif" font-size="2.0" fill="#000000"><tspan x="255.80">B32A</tspan><tspan x="255.80" dy="2.8">SPN</tspan><tspan x="255.80" dy="2.8">MCB</tspan><tspan x="255.80" dy="2.8">6kA</tspan></text>
  <text x="264.30" y="105.00" font-family="Arial, Helvetica, sans-serif" font-size="2.8" fill="#000000" transform="rotate(-90.0,264.30,103.88)">1 NO. AIRCON 1</text>
  <text x="298.00" y="146.02" font-family="Arial, Helvetica, sans-serif" font-size="2.2" fill="#000000" transform="rotate(-90.0,298.00,145.14)">L1P2</text>
  <path d="M 297.35,137.10 A 3.75,3.75 0 0,0 297.35,130.43" stroke="#000000" stroke-width="0.25" fill="none" />
  <circle cx="296.31" cy="130.43" r="0.66" stroke="#000000" stroke-width="0.25" fill="none" />
  <circle cx="296.32" cy="137.10" r="0.66" stroke="#000000" stroke-width="0.25" fill="none" />
  <line x1="296.50" y1="137.76" x2="296.50" y2="139.76" stroke="#000000" stroke-width="0.25" fill="none" />
  <line x1="296.50" y1="129.76" x2="296.50" y2="127.76" stroke="#000000" stroke-width="0.25" fill="none" />
  <line x1="267.19" y1="133.76" x2="299.39" y2="133.76" stroke="#000000" stroke-width="0.25" fill="none" />
  <line x1="299.39" y1="133.76" x2="298.19" y2="133.16" stroke="#000000" stroke-width="0.25" fill="none" />
  <line x1="299.39" y1="133.76" x2="298.19" y2="134.36" stroke="#000000" stroke-width="0.25" fill="none" />
  <text x="296.50" y="105.00" font-family="Arial, Helvetica, sans-serif" font-size="2.8" fill="#000000" transform="rotate(-90.0,296.50,103.88)">1 NO. AIRCON 2</text>
  <text x="330.20" y="146.02" font-family="Arial, Helvetica, sans-serif" font-size="2.2" fill="#000000" transform="rotate(-90.0,330.20,145.14)">L2P2</text>
  <path d="M 329.55,137.10 A 3.75,3.75 0 0,0 329.55,130.43" stroke="#000000" stroke-width="0.25" fill="none" />
  <circle cx="328.51" cy="130.43" r="0.66" stroke="#000000" stroke-width="0.25" fill="none" />
  <circle cx="328.52" cy="137.10" r="0.66" stroke="#000000" stroke-width="0.25" fill="none" />
  <line x1="328.70" y1="137.76" x2="328.70" y2="139.76" stroke="#000000" stroke-width="0.25" fill="none" />
  <line x1="328.70" y1="129.76" x2="328.70" y2="127.76" stroke="#000000" stroke-width="0.25" fill="none" />
  <line x1="234.99" y1="133.76" x2="331.59" y2="133.76" stroke="#000000" stroke-width="0.25" fill="none" />
  <line x1="331.59" y1="133.76" x2="330.39" y2="133.16" stroke="#000000" stroke-width="0.25" fill="none" />
  <line x1="331.59" y1="133.76" x2="330.39" y2="134.36" stroke="#000000" stroke-width="0.25" fill="none" />
  <text x="85.90" y="105.00" font-family="Arial, Helvetica, sans-serif" font-size="2.8" fill="#000000" transform="rotate(-90.0,85.90,103.88)">2C 1.5sqmm PVC + 1.5sqmm</text>
  <text x="89.82" y="105.00" font-family="Arial, Helvetica, sans-serif" font-size="2.8" fill="#000000" transform="rotate(-90.0,89.82,103.88)">PVC CPC IN METAL TRUNKING</text>
  <text x="188.50" y="105.00" font-family="Arial, Helvetica, sans-serif" font-size="2.8" fill="#000000" transform="rotate(-90.0,188.50,103.88)">2C 2.5sqmm PVC + 2.5sqmm</text>
  <text x="192.42" y="105.00" font-family="Arial, Helvetica, sans-serif" font-size="2.8" fill="#000000" transform="rotate(-90.0,192.42,103.88)">PVC CPC IN METAL TRUNKING</text>
  <text x="252.90" y="105.00" font-family="Arial, Helvetica, sans-serif" font-size="2.8" fill="#000000" transform="rotate(-90.0,252.90,103.88)">2C 6.0sqmm PVC + 6.0sqmm</text>
  <text x="256.82" y="105.00" font-family="Arial, Helvetica, sans-serif" font-size="2.8" fill="#000000" transform="rotate(-90.0,256.82,103.88)">PVC CPC IN METAL TRUNKING</text>
  <text x="79.80" y="172.16" font-family="Arial, Helvetica, sans-serif" font-size="3.0" fill="#262626">63A DB</text>
  <text x="79.80" y="175.20" font-family="Arial, Helvetica, sans-serif" font-size="1.8" fill="#262626">APPROVED LOAD: 45 KVA AT 400V</text>
  <text x="79.80" y="185.00" font-family="Arial, Helvetica, sans-serif" font-size="2.8" fill="#000000">(LOCATED INSIDE UNIT)</text>
  <line x1="332.58" y1="180.76" x2="332.58" y2="182.56" stroke="#000000" stroke-width="0.25" fill="none" />
  <line x1="330.33" y1="182.56" x2="334.83" y2="182.56" stroke="#000000" stroke-width="0.25" fill="none" />
  <line x1="331.08" y1="183.69" x2="334.08" y2="183.69" stroke="#000000" stroke-width="0.25" fill="none" />
  <line x1="331.83" y1="184.81" x2="333.33" y2="184.81" stroke="#000000" stroke-width="0.25" fill="none" />
  <text x="337.83" y="182.29" font-family="Arial, Helvetica, sans-serif" font-size="1.6" fill="#000000">E</text>
  <text x="138.12" y="195.75" font-family="Arial, Helvetica, sans-serif" font-size="2.8" fill="#000000"><tspan x="138.12">4 x 1C 16sqmm PVC/PVC +</tspan><tspan x="138.12" dy="3.9">16sqmm PVC CPC IN METAL TRUNKING</tspan></text>
  <line x1="210.00" y1="203.76" x2="215.00" y2="203.76" stroke="#000000" stroke-width="0.25" fill="none" />
  <line x1="210.00" y1="203.76" x2="210.00" y2="189.76" stroke="#000000" stroke-width="0.25" fill="none" />
  <line x1="208.75" y1="195.91" x2="211.25" y2="193.41" stroke="#000000" stroke-width="0.50" fill="none" />
  <line x1="210.00" y1="194.66" x2="201.00" y2="194.66" stroke="#000000" stroke-width="0.25" fill="none" />
  <line x1="210.00" y1="181.76" x2="210.00" y2="167.76" stroke="#000000" stroke-width="0.25" fill="none" />
  <line x1="210.00" y1="169.76" x2="210.00" y2="167.76" stroke="#000000" stroke-width="0.25" fill="none" />
  <line x1="210.00" y1="158.76" x2="210.00" y2="156.76" stroke="#000000" stroke-width="0.25" fill="none" />
  <line x1="210.00" y1="156.76" x2="210.00" y2="151.76" stroke="#000000" stroke-width="0.25" fill="none" />
  <line x1="97.30" y1="141.20" x2="97.30" y2="139.76" stroke="#000000" stroke-width="0.25" fill="none" />
  <line x1="97.30" y1="129.76" x2="97.30" y2="127.76" stroke="#000000" stroke-width="0.25" fill="none" />
  <line x1="97.30" y1="127.76" x2="97.30" y2="104.76" stroke="#000000" stroke-width="0.25" fill="none" />
  <line x1="129.50" y1="149.76" x2="129.50" y2="139.76" stroke="#000000" stroke-width="0.25" fill="none" />
  <line x1="129.50" y1="129.76" x2="129.50" y2="127.76" stroke="#000000" stroke-width="0.25" fill="none" />
  <line x1="129.50" y1="127.76" x2="129.50" y2="104.76" stroke="#000000" stroke-width="0.25" fill="none" />
  <line x1="161.70" y1="141.20" x2="161.70" y2="139.76" stroke="#000000" stroke-width="0.25" fill="none" />
  <line x1="161.70" y1="129.76" x2="161.70" y2="127.76" stroke="#000000" stroke-width="0.25" fill="none" />
  <line x1="161.70" y1="127.76" x2="161.70" y2="104.76" stroke="#000000" stroke-width="0.25" fill="none" />
  <line x1="199.90" y1="141.20" x2="199.90" y2="139.76" stroke="#000000" stroke-width="0.25" fill="none" />
  <line x1="199.90" y1="129.76" x2="199.90" y2="127.76" stroke="#000000" stroke-width="0.25" fill="none" />
  <line x1="199.90" y1="127.76" x2="199.90" y2="104.76" stroke="#000000" stroke-width="0.25" fill="none" />
  <line x1="232.10" y1="149.76" x2="232.10" y2="139.76" stroke="#000000" stroke-width="0.25" fill="none" />
  <line x1="232.10" y1="129.76" x2="232.10" y2="127.76" stroke="#000000" stroke-width="0.25" fill="none" />
  <line x1="232.10" y1="127.76" x2="232.10" y2="104.76" stroke="#000000" stroke-width="0.25" fill="none" />
  <line x1="264.30" y1="141.20" x2="264.30" y2="139.76" stroke="#000000" stroke-width="0.25" fill="none" />
  <line x1="264.30" y1="129.76" x2="264.30" y2="127.76" stroke="#000000" stroke-width="0.25" fill="none" />
  <line x1="264.30" y1="127.76" x2="264.30" y2="104.76" stroke="#000000" stroke-width="0.25" fill="none" />
  <line x1="296.50" y1="149.76" x2="296.50" y2="139.76" stroke="#000000" stroke-width="0.25" fill="none" />
  <line x1="296.50" y1="129.76" x2="296.50" y2="127.76" stroke="#000000" stroke-width="0.25" fill="none" />
  <line x1="296.50" y1="127.76" x2="296.50" y2="104.76" stroke="#000000" stroke-width="0.25" fill="none" />
  <line x1="328.70" y1="141.20" x2="328.70" y2="139.76" stroke="#000000" stroke-width="0.25" fill="none" />
  <line x1="328.70" y1="129.76" x2="328.70" y2="127.76" stroke="#000000" stroke-width="0.25" fill="none" />
  <line x1="328.70" y1="127.76" x2="328.70" y2="104.76" stroke="#000000" stroke-width="0.25" fill="none" />
  <line x1="87.30" y1="109.76" x2="97.30" y2="109.76" stroke="#000000" stroke-width="0.25" fill="none" />
  <line x1="96.05" y1="111.01" x2="98.55" y2="108.51" stroke="#000000" stroke-width="0.50" fill="none" />
  <line x1="87.30" y1="109.76" x2="87.30" y2="104.76" stroke="#000000" stroke-width="0.25" fill="none" />
  <line x1="189.90" y1="109.76" x2="232.10" y2="109.76" stroke="#000000" stroke-width="0.25" fill="none" />
  <line x1="198.65" y1="111.01" x2="201.15" y2="108.51" stroke="#000000" stroke-width="0.50" fill="none" />
  <line x1="230.85" y1="111.01" x2="233.35" y2="108.51" stroke="#000000" stroke-width="0.50" fill="none" />
  <line x1="189.90" y1="109.76" x2="189.90" y2="104.76" stroke="#000000" stroke-width="0.25" fill="none" />
  <line x1="254.30" y1="109.76" x2="296.50" y2="109.76" stroke="#000000" stroke-width="0.25" fill="none" />
  <line x1="263.05" y1="111.01" x2="265.55" y2="108.51" stroke="#000000" stroke-width="0.50" fill="none" />
  <line x1="295.25" y1="111.01" x2="297.75" y2="108.51" stroke="#000000" stroke-width="0.50" fill="none" />
  <line x1="254.30" y1="109.76" x2="254.30" y2="104.76" stroke="#000000" stroke-width="0.25" fill="none" />
  <line x1="332.58" y1="177.76" x2="332.58" y2="180.76" stroke="#000000" stroke-width="0.25" fill="none" />
  <line x1="129.50" y1="149.76" x2="97.30" y2="141.20" stroke="#000000" stroke-width="0.25" fill="none" />
  <line x1="129.50" y1="149.76" x2="161.70" y2="141.20" stroke="#000000" stroke-width="0.25" fill="none" />
  <line x1="232.10" y1="149.76" x2="199.90" y2="141.20" stroke="#000000" stroke-width="0.25" fill="none" />
  <line x1="232.10" y1="149.76" x2="264.30" y2="141.20" stroke="#000000" stroke-width="0.25" fill="none" />
  <line x1="296.50" y1="149.76" x2="328.70" y2="141.20" stroke="#000000" stroke-width="0.25" fill="none" />
  <line x1="73.80" y1="177.76" x2="81.80" y2="177.76" stroke="#808080" stroke-width="0.25" fill="none" />
  <line x1="83.80" y1="177.76" x2="85.30" y2="177.76" stroke="#808080" stroke-width="0.25" fill="none" />
  <line x1="87.30" y1="177.76" x2="95.30" y2="177.76" stroke="#808080" stroke-width="0.25" fill="none" />
  <line x1="97.30" y1="177.76" x2="98.80" y2="177.76" stroke="#808080" stroke-width="0.25" fill="none" />
  <line x1="100.80" y1="177.76" x2="108.80" y2="177.76" stroke="#808080" stroke-width="0.25" fill="none" />
  <line x1="110.80" y1="177.76" x2="112.30" y2="177.76" stroke="#808080" stroke-width="0.25" fill="none" />
  <line x1="114.30" y1="177.76" x2="122.30" y2="177.76" stroke="#808080" stroke-width="0.25" fill="none" />
  <line x1="124.30" y1="177.76" x2="125.80" y2="177.76" stroke="#808080" stroke-width="0.25" fill="none" />
  <line x1="127.80" y1="177.76" x2="135.80" y2="177.76" stroke="#808080" stroke-width="0.25" fill="none" />
  <line x1="137.80" y1="177.76" x2="139.30" y2="177.76" stroke="#808080" stroke-width="0.25" fill="none" />
  <line x1="141.30" y1="177.76" x2="149.30" y2="177.76" stroke="#808080" stroke-width="0.25" fill="none" />
  <line x1="151.30" y1="177.76" x2="152.80" y2="177.76" stroke="#808080" stroke-width="0.25" fill="none" />
  <line x1="154.80" y1="177.76" x2="162.80" y2="177.76" stroke="#808080" stroke-width="0.25" fill="none" />
  <line x1="164.80" y1="177.76" x2="166.30" y2="177.76" stroke="#808080" stroke-width="0.25" fill="none" />
  <line x1="168.30" y1="177.76" x2="176.30" y2="177.76" stroke="#808080" stroke-width="0.25" fill="none" />
  <line x1="178.30" y1="177.76" x2="179.80" y2="177.76" stroke="#808080" stroke-width="0.25" fill="none" />
  <line x1="181.80" y1="177.76" x2="189.80" y2="177.76" stroke="#808080" stroke-width="0.25" fill="none" />
  <line x1="191.80" y1="177.76" x2="193.30" y2="177.76" stroke="#808080" stroke-width="0.25" fill="none" />
  <line x1="195.30" y1="177.76" x2="203.30" y2="177.76" stroke="#808080" stroke-width="0.25" fill="none" />
  <line x1="205.30" y1="177.76" x2="206.80" y2="177.76" stroke="#808080" stroke-width="0.25" fill="none" />
  <line x1="208.80" y1="177.76" x2="216.80" y2="177.76" stroke="#808080" stroke-width="0.25" fill="none" />
  <line x1="218.80" y1="177.76" x2="220.30" y2="177.76" stroke="#808080" stroke-width="0.25" fill="none" />
  <line x1="222.30" y1="177.76" x2="230.30" y2="177.76" stroke="#808080" stroke-width="0.25" fill="none" />
  <line x1="232.30" y1="177.76" x2="233.80" y2="177.76" stroke="#808080" stroke-width="0.25" fill="none" />
  <line x1="235.80" y1="177.76" x2="243.80" y2="177.76" stroke="#808080" stroke-width="0.25" fill="none" />
  <line x1="245.80" y1="177.76" x2="247.30" y2="177.76" stroke="#808080" stroke-width="0.25" fill="none" />
  <line x1="249.30" y1="177.76" x2="257.30" y2="177.76" stroke="#808080" stroke-width="0.25" fill="none" />
  <line x1="259.30" y1="177.76" x2="260.80" y2="177.76" stroke="#808080" stroke-width="0.25" fill="none" />
  <line x1="262.80" y1="177.76" x2="270.80" y2="177.76" stroke="#808080" stroke-width="0.25" fill="none" />
  <line x1="272.80" y1="177.76" x2="274.30" y2="177.76" stroke="#808080" stroke-width="0.25" fill="none" />
  <line x1="276.30" y1="177.76" x2="284.30" y2="177.76" stroke="#808080" stroke-width="0.25" fill="none" />
  <line x1="286.30" y1="177.76" x2="287.80" y2="177.76" stroke="#808080" stroke-width="0.25" fill="none" />
  <line x1="289.80" y1="177.76" x2="297.80" y2="177.76" stroke="#808080" stroke-width="0.25" fill="none" />
  <line x1="299.80" y1="177.76" x2="301.30" y2="177.76" stroke="#808080" stroke-width="0.25" fill="none" />
  <line x1="303.30" y1="177.76" x2="311.30" y2="177.76" stroke="#808080" stroke-width="0.25" fill="none" />
  <line x1="313.30" y1="177.76" x2="314.80" y2="177.76" stroke="#808080" stroke-width="0.25" fill="none" />
  <line x1="316.80" y1="177.76" x2="324.80" y2="177.76" stroke="#808080" stroke-width="0.25" fill="none" />
  <line x1="326.80" y1="177.76" x2="328.30" y2="177.76" stroke="#808080" stroke-width="0.25" fill="none" />
  <line x1="330.30" y1="177.76" x2="338.30" y2="177.76" stroke="#808080" stroke-width="0.25" fill="none" />
  <line x1="340.30" y1="177.76" x2="341.80" y2="177.76" stroke="#808080" stroke-width="0.25" fill="none" />
  <line x1="343.80" y1="177.76" x2="346.20" y2="177.76" stroke="#808080" stroke-width="0.25" fill="none" />
  <line x1="73.80" y1="43.24" x2="81.80" y2="43.24" stroke="#808080" stroke-width="0.25" fill="none" />
  <line x1="83.80" y1="43.24" x2="85.30" y2="43.24" stroke="#808080" stroke-width="0.25" fill="none" />
  <line x1="87.30" y1="43.24" x2="95.30" y2="43.24" stroke="#808080" stroke-width="0.25" fill="none" />
  <line x1="97.30" y1="43.24" x2="98.80" y2="43.24" stroke="#808080" stroke-width="0.25" fill="none" />
  <line x1="100.80" y1="43.24" x2="108.80" y2="43.24" stroke="#808080" stroke-width="0.25" fill="none" />
  <line x1="110.80" y1="43.24" x2="112.30" y2="43.24" stroke="#808080" stroke-width="0.25" fill="none" />
  <line x1="114.30" y1="43.24" x2="122.30" y2="43.24" stroke="#808080" stroke-width="0.25" fill="none" />
  <line x1="124.30" y1="43.24" x2="125.80" y2="43.24" stroke="#808080" stroke-width="0.25" fill="none" />
  <line x1="127.80" y1="43.24" x2="135.80" y2="43.24" stroke="#808080" stroke-width="0.25" fill="none" />
  <line x1="137.80" y1="43.24" x2="139.30" y2="43.24" stroke="#808080" stroke-width="0.25" fill="none" />
  <line x1="141.30" y1="43.24" x2="149.30" y2="43.24" stroke="#808080" stroke-width="0.25" fill="none" />
  <line x1="151.30" y1="43.24" x2="152.80" y2="43.24" stroke="#808080" stroke-width="0.25" fill="none" />
  <line x1="154.80" y1="43.24" x2="162.80" y2="43.24" stroke="#808080" stroke-width="0.25" fill="none" />
  <line x1="164.80" y1="43.24" x2="166.30" y2="43.24" stroke="#808080" stroke-width="0.25" fill="none" />
  <line x1="168.30" y1="43.24" x2="176.30" y2="43.24" stroke="#808080" stroke-width="0.25" fill="none" />
  <line x1="178.30" y1="43.24" x2="179.80" y2="43.24" stroke="#808080" stroke-width="0.25" fill="none" />
  <line x1="181.80" y1="43.24" x2="189.80" y2="43.24" stroke="#808080" stroke-width="0.25" fill="none" />
  <line x1="191.80" y1="43.24" x2="193.30" y2="43.24" stroke="#808080" stroke-width="0.25" fill="none" />
  <line x1="195.30" y1="43.24" x2="203.30" y2="43.24" stroke="#808080" stroke-width="0.25" fill="none" />
  <line x1="205.30" y1="43.24" x2="206.80" y2="43.24" stroke="#808080" stroke-width="0.25" fill="none" />
  <line x1="208.80" y1="43.24" x2="216.80" y2="43.24" stroke="#808080" stroke-width="0.25" fill="none" />
  <line x1="218.80" y1="43.24" x2="220.30" y2="43.24" stroke="#808080" stroke-width="0.25" fill="none" />
  <line x1="222.30" y1="43.24" x2="230.30" y2="43.24" stroke="#808080" stroke-width="0.25" fill="none" />
  <line x1="232.30" y1="43.24" x2="233.80" y2="43.24" stroke="#808080" stroke-width="0.25" fill="none" />
  <line x1="235.80" y1="43.24" x2="243.80" y2="43.24" stroke="#808080" stroke-width="0.25" fill="none" />
  <line x1="245.80" y1="43.24" x2="247.30" y2="43.24" stroke="#808080" stroke-width="0.25" fill="none" />
  <line x1="249.30" y1="43.24" x2="257.30" y2="43.24" stroke="#808080" stroke-width="0.25" fill="none" />
  <line x1="259.30" y1="43.24" x2="260.80" y2="43.24" stroke="#808080" stroke-width="0.25" fill="none" />
  <line x1="262.80" y1="43.24" x2="270.80" y2="43.24" stroke="#808080" stroke-width="0.25" fill="none" />
  <line x1="272.80" y1="43.24" x2="274.30" y2="43.24" stroke="#808080" stroke-width="0.25" fill="none" />
  <line x1="276.30" y1="43.24" x2="284.30" y2="43.24" stroke="#808080" stroke-width="0.25" fill="none" />
  <line x1="286.30" y1="43.24" x2="287.80" y2="43.24" stroke="#808080" stroke-width="0.25" fill="none" />
  <line x1="289.80" y1="43.24" x2="297.80" y2="43.24" stroke="#808080" stroke-width="0.25" fill="none" />
  <line x1="299.80" y1="43.24" x2="301.30" y2="43.24" stroke="#808080" stroke-width="0.25" fill="none" />
  <line x1="303.30" y1="43.24" x2="311.30" y2="43.24" stroke="#808080" stroke-width="0.25" fill="none" />
  <line x1="313.30" y1="43.24" x2="314.80" y2="43.24" stroke="#808080" stroke-width="0.25" fill="none" />
  <line x1="316.80" y1="43.24" x2="324.80" y2="43.24" stroke="#808080" stroke-width="0.25" fill="none" />
  <line x1="326.80" y1="43.24" x2="328.30" y2="43.24" stroke="#808080" stroke-width="0.25" fill="none" />
  <line x1="330.30" y1="43.24" x2="338.30" y2="43.24" stroke="#808080" stroke-width="0.25" fill="none" />
  <line x1="340.30" y1="43.24" x2="341.80" y2="43.24" stroke="#808080" stroke-width="0.25" fill="none" />
  <line x1="343.80" y1="43.24" x2="346.20" y2="43.24" stroke="#808080" stroke-width="0.25" fill="none" />
  <line x1="73.80" y1="177.76" x2="73.80" y2="169.76" stroke="#808080" stroke-width="0.25" fill="none" />
  <line x1="73.80" y1="167.76" x2="73.80" y2="166.26" stroke="#808080" stroke-width="0.25" fill="none" />
  <line x1="73.80" y1="164.26" x2="73.80" y2="156.26" stroke="#808080" stroke-width="0.25" fill="none" />
  <line x1="73.80" y1="154.26" x2="73.80" y2="152.76" stroke="#808080" stroke-width="0.25" fill="none" />
  <line x1="73.80" y1="150.76" x2="73.80" y2="142.76" stroke="#808080" stroke-width="0.25" fill="none" />
  <line x1="73.80" y1="140.76" x2="73.80" y2="139.26" stroke="#808080" stroke-width="0.25" fill="none" />
  <line x1="73.80" y1="137.26" x2="73.80" y2="129.26" stroke="#808080" stroke-width="0.25" fill="none" />
  <line x1="73.80" y1="127.26" x2="73.80" y2="125.76" stroke="#808080" stroke-width="0.25" fill="none" />
  <line x1="73.80" y1="123.76" x2="73.80" y2="115.76" stroke="#808080" stroke-width="0.25" fill="none" />
  <line x1="73.80" y1="113.76" x2="73.80" y2="112.26" stroke="#808080" stroke-width="0.25" fill="none" />
  <line x1="73.80" y1="110.26" x2="73.80" y2="102.26" stroke="#808080" stroke-width="0.25" fill="none" />
  <line x1="73.80" y1="100.26" x2="73.80" y2="98.76" stroke="#808080" stroke-width="0.25" fill="none" />
  <line x1="73.80" y1="96.76" x2="73.80" y2="88.76" stroke="#808080" stroke-width="0.25" fill="none" />
  <line x1="73.80" y1="86.76" x2="73.80" y2="85.26" stroke="#808080" stroke-width="0.25" fill="none" />
  <line x1="73.80" y1="83.26" x2="73.80" y2="75.26" stroke="#808080" stroke-width="0.25" fill="none" />
  <line x1="73.80" y1="73.26" x2="73.80" y2="71.76" stroke="#808080" stroke-width="0.25" fill="none" />
  <line x1="73.80" y1="69.76" x2="73.80" y2="61.76" stroke="#808080" stroke-width="0.25" fill="none" />
  <line x1="73.80" y1="59.76" x2="73.80" y2="58.26" stroke="#808080" stroke-width="0.25" fill="none" />
  <line x1="73.80" y1="56.26" x2="73.80" y2="48.26" stroke="#808080" stroke-width="0.25" fill="none" />
  <line x1="73.80" y1="46.26" x2="73.80" y2="44.76" stroke="#808080" stroke-width="0.25" fill="none" />
  <line x1="346.20" y1="177.76" x2="346.20" y2="169.76" stroke="#808080" stroke-width="0.25" fill="none" />
  <line x1="346.20" y1="167.76" x2="346.20" y2="166.26" stroke="#808080" stroke-width="0.25" fill="none" />
  <line x1="346.20" y1="164.26" x2="346.20" y2="156.26" stroke="#808080" stroke-width="0.25" fill="none" />
  <line x1="346.20" y1="154.26" x2="346.20" y2="152.76" stroke="#808080" stroke-width="0.25" fill="none" />
  <line x1="346.20" y1="150.76" x2="346.20" y2="142.76" stroke="#808080" stroke-width="0.25" fill="none" />
  <line x1="346.20" y1="140.76" x2="346.20" y2="139.26" stroke="#808080" stroke-width="0.25" fill="none" />
  <line x1="346.20" y1="137.26" x2="346.20" y2="129.26" stroke="#808080" stroke-width="0.25" fill="none" />
  <line x1="346.20" y1="127.26" x2="346.20" y2="125.76" stroke="#808080" stroke-width="0.25" fill="none" />
  <line x1="346.20" y1="123.76" x2="346.20" y2="115.76" stroke="#808080" stroke-width="0.25" fill="none" />
  <line x1="346.20" y1="113.76" x2="346.20" y2="112.26" stroke="#808080" stroke-width="0.25" fill="none" />
  <line x1="346.20" y1="110.26" x2="346.20" y2="102.26" stroke="#808080" stroke-width="0.25" fill="none" />
  <line x1="346.20" y1="100.26" x2="346.20" y2="98.76" stroke="#808080" stroke-width="0.25" fill="none" />
  <line x1="346.20" y1="96.76" x2="346.20" y2="88.76" stroke="#808080" stroke-width="0.25" fill="none" />
  <line x1="346.20" y1="86.76" x2="346.20" y2="85.26" stroke="#808080" stroke-width="0.25" fill="none" />
  <line x1="346.20" y1="83.26" x2="346.20" y2="75.26" stroke="#808080" stroke-width="0.25" fill="none" />
  <line x1="346.20" y1="73.26" x2="346.20" y2="71.76" stroke="#808080" stroke-width="0.25" fill="none" />
  <line x1="346.20" y1="69.76" x2="346.20" y2="61.76" stroke="#808080" stroke-width="0.25" fill="none" />
  <line x1="346.20" y1="59.76" x2="346.20" y2="58.26" stroke="#808080" stroke-width="0.25" fill="none" />
  <line x1="346.20" y1="56.26" x2="346.20" y2="48.26" stroke="#808080" stroke-width="0.25" fill="none" />
  <line x1="346.20" y1="46.26" x2="346.20" y2="44.76" stroke="#808080" stroke-width="0.25" fill="none" />
  <circle cx="129.50" cy="149.76" r="0.50" fill="rgb(0,0,0)" stroke="none" />
  <circle cx="129.50" cy="149.76" r="0.50" fill="rgb(0,0,0)" stroke="none" />
  <circle cx="129.50" cy="149.76" r="0.50" fill="rgb(0,0,0)" stroke="none" />
  <circle cx="232.10" cy="149.76" r="0.50" fill="rgb(0,0,0)" stroke="none" />
  <circle cx="232.10" cy="149.76" r="0.50" fill="rgb(0,0,0)" stroke="none" />
  <circle cx="232.10" cy="149.76" r="0.50" fill="rgb(0,0,0)" stroke="none" />
  <circle cx="296.50" cy="149.76" r="0.50" fill="rgb(0,0,0)" stroke="none" />
  <circle cx="296.50" cy="149.76" r="0.50" fill="rgb(0,0,0)" stroke="none" />
  <circle cx="332.58" cy="177.76" r="0.50" fill="rgb(0,0,0)" stroke="none" />
  <text x="13.00" y="264.40" font-family="Arial, Helvetica, sans-serif" font-size="3.0" fill="#000000">Electrical Installation</text>
  <text x="153.00" y="264.40" font-family="Arial, Helvetica, sans-serif" font-size="3.0" fill="#000000">LicenseKaki</text>
  <text x="225.00" y="263.80" font-family="Arial, Helvetica, sans-serif" font-size="3.5" fill="#000000"><tspan x="225.00">SINGLE LINE DIAGRAM</tspan><tspan x="225.00" dy="4.9">(SLD)</tspan></text>
  <text x="389.00" y="266.00" font-family="Arial, Helvetica, sans-serif" font-size="2.5" fill="#000000">DATE</text>
  <text x="365.00" y="278.00" font-family="Arial, Helvetica, sans-serif" font-size="2.5" fill="#000000"></text>
  <text x="394.00" y="278.80" font-family="Arial, Helvetica, sans-serif" font-size="3.5" fill="#000000">0</text>
  <text x="365.00" y="286.28" font-family="Arial, Helvetica, sans-serif" font-size="1.6" fill="#000000">SCALE : NTS</text>
  <text x="389.00" y="286.28" font-family="Arial, Helvetica, sans-serif" font-size="1.6" fill="#000000">SHEET : 1 OF 1</text>
</svg>