<svg xmlns="http://www.w3.org/2000/svg" viewBox="0 0 420.0 297.0" width="420.0mm" height="297.0mm">
  <rect width="420.0" height="297.0" fill="white" />
  <polygon points="10.00,287.00 410.00,287.00 410.00,10.00 10.00,10.00" stroke="#000000" stroke-width="0.25" fill="none" />
  <polygon points="10.00,287.00 410.00,287.00 410.00,255.00 10.00,255.00" stroke="#000000" stroke-width="0.25" fill="none" />
  <line x1="90.00" y1="255.00" x2="90.00" y2="287.00" stroke="#000000" stroke-width="0.25" fill="none" />
  <line x1="150.00" y1="255.00" x2="150.00" y2="287.00" stroke="#000000" stroke-width="0.25" fill="none" />
  <line x1="222.00" y1="255.00" x2="222.00" y2="287.00" stroke="#000000" stroke-width="0.25" fill="none" />
  <line x1="290.00" y1="255.00" x2="290.00" y2="287.00" stroke="#000000" stroke-width="0.25" fill="none" />
  <line x1="362.00" y1="255.00" x2="362.00" y2="287.00" stroke="#000000" stroke-width="0.25" fill="none" />
  <line x1="362.00" y1="270.00" x2="410.00" y2="270.00" stroke="#000000" stroke-width="0.25" fill="none" />
  <line x1="386.00" y1="255.00" x2="386.00" y2="287.00" stroke="#000000" stroke-width="0.25" fill="none" />
  <text x="12.00" y="258.94" font-family="Arial, Helvetica, sans-serif" font-size="1.8" fill="#000000">CLIENT / ADDRESS :</text>
  <text x="92.00" y="258.94" font-family="Arial, Helvetica, sans-serif" font-size="1.8" fill="#000000">MAIN CONTRACTOR :</text>
  <text x="152.00" y="258.94" font-family="Arial, Helvetica, sans-serif" font-size="1.8" fill="#000000">ELECTRICAL CONTRACTOR :</text>
  <text x="224.00" y="258.94" font-family="Arial, Helvetica, sans-serif" font-size="1.8" fill="#000000">DRAWING TITLE :</text>
  <text x="292.00" y="258.94" font-family="Arial, Helvetica, sans-serif" font-size="1.8" fill="#000000">LEW :</text>
  <text x="364.00" y="258.94" font-family="Arial, Helvetica, sans-serif" font-size="1.8" fill="#000000">CHECKED :</text>
  <text x="388.00" y="258.94" font-family="Arial, Helvetica, sans-serif" font-size="1.8" fill="#000000">DATE :</text>
  <text x="364.00" y="273.94" font-family="Arial, Helvetica, sans-serif" font-size="1.8" fill="#000000">DRAWING NO. :</text>
  <text x="388.00" y="273.94" font-family="Arial, Helvetica, sans-serif" font-size="1.8" fill="#000000">REV :</text>
  <text x="217.00" y="189.24" font-family="Arial, Helvetica, sans-serif" font-size="2.8" fill="#000000">FROM POWER SUPPLY ON SITE</text>
  <text x="153.84" y="180.14" font-family="Arial, Helvetica, sans-serif" font-size="2.8" fill="#000000"><tspan x="153.84">4 x 1C 16sqmm PVC/PVC +</tspan><tspan x="153.84" dy="3.9">16sqmm PVC CPC IN METAL TRUNKING</tspan></text>
  <circle cx="210.00" cy="158.00" r="0.35" stroke="#000000" stroke-width="0.25" fill="none" />
  <circle cx="210.00" cy="154.00" r="0.35" stroke="#000000" stroke-width="0.25" fill="none" />
  <path d="M 210.91,157.78 A 2.00,2.00 0 0,0 210.91,154.22" stroke="#000000" stroke-width="0.25" fill="none" />
  <line x1="210.00" y1="153.65" x2="210.00" y2="151.50" stroke="#000000" stroke-width="0.25" fill="none" />
  <line x1="210.00" y1="160.50" x2="210.00" y2="158.35" stroke="#000000" stroke-width="0.25" fill="none" />
  <line x1="210.00" y1="151.50" x2="210.00" y2="149.50" stroke="#000000" stroke-width="0.25" fill="none" />
  <line x1="210.00" y1="160.50" x2="210.00" y2="162.50" stroke="#000000" stroke-width="0.25" fill="none" />
  <text x="215.75" y="155.28" font-family="Arial, Helvetica, sans-serif" font-size="1.6" fill="#000000">63A TPN MCCB (25KA)</text>
  <line x1="82.00" y1="149.50" x2="338.00" y2="149.50" stroke="#000000" stroke-width="0.50" fill="none" />
  <text x="85.00" y="154.74" font-family="Arial, Helvetica, sans-serif" font-size="2.8" fill="#000000">200A COMB BAR</text>
  <text x="97.00" y="147.76" font-family="Arial, Helvetica, sans-serif" font-size="2.2" fill="#000000" transform="rotate(-90.0,97.00,146.00)">L1S1</text>
  <circle cx="95.50" cy="135.20" r="0.35" stroke="#000000" stroke-width="0.25" fill="none" />
  <circle cx="95.50" cy="131.80" r="0.35" stroke="#000000" stroke-width="0.25" fill="none" />
  <path d="M 95.91,135.15 A 1.70,1.70 0 0,0 95.93,131.86" stroke="#000000" stroke-width="0.25" fill="none" />
  <line x1="91.20" y1="133.46" x2="97.20" y2="133.51" stroke="#000000" stroke-width="0.25" fill="none" />
  <line x1="97.20" y1="133.51" x2="95.99" y2="134.10" stroke="#000000" stroke-width="0.25" fill="none" />
  <line x1="97.20" y1="133.51" x2="96.01" y2="132.90" stroke="#000000" stroke-width="0.25" fill="none" />
  <line x1="95.50" y1="131.45" x2="95.50" y2="129.50" stroke="#000000" stroke-width="0.25" fill="none" />
  <line x1="95.50" y1="137.50" x2="95.50" y2="135.55" stroke="#000000" stroke-width="0.25" fill="none" />
  <line x1="95.50" y1="129.50" x2="95.50" y2="127.50" stroke="#000000" stroke-width="0.25" fill="none" />
  <line x1="95.50" y1="137.50" x2="95.50" y2="139.50" stroke="#000000" stroke-width="0.25" fill="none" />
  <text x="87.00" y="132.10" font-family="Arial, Helvetica, sans-serif" font-size="2.0" fill="#000000">B10A</text>
  <text x="87.00" y="134.60" font-family="Arial, Helvetica, sans-serif" font-size="2.0" fill="#000000">SPN</text>
  <text x="87.00" y="137.10" font-family="Arial, Helvetica, sans-serif" font-size="2.0" fill="#000000">MCB</text>
  <text x="87.00" y="139.60" font-family="Arial, Helvetica, sans-serif" font-size="2.0" fill="#000000">6kA</text>
  <text x="95.50" y="104.74" font-family="Arial, Helvetica, sans-serif" font-size="2.8" fill="#000000" transform="rotate(-90.0,95.50,102.50)">1 no. Lights</text>
  <text x="125.62" y="147.76" font-family="Arial, Helvetica, sans-serif" font-size="2.2" fill="#000000" transform="rotate(-90.0,125.62,146.00)">L2S1</text>
  <circle cx="124.12" cy="135.20" r="0.35" stroke="#000000" stroke-width="0.25" fill="none" />
  <circle cx="124.12" cy="131.80" r="0.35" stroke="#000000" stroke-width="0.25" fill="none" />
  <path d="M 124.53,135.15 A 1.70,1.70 0 0,0 124.56,131.86" stroke="#000000" stroke-width="0.25" fill="none" />
  <line x1="124.12" y1="131.45" x2="124.12" y2="129.50" stroke="#000000" stroke-width="0.25" fill="none" />
  <line x1="124.12" y1="137.50" x2="124.12" y2="135.55" stroke="#000000" stroke-width="0.25" fill="none" />
  <line x1="124.12" y1="129.50" x2="124.12" y2="127.50" stroke="#000000" stroke-width="0.25" fill="none" />
  <line x1="124.12" y1="137.50" x2="124.12" y2="139.50" stroke="#000000" stroke-width="0.25" fill="none" />
  <line x1="97.20" y1="133.51" x2="125.82" y2="133.51" stroke="#000000" stroke-width="0.25" fill="none" />
  <line x1="125.82" y1="133.51" x2="124.62" y2="134.10" stroke="#000000" stroke-width="0.25" fill="none" />
  <line x1="125.82" y1="133.51" x2="124.63" y2="132.90" stroke="#000000" stroke-width="0.25" fill="none" />
  <text x="124.12" y="104.74" font-family="Arial, Helvetica, sans-serif" font-size="2.8" fill="#000000" transform="rotate(-90.0,124.12,102.50)">SPARE</text>
  <text x="154.25" y="147.76" font-family="Arial, Helvetica, sans-serif" font-size="2.2" fill="#000000" transform="rotate(-90.0,154.25,146.00)">L3S1</text>
  <circle cx="152.75" cy="135.20" r="0.35" stroke="#000000" stroke-width="0.25" fill="none" />
  <circle cx="152.75" cy="131.80" r="0.35" stroke="#000000" stroke-width="0.25" fill="none" />
  <path d="M 153.16,135.15 A 1.70,1.70 0 0,0 153.18,131.86" stroke="#000000" stroke-width="0.25" fill="none" />
  <line x1="152.75" y1="131.45" x2="152.75" y2="129.50" stroke="#000000" stroke-width="0.25" fill="none" />
  <line x1="152.75" y1="137.50" x2="152.75" y2="135.55" stroke="#000000" stroke-width="0.25" fill="none" />
  <line x1="152.75" y1="129.50" x2="152.75" y2="127.50" stroke="#000000" stroke-width="0.25" fill="none" />
  <line x1="152.75" y1="137.50" x2="152.75" y2="139.50" stroke="#000000" stroke-width="0.25" fill="none" />
  <line x1="125.82" y1="133.51" x2="154.45" y2="133.51" stroke="#000000" stroke-width="0.25" fill="none" />
  <line x1="154.45" y1="133.51" x2="153.24" y2="134.10" stroke="#000000" stroke-width="0.25" fill="none" />
  <line x1="154.45" y1="133.51" x2="153.26" y2="132.90" stroke="#000000" stroke-width="0.25" fill="none" />
  <text x="152.75" y="104.74" font-family="Arial, Helvetica, sans-serif" font-size="2.8" fill="#000000" transform="rotate(-90.0,152.75,102.50)">SPARE</text>
  <text x="188.88" y="147.76" font-family="Arial, Helvetica, sans-serif" font-size="2.2" fill="#000000" transform="rotate(-90.0,188.88,146.00)">L1P1</text>
  <circle cx="187.38" cy="135.20" r="0.35" stroke="#000000" stroke-width="0.25" fill="none" />
  <circle cx="187.38" cy="131.80" r="0.35" stroke="#000000" stroke-width="0.25" fill="none" />
  <path d="M 187.78,135.15 A 1.70,1.70 0 0,0 187.81,131.86" stroke="#000000" stroke-width="0.25" fill="none" />
  <line x1="183.08" y1="133.46" x2="189.07" y2="133.51" stroke="#000000" stroke-width="0.25" fill="none" />
  <line x1="189.07" y1="133.51" x2="187.87" y2="134.10" stroke="#000000" stroke-width="0.25" fill="none" />
  <line x1="189.07" y1="133.51" x2="187.88" y2="132.90" stroke="#000000" stroke-width="0.25" fill="none" />
  <line x1="187.38" y1="131.45" x2="187.38" y2="129.50" stroke="#000000" stroke-width="0.25" fill="none" />
  <line x1="187.38" y1="137.50" x2="187.38" y2="135.55" stroke="#000000" stroke-width="0.25" fill="none" />
  <line x1="187.38" y1="129.50" x2="187.38" y2="127.50" stroke="#000000" stroke-width="0.25" fill="none" />
  <line x1="187.38" y1="137.50" x2="187.38" y2="139.50" stroke="#000000" stroke-width="0.25" fill="none" />
  <text x="178.88" y="132.10" font-family="Arial, Helvetica, sans-serif" font-size="2.0" fill="#000000">B20A</text>
  <text x="178.88" y="134.60" font-family="Arial, Helvetica, sans-serif" font-size="2.0" fill="#000000">SPN</text>
  <text x="178.88" y="137.10" font-family="Arial, Helvetica, sans-serif" font-size="2.0" fill="#000000">MCB</text>
  <text x="178.88" y="139.60" font-family="Arial, Helvetica, sans-serif" font-size="2.0" fill="#000000">6kA</text>
  <text x="187.38" y="104.74" font-family="Arial, Helvetica, sans-serif" font-size="2.8" fill="#000000" transform="rotate(-90.0,187.38,102.50)">1 no. Power 1</text>
  <text x="217.50" y="147.76" font-family="Arial, Helvetica, sans-serif" font-size="2.2" fill="#000000" transform="rotate(-90.0,217.50,146.00)">L2P1</text>
  <circle cx="216.00" cy="135.20" r="0.35" stroke="#000000" stroke-width="0.25" fill="none" />
  <circle cx="216.00" cy="131.80" r="0.35" stroke="#000000" stroke-width="0.25" fill="none" />
  <path d="M 216.41,135.15 A 1.70,1.70 0 0,0 216.43,131.86" stroke="#000000" stroke-width="0.25" fill="none" />
  <line x1="216.00" y1="131.45" x2="216.00" y2="129.50" stroke="#000000" stroke-width="0.25" fill="none" />
  <line x1="216.00" y1="137.50" x2="216.00" y2="135.55" stroke="#000000" stroke-width="0.25" fill="none" />
  <line x1="216.00" y1="129.50" x2="216.00" y2="127.50" stroke="#000000" stroke-width="0.25" fill="none" />
  <line x1="216.00" y1="137.50" x2="216.00" y2="139.50" stroke="#000000" stroke-width="0.25" fill="none" />
  <line x1="189.07" y1="133.51" x2="217.70" y2="133.51" stroke="#000000" stroke-width="0.25" fill="none" />
  <line x1="217.70" y1="133.51" x2="216.49" y2="134.10" stroke="#000000" stroke-width="0.25" fill="none" />
  <line x1="217.70" y1="133.51" x2="216.51" y2="132.90" stroke="#000000" stroke-width="0.25" fill="none" />
  <text x="216.00" y="104.74" font-family="Arial, Helvetica, sans-serif" font-size="2.8" fill="#000000" transform="rotate(-90.0,216.00,102.50)">1 no. Power 2</text>
  <text x="246.12" y="147.76" font-family="Arial, Helvetica, sans-serif" font-size="2.2" fill="#000000" transform="rotate(-90.0,246.12,146.00)">L3P1</text>
  <circle cx="244.62" cy="135.20" r="0.35" stroke="#000000" stroke-width="0.25" fill="none" />
  <circle cx="244.62" cy="131.80" r="0.35" stroke="#000000" stroke-width="0.25" fill="none" />
  <path d="M 245.03,135.15 A 1.70,1.70 0 0,0 245.06,131.86" stroke="#000000" stroke-width="0.25" fill="none" />
  <line x1="240.33" y1="133.46" x2="246.32" y2="133.51" stroke="#000000" stroke-width="0.25" fill="none" />
  <line x1="246.32" y1="133.51" x2="245.12" y2="134.10" stroke="#000000" stroke-width="0.25" fill="none" />
  <line x1="246.32" y1="133.51" x2="245.13" y2="132.90" stroke="#000000" stroke-width="0.25" fill="none" />
  <line x1="244.62" y1="131.45" x2="244.62" y2="129.50" stroke="#000000" stroke-width="0.25" fill="none" />
  <line x1="244.62" y1="137.50" x2="244.62" y2="135.55" stroke="#000000" stroke-width="0.25" fill="none" />
  <line x1="244.62" y1="129.50" x2="244.62" y2="127.50" stroke="#000000" stroke-width="0.25" fill="none" />
  <line x1="244.62" y1="137.50" x2="244.62" y2="139.50" stroke="#000000" stroke-width="0.25" fill="none" />
  <text x="236.12" y="132.10" font-family="Arial, Helvetica, sans-serif" font-size="2.0" fill="#000000">B32A</text>
  <text x="236.12" y="134.60" font-family="Arial, Helvetica, sans-serif" font-size="2.0" fill="#000000">SPN</text>
  <text x="236.12" y="137.10" font-family="Arial, Helvetica, sans-serif" font-size="2.0" fill="#000000">MCB</text>
  <text x="236.12" y="139.60" font-family="Arial, Helvetica, sans-serif" font-size="2.0" fill="#000000">6kA</text>
  <text x="244.62" y="104.74" font-family="Arial, Helvetica, sans-serif" font-size="2.8" fill="#000000" transform="rotate(-90.0,244.62,102.50)">1 no. Aircon 1</text>
  <text x="274.75" y="147.76" font-family="Arial, Helvetica, sans-serif" font-size="2.2" fill="#000000" transform="rotate(-90.0,274.75,146.00)">L1P2</text>
  <circle cx="273.25" cy="135.20" r="0.35" stroke="#000000" stroke-width="0.25" fill="none" />
  <circle cx="273.25" cy="131.80" r="0.35" stroke="#000000" stroke-width="0.25" fill="none" />
  <path d="M 273.66,135.15 A 1.70,1.70 0 0,0 273.68,131.86" stroke="#000000" stroke-width="0.25" fill="none" />
  <line x1="273.25" y1="131.45" x2="273.25" y2="129.50" stroke="#000000" stroke-width="0.25" fill="none" />
  <line x1="273.25" y1="137.50" x2="273.25" y2="135.55" stroke="#000000" stroke-width="0.25" fill="none" />
  <line x1="273.25" y1="129.50" x2="273.25" y2="127.50" stroke="#000000" stroke-width="0.25" fill="none" />
  <line x1="273.25" y1="137.50" x2="273.25" y2="139.50" stroke="#000000" stroke-width="0.25" fill="none" />
  <line x1="246.32" y1="133.51" x2="274.95" y2="133.51" stroke="#000000" stroke-width="0.25" fill="none" />
  <line x1="274.95" y1="133.51" x2="273.74" y2="134.10" stroke="#000000" stroke-width="0.25" fill="none" />
  <line x1="274.95" y1="133.51" x2="273.76" y2="132.90" stroke="#000000" stroke-width="0.25" fill="none" />
  <text x="273.25" y="104.74" font-family="Arial, Helvetica, sans-serif" font-size="2.8" fill="#000000" transform="rotate(-90.0,273.25,102.50)">1 no. Aircon 2</text>
  <text x="303.38" y="147.76" font-family="Arial, Helvetica, sans-serif" font-size="2.2" fill="#000000" transform="rotate(-90.0,303.38,146.00)">L2P2</text>
  <circle cx="301.88" cy="135.20" r="0.35" stroke="#000000" stroke-width="0.25" fill="none" />
  <circle cx="301.88" cy="131.80" r="0.35" stroke="#000000" stroke-width="0.25" fill="none" />
  <path d="M 302.28,135.15 A 1.70,1.70 0 0,0 302.31,131.86" stroke="#000000" stroke-width="0.25" fill="none" />
  <line x1="301.88" y1="131.45" x2="301.88" y2="129.50" stroke="#000000" stroke-width="0.25" fill="none" />
  <line x1="301.88" y1="137.50" x2="301.88" y2="135.55" stroke="#000000" stroke-width="0.25" fill="none" />
  <line x1="301.88" y1="129.50" x2="301.88" y2="127.50" stroke="#000000" stroke-width="0.25" fill="none" />
  <line x1="301.88" y1="137.50" x2="301.88" y2="139.50" stroke="#000000" stroke-width="0.25" fill="none" />
  <line x1="217.70" y1="133.51" x2="303.57" y2="133.51" stroke="#000000" stroke-width="0.25" fill="none" />
  <line x1="303.57" y1="133.51" x2="302.37" y2="134.10" stroke="#000000" stroke-width="0.25" fill="none" />
  <line x1="303.57" y1="133.51" x2="302.38" y2="132.90" stroke="#000000" stroke-width="0.25" fill="none" />
  <text x="301.88" y="104.74" font-family="Arial, Helvetica, sans-serif" font-size="2.8" fill="#000000" transform="rotate(-90.0,301.88,102.50)">SPARE</text>
  <text x="332.00" y="147.76" font-family="Arial, Helvetica, sans-serif" font-size="2.2" fill="#000000" transform="rotate(-90.0,332.00,146.00)">L3P2</text>
  <circle cx="330.50" cy="135.20" r="0.35" stroke="#000000" stroke-width="0.25" fill="none" />
  <circle cx="330.50" cy="131.80" r="0.35" stroke="#000000" stroke-width="0.25" fill="none" />
  <path d="M 330.91,135.15 A 1.70,1.70 0 0,0 330.93,131.86" stroke="#000000" stroke-width="0.25" fill="none" />
  <line x1="330.50" y1="131.45" x2="330.50" y2="129.50" stroke="#000000" stroke-width="0.25" fill="none" />
  <line x1="330.50" y1="137.50" x2="330.50" y2="135.55" stroke="#000000" stroke-width="0.25" fill="none" />
  <line x1="330.50" y1="129.50" x2="330.50" y2="127.50" stroke="#000000" stroke-width="0.25" fill="none" />
  <line x1="330.50" y1="137.50" x2="330.50" y2="139.50" stroke="#000000" stroke-width="0.25" fill="none" />
  <line x1="274.95" y1="133.51" x2="332.20" y2="133.51" stroke="#000000" stroke-width="0.25" fill="none" />
  <line x1="332.20" y1="133.51" x2="330.99" y2="134.10" stroke="#000000" stroke-width="0.25" fill="none" />
  <line x1="332.20" y1="133.51" x2="331.01" y2="132.90" stroke="#000000" stroke-width="0.25" fill="none" />
  <text x="330.50" y="104.74" font-family="Arial, Helvetica, sans-serif" font-size="2.8" fill="#000000" transform="rotate(-90.0,330.50,102.50)">SPARE</text>
  <text x="98.20" y="106.30" font-family="Arial, Helvetica, sans-serif" font-size="2.8" fill="#000000" transform="rotate(-90.0,98.20,106.30)">2C 1.5sqmm PVC + 1.5sqmm</text>
  <text x="102.12" y="106.30" font-family="Arial, Helvetica, sans-serif" font-size="2.8" fill="#000000" transform="rotate(-90.0,102.12,106.30)">PVC CPC IN METAL TRUNKING</text>
  <text x="210.30" y="106.30" font-family="Arial, Helvetica, sans-serif" font-size="2.8" fill="#000000" transform="rotate(-90.0,210.30,106.30)">2C 2.5sqmm PVC + 2.5sqmm</text>
  <text x="214.22" y="106.30" font-family="Arial, Helvetica, sans-serif" font-size="2.8" fill="#000000" transform="rotate(-90.0,214.22,106.30)">PVC CPC IN METAL TRUNKING</text>
  <text x="247.33" y="106.30" font-family="Arial, Helvetica, sans-serif" font-size="2.8" fill="#000000" transform="rotate(-90.0,247.33,106.30)">2C 6.0sqmm PVC + 6.0sqmm</text>
  <text x="251.25" y="106.30" font-family="Arial, Helvetica, sans-serif" font-size="2.8" fill="#000000" transform="rotate(-90.0,251.25,106.30)">PVC CPC IN METAL TRUNKING</text>
  <text x="78.00" y="164.90" font-family="Arial, Helvetica, sans-serif" font-size="3.0" fill="#000000">63A DB</text>
  <text x="78.00" y="167.94" font-family="Arial, Helvetica, sans-serif" font-size="1.8" fill="#000000">APPROVED LOAD: 45 kVA</text>
  <line x1="355.75" y1="170.00" x2="355.75" y2="171.80" stroke="#000000" stroke-width="0.25" fill="none" />
  <line x1="353.00" y1="171.80" x2="358.50" y2="171.80" stroke="#000000" stroke-width="0.25" fill="none" />
  <line x1="353.92" y1="172.93" x2="357.58" y2="172.93" stroke="#000000" stroke-width="0.25" fill="none" />
  <line x1="354.83" y1="174.05" x2="356.67" y2="174.05" stroke="#000000" stroke-width="0.25" fill="none" />
  <text x="361.50" y="171.53" font-family="Arial, Helvetica, sans-serif" font-size="1.6" fill="#000000">E</text>
  <line x1="210.00" y1="188.50" x2="215.00" y2="188.50" stroke="#000000" stroke-width="0.25" fill="none" />
  <line x1="210.00" y1="188.50" x2="210.00" y2="174.50" stroke="#000000" stroke-width="0.25" fill="none" />
  <line x1="210.00" y1="179.40" x2="201.00" y2="179.40" stroke="#000000" stroke-width="0.25" fill="none" />
  <line x1="210.00" y1="174.50" x2="210.00" y2="162.50" stroke="#000000" stroke-width="0.25" fill="none" />
  <line x1="210.00" y1="152.50" x2="210.00" y2="149.50" stroke="#000000" stroke-width="0.25" fill="none" />
  <line x1="95.50" y1="147.00" x2="95.50" y2="139.50" stroke="#000000" stroke-width="0.25" fill="none" />
  <line x1="95.50" y1="127.50" x2="95.50" y2="104.50" stroke="#000000" stroke-width="0.25" fill="none" />
  <line x1="124.12" y1="149.50" x2="124.12" y2="139.50" stroke="#000000" stroke-width="0.25" fill="none" />
  <line x1="124.12" y1="127.50" x2="124.12" y2="104.50" stroke="#000000" stroke-width="0.25" fill="none" />
  <line x1="152.75" y1="147.00" x2="152.75" y2="139.50" stroke="#000000" stroke-width="0.25" fill="none" />
  <line x1="152.75" y1="127.50" x2="152.75" y2="104.50" stroke="#000000" stroke-width="0.25" fill="none" />
  <line x1="187.38" y1="147.00" x2="187.38" y2="139.50" stroke="#000000" stroke-width="0.25" fill="none" />
  <line x1="187.38" y1="127.50" x2="187.38" y2="104.50" stroke="#000000" stroke-width="0.25" fill="none" />
  <line x1="216.00" y1="149.50" x2="216.00" y2="139.50" stroke="#000000" stroke-width="0.25" fill="none" />
  <line x1="216.00" y1="127.50" x2="216.00" y2="104.50" stroke="#000000" stroke-width="0.25" fill="none" />
  <line x1="244.62" y1="147.00" x2="244.62" y2="139.50" stroke="#000000" stroke-width="0.25" fill="none" />
  <line x1="244.62" y1="127.50" x2="244.62" y2="104.50" stroke="#000000" stroke-width="0.25" fill="none" />
  <line x1="273.25" y1="147.00" x2="273.25" y2="139.50" stroke="#000000" stroke-width="0.25" fill="none" />
  <line x1="273.25" y1="127.50" x2="273.25" y2="104.50" stroke="#000000" stroke-width="0.25" fill="none" />
  <line x1="301.88" y1="149.50" x2="301.88" y2="139.50" stroke="#000000" stroke-width="0.25" fill="none" />
  <line x1="301.88" y1="127.50" x2="301.88" y2="104.50" stroke="#000000" stroke-width="0.25" fill="none" />
  <line x1="330.50" y1="147.00" x2="330.50" y2="139.50" stroke="#000000" stroke-width="0.25" fill="none" />
  <line x1="330.50" y1="127.50" x2="330.50" y2="104.50" stroke="#000000" stroke-width="0.25" fill="none" />
  <line x1="124.12" y1="149.50" x2="95.50" y2="147.00" stroke="#000000" stroke-width="0.25" fill="none" />
  <line x1="124.12" y1="149.50" x2="152.75" y2="147.00" stroke="#000000" stroke-width="0.25" fill="none" />
  <line x1="216.00" y1="149.50" x2="187.38" y2="147.00" stroke="#000000" stroke-width="0.25" fill="none" />
  <line x1="216.00" y1="149.50" x2="244.62" y2="147.00" stroke="#000000" stroke-width="0.25" fill="none" />
  <line x1="301.88" y1="149.50" x2="273.25" y2="147.00" stroke="#000000" stroke-width="0.25" fill="none" />
  <line x1="301.88" y1="149.50" x2="330.50" y2="147.00" stroke="#000000" stroke-width="0.25" fill="none" />
  <line x1="101.20" y1="109.50" x2="95.50" y2="109.50" stroke="#000000" stroke-width="0.25" fill="none" />
  <line x1="101.20" y1="109.50" x2="101.20" y2="104.50" stroke="#000000" stroke-width="0.25" fill="none" />
  <line x1="187.38" y1="109.50" x2="210.30" y2="109.50" stroke="#000000" stroke-width="0.25" fill="none" />
  <line x1="210.30" y1="109.50" x2="210.30" y2="104.50" stroke="#000000" stroke-width="0.25" fill="none" />
  <line x1="250.33" y1="109.50" x2="273.25" y2="109.50" stroke="#000000" stroke-width="0.25" fill="none" />
  <line x1="250.33" y1="109.50" x2="250.33" y2="104.50" stroke="#000000" stroke-width="0.25" fill="none" />
  <line x1="348.00" y1="170.00" x2="355.75" y2="170.00" stroke="#000000" stroke-width="0.25" fill="none" />
  <line x1="208.75" y1="180.65" x2="211.25" y2="178.15" stroke="#000000" stroke-width="0.50" fill="none" />
  <line x1="94.25" y1="110.75" x2="96.75" y2="108.25" stroke="#000000" stroke-width="0.50" fill="none" />
  <line x1="186.12" y1="110.75" x2="188.62" y2="108.25" stroke="#000000" stroke-width="0.50" fill="none" />
  <line x1="214.75" y1="110.75" x2="217.25" y2="108.25" stroke="#000000" stroke-width="0.50" fill="none" />
  <line x1="243.38" y1="110.75" x2="245.88" y2="108.25" stroke="#000000" stroke-width="0.50" fill="none" />
  <line x1="272.00" y1="110.75" x2="274.50" y2="108.25" stroke="#000000" stroke-width="0.50" fill="none" />
  <line x1="72.00" y1="170.50" x2="80.00" y2="170.50" stroke="#000000" stroke-width="0.25" fill="none" />
  <line x1="82.00" y1="170.50" x2="83.50" y2="170.50" stroke="#000000" stroke-width="0.25" fill="none" />
  <line x1="85.50" y1="170.50" x2="93.50" y2="170.50" stroke="#000000" stroke-width="0.25" fill="none" />
  <line x1="95.50" y1="170.50" x2="97.00" y2="170.50" stroke="#000000" stroke-width="0.25" fill="none" />
  <line x1="99.00" y1="170.50" x2="107.00" y2="170.50" stroke="#000000" stroke-width="0.25" fill="none" />
  <line x1="109.00" y1="170.50" x2="110.50" y2="170.50" stroke="#000000" stroke-width="0.25" fill="none" />
  <line x1="112.50" y1="170.50" x2="120.50" y2="170.50" stroke="#000000" stroke-width="0.25" fill="none" />
  <line x1="122.50" y1="170.50" x2="124.00" y2="170.50" stroke="#000000" stroke-width="0.25" fill="none" />
  <line x1="126.00" y1="170.50" x2="134.00" y2="170.50" stroke="#000000" stroke-width="0.25" fill="none" />
  <line x1="136.00" y1="170.50" x2="137.50" y2="170.50" stroke="#000000" stroke-width="0.25" fill="none" />
  <line x1="139.50" y1="170.50" x2="147.50" y2="170.50" stroke="#000000" stroke-width="0.25" fill="none" />
  <line x1="149.50" y1="170.50" x2="151.00" y2="170.50" stroke="#000000" stroke-width="0.25" fill="none" />
  <line x1="153.00" y1="170.50" x2="161.00" y2="170.50" stroke="#000000" stroke-width="0.25" fill="none" />
  <line x1="163.00" y1="170.50" x2="164.50" y2="170.50" stroke="#000000" stroke-width="0.25" fill="none" />
  <line x1="166.50" y1="170.50" x2="174.50" y2="170.50" stroke="#000000" stroke-width="0.25" fill="none" />
  <line x1="176.50" y1="170.50" x2="178.00" y2="170.50" stroke="#000000" stroke-width="0.25" fill="none" />
  <line x1="180.00" y1="170.50" x2="188.00" y2="170.50" stroke="#000000" stroke-width="0.25" fill="none" />
  <line x1="190.00" y1="170.50" x2="191.50" y2="170.50" stroke="#000000" stroke-width="0.25" fill="none" />
  <line x1="193.50" y1="170.50" x2="201.50" y2="170.50" stroke="#000000" stroke-width="0.25" fill="none" />
  <line x1="203.50" y1="170.50" x2="205.00" y2="170.50" stroke="#000000" stroke-width="0.25" fill="none" />
  <line x1="207.00" y1="170.50" x2="215.00" y2="170.50" stroke="#000000" stroke-width="0.25" fill="none" />
  <line x1="217.00" y1="170.50" x2="218.50" y2="170.50" stroke="#000000" stroke-width="0.25" fill="none" />
  <line x1="220.50" y1="170.50" x2="228.50" y2="170.50" stroke="#000000" stroke-width="0.25" fill="none" />
  <line x1="230.50" y1="170.50" x2="232.00" y2="170.50" stroke="#000000" stroke-width="0.25" fill="none" />
  <line x1="234.00" y1="170.50" x2="242.00" y2="170.50" stroke="#000000" stroke-width="0.25" fill="none" />
  <line x1="244.00" y1="170.50" x2="245.50" y2="170.50" stroke="#000000" stroke-width="0.25" fill="none" />
  <line x1="247.50" y1="170.50" x2="255.50" y2="170.50" stroke="#000000" stroke-width="0.25" fill="none" />
  <line x1="257.50" y1="170.50" x2="259.00" y2="170.50" stroke="#000000" stroke-width="0.25" fill="none" />
  <line x1="261.00" y1="170.50" x2="269.00" y2="170.50" stroke="#000000" stroke-width="0.25" fill="none" />
  <line x1="271.00" y1="170.50" x2="272.50" y2="170.50" stroke="#000000" stroke-width="0.25" fill="none" />
  <line x1="274.50" y1="170.50" x2="282.50" y2="170.50" stroke="#000000" stroke-width="0.25" fill="none" />
  <line x1="284.50" y1="170.50" x2="286.00" y2="170.50" stroke="#000000" stroke-width="0.25" fill="none" />
  <line x1="288.00" y1="170.50" x2="296.00" y2="170.50" stroke="#000000" stroke-width="0.25" fill="none" />
  <line x1="298.00" y1="170.50" x2="299.50" y2="170.50" stroke="#000000" stroke-width="0.25" fill="none" />
  <line x1="301.50" y1="170.50" x2="309.50" y2="170.50" stroke="#000000" stroke-width="0.25" fill="none" />
  <line x1="311.50" y1="170.50" x2="313.00" y2="170.50" stroke="#000000" stroke-width="0.25" fill="none" />
  <line x1="315.00" y1="170.50" x2="323.00" y2="170.50" stroke="#000000" stroke-width="0.25" fill="none" />
  <line x1="325.00" y1="170.50" x2="326.50" y2="170.50" stroke="#000000" stroke-width="0.25" fill="none" />
  <line x1="328.50" y1="170.50" x2="336.50" y2="170.50" stroke="#000000" stroke-width="0.25" fill="none" />
  <line x1="338.50" y1="170.50" x2="340.00" y2="170.50" stroke="#000000" stroke-width="0.25" fill="none" />
  <line x1="342.00" y1="170.50" x2="348.00" y2="170.50" stroke="#000000" stroke-width="0.25" fill="none" />
  <line x1="72.00" y1="119.50" x2="80.00" y2="119.50" stroke="#000000" stroke-width="0.25" fill="none" />
  <line x1="82.00" y1="119.50" x2="83.50" y2="119.50" stroke="#000000" stroke-width="0.25" fill="none" />
  <line x1="85.50" y1="119.50" x2="93.50" y2="119.50" stroke="#000000" stroke-width="0.25" fill="none" />
  <line x1="95.50" y1="119.50" x2="97.00" y2="119.50" stroke="#000000" stroke-width="0.25" fill="none" />
  <line x1="99.00" y1="119.50" x2="107.00" y2="119.50" stroke="#000000" stroke-width="0.25" fill="none" />
  <line x1="109.00" y1="119.50" x2="110.50" y2="119.50" stroke="#000000" stroke-width="0.25" fill="none" />
  <line x1="112.50" y1="119.50" x2="120.50" y2="119.50" stroke="#000000" stroke-width="0.25" fill="none" />
  <line x1="122.50" y1="119.50" x2="124.00" y2="119.50" stroke="#000000" stroke-width="0.25" fill="none" />
  <line x1="126.00" y1="119.50" x2="134.00" y2="119.50" stroke="#000000" stroke-width="0.25" fill="none" />
  <line x1="136.00" y1="119.50" x2="137.50" y2="119.50" stroke="#000000" stroke-width="0.25" fill="none" />
  <line x1="139.50" y1="119.50" x2="147.50" y2="119.50" stroke="#000000" stroke-width="0.25" fill="none" />
  <line x1="149.50" y1="119.50" x2="151.00" y2="119.50" stroke="#000000" stroke-width="0.25" fill="none" />
  <line x1="153.00" y1="119.50" x2="161.00" y2="119.50" stroke="#000000" stroke-width="0.25" fill="none" />
  <line x1="163.00" y1="119.50" x2="164.50" y2="119.50" stroke="#000000" stroke-width="0.25" fill="none" />
  <line x1="166.50" y1="119.50" x2="174.50" y2="119.50" stroke="#000000" stroke-width="0.25" fill="none" />
  <line x1="176.50" y1="119.50" x2="178.00" y2="119.50" stroke="#000000" stroke-width="0.25" fill="none" />
  <line x1="180.00" y1="119.50" x2="188.00" y2="119.50" stroke="#000000" stroke-width="0.25" fill="none" />
  <line x1="190.00" y1="119.50" x2="191.50" y2="119.50" stroke="#000000" stroke-width="0.25" fill="none" />
  <line x1="193.50" y1="119.50" x2="201.50" y2="119.50" stroke="#000000" stroke-width="0.25" fill="none" />
  <line x1="203.50" y1="119.50" x2="205.00" y2="119.50" stroke="#000000" stroke-width="0.25" fill="none" />
  <line x1="207.00" y1="119.50" x2="215.00" y2="119.50" stroke="#000000" stroke-width="0.25" fill="none" />
  <line x1="217.00" y1="119.50" x2="218.50" y2="119.50" stroke="#000000" stroke-width="0.25" fill="none" />
  <line x1="220.50" y1="119.50" x2="228.50" y2="119.50" stroke="#000000" stroke-width="0.25" fill="none" />
  <line x1="230.50" y1="119.50" x2="232.00" y2="119.50" stroke="#000000" stroke-width="0.25" fill="none" />
  <line x1="234.00" y1="119.50" x2="242.00" y2="119.50" stroke="#000000" stroke-width="0.25" fill="none" />
  <line x1="244.00" y1="119.50" x2="245.50" y2="119.50" stroke="#000000" stroke-width="0.25" fill="none" />
  <line x1="247.50" y1="119.50" x2="255.50" y2="119.50" stroke="#000000" stroke-width="0.25" fill="none" />
  <line x1="257.50" y1="119.50" x2="259.00" y2="119.50" stroke="#000000" stroke-width="0.25" fill="none" />
  <line x1="261.00" y1="119.50" x2="269.00" y2="119.50" stroke="#000000" stroke-width="0.25" fill="none" />
  <line x1="271.00" y1="119.50" x2="272.50" y2="119.50" stroke="#000000" stroke-width="0.25" fill="none" />
  <line x1="274.50" y1="119.50" x2="282.50" y2="119.50" stroke="#000000" stroke-width="0.25" fill="none" />
  <line x1="284.50" y1="119.50" x2="286.00" y2="119.50" stroke="#000000" stroke-width="0.25" fill="none" />
  <line x1="288.00" y1="119.50" x2="296.00" y2="119.50" stroke="#000000" stroke-width="0.25" fill="none" />
  <line x1="298.00" y1="119.50" x2="299.50" y2="119.50" stroke="#000000" stroke-width="0.25" fill="none" />
  <line x1="301.50" y1="119.50" x2="309.50" y2="119.50" stroke="#000000" stroke-width="0.25" fill="none" />
  <line x1="311.50" y1="119.50" x2="313.00" y2="119.50" stroke="#000000" stroke-width="0.25" fill="none" />
  <line x1="315.00" y1="119.50" x2="323.00" y2="119.50" stroke="#000000" stroke-width="0.25" fill="none" />
  <line x1="325.00" y1="119.50" x2="326.50" y2="119.50" stroke="#000000" stroke-width="0.25" fill="none" />
  <line x1="328.50" y1="119.50" x2="336.50" y2="119.50" stroke="#000000" stroke-width="0.25" fill="none" />
  <line x1="338.50" y1="119.50" x2="340.00" y2="119.50" stroke="#000000" stroke-width="0.25" fill="none" />
  <line x1="342.00" y1="119.50" x2="348.00" y2="119.50" stroke="#000000" stroke-width="0.25" fill="none" />
  <line x1="72.00" y1="170.50" x2="72.00" y2="162.50" stroke="#000000" stroke-width="0.25" fill="none" />
  <line x1="72.00" y1="160.50" x2="72.00" y2="159.00" stroke="#000000" stroke-width="0.25" fill="none" />
  <line x1="72.00" y1="157.00" x2="72.00" y2="149.00" stroke="#000000" stroke-width="0.25" fill="none" />
  <line x1="72.00" y1="147.00" x2="72.00" y2="145.50" stroke="#000000" stroke-width="0.25" fill="none" />
  <line x1="72.00" y1="143.50" x2="72.00" y2="135.50" stroke="#000000" stroke-width="0.25" fill="none" />
  <line x1="72.00" y1="133.50" x2="72.00" y2="132.00" stroke="#000000" stroke-width="0.25" fill="none" />
  <line x1="72.00" y1="130.00" x2="72.00" y2="122.00" stroke="#000000" stroke-width="0.25" fill="none" />
  <line x1="72.00" y1="120.00" x2="72.00" y2="119.50" stroke="#000000" stroke-width="0.25" fill="none" />
  <line x1="348.00" y1="170.50" x2="348.00" y2="162.50" stroke="#000000" stroke-width="0.25" fill="none" />
  <line x1="348.00" y1="160.50" x2="348.00" y2="159.00" stroke="#000000" stroke-width="0.25" fill="none" />
  <line x1="348.00" y1="157.00" x2="348.00" y2="149.00" stroke="#000000" stroke-width="0.25" fill="none" />
  <line x1="348.00" y1="147.00" x2="348.00" y2="145.50" stroke="#000000" stroke-width="0.25" fill="none" />
  <line x1="348.00" y1="143.50" x2="348.00" y2="135.50" stroke="#000000" stroke-width="0.25" fill="none" />
  <line x1="348.00" y1="133.50" x2="348.00" y2="132.00" stroke="#000000" stroke-width="0.25" fill="none" />
  <line x1="348.00" y1="130.00" x2="348.00" y2="122.00" stroke="#000000" stroke-width="0.25" fill="none" />
  <line x1="348.00" y1="120.00" x2="348.00" y2="119.50" stroke="#000000" stroke-width="0.25" fill="none" />
  <circle cx="124.12" cy="149.50" r="0.50" fill="rgb(0,0,0)" stroke="none" />
  <circle cx="124.12" cy="149.50" r="0.50" fill="rgb(0,0,0)" stroke="none" />
  <circle cx="124.12" cy="149.50" r="0.50" fill="rgb(0,0,0)" stroke="none" />
  <circle cx="216.00" cy="149.50" r="0.50" fill="rgb(0,0,0)" stroke="none" />
  <circle cx="216.00" cy="149.50" r="0.50" fill="rgb(0,0,0)" stroke="none" />
  <circle cx="216.00" cy="149.50" r="0.50" fill="rgb(0,0,0)" stroke="none" />
  <circle cx="301.88" cy="149.50" r="0.50" fill="rgb(0,0,0)" stroke="none" />
  <circle cx="301.88" cy="149.50" r="0.50" fill="rgb(0,0,0)" stroke="none" />
  <circle cx="301.88" cy="149.50" r="0.50" fill="rgb(0,0,0)" stroke="none" />
  <circle cx="348.00" cy="170.00" r="0.50" fill="rgb(0,0,0)" stroke="none" />
  <text x="13.00" y="264.40" font-family="Arial, Helvetica, sans-serif" font-size="3.0" fill="#000000">Electrical Installation</text>
  <text x="153.00" y="264.40" font-family="Arial, Helvetica, sans-serif" font-size="3.0" fill="#000000">LicenseKaki</text>
  <text x="225.00" y="263.80" font-family="Arial, Helvetica, sans-serif" font-size="3.5" fill="#000000"><tspan x="225.00">SINGLE LINE DIAGRAM</tspan><tspan x="225.00" dy="4.9">(SLD)</tspan></text>
  <text x="389.00" y="266.00" font-family="Arial, Helvetica, sans-serif" font-size="2.5" fill="#000000">DATE</text>
  <text x="365.00" y="278.00" font-family="Arial, Helvetica, sans-serif" font-size="2.5" fill="#000000"></text>
  <text x="394.00" y="278.80" font-family="Arial, Helvetica, sans-serif" font-size="3.5" fill="#000000">0</text>
  <text x="365.00" y="286.28" font-family="Arial, Helvetica, sans-serif" font-size="1.6" fill="#000000">SCALE : NTS</text>
  <text x="389.00" y="286.28" font-family="Arial, Helvetica, sans-serif" font-size="1.6" fill="#000000">SHEET : 1 OF 1</text>
</svg>