<svg xmlns="http://www.w3.org/2000/svg" viewBox="0 0 420.0 297.0" width="420.0mm" height="297.0mm">
  <rect width="420.0" height="297.0" fill="white" />
  <polygon points="10.00,287.00 410.00,287.00 410.00,10.00 10.00,10.00" stroke="#000000" stroke-width="0.25" fill="none" />
  <polygon points="10.00,287.00 410.00,287.00 410.00,255.00 10.00,255.00" stroke="#000000" stroke-width="0.25" fill="none" />
  <line x1="90.00" y1="255.00" x2="90.00" y2="287.00" stroke="#000000" stroke-width="0.25" fill="none" />
  <line x1="150.00" y1="255.00" x2="150.00" y2="287.00" stroke="#000000" stroke-width="0.25" fill="none" />
  <line x1="222.00" y1="255.00" x2="222.00" y2="287.00" stroke="#000000" stroke-width="0.25" fill="none" />
  <line x1="290.00" y1="255.00" x2="290.00" y2="287.00" stroke="#000000" stroke-width="0.25" fill="none" />
  <line x1="362.00" y1="255.00" x2="362.00" y2="287.00" stroke="#000000" stroke-width="0.25" fill="none" />
  <line x1="362.00" y1="270.00" x2="410.00" y2="270.00" stroke="#000000" stroke-width="0.25" fill="none" />
  <line x1="386.00" y1="255.00" x2="386.00" y2="287.00" stroke="#000000" stroke-width="0.25" fill="none" />
  <text x="12.00" y="258.94" font-family="Arial, Helvetica, sans-serif" font-size="1.8" fill="#000000">CLIENT / ADDRESS :</text>
  <text x="92.00" y="258.94" font-family="Arial, Helvetica, sans-serif" font-size="1.8" fill="#000000">MAIN CONTRACTOR :</text>
  <text x="152.00" y="258.94" font-family="Arial, Helvetica, sans-serif" font-size="1.8" fill="#000000">ELECTRICAL CONTRACTOR :</text>
  <text x="224.00" y="258.94" font-family="Arial, Helvetica, sans-serif" font-size="1.8" fill="#000000">DRAWING TITLE :</text>
  <text x="292.00" y="258.94" font-family="Arial, Helvetica, sans-serif" font-size="1.8" fill="#000000">LEW :</text>
  <text x="364.00" y="258.94" font-family="Arial, Helvetica, sans-serif" font-size="1.8" fill="#000000">CHECKED :</text>
  <text x="388.00" y="258.94" font-family="Arial, Helvetica, sans-serif" font-size="1.8" fill="#000000">DATE :</text>
  <text x="364.00" y="273.94" font-family="Arial, Helvetica, sans-serif" font-size="1.8" fill="#000000">DRAWING NO. :</text>
  <text x="388.00" y="273.94" font-family="Arial, Helvetica, sans-serif" font-size="1.8" fill="#000000">REV :</text>
  <text x="217.00" y="192.62" font-family="Arial, Helvetica, sans-serif" font-size="2.8" fill="#000000">FROM POWER SUPPLY ON SITE</text>
  <text x="153.84" y="183.52" font-family="Arial, Helvetica, sans-serif" font-size="2.8" fill="#000000"><tspan x="153.84">4 x 1C 16sqmm PVC/PVC +</tspan><tspan x="153.84" dy="3.9">16sqmm PVC CPC IN METAL TRUNKING</tspan></text>
  <circle cx="210.00" cy="159.38" r="0.55" stroke="#000000" stroke-width="0.25" fill="none" />
  <circle cx="210.00" cy="153.38" r="0.55" stroke="#000000" stroke-width="0.25" fill="none" />
  <path d="M 211.37,159.05 A 3.00,3.00 0 0,0 211.37,153.70" stroke="#000000" stroke-width="0.25" fill="none" />
  <line x1="210.00" y1="152.82" x2="210.00" y2="148.88" stroke="#000000" stroke-width="0.25" fill="none" />
  <line x1="210.00" y1="163.88" x2="210.00" y2="159.93" stroke="#000000" stroke-width="0.25" fill="none" />
  <line x1="210.00" y1="148.88" x2="210.00" y2="145.88" stroke="#000000" stroke-width="0.25" fill="none" />
  <line x1="210.00" y1="163.88" x2="210.00" y2="166.88" stroke="#000000" stroke-width="0.25" fill="none" />
  <text x="217.20" y="156.22" font-family="Arial, Helvetica, sans-serif" font-size="2.3" fill="#000000">63A TPN MCCB (25KA)</text>
  <line x1="82.00" y1="145.88" x2="338.00" y2="145.88" stroke="#000000" stroke-width="0.50" fill="none" />
  <text x="85.00" y="151.12" font-family="Arial, Helvetica, sans-serif" font-size="2.8" fill="#000000">200A COMB BAR</text>
  <text x="98.10" y="144.13" font-family="Arial, Helvetica, sans-serif" font-size="2.2" fill="#000000" transform="rotate(-90.0,98.10,142.38)">L1S1</text>
  <circle cx="96.60" cy="129.88" r="0.50" stroke="#000000" stroke-width="0.25" fill="none" />
  <circle cx="96.60" cy="124.88" r="0.50" stroke="#000000" stroke-width="0.25" fill="none" />
  <path d="M 97.20,129.80 A 2.50,2.50 0 0,0 97.24,124.96" stroke="#000000" stroke-width="0.25" fill="none" />
  <line x1="93.10" y1="127.34" x2="99.10" y2="127.40" stroke="#000000" stroke-width="0.25" fill="none" />
  <line x1="99.10" y1="127.40" x2="97.89" y2="127.99" stroke="#000000" stroke-width="0.25" fill="none" />
  <line x1="99.10" y1="127.40" x2="97.91" y2="126.79" stroke="#000000" stroke-width="0.25" fill="none" />
  <line x1="96.60" y1="124.38" x2="96.60" y2="120.88" stroke="#000000" stroke-width="0.25" fill="none" />
  <line x1="96.60" y1="133.88" x2="96.60" y2="130.38" stroke="#000000" stroke-width="0.25" fill="none" />
  <line x1="96.60" y1="120.88" x2="96.60" y2="117.88" stroke="#000000" stroke-width="0.25" fill="none" />
  <line x1="96.60" y1="133.88" x2="96.60" y2="136.88" stroke="#000000" stroke-width="0.25" fill="none" />
  <text x="87.00" y="123.47" font-family="Arial, Helvetica, sans-serif" font-size="2.0" fill="#000000">B10A</text>
  <text x="87.00" y="125.97" font-family="Arial, Helvetica, sans-serif" font-size="2.0" fill="#000000">SPN</text>
  <text x="87.00" y="128.47" font-family="Arial, Helvetica, sans-serif" font-size="2.0" fill="#000000">MCB</text>
  <text x="87.00" y="130.97" font-family="Arial, Helvetica, sans-serif" font-size="2.0" fill="#000000">6kA</text>
  <text x="96.60" y="95.11" font-family="Arial, Helvetica, sans-serif" font-size="2.8" fill="#000000" transform="rotate(-90.0,96.60,92.88)">1 no. Lights</text>
  <text x="126.45" y="144.13" font-family="Arial, Helvetica, sans-serif" font-size="2.2" fill="#000000" transform="rotate(-90.0,126.45,142.38)">L2S1</text>
  <circle cx="124.95" cy="129.88" r="0.50" stroke="#000000" stroke-width="0.25" fill="none" />
  <circle cx="124.95" cy="124.88" r="0.50" stroke="#000000" stroke-width="0.25" fill="none" />
  <path d="M 125.55,129.80 A 2.50,2.50 0 0,0 125.59,124.96" stroke="#000000" stroke-width="0.25" fill="none" />
  <line x1="124.95" y1="124.38" x2="124.95" y2="120.88" stroke="#000000" stroke-width="0.25" fill="none" />
  <line x1="124.95" y1="133.88" x2="124.95" y2="130.38" stroke="#000000" stroke-width="0.25" fill="none" />
  <line x1="124.95" y1="120.88" x2="124.95" y2="117.88" stroke="#000000" stroke-width="0.25" fill="none" />
  <line x1="124.95" y1="133.88" x2="124.95" y2="136.88" stroke="#000000" stroke-width="0.25" fill="none" />
  <line x1="99.10" y1="127.40" x2="127.45" y2="127.40" stroke="#000000" stroke-width="0.25" fill="none" />
  <line x1="127.45" y1="127.40" x2="126.24" y2="127.99" stroke="#000000" stroke-width="0.25" fill="none" />
  <line x1="127.45" y1="127.40" x2="126.26" y2="126.79" stroke="#000000" stroke-width="0.25" fill="none" />
  <text x="124.95" y="95.11" font-family="Arial, Helvetica, sans-serif" font-size="2.8" fill="#000000" transform="rotate(-90.0,124.95,92.88)">SPARE</text>
  <text x="154.80" y="144.13" font-family="Arial, Helvetica, sans-serif" font-size="2.2" fill="#000000" transform="rotate(-90.0,154.80,142.38)">L3S1</text>
  <circle cx="153.30" cy="129.88" r="0.50" stroke="#000000" stroke-width="0.25" fill="none" />
  <circle cx="153.30" cy="124.88" r="0.50" stroke="#000000" stroke-width="0.25" fill="none" />
  <path d="M 153.90,129.80 A 2.50,2.50 0 0,0 153.94,124.96" stroke="#000000" stroke-width="0.25" fill="none" />
  <line x1="153.30" y1="124.38" x2="153.30" y2="120.88" stroke="#000000" stroke-width="0.25" fill="none" />
  <line x1="153.30" y1="133.88" x2="153.30" y2="130.38" stroke="#000000" stroke-width="0.25" fill="none" />
  <line x1="153.30" y1="120.88" x2="153.30" y2="117.88" stroke="#000000" stroke-width="0.25" fill="none" />
  <line x1="153.30" y1="133.88" x2="153.30" y2="136.88" stroke="#000000" stroke-width="0.25" fill="none" />
  <line x1="127.45" y1="127.40" x2="155.80" y2="127.40" stroke="#000000" stroke-width="0.25" fill="none" />
  <line x1="155.80" y1="127.40" x2="154.59" y2="127.99" stroke="#000000" stroke-width="0.25" fill="none" />
  <line x1="155.80" y1="127.40" x2="154.61" y2="126.79" stroke="#000000" stroke-width="0.25" fill="none" />
  <text x="153.30" y="95.11" font-family="Arial, Helvetica, sans-serif" font-size="2.8" fill="#000000" transform="rotate(-90.0,153.30,92.88)">SPARE</text>
  <text x="189.15" y="144.13" font-family="Arial, Helvetica, sans-serif" font-size="2.2" fill="#000000" transform="rotate(-90.0,189.15,142.38)">L1P1</text>
  <circle cx="187.65" cy="129.88" r="0.50" stroke="#000000" stroke-width="0.25" fill="none" />
  <circle cx="187.65" cy="124.88" r="0.50" stroke="#000000" stroke-width="0.25" fill="none" />
  <path d="M 188.25,129.80 A 2.50,2.50 0 0,0 188.29,124.96" stroke="#000000" stroke-width="0.25" fill="none" />
  <line x1="184.15" y1="127.34" x2="190.15" y2="127.40" stroke="#000000" stroke-width="0.25" fill="none" />
  <line x1="190.15" y1="127.40" x2="188.94" y2="127.99" stroke="#000000" stroke-width="0.25" fill="none" />
  <line x1="190.15" y1="127.40" x2="188.96" y2="126.79" stroke="#000000" stroke-width="0.25" fill="none" />
  <line x1="187.65" y1="124.38" x2="187.65" y2="120.88" stroke="#000000" stroke-width="0.25" fill="none" />
  <line x1="187.65" y1="133.88" x2="187.65" y2="130.38" stroke="#000000" stroke-width="0.25" fill="none" />
  <line x1="187.65" y1="120.88" x2="187.65" y2="117.88" stroke="#000000" stroke-width="0.25" fill="none" />
  <line x1="187.65" y1="133.88" x2="187.65" y2="136.88" stroke="#000000" stroke-width="0.25" fill="none" />
  <text x="178.05" y="123.47" font-family="Arial, Helvetica, sans-serif" font-size="2.0" fill="#000000">B20A</text>
  <text x="178.05" y="125.97" font-family="Arial, Helvetica, sans-serif" font-size="2.0" fill="#000000">SPN</text>
  <text x="178.05" y="128.47" font-family="Arial, Helvetica, sans-serif" font-size="2.0" fill="#000000">MCB</text>
  <text x="178.05" y="130.97" font-family="Arial, Helvetica, sans-serif" font-size="2.0" fill="#000000">6kA</text>
  <text x="187.65" y="95.11" font-family="Arial, Helvetica, sans-serif" font-size="2.8" fill="#000000" transform="rotate(-90.0,187.65,92.88)">1 no. Power 1</text>
  <text x="217.50" y="144.13" font-family="Arial, Helvetica, sans-serif" font-size="2.2" fill="#000000" transform="rotate(-90.0,217.50,142.38)">L2P1</text>
  <circle cx="216.00" cy="129.88" r="0.50" stroke="#000000" stroke-width="0.25" fill="none" />
  <circle cx="216.00" cy="124.88" r="0.50" stroke="#000000" stroke-width="0.25" fill="none" />
  <path d="M 216.60,129.80 A 2.50,2.50 0 0,0 216.64,124.96" stroke="#000000" stroke-width="0.25" fill="none" />
  <line x1="216.00" y1="124.38" x2="216.00" y2="120.88" stroke="#000000" stroke-width="0.25" fill="none" />
  <line x1="216.00" y1="133.88" x2="216.00" y2="130.38" stroke="#000000" stroke-width="0.25" fill="none" />
  <line x1="216.00" y1="120.88" x2="216.00" y2="117.88" stroke="#000000" stroke-width="0.25" fill="none" />
  <line x1="216.00" y1="133.88" x2="216.00" y2="136.88" stroke="#000000" stroke-width="0.25" fill="none" />
  <line x1="190.15" y1="127.40" x2="218.50" y2="127.40" stroke="#000000" stroke-width="0.25" fill="none" />
  <line x1="218.50" y1="127.40" x2="217.29" y2="127.99" stroke="#000000" stroke-width="0.25" fill="none" />
  <line x1="218.50" y1="127.40" x2="217.31" y2="126.79" stroke="#000000" stroke-width="0.25" fill="none" />
  <text x="216.00" y="95.11" font-family="Arial, Helvetica, sans-serif" font-size="2.8" fill="#000000" transform="rotate(-90.0,216.00,92.88)">1 no. Power 2</text>
  <text x="245.85" y="144.13" font-family="Arial, Helvetica, sans-serif" font-size="2.2" fill="#000000" transform="rotate(-90.0,245.85,142.38)">L3P1</text>
  <circle cx="244.35" cy="129.88" r="0.50" stroke="#000000" stroke-width="0.25" fill="none" />
  <circle cx="244.35" cy="124.88" r="0.50" stroke="#000000" stroke-width="0.25" fill="none" />
  <path d="M 244.95,129.80 A 2.50,2.50 0 0,0 244.99,124.96" stroke="#000000" stroke-width="0.25" fill="none" />
  <line x1="240.85" y1="127.34" x2="246.85" y2="127.40" stroke="#000000" stroke-width="0.25" fill="none" />
  <line x1="246.85" y1="127.40" x2="245.64" y2="127.99" stroke="#000000" stroke-width="0.25" fill="none" />
  <line x1="246.85" y1="127.40" x2="245.66" y2="126.79" stroke="#000000" stroke-width="0.25" fill="none" />
  <line x1="244.35" y1="124.38" x2="244.35" y2="120.88" stroke="#000000" stroke-width="0.25" fill="none" />
  <line x1="244.35" y1="133.88" x2="244.35" y2="130.38" stroke="#000000" stroke-width="0.25" fill="none" />
  <line x1="244.35" y1="120.88" x2="244.35" y2="117.88" stroke="#000000" stroke-width="0.25" fill="none" />
  <line x1="244.35" y1="133.88" x2="244.35" y2="136.88" stroke="#000000" stroke-width="0.25" fill="none" />
  <text x="234.75" y="123.47" font-family="Arial, Helvetica, sans-serif" font-size="2.0" fill="#000000">B32A</text>
  <text x="234.75" y="125.97" font-family="Arial, Helvetica, sans-serif" font-size="2.0" fill="#000000">SPN</text>
  <text x="234.75" y="128.47" font-family="Arial, Helvetica, sans-serif" font-size="2.0" fill="#000000">MCB</text>
  <text x="234.75" y="130.97" font-family="Arial, Helvetica, sans-serif" font-size="2.0" fill="#000000">6kA</text>
  <text x="244.35" y="95.11" font-family="Arial, Helvetica, sans-serif" font-size="2.8" fill="#000000" transform="rotate(-90.0,244.35,92.88)">1 no. Aircon 1</text>
  <text x="274.20" y="144.13" font-family="Arial, Helvetica, sans-serif" font-size="2.2" fill="#000000" transform="rotate(-90.0,274.20,142.38)">L1P2</text>
  <circle cx="272.70" cy="129.88" r="0.50" stroke="#000000" stroke-width="0.25" fill="none" />
  <circle cx="272.70" cy="124.88" r="0.50" stroke="#000000" stroke-width="0.25" fill="none" />
  <path d="M 273.30,129.80 A 2.50,2.50 0 0,0 273.34,124.96" stroke="#000000" stroke-width="0.25" fill="none" />
  <line x1="272.70" y1="124.38" x2="272.70" y2="120.88" stroke="#000000" stroke-width="0.25" fill="none" />
  <line x1="272.70" y1="133.88" x2="272.70" y2="130.38" stroke="#000000" stroke-width="0.25" fill="none" />
  <line x1="272.70" y1="120.88" x2="272.70" y2="117.88" stroke="#000000" stroke-width="0.25" fill="none" />
  <line x1="272.70" y1="133.88" x2="272.70" y2="136.88" stroke="#000000" stroke-width="0.25" fill="none" />
  <line x1="246.85" y1="127.40" x2="275.20" y2="127.40" stroke="#000000" stroke-width="0.25" fill="none" />
  <line x1="275.20" y1="127.40" x2="273.99" y2="127.99" stroke="#000000" stroke-width="0.25" fill="none" />
  <line x1="275.20" y1="127.40" x2="274.01" y2="126.79" stroke="#000000" stroke-width="0.25" fill="none" />
  <text x="272.70" y="95.11" font-family="Arial, Helvetica, sans-serif" font-size="2.8" fill="#000000" transform="rotate(-90.0,272.70,92.88)">1 no. Aircon 2</text>
  <text x="302.55" y="144.13" font-family="Arial, Helvetica, sans-serif" font-size="2.2" fill="#000000" transform="rotate(-90.0,302.55,142.38)">L2P2</text>
  <circle cx="301.05" cy="129.88" r="0.50" stroke="#000000" stroke-width="0.25" fill="none" />
  <circle cx="301.05" cy="124.88" r="0.50" stroke="#000000" stroke-width="0.25" fill="none" />
  <path d="M 301.65,129.80 A 2.50,2.50 0 0,0 301.69,124.96" stroke="#000000" stroke-width="0.25" fill="none" />
  <line x1="301.05" y1="124.38" x2="301.05" y2="120.88" stroke="#000000" stroke-width="0.25" fill="none" />
  <line x1="301.05" y1="133.88" x2="301.05" y2="130.38" stroke="#000000" stroke-width="0.25" fill="none" />
  <line x1="301.05" y1="120.88" x2="301.05" y2="117.88" stroke="#000000" stroke-width="0.25" fill="none" />
  <line x1="301.05" y1="133.88" x2="301.05" y2="136.88" stroke="#000000" stroke-width="0.25" fill="none" />
  <line x1="218.50" y1="127.40" x2="303.55" y2="127.40" stroke="#000000" stroke-width="0.25" fill="none" />
  <line x1="303.55" y1="127.40" x2="302.34" y2="127.99" stroke="#000000" stroke-width="0.25" fill="none" />
  <line x1="303.55" y1="127.40" x2="302.36" y2="126.79" stroke="#000000" stroke-width="0.25" fill="none" />
  <text x="301.05" y="95.11" font-family="Arial, Helvetica, sans-serif" font-size="2.8" fill="#000000" transform="rotate(-90.0,301.05,92.88)">SPARE</text>
  <text x="330.90" y="144.13" font-family="Arial, Helvetica, sans-serif" font-size="2.2" fill="#000000" transform="rotate(-90.0,330.90,142.38)">L3P2</text>
  <circle cx="329.40" cy="129.88" r="0.50" stroke="#000000" stroke-width="0.25" fill="none" />
  <circle cx="329.40" cy="124.88" r="0.50" stroke="#000000" stroke-width="0.25" fill="none" />
  <path d="M 330.00,129.80 A 2.50,2.50 0 0,0 330.04,124.96" stroke="#000000" stroke-width="0.25" fill="none" />
  <line x1="329.40" y1="124.38" x2="329.40" y2="120.88" stroke="#000000" stroke-width="0.25" fill="none" />
  <line x1="329.40" y1="133.88" x2="329.40" y2="130.38" stroke="#000000" stroke-width="0.25" fill="none" />
  <line x1="329.40" y1="120.88" x2="329.40" y2="117.88" stroke="#000000" stroke-width="0.25" fill="none" />
  <line x1="329.40" y1="133.88" x2="329.40" y2="136.88" stroke="#000000" stroke-width="0.25" fill="none" />
  <line x1="275.20" y1="127.40" x2="331.90" y2="127.40" stroke="#000000" stroke-width="0.25" fill="none" />
  <line x1="331.90" y1="127.40" x2="330.69" y2="127.99" stroke="#000000" stroke-width="0.25" fill="none" />
  <line x1="331.90" y1="127.40" x2="330.71" y2="126.79" stroke="#000000" stroke-width="0.25" fill="none" />
  <text x="329.40" y="95.11" font-family="Arial, Helvetica, sans-serif" font-size="2.8" fill="#000000" transform="rotate(-90.0,329.40,92.88)">SPARE</text>
  <text x="99.30" y="96.67" font-family="Arial, Helvetica, sans-serif" font-size="2.8" fill="#000000" transform="rotate(-90.0,99.30,96.67)">2C 1.5sqmm PVC + 1.5sqmm</text>
  <text x="103.22" y="96.67" font-family="Arial, Helvetica, sans-serif" font-size="2.8" fill="#000000" transform="rotate(-90.0,103.22,96.67)">PVC CPC IN METAL TRUNKING</text>
  <text x="210.30" y="96.67" font-family="Arial, Helvetica, sans-serif" font-size="2.8" fill="#000000" transform="rotate(-90.0,210.30,96.67)">2C 2.5sqmm PVC + 2.5sqmm</text>
  <text x="214.22" y="96.67" font-family="Arial, Helvetica, sans-serif" font-size="2.8" fill="#000000" transform="rotate(-90.0,214.22,96.67)">PVC CPC IN METAL TRUNKING</text>
  <text x="247.05" y="96.67" font-family="Arial, Helvetica, sans-serif" font-size="2.8" fill="#000000" transform="rotate(-90.0,247.05,96.67)">2C 6.0sqmm PVC + 6.0sqmm</text>
  <text x="250.97" y="96.67" font-family="Arial, Helvetica, sans-serif" font-size="2.8" fill="#000000" transform="rotate(-90.0,250.97,96.67)">PVC CPC IN METAL TRUNKING</text>
  <text x="78.00" y="168.28" font-family="Arial, Helvetica, sans-serif" font-size="3.0" fill="#000000">63A DB</text>
  <text x="78.00" y="171.31" font-family="Arial, Helvetica, sans-serif" font-size="1.8" fill="#000000">APPROVED LOAD: 45 kVA</text>
  <line x1="357.00" y1="164.18" x2="357.00" y2="166.85" stroke="#000000" stroke-width="0.25" fill="none" />
  <line x1="353.00" y1="166.85" x2="361.00" y2="166.85" stroke="#000000" stroke-width="0.25" fill="none" />
  <line x1="354.33" y1="168.53" x2="359.67" y2="168.53" stroke="#000000" stroke-width="0.25" fill="none" />
  <line x1="355.67" y1="170.20" x2="358.33" y2="170.20" stroke="#000000" stroke-width="0.25" fill="none" />
  <text x="364.00" y="167.37" font-family="Arial, Helvetica, sans-serif" font-size="2.3" fill="#000000">E</text>
  <line x1="210.00" y1="191.88" x2="215.00" y2="191.88" stroke="#000000" stroke-width="0.25" fill="none" />
  <line x1="210.00" y1="191.88" x2="210.00" y2="177.88" stroke="#000000" stroke-width="0.25" fill="none" />
  <line x1="210.00" y1="182.78" x2="201.00" y2="182.78" stroke="#000000" stroke-width="0.25" fill="none" />
  <line x1="210.00" y1="177.88" x2="210.00" y2="163.88" stroke="#000000" stroke-width="0.25" fill="none" />
  <line x1="210.00" y1="148.88" x2="210.00" y2="145.88" stroke="#000000" stroke-width="0.25" fill="none" />
  <line x1="96.60" y1="143.38" x2="96.60" y2="133.88" stroke="#000000" stroke-width="0.25" fill="none" />
  <line x1="96.60" y1="117.88" x2="96.60" y2="94.88" stroke="#000000" stroke-width="0.25" fill="none" />
  <line x1="124.95" y1="145.88" x2="124.95" y2="133.88" stroke="#000000" stroke-width="0.25" fill="none" />
  <line x1="124.95" y1="117.88" x2="124.95" y2="94.88" stroke="#000000" stroke-width="0.25" fill="none" />
  <line x1="153.30" y1="143.38" x2="153.30" y2="133.88" stroke="#000000" stroke-width="0.25" fill="none" />
  <line x1="153.30" y1="117.88" x2="153.30" y2="94.88" stroke="#000000" stroke-width="0.25" fill="none" />
  <line x1="187.65" y1="143.38" x2="187.65" y2="133.88" stroke="#000000" stroke-width="0.25" fill="none" />
  <line x1="187.65" y1="117.88" x2="187.65" y2="94.88" stroke="#000000" stroke-width="0.25" fill="none" />
  <line x1="216.00" y1="145.88" x2="216.00" y2="133.88" stroke="#000000" stroke-width="0.25" fill="none" />
  <line x1="216.00" y1="117.88" x2="216.00" y2="94.88" stroke="#000000" stroke-width="0.25" fill="none" />
  <line x1="244.35" y1="143.38" x2="244.35" y2="133.88" stroke="#000000" stroke-width="0.25" fill="none" />
  <line x1="244.35" y1="117.88" x2="244.35" y2="94.88" stroke="#000000" stroke-width="0.25" fill="none" />
  <line x1="272.70" y1="143.38" x2="272.70" y2="133.88" stroke="#000000" stroke-width="0.25" fill="none" />
  <line x1="272.70" y1="117.88" x2="272.70" y2="94.88" stroke="#000000" stroke-width="0.25" fill="none" />
  <line x1="301.05" y1="145.88" x2="301.05" y2="133.88" stroke="#000000" stroke-width="0.25" fill="none" />
  <line x1="301.05" y1="117.88" x2="301.05" y2="94.88" stroke="#000000" stroke-width="0.25" fill="none" />
  <line x1="329.40" y1="143.38" x2="329.40" y2="133.88" stroke="#000000" stroke-width="0.25" fill="none" />
  <line x1="329.40" y1="117.88" x2="329.40" y2="94.88" stroke="#000000" stroke-width="0.25" fill="none" />
  <line x1="124.95" y1="145.88" x2="96.60" y2="143.38" stroke="#000000" stroke-width="0.25" fill="none" />
  <line x1="124.95" y1="145.88" x2="153.30" y2="143.38" stroke="#000000" stroke-width="0.25" fill="none" />
  <line x1="216.00" y1="145.88" x2="187.65" y2="143.38" stroke="#000000" stroke-width="0.25" fill="none" />
  <line x1="216.00" y1="145.88" x2="244.35" y2="143.38" stroke="#000000" stroke-width="0.25" fill="none" />
  <line x1="301.05" y1="145.88" x2="272.70" y2="143.38" stroke="#000000" stroke-width="0.25" fill="none" />
  <line x1="301.05" y1="145.88" x2="329.40" y2="143.38" stroke="#000000" stroke-width="0.25" fill="none" />
  <line x1="102.30" y1="99.88" x2="96.60" y2="99.88" stroke="#000000" stroke-width="0.25" fill="none" />
  <line x1="102.30" y1="99.88" x2="102.30" y2="94.88" stroke="#000000" stroke-width="0.25" fill="none" />
  <line x1="187.65" y1="99.88" x2="210.30" y2="99.88" stroke="#000000" stroke-width="0.25" fill="none" />
  <line x1="210.30" y1="99.88" x2="210.30" y2="94.88" stroke="#000000" stroke-width="0.25" fill="none" />
  <line x1="250.05" y1="99.88" x2="272.70" y2="99.88" stroke="#000000" stroke-width="0.25" fill="none" />
  <line x1="250.05" y1="99.88" x2="250.05" y2="94.88" stroke="#000000" stroke-width="0.25" fill="none" />
  <line x1="348.00" y1="164.18" x2="357.00" y2="164.18" stroke="#000000" stroke-width="0.25" fill="none" />
  <line x1="208.75" y1="184.03" x2="211.25" y2="181.53" stroke="#000000" stroke-width="0.50" fill="none" />
  <line x1="95.35" y1="101.12" x2="97.85" y2="98.62" stroke="#000000" stroke-width="0.50" fill="none" />
  <line x1="186.40" y1="101.12" x2="188.90" y2="98.62" stroke="#000000" stroke-width="0.50" fill="none" />
  <line x1="214.75" y1="101.12" x2="217.25" y2="98.62" stroke="#000000" stroke-width="0.50" fill="none" />
  <line x1="243.10" y1="101.12" x2="245.60" y2="98.62" stroke="#000000" stroke-width="0.50" fill="none" />
  <line x1="271.45" y1="101.12" x2="273.95" y2="98.62" stroke="#000000" stroke-width="0.50" fill="none" />
  <line x1="72.00" y1="173.88" x2="80.00" y2="173.88" stroke="#000000" stroke-width="0.25" fill="none" />
  <line x1="82.00" y1="173.88" x2="83.50" y2="173.88" stroke="#000000" stroke-width="0.25" fill="none" />
  <line x1="85.50" y1="173.88" x2="93.50" y2="173.88" stroke="#000000" stroke-width="0.25" fill="none" />
  <line x1="95.50" y1="173.88" x2="97.00" y2="173.88" stroke="#000000" stroke-width="0.25" fill="none" />
  <line x1="99.00" y1="173.88" x2="107.00" y2="173.88" stroke="#000000" stroke-width="0.25" fill="none" />
  <line x1="109.00" y1="173.88" x2="110.50" y2="173.88" stroke="#000000" stroke-width="0.25" fill="none" />
  <line x1="112.50" y1="173.88" x2="120.50" y2="173.88" stroke="#000000" stroke-width="0.25" fill="none" />
  <line x1="122.50" y1="173.88" x2="124.00" y2="173.88" stroke="#000000" stroke-width="0.25" fill="none" />
  <line x1="126.00" y1="173.88" x2="134.00" y2="173.88" stroke="#000000" stroke-width="0.25" fill="none" />
  <line x1="136.00" y1="173.88" x2="137.50" y2="173.88" stroke="#000000" stroke-width="0.25" fill="none" />
  <line x1="139.50" y1="173.88" x2="147.50" y2="173.88" stroke="#000000" stroke-width="0.25" fill="none" />
  <line x1="149.50" y1="173.88" x2="151.00" y2="173.88" stroke="#000000" stroke-width="0.25" fill="none" />
  <line x1="153.00" y1="173.88" x2="161.00" y2="173.88" stroke="#000000" stroke-width="0.25" fill="none" />
  <line x1="163.00" y1="173.88" x2="164.50" y2="173.88" stroke="#000000" stroke-width="0.25" fill="none" />
  <line x1="166.50" y1="173.88" x2="174.50" y2="173.88" stroke="#000000" stroke-width="0.25" fill="none" />
  <line x1="176.50" y1="173.88" x2="178.00" y2="173.88" stroke="#000000" stroke-width="0.25" fill="none" />
  <line x1="180.00" y1="173.88" x2="188.00" y2="173.88" stroke="#000000" stroke-width="0.25" fill="none" />
  <line x1="190.00" y1="173.88" x2="191.50" y2="173.88" stroke="#000000" stroke-width="0.25" fill="none" />
  <line x1="193.50" y1="173.88" x2="201.50" y2="173.88" stroke="#000000" stroke-width="0.25" fill="none" />
  <line x1="203.50" y1="173.88" x2="205.00" y2="173.88" stroke="#000000" stroke-width="0.25" fill="none" />
  <line x1="207.00" y1="173.88" x2="215.00" y2="173.88" stroke="#000000" stroke-width="0.25" fill="none" />
  <line x1="217.00" y1="173.88" x2="218.50" y2="173.88" stroke="#000000" stroke-width="0.25" fill="none" />
  <line x1="220.50" y1="173.88" x2="228.50" y2="173.88" stroke="#000000" stroke-width="0.25" fill="none" />
  <line x1="230.50" y1="173.88" x2="232.00" y2="173.88" stroke="#000000" stroke-width="0.25" fill="none" />
  <line x1="234.00" y1="173.88" x2="242.00" y2="173.88" stroke="#000000" stroke-width="0.25" fill="none" />
  <line x1="244.00" y1="173.88" x2="245.50" y2="173.88" stroke="#000000" stroke-width="0.25" fill="none" />
  <line x1="247.50" y1="173.88" x2="255.50" y2="173.88" stroke="#000000" stroke-width="0.25" fill="none" />
  <line x1="257.50" y1="173.88" x2="259.00" y2="173.88" stroke="#000000" stroke-width="0.25" fill="none" />
  <line x1="261.00" y1="173.88" x2="269.00" y2="173.88" stroke="#000000" stroke-width="0.25" fill="none" />
  <line x1="271.00" y1="173.88" x2="272.50" y2="173.88" stroke="#000000" stroke-width="0.25" fill="none" />
  <line x1="274.50" y1="173.88" x2="282.50" y2="173.88" stroke="#000000" stroke-width="0.25" fill="none" />
  <line x1="284.50" y1="173.88" x2="286.00" y2="173.88" stroke="#000000" stroke-width="0.25" fill="none" />
  <line x1="288.00" y1="173.88" x2="296.00" y2="173.88" stroke="#000000" stroke-width="0.25" fill="none" />
  <line x1="298.00" y1="173.88" x2="299.50" y2="173.88" stroke="#000000" stroke-width="0.25" fill="none" />
  <line x1="301.50" y1="173.88" x2="309.50" y2="173.88" stroke="#000000" stroke-width="0.25" fill="none" />
  <line x1="311.50" y1="173.88" x2="313.00" y2="173.88" stroke="#000000" stroke-width="0.25" fill="none" />
  <line x1="315.00" y1="173.88" x2="323.00" y2="173.88" stroke="#000000" stroke-width="0.25" fill="none" />
  <line x1="325.00" y1="173.88" x2="326.50" y2="173.88" stroke="#000000" stroke-width="0.25" fill="none" />
  <line x1="328.50" y1="173.88" x2="336.50" y2="173.88" stroke="#000000" stroke-width="0.25" fill="none" />
  <line x1="338.50" y1="173.88" x2="340.00" y2="173.88" stroke="#000000" stroke-width="0.25" fill="none" />
  <line x1="342.00" y1="173.88" x2="348.00" y2="173.88" stroke="#000000" stroke-width="0.25" fill="none" />
  <line x1="72.00" y1="109.88" x2="80.00" y2="109.88" stroke="#000000" stroke-width="0.25" fill="none" />
  <line x1="82.00" y1="109.88" x2="83.50" y2="109.88" stroke="#000000" stroke-width="0.25" fill="none" />
  <line x1="85.50" y1="109.88" x2="93.50" y2="109.88" stroke="#000000" stroke-width="0.25" fill="none" />
  <line x1="95.50" y1="109.88" x2="97.00" y2="109.88" stroke="#000000" stroke-width="0.25" fill="none" />
  <line x1="99.00" y1="109.88" x2="107.00" y2="109.88" stroke="#000000" stroke-width="0.25" fill="none" />
  <line x1="109.00" y1="109.88" x2="110.50" y2="109.88" stroke="#000000" stroke-width="0.25" fill="none" />
  <line x1="112.50" y1="109.88" x2="120.50" y2="109.88" stroke="#000000" stroke-width="0.25" fill="none" />
  <line x1="122.50" y1="109.88" x2="124.00" y2="109.88" stroke="#000000" stroke-width="0.25" fill="none" />
  <line x1="126.00" y1="109.88" x2="134.00" y2="109.88" stroke="#000000" stroke-width="0.25" fill="none" />
  <line x1="136.00" y1="109.88" x2="137.50" y2="109.88" stroke="#000000" stroke-width="0.25" fill="none" />
  <line x1="139.50" y1="109.88" x2="147.50" y2="109.88" stroke="#000000" stroke-width="0.25" fill="none" />
  <line x1="149.50" y1="109.88" x2="151.00" y2="109.88" stroke="#000000" stroke-width="0.25" fill="none" />
  <line x1="153.00" y1="109.88" x2="161.00" y2="109.88" stroke="#000000" stroke-width="0.25" fill="none" />
  <line x1="163.00" y1="109.88" x2="164.50" y2="109.88" stroke="#000000" stroke-width="0.25" fill="none" />
  <line x1="166.50" y1="109.88" x2="174.50" y2="109.88" stroke="#000000" stroke-width="0.25" fill="none" />
  <line x1="176.50" y1="109.88" x2="178.00" y2="109.88" stroke="#000000" stroke-width="0.25" fill="none" />
  <line x1="180.00" y1="109.88" x2="188.00" y2="109.88" stroke="#000000" stroke-width="0.25" fill="none" />
  <line x1="190.00" y1="109.88" x2="191.50" y2="109.88" stroke="#000000" stroke-width="0.25" fill="none" />
  <line x1="193.50" y1="109.88" x2="201.50" y2="109.88" stroke="#000000" stroke-width="0.25" fill="none" />
  <line x1="203.50" y1="109.88" x2="205.00" y2="109.88" stroke="#000000" stroke-width="0.25" fill="none" />
  <line x1="207.00" y1="109.88" x2="215.00" y2="109.88" stroke="#000000" stroke-width="0.25" fill="none" />
  <line x1="217.00" y1="109.88" x2="218.50" y2="109.88" stroke="#000000" stroke-width="0.25" fill="none" />
  <line x1="220.50" y1="109.88" x2="228.50" y2="109.88" stroke="#000000" stroke-width="0.25" fill="none" />
  <line x1="230.50" y1="109.88" x2="232.00" y2="109.88" stroke="#000000" stroke-width="0.25" fill="none" />
  <line x1="234.00" y1="109.88" x2="242.00" y2="109.88" stroke="#000000" stroke-width="0.25" fill="none" />
  <line x1="244.00" y1="109.88" x2="245.50" y2="109.88" stroke="#000000" stroke-width="0.25" fill="none" />
  <line x1="247.50" y1="109.88" x2="255.50" y2="109.88" stroke="#000000" stroke-width="0.25" fill="none" />
  <line x1="257.50" y1="109.88" x2="259.00" y2="109.88" stroke="#000000" stroke-width="0.25" fill="none" />
  <line x1="261.00" y1="109.88" x2="269.00" y2="109.88" stroke="#000000" stroke-width="0.25" fill="none" />
  <line x1="271.00" y1="109.88" x2="272.50" y2="109.88" stroke="#000000" stroke-width="0.25" fill="none" />
  <line x1="274.50" y1="109.88" x2="282.50" y2="109.88" stroke="#000000" stroke-width="0.25" fill="none" />
  <line x1="284.50" y1="109.88" x2="286.00" y2="109.88" stroke="#000000" stroke-width="0.25" fill="none" />
  <line x1="288.00" y1="109.88" x2="296.00" y2="109.88" stroke="#000000" stroke-width="0.25" fill="none" />
  <line x1="298.00" y1="109.88" x2="299.50" y2="109.88" stroke="#000000" stroke-width="0.25" fill="none" />
  <line x1="301.50" y1="109.88" x2="309.50" y2="109.88" stroke="#000000" stroke-width="0.25" fill="none" />
  <line x1="311.50" y1="109.88" x2="313.00" y2="109.88" stroke="#000000" stroke-width="0.25" fill="none" />
  <line x1="315.00" y1="109.88" x2="323.00" y2="109.88" stroke="#000000" stroke-width="0.25" fill="none" />
  <line x1="325.00" y1="109.88" x2="326.50" y2="109.88" stroke="#000000" stroke-width="0.25" fill="none" />
  <line x1="328.50" y1="109.88" x2="336.50" y2="109.88" stroke="#000000" stroke-width="0.25" fill="none" />
  <line x1="338.50" y1="109.88" x2="340.00" y2="109.88" stroke="#000000" stroke-width="0.25" fill="none" />
  <line x1="342.00" y1="109.88" x2="348.00" y2="109.88" stroke="#000000" stroke-width="0.25" fill="none" />
  <line x1="72.00" y1="173.88" x2="72.00" y2="165.88" stroke="#000000" stroke-width="0.25" fill="none" />
  <line x1="72.00" y1="163.88" x2="72.00" y2="162.38" stroke="#000000" stroke-width="0.25" fill="none" />
  <line x1="72.00" y1="160.38" x2="72.00" y2="152.38" stroke="#000000" stroke-width="0.25" fill="none" />
  <line x1="72.00" y1="150.38" x2="72.00" y2="148.88" stroke="#000000" stroke-width="0.25" fill="none" />
  <line x1="72.00" y1="146.88" x2="72.00" y2="138.88" stroke="#000000" stroke-width="0.25" fill="none" />
  <line x1="72.00" y1="136.88" x2="72.00" y2="135.38" stroke="#000000" stroke-width="0.25" fill="none" />
  <line x1="72.00" y1="133.38" x2="72.00" y2="125.38" stroke="#000000" stroke-width="0.25" fill="none" />
  <line x1="72.00" y1="123.38" x2="72.00" y2="121.88" stroke="#000000" stroke-width="0.25" fill="none" />
  <line x1="72.00" y1="119.88" x2="72.00" y2="111.88" stroke="#000000" stroke-width="0.25" fill="none" />
  <line x1="348.00" y1="173.88" x2="348.00" y2="165.88" stroke="#000000" stroke-width="0.25" fill="none" />
  <line x1="348.00" y1="163.88" x2="348.00" y2="162.38" stroke="#000000" stroke-width="0.25" fill="none" />
  <line x1="348.00" y1="160.38" x2="348.00" y2="152.38" stroke="#000000" stroke-width="0.25" fill="none" />
  <line x1="348.00" y1="150.38" x2="348.00" y2="148.88" stroke="#000000" stroke-width="0.25" fill="none" />
  <line x1="348.00" y1="146.88" x2="348.00" y2="138.88" stroke="#000000" stroke-width="0.25" fill="none" />
  <line x1="348.00" y1="136.88" x2="348.00" y2="135.38" stroke="#000000" stroke-width="0.25" fill="none" />
  <line x1="348.00" y1="133.38" x2="348.00" y2="125.38" stroke="#000000" stroke-width="0.25" fill="none" />
  <line x1="348.00" y1="123.38" x2="348.00" y2="121.88" stroke="#000000" stroke-width="0.25" fill="none" />
  <line x1="348.00" y1="119.88" x2="348.00" y2="111.88" stroke="#000000" stroke-width="0.25" fill="none" />
  <circle cx="124.95" cy="145.88" r="0.80" fill="rgb(0,0,0)" stroke="none" />
  <circle cx="124.95" cy="145.88" r="0.80" fill="rgb(0,0,0)" stroke="none" />
  <circle cx="124.95" cy="145.88" r="0.80" fill="rgb(0,0,0)" stroke="none" />
  <circle cx="216.00" cy="145.88" r="0.80" fill="rgb(0,0,0)" stroke="none" />
  <circle cx="216.00" cy="145.88" r="0.80" fill="rgb(0,0,0)" stroke="none" />
  <circle cx="216.00" cy="145.88" r="0.80" fill="rgb(0,0,0)" stroke="none" />
  <circle cx="301.05" cy="145.88" r="0.80" fill="rgb(0,0,0)" stroke="none" />
  <circle cx="301.05" cy="145.88" r="0.80" fill="rgb(0,0,0)" stroke="none" />
  <circle cx="301.05" cy="145.88" r="0.80" fill="rgb(0,0,0)" stroke="none" />
  <circle cx="348.00" cy="164.18" r="0.80" fill="rgb(0,0,0)" stroke="none" />
  <text x="13.00" y="264.40" font-family="Arial, Helvetica, sans-serif" font-size="3.0" fill="#000000">Electrical Installation</text>
  <text x="153.00" y="264.40" font-family="Arial, Helvetica, sans-serif" font-size="3.0" fill="#000000">LicenseKaki</text>
  <text x="225.00" y="263.80" font-family="Arial, Helvetica, sans-serif" font-size="3.5" fill="#000000"><tspan x="225.00">SINGLE LINE DIAGRAM</tspan><tspan x="225.00" dy="4.9">(SLD)</tspan></text>
  <text x="389.00" y="266.00" font-family="Arial, Helvetica, sans-serif" font-size="2.5" fill="#000000">DATE</text>
  <text x="365.00" y="278.00" font-family="Arial, Helvetica, sans-serif" font-size="2.5" fill="#000000"></text>
  <text x="394.00" y="278.80" font-family="Arial, Helvetica, sans-serif" font-size="3.5" fill="#000000">0</text>
  <text x="365.00" y="286.28" font-family="Arial, Helvetica, sans-serif" font-size="1.6" fill="#000000">SCALE : NTS</text>
  <text x="389.00" y="286.28" font-family="Arial, Helvetica, sans-serif" font-size="1.6" fill="#000000">SHEET : 1 OF 1</text>
</svg>