<svg xmlns="http://www.w3.org/2000/svg" viewBox="0 0 420.0 297.0" width="420.0mm" height="297.0mm">
  <rect width="420.0" height="297.0" fill="white" />
  <polygon points="10.00,287.00 410.00,287.00 410.00,10.00 10.00,10.00" stroke="#000000" stroke-width="0.25" fill="none" />
  <polygon points="10.00,287.00 410.00,287.00 410.00,255.00 10.00,255.00" stroke="#000000" stroke-width="0.25" fill="none" />
  <line x1="90.00" y1="255.00" x2="90.00" y2="287.00" stroke="#000000" stroke-width="0.25" fill="none" />
  <line x1="150.00" y1="255.00" x2="150.00" y2="287.00" stroke="#000000" stroke-width="0.25" fill="none" />
  <line x1="222.00" y1="255.00" x2="222.00" y2="287.00" stroke="#000000" stroke-width="0.25" fill="none" />
  <line x1="290.00" y1="255.00" x2="290.00" y2="287.00" stroke="#000000" stroke-width="0.25" fill="none" />
  <line x1="362.00" y1="255.00" x2="362.00" y2="287.00" stroke="#000000" stroke-width="0.25" fill="none" />
  <line x1="362.00" y1="270.00" x2="410.00" y2="270.00" stroke="#000000" stroke-width="0.25" fill="none" />
  <line x1="386.00" y1="255.00" x2="386.00" y2="287.00" stroke="#000000" stroke-width="0.25" fill="none" />
  <text x="12.00" y="258.94" font-family="Arial, Helvetica, sans-serif" font-size="1.8" fill="#000000">CLIENT / ADDRESS :</text>
  <text x="92.00" y="258.94" font-family="Arial, Helvetica, sans-serif" font-size="1.8" fill="#000000">MAIN CONTRACTOR :</text>
  <text x="152.00" y="258.94" font-family="Arial, Helvetica, sans-serif" font-size="1.8" fill="#000000">ELECTRICAL CONTRACTOR :</text>
  <text x="224.00" y="258.94" font-family="Arial, Helvetica, sans-serif" font-size="1.8" fill="#000000">DRAWING TITLE :</text>
  <text x="292.00" y="258.94" font-family="Arial, Helvetica, sans-serif" font-size="1.8" fill="#000000">LEW :</text>
  <text x="364.00" y="258.94" font-family="Arial, Helvetica, sans-serif" font-size="1.8" fill="#000000">CHECKED :</text>
  <text x="388.00" y="258.94" font-family="Arial, Helvetica, sans-serif" font-size="1.8" fill="#000000">DATE :</text>
  <text x="364.00" y="273.94" font-family="Arial, Helvetica, sans-serif" font-size="1.8" fill="#000000">DRAWING NO. :</text>
  <text x="388.00" y="273.94" font-family="Arial, Helvetica, sans-serif" font-size="1.8" fill="#000000">REV :</text>
  <text x="217.00" y="198.75" font-family="Arial, Helvetica, sans-serif" font-size="2.8" fill="#000000">FROM POWER SUPPLY ON SITE</text>
  <path d="M 210.96,169.27 A 4.22,4.22 0 0,0 210.96,161.76" stroke="#000000" stroke-width="0.25" fill="none" />
  <circle cx="209.78" cy="161.76" r="0.74" stroke="#000000" stroke-width="0.25" fill="none" />
  <circle cx="209.80" cy="169.27" r="0.74" stroke="#000000" stroke-width="0.25" fill="none" />
  <line x1="210.00" y1="170.01" x2="210.00" y2="172.01" stroke="#000000" stroke-width="0.25" fill="none" />
  <line x1="210.00" y1="161.01" x2="210.00" y2="159.01" stroke="#000000" stroke-width="0.25" fill="none" />
  <text x="213.96" y="164.95" font-family="Arial, Helvetica, sans-serif" font-size="1.8" fill="#000000">63A TPN MCCB (25KA)</text>
  <line x1="74.00" y1="154.01" x2="346.00" y2="154.01" stroke="#000000" stroke-width="0.50" fill="none" />
  <text x="85.00" y="159.25" font-family="Arial, Helvetica, sans-serif" font-size="2.8" fill="#000000">200A BUSBAR</text>
  <text x="97.00" y="150.27" font-family="Arial, Helvetica, sans-serif" font-size="2.2" fill="#000000" transform="rotate(-90.0,97.00,149.39)">L1S1</text>
  <path d="M 96.35,141.35 A 3.75,3.75 0 0,0 96.35,134.68" stroke="#000000" stroke-width="0.25" fill="none" />
  <circle cx="95.31" cy="134.68" r="0.66" stroke="#000000" stroke-width="0.25" fill="none" />
  <circle cx="95.32" cy="141.35" r="0.66" stroke="#000000" stroke-width="0.25" fill="none" />
  <line x1="95.50" y1="142.01" x2="95.50" y2="144.01" stroke="#000000" stroke-width="0.25" fill="none" />
  <line x1="95.50" y1="134.01" x2="95.50" y2="132.01" stroke="#000000" stroke-width="0.25" fill="none" />
  <line x1="92.39" y1="138.01" x2="98.39" y2="138.01" stroke="#000000" stroke-width="0.25" fill="none" />
  <line x1="98.39" y1="138.01" x2="97.19" y2="137.41" stroke="#000000" stroke-width="0.25" fill="none" />
  <line x1="98.39" y1="138.01" x2="97.19" y2="138.61" stroke="#000000" stroke-width="0.25" fill="none" />
  <text x="87.00" y="136.61" font-family="Arial, Helvetica, sans-serif" font-size="2.0" fill="#000000"><tspan x="87.00">B10A</tspan><tspan x="87.00" dy="2.8">SPN</tspan><tspan x="87.00" dy="2.8">MCB</tspan><tspan x="87.00" dy="2.8">6kA</tspan></text>
  <text x="95.50" y="109.25" font-family="Arial, Helvetica, sans-serif" font-size="2.8" fill="#000000" transform="rotate(-90.0,95.50,108.13)">1 NO. LIGHTS</text>
  <text x="125.62" y="150.27" font-family="Arial, Helvetica, sans-serif" font-size="2.2" fill="#000000" transform="rotate(-90.0,125.62,149.39)">L2S1</text>
  <path d="M 124.98,141.35 A 3.75,3.75 0 0,0 124.98,134.68" stroke="#000000" stroke-width="0.25" fill="none" />
  <circle cx="123.93" cy="134.68" r="0.66" stroke="#000000" stroke-width="0.25" fill="none" />
  <circle cx="123.94" cy="141.35" r="0.66" stroke="#000000" stroke-width="0.25" fill="none" />
  <line x1="124.12" y1="142.01" x2="124.12" y2="144.01" stroke="#000000" stroke-width="0.25" fill="none" />
  <line x1="124.12" y1="134.01" x2="124.12" y2="132.01" stroke="#000000" stroke-width="0.25" fill="none" />
  <line x1="98.39" y1="138.01" x2="127.02" y2="138.01" stroke="#000000" stroke-width="0.25" fill="none" />
  <line x1="127.02" y1="138.01" x2="125.82" y2="137.41" stroke="#000000" stroke-width="0.25" fill="none" />
  <line x1="127.02" y1="138.01" x2="125.82" y2="138.61" stroke="#000000" stroke-width="0.25" fill="none" />
  <text x="124.12" y="109.25" font-family="Arial, Helvetica, sans-serif" font-size="2.8" fill="#000000" transform="rotate(-90.0,124.12,108.13)">SPARE</text>
  <text x="154.25" y="150.27" font-family="Arial, Helvetica, sans-serif" font-size="2.2" fill="#000000" transform="rotate(-90.0,154.25,149.39)">L3S1</text>
  <path d="M 153.60,141.35 A 3.75,3.75 0 0,0 153.60,134.68" stroke="#000000" stroke-width="0.25" fill="none" />
  <circle cx="152.56" cy="134.68" r="0.66" stroke="#000000" stroke-width="0.25" fill="none" />
  <circle cx="152.57" cy="141.35" r="0.66" stroke="#000000" stroke-width="0.25" fill="none" />
  <line x1="152.75" y1="142.01" x2="152.75" y2="144.01" stroke="#000000" stroke-width="0.25" fill="none" />
  <line x1="152.75" y1="134.01" x2="152.75" y2="132.01" stroke="#000000" stroke-width="0.25" fill="none" />
  <line x1="127.02" y1="138.01" x2="155.64" y2="138.01" stroke="#000000" stroke-width="0.25" fill="none" />
  <line x1="155.64" y1="138.01" x2="154.44" y2="137.41" stroke="#000000" stroke-width="0.25" fill="none" />
  <line x1="155.64" y1="138.01" x2="154.44" y2="138.61" stroke="#000000" stroke-width="0.25" fill="none" />
  <text x="152.75" y="109.25" font-family="Arial, Helvetica, sans-serif" font-size="2.8" fill="#000000" transform="rotate(-90.0,152.75,108.13)">SPARE</text>
  <text x="188.88" y="150.27" font-family="Arial, Helvetica, sans-serif" font-size="2.2" fill="#000000" transform="rotate(-90.0,188.88,149.39)">L1P1</text>
  <path d="M 188.23,141.35 A 3.75,3.75 0 0,0 188.23,134.68" stroke="#000000" stroke-width="0.25" fill="none" />
  <circle cx="187.18" cy="134.68" r="0.66" stroke="#000000" stroke-width="0.25" fill="none" />
  <circle cx="187.19" cy="141.35" r="0.66" stroke="#000000" stroke-width="0.25" fill="none" />
  <line x1="187.38" y1="142.01" x2="187.38" y2="144.01" stroke="#000000" stroke-width="0.25" fill="none" />
  <line x1="187.38" y1="134.01" x2="187.38" y2="132.01" stroke="#000000" stroke-width="0.25" fill="none" />
  <line x1="184.27" y1="138.01" x2="190.27" y2="138.01" stroke="#000000" stroke-width="0.25" fill="none" />
  <line x1="190.27" y1="138.01" x2="189.07" y2="137.41" stroke="#000000" stroke-width="0.25" fill="none" />
  <line x1="190.27" y1="138.01" x2="189.07" y2="138.61" stroke="#000000" stroke-width="0.25" fill="none" />
  <text x="178.88" y="136.61" font-family="Arial, Helvetica, sans-serif" font-size="2.0" fill="#000000"><tspan x="178.88">B20A</tspan><tspan x="178.88" dy="2.8">SPN</tspan><tspan x="178.88" dy="2.8">MCB</tspan><tspan x="178.88" dy="2.8">6kA</tspan></text>
  <text x="187.38" y="109.25" font-family="Arial, Helvetica, sans-serif" font-size="2.8" fill="#000000" transform="rotate(-90.0,187.38,108.13)">1 NO. POWER 1</text>
  <text x="217.50" y="150.27" font-family="Arial, Helvetica, sans-serif" font-size="2.2" fill="#000000" transform="rotate(-90.0,217.50,149.39)">L2P1</text>
  <path d="M 216.85,141.35 A 3.75,3.75 0 0,0 216.85,134.68" stroke="#000000" stroke-width="0.25" fill="none" />
  <circle cx="215.81" cy="134.68" r="0.66" stroke="#000000" stroke-width="0.25" fill="none" />
  <circle cx="215.82" cy="141.35" r="0.66" stroke="#000000" stroke-width="0.25" fill="none" />
  <line x1="216.00" y1="142.01" x2="216.00" y2="144.01" stroke="#000000" stroke-width="0.25" fill="none" />
  <line x1="216.00" y1="134.01" x2="216.00" y2="132.01" stroke="#000000" stroke-width="0.25" fill="none" />
  <line x1="190.27" y1="138.01" x2="218.89" y2="138.01" stroke="#000000" stroke-width="0.25" fill="none" />
  <line x1="218.89" y1="138.01" x2="217.69" y2="137.41" stroke="#000000" stroke-width="0.25" fill="none" />
  <line x1="218.89" y1="138.01" x2="217.69" y2="138.61" stroke="#000000" stroke-width="0.25" fill="none" />
  <text x="216.00" y="109.25" font-family="Arial, Helvetica, sans-serif" font-size="2.8" fill="#000000" transform="rotate(-90.0,216.00,108.13)">1 NO. POWER 2</text>
  <text x="246.12" y="150.27" font-family="Arial, Helvetica, sans-serif" font-size="2.2" fill="#000000" transform="rotate(-90.0,246.12,149.39)">L3P1</text>
  <path d="M 245.48,141.35 A 3.75,3.75 0 0,0 245.48,134.68" stroke="#000000" stroke-width="0.25" fill="none" />
  <circle cx="244.43" cy="134.68" r="0.66" stroke="#000000" stroke-width="0.25" fill="none" />
  <circle cx="244.44" cy="141.35" r="0.66" stroke="#000000" stroke-width="0.25" fill="none" />
  <line x1="244.62" y1="142.01" x2="244.62" y2="144.01" stroke="#000000" stroke-width="0.25" fill="none" />
  <line x1="244.62" y1="134.01" x2="244.62" y2="132.01" stroke="#000000" stroke-width="0.25" fill="none" />
  <line x1="241.52" y1="138.01" x2="247.52" y2="138.01" stroke="#000000" stroke-width="0.25" fill="none" />
  <line x1="247.52" y1="138.01" x2="246.32" y2="137.41" stroke="#000000" stroke-width="0.25" fill="none" />
  <line x1="247.52" y1="138.01" x2="246.32" y2="138.61" stroke="#000000" stroke-width="0.25" fill="none" />
  <text x="236.12" y="136.61" font-family="Arial, Helvetica, sans-serif" font-size="2.0" fill="#000000"><tspan x="236.12">B32A</tspan><tspan x="236.12" dy="2.8">SPN</tspan><tspan x="236.12" dy="2.8">MCB</tspan><tspan x="236.12" dy="2.8">6kA</tspan></text>
  <text x="244.62" y="109.25" font-family="Arial, Helvetica, sans-serif" font-size="2.8" fill="#000000" transform="rotate(-90.0,244.62,108.13)">1 NO. AIRCON 1</text>
  <text x="274.75" y="150.27" font-family="Arial, Helvetica, sans-serif" font-size="2.2" fill="#000000" transform="rotate(-90.0,274.75,149.39)">L1P2</text>
  <path d="M 274.10,141.35 A 3.75,3.75 0 0,0 274.10,134.68" stroke="#000000" stroke-width="0.25" fill="none" />
  <circle cx="273.06" cy="134.68" r="0.66" stroke="#000000" stroke-width="0.25" fill="none" />
  <circle cx="273.07" cy="141.35" r="0.66" stroke="#000000" stroke-width="0.25" fill="none" />
  <line x1="273.25" y1="142.01" x2="273.25" y2="144.01" stroke="#000000" stroke-width="0.25" fill="none" />
  <line x1="273.25" y1="134.01" x2="273.25" y2="132.01" stroke="#000000" stroke-width="0.25" fill="none" />
  <line x1="247.52" y1="138.01" x2="276.14" y2="138.01" stroke="#000000" stroke-width="0.25" fill="none" />
  <line x1="276.14" y1="138.01" x2="274.94" y2="137.41" stroke="#000000" stroke-width="0.25" fill="none" />
  <line x1="276.14" y1="138.01" x2="274.94" y2="138.61" stroke="#000000" stroke-width="0.25" fill="none" />
  <text x="273.25" y="109.25" font-family="Arial, Helvetica, sans-serif" font-size="2.8" fill="#000000" transform="rotate(-90.0,273.25,108.13)">1 NO. AIRCON 2</text>
  <text x="303.38" y="150.27" font-family="Arial, Helvetica, sans-serif" font-size="2.2" fill="#000000" transform="rotate(-90.0,303.38,149.39)">L2P2</text>
  <path d="M 302.73,141.35 A 3.75,3.75 0 0,0 302.73,134.68" stroke="#000000" stroke-width="0.25" fill="none" />
  <circle cx="301.68" cy="134.68" r="0.66" stroke="#000000" stroke-width="0.25" fill="none" />
  <circle cx="301.69" cy="141.35" r="0.66" stroke="#000000" stroke-width="0.25" fill="none" />
  <line x1="301.88" y1="142.01" x2="301.88" y2="144.01" stroke="#000000" stroke-width="0.25" fill="none" />
  <line x1="301.88" y1="134.01" x2="301.88" y2="132.01" stroke="#000000" stroke-width="0.25" fill="none" />
  <line x1="218.89" y1="138.01" x2="304.77" y2="138.01" stroke="#000000" stroke-width="0.25" fill="none" />
  <line x1="304.77" y1="138.01" x2="303.57" y2="137.41" stroke="#000000" stroke-width="0.25" fill="none" />
  <line x1="304.77" y1="138.01" x2="303.57" y2="138.61" stroke="#000000" stroke-width="0.25" fill="none" />
  <text x="301.88" y="109.25" font-family="Arial, Helvetica, sans-serif" font-size="2.8" fill="#000000" transform="rotate(-90.0,301.88,108.13)">SPARE</text>
  <text x="332.00" y="150.27" font-family="Arial, Helvetica, sans-serif" font-size="2.2" fill="#000000" transform="rotate(-90.0,332.00,149.39)">L3P2</text>
  <path d="M 331.35,141.35 A 3.75,3.75 0 0,0 331.35,134.68" stroke="#000000" stroke-width="0.25" fill="none" />
  <circle cx="330.31" cy="134.68" r="0.66" stroke="#000000" stroke-width="0.25" fill="none" />
  <circle cx="330.32" cy="141.35" r="0.66" stroke="#000000" stroke-width="0.25" fill="none" />
  <line x1="330.50" y1="142.01" x2="330.50" y2="144.01" stroke="#000000" stroke-width="0.25" fill="none" />
  <line x1="330.50" y1="134.01" x2="330.50" y2="132.01" stroke="#000000" stroke-width="0.25" fill="none" />
  <line x1="276.14" y1="138.01" x2="333.39" y2="138.01" stroke="#000000" stroke-width="0.25" fill="none" />
  <line x1="333.39" y1="138.01" x2="332.19" y2="137.41" stroke="#000000" stroke-width="0.25" fill="none" />
  <line x1="333.39" y1="138.01" x2="332.19" y2="138.61" stroke="#000000" stroke-width="0.25" fill="none" />
  <text x="330.50" y="109.25" font-family="Arial, Helvetica, sans-serif" font-size="2.8" fill="#000000" transform="rotate(-90.0,330.50,108.13)">SPARE</text>
  <text x="84.10" y="109.25" font-family="Arial, Helvetica, sans-serif" font-size="2.8" fill="#000000" transform="rotate(-90.0,84.10,108.13)">2C 1.5sqmm PVC + 1.5sqmm</text>
  <text x="88.02" y="109.25" font-family="Arial, Helvetica, sans-serif" font-size="2.8" fill="#000000" transform="rotate(-90.0,88.02,108.13)">PVC CPC IN METAL TRUNKING</text>
  <text x="224.60" y="109.25" font-family="Arial, Helvetica, sans-serif" font-size="2.8" fill="#000000" transform="rotate(-90.0,224.60,108.13)">2C 2.5sqmm PVC + 2.5sqmm</text>
  <text x="228.52" y="109.25" font-family="Arial, Helvetica, sans-serif" font-size="2.8" fill="#000000" transform="rotate(-90.0,228.52,108.13)">PVC CPC IN METAL TRUNKING</text>
  <text x="233.22" y="109.25" font-family="Arial, Helvetica, sans-serif" font-size="2.8" fill="#000000" transform="rotate(-90.0,233.22,108.13)">2C 6.0sqmm PVC + 6.0sqmm</text>
  <text x="237.14" y="109.25" font-family="Arial, Helvetica, sans-serif" font-size="2.8" fill="#000000" transform="rotate(-90.0,237.14,108.13)">PVC CPC IN METAL TRUNKING</text>
  <text x="78.00" y="174.41" font-family="Arial, Helvetica, sans-serif" font-size="3.0" fill="#000000">63A DB</text>
  <text x="78.00" y="177.45" font-family="Arial, Helvetica, sans-serif" font-size="1.8" fill="#000000">APPROVED LOAD: 45 KVA AT 400V</text>
  <text x="78.00" y="187.25" font-family="Arial, Helvetica, sans-serif" font-size="2.8" fill="#000000">(LOCATED INSIDE UNIT)</text>
  <line x1="334.20" y1="183.01" x2="334.20" y2="184.81" stroke="#000000" stroke-width="0.25" fill="none" />
  <line x1="331.95" y1="184.81" x2="336.45" y2="184.81" stroke="#000000" stroke-width="0.25" fill="none" />
  <line x1="332.70" y1="185.94" x2="335.70" y2="185.94" stroke="#000000" stroke-width="0.25" fill="none" />
  <line x1="333.45" y1="187.06" x2="334.95" y2="187.06" stroke="#000000" stroke-width="0.25" fill="none" />
  <text x="339.45" y="184.54" font-family="Arial, Helvetica, sans-serif" font-size="1.6" fill="#000000">E</text>
  <text x="128.12" y="190.00" font-family="Arial, Helvetica, sans-serif" font-size="2.8" fill="#000000"><tspan x="128.12">4 x 1C 16sqmm PVC/PVC +</tspan><tspan x="128.12" dy="3.9">16sqmm PVC CPC IN METAL TRUNKING</tspan></text>
  <line x1="210.00" y1="198.01" x2="215.00" y2="198.01" stroke="#000000" stroke-width="0.25" fill="none" />
  <line x1="210.00" y1="198.01" x2="210.00" y2="184.01" stroke="#000000" stroke-width="0.25" fill="none" />
  <line x1="210.00" y1="184.01" x2="210.00" y2="170.01" stroke="#000000" stroke-width="0.25" fill="none" />
  <line x1="210.00" y1="172.01" x2="210.00" y2="170.01" stroke="#000000" stroke-width="0.25" fill="none" />
  <line x1="210.00" y1="161.01" x2="210.00" y2="159.01" stroke="#000000" stroke-width="0.25" fill="none" />
  <line x1="210.00" y1="159.01" x2="210.00" y2="154.01" stroke="#000000" stroke-width="0.25" fill="none" />
  <line x1="95.50" y1="146.40" x2="95.50" y2="142.01" stroke="#000000" stroke-width="0.25" fill="none" />
  <line x1="95.50" y1="134.01" x2="95.50" y2="132.01" stroke="#000000" stroke-width="0.25" fill="none" />
  <line x1="95.50" y1="132.01" x2="95.50" y2="109.01" stroke="#000000" stroke-width="0.25" fill="none" />
  <line x1="124.12" y1="154.01" x2="124.12" y2="142.01" stroke="#000000" stroke-width="0.25" fill="none" />
  <line x1="124.12" y1="134.01" x2="124.12" y2="132.01" stroke="#000000" stroke-width="0.25" fill="none" />
  <line x1="124.12" y1="132.01" x2="124.12" y2="109.01" stroke="#000000" stroke-width="0.25" fill="none" />
  <line x1="152.75" y1="146.40" x2="152.75" y2="142.01" stroke="#000000" stroke-width="0.25" fill="none" />
  <line x1="152.75" y1="134.01" x2="152.75" y2="132.01" stroke="#000000" stroke-width="0.25" fill="none" />
  <line x1="152.75" y1="132.01" x2="152.75" y2="109.01" stroke="#000000" stroke-width="0.25" fill="none" />
  <line x1="187.38" y1="146.40" x2="187.38" y2="142.01" stroke="#000000" stroke-width="0.25" fill="none" />
  <line x1="187.38" y1="134.01" x2="187.38" y2="132.01" stroke="#000000" stroke-width="0.25" fill="none" />
  <line x1="187.38" y1="132.01" x2="187.38" y2="109.01" stroke="#000000" stroke-width="0.25" fill="none" />
  <line x1="216.00" y1="154.01" x2="216.00" y2="142.01" stroke="#000000" stroke-width="0.25" fill="none" />
  <line x1="216.00" y1="134.01" x2="216.00" y2="132.01" stroke="#000000" stroke-width="0.25" fill="none" />
  <line x1="216.00" y1="132.01" x2="216.00" y2="109.01" stroke="#000000" stroke-width="0.25" fill="none" />
  <line x1="244.62" y1="146.40" x2="244.62" y2="142.01" stroke="#000000" stroke-width="0.25" fill="none" />
  <line x1="244.62" y1="134.01" x2="244.62" y2="132.01" stroke="#000000" stroke-width="0.25" fill="none" />
  <line x1="244.62" y1="132.01" x2="244.62" y2="109.01" stroke="#000000" stroke-width="0.25" fill="none" />
  <line x1="273.25" y1="146.40" x2="273.25" y2="142.01" stroke="#000000" stroke-width="0.25" fill="none" />
  <line x1="273.25" y1="134.01" x2="273.25" y2="132.01" stroke="#000000" stroke-width="0.25" fill="none" />
  <line x1="273.25" y1="132.01" x2="273.25" y2="109.01" stroke="#000000" stroke-width="0.25" fill="none" />
  <line x1="301.88" y1="154.01" x2="301.88" y2="142.01" stroke="#000000" stroke-width="0.25" fill="none" />
  <line x1="301.88" y1="134.01" x2="301.88" y2="132.01" stroke="#000000" stroke-width="0.25" fill="none" />
  <line x1="301.88" y1="132.01" x2="301.88" y2="109.01" stroke="#000000" stroke-width="0.25" fill="none" />
  <line x1="330.50" y1="146.40" x2="330.50" y2="142.01" stroke="#000000" stroke-width="0.25" fill="none" />
  <line x1="330.50" y1="134.01" x2="330.50" y2="132.01" stroke="#000000" stroke-width="0.25" fill="none" />
  <line x1="330.50" y1="132.01" x2="330.50" y2="109.01" stroke="#000000" stroke-width="0.25" fill="none" />
  <line x1="85.50" y1="114.01" x2="85.50" y2="109.01" stroke="#000000" stroke-width="0.25" fill="none" />
  <line x1="226.00" y1="114.01" x2="226.00" y2="109.01" stroke="#000000" stroke-width="0.25" fill="none" />
  <line x1="234.62" y1="114.01" x2="234.62" y2="109.01" stroke="#000000" stroke-width="0.25" fill="none" />
  <line x1="334.20" y1="180.01" x2="334.20" y2="183.01" stroke="#000000" stroke-width="0.25" fill="none" />
  <line x1="208.75" y1="190.16" x2="211.25" y2="187.66" stroke="#000000" stroke-width="0.50" fill="none" />
  <line x1="94.25" y1="115.26" x2="96.75" y2="112.76" stroke="#000000" stroke-width="0.50" fill="none" />
  <line x1="186.12" y1="115.26" x2="188.62" y2="112.76" stroke="#000000" stroke-width="0.50" fill="none" />
  <line x1="214.75" y1="115.26" x2="217.25" y2="112.76" stroke="#000000" stroke-width="0.50" fill="none" />
  <line x1="243.38" y1="115.26" x2="245.88" y2="112.76" stroke="#000000" stroke-width="0.50" fill="none" />
  <line x1="272.00" y1="115.26" x2="274.50" y2="112.76" stroke="#000000" stroke-width="0.50" fill="none" />
  <line x1="210.00" y1="188.91" x2="201.00" y2="188.91" stroke="#000000" stroke-width="0.25" fill="none" />
  <line x1="85.50" y1="114.01" x2="95.50" y2="114.01" stroke="#000000" stroke-width="0.25" fill="none" />
  <line x1="187.38" y1="114.01" x2="226.00" y2="114.01" stroke="#000000" stroke-width="0.25" fill="none" />
  <line x1="234.62" y1="114.01" x2="273.25" y2="114.01" stroke="#000000" stroke-width="0.25" fill="none" />
  <line x1="124.12" y1="154.01" x2="95.50" y2="146.40" stroke="#000000" stroke-width="0.25" fill="none" />
  <line x1="124.12" y1="154.01" x2="152.75" y2="146.40" stroke="#000000" stroke-width="0.25" fill="none" />
  <line x1="216.00" y1="154.01" x2="187.38" y2="146.40" stroke="#000000" stroke-width="0.25" fill="none" />
  <line x1="216.00" y1="154.01" x2="244.62" y2="146.40" stroke="#000000" stroke-width="0.25" fill="none" />
  <line x1="301.88" y1="154.01" x2="273.25" y2="146.40" stroke="#000000" stroke-width="0.25" fill="none" />
  <line x1="301.88" y1="154.01" x2="330.50" y2="146.40" stroke="#000000" stroke-width="0.25" fill="none" />
  <line x1="72.00" y1="180.01" x2="80.00" y2="180.01" stroke="#808080" stroke-width="0.25" fill="none" />
  <line x1="82.00" y1="180.01" x2="83.50" y2="180.01" stroke="#808080" stroke-width="0.25" fill="none" />
  <line x1="85.50" y1="180.01" x2="93.50" y2="180.01" stroke="#808080" stroke-width="0.25" fill="none" />
  <line x1="95.50" y1="180.01" x2="97.00" y2="180.01" stroke="#808080" stroke-width="0.25" fill="none" />
  <line x1="99.00" y1="180.01" x2="107.00" y2="180.01" stroke="#808080" stroke-width="0.25" fill="none" />
  <line x1="109.00" y1="180.01" x2="110.50" y2="180.01" stroke="#808080" stroke-width="0.25" fill="none" />
  <line x1="112.50" y1="180.01" x2="120.50" y2="180.01" stroke="#808080" stroke-width="0.25" fill="none" />
  <line x1="122.50" y1="180.01" x2="124.00" y2="180.01" stroke="#808080" stroke-width="0.25" fill="none" />
  <line x1="126.00" y1="180.01" x2="134.00" y2="180.01" stroke="#808080" stroke-width="0.25" fill="none" />
  <line x1="136.00" y1="180.01" x2="137.50" y2="180.01" stroke="#808080" stroke-width="0.25" fill="none" />
  <line x1="139.50" y1="180.01" x2="147.50" y2="180.01" stroke="#808080" stroke-width="0.25" fill="none" />
  <line x1="149.50" y1="180.01" x2="151.00" y2="180.01" stroke="#808080" stroke-width="0.25" fill="none" />
  <line x1="153.00" y1="180.01" x2="161.00" y2="180.01" stroke="#808080" stroke-width="0.25" fill="none" />
  <line x1="163.00" y1="180.01" x2="164.50" y2="180.01" stroke="#808080" stroke-width="0.25" fill="none" />
  <line x1="166.50" y1="180.01" x2="174.50" y2="180.01" stroke="#808080" stroke-width="0.25" fill="none" />
  <line x1="176.50" y1="180.01" x2="178.00" y2="180.01" stroke="#808080" stroke-width="0.25" fill="none" />
  <line x1="180.00" y1="180.01" x2="188.00" y2="180.01" stroke="#808080" stroke-width="0.25" fill="none" />
  <line x1="190.00" y1="180.01" x2="191.50" y2="180.01" stroke="#808080" stroke-width="0.25" fill="none" />
  <line x1="193.50" y1="180.01" x2="201.50" y2="180.01" stroke="#808080" stroke-width="0.25" fill="none" />
  <line x1="203.50" y1="180.01" x2="205.00" y2="180.01" stroke="#808080" stroke-width="0.25" fill="none" />
  <line x1="207.00" y1="180.01" x2="215.00" y2="180.01" stroke="#808080" stroke-width="0.25" fill="none" />
  <line x1="217.00" y1="180.01" x2="218.50" y2="180.01" stroke="#808080" stroke-width="0.25" fill="none" />
  <line x1="220.50" y1="180.01" x2="228.50" y2="180.01" stroke="#808080" stroke-width="0.25" fill="none" />
  <line x1="230.50" y1="180.01" x2="232.00" y2="180.01" stroke="#808080" stroke-width="0.25" fill="none" />
  <line x1="234.00" y1="180.01" x2="242.00" y2="180.01" stroke="#808080" stroke-width="0.25" fill="none" />
  <line x1="244.00" y1="180.01" x2="245.50" y2="180.01" stroke="#808080" stroke-width="0.25" fill="none" />
  <line x1="247.50" y1="180.01" x2="255.50" y2="180.01" stroke="#808080" stroke-width="0.25" fill="none" />
  <line x1="257.50" y1="180.01" x2="259.00" y2="180.01" stroke="#808080" stroke-width="0.25" fill="none" />
  <line x1="261.00" y1="180.01" x2="269.00" y2="180.01" stroke="#808080" stroke-width="0.25" fill="none" />
  <line x1="271.00" y1="180.01" x2="272.50" y2="180.01" stroke="#808080" stroke-width="0.25" fill="none" />
  <line x1="274.50" y1="180.01" x2="282.50" y2="180.01" stroke="#808080" stroke-width="0.25" fill="none" />
  <line x1="284.50" y1="180.01" x2="286.00" y2="180.01" stroke="#808080" stroke-width="0.25" fill="none" />
  <line x1="288.00" y1="180.01" x2="296.00" y2="180.01" stroke="#808080" stroke-width="0.25" fill="none" />
  <line x1="298.00" y1="180.01" x2="299.50" y2="180.01" stroke="#808080" stroke-width="0.25" fill="none" />
  <line x1="301.50" y1="180.01" x2="309.50" y2="180.01" stroke="#808080" stroke-width="0.25" fill="none" />
  <line x1="311.50" y1="180.01" x2="313.00" y2="180.01" stroke="#808080" stroke-width="0.25" fill="none" />
  <line x1="315.00" y1="180.01" x2="323.00" y2="180.01" stroke="#808080" stroke-width="0.25" fill="none" />
  <line x1="325.00" y1="180.01" x2="326.50" y2="180.01" stroke="#808080" stroke-width="0.25" fill="none" />
  <line x1="328.50" y1="180.01" x2="336.50" y2="180.01" stroke="#808080" stroke-width="0.25" fill="none" />
  <line x1="338.50" y1="180.01" x2="340.00" y2="180.01" stroke="#808080" stroke-width="0.25" fill="none" />
  <line x1="342.00" y1="180.01" x2="348.00" y2="180.01" stroke="#808080" stroke-width="0.25" fill="none" />
  <line x1="72.00" y1="124.01" x2="80.00" y2="124.01" stroke="#808080" stroke-width="0.25" fill="none" />
  <line x1="82.00" y1="124.01" x2="83.50" y2="124.01" stroke="#808080" stroke-width="0.25" fill="none" />
  <line x1="85.50" y1="124.01" x2="93.50" y2="124.01" stroke="#808080" stroke-width="0.25" fill="none" />
  <line x1="95.50" y1="124.01" x2="97.00" y2="124.01" stroke="#808080" stroke-width="0.25" fill="none" />
  <line x1="99.00" y1="124.01" x2="107.00" y2="124.01" stroke="#808080" stroke-width="0.25" fill="none" />
  <line x1="109.00" y1="124.01" x2="110.50" y2="124.01" stroke="#808080" stroke-width="0.25" fill="none" />
  <line x1="112.50" y1="124.01" x2="120.50" y2="124.01" stroke="#808080" stroke-width="0.25" fill="none" />
  <line x1="122.50" y1="124.01" x2="124.00" y2="124.01" stroke="#808080" stroke-width="0.25" fill="none" />
  <line x1="126.00" y1="124.01" x2="134.00" y2="124.01" stroke="#808080" stroke-width="0.25" fill="none" />
  <line x1="136.00" y1="124.01" x2="137.50" y2="124.01" stroke="#808080" stroke-width="0.25" fill="none" />
  <line x1="139.50" y1="124.01" x2="147.50" y2="124.01" stroke="#808080" stroke-width="0.25" fill="none" />
  <line x1="149.50" y1="124.01" x2="151.00" y2="124.01" stroke="#808080" stroke-width="0.25" fill="none" />
  <line x1="153.00" y1="124.01" x2="161.00" y2="124.01" stroke="#808080" stroke-width="0.25" fill="none" />
  <line x1="163.00" y1="124.01" x2="164.50" y2="124.01" stroke="#808080" stroke-width="0.25" fill="none" />
  <line x1="166.50" y1="124.01" x2="174.50" y2="124.01" stroke="#808080" stroke-width="0.25" fill="none" />
  <line x1="176.50" y1="124.01" x2="178.00" y2="124.01" stroke="#808080" stroke-width="0.25" fill="none" />
  <line x1="180.00" y1="124.01" x2="188.00" y2="124.01" stroke="#808080" stroke-width="0.25" fill="none" />
  <line x1="190.00" y1="124.01" x2="191.50" y2="124.01" stroke="#808080" stroke-width="0.25" fill="none" />
  <line x1="193.50" y1="124.01" x2="201.50" y2="124.01" stroke="#808080" stroke-width="0.25" fill="none" />
  <line x1="203.50" y1="124.01" x2="205.00" y2="124.01" stroke="#808080" stroke-width="0.25" fill="none" />
  <line x1="207.00" y1="124.01" x2="215.00" y2="124.01" stroke="#808080" stroke-width="0.25" fill="none" />
  <line x1="217.00" y1="124.01" x2="218.50" y2="124.01" stroke="#808080" stroke-width="0.25" fill="none" />
  <line x1="220.50" y1="124.01" x2="228.50" y2="124.01" stroke="#808080" stroke-width="0.25" fill="none" />
  <line x1="230.50" y1="124.01" x2="232.00" y2="124.01" stroke="#808080" stroke-width="0.25" fill="none" />
  <line x1="234.00" y1="124.01" x2="242.00" y2="124.01" stroke="#808080" stroke-width="0.25" fill="none" />
  <line x1="244.00" y1="124.01" x2="245.50" y2="124.01" stroke="#808080" stroke-width="0.25" fill="none" />
  <line x1="247.50" y1="124.01" x2="255.50" y2="124.01" stroke="#808080" stroke-width="0.25" fill="none" />
  <line x1="257.50" y1="124.01" x2="259.00" y2="124.01" stroke="#808080" stroke-width="0.25" fill="none" />
  <line x1="261.00" y1="124.01" x2="269.00" y2="124.01" stroke="#808080" stroke-width="0.25" fill="none" />
  <line x1="271.00" y1="124.01" x2="272.50" y2="124.01" stroke="#808080" stroke-width="0.25" fill="none" />
  <line x1="274.50" y1="124.01" x2="282.50" y2="124.01" stroke="#808080" stroke-width="0.25" fill="none" />
  <line x1="284.50" y1="124.01" x2="286.00" y2="124.01" stroke="#808080" stroke-width="0.25" fill="none" />
  <line x1="288.00" y1="124.01" x2="296.00" y2="124.01" stroke="#808080" stroke-width="0.25" fill="none" />
  <line x1="298.00" y1="124.01" x2="299.50" y2="124.01" stroke="#808080" stroke-width="0.25" fill="none" />
  <line x1="301.50" y1="124.01" x2="309.50" y2="124.01" stroke="#808080" stroke-width="0.25" fill="none" />
  <line x1="311.50" y1="124.01" x2="313.00" y2="124.01" stroke="#808080" stroke-width="0.25" fill="none" />
  <line x1="315.00" y1="124.01" x2="323.00" y2="124.01" stroke="#808080" stroke-width="0.25" fill="none" />
  <line x1="325.00" y1="124.01" x2="326.50" y2="124.01" stroke="#808080" stroke-width="0.25" fill="none" />
  <line x1="328.50" y1="124.01" x2="336.50" y2="124.01" stroke="#808080" stroke-width="0.25" fill="none" />
  <line x1="338.50" y1="124.01" x2="340.00" y2="124.01" stroke="#808080" stroke-width="0.25" fill="none" />
  <line x1="342.00" y1="124.01" x2="348.00" y2="124.01" stroke="#808080" stroke-width="0.25" fill="none" />
  <line x1="72.00" y1="180.01" x2="72.00" y2="172.01" stroke="#808080" stroke-width="0.25" fill="none" />
  <line x1="72.00" y1="170.01" x2="72.00" y2="168.51" stroke="#808080" stroke-width="0.25" fill="none" />
  <line x1="72.00" y1="166.51" x2="72.00" y2="158.51" stroke="#808080" stroke-width="0.25" fill="none" />
  <line x1="72.00" y1="156.51" x2="72.00" y2="155.01" stroke="#808080" stroke-width="0.25" fill="none" />
  <line x1="72.00" y1="153.01" x2="72.00" y2="145.01" stroke="#808080" stroke-width="0.25" fill="none" />
  <line x1="72.00" y1="143.01" x2="72.00" y2="141.51" stroke="#808080" stroke-width="0.25" fill="none" />
  <line x1="72.00" y1="139.51" x2="72.00" y2="131.51" stroke="#808080" stroke-width="0.25" fill="none" />
  <line x1="72.00" y1="129.51" x2="72.00" y2="128.01" stroke="#808080" stroke-width="0.25" fill="none" />
  <line x1="72.00" y1="126.01" x2="72.00" y2="124.01" stroke="#808080" stroke-width="0.25" fill="none" />
  <line x1="348.00" y1="180.01" x2="348.00" y2="172.01" stroke="#808080" stroke-width="0.25" fill="none" />
  <line x1="348.00" y1="170.01" x2="348.00" y2="168.51" stroke="#808080" stroke-width="0.25" fill="none" />
  <line x1="348.00" y1="166.51" x2="348.00" y2="158.51" stroke="#808080" stroke-width="0.25" fill="none" />
  <line x1="348.00" y1="156.51" x2="348.00" y2="155.01" stroke="#808080" stroke-width="0.25" fill="none" />
  <line x1="348.00" y1="153.01" x2="348.00" y2="145.01" stroke="#808080" stroke-width="0.25" fill="none" />
  <line x1="348.00" y1="143.01" x2="348.00" y2="141.51" stroke="#808080" stroke-width="0.25" fill="none" />
  <line x1="348.00" y1="139.51" x2="348.00" y2="131.51" stroke="#808080" stroke-width="0.25" fill="none" />
  <line x1="348.00" y1="129.51" x2="348.00" y2="128.01" stroke="#808080" stroke-width="0.25" fill="none" />
  <line x1="348.00" y1="126.01" x2="348.00" y2="124.01" stroke="#808080" stroke-width="0.25" fill="none" />
  <circle cx="124.12" cy="154.01" r="0.50" fill="rgb(0,0,0)" stroke="none" />
  <circle cx="124.12" cy="154.01" r="0.50" fill="rgb(0,0,0)" stroke="none" />
  <circle cx="124.12" cy="154.01" r="0.50" fill="rgb(0,0,0)" stroke="none" />
  <circle cx="216.00" cy="154.01" r="0.50" fill="rgb(0,0,0)" stroke="none" />
  <circle cx="216.00" cy="154.01" r="0.50" fill="rgb(0,0,0)" stroke="none" />
  <circle cx="216.00" cy="154.01" r="0.50" fill="rgb(0,0,0)" stroke="none" />
  <circle cx="301.88" cy="154.01" r="0.50" fill="rgb(0,0,0)" stroke="none" />
  <circle cx="301.88" cy="154.01" r="0.50" fill="rgb(0,0,0)" stroke="none" />
  <circle cx="301.88" cy="154.01" r="0.50" fill="rgb(0,0,0)" stroke="none" />
  <circle cx="334.20" cy="180.01" r="0.50" fill="rgb(0,0,0)" stroke="none" />
  <text x="13.00" y="264.40" font-family="Arial, Helvetica, sans-serif" font-size="3.0" fill="#000000">Electrical Installation</text>
  <text x="153.00" y="264.40" font-family="Arial, Helvetica, sans-serif" font-size="3.0" fill="#000000">LicenseKaki</text>
  <text x="225.00" y="263.80" font-family="Arial, Helvetica, sans-serif" font-size="3.5" fill="#000000"><tspan x="225.00">SINGLE LINE DIAGRAM</tspan><tspan x="225.00" dy="4.9">(SLD)</tspan></text>
  <text x="389.00" y="266.00" font-family="Arial, Helvetica, sans-serif" font-size="2.5" fill="#000000">DATE</text>
  <text x="365.00" y="278.00" font-family="Arial, Helvetica, sans-serif" font-size="2.5" fill="#000000"></text>
  <text x="394.00" y="278.80" font-family="Arial, Helvetica, sans-serif" font-size="3.5" fill="#000000">0</text>
  <text x="365.00" y="286.28" font-family="Arial, Helvetica, sans-serif" font-size="1.6" fill="#000000">SCALE : NTS</text>
  <text x="389.00" y="286.28" font-family="Arial, Helvetica, sans-serif" font-size="1.6" fill="#000000">SHEET : 1 OF 1</text>
</svg>