<svg xmlns="http://www.w3.org/2000/svg" viewBox="0 0 420.0 297.0" width="420.0mm" height="297.0mm">
  <rect width="420.0" height="297.0" fill="white" />
  <polygon points="10.00,287.00 410.00,287.00 410.00,10.00 10.00,10.00" stroke="#000000" stroke-width="0.25" fill="none" />
  <polygon points="10.00,287.00 410.00,287.00 410.00,255.00 10.00,255.00" stroke="#000000" stroke-width="0.25" fill="none" />
  <line x1="90.00" y1="255.00" x2="90.00" y2="287.00" stroke="#000000" stroke-width="0.25" fill="none" />
  <line x1="150.00" y1="255.00" x2="150.00" y2="287.00" stroke="#000000" stroke-width="0.25" fill="none" />
  <line x1="222.00" y1="255.00" x2="222.00" y2="287.00" stroke="#000000" stroke-width="0.25" fill="none" />
  <line x1="290.00" y1="255.00" x2="290.00" y2="287.00" stroke="#000000" stroke-width="0.25" fill="none" />
  <line x1="362.00" y1="255.00" x2="362.00" y2="287.00" stroke="#000000" stroke-width="0.25" fill="none" />
  <line x1="362.00" y1="270.00" x2="410.00" y2="270.00" stroke="#000000" stroke-width="0.25" fill="none" />
  <line x1="386.00" y1="255.00" x2="386.00" y2="287.00" stroke="#000000" stroke-width="0.25" fill="none" />
  <text x="12.00" y="258.94" font-family="Arial, Helvetica, sans-serif" font-size="1.8" fill="#000000">CLIENT / ADDRESS :</text>
  <text x="92.00" y="258.94" font-family="Arial, Helvetica, sans-serif" font-size="1.8" fill="#000000">MAIN CONTRACTOR :</text>
  <text x="152.00" y="258.94" font-family="Arial, Helvetica, sans-serif" font-size="1.8" fill="#000000">ELECTRICAL CONTRACTOR :</text>
  <text x="224.00" y="258.94" font-family="Arial, Helvetica, sans-serif" font-size="1.8" fill="#000000">DRAWING TITLE :</text>
  <text x="292.00" y="258.94" font-family="Arial, Helvetica, sans-serif" font-size="1.8" fill="#000000">LEW :</text>
  <text x="364.00" y="258.94" font-family="Arial, Helvetica, sans-serif" font-size="1.8" fill="#000000">CHECKED :</text>
  <text x="388.00" y="258.94" font-family="Arial, Helvetica, sans-serif" font-size="1.8" fill="#000000">DATE :</text>
  <text x="364.00" y="273.94" font-family="Arial, Helvetica, sans-serif" font-size="1.8" fill="#000000">DRAWING NO. :</text>
  <text x="388.00" y="273.94" font-family="Arial, Helvetica, sans-serif" font-size="1.8" fill="#000000">REV :</text>
  <circle cx="219.00" cy="190.96" r="0.55" stroke="#000000" stroke-width="0.25" fill="none" />
  <line x1="219.55" y1="190.96" x2="225.00" y2="187.96" stroke="#000000" stroke-width="0.25" fill="none" />
  <circle cx="225.00" cy="190.96" r="0.55" stroke="#000000" stroke-width="0.25" fill="none" />
  <line x1="225.55" y1="190.96" x2="227.00" y2="190.96" stroke="#000000" stroke-width="0.25" fill="none" />
  <line x1="217.00" y1="190.96" x2="218.45" y2="190.96" stroke="#000000" stroke-width="0.25" fill="none" />
  <line x1="227.00" y1="190.96" x2="230.00" y2="190.96" stroke="#000000" stroke-width="0.25" fill="none" />
  <line x1="217.00" y1="190.96" x2="214.00" y2="190.96" stroke="#000000" stroke-width="0.25" fill="none" />
  <text x="217.00" y="197.74" font-family="Arial, Helvetica, sans-serif" font-size="1.6" fill="#000000"><tspan x="217.00">63A DP</tspan><tspan x="217.00" dy="2.2">ISOLATOR</tspan></text>
  <polygon points="241.00,193.96 253.00,193.96 253.00,187.96 241.00,187.96" stroke="#000000" stroke-width="0.25" fill="none" />
  <text x="242.80" y="192.01" font-family="Arial, Helvetica, sans-serif" font-size="3.5" fill="#000000">KWH</text>
  <line x1="253.00" y1="190.96" x2="256.00" y2="190.96" stroke="#000000" stroke-width="0.25" fill="none" />
  <line x1="241.00" y1="190.96" x2="238.00" y2="190.96" stroke="#000000" stroke-width="0.25" fill="none" />
  <text x="237.00" y="184.90" font-family="Arial, Helvetica, sans-serif" font-size="2.8" fill="#000000">KWH METER BY SP</text>
  <circle cx="269.50" cy="190.96" r="0.50" stroke="#000000" stroke-width="0.25" fill="none" />
  <circle cx="274.50" cy="190.96" r="0.50" stroke="#000000" stroke-width="0.25" fill="none" />
  <path d="M 274.43,190.36 A 2.50,2.50 0 0,0 269.58,190.32" stroke="#000000" stroke-width="0.25" fill="none" />
  <line x1="275.00" y1="190.96" x2="278.50" y2="190.96" stroke="#000000" stroke-width="0.25" fill="none" />
  <line x1="265.50" y1="190.96" x2="269.00" y2="190.96" stroke="#000000" stroke-width="0.25" fill="none" />
  <line x1="278.50" y1="190.96" x2="281.50" y2="190.96" stroke="#000000" stroke-width="0.25" fill="none" />
  <line x1="265.50" y1="190.96" x2="262.50" y2="190.96" stroke="#000000" stroke-width="0.25" fill="none" />
  <text x="267.00" y="197.34" font-family="Arial, Helvetica, sans-serif" font-size="1.6" fill="#000000"><tspan x="267.00">63A DP MCB</tspan><tspan x="267.00" dy="2.2">TYPE B 10kA</tspan></text>
  <text x="304.50" y="190.20" font-family="Arial, Helvetica, sans-serif" font-size="2.8" fill="#000000">INCOMING FROM HDB ELECTRICAL RISER</text>
  <text x="295.50" y="201.80" font-family="Arial, Helvetica, sans-serif" font-size="2.8" fill="#000000"><tspan x="295.50">2 x 1C 16sqmm XLPE/PVC +</tspan><tspan x="295.50" dy="3.9">16sqmm PVC CPC</tspan></text>
  <text x="163.68" y="174.00" font-family="Arial, Helvetica, sans-serif" font-size="2.8" fill="#000000"><tspan x="163.68">2 x 1C 16sqmm XLPE/PVC +</tspan><tspan x="163.68" dy="3.9">16sqmm PVC CPC</tspan></text>
  <text x="214.00" y="205.18" font-family="Arial, Helvetica, sans-serif" font-size="2.8" fill="#000000">METER BOARD</text>
  <text x="231.25" y="211.98" font-family="Arial, Helvetica, sans-serif" font-size="2.8" fill="#000000">LOCATED AT METER COMPARTMENT</text>
  <circle cx="210.00" cy="147.16" r="0.50" stroke="#000000" stroke-width="0.25" fill="none" />
  <circle cx="210.00" cy="142.16" r="0.50" stroke="#000000" stroke-width="0.25" fill="none" />
  <path d="M 210.60,147.09 A 2.50,2.50 0 0,0 210.64,142.24" stroke="#000000" stroke-width="0.25" fill="none" />
  <line x1="210.00" y1="141.66" x2="210.00" y2="138.16" stroke="#000000" stroke-width="0.25" fill="none" />
  <line x1="210.00" y1="151.16" x2="210.00" y2="147.66" stroke="#000000" stroke-width="0.25" fill="none" />
  <line x1="210.00" y1="138.16" x2="210.00" y2="135.16" stroke="#000000" stroke-width="0.25" fill="none" />
  <line x1="210.00" y1="151.16" x2="210.00" y2="154.16" stroke="#000000" stroke-width="0.25" fill="none" />
  <text x="216.60" y="144.50" font-family="Arial, Helvetica, sans-serif" font-size="2.3" fill="#000000">63A DP MCB (10KA)</text>
  <circle cx="210.00" cy="130.66" r="0.55" stroke="#000000" stroke-width="0.25" fill="none" />
  <circle cx="210.00" cy="124.66" r="0.55" stroke="#000000" stroke-width="0.25" fill="none" />
  <path d="M 211.37,130.33 A 3.00,3.00 0 0,0 211.37,124.99" stroke="#000000" stroke-width="0.25" fill="none" />
  <line x1="210.00" y1="124.11" x2="210.00" y2="120.16" stroke="#000000" stroke-width="0.25" fill="none" />
  <line x1="210.00" y1="135.16" x2="210.00" y2="131.21" stroke="#000000" stroke-width="0.25" fill="none" />
  <line x1="213.00" y1="127.66" x2="214.29" y2="127.66" stroke="#000000" stroke-width="0.25" fill="none" />
  <line x1="214.29" y1="128.83" x2="214.29" y2="126.49" stroke="#000000" stroke-width="0.25" fill="none" />
  <line x1="210.00" y1="120.16" x2="210.00" y2="117.16" stroke="#000000" stroke-width="0.25" fill="none" />
  <line x1="210.00" y1="135.16" x2="210.00" y2="138.16" stroke="#000000" stroke-width="0.25" fill="none" />
  <text x="218.00" y="127.50" font-family="Arial, Helvetica, sans-serif" font-size="2.3" fill="#000000">63A DP RCCB (30mA)</text>
  <line x1="162.30" y1="117.16" x2="257.70" y2="117.16" stroke="#000000" stroke-width="0.50" fill="none" />
  <text x="165.30" y="122.40" font-family="Arial, Helvetica, sans-serif" font-size="2.8" fill="#000000">100A COMB BAR</text>
  <text x="178.40" y="115.42" font-family="Arial, Helvetica, sans-serif" font-size="2.2" fill="#000000" transform="rotate(-90.0,178.40,113.66)">S1</text>
  <circle cx="176.90" cy="101.16" r="0.50" stroke="#000000" stroke-width="0.25" fill="none" />
  <circle cx="176.90" cy="96.16" r="0.50" stroke="#000000" stroke-width="0.25" fill="none" />
  <path d="M 177.50,101.09 A 2.50,2.50 0 0,0 177.54,96.24" stroke="#000000" stroke-width="0.25" fill="none" />
  <line x1="173.40" y1="98.63" x2="179.40" y2="98.68" stroke="#000000" stroke-width="0.25" fill="none" />
  <line x1="179.40" y1="98.68" x2="178.19" y2="99.27" stroke="#000000" stroke-width="0.25" fill="none" />
  <line x1="179.40" y1="98.68" x2="178.21" y2="98.07" stroke="#000000" stroke-width="0.25" fill="none" />
  <line x1="176.90" y1="95.66" x2="176.90" y2="92.16" stroke="#000000" stroke-width="0.25" fill="none" />
  <line x1="176.90" y1="105.16" x2="176.90" y2="101.66" stroke="#000000" stroke-width="0.25" fill="none" />
  <line x1="176.90" y1="92.16" x2="176.90" y2="89.16" stroke="#000000" stroke-width="0.25" fill="none" />
  <line x1="176.90" y1="105.16" x2="176.90" y2="108.16" stroke="#000000" stroke-width="0.25" fill="none" />
  <text x="167.30" y="94.76" font-family="Arial, Helvetica, sans-serif" font-size="2.0" fill="#000000">B10A</text>
  <text x="167.30" y="97.26" font-family="Arial, Helvetica, sans-serif" font-size="2.0" fill="#000000">SPN</text>
  <text x="167.30" y="99.76" font-family="Arial, Helvetica, sans-serif" font-size="2.0" fill="#000000">MCB</text>
  <text x="167.30" y="102.26" font-family="Arial, Helvetica, sans-serif" font-size="2.0" fill="#000000">6kA</text>
  <text x="176.90" y="66.40" font-family="Arial, Helvetica, sans-serif" font-size="2.8" fill="#000000" transform="rotate(-90.0,176.90,64.16)">1 no. Lighting</text>
  <text x="216.60" y="115.42" font-family="Arial, Helvetica, sans-serif" font-size="2.2" fill="#000000" transform="rotate(-90.0,216.60,113.66)">P1</text>
  <circle cx="215.10" cy="101.16" r="0.50" stroke="#000000" stroke-width="0.25" fill="none" />
  <circle cx="215.10" cy="96.16" r="0.50" stroke="#000000" stroke-width="0.25" fill="none" />
  <path d="M 215.70,101.09 A 2.50,2.50 0 0,0 215.74,96.24" stroke="#000000" stroke-width="0.25" fill="none" />
  <line x1="211.60" y1="98.63" x2="217.60" y2="98.68" stroke="#000000" stroke-width="0.25" fill="none" />
  <line x1="217.60" y1="98.68" x2="216.39" y2="99.27" stroke="#000000" stroke-width="0.25" fill="none" />
  <line x1="217.60" y1="98.68" x2="216.41" y2="98.07" stroke="#000000" stroke-width="0.25" fill="none" />
  <line x1="215.10" y1="95.66" x2="215.10" y2="92.16" stroke="#000000" stroke-width="0.25" fill="none" />
  <line x1="215.10" y1="105.16" x2="215.10" y2="101.66" stroke="#000000" stroke-width="0.25" fill="none" />
  <line x1="215.10" y1="92.16" x2="215.10" y2="89.16" stroke="#000000" stroke-width="0.25" fill="none" />
  <line x1="215.10" y1="105.16" x2="215.10" y2="108.16" stroke="#000000" stroke-width="0.25" fill="none" />
  <text x="205.50" y="94.76" font-family="Arial, Helvetica, sans-serif" font-size="2.0" fill="#000000">B20A</text>
  <text x="205.50" y="97.26" font-family="Arial, Helvetica, sans-serif" font-size="2.0" fill="#000000">SPN</text>
  <text x="205.50" y="99.76" font-family="Arial, Helvetica, sans-serif" font-size="2.0" fill="#000000">MCB</text>
  <text x="205.50" y="102.26" font-family="Arial, Helvetica, sans-serif" font-size="2.0" fill="#000000">6kA</text>
  <text x="215.10" y="66.40" font-family="Arial, Helvetica, sans-serif" font-size="2.8" fill="#000000" transform="rotate(-90.0,215.10,64.16)">1 no. 13A S/S/O</text>
  <text x="249.70" y="115.42" font-family="Arial, Helvetica, sans-serif" font-size="2.2" fill="#000000" transform="rotate(-90.0,249.70,113.66)">SP1</text>
  <circle cx="248.20" cy="101.16" r="0.50" stroke="#000000" stroke-width="0.25" fill="none" />
  <circle cx="248.20" cy="96.16" r="0.50" stroke="#000000" stroke-width="0.25" fill="none" />
  <path d="M 248.80,101.09 A 2.50,2.50 0 0,0 248.84,96.24" stroke="#000000" stroke-width="0.25" fill="none" />
  <line x1="248.20" y1="95.66" x2="248.20" y2="92.16" stroke="#000000" stroke-width="0.25" fill="none" />
  <line x1="248.20" y1="105.16" x2="248.20" y2="101.66" stroke="#000000" stroke-width="0.25" fill="none" />
  <line x1="248.20" y1="92.16" x2="248.20" y2="89.16" stroke="#000000" stroke-width="0.25" fill="none" />
  <line x1="248.20" y1="105.16" x2="248.20" y2="108.16" stroke="#000000" stroke-width="0.25" fill="none" />
  <line x1="217.60" y1="98.68" x2="250.70" y2="98.68" stroke="#000000" stroke-width="0.25" fill="none" />
  <line x1="250.70" y1="98.68" x2="249.49" y2="99.27" stroke="#000000" stroke-width="0.25" fill="none" />
  <line x1="250.70" y1="98.68" x2="249.51" y2="98.07" stroke="#000000" stroke-width="0.25" fill="none" />
  <text x="248.20" y="66.40" font-family="Arial, Helvetica, sans-serif" font-size="2.8" fill="#000000" transform="rotate(-90.0,248.20,64.16)">SPARE</text>
  <text x="179.60" y="67.40" font-family="Arial, Helvetica, sans-serif" font-size="2.8" fill="#000000" transform="rotate(-90.0,179.60,65.16)">2C 1.5sqmm PVC/PVC</text>
  <text x="209.40" y="67.40" font-family="Arial, Helvetica, sans-serif" font-size="2.8" fill="#000000" transform="rotate(-90.0,209.40,65.16)">2C 4.0sqmm PVC/PVC</text>
  <text x="158.30" y="155.56" font-family="Arial, Helvetica, sans-serif" font-size="3.0" fill="#000000">63A DB</text>
  <text x="158.30" y="158.60" font-family="Arial, Helvetica, sans-serif" font-size="1.8" fill="#000000">APPROVED LOAD: 14 kVA</text>
  <line x1="276.70" y1="135.46" x2="276.70" y2="138.14" stroke="#000000" stroke-width="0.25" fill="none" />
  <line x1="272.70" y1="138.14" x2="280.70" y2="138.14" stroke="#000000" stroke-width="0.25" fill="none" />
  <line x1="274.03" y1="139.81" x2="279.37" y2="139.81" stroke="#000000" stroke-width="0.25" fill="none" />
  <line x1="275.37" y1="141.49" x2="278.03" y2="141.49" stroke="#000000" stroke-width="0.25" fill="none" />
  <text x="283.70" y="138.65" font-family="Arial, Helvetica, sans-serif" font-size="2.3" fill="#000000">E</text>
  <line x1="210.00" y1="190.96" x2="214.00" y2="190.96" stroke="#000000" stroke-width="0.25" fill="none" />
  <line x1="230.00" y1="190.96" x2="238.00" y2="190.96" stroke="#000000" stroke-width="0.25" fill="none" />
  <line x1="256.00" y1="190.96" x2="262.50" y2="190.96" stroke="#000000" stroke-width="0.25" fill="none" />
  <line x1="281.50" y1="190.96" x2="301.50" y2="190.96" stroke="#000000" stroke-width="0.25" fill="none" />
  <line x1="290.00" y1="192.46" x2="293.00" y2="189.46" stroke="#000000" stroke-width="0.25" fill="none" />
  <line x1="291.50" y1="190.96" x2="291.50" y2="200.96" stroke="#000000" stroke-width="0.25" fill="none" />
  <line x1="291.50" y1="200.96" x2="294.50" y2="200.96" stroke="#000000" stroke-width="0.25" fill="none" />
  <line x1="210.00" y1="190.96" x2="210.00" y2="165.16" stroke="#000000" stroke-width="0.25" fill="none" />
  <line x1="210.00" y1="173.16" x2="207.00" y2="173.16" stroke="#000000" stroke-width="0.25" fill="none" />
  <line x1="210.00" y1="165.16" x2="210.00" y2="151.16" stroke="#000000" stroke-width="0.25" fill="none" />
  <line x1="210.00" y1="120.16" x2="210.00" y2="117.16" stroke="#000000" stroke-width="0.25" fill="none" />
  <line x1="176.90" y1="117.16" x2="176.90" y2="105.16" stroke="#000000" stroke-width="0.25" fill="none" />
  <line x1="176.90" y1="89.16" x2="176.90" y2="66.16" stroke="#000000" stroke-width="0.25" fill="none" />
  <line x1="210.00" y1="117.16" x2="210.00" y2="105.16" stroke="#000000" stroke-width="0.25" fill="none" />
  <line x1="210.00" y1="89.16" x2="210.00" y2="66.16" stroke="#000000" stroke-width="0.25" fill="none" />
  <line x1="248.20" y1="117.16" x2="248.20" y2="105.16" stroke="#000000" stroke-width="0.25" fill="none" />
  <line x1="248.20" y1="89.16" x2="248.20" y2="66.16" stroke="#000000" stroke-width="0.25" fill="none" />
  <line x1="182.60" y1="71.16" x2="176.90" y2="71.16" stroke="#000000" stroke-width="0.25" fill="none" />
  <line x1="182.60" y1="71.16" x2="182.60" y2="66.16" stroke="#000000" stroke-width="0.25" fill="none" />
  <line x1="215.10" y1="71.16" x2="209.40" y2="71.16" stroke="#000000" stroke-width="0.25" fill="none" />
  <line x1="209.40" y1="71.16" x2="209.40" y2="66.16" stroke="#000000" stroke-width="0.25" fill="none" />
  <line x1="267.70" y1="135.46" x2="276.70" y2="135.46" stroke="#000000" stroke-width="0.25" fill="none" />
  <line x1="208.75" y1="174.41" x2="211.25" y2="171.91" stroke="#000000" stroke-width="0.50" fill="none" />
  <line x1="175.65" y1="72.41" x2="178.15" y2="69.91" stroke="#000000" stroke-width="0.50" fill="none" />
  <line x1="213.85" y1="72.41" x2="216.35" y2="69.91" stroke="#000000" stroke-width="0.50" fill="none" />
  <line x1="213.00" y1="206.74" x2="221.00" y2="206.74" stroke="#000000" stroke-width="0.25" fill="none" />
  <line x1="223.00" y1="206.74" x2="224.50" y2="206.74" stroke="#000000" stroke-width="0.25" fill="none" />
  <line x1="226.50" y1="206.74" x2="234.50" y2="206.74" stroke="#000000" stroke-width="0.25" fill="none" />
  <line x1="236.50" y1="206.74" x2="238.00" y2="206.74" stroke="#000000" stroke-width="0.25" fill="none" />
  <line x1="240.00" y1="206.74" x2="248.00" y2="206.74" stroke="#000000" stroke-width="0.25" fill="none" />
  <line x1="250.00" y1="206.74" x2="251.50" y2="206.74" stroke="#000000" stroke-width="0.25" fill="none" />
  <line x1="253.50" y1="206.74" x2="261.50" y2="206.74" stroke="#000000" stroke-width="0.25" fill="none" />
  <line x1="263.50" y1="206.74" x2="265.00" y2="206.74" stroke="#000000" stroke-width="0.25" fill="none" />
  <line x1="267.00" y1="206.74" x2="275.00" y2="206.74" stroke="#000000" stroke-width="0.25" fill="none" />
  <line x1="277.00" y1="206.74" x2="278.50" y2="206.74" stroke="#000000" stroke-width="0.25" fill="none" />
  <line x1="280.50" y1="206.74" x2="285.50" y2="206.74" stroke="#000000" stroke-width="0.25" fill="none" />
  <line x1="213.00" y1="181.16" x2="221.00" y2="181.16" stroke="#000000" stroke-width="0.25" fill="none" />
  <line x1="223.00" y1="181.16" x2="224.50" y2="181.16" stroke="#000000" stroke-width="0.25" fill="none" />
  <line x1="226.50" y1="181.16" x2="234.50" y2="181.16" stroke="#000000" stroke-width="0.25" fill="none" />
  <line x1="236.50" y1="181.16" x2="238.00" y2="181.16" stroke="#000000" stroke-width="0.25" fill="none" />
  <line x1="240.00" y1="181.16" x2="248.00" y2="181.16" stroke="#000000" stroke-width="0.25" fill="none" />
  <line x1="250.00" y1="181.16" x2="251.50" y2="181.16" stroke="#000000" stroke-width="0.25" fill="none" />
  <line x1="253.50" y1="181.16" x2="261.50" y2="181.16" stroke="#000000" stroke-width="0.25" fill="none" />
  <line x1="263.50" y1="181.16" x2="265.00" y2="181.16" stroke="#000000" stroke-width="0.25" fill="none" />
  <line x1="267.00" y1="181.16" x2="275.00" y2="181.16" stroke="#000000" stroke-width="0.25" fill="none" />
  <line x1="277.00" y1="181.16" x2="278.50" y2="181.16" stroke="#000000" stroke-width="0.25" fill="none" />
  <line x1="280.50" y1="181.16" x2="285.50" y2="181.16" stroke="#000000" stroke-width="0.25" fill="none" />
  <line x1="213.00" y1="206.74" x2="213.00" y2="198.74" stroke="#000000" stroke-width="0.25" fill="none" />
  <line x1="213.00" y1="196.74" x2="213.00" y2="195.24" stroke="#000000" stroke-width="0.25" fill="none" />
  <line x1="213.00" y1="193.24" x2="213.00" y2="185.24" stroke="#000000" stroke-width="0.25" fill="none" />
  <line x1="213.00" y1="183.24" x2="213.00" y2="181.74" stroke="#000000" stroke-width="0.25" fill="none" />
  <line x1="285.50" y1="206.74" x2="285.50" y2="198.74" stroke="#000000" stroke-width="0.25" fill="none" />
  <line x1="285.50" y1="196.74" x2="285.50" y2="195.24" stroke="#000000" stroke-width="0.25" fill="none" />
  <line x1="285.50" y1="193.24" x2="285.50" y2="185.24" stroke="#000000" stroke-width="0.25" fill="none" />
  <line x1="285.50" y1="183.24" x2="285.50" y2="181.74" stroke="#000000" stroke-width="0.25" fill="none" />
  <line x1="152.30" y1="161.16" x2="160.30" y2="161.16" stroke="#000000" stroke-width="0.25" fill="none" />
  <line x1="162.30" y1="161.16" x2="163.80" y2="161.16" stroke="#000000" stroke-width="0.25" fill="none" />
  <line x1="165.80" y1="161.16" x2="173.80" y2="161.16" stroke="#000000" stroke-width="0.25" fill="none" />
  <line x1="175.80" y1="161.16" x2="177.30" y2="161.16" stroke="#000000" stroke-width="0.25" fill="none" />
  <line x1="179.30" y1="161.16" x2="187.30" y2="161.16" stroke="#000000" stroke-width="0.25" fill="none" />
  <line x1="189.30" y1="161.16" x2="190.80" y2="161.16" stroke="#000000" stroke-width="0.25" fill="none" />
  <line x1="192.80" y1="161.16" x2="200.80" y2="161.16" stroke="#000000" stroke-width="0.25" fill="none" />
  <line x1="202.80" y1="161.16" x2="204.30" y2="161.16" stroke="#000000" stroke-width="0.25" fill="none" />
  <line x1="206.30" y1="161.16" x2="214.30" y2="161.16" stroke="#000000" stroke-width="0.25" fill="none" />
  <line x1="216.30" y1="161.16" x2="217.80" y2="161.16" stroke="#000000" stroke-width="0.25" fill="none" />
  <line x1="219.80" y1="161.16" x2="227.80" y2="161.16" stroke="#000000" stroke-width="0.25" fill="none" />
  <line x1="229.80" y1="161.16" x2="231.30" y2="161.16" stroke="#000000" stroke-width="0.25" fill="none" />
  <line x1="233.30" y1="161.16" x2="241.30" y2="161.16" stroke="#000000" stroke-width="0.25" fill="none" />
  <line x1="243.30" y1="161.16" x2="244.80" y2="161.16" stroke="#000000" stroke-width="0.25" fill="none" />
  <line x1="246.80" y1="161.16" x2="254.80" y2="161.16" stroke="#000000" stroke-width="0.25" fill="none" />
  <line x1="256.80" y1="161.16" x2="258.30" y2="161.16" stroke="#000000" stroke-width="0.25" fill="none" />
  <line x1="260.30" y1="161.16" x2="267.70" y2="161.16" stroke="#000000" stroke-width="0.25" fill="none" />
  <line x1="152.30" y1="81.16" x2="160.30" y2="81.16" stroke="#000000" stroke-width="0.25" fill="none" />
  <line x1="162.30" y1="81.16" x2="163.80" y2="81.16" stroke="#000000" stroke-width="0.25" fill="none" />
  <line x1="165.80" y1="81.16" x2="173.80" y2="81.16" stroke="#000000" stroke-width="0.25" fill="none" />
  <line x1="175.80" y1="81.16" x2="177.30" y2="81.16" stroke="#000000" stroke-width="0.25" fill="none" />
  <line x1="179.30" y1="81.16" x2="187.30" y2="81.16" stroke="#000000" stroke-width="0.25" fill="none" />
  <line x1="189.30" y1="81.16" x2="190.80" y2="81.16" stroke="#000000" stroke-width="0.25" fill="none" />
  <line x1="192.80" y1="81.16" x2="200.80" y2="81.16" stroke="#000000" stroke-width="0.25" fill="none" />
  <line x1="202.80" y1="81.16" x2="204.30" y2="81.16" stroke="#000000" stroke-width="0.25" fill="none" />
  <line x1="206.30" y1="81.16" x2="214.30" y2="81.16" stroke="#000000" stroke-width="0.25" fill="none" />
  <line x1="216.30" y1="81.16" x2="217.80" y2="81.16" stroke="#000000" stroke-width="0.25" fill="none" />
  <line x1="219.80" y1="81.16" x2="227.80" y2="81.16" stroke="#000000" stroke-width="0.25" fill="none" />
  <line x1="229.80" y1="81.16" x2="231.30" y2="81.16" stroke="#000000" stroke-width="0.25" fill="none" />
  <line x1="233.30" y1="81.16" x2="241.30" y2="81.16" stroke="#000000" stroke-width="0.25" fill="none" />
  <line x1="243.30" y1="81.16" x2="244.80" y2="81.16" stroke="#000000" stroke-width="0.25" fill="none" />
  <line x1="246.80" y1="81.16" x2="254.80" y2="81.16" stroke="#000000" stroke-width="0.25" fill="none" />
  <line x1="256.80" y1="81.16" x2="258.30" y2="81.16" stroke="#000000" stroke-width="0.25" fill="none" />
  <line x1="260.30" y1="81.16" x2="267.70" y2="81.16" stroke="#000000" stroke-width="0.25" fill="none" />
  <line x1="152.30" y1="161.16" x2="152.30" y2="153.16" stroke="#000000" stroke-width="0.25" fill="none" />
  <line x1="152.30" y1="151.16" x2="152.30" y2="149.66" stroke="#000000" stroke-width="0.25" fill="none" />
  <line x1="152.30" y1="147.66" x2="152.30" y2="139.66" stroke="#000000" stroke-width="0.25" fill="none" />
  <line x1="152.30" y1="137.66" x2="152.30" y2="136.16" stroke="#000000" stroke-width="0.25" fill="none" />
  <line x1="152.30" y1="134.16" x2="152.30" y2="126.16" stroke="#000000" stroke-width="0.25" fill="none" />
  <line x1="152.30" y1="124.16" x2="152.30" y2="122.66" stroke="#000000" stroke-width="0.25" fill="none" />
  <line x1="152.30" y1="120.66" x2="152.30" y2="112.66" stroke="#000000" stroke-width="0.25" fill="none" />
  <line x1="152.30" y1="110.66" x2="152.30" y2="109.16" stroke="#000000" stroke-width="0.25" fill="none" />
  <line x1="152.30" y1="107.16" x2="152.30" y2="99.16" stroke="#000000" stroke-width="0.25" fill="none" />
  <line x1="152.30" y1="97.16" x2="152.30" y2="95.66" stroke="#000000" stroke-width="0.25" fill="none" />
  <line x1="152.30" y1="93.66" x2="152.30" y2="85.66" stroke="#000000" stroke-width="0.25" fill="none" />
  <line x1="152.30" y1="83.66" x2="152.30" y2="82.16" stroke="#000000" stroke-width="0.25" fill="none" />
  <line x1="267.70" y1="161.16" x2="267.70" y2="153.16" stroke="#000000" stroke-width="0.25" fill="none" />
  <line x1="267.70" y1="151.16" x2="267.70" y2="149.66" stroke="#000000" stroke-width="0.25" fill="none" />
  <line x1="267.70" y1="147.66" x2="267.70" y2="139.66" stroke="#000000" stroke-width="0.25" fill="none" />
  <line x1="267.70" y1="137.66" x2="267.70" y2="136.16" stroke="#000000" stroke-width="0.25" fill="none" />
  <line x1="267.70" y1="134.16" x2="267.70" y2="126.16" stroke="#000000" stroke-width="0.25" fill="none" />
  <line x1="267.70" y1="124.16" x2="267.70" y2="122.66" stroke="#000000" stroke-width="0.25" fill="none" />
  <line x1="267.70" y1="120.66" x2="267.70" y2="112.66" stroke="#000000" stroke-width="0.25" fill="none" />
  <line x1="267.70" y1="110.66" x2="267.70" y2="109.16" stroke="#000000" stroke-width="0.25" fill="none" />
  <line x1="267.70" y1="107.16" x2="267.70" y2="99.16" stroke="#000000" stroke-width="0.25" fill="none" />
  <line x1="267.70" y1="97.16" x2="267.70" y2="95.66" stroke="#000000" stroke-width="0.25" fill="none" />
  <line x1="267.70" y1="93.66" x2="267.70" y2="85.66" stroke="#000000" stroke-width="0.25" fill="none" />
  <line x1="267.70" y1="83.66" x2="267.70" y2="82.16" stroke="#000000" stroke-width="0.25" fill="none" />
  <circle cx="176.90" cy="117.16" r="0.80" fill="rgb(0,0,0)" stroke="none" />
  <circle cx="215.10" cy="117.16" r="0.80" fill="rgb(0,0,0)" stroke="none" />
  <circle cx="248.20" cy="117.16" r="0.80" fill="rgb(0,0,0)" stroke="none" />
  <circle cx="267.70" cy="135.46" r="0.80" fill="rgb(0,0,0)" stroke="none" />
  <text x="13.00" y="264.40" font-family="Arial, Helvetica, sans-serif" font-size="3.0" fill="#000000">Electrical Installation</text>
  <text x="153.00" y="264.40" font-family="Arial, Helvetica, sans-serif" font-size="3.0" fill="#000000">LicenseKaki</text>
  <text x="225.00" y="263.80" font-family="Arial, Helvetica, sans-serif" font-size="3.5" fill="#000000"><tspan x="225.00">SINGLE LINE DIAGRAM</tspan><tspan x="225.00" dy="4.9">(SLD)</tspan></text>
  <text x="389.00" y="266.00" font-family="Arial, Helvetica, sans-serif" font-size="2.5" fill="#000000">DATE</text>
  <text x="365.00" y="278.00" font-family="Arial, Helvetica, sans-serif" font-size="2.5" fill="#000000"></text>
  <text x="394.00" y="278.80" font-family="Arial, Helvetica, sans-serif" font-size="3.5" fill="#000000">0</text>
  <text x="365.00" y="286.28" font-family="Arial, Helvetica, sans-serif" font-size="1.6" fill="#000000">SCALE : NTS</text>
  <text x="389.00" y="286.28" font-family="Arial, Helvetica, sans-serif" font-size="1.6" fill="#000000">SHEET : 1 OF 1</text>
</svg>