<svg xmlns="http://www.w3.org/2000/svg" viewBox="0 0 420.0 297.0" width="420.0mm" height="297.0mm">
  <rect width="420.0" height="297.0" fill="white" />
  <polygon points="10.00,287.00 410.00,287.00 410.00,10.00 10.00,10.00" stroke="#000000" stroke-width="0.25" fill="none" />
  <polygon points="10.00,287.00 410.00,287.00 410.00,255.00 10.00,255.00" stroke="#000000" stroke-width="0.25" fill="none" />
  <line x1="90.00" y1="255.00" x2="90.00" y2="287.00" stroke="#000000" stroke-width="0.25" fill="none" />
  <line x1="150.00" y1="255.00" x2="150.00" y2="287.00" stroke="#000000" stroke-width="0.25" fill="none" />
  <line x1="222.00" y1="255.00" x2="222.00" y2="287.00" stroke="#000000" stroke-width="0.25" fill="none" />
  <line x1="290.00" y1="255.00" x2="290.00" y2="287.00" stroke="#000000" stroke-width="0.25" fill="none" />
  <line x1="362.00" y1="255.00" x2="362.00" y2="287.00" stroke="#000000" stroke-width="0.25" fill="none" />
  <line x1="362.00" y1="270.00" x2="410.00" y2="270.00" stroke="#000000" stroke-width="0.25" fill="none" />
  <line x1="386.00" y1="255.00" x2="386.00" y2="287.00" stroke="#000000" stroke-width="0.25" fill="none" />
  <text x="12.00" y="258.94" font-family="Arial, Helvetica, sans-serif" font-size="1.8" fill="#000000">CLIENT / ADDRESS :</text>
  <text x="92.00" y="258.94" font-family="Arial, Helvetica, sans-serif" font-size="1.8" fill="#000000">MAIN CONTRACTOR :</text>
  <text x="152.00" y="258.94" font-family="Arial, Helvetica, sans-serif" font-size="1.8" fill="#000000">ELECTRICAL CONTRACTOR :</text>
  <text x="224.00" y="258.94" font-family="Arial, Helvetica, sans-serif" font-size="1.8" fill="#000000">DRAWING TITLE :</text>
  <text x="292.00" y="258.94" font-family="Arial, Helvetica, sans-serif" font-size="1.8" fill="#000000">LEW :</text>
  <text x="364.00" y="258.94" font-family="Arial, Helvetica, sans-serif" font-size="1.8" fill="#000000">CHECKED :</text>
  <text x="388.00" y="258.94" font-family="Arial, Helvetica, sans-serif" font-size="1.8" fill="#000000">DATE :</text>
  <text x="364.00" y="273.94" font-family="Arial, Helvetica, sans-serif" font-size="1.8" fill="#000000">DRAWING NO. :</text>
  <text x="388.00" y="273.94" font-family="Arial, Helvetica, sans-serif" font-size="1.8" fill="#000000">REV :</text>
  <circle cx="222.30" cy="196.92" r="0.70" stroke="#000000" stroke-width="0.25" fill="none" />
  <circle cx="216.70" cy="196.92" r="0.70" stroke="#000000" stroke-width="0.25" fill="none" />
  <polyline points="217.36,196.69 222.21,194.95" stroke="#000000" stroke-width="0.25" fill="none" />
  <text x="215.18" y="201.91" font-family="Arial, Helvetica, sans-serif" font-size="1.8" fill="#000000"><tspan x="215.18">63A DP</tspan><tspan x="215.18" dy="2.5">ISOLATOR</tspan></text>
  <polygon points="238.50,193.93 250.50,193.93 250.50,199.92 238.50,199.92" stroke="#000000" stroke-width="0.25" fill="none" />
  <text x="240.84" y="199.84" font-family="Arial, Helvetica, sans-serif" font-size="2.2" fill="#000000">KWH</text>
  <text x="232.55" y="189.06" font-family="Arial, Helvetica, sans-serif" font-size="2.8" fill="#000000">KWH METER</text>
  <text x="238.74" y="192.36" font-family="Arial, Helvetica, sans-serif" font-size="2.8" fill="#000000">BY SP</text>
  <path d="M 272.84,196.07 A 3.75,3.75 0 0,0 266.16,196.07" stroke="#000000" stroke-width="0.25" fill="none" />
  <circle cx="266.16" cy="197.12" r="0.66" stroke="#000000" stroke-width="0.25" fill="none" />
  <circle cx="272.84" cy="197.11" r="0.66" stroke="#000000" stroke-width="0.25" fill="none" />
  <line x1="265.50" y1="196.92" x2="263.50" y2="196.92" stroke="#000000" stroke-width="0.25" fill="none" />
  <line x1="273.50" y1="196.92" x2="275.50" y2="196.92" stroke="#000000" stroke-width="0.25" fill="none" />
  <text x="263.56" y="201.66" font-family="Arial, Helvetica, sans-serif" font-size="1.8" fill="#000000"><tspan x="263.56">63A DP MCB</tspan><tspan x="263.56" dy="2.5">TYPE B 10kA</tspan></text>
  <text x="302.94" y="196.16" font-family="Arial, Helvetica, sans-serif" font-size="2.8" fill="#000000">INCOMING FROM HDB ELECTRICAL RISER</text>
  <text x="293.94" y="207.76" font-family="Arial, Helvetica, sans-serif" font-size="2.8" fill="#000000"><tspan x="293.94">2 x 1C 16sqmm XLPE/PVC +</tspan><tspan x="293.94" dy="3.9">16sqmm PVC CPC</tspan></text>
  <text x="213.00" y="210.14" font-family="Arial, Helvetica, sans-serif" font-size="2.8" fill="#000000">METER BOARD</text>
  <path d="M 210.85,154.66 A 3.75,3.75 0 0,0 210.85,147.99" stroke="#000000" stroke-width="0.25" fill="none" />
  <circle cx="209.81" cy="147.99" r="0.66" stroke="#000000" stroke-width="0.25" fill="none" />
  <circle cx="209.82" cy="154.66" r="0.66" stroke="#000000" stroke-width="0.25" fill="none" />
  <line x1="210.00" y1="155.32" x2="210.00" y2="157.32" stroke="#000000" stroke-width="0.25" fill="none" />
  <line x1="210.00" y1="147.32" x2="210.00" y2="145.32" stroke="#000000" stroke-width="0.25" fill="none" />
  <text x="213.85" y="150.76" font-family="Arial, Helvetica, sans-serif" font-size="1.8" fill="#000000">63A DP MCB (10KA)</text>
  <line x1="137.00" y1="140.32" x2="283.00" y2="140.32" stroke="#000000" stroke-width="0.50" fill="none" />
  <text x="168.30" y="145.56" font-family="Arial, Helvetica, sans-serif" font-size="2.8" fill="#000000">100A BUSBAR</text>
  <text x="180.30" y="136.58" font-family="Arial, Helvetica, sans-serif" font-size="2.2" fill="#000000" transform="rotate(-90.0,180.30,135.70)">S1</text>
  <path d="M 179.65,127.66 A 3.75,3.75 0 0,0 179.65,120.99" stroke="#000000" stroke-width="0.25" fill="none" />
  <circle cx="178.61" cy="120.99" r="0.66" stroke="#000000" stroke-width="0.25" fill="none" />
  <circle cx="178.62" cy="127.66" r="0.66" stroke="#000000" stroke-width="0.25" fill="none" />
  <line x1="178.80" y1="128.32" x2="178.80" y2="130.32" stroke="#000000" stroke-width="0.25" fill="none" />
  <line x1="178.80" y1="120.32" x2="178.80" y2="118.32" stroke="#000000" stroke-width="0.25" fill="none" />
  <line x1="175.69" y1="124.32" x2="181.69" y2="124.32" stroke="#000000" stroke-width="0.25" fill="none" />
  <line x1="181.69" y1="124.32" x2="180.49" y2="123.72" stroke="#000000" stroke-width="0.25" fill="none" />
  <line x1="181.69" y1="124.32" x2="180.49" y2="124.92" stroke="#000000" stroke-width="0.25" fill="none" />
  <text x="170.30" y="122.92" font-family="Arial, Helvetica, sans-serif" font-size="2.0" fill="#000000"><tspan x="170.30">B10A</tspan><tspan x="170.30" dy="2.8">SPN</tspan><tspan x="170.30" dy="2.8">MCB</tspan><tspan x="170.30" dy="2.8">6kA</tspan></text>
  <text x="178.80" y="95.56" font-family="Arial, Helvetica, sans-serif" font-size="2.8" fill="#000000" transform="rotate(-90.0,178.80,94.44)">1 NO. LIGHTS</text>
  <text x="215.50" y="136.58" font-family="Arial, Helvetica, sans-serif" font-size="2.2" fill="#000000" transform="rotate(-90.0,215.50,135.70)">P1</text>
  <path d="M 214.85,127.66 A 3.75,3.75 0 0,0 214.85,120.99" stroke="#000000" stroke-width="0.25" fill="none" />
  <circle cx="213.81" cy="120.99" r="0.66" stroke="#000000" stroke-width="0.25" fill="none" />
  <circle cx="213.82" cy="127.66" r="0.66" stroke="#000000" stroke-width="0.25" fill="none" />
  <line x1="214.00" y1="128.32" x2="214.00" y2="130.32" stroke="#000000" stroke-width="0.25" fill="none" />
  <line x1="214.00" y1="120.32" x2="214.00" y2="118.32" stroke="#000000" stroke-width="0.25" fill="none" />
  <line x1="210.89" y1="124.32" x2="216.89" y2="124.32" stroke="#000000" stroke-width="0.25" fill="none" />
  <line x1="216.89" y1="124.32" x2="215.69" y2="123.72" stroke="#000000" stroke-width="0.25" fill="none" />
  <line x1="216.89" y1="124.32" x2="215.69" y2="124.92" stroke="#000000" stroke-width="0.25" fill="none" />
  <text x="205.50" y="122.92" font-family="Arial, Helvetica, sans-serif" font-size="2.0" fill="#000000"><tspan x="205.50">B20A</tspan><tspan x="205.50" dy="2.8">SPN</tspan><tspan x="205.50" dy="2.8">MCB</tspan><tspan x="205.50" dy="2.8">6kA</tspan></text>
  <text x="214.00" y="95.56" font-family="Arial, Helvetica, sans-serif" font-size="2.8" fill="#000000" transform="rotate(-90.0,214.00,94.44)">1 NO. 13A S/S/O</text>
  <text x="246.70" y="136.58" font-family="Arial, Helvetica, sans-serif" font-size="2.2" fill="#000000" transform="rotate(-90.0,246.70,135.70)">SP1</text>
  <path d="M 246.05,127.66 A 3.75,3.75 0 0,0 246.05,120.99" stroke="#000000" stroke-width="0.25" fill="none" />
  <circle cx="245.01" cy="120.99" r="0.66" stroke="#000000" stroke-width="0.25" fill="none" />
  <circle cx="245.02" cy="127.66" r="0.66" stroke="#000000" stroke-width="0.25" fill="none" />
  <line x1="245.20" y1="128.32" x2="245.20" y2="130.32" stroke="#000000" stroke-width="0.25" fill="none" />
  <line x1="245.20" y1="120.32" x2="245.20" y2="118.32" stroke="#000000" stroke-width="0.25" fill="none" />
  <line x1="216.89" y1="124.32" x2="248.09" y2="124.32" stroke="#000000" stroke-width="0.25" fill="none" />
  <line x1="248.09" y1="124.32" x2="246.89" y2="123.72" stroke="#000000" stroke-width="0.25" fill="none" />
  <line x1="248.09" y1="124.32" x2="246.89" y2="124.92" stroke="#000000" stroke-width="0.25" fill="none" />
  <text x="245.20" y="95.56" font-family="Arial, Helvetica, sans-serif" font-size="2.8" fill="#000000" transform="rotate(-90.0,245.20,94.44)">SPARE</text>
  <text x="167.40" y="95.56" font-family="Arial, Helvetica, sans-serif" font-size="2.8" fill="#000000" transform="rotate(-90.0,167.40,94.44)">2C 1.5sqmm PVC + 1.5sqmm</text>
  <text x="171.32" y="95.56" font-family="Arial, Helvetica, sans-serif" font-size="2.8" fill="#000000" transform="rotate(-90.0,171.32,94.44)">PVC CPC IN METAL TRUNKING</text>
  <text x="222.60" y="95.56" font-family="Arial, Helvetica, sans-serif" font-size="2.8" fill="#000000" transform="rotate(-90.0,222.60,94.44)">2C 2.5sqmm PVC + 2.5sqmm</text>
  <text x="226.52" y="95.56" font-family="Arial, Helvetica, sans-serif" font-size="2.8" fill="#000000" transform="rotate(-90.0,226.52,94.44)">PVC CPC IN METAL TRUNKING</text>
  <text x="161.30" y="159.72" font-family="Arial, Helvetica, sans-serif" font-size="3.0" fill="#000000">63A DB</text>
  <text x="161.30" y="162.76" font-family="Arial, Helvetica, sans-serif" font-size="1.8" fill="#000000">APPROVED LOAD: 14 KVA AT 230V</text>
  <line x1="259.23" y1="168.32" x2="259.23" y2="170.12" stroke="#000000" stroke-width="0.25" fill="none" />
  <line x1="256.98" y1="170.12" x2="261.48" y2="170.12" stroke="#000000" stroke-width="0.25" fill="none" />
  <line x1="257.73" y1="171.25" x2="260.73" y2="171.25" stroke="#000000" stroke-width="0.25" fill="none" />
  <line x1="258.48" y1="172.37" x2="259.98" y2="172.37" stroke="#000000" stroke-width="0.25" fill="none" />
  <text x="264.48" y="169.85" font-family="Arial, Helvetica, sans-serif" font-size="1.6" fill="#000000">E</text>
  <text x="135.02" y="178.16" font-family="Arial, Helvetica, sans-serif" font-size="2.8" fill="#000000"><tspan x="135.02">2 x 1C 16sqmm XLPE/PVC +</tspan><tspan x="135.02" dy="3.9">16sqmm PVC CPC</tspan></text>
  <line x1="210.00" y1="196.92" x2="216.00" y2="196.92" stroke="#000000" stroke-width="0.25" fill="none" />
  <line x1="223.00" y1="196.92" x2="238.50" y2="196.92" stroke="#000000" stroke-width="0.25" fill="none" />
  <line x1="250.50" y1="196.92" x2="265.50" y2="196.92" stroke="#000000" stroke-width="0.25" fill="none" />
  <line x1="273.50" y1="196.92" x2="299.94" y2="196.92" stroke="#000000" stroke-width="0.25" fill="none" />
  <line x1="289.94" y1="196.92" x2="289.94" y2="206.92" stroke="#000000" stroke-width="0.25" fill="none" />
  <line x1="210.00" y1="196.92" x2="210.00" y2="169.32" stroke="#000000" stroke-width="0.25" fill="none" />
  <line x1="210.00" y1="169.32" x2="210.00" y2="155.32" stroke="#000000" stroke-width="0.25" fill="none" />
  <line x1="210.00" y1="157.32" x2="210.00" y2="155.32" stroke="#000000" stroke-width="0.25" fill="none" />
  <line x1="210.00" y1="147.32" x2="210.00" y2="145.32" stroke="#000000" stroke-width="0.25" fill="none" />
  <line x1="210.00" y1="145.32" x2="210.00" y2="140.32" stroke="#000000" stroke-width="0.25" fill="none" />
  <line x1="178.80" y1="140.32" x2="178.80" y2="128.32" stroke="#000000" stroke-width="0.25" fill="none" />
  <line x1="178.80" y1="120.32" x2="178.80" y2="118.32" stroke="#000000" stroke-width="0.25" fill="none" />
  <line x1="178.80" y1="118.32" x2="178.80" y2="95.32" stroke="#000000" stroke-width="0.25" fill="none" />
  <line x1="210.00" y1="140.32" x2="210.00" y2="128.32" stroke="#000000" stroke-width="0.25" fill="none" />
  <line x1="210.00" y1="120.32" x2="210.00" y2="118.32" stroke="#000000" stroke-width="0.25" fill="none" />
  <line x1="210.00" y1="118.32" x2="210.00" y2="95.32" stroke="#000000" stroke-width="0.25" fill="none" />
  <line x1="245.20" y1="140.32" x2="245.20" y2="128.32" stroke="#000000" stroke-width="0.25" fill="none" />
  <line x1="245.20" y1="120.32" x2="245.20" y2="118.32" stroke="#000000" stroke-width="0.25" fill="none" />
  <line x1="245.20" y1="118.32" x2="245.20" y2="95.32" stroke="#000000" stroke-width="0.25" fill="none" />
  <line x1="168.80" y1="100.32" x2="168.80" y2="95.32" stroke="#000000" stroke-width="0.25" fill="none" />
  <line x1="224.00" y1="100.32" x2="224.00" y2="95.32" stroke="#000000" stroke-width="0.25" fill="none" />
  <line x1="259.23" y1="165.32" x2="259.23" y2="168.32" stroke="#000000" stroke-width="0.25" fill="none" />
  <line x1="288.44" y1="198.42" x2="291.44" y2="195.42" stroke="#000000" stroke-width="0.50" fill="none" />
  <line x1="208.75" y1="178.57" x2="211.25" y2="176.07" stroke="#000000" stroke-width="0.50" fill="none" />
  <line x1="177.55" y1="101.57" x2="180.05" y2="99.07" stroke="#000000" stroke-width="0.50" fill="none" />
  <line x1="212.75" y1="101.57" x2="215.25" y2="99.07" stroke="#000000" stroke-width="0.50" fill="none" />
  <line x1="289.94" y1="206.92" x2="292.94" y2="206.92" stroke="#000000" stroke-width="0.25" fill="none" />
  <line x1="210.00" y1="177.32" x2="198.00" y2="177.32" stroke="#000000" stroke-width="0.25" fill="none" />
  <line x1="168.80" y1="100.32" x2="178.80" y2="100.32" stroke="#000000" stroke-width="0.25" fill="none" />
  <line x1="214.00" y1="100.32" x2="224.00" y2="100.32" stroke="#000000" stroke-width="0.25" fill="none" />
  <line x1="212.00" y1="211.70" x2="220.00" y2="211.70" stroke="#808080" stroke-width="0.25" fill="none" />
  <line x1="222.00" y1="211.70" x2="223.50" y2="211.70" stroke="#808080" stroke-width="0.25" fill="none" />
  <line x1="225.50" y1="211.70" x2="233.50" y2="211.70" stroke="#808080" stroke-width="0.25" fill="none" />
  <line x1="235.50" y1="211.70" x2="237.00" y2="211.70" stroke="#808080" stroke-width="0.25" fill="none" />
  <line x1="239.00" y1="211.70" x2="247.00" y2="211.70" stroke="#808080" stroke-width="0.25" fill="none" />
  <line x1="249.00" y1="211.70" x2="250.50" y2="211.70" stroke="#808080" stroke-width="0.25" fill="none" />
  <line x1="252.50" y1="211.70" x2="260.50" y2="211.70" stroke="#808080" stroke-width="0.25" fill="none" />
  <line x1="262.50" y1="211.70" x2="264.00" y2="211.70" stroke="#808080" stroke-width="0.25" fill="none" />
  <line x1="266.00" y1="211.70" x2="274.00" y2="211.70" stroke="#808080" stroke-width="0.25" fill="none" />
  <line x1="276.00" y1="211.70" x2="277.50" y2="211.70" stroke="#808080" stroke-width="0.25" fill="none" />
  <line x1="279.50" y1="211.70" x2="284.94" y2="211.70" stroke="#808080" stroke-width="0.25" fill="none" />
  <line x1="212.00" y1="185.32" x2="220.00" y2="185.32" stroke="#808080" stroke-width="0.25" fill="none" />
  <line x1="222.00" y1="185.32" x2="223.50" y2="185.32" stroke="#808080" stroke-width="0.25" fill="none" />
  <line x1="225.50" y1="185.32" x2="233.50" y2="185.32" stroke="#808080" stroke-width="0.25" fill="none" />
  <line x1="235.50" y1="185.32" x2="237.00" y2="185.32" stroke="#808080" stroke-width="0.25" fill="none" />
  <line x1="239.00" y1="185.32" x2="247.00" y2="185.32" stroke="#808080" stroke-width="0.25" fill="none" />
  <line x1="249.00" y1="185.32" x2="250.50" y2="185.32" stroke="#808080" stroke-width="0.25" fill="none" />
  <line x1="252.50" y1="185.32" x2="260.50" y2="185.32" stroke="#808080" stroke-width="0.25" fill="none" />
  <line x1="262.50" y1="185.32" x2="264.00" y2="185.32" stroke="#808080" stroke-width="0.25" fill="none" />
  <line x1="266.00" y1="185.32" x2="274.00" y2="185.32" stroke="#808080" stroke-width="0.25" fill="none" />
  <line x1="276.00" y1="185.32" x2="277.50" y2="185.32" stroke="#808080" stroke-width="0.25" fill="none" />
  <line x1="279.50" y1="185.32" x2="284.94" y2="185.32" stroke="#808080" stroke-width="0.25" fill="none" />
  <line x1="212.00" y1="211.70" x2="212.00" y2="203.70" stroke="#808080" stroke-width="0.25" fill="none" />
  <line x1="212.00" y1="201.70" x2="212.00" y2="200.20" stroke="#808080" stroke-width="0.25" fill="none" />
  <line x1="212.00" y1="198.20" x2="212.00" y2="190.20" stroke="#808080" stroke-width="0.25" fill="none" />
  <line x1="212.00" y1="188.20" x2="212.00" y2="186.70" stroke="#808080" stroke-width="0.25" fill="none" />
  <line x1="284.94" y1="211.70" x2="284.94" y2="203.70" stroke="#808080" stroke-width="0.25" fill="none" />
  <line x1="284.94" y1="201.70" x2="284.94" y2="200.20" stroke="#808080" stroke-width="0.25" fill="none" />
  <line x1="284.94" y1="198.20" x2="284.94" y2="190.20" stroke="#808080" stroke-width="0.25" fill="none" />
  <line x1="284.94" y1="188.20" x2="284.94" y2="186.70" stroke="#808080" stroke-width="0.25" fill="none" />
  <line x1="155.30" y1="165.32" x2="163.30" y2="165.32" stroke="#808080" stroke-width="0.25" fill="none" />
  <line x1="165.30" y1="165.32" x2="166.80" y2="165.32" stroke="#808080" stroke-width="0.25" fill="none" />
  <line x1="168.80" y1="165.32" x2="176.80" y2="165.32" stroke="#808080" stroke-width="0.25" fill="none" />
  <line x1="178.80" y1="165.32" x2="180.30" y2="165.32" stroke="#808080" stroke-width="0.25" fill="none" />
  <line x1="182.30" y1="165.32" x2="190.30" y2="165.32" stroke="#808080" stroke-width="0.25" fill="none" />
  <line x1="192.30" y1="165.32" x2="193.80" y2="165.32" stroke="#808080" stroke-width="0.25" fill="none" />
  <line x1="195.80" y1="165.32" x2="203.80" y2="165.32" stroke="#808080" stroke-width="0.25" fill="none" />
  <line x1="205.80" y1="165.32" x2="207.30" y2="165.32" stroke="#808080" stroke-width="0.25" fill="none" />
  <line x1="209.30" y1="165.32" x2="217.30" y2="165.32" stroke="#808080" stroke-width="0.25" fill="none" />
  <line x1="219.30" y1="165.32" x2="220.80" y2="165.32" stroke="#808080" stroke-width="0.25" fill="none" />
  <line x1="222.80" y1="165.32" x2="230.80" y2="165.32" stroke="#808080" stroke-width="0.25" fill="none" />
  <line x1="232.80" y1="165.32" x2="234.30" y2="165.32" stroke="#808080" stroke-width="0.25" fill="none" />
  <line x1="236.30" y1="165.32" x2="244.30" y2="165.32" stroke="#808080" stroke-width="0.25" fill="none" />
  <line x1="246.30" y1="165.32" x2="247.80" y2="165.32" stroke="#808080" stroke-width="0.25" fill="none" />
  <line x1="249.80" y1="165.32" x2="257.80" y2="165.32" stroke="#808080" stroke-width="0.25" fill="none" />
  <line x1="259.80" y1="165.32" x2="261.30" y2="165.32" stroke="#808080" stroke-width="0.25" fill="none" />
  <line x1="263.30" y1="165.32" x2="264.70" y2="165.32" stroke="#808080" stroke-width="0.25" fill="none" />
  <line x1="155.30" y1="110.32" x2="163.30" y2="110.32" stroke="#808080" stroke-width="0.25" fill="none" />
  <line x1="165.30" y1="110.32" x2="166.80" y2="110.32" stroke="#808080" stroke-width="0.25" fill="none" />
  <line x1="168.80" y1="110.32" x2="176.80" y2="110.32" stroke="#808080" stroke-width="0.25" fill="none" />
  <line x1="178.80" y1="110.32" x2="180.30" y2="110.32" stroke="#808080" stroke-width="0.25" fill="none" />
  <line x1="182.30" y1="110.32" x2="190.30" y2="110.32" stroke="#808080" stroke-width="0.25" fill="none" />
  <line x1="192.30" y1="110.32" x2="193.80" y2="110.32" stroke="#808080" stroke-width="0.25" fill="none" />
  <line x1="195.80" y1="110.32" x2="203.80" y2="110.32" stroke="#808080" stroke-width="0.25" fill="none" />
  <line x1="205.80" y1="110.32" x2="207.30" y2="110.32" stroke="#808080" stroke-width="0.25" fill="none" />
  <line x1="209.30" y1="110.32" x2="217.30" y2="110.32" stroke="#808080" stroke-width="0.25" fill="none" />
  <line x1="219.30" y1="110.32" x2="220.80" y2="110.32" stroke="#808080" stroke-width="0.25" fill="none" />
  <line x1="222.80" y1="110.32" x2="230.80" y2="110.32" stroke="#808080" stroke-width="0.25" fill="none" />
  <line x1="232.80" y1="110.32" x2="234.30" y2="110.32" stroke="#808080" stroke-width="0.25" fill="none" />
  <line x1="236.30" y1="110.32" x2="244.30" y2="110.32" stroke="#808080" stroke-width="0.25" fill="none" />
  <line x1="246.30" y1="110.32" x2="247.80" y2="110.32" stroke="#808080" stroke-width="0.25" fill="none" />
  <line x1="249.80" y1="110.32" x2="257.80" y2="110.32" stroke="#808080" stroke-width="0.25" fill="none" />
  <line x1="259.80" y1="110.32" x2="261.30" y2="110.32" stroke="#808080" stroke-width="0.25" fill="none" />
  <line x1="263.30" y1="110.32" x2="264.70" y2="110.32" stroke="#808080" stroke-width="0.25" fill="none" />
  <line x1="155.30" y1="165.32" x2="155.30" y2="157.32" stroke="#808080" stroke-width="0.25" fill="none" />
  <line x1="155.30" y1="155.32" x2="155.30" y2="153.82" stroke="#808080" stroke-width="0.25" fill="none" />
  <line x1="155.30" y1="151.82" x2="155.30" y2="143.82" stroke="#808080" stroke-width="0.25" fill="none" />
  <line x1="155.30" y1="141.82" x2="155.30" y2="140.32" stroke="#808080" stroke-width="0.25" fill="none" />
  <line x1="155.30" y1="138.32" x2="155.30" y2="130.32" stroke="#808080" stroke-width="0.25" fill="none" />
  <line x1="155.30" y1="128.32" x2="155.30" y2="126.82" stroke="#808080" stroke-width="0.25" fill="none" />
  <line x1="155.30" y1="124.82" x2="155.30" y2="116.82" stroke="#808080" stroke-width="0.25" fill="none" />
  <line x1="155.30" y1="114.82" x2="155.30" y2="113.32" stroke="#808080" stroke-width="0.25" fill="none" />
  <line x1="155.30" y1="111.32" x2="155.30" y2="110.32" stroke="#808080" stroke-width="0.25" fill="none" />
  <line x1="264.70" y1="165.32" x2="264.70" y2="157.32" stroke="#808080" stroke-width="0.25" fill="none" />
  <line x1="264.70" y1="155.32" x2="264.70" y2="153.82" stroke="#808080" stroke-width="0.25" fill="none" />
  <line x1="264.70" y1="151.82" x2="264.70" y2="143.82" stroke="#808080" stroke-width="0.25" fill="none" />
  <line x1="264.70" y1="141.82" x2="264.70" y2="140.32" stroke="#808080" stroke-width="0.25" fill="none" />
  <line x1="264.70" y1="138.32" x2="264.70" y2="130.32" stroke="#808080" stroke-width="0.25" fill="none" />
  <line x1="264.70" y1="128.32" x2="264.70" y2="126.82" stroke="#808080" stroke-width="0.25" fill="none" />
  <line x1="264.70" y1="124.82" x2="264.70" y2="116.82" stroke="#808080" stroke-width="0.25" fill="none" />
  <line x1="264.70" y1="114.82" x2="264.70" y2="113.32" stroke="#808080" stroke-width="0.25" fill="none" />
  <line x1="264.70" y1="111.32" x2="264.70" y2="110.32" stroke="#808080" stroke-width="0.25" fill="none" />
  <circle cx="178.80" cy="140.32" r="0.50" fill="rgb(0,0,0)" stroke="none" />
  <circle cx="214.00" cy="140.32" r="0.50" fill="rgb(0,0,0)" stroke="none" />
  <circle cx="245.20" cy="140.32" r="0.50" fill="rgb(0,0,0)" stroke="none" />
  <circle cx="259.23" cy="165.32" r="0.50" fill="rgb(0,0,0)" stroke="none" />
  <text x="13.00" y="264.40" font-family="Arial, Helvetica, sans-serif" font-size="3.0" fill="#000000">Electrical Installation</text>
  <text x="153.00" y="264.40" font-family="Arial, Helvetica, sans-serif" font-size="3.0" fill="#000000">LicenseKaki</text>
  <text x="225.00" y="263.80" font-family="Arial, Helvetica, sans-serif" font-size="3.5" fill="#000000"><tspan x="225.00">SINGLE LINE DIAGRAM</tspan><tspan x="225.00" dy="4.9">(SLD)</tspan></text>
  <text x="389.00" y="266.00" font-family="Arial, Helvetica, sans-serif" font-size="2.5" fill="#000000">DATE</text>
  <text x="365.00" y="278.00" font-family="Arial, Helvetica, sans-serif" font-size="2.5" fill="#000000"></text>
  <text x="394.00" y="278.80" font-family="Arial, Helvetica, sans-serif" font-size="3.5" fill="#000000">0</text>
  <text x="365.00" y="286.28" font-family="Arial, Helvetica, sans-serif" font-size="1.6" fill="#000000">SCALE : NTS</text>
  <text x="389.00" y="286.28" font-family="Arial, Helvetica, sans-serif" font-size="1.6" fill="#000000">SHEET : 1 OF 1</text>
</svg>