<svg xmlns="http://www.w3.org/2000/svg" viewBox="0 0 420.0 297.0" width="420.0mm" height="297.0mm">
  <rect width="420.0" height="297.0" fill="white" />
  <polygon points="10.00,287.00 410.00,287.00 410.00,10.00 10.00,10.00" stroke="#000000" stroke-width="0.25" fill="none" />
  <polygon points="10.00,287.00 410.00,287.00 410.00,255.00 10.00,255.00" stroke="#000000" stroke-width="0.25" fill="none" />
  <line x1="90.00" y1="255.00" x2="90.00" y2="287.00" stroke="#000000" stroke-width="0.25" fill="none" />
  <line x1="150.00" y1="255.00" x2="150.00" y2="287.00" stroke="#000000" stroke-width="0.25" fill="none" />
  <line x1="222.00" y1="255.00" x2="222.00" y2="287.00" stroke="#000000" stroke-width="0.25" fill="none" />
  <line x1="290.00" y1="255.00" x2="290.00" y2="287.00" stroke="#000000" stroke-width="0.25" fill="none" />
  <line x1="362.00" y1="255.00" x2="362.00" y2="287.00" stroke="#000000" stroke-width="0.25" fill="none" />
  <line x1="362.00" y1="270.00" x2="410.00" y2="270.00" stroke="#000000" stroke-width="0.25" fill="none" />
  <line x1="386.00" y1="255.00" x2="386.00" y2="287.00" stroke="#000000" stroke-width="0.25" fill="none" />
  <text x="12.00" y="258.94" font-family="Arial, Helvetica, sans-serif" font-size="1.8" fill="#000000">CLIENT / ADDRESS :</text>
  <text x="92.00" y="258.94" font-family="Arial, Helvetica, sans-serif" font-size="1.8" fill="#000000">MAIN CONTRACTOR :</text>
  <text x="152.00" y="258.94" font-family="Arial, Helvetica, sans-serif" font-size="1.8" fill="#000000">ELECTRICAL CONTRACTOR :</text>
  <text x="224.00" y="258.94" font-family="Arial, Helvetica, sans-serif" font-size="1.8" fill="#000000">DRAWING TITLE :</text>
  <text x="292.00" y="258.94" font-family="Arial, Helvetica, sans-serif" font-size="1.8" fill="#000000">LEW :</text>
  <text x="364.00" y="258.94" font-family="Arial, Helvetica, sans-serif" font-size="1.8" fill="#000000">CHECKED :</text>
  <text x="388.00" y="258.94" font-family="Arial, Helvetica, sans-serif" font-size="1.8" fill="#000000">DATE :</text>
  <text x="364.00" y="273.94" font-family="Arial, Helvetica, sans-serif" font-size="1.8" fill="#000000">DRAWING NO. :</text>
  <text x="388.00" y="273.94" font-family="Arial, Helvetica, sans-serif" font-size="1.8" fill="#000000">REV :</text>
  <circle cx="217.50" cy="181.38" r="0.40" stroke="#000000" stroke-width="0.25" fill="none" />
  <line x1="217.90" y1="181.38" x2="221.50" y2="179.38" stroke="#000000" stroke-width="0.25" fill="none" />
  <circle cx="221.50" cy="181.38" r="0.40" stroke="#000000" stroke-width="0.25" fill="none" />
  <line x1="221.90" y1="181.38" x2="223.00" y2="181.38" stroke="#000000" stroke-width="0.25" fill="none" />
  <line x1="216.00" y1="181.38" x2="217.10" y2="181.38" stroke="#000000" stroke-width="0.25" fill="none" />
  <line x1="223.00" y1="181.38" x2="225.00" y2="181.38" stroke="#000000" stroke-width="0.25" fill="none" />
  <line x1="216.00" y1="181.38" x2="214.00" y2="181.38" stroke="#000000" stroke-width="0.25" fill="none" />
  <text x="211.82" y="177.41" font-family="Arial, Helvetica, sans-serif" font-size="1.6" fill="#000000"><tspan x="211.82">63A DP</tspan><tspan x="211.82" dy="2.2">ISOLATOR</tspan></text>
  <polygon points="240.60,183.33 248.40,183.33 248.40,179.44 240.60,179.44" stroke="#000000" stroke-width="0.25" fill="none" />
  <text x="241.77" y="182.20" font-family="Arial, Helvetica, sans-serif" font-size="2.7" fill="#000000">KWH</text>
  <line x1="248.40" y1="181.38" x2="250.40" y2="181.38" stroke="#000000" stroke-width="0.25" fill="none" />
  <line x1="240.60" y1="181.38" x2="238.60" y2="181.38" stroke="#000000" stroke-width="0.25" fill="none" />
  <text x="234.50" y="176.57" font-family="Arial, Helvetica, sans-serif" font-size="2.8" fill="#000000">KWH METER BY SP</text>
  <circle cx="267.80" cy="181.38" r="0.35" stroke="#000000" stroke-width="0.25" fill="none" />
  <circle cx="271.20" cy="181.38" r="0.35" stroke="#000000" stroke-width="0.25" fill="none" />
  <path d="M 271.15,180.98 A 1.70,1.70 0 0,0 267.86,180.95" stroke="#000000" stroke-width="0.25" fill="none" />
  <line x1="271.55" y1="181.38" x2="273.50" y2="181.38" stroke="#000000" stroke-width="0.25" fill="none" />
  <line x1="265.50" y1="181.38" x2="267.45" y2="181.38" stroke="#000000" stroke-width="0.25" fill="none" />
  <line x1="273.50" y1="181.38" x2="275.50" y2="181.38" stroke="#000000" stroke-width="0.25" fill="none" />
  <line x1="265.50" y1="181.38" x2="263.50" y2="181.38" stroke="#000000" stroke-width="0.25" fill="none" />
  <text x="258.46" y="177.66" font-family="Arial, Helvetica, sans-serif" font-size="1.6" fill="#000000"><tspan x="258.46">63A DP MCB</tspan><tspan x="258.46" dy="2.2">TYPE B 10kA</tspan></text>
  <text x="298.50" y="180.62" font-family="Arial, Helvetica, sans-serif" font-size="2.8" fill="#000000">INCOMING FROM HDB ELECTRICAL RISER</text>
  <text x="289.50" y="192.22" font-family="Arial, Helvetica, sans-serif" font-size="2.8" fill="#000000"><tspan x="289.50">2 x 1C 16sqmm XLPE/PVC +</tspan><tspan x="289.50" dy="3.9">16sqmm PVC CPC</tspan></text>
  <text x="163.68" y="165.68" font-family="Arial, Helvetica, sans-serif" font-size="2.8" fill="#000000"><tspan x="163.68">2 x 1C 16sqmm XLPE/PVC +</tspan><tspan x="163.68" dy="3.9">16sqmm PVC CPC</tspan></text>
  <text x="213.00" y="194.36" font-family="Arial, Helvetica, sans-serif" font-size="2.8" fill="#000000">METER BOARD</text>
  <text x="227.75" y="201.16" font-family="Arial, Helvetica, sans-serif" font-size="2.8" fill="#000000">LOCATED AT METER COMPARTMENT</text>
  <circle cx="210.00" cy="140.53" r="0.35" stroke="#000000" stroke-width="0.25" fill="none" />
  <circle cx="210.00" cy="137.13" r="0.35" stroke="#000000" stroke-width="0.25" fill="none" />
  <path d="M 210.41,140.49 A 1.70,1.70 0 0,0 210.43,137.19" stroke="#000000" stroke-width="0.25" fill="none" />
  <line x1="210.00" y1="136.78" x2="210.00" y2="134.83" stroke="#000000" stroke-width="0.25" fill="none" />
  <line x1="210.00" y1="142.83" x2="210.00" y2="140.88" stroke="#000000" stroke-width="0.25" fill="none" />
  <line x1="210.00" y1="134.83" x2="210.00" y2="132.83" stroke="#000000" stroke-width="0.25" fill="none" />
  <line x1="210.00" y1="142.83" x2="210.00" y2="144.83" stroke="#000000" stroke-width="0.25" fill="none" />
  <text x="215.50" y="138.67" font-family="Arial, Helvetica, sans-serif" font-size="2.3" fill="#000000">63A DP MCB (10KA)</text>
  <line x1="164.50" y1="132.83" x2="255.50" y2="132.83" stroke="#000000" stroke-width="0.50" fill="none" />
  <text x="167.50" y="138.07" font-family="Arial, Helvetica, sans-serif" font-size="2.8" fill="#000000">100A COMB BAR</text>
  <text x="180.60" y="131.09" font-family="Arial, Helvetica, sans-serif" font-size="2.2" fill="#000000" transform="rotate(-90.0,180.60,129.33)">S1</text>
  <circle cx="178.00" cy="118.53" r="0.35" stroke="#000000" stroke-width="0.25" fill="none" />
  <circle cx="178.00" cy="115.13" r="0.35" stroke="#000000" stroke-width="0.25" fill="none" />
  <path d="M 178.41,118.49 A 1.70,1.70 0 0,0 178.43,115.19" stroke="#000000" stroke-width="0.25" fill="none" />
  <line x1="173.70" y1="116.80" x2="179.70" y2="116.85" stroke="#000000" stroke-width="0.25" fill="none" />
  <line x1="179.70" y1="116.85" x2="178.49" y2="117.44" stroke="#000000" stroke-width="0.25" fill="none" />
  <line x1="179.70" y1="116.85" x2="178.51" y2="116.24" stroke="#000000" stroke-width="0.25" fill="none" />
  <line x1="178.00" y1="114.78" x2="178.00" y2="112.83" stroke="#000000" stroke-width="0.25" fill="none" />
  <line x1="178.00" y1="120.83" x2="178.00" y2="118.88" stroke="#000000" stroke-width="0.25" fill="none" />
  <line x1="178.00" y1="112.83" x2="178.00" y2="110.83" stroke="#000000" stroke-width="0.25" fill="none" />
  <line x1="178.00" y1="120.83" x2="178.00" y2="122.83" stroke="#000000" stroke-width="0.25" fill="none" />
  <text x="169.50" y="115.43" font-family="Arial, Helvetica, sans-serif" font-size="2.0" fill="#000000">B10A</text>
  <text x="169.50" y="117.93" font-family="Arial, Helvetica, sans-serif" font-size="2.0" fill="#000000">SPN</text>
  <text x="169.50" y="120.43" font-family="Arial, Helvetica, sans-serif" font-size="2.0" fill="#000000">MCB</text>
  <text x="169.50" y="122.93" font-family="Arial, Helvetica, sans-serif" font-size="2.0" fill="#000000">6kA</text>
  <text x="179.10" y="88.07" font-family="Arial, Helvetica, sans-serif" font-size="2.8" fill="#000000" transform="rotate(-90.0,179.10,85.83)">1 no. Lights</text>
  <text x="216.60" y="131.09" font-family="Arial, Helvetica, sans-serif" font-size="2.2" fill="#000000" transform="rotate(-90.0,216.60,129.33)">P1</text>
  <circle cx="214.00" cy="118.53" r="0.35" stroke="#000000" stroke-width="0.25" fill="none" />
  <circle cx="214.00" cy="115.13" r="0.35" stroke="#000000" stroke-width="0.25" fill="none" />
  <path d="M 214.41,118.49 A 1.70,1.70 0 0,0 214.43,115.19" stroke="#000000" stroke-width="0.25" fill="none" />
  <line x1="209.70" y1="116.80" x2="215.70" y2="116.85" stroke="#000000" stroke-width="0.25" fill="none" />
  <line x1="215.70" y1="116.85" x2="214.49" y2="117.44" stroke="#000000" stroke-width="0.25" fill="none" />
  <line x1="215.70" y1="116.85" x2="214.51" y2="116.24" stroke="#000000" stroke-width="0.25" fill="none" />
  <line x1="214.00" y1="114.78" x2="214.00" y2="112.83" stroke="#000000" stroke-width="0.25" fill="none" />
  <line x1="214.00" y1="120.83" x2="214.00" y2="118.88" stroke="#000000" stroke-width="0.25" fill="none" />
  <line x1="214.00" y1="112.83" x2="214.00" y2="110.83" stroke="#000000" stroke-width="0.25" fill="none" />
  <line x1="214.00" y1="120.83" x2="214.00" y2="122.83" stroke="#000000" stroke-width="0.25" fill="none" />
  <text x="205.50" y="115.43" font-family="Arial, Helvetica, sans-serif" font-size="2.0" fill="#000000">B20A</text>
  <text x="205.50" y="117.93" font-family="Arial, Helvetica, sans-serif" font-size="2.0" fill="#000000">SPN</text>
  <text x="205.50" y="120.43" font-family="Arial, Helvetica, sans-serif" font-size="2.0" fill="#000000">MCB</text>
  <text x="205.50" y="122.93" font-family="Arial, Helvetica, sans-serif" font-size="2.0" fill="#000000">6kA</text>
  <text x="215.10" y="88.07" font-family="Arial, Helvetica, sans-serif" font-size="2.8" fill="#000000" transform="rotate(-90.0,215.10,85.83)">1 no. 13A S/S/O</text>
  <text x="247.50" y="131.09" font-family="Arial, Helvetica, sans-serif" font-size="2.2" fill="#000000" transform="rotate(-90.0,247.50,129.33)">SP1</text>
  <circle cx="244.90" cy="118.53" r="0.35" stroke="#000000" stroke-width="0.25" fill="none" />
  <circle cx="244.90" cy="115.13" r="0.35" stroke="#000000" stroke-width="0.25" fill="none" />
  <path d="M 245.31,118.49 A 1.70,1.70 0 0,0 245.33,115.19" stroke="#000000" stroke-width="0.25" fill="none" />
  <line x1="244.90" y1="114.78" x2="244.90" y2="112.83" stroke="#000000" stroke-width="0.25" fill="none" />
  <line x1="244.90" y1="120.83" x2="244.90" y2="118.88" stroke="#000000" stroke-width="0.25" fill="none" />
  <line x1="244.90" y1="112.83" x2="244.90" y2="110.83" stroke="#000000" stroke-width="0.25" fill="none" />
  <line x1="244.90" y1="120.83" x2="244.90" y2="122.83" stroke="#000000" stroke-width="0.25" fill="none" />
  <line x1="215.70" y1="116.85" x2="246.60" y2="116.85" stroke="#000000" stroke-width="0.25" fill="none" />
  <line x1="246.60" y1="116.85" x2="245.39" y2="117.44" stroke="#000000" stroke-width="0.25" fill="none" />
  <line x1="246.60" y1="116.85" x2="245.41" y2="116.24" stroke="#000000" stroke-width="0.25" fill="none" />
  <text x="246.00" y="88.07" font-family="Arial, Helvetica, sans-serif" font-size="2.8" fill="#000000" transform="rotate(-90.0,246.00,85.83)">SPARE</text>
  <text x="181.80" y="89.63" font-family="Arial, Helvetica, sans-serif" font-size="2.8" fill="#000000" transform="rotate(-90.0,181.80,89.63)">2C 1.5sqmm PVC + 1.5sqmm</text>
  <text x="185.72" y="89.63" font-family="Arial, Helvetica, sans-serif" font-size="2.8" fill="#000000" transform="rotate(-90.0,185.72,89.63)">PVC CPC IN METAL TRUNKING</text>
  <text x="209.40" y="89.63" font-family="Arial, Helvetica, sans-serif" font-size="2.8" fill="#000000" transform="rotate(-90.0,209.40,89.63)">2C 2.5sqmm PVC + 2.5sqmm</text>
  <text x="213.32" y="89.63" font-family="Arial, Helvetica, sans-serif" font-size="2.8" fill="#000000" transform="rotate(-90.0,213.32,89.63)">PVC CPC IN METAL TRUNKING</text>
  <text x="160.50" y="147.23" font-family="Arial, Helvetica, sans-serif" font-size="3.0" fill="#000000">63A DB</text>
  <text x="160.50" y="150.27" font-family="Arial, Helvetica, sans-serif" font-size="1.8" fill="#000000">APPROVED LOAD: 14 kVA</text>
  <line x1="273.25" y1="153.33" x2="273.25" y2="155.13" stroke="#000000" stroke-width="0.25" fill="none" />
  <line x1="270.50" y1="155.13" x2="276.00" y2="155.13" stroke="#000000" stroke-width="0.25" fill="none" />
  <line x1="271.42" y1="156.26" x2="275.08" y2="156.26" stroke="#000000" stroke-width="0.25" fill="none" />
  <line x1="272.33" y1="157.38" x2="274.17" y2="157.38" stroke="#000000" stroke-width="0.25" fill="none" />
  <text x="279.00" y="155.42" font-family="Arial, Helvetica, sans-serif" font-size="2.3" fill="#000000">E</text>
  <line x1="210.00" y1="181.38" x2="214.00" y2="181.38" stroke="#000000" stroke-width="0.25" fill="none" />
  <line x1="225.00" y1="181.38" x2="238.60" y2="181.38" stroke="#000000" stroke-width="0.25" fill="none" />
  <line x1="250.40" y1="181.38" x2="263.50" y2="181.38" stroke="#000000" stroke-width="0.25" fill="none" />
  <line x1="275.50" y1="181.38" x2="295.50" y2="181.38" stroke="#000000" stroke-width="0.25" fill="none" />
  <line x1="284.00" y1="182.88" x2="287.00" y2="179.88" stroke="#000000" stroke-width="0.25" fill="none" />
  <line x1="285.50" y1="181.38" x2="285.50" y2="191.38" stroke="#000000" stroke-width="0.25" fill="none" />
  <line x1="285.50" y1="191.38" x2="288.50" y2="191.38" stroke="#000000" stroke-width="0.25" fill="none" />
  <line x1="210.00" y1="181.38" x2="210.00" y2="156.83" stroke="#000000" stroke-width="0.25" fill="none" />
  <line x1="210.00" y1="164.83" x2="207.00" y2="164.83" stroke="#000000" stroke-width="0.25" fill="none" />
  <line x1="210.00" y1="156.83" x2="210.00" y2="144.83" stroke="#000000" stroke-width="0.25" fill="none" />
  <line x1="210.00" y1="135.83" x2="210.00" y2="132.83" stroke="#000000" stroke-width="0.25" fill="none" />
  <line x1="179.10" y1="132.83" x2="179.10" y2="120.83" stroke="#000000" stroke-width="0.25" fill="none" />
  <line x1="179.10" y1="110.83" x2="179.10" y2="87.83" stroke="#000000" stroke-width="0.25" fill="none" />
  <line x1="210.00" y1="132.83" x2="210.00" y2="120.83" stroke="#000000" stroke-width="0.25" fill="none" />
  <line x1="210.00" y1="110.83" x2="210.00" y2="87.83" stroke="#000000" stroke-width="0.25" fill="none" />
  <line x1="246.00" y1="132.83" x2="246.00" y2="120.83" stroke="#000000" stroke-width="0.25" fill="none" />
  <line x1="246.00" y1="110.83" x2="246.00" y2="87.83" stroke="#000000" stroke-width="0.25" fill="none" />
  <line x1="184.80" y1="92.83" x2="179.10" y2="92.83" stroke="#000000" stroke-width="0.25" fill="none" />
  <line x1="184.80" y1="92.83" x2="184.80" y2="87.83" stroke="#000000" stroke-width="0.25" fill="none" />
  <line x1="215.10" y1="92.83" x2="209.40" y2="92.83" stroke="#000000" stroke-width="0.25" fill="none" />
  <line x1="209.40" y1="92.83" x2="209.40" y2="87.83" stroke="#000000" stroke-width="0.25" fill="none" />
  <line x1="265.50" y1="153.33" x2="273.25" y2="153.33" stroke="#000000" stroke-width="0.25" fill="none" />
  <line x1="208.75" y1="166.08" x2="211.25" y2="163.58" stroke="#000000" stroke-width="0.50" fill="none" />
  <line x1="177.85" y1="94.08" x2="180.35" y2="91.58" stroke="#000000" stroke-width="0.50" fill="none" />
  <line x1="213.85" y1="94.08" x2="216.35" y2="91.58" stroke="#000000" stroke-width="0.50" fill="none" />
  <line x1="212.00" y1="195.91" x2="220.00" y2="195.91" stroke="#000000" stroke-width="0.25" fill="none" />
  <line x1="222.00" y1="195.91" x2="223.50" y2="195.91" stroke="#000000" stroke-width="0.25" fill="none" />
  <line x1="225.50" y1="195.91" x2="233.50" y2="195.91" stroke="#000000" stroke-width="0.25" fill="none" />
  <line x1="235.50" y1="195.91" x2="237.00" y2="195.91" stroke="#000000" stroke-width="0.25" fill="none" />
  <line x1="239.00" y1="195.91" x2="247.00" y2="195.91" stroke="#000000" stroke-width="0.25" fill="none" />
  <line x1="249.00" y1="195.91" x2="250.50" y2="195.91" stroke="#000000" stroke-width="0.25" fill="none" />
  <line x1="252.50" y1="195.91" x2="260.50" y2="195.91" stroke="#000000" stroke-width="0.25" fill="none" />
  <line x1="262.50" y1="195.91" x2="264.00" y2="195.91" stroke="#000000" stroke-width="0.25" fill="none" />
  <line x1="266.00" y1="195.91" x2="274.00" y2="195.91" stroke="#000000" stroke-width="0.25" fill="none" />
  <line x1="276.00" y1="195.91" x2="277.50" y2="195.91" stroke="#000000" stroke-width="0.25" fill="none" />
  <line x1="212.00" y1="172.83" x2="220.00" y2="172.83" stroke="#000000" stroke-width="0.25" fill="none" />
  <line x1="222.00" y1="172.83" x2="223.50" y2="172.83" stroke="#000000" stroke-width="0.25" fill="none" />
  <line x1="225.50" y1="172.83" x2="233.50" y2="172.83" stroke="#000000" stroke-width="0.25" fill="none" />
  <line x1="235.50" y1="172.83" x2="237.00" y2="172.83" stroke="#000000" stroke-width="0.25" fill="none" />
  <line x1="239.00" y1="172.83" x2="247.00" y2="172.83" stroke="#000000" stroke-width="0.25" fill="none" />
  <line x1="249.00" y1="172.83" x2="250.50" y2="172.83" stroke="#000000" stroke-width="0.25" fill="none" />
  <line x1="252.50" y1="172.83" x2="260.50" y2="172.83" stroke="#000000" stroke-width="0.25" fill="none" />
  <line x1="262.50" y1="172.83" x2="264.00" y2="172.83" stroke="#000000" stroke-width="0.25" fill="none" />
  <line x1="266.00" y1="172.83" x2="274.00" y2="172.83" stroke="#000000" stroke-width="0.25" fill="none" />
  <line x1="276.00" y1="172.83" x2="277.50" y2="172.83" stroke="#000000" stroke-width="0.25" fill="none" />
  <line x1="212.00" y1="195.91" x2="212.00" y2="187.91" stroke="#000000" stroke-width="0.25" fill="none" />
  <line x1="212.00" y1="185.91" x2="212.00" y2="184.41" stroke="#000000" stroke-width="0.25" fill="none" />
  <line x1="212.00" y1="182.41" x2="212.00" y2="174.41" stroke="#000000" stroke-width="0.25" fill="none" />
  <line x1="279.50" y1="195.91" x2="279.50" y2="187.91" stroke="#000000" stroke-width="0.25" fill="none" />
  <line x1="279.50" y1="185.91" x2="279.50" y2="184.41" stroke="#000000" stroke-width="0.25" fill="none" />
  <line x1="279.50" y1="182.41" x2="279.50" y2="174.41" stroke="#000000" stroke-width="0.25" fill="none" />
  <line x1="154.50" y1="152.83" x2="162.50" y2="152.83" stroke="#000000" stroke-width="0.25" fill="none" />
  <line x1="164.50" y1="152.83" x2="166.00" y2="152.83" stroke="#000000" stroke-width="0.25" fill="none" />
  <line x1="168.00" y1="152.83" x2="176.00" y2="152.83" stroke="#000000" stroke-width="0.25" fill="none" />
  <line x1="178.00" y1="152.83" x2="179.50" y2="152.83" stroke="#000000" stroke-width="0.25" fill="none" />
  <line x1="181.50" y1="152.83" x2="189.50" y2="152.83" stroke="#000000" stroke-width="0.25" fill="none" />
  <line x1="191.50" y1="152.83" x2="193.00" y2="152.83" stroke="#000000" stroke-width="0.25" fill="none" />
  <line x1="195.00" y1="152.83" x2="203.00" y2="152.83" stroke="#000000" stroke-width="0.25" fill="none" />
  <line x1="205.00" y1="152.83" x2="206.50" y2="152.83" stroke="#000000" stroke-width="0.25" fill="none" />
  <line x1="208.50" y1="152.83" x2="216.50" y2="152.83" stroke="#000000" stroke-width="0.25" fill="none" />
  <line x1="218.50" y1="152.83" x2="220.00" y2="152.83" stroke="#000000" stroke-width="0.25" fill="none" />
  <line x1="222.00" y1="152.83" x2="230.00" y2="152.83" stroke="#000000" stroke-width="0.25" fill="none" />
  <line x1="232.00" y1="152.83" x2="233.50" y2="152.83" stroke="#000000" stroke-width="0.25" fill="none" />
  <line x1="235.50" y1="152.83" x2="243.50" y2="152.83" stroke="#000000" stroke-width="0.25" fill="none" />
  <line x1="245.50" y1="152.83" x2="247.00" y2="152.83" stroke="#000000" stroke-width="0.25" fill="none" />
  <line x1="249.00" y1="152.83" x2="257.00" y2="152.83" stroke="#000000" stroke-width="0.25" fill="none" />
  <line x1="259.00" y1="152.83" x2="260.50" y2="152.83" stroke="#000000" stroke-width="0.25" fill="none" />
  <line x1="262.50" y1="152.83" x2="265.50" y2="152.83" stroke="#000000" stroke-width="0.25" fill="none" />
  <line x1="154.50" y1="102.83" x2="162.50" y2="102.83" stroke="#000000" stroke-width="0.25" fill="none" />
  <line x1="164.50" y1="102.83" x2="166.00" y2="102.83" stroke="#000000" stroke-width="0.25" fill="none" />
  <line x1="168.00" y1="102.83" x2="176.00" y2="102.83" stroke="#000000" stroke-width="0.25" fill="none" />
  <line x1="178.00" y1="102.83" x2="179.50" y2="102.83" stroke="#000000" stroke-width="0.25" fill="none" />
  <line x1="181.50" y1="102.83" x2="189.50" y2="102.83" stroke="#000000" stroke-width="0.25" fill="none" />
  <line x1="191.50" y1="102.83" x2="193.00" y2="102.83" stroke="#000000" stroke-width="0.25" fill="none" />
  <line x1="195.00" y1="102.83" x2="203.00" y2="102.83" stroke="#000000" stroke-width="0.25" fill="none" />
  <line x1="205.00" y1="102.83" x2="206.50" y2="102.83" stroke="#000000" stroke-width="0.25" fill="none" />
  <line x1="208.50" y1="102.83" x2="216.50" y2="102.83" stroke="#000000" stroke-width="0.25" fill="none" />
  <line x1="218.50" y1="102.83" x2="220.00" y2="102.83" stroke="#000000" stroke-width="0.25" fill="none" />
  <line x1="222.00" y1="102.83" x2="230.00" y2="102.83" stroke="#000000" stroke-width="0.25" fill="none" />
  <line x1="232.00" y1="102.83" x2="233.50" y2="102.83" stroke="#000000" stroke-width="0.25" fill="none" />
  <line x1="235.50" y1="102.83" x2="243.50" y2="102.83" stroke="#000000" stroke-width="0.25" fill="none" />
  <line x1="245.50" y1="102.83" x2="247.00" y2="102.83" stroke="#000000" stroke-width="0.25" fill="none" />
  <line x1="249.00" y1="102.83" x2="257.00" y2="102.83" stroke="#000000" stroke-width="0.25" fill="none" />
  <line x1="259.00" y1="102.83" x2="260.50" y2="102.83" stroke="#000000" stroke-width="0.25" fill="none" />
  <line x1="262.50" y1="102.83" x2="265.50" y2="102.83" stroke="#000000" stroke-width="0.25" fill="none" />
  <line x1="154.50" y1="152.83" x2="154.50" y2="144.83" stroke="#000000" stroke-width="0.25" fill="none" />
  <line x1="154.50" y1="142.83" x2="154.50" y2="141.33" stroke="#000000" stroke-width="0.25" fill="none" />
  <line x1="154.50" y1="139.33" x2="154.50" y2="131.33" stroke="#000000" stroke-width="0.25" fill="none" />
  <line x1="154.50" y1="129.33" x2="154.50" y2="127.83" stroke="#000000" stroke-width="0.25" fill="none" />
  <line x1="154.50" y1="125.83" x2="154.50" y2="117.83" stroke="#000000" stroke-width="0.25" fill="none" />
  <line x1="154.50" y1="115.83" x2="154.50" y2="114.33" stroke="#000000" stroke-width="0.25" fill="none" />
  <line x1="154.50" y1="112.33" x2="154.50" y2="104.33" stroke="#000000" stroke-width="0.25" fill="none" />
  <line x1="265.50" y1="152.83" x2="265.50" y2="144.83" stroke="#000000" stroke-width="0.25" fill="none" />
  <line x1="265.50" y1="142.83" x2="265.50" y2="141.33" stroke="#000000" stroke-width="0.25" fill="none" />
  <line x1="265.50" y1="139.33" x2="265.50" y2="131.33" stroke="#000000" stroke-width="0.25" fill="none" />
  <line x1="265.50" y1="129.33" x2="265.50" y2="127.83" stroke="#000000" stroke-width="0.25" fill="none" />
  <line x1="265.50" y1="125.83" x2="265.50" y2="117.83" stroke="#000000" stroke-width="0.25" fill="none" />
  <line x1="265.50" y1="115.83" x2="265.50" y2="114.33" stroke="#000000" stroke-width="0.25" fill="none" />
  <line x1="265.50" y1="112.33" x2="265.50" y2="104.33" stroke="#000000" stroke-width="0.25" fill="none" />
  <circle cx="179.10" cy="132.83" r="0.50" fill="rgb(0,0,0)" stroke="none" />
  <circle cx="215.10" cy="132.83" r="0.50" fill="rgb(0,0,0)" stroke="none" />
  <circle cx="246.00" cy="132.83" r="0.50" fill="rgb(0,0,0)" stroke="none" />
  <circle cx="265.50" cy="153.33" r="0.50" fill="rgb(0,0,0)" stroke="none" />
  <text x="13.00" y="264.40" font-family="Arial, Helvetica, sans-serif" font-size="3.0" fill="#000000">Electrical Installation</text>
  <text x="153.00" y="264.40" font-family="Arial, Helvetica, sans-serif" font-size="3.0" fill="#000000">LicenseKaki</text>
  <text x="225.00" y="263.80" font-family="Arial, Helvetica, sans-serif" font-size="3.5" fill="#000000"><tspan x="225.00">SINGLE LINE DIAGRAM</tspan><tspan x="225.00" dy="4.9">(SLD)</tspan></text>
  <text x="389.00" y="266.00" font-family="Arial, Helvetica, sans-serif" font-size="2.5" fill="#000000">DATE</text>
  <text x="365.00" y="278.00" font-family="Arial, Helvetica, sans-serif" font-size="2.5" fill="#000000"></text>
  <text x="394.00" y="278.80" font-family="Arial, Helvetica, sans-serif" font-size="3.5" fill="#000000">0</text>
  <text x="365.00" y="286.28" font-family="Arial, Helvetica, sans-serif" font-size="1.6" fill="#000000">SCALE : NTS</text>
  <text x="389.00" y="286.28" font-family="Arial, Helvetica, sans-serif" font-size="1.6" fill="#000000">SHEET : 1 OF 1</text>
</svg>