<svg xmlns="http://www.w3.org/2000/svg" viewBox="0 0 420.0 297.0" width="420.0mm" height="297.0mm">
  <rect width="420.0" height="297.0" fill="white" />
  <polygon points="10.00,287.00 410.00,287.00 410.00,10.00 10.00,10.00" stroke="#000000" stroke-width="0.25" fill="none" />
  <polygon points="10.00,287.00 410.00,287.00 410.00,255.00 10.00,255.00" stroke="#000000" stroke-width="0.25" fill="none" />
  <line x1="90.00" y1="255.00" x2="90.00" y2="287.00" stroke="#000000" stroke-width="0.25" fill="none" />
  <line x1="150.00" y1="255.00" x2="150.00" y2="287.00" stroke="#000000" stroke-width="0.25" fill="none" />
  <line x1="222.00" y1="255.00" x2="222.00" y2="287.00" stroke="#000000" stroke-width="0.25" fill="none" />
  <line x1="290.00" y1="255.00" x2="290.00" y2="287.00" stroke="#000000" stroke-width="0.25" fill="none" />
  <line x1="362.00" y1="255.00" x2="362.00" y2="287.00" stroke="#000000" stroke-width="0.25" fill="none" />
  <line x1="362.00" y1="270.00" x2="410.00" y2="270.00" stroke="#000000" stroke-width="0.25" fill="none" />
  <line x1="386.00" y1="255.00" x2="386.00" y2="287.00" stroke="#000000" stroke-width="0.25" fill="none" />
  <text x="12.00" y="258.94" font-family="Arial, Helvetica, sans-serif" font-size="1.8" fill="#000000">CLIENT / ADDRESS :</text>
  <text x="92.00" y="258.94" font-family="Arial, Helvetica, sans-serif" font-size="1.8" fill="#000000">MAIN CONTRACTOR :</text>
  <text x="152.00" y="258.94" font-family="Arial, Helvetica, sans-serif" font-size="1.8" fill="#000000">ELECTRICAL CONTRACTOR :</text>
  <text x="224.00" y="258.94" font-family="Arial, Helvetica, sans-serif" font-size="1.8" fill="#000000">DRAWING TITLE :</text>
  <text x="292.00" y="258.94" font-family="Arial, Helvetica, sans-serif" font-size="1.8" fill="#000000">LEW :</text>
  <text x="364.00" y="258.94" font-family="Arial, Helvetica, sans-serif" font-size="1.8" fill="#000000">CHECKED :</text>
  <text x="388.00" y="258.94" font-family="Arial, Helvetica, sans-serif" font-size="1.8" fill="#000000">DATE :</text>
  <text x="364.00" y="273.94" font-family="Arial, Helvetica, sans-serif" font-size="1.8" fill="#000000">DRAWING NO. :</text>
  <text x="388.00" y="273.94" font-family="Arial, Helvetica, sans-serif" font-size="1.8" fill="#000000">REV :</text>
  <circle cx="222.30" cy="190.71" r="0.70" stroke="#000000" stroke-width="0.25" fill="none" />
  <circle cx="216.70" cy="190.71" r="0.70" stroke="#000000" stroke-width="0.25" fill="none" />
  <polyline points="217.36,190.48 222.21,188.74" stroke="#000000" stroke-width="0.25" fill="none" />
  <text x="215.18" y="195.70" font-family="Arial, Helvetica, sans-serif" font-size="1.8" fill="#000000"><tspan x="215.18">63A DP</tspan><tspan x="215.18" dy="2.5">ISOLATOR</tspan></text>
  <polygon points="238.50,187.71 250.50,187.71 250.50,193.71 238.50,193.71" stroke="#000000" stroke-width="0.25" fill="none" />
  <text x="242.10" y="192.02" font-family="Arial, Helvetica, sans-serif" font-size="2.2" fill="#000000">KWH</text>
  <text x="234.50" y="185.65" font-family="Arial, Helvetica, sans-serif" font-size="2.8" fill="#000000">KWH METER BY SP</text>
  <path d="M 272.84,189.86 A 3.75,3.75 0 0,0 266.16,189.86" stroke="#000000" stroke-width="0.25" fill="none" />
  <circle cx="266.16" cy="190.90" r="0.66" stroke="#000000" stroke-width="0.25" fill="none" />
  <circle cx="272.84" cy="190.89" r="0.66" stroke="#000000" stroke-width="0.25" fill="none" />
  <line x1="265.50" y1="190.71" x2="263.50" y2="190.71" stroke="#000000" stroke-width="0.25" fill="none" />
  <line x1="273.50" y1="190.71" x2="275.50" y2="190.71" stroke="#000000" stroke-width="0.25" fill="none" />
  <text x="263.56" y="195.45" font-family="Arial, Helvetica, sans-serif" font-size="1.8" fill="#000000"><tspan x="263.56">63A DP MCB</tspan><tspan x="263.56" dy="2.5">TYPE B 10kA</tspan></text>
  <text x="296.50" y="189.95" font-family="Arial, Helvetica, sans-serif" font-size="2.8" fill="#000000">INCOMING FROM HDB ELECTRICAL RISER</text>
  <text x="287.50" y="201.55" font-family="Arial, Helvetica, sans-serif" font-size="2.8" fill="#000000"><tspan x="287.50">2 x 1C 16sqmm XLPE/PVC +</tspan><tspan x="287.50" dy="3.9">16sqmm PVC CPC</tspan></text>
  <text x="163.68" y="174.75" font-family="Arial, Helvetica, sans-serif" font-size="2.8" fill="#000000"><tspan x="163.68">2 x 1C 16sqmm XLPE/PVC +</tspan><tspan x="163.68" dy="3.9">16sqmm PVC CPC</tspan></text>
  <text x="213.00" y="203.93" font-family="Arial, Helvetica, sans-serif" font-size="2.8" fill="#000000">METER BOARD</text>
  <path d="M 210.85,151.25 A 3.75,3.75 0 0,0 210.85,144.57" stroke="#000000" stroke-width="0.25" fill="none" />
  <circle cx="209.81" cy="144.57" r="0.66" stroke="#000000" stroke-width="0.25" fill="none" />
  <circle cx="209.82" cy="151.25" r="0.66" stroke="#000000" stroke-width="0.25" fill="none" />
  <line x1="210.00" y1="151.91" x2="210.00" y2="153.91" stroke="#000000" stroke-width="0.25" fill="none" />
  <line x1="210.00" y1="143.91" x2="210.00" y2="141.91" stroke="#000000" stroke-width="0.25" fill="none" />
  <text x="213.85" y="147.35" font-family="Arial, Helvetica, sans-serif" font-size="1.8" fill="#000000">63A DP MCB (10KA)</text>
  <path d="M 211.17,136.17 A 4.22,4.22 0 0,0 211.17,128.65" stroke="#000000" stroke-width="0.25" fill="none" />
  <circle cx="209.99" cy="128.65" r="0.74" stroke="#000000" stroke-width="0.25" fill="none" />
  <circle cx="210.01" cy="136.17" r="0.74" stroke="#000000" stroke-width="0.25" fill="none" />
  <line x1="213.47" y1="132.41" x2="215.28" y2="132.41" stroke="#000000" stroke-width="0.25" fill="none" />
  <line x1="215.28" y1="134.05" x2="215.28" y2="130.77" stroke="#000000" stroke-width="0.25" fill="none" />
  <line x1="210.00" y1="136.91" x2="210.00" y2="138.91" stroke="#000000" stroke-width="0.25" fill="none" />
  <line x1="210.00" y1="127.91" x2="210.00" y2="125.91" stroke="#000000" stroke-width="0.25" fill="none" />
  <text x="216.01" y="131.85" font-family="Arial, Helvetica, sans-serif" font-size="1.8" fill="#000000"><tspan x="216.01">63A DP</tspan><tspan x="216.01" dy="2.5">RCCB </tspan><tspan x="216.01" dy="2.5">(30mA)</tspan></text>
  <line x1="164.50" y1="120.91" x2="283.00" y2="120.91" stroke="#000000" stroke-width="0.50" fill="none" />
  <text x="167.50" y="126.15" font-family="Arial, Helvetica, sans-serif" font-size="2.8" fill="#000000">100A COMB BAR</text>
  <text x="179.50" y="117.17" font-family="Arial, Helvetica, sans-serif" font-size="2.2" fill="#000000" transform="rotate(-90.0,179.50,116.29)">S1</text>
  <path d="M 178.85,108.25 A 3.75,3.75 0 0,0 178.85,101.57" stroke="#000000" stroke-width="0.25" fill="none" />
  <circle cx="177.81" cy="101.57" r="0.66" stroke="#000000" stroke-width="0.25" fill="none" />
  <circle cx="177.82" cy="108.25" r="0.66" stroke="#000000" stroke-width="0.25" fill="none" />
  <line x1="178.00" y1="108.91" x2="178.00" y2="110.91" stroke="#000000" stroke-width="0.25" fill="none" />
  <line x1="178.00" y1="100.91" x2="178.00" y2="98.91" stroke="#000000" stroke-width="0.25" fill="none" />
  <line x1="174.89" y1="104.91" x2="180.89" y2="104.91" stroke="#000000" stroke-width="0.25" fill="none" />
  <line x1="180.89" y1="104.91" x2="179.69" y2="104.31" stroke="#000000" stroke-width="0.25" fill="none" />
  <line x1="180.89" y1="104.91" x2="179.69" y2="105.51" stroke="#000000" stroke-width="0.25" fill="none" />
  <text x="169.50" y="103.51" font-family="Arial, Helvetica, sans-serif" font-size="2.0" fill="#000000">B10A</text>
  <text x="169.50" y="106.01" font-family="Arial, Helvetica, sans-serif" font-size="2.0" fill="#000000">SPN</text>
  <text x="169.50" y="108.51" font-family="Arial, Helvetica, sans-serif" font-size="2.0" fill="#000000">MCB</text>
  <text x="169.50" y="111.01" font-family="Arial, Helvetica, sans-serif" font-size="2.0" fill="#000000">6kA</text>
  <text x="178.00" y="76.15" font-family="Arial, Helvetica, sans-serif" font-size="2.8" fill="#000000" transform="rotate(-90.0,178.00,75.03)">1 NO. LIGHTING</text>
  <text x="215.50" y="117.17" font-family="Arial, Helvetica, sans-serif" font-size="2.2" fill="#000000" transform="rotate(-90.0,215.50,116.29)">P1</text>
  <path d="M 214.85,108.25 A 3.75,3.75 0 0,0 214.85,101.57" stroke="#000000" stroke-width="0.25" fill="none" />
  <circle cx="213.81" cy="101.57" r="0.66" stroke="#000000" stroke-width="0.25" fill="none" />
  <circle cx="213.82" cy="108.25" r="0.66" stroke="#000000" stroke-width="0.25" fill="none" />
  <line x1="214.00" y1="108.91" x2="214.00" y2="110.91" stroke="#000000" stroke-width="0.25" fill="none" />
  <line x1="214.00" y1="100.91" x2="214.00" y2="98.91" stroke="#000000" stroke-width="0.25" fill="none" />
  <line x1="210.89" y1="104.91" x2="216.89" y2="104.91" stroke="#000000" stroke-width="0.25" fill="none" />
  <line x1="216.89" y1="104.91" x2="215.69" y2="104.31" stroke="#000000" stroke-width="0.25" fill="none" />
  <line x1="216.89" y1="104.91" x2="215.69" y2="105.51" stroke="#000000" stroke-width="0.25" fill="none" />
  <text x="205.50" y="103.51" font-family="Arial, Helvetica, sans-serif" font-size="2.0" fill="#000000">B20A</text>
  <text x="205.50" y="106.01" font-family="Arial, Helvetica, sans-serif" font-size="2.0" fill="#000000">SPN</text>
  <text x="205.50" y="108.51" font-family="Arial, Helvetica, sans-serif" font-size="2.0" fill="#000000">MCB</text>
  <text x="205.50" y="111.01" font-family="Arial, Helvetica, sans-serif" font-size="2.0" fill="#000000">6kA</text>
  <text x="214.00" y="76.15" font-family="Arial, Helvetica, sans-serif" font-size="2.8" fill="#000000" transform="rotate(-90.0,214.00,75.03)">1 NO. 13A S/S/O</text>
  <text x="247.50" y="117.17" font-family="Arial, Helvetica, sans-serif" font-size="2.2" fill="#000000" transform="rotate(-90.0,247.50,116.29)">SP1</text>
  <path d="M 246.85,108.25 A 3.75,3.75 0 0,0 246.85,101.57" stroke="#000000" stroke-width="0.25" fill="none" />
  <circle cx="245.81" cy="101.57" r="0.66" stroke="#000000" stroke-width="0.25" fill="none" />
  <circle cx="245.82" cy="108.25" r="0.66" stroke="#000000" stroke-width="0.25" fill="none" />
  <line x1="246.00" y1="108.91" x2="246.00" y2="110.91" stroke="#000000" stroke-width="0.25" fill="none" />
  <line x1="246.00" y1="100.91" x2="246.00" y2="98.91" stroke="#000000" stroke-width="0.25" fill="none" />
  <line x1="216.89" y1="104.91" x2="248.89" y2="104.91" stroke="#000000" stroke-width="0.25" fill="none" />
  <line x1="248.89" y1="104.91" x2="247.69" y2="104.31" stroke="#000000" stroke-width="0.25" fill="none" />
  <line x1="248.89" y1="104.91" x2="247.69" y2="105.51" stroke="#000000" stroke-width="0.25" fill="none" />
  <text x="246.00" y="76.15" font-family="Arial, Helvetica, sans-serif" font-size="2.8" fill="#000000" transform="rotate(-90.0,246.00,75.03)">SPARE</text>
  <text x="165.00" y="76.15" font-family="Arial, Helvetica, sans-serif" font-size="2.8" fill="#000000" transform="rotate(-90.0,165.00,75.03)">2C 1.5sqmm PVC/PVC</text>
  <text x="224.00" y="76.15" font-family="Arial, Helvetica, sans-serif" font-size="2.8" fill="#000000" transform="rotate(-90.0,224.00,75.03)">2C 4.0sqmm PVC/PVC</text>
  <text x="160.50" y="156.31" font-family="Arial, Helvetica, sans-serif" font-size="3.0" fill="#000000">63A DB</text>
  <text x="160.50" y="159.35" font-family="Arial, Helvetica, sans-serif" font-size="1.8" fill="#000000">APPROVED LOAD: 14 KVA AT 230V</text>
  <line x1="259.95" y1="164.91" x2="259.95" y2="166.71" stroke="#000000" stroke-width="0.25" fill="none" />
  <line x1="257.70" y1="166.71" x2="262.20" y2="166.71" stroke="#000000" stroke-width="0.25" fill="none" />
  <line x1="258.45" y1="167.84" x2="261.45" y2="167.84" stroke="#000000" stroke-width="0.25" fill="none" />
  <line x1="259.20" y1="168.96" x2="260.70" y2="168.96" stroke="#000000" stroke-width="0.25" fill="none" />
  <text x="265.20" y="166.44" font-family="Arial, Helvetica, sans-serif" font-size="1.6" fill="#000000">E</text>
  <line x1="210.00" y1="190.71" x2="216.00" y2="190.71" stroke="#000000" stroke-width="0.25" fill="none" />
  <line x1="223.00" y1="190.71" x2="238.50" y2="190.71" stroke="#000000" stroke-width="0.25" fill="none" />
  <line x1="250.50" y1="190.71" x2="265.50" y2="190.71" stroke="#000000" stroke-width="0.25" fill="none" />
  <line x1="273.50" y1="190.71" x2="293.50" y2="190.71" stroke="#000000" stroke-width="0.25" fill="none" />
  <line x1="282.00" y1="192.21" x2="285.00" y2="189.21" stroke="#000000" stroke-width="0.25" fill="none" />
  <line x1="283.50" y1="190.71" x2="283.50" y2="200.71" stroke="#000000" stroke-width="0.25" fill="none" />
  <line x1="283.50" y1="200.71" x2="286.50" y2="200.71" stroke="#000000" stroke-width="0.25" fill="none" />
  <line x1="210.00" y1="190.71" x2="210.00" y2="165.91" stroke="#000000" stroke-width="0.25" fill="none" />
  <line x1="210.00" y1="173.91" x2="207.00" y2="173.91" stroke="#000000" stroke-width="0.25" fill="none" />
  <line x1="210.00" y1="165.91" x2="210.00" y2="151.91" stroke="#000000" stroke-width="0.25" fill="none" />
  <line x1="210.00" y1="153.91" x2="210.00" y2="151.91" stroke="#000000" stroke-width="0.25" fill="none" />
  <line x1="210.00" y1="143.91" x2="210.00" y2="141.91" stroke="#000000" stroke-width="0.25" fill="none" />
  <line x1="210.00" y1="141.91" x2="210.00" y2="136.91" stroke="#000000" stroke-width="0.25" fill="none" />
  <line x1="210.00" y1="138.91" x2="210.00" y2="136.91" stroke="#000000" stroke-width="0.25" fill="none" />
  <line x1="210.00" y1="127.91" x2="210.00" y2="125.91" stroke="#000000" stroke-width="0.25" fill="none" />
  <line x1="210.00" y1="125.91" x2="210.00" y2="120.91" stroke="#000000" stroke-width="0.25" fill="none" />
  <line x1="178.00" y1="120.91" x2="178.00" y2="108.91" stroke="#000000" stroke-width="0.25" fill="none" />
  <line x1="178.00" y1="100.91" x2="178.00" y2="98.91" stroke="#000000" stroke-width="0.25" fill="none" />
  <line x1="178.00" y1="98.91" x2="178.00" y2="75.91" stroke="#000000" stroke-width="0.25" fill="none" />
  <line x1="210.00" y1="120.91" x2="210.00" y2="108.91" stroke="#000000" stroke-width="0.25" fill="none" />
  <line x1="210.00" y1="100.91" x2="210.00" y2="98.91" stroke="#000000" stroke-width="0.25" fill="none" />
  <line x1="210.00" y1="98.91" x2="210.00" y2="75.91" stroke="#000000" stroke-width="0.25" fill="none" />
  <line x1="246.00" y1="120.91" x2="246.00" y2="108.91" stroke="#000000" stroke-width="0.25" fill="none" />
  <line x1="246.00" y1="100.91" x2="246.00" y2="98.91" stroke="#000000" stroke-width="0.25" fill="none" />
  <line x1="246.00" y1="98.91" x2="246.00" y2="75.91" stroke="#000000" stroke-width="0.25" fill="none" />
  <line x1="168.00" y1="80.91" x2="178.00" y2="80.91" stroke="#000000" stroke-width="0.25" fill="none" />
  <line x1="168.00" y1="80.91" x2="168.00" y2="75.91" stroke="#000000" stroke-width="0.25" fill="none" />
  <line x1="214.00" y1="80.91" x2="224.00" y2="80.91" stroke="#000000" stroke-width="0.25" fill="none" />
  <line x1="224.00" y1="80.91" x2="224.00" y2="75.91" stroke="#000000" stroke-width="0.25" fill="none" />
  <line x1="259.95" y1="161.91" x2="259.95" y2="164.91" stroke="#000000" stroke-width="0.25" fill="none" />
  <line x1="208.75" y1="175.16" x2="211.25" y2="172.66" stroke="#000000" stroke-width="0.50" fill="none" />
  <line x1="176.75" y1="82.16" x2="179.25" y2="79.66" stroke="#000000" stroke-width="0.50" fill="none" />
  <line x1="212.75" y1="82.16" x2="215.25" y2="79.66" stroke="#000000" stroke-width="0.50" fill="none" />
  <line x1="212.00" y1="205.49" x2="220.00" y2="205.49" stroke="#808080" stroke-width="0.25" fill="none" />
  <line x1="222.00" y1="205.49" x2="223.50" y2="205.49" stroke="#808080" stroke-width="0.25" fill="none" />
  <line x1="225.50" y1="205.49" x2="233.50" y2="205.49" stroke="#808080" stroke-width="0.25" fill="none" />
  <line x1="235.50" y1="205.49" x2="237.00" y2="205.49" stroke="#808080" stroke-width="0.25" fill="none" />
  <line x1="239.00" y1="205.49" x2="247.00" y2="205.49" stroke="#808080" stroke-width="0.25" fill="none" />
  <line x1="249.00" y1="205.49" x2="250.50" y2="205.49" stroke="#808080" stroke-width="0.25" fill="none" />
  <line x1="252.50" y1="205.49" x2="260.50" y2="205.49" stroke="#808080" stroke-width="0.25" fill="none" />
  <line x1="262.50" y1="205.49" x2="264.00" y2="205.49" stroke="#808080" stroke-width="0.25" fill="none" />
  <line x1="266.00" y1="205.49" x2="274.00" y2="205.49" stroke="#808080" stroke-width="0.25" fill="none" />
  <line x1="276.00" y1="205.49" x2="277.50" y2="205.49" stroke="#808080" stroke-width="0.25" fill="none" />
  <line x1="212.00" y1="181.91" x2="220.00" y2="181.91" stroke="#808080" stroke-width="0.25" fill="none" />
  <line x1="222.00" y1="181.91" x2="223.50" y2="181.91" stroke="#808080" stroke-width="0.25" fill="none" />
  <line x1="225.50" y1="181.91" x2="233.50" y2="181.91" stroke="#808080" stroke-width="0.25" fill="none" />
  <line x1="235.50" y1="181.91" x2="237.00" y2="181.91" stroke="#808080" stroke-width="0.25" fill="none" />
  <line x1="239.00" y1="181.91" x2="247.00" y2="181.91" stroke="#808080" stroke-width="0.25" fill="none" />
  <line x1="249.00" y1="181.91" x2="250.50" y2="181.91" stroke="#808080" stroke-width="0.25" fill="none" />
  <line x1="252.50" y1="181.91" x2="260.50" y2="181.91" stroke="#808080" stroke-width="0.25" fill="none" />
  <line x1="262.50" y1="181.91" x2="264.00" y2="181.91" stroke="#808080" stroke-width="0.25" fill="none" />
  <line x1="266.00" y1="181.91" x2="274.00" y2="181.91" stroke="#808080" stroke-width="0.25" fill="none" />
  <line x1="276.00" y1="181.91" x2="277.50" y2="181.91" stroke="#808080" stroke-width="0.25" fill="none" />
  <line x1="212.00" y1="205.49" x2="212.00" y2="197.49" stroke="#808080" stroke-width="0.25" fill="none" />
  <line x1="212.00" y1="195.49" x2="212.00" y2="193.99" stroke="#808080" stroke-width="0.25" fill="none" />
  <line x1="212.00" y1="191.99" x2="212.00" y2="183.99" stroke="#808080" stroke-width="0.25" fill="none" />
  <line x1="212.00" y1="181.99" x2="212.00" y2="181.91" stroke="#808080" stroke-width="0.25" fill="none" />
  <line x1="277.50" y1="205.49" x2="277.50" y2="197.49" stroke="#808080" stroke-width="0.25" fill="none" />
  <line x1="277.50" y1="195.49" x2="277.50" y2="193.99" stroke="#808080" stroke-width="0.25" fill="none" />
  <line x1="277.50" y1="191.99" x2="277.50" y2="183.99" stroke="#808080" stroke-width="0.25" fill="none" />
  <line x1="277.50" y1="181.99" x2="277.50" y2="181.91" stroke="#808080" stroke-width="0.25" fill="none" />
  <line x1="154.50" y1="161.91" x2="162.50" y2="161.91" stroke="#808080" stroke-width="0.25" fill="none" />
  <line x1="164.50" y1="161.91" x2="166.00" y2="161.91" stroke="#808080" stroke-width="0.25" fill="none" />
  <line x1="168.00" y1="161.91" x2="176.00" y2="161.91" stroke="#808080" stroke-width="0.25" fill="none" />
  <line x1="178.00" y1="161.91" x2="179.50" y2="161.91" stroke="#808080" stroke-width="0.25" fill="none" />
  <line x1="181.50" y1="161.91" x2="189.50" y2="161.91" stroke="#808080" stroke-width="0.25" fill="none" />
  <line x1="191.50" y1="161.91" x2="193.00" y2="161.91" stroke="#808080" stroke-width="0.25" fill="none" />
  <line x1="195.00" y1="161.91" x2="203.00" y2="161.91" stroke="#808080" stroke-width="0.25" fill="none" />
  <line x1="205.00" y1="161.91" x2="206.50" y2="161.91" stroke="#808080" stroke-width="0.25" fill="none" />
  <line x1="208.50" y1="161.91" x2="216.50" y2="161.91" stroke="#808080" stroke-width="0.25" fill="none" />
  <line x1="218.50" y1="161.91" x2="220.00" y2="161.91" stroke="#808080" stroke-width="0.25" fill="none" />
  <line x1="222.00" y1="161.91" x2="230.00" y2="161.91" stroke="#808080" stroke-width="0.25" fill="none" />
  <line x1="232.00" y1="161.91" x2="233.50" y2="161.91" stroke="#808080" stroke-width="0.25" fill="none" />
  <line x1="235.50" y1="161.91" x2="243.50" y2="161.91" stroke="#808080" stroke-width="0.25" fill="none" />
  <line x1="245.50" y1="161.91" x2="247.00" y2="161.91" stroke="#808080" stroke-width="0.25" fill="none" />
  <line x1="249.00" y1="161.91" x2="257.00" y2="161.91" stroke="#808080" stroke-width="0.25" fill="none" />
  <line x1="259.00" y1="161.91" x2="260.50" y2="161.91" stroke="#808080" stroke-width="0.25" fill="none" />
  <line x1="262.50" y1="161.91" x2="265.50" y2="161.91" stroke="#808080" stroke-width="0.25" fill="none" />
  <line x1="154.50" y1="90.91" x2="162.50" y2="90.91" stroke="#808080" stroke-width="0.25" fill="none" />
  <line x1="164.50" y1="90.91" x2="166.00" y2="90.91" stroke="#808080" stroke-width="0.25" fill="none" />
  <line x1="168.00" y1="90.91" x2="176.00" y2="90.91" stroke="#808080" stroke-width="0.25" fill="none" />
  <line x1="178.00" y1="90.91" x2="179.50" y2="90.91" stroke="#808080" stroke-width="0.25" fill="none" />
  <line x1="181.50" y1="90.91" x2="189.50" y2="90.91" stroke="#808080" stroke-width="0.25" fill="none" />
  <line x1="191.50" y1="90.91" x2="193.00" y2="90.91" stroke="#808080" stroke-width="0.25" fill="none" />
  <line x1="195.00" y1="90.91" x2="203.00" y2="90.91" stroke="#808080" stroke-width="0.25" fill="none" />
  <line x1="205.00" y1="90.91" x2="206.50" y2="90.91" stroke="#808080" stroke-width="0.25" fill="none" />
  <line x1="208.50" y1="90.91" x2="216.50" y2="90.91" stroke="#808080" stroke-width="0.25" fill="none" />
  <line x1="218.50" y1="90.91" x2="220.00" y2="90.91" stroke="#808080" stroke-width="0.25" fill="none" />
  <line x1="222.00" y1="90.91" x2="230.00" y2="90.91" stroke="#808080" stroke-width="0.25" fill="none" />
  <line x1="232.00" y1="90.91" x2="233.50" y2="90.91" stroke="#808080" stroke-width="0.25" fill="none" />
  <line x1="235.50" y1="90.91" x2="243.50" y2="90.91" stroke="#808080" stroke-width="0.25" fill="none" />
  <line x1="245.50" y1="90.91" x2="247.00" y2="90.91" stroke="#808080" stroke-width="0.25" fill="none" />
  <line x1="249.00" y1="90.91" x2="257.00" y2="90.91" stroke="#808080" stroke-width="0.25" fill="none" />
  <line x1="259.00" y1="90.91" x2="260.50" y2="90.91" stroke="#808080" stroke-width="0.25" fill="none" />
  <line x1="262.50" y1="90.91" x2="265.50" y2="90.91" stroke="#808080" stroke-width="0.25" fill="none" />
  <line x1="154.50" y1="161.91" x2="154.50" y2="153.91" stroke="#808080" stroke-width="0.25" fill="none" />
  <line x1="154.50" y1="151.91" x2="154.50" y2="150.41" stroke="#808080" stroke-width="0.25" fill="none" />
  <line x1="154.50" y1="148.41" x2="154.50" y2="140.41" stroke="#808080" stroke-width="0.25" fill="none" />
  <line x1="154.50" y1="138.41" x2="154.50" y2="136.91" stroke="#808080" stroke-width="0.25" fill="none" />
  <line x1="154.50" y1="134.91" x2="154.50" y2="126.91" stroke="#808080" stroke-width="0.25" fill="none" />
  <line x1="154.50" y1="124.91" x2="154.50" y2="123.41" stroke="#808080" stroke-width="0.25" fill="none" />
  <line x1="154.50" y1="121.41" x2="154.50" y2="113.41" stroke="#808080" stroke-width="0.25" fill="none" />
  <line x1="154.50" y1="111.41" x2="154.50" y2="109.91" stroke="#808080" stroke-width="0.25" fill="none" />
  <line x1="154.50" y1="107.91" x2="154.50" y2="99.91" stroke="#808080" stroke-width="0.25" fill="none" />
  <line x1="154.50" y1="97.91" x2="154.50" y2="96.41" stroke="#808080" stroke-width="0.25" fill="none" />
  <line x1="154.50" y1="94.41" x2="154.50" y2="90.91" stroke="#808080" stroke-width="0.25" fill="none" />
  <line x1="265.50" y1="161.91" x2="265.50" y2="153.91" stroke="#808080" stroke-width="0.25" fill="none" />
  <line x1="265.50" y1="151.91" x2="265.50" y2="150.41" stroke="#808080" stroke-width="0.25" fill="none" />
  <line x1="265.50" y1="148.41" x2="265.50" y2="140.41" stroke="#808080" stroke-width="0.25" fill="none" />
  <line x1="265.50" y1="138.41" x2="265.50" y2="136.91" stroke="#808080" stroke-width="0.25" fill="none" />
  <line x1="265.50" y1="134.91" x2="265.50" y2="126.91" stroke="#808080" stroke-width="0.25" fill="none" />
  <line x1="265.50" y1="124.91" x2="265.50" y2="123.41" stroke="#808080" stroke-width="0.25" fill="none" />
  <line x1="265.50" y1="121.41" x2="265.50" y2="113.41" stroke="#808080" stroke-width="0.25" fill="none" />
  <line x1="265.50" y1="111.41" x2="265.50" y2="109.91" stroke="#808080" stroke-width="0.25" fill="none" />
  <line x1="265.50" y1="107.91" x2="265.50" y2="99.91" stroke="#808080" stroke-width="0.25" fill="none" />
  <line x1="265.50" y1="97.91" x2="265.50" y2="96.41" stroke="#808080" stroke-width="0.25" fill="none" />
  <line x1="265.50" y1="94.41" x2="265.50" y2="90.91" stroke="#808080" stroke-width="0.25" fill="none" />
  <circle cx="178.00" cy="120.91" r="0.50" fill="rgb(0,0,0)" stroke="none" />
  <circle cx="214.00" cy="120.91" r="0.50" fill="rgb(0,0,0)" stroke="none" />
  <circle cx="246.00" cy="120.91" r="0.50" fill="rgb(0,0,0)" stroke="none" />
  <circle cx="259.95" cy="161.91" r="0.50" fill="rgb(0,0,0)" stroke="none" />
  <text x="13.00" y="264.40" font-family="Arial, Helvetica, sans-serif" font-size="3.0" fill="#000000">Electrical Installation</text>
  <text x="153.00" y="264.40" font-family="Arial, Helvetica, sans-serif" font-size="3.0" fill="#000000">LicenseKaki</text>
  <text x="225.00" y="263.80" font-family="Arial, Helvetica, sans-serif" font-size="3.5" fill="#000000"><tspan x="225.00">SINGLE LINE DIAGRAM</tspan><tspan x="225.00" dy="4.9">(SLD)</tspan></text>
  <text x="389.00" y="266.00" font-family="Arial, Helvetica, sans-serif" font-size="2.5" fill="#000000">DATE</text>
  <text x="365.00" y="278.00" font-family="Arial, Helvetica, sans-serif" font-size="2.5" fill="#000000"></text>
  <text x="394.00" y="278.80" font-family="Arial, Helvetica, sans-serif" font-size="3.5" fill="#000000">0</text>
  <text x="365.00" y="286.28" font-family="Arial, Helvetica, sans-serif" font-size="1.6" fill="#000000">SCALE : NTS</text>
  <text x="389.00" y="286.28" font-family="Arial, Helvetica, sans-serif" font-size="1.6" fill="#000000">SHEET : 1 OF 1</text>
</svg>