<svg xmlns="http://www.w3.org/2000/svg" viewBox="0 0 420.0 297.0" width="420.0mm" height="297.0mm">
  <rect width="420.0" height="297.0" fill="white" />
  <polygon points="10.00,287.00 410.00,287.00 410.00,10.00 10.00,10.00" stroke="#000000" stroke-width="0.25" fill="none" />
  <polygon points="10.00,287.00 410.00,287.00 410.00,255.00 10.00,255.00" stroke="#000000" stroke-width="0.25" fill="none" />
  <line x1="90.00" y1="255.00" x2="90.00" y2="287.00" stroke="#000000" stroke-width="0.25" fill="none" />
  <line x1="150.00" y1="255.00" x2="150.00" y2="287.00" stroke="#000000" stroke-width="0.25" fill="none" />
  <line x1="222.00" y1="255.00" x2="222.00" y2="287.00" stroke="#000000" stroke-width="0.25" fill="none" />
  <line x1="290.00" y1="255.00" x2="290.00" y2="287.00" stroke="#000000" stroke-width="0.25" fill="none" />
  <line x1="362.00" y1="255.00" x2="362.00" y2="287.00" stroke="#000000" stroke-width="0.25" fill="none" />
  <line x1="362.00" y1="270.00" x2="410.00" y2="270.00" stroke="#000000" stroke-width="0.25" fill="none" />
  <line x1="386.00" y1="255.00" x2="386.00" y2="287.00" stroke="#000000" stroke-width="0.25" fill="none" />
  <text x="12.00" y="258.94" font-family="Arial, Helvetica, sans-serif" font-size="1.8" fill="#000000">CLIENT / ADDRESS :</text>
  <text x="92.00" y="258.94" font-family="Arial, Helvetica, sans-serif" font-size="1.8" fill="#000000">MAIN CONTRACTOR :</text>
  <text x="152.00" y="258.94" font-family="Arial, Helvetica, sans-serif" font-size="1.8" fill="#000000">ELECTRICAL CONTRACTOR :</text>
  <text x="224.00" y="258.94" font-family="Arial, Helvetica, sans-serif" font-size="1.8" fill="#000000">DRAWING TITLE :</text>
  <text x="292.00" y="258.94" font-family="Arial, Helvetica, sans-serif" font-size="1.8" fill="#000000">LEW :</text>
  <text x="364.00" y="258.94" font-family="Arial, Helvetica, sans-serif" font-size="1.8" fill="#000000">CHECKED :</text>
  <text x="388.00" y="258.94" font-family="Arial, Helvetica, sans-serif" font-size="1.8" fill="#000000">DATE :</text>
  <text x="364.00" y="273.94" font-family="Arial, Helvetica, sans-serif" font-size="1.8" fill="#000000">DRAWING NO. :</text>
  <text x="388.00" y="273.94" font-family="Arial, Helvetica, sans-serif" font-size="1.8" fill="#000000">REV :</text>
  <circle cx="222.30" cy="189.01" r="0.70" stroke="#000000" stroke-width="0.25" fill="none" />
  <circle cx="216.70" cy="189.01" r="0.70" stroke="#000000" stroke-width="0.25" fill="none" />
  <polyline points="217.36,188.78 222.21,187.04" stroke="#000000" stroke-width="0.25" fill="none" />
  <text x="215.18" y="194.00" font-family="Arial, Helvetica, sans-serif" font-size="1.8" fill="#000000"><tspan x="215.18">63A DP</tspan><tspan x="215.18" dy="2.5">ISOLATOR</tspan></text>
  <polygon points="238.50,186.01 250.50,186.01 250.50,192.01 238.50,192.01" stroke="#000000" stroke-width="0.25" fill="none" />
  <text x="242.10" y="190.32" font-family="Arial, Helvetica, sans-serif" font-size="2.2" fill="#000000">KWH</text>
  <text x="234.50" y="183.95" font-family="Arial, Helvetica, sans-serif" font-size="2.8" fill="#000000">KWH METER BY SP</text>
  <path d="M 272.84,188.16 A 3.75,3.75 0 0,0 266.16,188.16" stroke="#000000" stroke-width="0.25" fill="none" />
  <circle cx="266.16" cy="189.20" r="0.66" stroke="#000000" stroke-width="0.25" fill="none" />
  <circle cx="272.84" cy="189.19" r="0.66" stroke="#000000" stroke-width="0.25" fill="none" />
  <line x1="265.50" y1="189.01" x2="263.50" y2="189.01" stroke="#000000" stroke-width="0.25" fill="none" />
  <line x1="273.50" y1="189.01" x2="275.50" y2="189.01" stroke="#000000" stroke-width="0.25" fill="none" />
  <text x="263.56" y="193.75" font-family="Arial, Helvetica, sans-serif" font-size="1.8" fill="#000000"><tspan x="263.56">63A DP MCB</tspan><tspan x="263.56" dy="2.5">TYPE B 10kA</tspan></text>
  <text x="296.50" y="188.25" font-family="Arial, Helvetica, sans-serif" font-size="2.8" fill="#000000">INCOMING FROM HDB ELECTRICAL RISER</text>
  <text x="287.50" y="199.85" font-family="Arial, Helvetica, sans-serif" font-size="2.8" fill="#000000"><tspan x="287.50">2 x 1C 16sqmm XLPE/PVC +</tspan><tspan x="287.50" dy="3.9">16sqmm PVC CPC</tspan></text>
  <text x="163.68" y="173.05" font-family="Arial, Helvetica, sans-serif" font-size="2.8" fill="#000000"><tspan x="163.68">2 x 1C 16sqmm XLPE/PVC +</tspan><tspan x="163.68" dy="3.9">16sqmm PVC CPC</tspan></text>
  <text x="213.00" y="202.23" font-family="Arial, Helvetica, sans-serif" font-size="2.8" fill="#000000">METER BOARD</text>
  <path d="M 210.85,149.55 A 3.75,3.75 0 0,0 210.85,142.87" stroke="#000000" stroke-width="0.25" fill="none" />
  <circle cx="209.81" cy="142.87" r="0.66" stroke="#000000" stroke-width="0.25" fill="none" />
  <circle cx="209.82" cy="149.55" r="0.66" stroke="#000000" stroke-width="0.25" fill="none" />
  <line x1="210.00" y1="150.21" x2="210.00" y2="152.21" stroke="#000000" stroke-width="0.25" fill="none" />
  <line x1="210.00" y1="142.21" x2="210.00" y2="140.21" stroke="#000000" stroke-width="0.25" fill="none" />
  <text x="213.85" y="145.65" font-family="Arial, Helvetica, sans-serif" font-size="1.8" fill="#000000">63A DP MCB (10KA)</text>
  <line x1="164.50" y1="135.21" x2="283.00" y2="135.21" stroke="#000000" stroke-width="0.50" fill="none" />
  <text x="167.50" y="140.45" font-family="Arial, Helvetica, sans-serif" font-size="2.8" fill="#000000">100A BUSBAR</text>
  <text x="179.50" y="133.47" font-family="Arial, Helvetica, sans-serif" font-size="2.2" fill="#000000" transform="rotate(-90.0,179.50,132.59)">S1</text>
  <path d="M 178.85,122.55 A 3.75,3.75 0 0,0 178.85,115.87" stroke="#000000" stroke-width="0.25" fill="none" />
  <circle cx="177.81" cy="115.87" r="0.66" stroke="#000000" stroke-width="0.25" fill="none" />
  <circle cx="177.82" cy="122.55" r="0.66" stroke="#000000" stroke-width="0.25" fill="none" />
  <line x1="178.00" y1="123.21" x2="178.00" y2="125.21" stroke="#000000" stroke-width="0.25" fill="none" />
  <line x1="178.00" y1="115.21" x2="178.00" y2="113.21" stroke="#000000" stroke-width="0.25" fill="none" />
  <line x1="174.89" y1="119.21" x2="180.89" y2="119.21" stroke="#000000" stroke-width="0.25" fill="none" />
  <line x1="180.89" y1="119.21" x2="179.69" y2="118.61" stroke="#000000" stroke-width="0.25" fill="none" />
  <line x1="180.89" y1="119.21" x2="179.69" y2="119.81" stroke="#000000" stroke-width="0.25" fill="none" />
  <text x="169.50" y="117.81" font-family="Arial, Helvetica, sans-serif" font-size="2.0" fill="#000000">B10A</text>
  <text x="169.50" y="120.31" font-family="Arial, Helvetica, sans-serif" font-size="2.0" fill="#000000">SPN</text>
  <text x="169.50" y="122.81" font-family="Arial, Helvetica, sans-serif" font-size="2.0" fill="#000000">MCB</text>
  <text x="169.50" y="125.31" font-family="Arial, Helvetica, sans-serif" font-size="2.0" fill="#000000">6kA</text>
  <text x="178.00" y="90.45" font-family="Arial, Helvetica, sans-serif" font-size="2.8" fill="#000000" transform="rotate(-90.0,178.00,89.33)">1 NO. LIGHTS</text>
  <text x="215.50" y="133.47" font-family="Arial, Helvetica, sans-serif" font-size="2.2" fill="#000000" transform="rotate(-90.0,215.50,132.59)">P1</text>
  <path d="M 214.85,122.55 A 3.75,3.75 0 0,0 214.85,115.87" stroke="#000000" stroke-width="0.25" fill="none" />
  <circle cx="213.81" cy="115.87" r="0.66" stroke="#000000" stroke-width="0.25" fill="none" />
  <circle cx="213.82" cy="122.55" r="0.66" stroke="#000000" stroke-width="0.25" fill="none" />
  <line x1="214.00" y1="123.21" x2="214.00" y2="125.21" stroke="#000000" stroke-width="0.25" fill="none" />
  <line x1="214.00" y1="115.21" x2="214.00" y2="113.21" stroke="#000000" stroke-width="0.25" fill="none" />
  <line x1="210.89" y1="119.21" x2="216.89" y2="119.21" stroke="#000000" stroke-width="0.25" fill="none" />
  <line x1="216.89" y1="119.21" x2="215.69" y2="118.61" stroke="#000000" stroke-width="0.25" fill="none" />
  <line x1="216.89" y1="119.21" x2="215.69" y2="119.81" stroke="#000000" stroke-width="0.25" fill="none" />
  <text x="205.50" y="117.81" font-family="Arial, Helvetica, sans-serif" font-size="2.0" fill="#000000">B20A</text>
  <text x="205.50" y="120.31" font-family="Arial, Helvetica, sans-serif" font-size="2.0" fill="#000000">SPN</text>
  <text x="205.50" y="122.81" font-family="Arial, Helvetica, sans-serif" font-size="2.0" fill="#000000">MCB</text>
  <text x="205.50" y="125.31" font-family="Arial, Helvetica, sans-serif" font-size="2.0" fill="#000000">6kA</text>
  <text x="214.00" y="90.45" font-family="Arial, Helvetica, sans-serif" font-size="2.8" fill="#000000" transform="rotate(-90.0,214.00,89.33)">1 NO. 13A S/S/O</text>
  <text x="247.50" y="133.47" font-family="Arial, Helvetica, sans-serif" font-size="2.2" fill="#000000" transform="rotate(-90.0,247.50,132.59)">SP1</text>
  <path d="M 246.85,122.55 A 3.75,3.75 0 0,0 246.85,115.87" stroke="#000000" stroke-width="0.25" fill="none" />
  <circle cx="245.81" cy="115.87" r="0.66" stroke="#000000" stroke-width="0.25" fill="none" />
  <circle cx="245.82" cy="122.55" r="0.66" stroke="#000000" stroke-width="0.25" fill="none" />
  <line x1="246.00" y1="123.21" x2="246.00" y2="125.21" stroke="#000000" stroke-width="0.25" fill="none" />
  <line x1="246.00" y1="115.21" x2="246.00" y2="113.21" stroke="#000000" stroke-width="0.25" fill="none" />
  <line x1="216.89" y1="119.21" x2="248.89" y2="119.21" stroke="#000000" stroke-width="0.25" fill="none" />
  <line x1="248.89" y1="119.21" x2="247.69" y2="118.61" stroke="#000000" stroke-width="0.25" fill="none" />
  <line x1="248.89" y1="119.21" x2="247.69" y2="119.81" stroke="#000000" stroke-width="0.25" fill="none" />
  <text x="246.00" y="90.45" font-family="Arial, Helvetica, sans-serif" font-size="2.8" fill="#000000" transform="rotate(-90.0,246.00,89.33)">SPARE</text>
  <text x="165.00" y="90.45" font-family="Arial, Helvetica, sans-serif" font-size="2.8" fill="#000000" transform="rotate(-90.0,165.00,89.33)">2C 1.5sqmm PVC + 1.5sqmm</text>
  <text x="168.92" y="90.45" font-family="Arial, Helvetica, sans-serif" font-size="2.8" fill="#000000" transform="rotate(-90.0,168.92,89.33)">PVC CPC IN METAL TRUNKING</text>
  <text x="224.00" y="90.45" font-family="Arial, Helvetica, sans-serif" font-size="2.8" fill="#000000" transform="rotate(-90.0,224.00,89.33)">2C 2.5sqmm PVC + 2.5sqmm</text>
  <text x="227.92" y="90.45" font-family="Arial, Helvetica, sans-serif" font-size="2.8" fill="#000000" transform="rotate(-90.0,227.92,89.33)">PVC CPC IN METAL TRUNKING</text>
  <text x="160.50" y="154.61" font-family="Arial, Helvetica, sans-serif" font-size="3.0" fill="#000000">63A DB</text>
  <text x="160.50" y="157.65" font-family="Arial, Helvetica, sans-serif" font-size="1.8" fill="#000000">APPROVED LOAD: 14 kVA</text>
  <line x1="259.95" y1="168.21" x2="259.95" y2="170.01" stroke="#000000" stroke-width="0.25" fill="none" />
  <line x1="257.70" y1="170.01" x2="262.20" y2="170.01" stroke="#000000" stroke-width="0.25" fill="none" />
  <line x1="258.45" y1="171.13" x2="261.45" y2="171.13" stroke="#000000" stroke-width="0.25" fill="none" />
  <line x1="259.20" y1="172.26" x2="260.70" y2="172.26" stroke="#000000" stroke-width="0.25" fill="none" />
  <text x="265.20" y="169.74" font-family="Arial, Helvetica, sans-serif" font-size="1.6" fill="#000000">E</text>
  <line x1="210.00" y1="189.01" x2="216.00" y2="189.01" stroke="#000000" stroke-width="0.25" fill="none" />
  <line x1="223.00" y1="189.01" x2="238.50" y2="189.01" stroke="#000000" stroke-width="0.25" fill="none" />
  <line x1="250.50" y1="189.01" x2="265.50" y2="189.01" stroke="#000000" stroke-width="0.25" fill="none" />
  <line x1="273.50" y1="189.01" x2="293.50" y2="189.01" stroke="#000000" stroke-width="0.25" fill="none" />
  <line x1="282.00" y1="190.51" x2="285.00" y2="187.51" stroke="#000000" stroke-width="0.25" fill="none" />
  <line x1="283.50" y1="189.01" x2="283.50" y2="199.01" stroke="#000000" stroke-width="0.25" fill="none" />
  <line x1="283.50" y1="199.01" x2="286.50" y2="199.01" stroke="#000000" stroke-width="0.25" fill="none" />
  <line x1="210.00" y1="189.01" x2="210.00" y2="164.21" stroke="#000000" stroke-width="0.25" fill="none" />
  <line x1="210.00" y1="172.21" x2="207.00" y2="172.21" stroke="#000000" stroke-width="0.25" fill="none" />
  <line x1="210.00" y1="164.21" x2="210.00" y2="150.21" stroke="#000000" stroke-width="0.25" fill="none" />
  <line x1="210.00" y1="140.21" x2="210.00" y2="135.21" stroke="#000000" stroke-width="0.25" fill="none" />
  <line x1="210.00" y1="137.21" x2="210.00" y2="135.21" stroke="#000000" stroke-width="0.25" fill="none" />
  <line x1="178.00" y1="135.21" x2="178.00" y2="123.21" stroke="#000000" stroke-width="0.25" fill="none" />
  <line x1="178.00" y1="113.21" x2="178.00" y2="90.21" stroke="#000000" stroke-width="0.25" fill="none" />
  <line x1="210.00" y1="135.21" x2="210.00" y2="123.21" stroke="#000000" stroke-width="0.25" fill="none" />
  <line x1="210.00" y1="113.21" x2="210.00" y2="90.21" stroke="#000000" stroke-width="0.25" fill="none" />
  <line x1="246.00" y1="135.21" x2="246.00" y2="123.21" stroke="#000000" stroke-width="0.25" fill="none" />
  <line x1="246.00" y1="113.21" x2="246.00" y2="90.21" stroke="#000000" stroke-width="0.25" fill="none" />
  <line x1="168.00" y1="95.21" x2="178.00" y2="95.21" stroke="#000000" stroke-width="0.25" fill="none" />
  <line x1="168.00" y1="95.21" x2="168.00" y2="90.21" stroke="#000000" stroke-width="0.25" fill="none" />
  <line x1="214.00" y1="95.21" x2="224.00" y2="95.21" stroke="#000000" stroke-width="0.25" fill="none" />
  <line x1="224.00" y1="95.21" x2="224.00" y2="90.21" stroke="#000000" stroke-width="0.25" fill="none" />
  <line x1="259.95" y1="160.21" x2="259.95" y2="168.21" stroke="#000000" stroke-width="0.25" fill="none" />
  <line x1="208.75" y1="173.46" x2="211.25" y2="170.96" stroke="#000000" stroke-width="0.50" fill="none" />
  <line x1="176.75" y1="96.46" x2="179.25" y2="93.96" stroke="#000000" stroke-width="0.50" fill="none" />
  <line x1="212.75" y1="96.46" x2="215.25" y2="93.96" stroke="#000000" stroke-width="0.50" fill="none" />
  <line x1="212.00" y1="203.79" x2="220.00" y2="203.79" stroke="#808080" stroke-width="0.25" fill="none" />
  <line x1="222.00" y1="203.79" x2="223.50" y2="203.79" stroke="#808080" stroke-width="0.25" fill="none" />
  <line x1="225.50" y1="203.79" x2="233.50" y2="203.79" stroke="#808080" stroke-width="0.25" fill="none" />
  <line x1="235.50" y1="203.79" x2="237.00" y2="203.79" stroke="#808080" stroke-width="0.25" fill="none" />
  <line x1="239.00" y1="203.79" x2="247.00" y2="203.79" stroke="#808080" stroke-width="0.25" fill="none" />
  <line x1="249.00" y1="203.79" x2="250.50" y2="203.79" stroke="#808080" stroke-width="0.25" fill="none" />
  <line x1="252.50" y1="203.79" x2="260.50" y2="203.79" stroke="#808080" stroke-width="0.25" fill="none" />
  <line x1="262.50" y1="203.79" x2="264.00" y2="203.79" stroke="#808080" stroke-width="0.25" fill="none" />
  <line x1="266.00" y1="203.79" x2="274.00" y2="203.79" stroke="#808080" stroke-width="0.25" fill="none" />
  <line x1="276.00" y1="203.79" x2="277.50" y2="203.79" stroke="#808080" stroke-width="0.25" fill="none" />
  <line x1="212.00" y1="180.21" x2="220.00" y2="180.21" stroke="#808080" stroke-width="0.25" fill="none" />
  <line x1="222.00" y1="180.21" x2="223.50" y2="180.21" stroke="#808080" stroke-width="0.25" fill="none" />
  <line x1="225.50" y1="180.21" x2="233.50" y2="180.21" stroke="#808080" stroke-width="0.25" fill="none" />
  <line x1="235.50" y1="180.21" x2="237.00" y2="180.21" stroke="#808080" stroke-width="0.25" fill="none" />
  <line x1="239.00" y1="180.21" x2="247.00" y2="180.21" stroke="#808080" stroke-width="0.25" fill="none" />
  <line x1="249.00" y1="180.21" x2="250.50" y2="180.21" stroke="#808080" stroke-width="0.25" fill="none" />
  <line x1="252.50" y1="180.21" x2="260.50" y2="180.21" stroke="#808080" stroke-width="0.25" fill="none" />
  <line x1="262.50" y1="180.21" x2="264.00" y2="180.21" stroke="#808080" stroke-width="0.25" fill="none" />
  <line x1="266.00" y1="180.21" x2="274.00" y2="180.21" stroke="#808080" stroke-width="0.25" fill="none" />
  <line x1="276.00" y1="180.21" x2="277.50" y2="180.21" stroke="#808080" stroke-width="0.25" fill="none" />
  <line x1="212.00" y1="203.79" x2="212.00" y2="195.79" stroke="#808080" stroke-width="0.25" fill="none" />
  <line x1="212.00" y1="193.79" x2="212.00" y2="192.29" stroke="#808080" stroke-width="0.25" fill="none" />
  <line x1="212.00" y1="190.29" x2="212.00" y2="182.29" stroke="#808080" stroke-width="0.25" fill="none" />
  <line x1="212.00" y1="180.29" x2="212.00" y2="180.21" stroke="#808080" stroke-width="0.25" fill="none" />
  <line x1="277.50" y1="203.79" x2="277.50" y2="195.79" stroke="#808080" stroke-width="0.25" fill="none" />
  <line x1="277.50" y1="193.79" x2="277.50" y2="192.29" stroke="#808080" stroke-width="0.25" fill="none" />
  <line x1="277.50" y1="190.29" x2="277.50" y2="182.29" stroke="#808080" stroke-width="0.25" fill="none" />
  <line x1="277.50" y1="180.29" x2="277.50" y2="180.21" stroke="#808080" stroke-width="0.25" fill="none" />
  <line x1="154.50" y1="160.21" x2="162.50" y2="160.21" stroke="#808080" stroke-width="0.25" fill="none" />
  <line x1="164.50" y1="160.21" x2="166.00" y2="160.21" stroke="#808080" stroke-width="0.25" fill="none" />
  <line x1="168.00" y1="160.21" x2="176.00" y2="160.21" stroke="#808080" stroke-width="0.25" fill="none" />
  <line x1="178.00" y1="160.21" x2="179.50" y2="160.21" stroke="#808080" stroke-width="0.25" fill="none" />
  <line x1="181.50" y1="160.21" x2="189.50" y2="160.21" stroke="#808080" stroke-width="0.25" fill="none" />
  <line x1="191.50" y1="160.21" x2="193.00" y2="160.21" stroke="#808080" stroke-width="0.25" fill="none" />
  <line x1="195.00" y1="160.21" x2="203.00" y2="160.21" stroke="#808080" stroke-width="0.25" fill="none" />
  <line x1="205.00" y1="160.21" x2="206.50" y2="160.21" stroke="#808080" stroke-width="0.25" fill="none" />
  <line x1="208.50" y1="160.21" x2="216.50" y2="160.21" stroke="#808080" stroke-width="0.25" fill="none" />
  <line x1="218.50" y1="160.21" x2="220.00" y2="160.21" stroke="#808080" stroke-width="0.25" fill="none" />
  <line x1="222.00" y1="160.21" x2="230.00" y2="160.21" stroke="#808080" stroke-width="0.25" fill="none" />
  <line x1="232.00" y1="160.21" x2="233.50" y2="160.21" stroke="#808080" stroke-width="0.25" fill="none" />
  <line x1="235.50" y1="160.21" x2="243.50" y2="160.21" stroke="#808080" stroke-width="0.25" fill="none" />
  <line x1="245.50" y1="160.21" x2="247.00" y2="160.21" stroke="#808080" stroke-width="0.25" fill="none" />
  <line x1="249.00" y1="160.21" x2="257.00" y2="160.21" stroke="#808080" stroke-width="0.25" fill="none" />
  <line x1="259.00" y1="160.21" x2="260.50" y2="160.21" stroke="#808080" stroke-width="0.25" fill="none" />
  <line x1="262.50" y1="160.21" x2="265.50" y2="160.21" stroke="#808080" stroke-width="0.25" fill="none" />
  <line x1="154.50" y1="105.21" x2="162.50" y2="105.21" stroke="#808080" stroke-width="0.25" fill="none" />
  <line x1="164.50" y1="105.21" x2="166.00" y2="105.21" stroke="#808080" stroke-width="0.25" fill="none" />
  <line x1="168.00" y1="105.21" x2="176.00" y2="105.21" stroke="#808080" stroke-width="0.25" fill="none" />
  <line x1="178.00" y1="105.21" x2="179.50" y2="105.21" stroke="#808080" stroke-width="0.25" fill="none" />
  <line x1="181.50" y1="105.21" x2="189.50" y2="105.21" stroke="#808080" stroke-width="0.25" fill="none" />
  <line x1="191.50" y1="105.21" x2="193.00" y2="105.21" stroke="#808080" stroke-width="0.25" fill="none" />
  <line x1="195.00" y1="105.21" x2="203.00" y2="105.21" stroke="#808080" stroke-width="0.25" fill="none" />
  <line x1="205.00" y1="105.21" x2="206.50" y2="105.21" stroke="#808080" stroke-width="0.25" fill="none" />
  <line x1="208.50" y1="105.21" x2="216.50" y2="105.21" stroke="#808080" stroke-width="0.25" fill="none" />
  <line x1="218.50" y1="105.21" x2="220.00" y2="105.21" stroke="#808080" stroke-width="0.25" fill="none" />
  <line x1="222.00" y1="105.21" x2="230.00" y2="105.21" stroke="#808080" stroke-width="0.25" fill="none" />
  <line x1="232.00" y1="105.21" x2="233.50" y2="105.21" stroke="#808080" stroke-width="0.25" fill="none" />
  <line x1="235.50" y1="105.21" x2="243.50" y2="105.21" stroke="#808080" stroke-width="0.25" fill="none" />
  <line x1="245.50" y1="105.21" x2="247.00" y2="105.21" stroke="#808080" stroke-width="0.25" fill="none" />
  <line x1="249.00" y1="105.21" x2="257.00" y2="105.21" stroke="#808080" stroke-width="0.25" fill="none" />
  <line x1="259.00" y1="105.21" x2="260.50" y2="105.21" stroke="#808080" stroke-width="0.25" fill="none" />
  <line x1="262.50" y1="105.21" x2="265.50" y2="105.21" stroke="#808080" stroke-width="0.25" fill="none" />
  <line x1="154.50" y1="160.21" x2="154.50" y2="152.21" stroke="#808080" stroke-width="0.25" fill="none" />
  <line x1="154.50" y1="150.21" x2="154.50" y2="148.71" stroke="#808080" stroke-width="0.25" fill="none" />
  <line x1="154.50" y1="146.71" x2="154.50" y2="138.71" stroke="#808080" stroke-width="0.25" fill="none" />
  <line x1="154.50" y1="136.71" x2="154.50" y2="135.21" stroke="#808080" stroke-width="0.25" fill="none" />
  <line x1="154.50" y1="133.21" x2="154.50" y2="125.21" stroke="#808080" stroke-width="0.25" fill="none" />
  <line x1="154.50" y1="123.21" x2="154.50" y2="121.71" stroke="#808080" stroke-width="0.25" fill="none" />
  <line x1="154.50" y1="119.71" x2="154.50" y2="111.71" stroke="#808080" stroke-width="0.25" fill="none" />
  <line x1="154.50" y1="109.71" x2="154.50" y2="108.21" stroke="#808080" stroke-width="0.25" fill="none" />
  <line x1="154.50" y1="106.21" x2="154.50" y2="105.21" stroke="#808080" stroke-width="0.25" fill="none" />
  <line x1="265.50" y1="160.21" x2="265.50" y2="152.21" stroke="#808080" stroke-width="0.25" fill="none" />
  <line x1="265.50" y1="150.21" x2="265.50" y2="148.71" stroke="#808080" stroke-width="0.25" fill="none" />
  <line x1="265.50" y1="146.71" x2="265.50" y2="138.71" stroke="#808080" stroke-width="0.25" fill="none" />
  <line x1="265.50" y1="136.71" x2="265.50" y2="135.21" stroke="#808080" stroke-width="0.25" fill="none" />
  <line x1="265.50" y1="133.21" x2="265.50" y2="125.21" stroke="#808080" stroke-width="0.25" fill="none" />
  <line x1="265.50" y1="123.21" x2="265.50" y2="121.71" stroke="#808080" stroke-width="0.25" fill="none" />
  <line x1="265.50" y1="119.71" x2="265.50" y2="111.71" stroke="#808080" stroke-width="0.25" fill="none" />
  <line x1="265.50" y1="109.71" x2="265.50" y2="108.21" stroke="#808080" stroke-width="0.25" fill="none" />
  <line x1="265.50" y1="106.21" x2="265.50" y2="105.21" stroke="#808080" stroke-width="0.25" fill="none" />
  <circle cx="178.00" cy="135.21" r="0.50" fill="rgb(0,0,0)" stroke="none" />
  <circle cx="214.00" cy="135.21" r="0.50" fill="rgb(0,0,0)" stroke="none" />
  <circle cx="246.00" cy="135.21" r="0.50" fill="rgb(0,0,0)" stroke="none" />
  <circle cx="259.95" cy="160.21" r="0.50" fill="rgb(0,0,0)" stroke="none" />
  <text x="13.00" y="264.40" font-family="Arial, Helvetica, sans-serif" font-size="3.0" fill="#000000">Electrical Installation</text>
  <text x="153.00" y="264.40" font-family="Arial, Helvetica, sans-serif" font-size="3.0" fill="#000000">LicenseKaki</text>
  <text x="225.00" y="263.80" font-family="Arial, Helvetica, sans-serif" font-size="3.5" fill="#000000"><tspan x="225.00">SINGLE LINE DIAGRAM</tspan><tspan x="225.00" dy="4.9">(SLD)</tspan></text>
  <text x="389.00" y="266.00" font-family="Arial, Helvetica, sans-serif" font-size="2.5" fill="#000000">DATE</text>
  <text x="365.00" y="278.00" font-family="Arial, Helvetica, sans-serif" font-size="2.5" fill="#000000"></text>
  <text x="394.00" y="278.80" font-family="Arial, Helvetica, sans-serif" font-size="3.5" fill="#000000">0</text>
  <text x="365.00" y="286.28" font-family="Arial, Helvetica, sans-serif" font-size="1.6" fill="#000000">SCALE : NTS</text>
  <text x="389.00" y="286.28" font-family="Arial, Helvetica, sans-serif" font-size="1.6" fill="#000000">SHEET : 1 OF 1</text>
</svg>