<svg xmlns="http://www.w3.org/2000/svg" viewBox="0 0 420.0 297.0" width="420.0mm" height="297.0mm">
  <rect width="420.0" height="297.0" fill="white" />
  <polygon points="10.00,287.00 410.00,287.00 410.00,10.00 10.00,10.00" stroke="#000000" stroke-width="0.25" fill="none" />
  <polygon points="10.00,287.00 410.00,287.00 410.00,255.00 10.00,255.00" stroke="#000000" stroke-width="0.25" fill="none" />
  <line x1="90.00" y1="255.00" x2="90.00" y2="287.00" stroke="#000000" stroke-width="0.25" fill="none" />
  <line x1="150.00" y1="255.00" x2="150.00" y2="287.00" stroke="#000000" stroke-width="0.25" fill="none" />
  <line x1="222.00" y1="255.00" x2="222.00" y2="287.00" stroke="#000000" stroke-width="0.25" fill="none" />
  <line x1="290.00" y1="255.00" x2="290.00" y2="287.00" stroke="#000000" stroke-width="0.25" fill="none" />
  <line x1="362.00" y1="255.00" x2="362.00" y2="287.00" stroke="#000000" stroke-width="0.25" fill="none" />
  <line x1="362.00" y1="270.00" x2="410.00" y2="270.00" stroke="#000000" stroke-width="0.25" fill="none" />
  <line x1="386.00" y1="255.00" x2="386.00" y2="287.00" stroke="#000000" stroke-width="0.25" fill="none" />
  <text x="12.00" y="258.94" font-family="Arial, Helvetica, sans-serif" font-size="1.8" fill="#000000">CLIENT / ADDRESS :</text>
  <text x="92.00" y="258.94" font-family="Arial, Helvetica, sans-serif" font-size="1.8" fill="#000000">MAIN CONTRACTOR :</text>
  <text x="152.00" y="258.94" font-family="Arial, Helvetica, sans-serif" font-size="1.8" fill="#000000">ELECTRICAL CONTRACTOR :</text>
  <text x="224.00" y="258.94" font-family="Arial, Helvetica, sans-serif" font-size="1.8" fill="#000000">DRAWING TITLE :</text>
  <text x="292.00" y="258.94" font-family="Arial, Helvetica, sans-serif" font-size="1.8" fill="#000000">LEW :</text>
  <text x="364.00" y="258.94" font-family="Arial, Helvetica, sans-serif" font-size="1.8" fill="#000000">CHECKED :</text>
  <text x="388.00" y="258.94" font-family="Arial, Helvetica, sans-serif" font-size="1.8" fill="#000000">DATE :</text>
  <text x="364.00" y="273.94" font-family="Arial, Helvetica, sans-serif" font-size="1.8" fill="#000000">DRAWING NO. :</text>
  <text x="388.00" y="273.94" font-family="Arial, Helvetica, sans-serif" font-size="1.8" fill="#000000">REV :</text>
  <circle cx="219.50" cy="184.51" r="3.50" stroke="#000000" stroke-width="0.25" fill="none" />
  <circle cx="247.57" cy="184.51" r="3.50" stroke="#000000" stroke-width="0.25" fill="none" />
  <polyline points="222.80,183.33 247.10,174.64" stroke="#000000" stroke-width="0.25" fill="none" />
  <text x="215.66" y="189.34" font-family="Arial, Helvetica, sans-serif" font-size="1.6" fill="#000000"><tspan x="215.66">63A DP</tspan><tspan x="215.66" dy="2.2">ISOLATOR</tspan></text>
  <polygon points="244.50,181.26 257.51,181.26 257.51,187.76 244.50,187.76" stroke="#000000" stroke-width="0.25" fill="none" />
  <text x="248.40" y="185.93" font-family="Arial, Helvetica, sans-serif" font-size="2.4" fill="#000000">KWH</text>
  <text x="234.50" y="179.70" font-family="Arial, Helvetica, sans-serif" font-size="2.8" fill="#000000">KWH METER BY SP</text>
  <path d="M 264.66,183.47 A 3.75,3.75 0 0,0 257.98,183.48" stroke="#000000" stroke-width="0.25" fill="none" />
  <circle cx="257.98" cy="184.52" r="0.66" stroke="#000000" stroke-width="0.25" fill="none" />
  <circle cx="264.66" cy="184.51" r="0.66" stroke="#000000" stroke-width="0.25" fill="none" />
  <text x="264.22" y="189.09" font-family="Arial, Helvetica, sans-serif" font-size="1.6" fill="#000000"><tspan x="264.22">63A DP MCB</tspan><tspan x="264.22" dy="2.2">TYPE B 10kA</tspan></text>
  <text x="298.50" y="183.75" font-family="Arial, Helvetica, sans-serif" font-size="2.8" fill="#000000">INCOMING FROM HDB ELECTRICAL RISER</text>
  <text x="289.50" y="195.35" font-family="Arial, Helvetica, sans-serif" font-size="2.8" fill="#000000"><tspan x="289.50">2 x 1C 16sqmm XLPE/PVC +</tspan><tspan x="289.50" dy="3.9">16sqmm PVC CPC</tspan></text>
  <text x="163.68" y="168.80" font-family="Arial, Helvetica, sans-serif" font-size="2.8" fill="#000000"><tspan x="163.68">2 x 1C 16sqmm XLPE/PVC +</tspan><tspan x="163.68" dy="3.9">16sqmm PVC CPC</tspan></text>
  <text x="213.00" y="197.48" font-family="Arial, Helvetica, sans-serif" font-size="2.8" fill="#000000">METER BOARD</text>
  <text x="227.75" y="204.28" font-family="Arial, Helvetica, sans-serif" font-size="2.8" fill="#000000">LOCATED AT METER COMPARTMENT</text>
  <path d="M 210.85,147.30 A 3.75,3.75 0 0,0 210.85,140.62" stroke="#000000" stroke-width="0.25" fill="none" />
  <circle cx="209.81" cy="140.62" r="0.66" stroke="#000000" stroke-width="0.25" fill="none" />
  <circle cx="209.82" cy="147.30" r="0.66" stroke="#000000" stroke-width="0.25" fill="none" />
  <text x="215.50" y="141.24" font-family="Arial, Helvetica, sans-serif" font-size="1.6" fill="#000000">63A DP MCB (10kA)</text>
  <line x1="164.50" y1="135.96" x2="255.50" y2="135.96" stroke="#000000" stroke-width="0.50" fill="none" />
  <text x="167.50" y="141.20" font-family="Arial, Helvetica, sans-serif" font-size="2.8" fill="#000000">100A COMB BAR</text>
  <text x="179.50" y="134.22" font-family="Arial, Helvetica, sans-serif" font-size="2.2" fill="#000000" transform="rotate(-90.0,179.50,132.46)">S1</text>
  <path d="M 178.85,125.30 A 3.75,3.75 0 0,0 178.85,118.62" stroke="#000000" stroke-width="0.25" fill="none" />
  <circle cx="177.81" cy="118.62" r="0.66" stroke="#000000" stroke-width="0.25" fill="none" />
  <circle cx="177.82" cy="125.30" r="0.66" stroke="#000000" stroke-width="0.25" fill="none" />
  <text x="169.50" y="118.56" font-family="Arial, Helvetica, sans-serif" font-size="2.0" fill="#000000">B10A</text>
  <text x="169.50" y="121.06" font-family="Arial, Helvetica, sans-serif" font-size="2.0" fill="#000000">SPN</text>
  <text x="169.50" y="123.56" font-family="Arial, Helvetica, sans-serif" font-size="2.0" fill="#000000">MCB</text>
  <text x="169.50" y="126.06" font-family="Arial, Helvetica, sans-serif" font-size="2.0" fill="#000000">6kA</text>
  <text x="178.00" y="91.20" font-family="Arial, Helvetica, sans-serif" font-size="2.8" fill="#000000" transform="rotate(-90.0,178.00,88.96)">1 no. Lights</text>
  <text x="215.50" y="134.22" font-family="Arial, Helvetica, sans-serif" font-size="2.2" fill="#000000" transform="rotate(-90.0,215.50,132.46)">P1</text>
  <path d="M 214.85,125.30 A 3.75,3.75 0 0,0 214.85,118.62" stroke="#000000" stroke-width="0.25" fill="none" />
  <circle cx="213.81" cy="118.62" r="0.66" stroke="#000000" stroke-width="0.25" fill="none" />
  <circle cx="213.82" cy="125.30" r="0.66" stroke="#000000" stroke-width="0.25" fill="none" />
  <text x="205.50" y="118.56" font-family="Arial, Helvetica, sans-serif" font-size="2.0" fill="#000000">B20A</text>
  <text x="205.50" y="121.06" font-family="Arial, Helvetica, sans-serif" font-size="2.0" fill="#000000">SPN</text>
  <text x="205.50" y="123.56" font-family="Arial, Helvetica, sans-serif" font-size="2.0" fill="#000000">MCB</text>
  <text x="205.50" y="126.06" font-family="Arial, Helvetica, sans-serif" font-size="2.0" fill="#000000">6kA</text>
  <text x="214.00" y="91.20" font-family="Arial, Helvetica, sans-serif" font-size="2.8" fill="#000000" transform="rotate(-90.0,214.00,88.96)">1 no. 13A S/S/O</text>
  <text x="247.50" y="134.22" font-family="Arial, Helvetica, sans-serif" font-size="2.2" fill="#000000" transform="rotate(-90.0,247.50,132.46)">SP1</text>
  <path d="M 246.85,125.30 A 3.75,3.75 0 0,0 246.85,118.62" stroke="#000000" stroke-width="0.25" fill="none" />
  <circle cx="245.81" cy="118.62" r="0.66" stroke="#000000" stroke-width="0.25" fill="none" />
  <circle cx="245.82" cy="125.30" r="0.66" stroke="#000000" stroke-width="0.25" fill="none" />
  <line x1="215.70" y1="119.97" x2="247.70" y2="119.97" stroke="#000000" stroke-width="0.25" fill="none" />
  <line x1="247.70" y1="119.97" x2="246.49" y2="120.56" stroke="#000000" stroke-width="0.25" fill="none" />
  <line x1="247.70" y1="119.97" x2="246.51" y2="119.36" stroke="#000000" stroke-width="0.25" fill="none" />
  <text x="246.00" y="91.20" font-family="Arial, Helvetica, sans-serif" font-size="2.8" fill="#000000" transform="rotate(-90.0,246.00,88.96)">SPARE</text>
  <text x="165.00" y="92.76" font-family="Arial, Helvetica, sans-serif" font-size="2.8" fill="#000000" transform="rotate(-90.0,165.00,92.76)">2C 1.5sqmm PVC + 1.5sqmm</text>
  <text x="168.92" y="92.76" font-family="Arial, Helvetica, sans-serif" font-size="2.8" fill="#000000" transform="rotate(-90.0,168.92,92.76)">PVC CPC IN METAL TRUNKING</text>
  <text x="224.00" y="92.76" font-family="Arial, Helvetica, sans-serif" font-size="2.8" fill="#000000" transform="rotate(-90.0,224.00,92.76)">2C 2.5sqmm PVC + 2.5sqmm</text>
  <text x="227.92" y="92.76" font-family="Arial, Helvetica, sans-serif" font-size="2.8" fill="#000000" transform="rotate(-90.0,227.92,92.76)">PVC CPC IN METAL TRUNKING</text>
  <text x="160.50" y="150.36" font-family="Arial, Helvetica, sans-serif" font-size="3.0" fill="#000000">63A DB</text>
  <text x="160.50" y="153.40" font-family="Arial, Helvetica, sans-serif" font-size="1.8" fill="#000000">APPROVED LOAD: 14 KVA AT 230V</text>
  <line x1="272.75" y1="156.46" x2="272.75" y2="158.26" stroke="#000000" stroke-width="0.25" fill="none" />
  <line x1="270.50" y1="158.26" x2="275.00" y2="158.26" stroke="#000000" stroke-width="0.25" fill="none" />
  <line x1="271.25" y1="159.38" x2="274.25" y2="159.38" stroke="#000000" stroke-width="0.25" fill="none" />
  <line x1="272.00" y1="160.51" x2="273.50" y2="160.51" stroke="#000000" stroke-width="0.25" fill="none" />
  <text x="279.00" y="157.99" font-family="Arial, Helvetica, sans-serif" font-size="1.6" fill="#000000">E</text>
  <line x1="210.00" y1="184.51" x2="214.00" y2="184.51" stroke="#000000" stroke-width="0.25" fill="none" />
  <line x1="225.00" y1="184.51" x2="242.50" y2="184.51" stroke="#000000" stroke-width="0.25" fill="none" />
  <line x1="254.30" y1="184.51" x2="263.50" y2="184.51" stroke="#000000" stroke-width="0.25" fill="none" />
  <line x1="275.50" y1="184.51" x2="295.50" y2="184.51" stroke="#000000" stroke-width="0.25" fill="none" />
  <line x1="284.00" y1="186.01" x2="287.00" y2="183.01" stroke="#000000" stroke-width="0.25" fill="none" />
  <line x1="285.50" y1="184.51" x2="285.50" y2="194.51" stroke="#000000" stroke-width="0.25" fill="none" />
  <line x1="285.50" y1="194.51" x2="288.50" y2="194.51" stroke="#000000" stroke-width="0.25" fill="none" />
  <line x1="210.00" y1="184.51" x2="210.00" y2="159.96" stroke="#000000" stroke-width="0.25" fill="none" />
  <line x1="210.00" y1="167.96" x2="207.00" y2="167.96" stroke="#000000" stroke-width="0.25" fill="none" />
  <line x1="210.00" y1="159.96" x2="210.00" y2="147.96" stroke="#000000" stroke-width="0.25" fill="none" />
  <line x1="210.00" y1="138.96" x2="210.00" y2="135.96" stroke="#000000" stroke-width="0.25" fill="none" />
  <line x1="178.00" y1="135.96" x2="178.00" y2="125.96" stroke="#000000" stroke-width="0.25" fill="none" />
  <line x1="178.00" y1="113.96" x2="178.00" y2="90.96" stroke="#000000" stroke-width="0.25" fill="none" />
  <line x1="210.00" y1="135.96" x2="210.00" y2="123.96" stroke="#000000" stroke-width="0.25" fill="none" />
  <line x1="210.00" y1="113.96" x2="210.00" y2="90.96" stroke="#000000" stroke-width="0.25" fill="none" />
  <line x1="246.00" y1="135.96" x2="246.00" y2="125.96" stroke="#000000" stroke-width="0.25" fill="none" />
  <line x1="246.00" y1="113.96" x2="246.00" y2="90.96" stroke="#000000" stroke-width="0.25" fill="none" />
  <line x1="168.00" y1="95.96" x2="178.00" y2="95.96" stroke="#000000" stroke-width="0.25" fill="none" />
  <line x1="168.00" y1="95.96" x2="168.00" y2="90.96" stroke="#000000" stroke-width="0.25" fill="none" />
  <line x1="214.00" y1="95.96" x2="224.00" y2="95.96" stroke="#000000" stroke-width="0.25" fill="none" />
  <line x1="224.00" y1="95.96" x2="224.00" y2="90.96" stroke="#000000" stroke-width="0.25" fill="none" />
  <line x1="265.50" y1="156.46" x2="273.25" y2="156.46" stroke="#000000" stroke-width="0.25" fill="none" />
  <line x1="208.75" y1="169.21" x2="211.25" y2="166.71" stroke="#000000" stroke-width="0.50" fill="none" />
  <line x1="176.75" y1="97.21" x2="179.25" y2="94.71" stroke="#000000" stroke-width="0.50" fill="none" />
  <line x1="212.75" y1="97.21" x2="215.25" y2="94.71" stroke="#000000" stroke-width="0.50" fill="none" />
  <line x1="212.00" y1="199.04" x2="220.00" y2="199.04" stroke="#000000" stroke-width="0.25" fill="none" />
  <line x1="222.00" y1="199.04" x2="223.50" y2="199.04" stroke="#000000" stroke-width="0.25" fill="none" />
  <line x1="225.50" y1="199.04" x2="233.50" y2="199.04" stroke="#000000" stroke-width="0.25" fill="none" />
  <line x1="235.50" y1="199.04" x2="237.00" y2="199.04" stroke="#000000" stroke-width="0.25" fill="none" />
  <line x1="239.00" y1="199.04" x2="247.00" y2="199.04" stroke="#000000" stroke-width="0.25" fill="none" />
  <line x1="249.00" y1="199.04" x2="250.50" y2="199.04" stroke="#000000" stroke-width="0.25" fill="none" />
  <line x1="252.50" y1="199.04" x2="260.50" y2="199.04" stroke="#000000" stroke-width="0.25" fill="none" />
  <line x1="262.50" y1="199.04" x2="264.00" y2="199.04" stroke="#000000" stroke-width="0.25" fill="none" />
  <line x1="266.00" y1="199.04" x2="274.00" y2="199.04" stroke="#000000" stroke-width="0.25" fill="none" />
  <line x1="276.00" y1="199.04" x2="277.50" y2="199.04" stroke="#000000" stroke-width="0.25" fill="none" />
  <line x1="212.00" y1="175.96" x2="220.00" y2="175.96" stroke="#000000" stroke-width="0.25" fill="none" />
  <line x1="222.00" y1="175.96" x2="223.50" y2="175.96" stroke="#000000" stroke-width="0.25" fill="none" />
  <line x1="225.50" y1="175.96" x2="233.50" y2="175.96" stroke="#000000" stroke-width="0.25" fill="none" />
  <line x1="235.50" y1="175.96" x2="237.00" y2="175.96" stroke="#000000" stroke-width="0.25" fill="none" />
  <line x1="239.00" y1="175.96" x2="247.00" y2="175.96" stroke="#000000" stroke-width="0.25" fill="none" />
  <line x1="249.00" y1="175.96" x2="250.50" y2="175.96" stroke="#000000" stroke-width="0.25" fill="none" />
  <line x1="252.50" y1="175.96" x2="260.50" y2="175.96" stroke="#000000" stroke-width="0.25" fill="none" />
  <line x1="262.50" y1="175.96" x2="264.00" y2="175.96" stroke="#000000" stroke-width="0.25" fill="none" />
  <line x1="266.00" y1="175.96" x2="274.00" y2="175.96" stroke="#000000" stroke-width="0.25" fill="none" />
  <line x1="276.00" y1="175.96" x2="277.50" y2="175.96" stroke="#000000" stroke-width="0.25" fill="none" />
  <line x1="212.00" y1="199.04" x2="212.00" y2="191.04" stroke="#000000" stroke-width="0.25" fill="none" />
  <line x1="212.00" y1="189.04" x2="212.00" y2="187.54" stroke="#000000" stroke-width="0.25" fill="none" />
  <line x1="212.00" y1="185.54" x2="212.00" y2="177.54" stroke="#000000" stroke-width="0.25" fill="none" />
  <line x1="279.50" y1="199.04" x2="279.50" y2="191.04" stroke="#000000" stroke-width="0.25" fill="none" />
  <line x1="279.50" y1="189.04" x2="279.50" y2="187.54" stroke="#000000" stroke-width="0.25" fill="none" />
  <line x1="279.50" y1="185.54" x2="279.50" y2="177.54" stroke="#000000" stroke-width="0.25" fill="none" />
  <line x1="154.50" y1="155.96" x2="162.50" y2="155.96" stroke="#000000" stroke-width="0.25" fill="none" />
  <line x1="164.50" y1="155.96" x2="166.00" y2="155.96" stroke="#000000" stroke-width="0.25" fill="none" />
  <line x1="168.00" y1="155.96" x2="176.00" y2="155.96" stroke="#000000" stroke-width="0.25" fill="none" />
  <line x1="178.00" y1="155.96" x2="179.50" y2="155.96" stroke="#000000" stroke-width="0.25" fill="none" />
  <line x1="181.50" y1="155.96" x2="189.50" y2="155.96" stroke="#000000" stroke-width="0.25" fill="none" />
  <line x1="191.50" y1="155.96" x2="193.00" y2="155.96" stroke="#000000" stroke-width="0.25" fill="none" />
  <line x1="195.00" y1="155.96" x2="203.00" y2="155.96" stroke="#000000" stroke-width="0.25" fill="none" />
  <line x1="205.00" y1="155.96" x2="206.50" y2="155.96" stroke="#000000" stroke-width="0.25" fill="none" />
  <line x1="208.50" y1="155.96" x2="216.50" y2="155.96" stroke="#000000" stroke-width="0.25" fill="none" />
  <line x1="218.50" y1="155.96" x2="220.00" y2="155.96" stroke="#000000" stroke-width="0.25" fill="none" />
  <line x1="222.00" y1="155.96" x2="230.00" y2="155.96" stroke="#000000" stroke-width="0.25" fill="none" />
  <line x1="232.00" y1="155.96" x2="233.50" y2="155.96" stroke="#000000" stroke-width="0.25" fill="none" />
  <line x1="235.50" y1="155.96" x2="243.50" y2="155.96" stroke="#000000" stroke-width="0.25" fill="none" />
  <line x1="245.50" y1="155.96" x2="247.00" y2="155.96" stroke="#000000" stroke-width="0.25" fill="none" />
  <line x1="249.00" y1="155.96" x2="257.00" y2="155.96" stroke="#000000" stroke-width="0.25" fill="none" />
  <line x1="259.00" y1="155.96" x2="260.50" y2="155.96" stroke="#000000" stroke-width="0.25" fill="none" />
  <line x1="262.50" y1="155.96" x2="265.50" y2="155.96" stroke="#000000" stroke-width="0.25" fill="none" />
  <line x1="154.50" y1="105.96" x2="162.50" y2="105.96" stroke="#000000" stroke-width="0.25" fill="none" />
  <line x1="164.50" y1="105.96" x2="166.00" y2="105.96" stroke="#000000" stroke-width="0.25" fill="none" />
  <line x1="168.00" y1="105.96" x2="176.00" y2="105.96" stroke="#000000" stroke-width="0.25" fill="none" />
  <line x1="178.00" y1="105.96" x2="179.50" y2="105.96" stroke="#000000" stroke-width="0.25" fill="none" />
  <line x1="181.50" y1="105.96" x2="189.50" y2="105.96" stroke="#000000" stroke-width="0.25" fill="none" />
  <line x1="191.50" y1="105.96" x2="193.00" y2="105.96" stroke="#000000" stroke-width="0.25" fill="none" />
  <line x1="195.00" y1="105.96" x2="203.00" y2="105.96" stroke="#000000" stroke-width="0.25" fill="none" />
  <line x1="205.00" y1="105.96" x2="206.50" y2="105.96" stroke="#000000" stroke-width="0.25" fill="none" />
  <line x1="208.50" y1="105.96" x2="216.50" y2="105.96" stroke="#000000" stroke-width="0.25" fill="none" />
  <line x1="218.50" y1="105.96" x2="220.00" y2="105.96" stroke="#000000" stroke-width="0.25" fill="none" />
  <line x1="222.00" y1="105.96" x2="230.00" y2="105.96" stroke="#000000" stroke-width="0.25" fill="none" />
  <line x1="232.00" y1="105.96" x2="233.50" y2="105.96" stroke="#000000" stroke-width="0.25" fill="none" />
  <line x1="235.50" y1="105.96" x2="243.50" y2="105.96" stroke="#000000" stroke-width="0.25" fill="none" />
  <line x1="245.50" y1="105.96" x2="247.00" y2="105.96" stroke="#000000" stroke-width="0.25" fill="none" />
  <line x1="249.00" y1="105.96" x2="257.00" y2="105.96" stroke="#000000" stroke-width="0.25" fill="none" />
  <line x1="259.00" y1="105.96" x2="260.50" y2="105.96" stroke="#000000" stroke-width="0.25" fill="none" />
  <line x1="262.50" y1="105.96" x2="265.50" y2="105.96" stroke="#000000" stroke-width="0.25" fill="none" />
  <line x1="154.50" y1="155.96" x2="154.50" y2="147.96" stroke="#000000" stroke-width="0.25" fill="none" />
  <line x1="154.50" y1="145.96" x2="154.50" y2="144.46" stroke="#000000" stroke-width="0.25" fill="none" />
  <line x1="154.50" y1="142.46" x2="154.50" y2="134.46" stroke="#000000" stroke-width="0.25" fill="none" />
  <line x1="154.50" y1="132.46" x2="154.50" y2="130.96" stroke="#000000" stroke-width="0.25" fill="none" />
  <line x1="154.50" y1="128.96" x2="154.50" y2="120.96" stroke="#000000" stroke-width="0.25" fill="none" />
  <line x1="154.50" y1="118.96" x2="154.50" y2="117.46" stroke="#000000" stroke-width="0.25" fill="none" />
  <line x1="154.50" y1="115.46" x2="154.50" y2="107.46" stroke="#000000" stroke-width="0.25" fill="none" />
  <line x1="265.50" y1="155.96" x2="265.50" y2="147.96" stroke="#000000" stroke-width="0.25" fill="none" />
  <line x1="265.50" y1="145.96" x2="265.50" y2="144.46" stroke="#000000" stroke-width="0.25" fill="none" />
  <line x1="265.50" y1="142.46" x2="265.50" y2="134.46" stroke="#000000" stroke-width="0.25" fill="none" />
  <line x1="265.50" y1="132.46" x2="265.50" y2="130.96" stroke="#000000" stroke-width="0.25" fill="none" />
  <line x1="265.50" y1="128.96" x2="265.50" y2="120.96" stroke="#000000" stroke-width="0.25" fill="none" />
  <line x1="265.50" y1="118.96" x2="265.50" y2="117.46" stroke="#000000" stroke-width="0.25" fill="none" />
  <line x1="265.50" y1="115.46" x2="265.50" y2="107.46" stroke="#000000" stroke-width="0.25" fill="none" />
  <circle cx="178.00" cy="135.96" r="0.50" fill="rgb(0,0,0)" stroke="none" />
  <circle cx="214.00" cy="135.96" r="0.50" fill="rgb(0,0,0)" stroke="none" />
  <circle cx="246.00" cy="135.96" r="0.50" fill="rgb(0,0,0)" stroke="none" />
  <circle cx="265.50" cy="156.46" r="0.50" fill="rgb(0,0,0)" stroke="none" />
  <text x="13.00" y="264.40" font-family="Arial, Helvetica, sans-serif" font-size="3.0" fill="#000000">Electrical Installation</text>
  <text x="153.00" y="264.40" font-family="Arial, Helvetica, sans-serif" font-size="3.0" fill="#000000">LicenseKaki</text>
  <text x="225.00" y="263.80" font-family="Arial, Helvetica, sans-serif" font-size="3.5" fill="#000000"><tspan x="225.00">SINGLE LINE DIAGRAM</tspan><tspan x="225.00" dy="4.9">(SLD)</tspan></text>
  <text x="389.00" y="266.00" font-family="Arial, Helvetica, sans-serif" font-size="2.5" fill="#000000">DATE</text>
  <text x="365.00" y="278.00" font-family="Arial, Helvetica, sans-serif" font-size="2.5" fill="#000000"></text>
  <text x="394.00" y="278.80" font-family="Arial, Helvetica, sans-serif" font-size="3.5" fill="#000000">0</text>
  <text x="365.00" y="286.28" font-family="Arial, Helvetica, sans-serif" font-size="1.6" fill="#000000">SCALE : NTS</text>
  <text x="389.00" y="286.28" font-family="Arial, Helvetica, sans-serif" font-size="1.6" fill="#000000">SHEET : 1 OF 1</text>
</svg>