<svg xmlns="http://www.w3.org/2000/svg" viewBox="0 0 420.0 297.0" width="420.0mm" height="297.0mm">
  <rect width="420.0" height="297.0" fill="white" />
  <polygon points="10.00,287.00 410.00,287.00 410.00,10.00 10.00,10.00" stroke="#000000" stroke-width="0.25" fill="none" />
  <polygon points="10.00,287.00 410.00,287.00 410.00,255.00 10.00,255.00" stroke="#000000" stroke-width="0.25" fill="none" />
  <line x1="90.00" y1="255.00" x2="90.00" y2="287.00" stroke="#000000" stroke-width="0.25" fill="none" />
  <line x1="150.00" y1="255.00" x2="150.00" y2="287.00" stroke="#000000" stroke-width="0.25" fill="none" />
  <line x1="222.00" y1="255.00" x2="222.00" y2="287.00" stroke="#000000" stroke-width="0.25" fill="none" />
  <line x1="290.00" y1="255.00" x2="290.00" y2="287.00" stroke="#000000" stroke-width="0.25" fill="none" />
  <line x1="362.00" y1="255.00" x2="362.00" y2="287.00" stroke="#000000" stroke-width="0.25" fill="none" />
  <line x1="362.00" y1="270.00" x2="410.00" y2="270.00" stroke="#000000" stroke-width="0.25" fill="none" />
  <line x1="386.00" y1="255.00" x2="386.00" y2="287.00" stroke="#000000" stroke-width="0.25" fill="none" />
  <text x="12.00" y="258.94" font-family="Arial, Helvetica, sans-serif" font-size="1.8" fill="#000000">CLIENT / ADDRESS :</text>
  <text x="92.00" y="258.94" font-family="Arial, Helvetica, sans-serif" font-size="1.8" fill="#000000">MAIN CONTRACTOR :</text>
  <text x="152.00" y="258.94" font-family="Arial, Helvetica, sans-serif" font-size="1.8" fill="#000000">ELECTRICAL CONTRACTOR :</text>
  <text x="224.00" y="258.94" font-family="Arial, Helvetica, sans-serif" font-size="1.8" fill="#000000">DRAWING TITLE :</text>
  <text x="292.00" y="258.94" font-family="Arial, Helvetica, sans-serif" font-size="1.8" fill="#000000">LEW :</text>
  <text x="364.00" y="258.94" font-family="Arial, Helvetica, sans-serif" font-size="1.8" fill="#000000">CHECKED :</text>
  <text x="388.00" y="258.94" font-family="Arial, Helvetica, sans-serif" font-size="1.8" fill="#000000">DATE :</text>
  <text x="364.00" y="273.94" font-family="Arial, Helvetica, sans-serif" font-size="1.8" fill="#000000">DRAWING NO. :</text>
  <text x="388.00" y="273.94" font-family="Arial, Helvetica, sans-serif" font-size="1.8" fill="#000000">REV :</text>
  <circle cx="222.30" cy="192.11" r="0.70" stroke="#000000" stroke-width="0.25" fill="none" />
  <circle cx="216.70" cy="192.11" r="0.70" stroke="#000000" stroke-width="0.25" fill="none" />
  <polyline points="217.36,191.88 222.21,190.14" stroke="#000000" stroke-width="0.25" fill="none" />
  <text x="215.18" y="197.10" font-family="Arial, Helvetica, sans-serif" font-size="1.8" fill="#000000"><tspan x="215.18">63A DP</tspan><tspan x="215.18" dy="2.5">ISOLATOR</tspan></text>
  <polygon points="238.50,189.11 250.50,189.11 250.50,195.11 238.50,195.11" stroke="#000000" stroke-width="0.25" fill="none" />
  <text x="240.84" y="195.03" font-family="Arial, Helvetica, sans-serif" font-size="2.2" fill="#000000">KWH</text>
  <text x="232.55" y="184.25" font-family="Arial, Helvetica, sans-serif" font-size="2.8" fill="#000000">KWH METER</text>
  <text x="238.74" y="187.55" font-family="Arial, Helvetica, sans-serif" font-size="2.8" fill="#000000">BY SP</text>
  <path d="M 272.84,191.26 A 3.75,3.75 0 0,0 266.16,191.26" stroke="#000000" stroke-width="0.25" fill="none" />
  <circle cx="266.16" cy="192.30" r="0.66" stroke="#000000" stroke-width="0.25" fill="none" />
  <circle cx="272.84" cy="192.29" r="0.66" stroke="#000000" stroke-width="0.25" fill="none" />
  <line x1="265.50" y1="192.11" x2="263.50" y2="192.11" stroke="#000000" stroke-width="0.25" fill="none" />
  <line x1="273.50" y1="192.11" x2="275.50" y2="192.11" stroke="#000000" stroke-width="0.25" fill="none" />
  <text x="263.56" y="196.85" font-family="Arial, Helvetica, sans-serif" font-size="1.8" fill="#000000"><tspan x="263.56">63A DP MCB</tspan><tspan x="263.56" dy="2.5">TYPE B 10kA</tspan></text>
  <text x="302.94" y="191.35" font-family="Arial, Helvetica, sans-serif" font-size="2.8" fill="#000000">INCOMING FROM HDB ELECTRICAL RISER</text>
  <text x="293.94" y="202.95" font-family="Arial, Helvetica, sans-serif" font-size="2.8" fill="#000000"><tspan x="293.94">2 x 1C 16sqmm XLPE/PVC +</tspan><tspan x="293.94" dy="3.9">16sqmm PVC CPC</tspan></text>
  <text x="213.00" y="205.33" font-family="Arial, Helvetica, sans-serif" font-size="2.8" fill="#000000">METER BOARD</text>
  <path d="M 210.85,149.85 A 3.75,3.75 0 0,0 210.85,143.17" stroke="#000000" stroke-width="0.25" fill="none" />
  <circle cx="209.81" cy="143.17" r="0.66" stroke="#000000" stroke-width="0.25" fill="none" />
  <circle cx="209.82" cy="149.85" r="0.66" stroke="#000000" stroke-width="0.25" fill="none" />
  <line x1="210.00" y1="150.51" x2="210.00" y2="152.51" stroke="#000000" stroke-width="0.25" fill="none" />
  <line x1="210.00" y1="142.51" x2="210.00" y2="140.51" stroke="#000000" stroke-width="0.25" fill="none" />
  <text x="213.85" y="145.95" font-family="Arial, Helvetica, sans-serif" font-size="1.8" fill="#000000">63A DP MCB (10KA)</text>
  <path d="M 211.17,134.77 A 4.22,4.22 0 0,0 211.17,127.25" stroke="#000000" stroke-width="0.25" fill="none" />
  <circle cx="209.99" cy="127.25" r="0.74" stroke="#000000" stroke-width="0.25" fill="none" />
  <circle cx="210.01" cy="134.77" r="0.74" stroke="#000000" stroke-width="0.25" fill="none" />
  <line x1="213.47" y1="131.01" x2="215.28" y2="131.01" stroke="#000000" stroke-width="0.25" fill="none" />
  <line x1="215.28" y1="132.65" x2="215.28" y2="129.37" stroke="#000000" stroke-width="0.25" fill="none" />
  <line x1="210.00" y1="135.51" x2="210.00" y2="137.51" stroke="#000000" stroke-width="0.25" fill="none" />
  <line x1="210.00" y1="126.51" x2="210.00" y2="124.51" stroke="#000000" stroke-width="0.25" fill="none" />
  <text x="216.01" y="130.45" font-family="Arial, Helvetica, sans-serif" font-size="1.8" fill="#000000"><tspan x="216.01">63A DP</tspan><tspan x="216.01" dy="2.5">RCCB </tspan><tspan x="216.01" dy="2.5">(30mA)</tspan></text>
  <line x1="137.00" y1="119.51" x2="283.00" y2="119.51" stroke="#000000" stroke-width="0.50" fill="none" />
  <text x="168.30" y="124.75" font-family="Arial, Helvetica, sans-serif" font-size="2.8" fill="#000000">100A BUSBAR</text>
  <text x="180.30" y="115.77" font-family="Arial, Helvetica, sans-serif" font-size="2.2" fill="#000000" transform="rotate(-90.0,180.30,114.89)">S1</text>
  <path d="M 179.65,106.85 A 3.75,3.75 0 0,0 179.65,100.17" stroke="#000000" stroke-width="0.25" fill="none" />
  <circle cx="178.61" cy="100.17" r="0.66" stroke="#000000" stroke-width="0.25" fill="none" />
  <circle cx="178.62" cy="106.85" r="0.66" stroke="#000000" stroke-width="0.25" fill="none" />
  <line x1="178.80" y1="107.51" x2="178.80" y2="109.51" stroke="#000000" stroke-width="0.25" fill="none" />
  <line x1="178.80" y1="99.51" x2="178.80" y2="97.51" stroke="#000000" stroke-width="0.25" fill="none" />
  <line x1="175.69" y1="103.51" x2="181.69" y2="103.51" stroke="#000000" stroke-width="0.25" fill="none" />
  <line x1="181.69" y1="103.51" x2="180.49" y2="102.91" stroke="#000000" stroke-width="0.25" fill="none" />
  <line x1="181.69" y1="103.51" x2="180.49" y2="104.11" stroke="#000000" stroke-width="0.25" fill="none" />
  <text x="170.30" y="102.11" font-family="Arial, Helvetica, sans-serif" font-size="2.0" fill="#000000"><tspan x="170.30">B10A</tspan><tspan x="170.30" dy="2.8">SPN</tspan><tspan x="170.30" dy="2.8">MCB</tspan><tspan x="170.30" dy="2.8">6kA</tspan></text>
  <text x="178.80" y="74.75" font-family="Arial, Helvetica, sans-serif" font-size="2.8" fill="#000000" transform="rotate(-90.0,178.80,73.63)">1 NO. LIGHTING</text>
  <text x="215.50" y="115.77" font-family="Arial, Helvetica, sans-serif" font-size="2.2" fill="#000000" transform="rotate(-90.0,215.50,114.89)">P1</text>
  <path d="M 214.85,106.85 A 3.75,3.75 0 0,0 214.85,100.17" stroke="#000000" stroke-width="0.25" fill="none" />
  <circle cx="213.81" cy="100.17" r="0.66" stroke="#000000" stroke-width="0.25" fill="none" />
  <circle cx="213.82" cy="106.85" r="0.66" stroke="#000000" stroke-width="0.25" fill="none" />
  <line x1="214.00" y1="107.51" x2="214.00" y2="109.51" stroke="#000000" stroke-width="0.25" fill="none" />
  <line x1="214.00" y1="99.51" x2="214.00" y2="97.51" stroke="#000000" stroke-width="0.25" fill="none" />
  <line x1="210.89" y1="103.51" x2="216.89" y2="103.51" stroke="#000000" stroke-width="0.25" fill="none" />
  <line x1="216.89" y1="103.51" x2="215.69" y2="102.91" stroke="#000000" stroke-width="0.25" fill="none" />
  <line x1="216.89" y1="103.51" x2="215.69" y2="104.11" stroke="#000000" stroke-width="0.25" fill="none" />
  <text x="205.50" y="102.11" font-family="Arial, Helvetica, sans-serif" font-size="2.0" fill="#000000"><tspan x="205.50">B20A</tspan><tspan x="205.50" dy="2.8">SPN</tspan><tspan x="205.50" dy="2.8">MCB</tspan><tspan x="205.50" dy="2.8">6kA</tspan></text>
  <text x="214.00" y="74.75" font-family="Arial, Helvetica, sans-serif" font-size="2.8" fill="#000000" transform="rotate(-90.0,214.00,73.63)">1 NO. 13A S/S/O</text>
  <text x="246.70" y="115.77" font-family="Arial, Helvetica, sans-serif" font-size="2.2" fill="#000000" transform="rotate(-90.0,246.70,114.89)">SP1</text>
  <path d="M 246.05,106.85 A 3.75,3.75 0 0,0 246.05,100.17" stroke="#000000" stroke-width="0.25" fill="none" />
  <circle cx="245.01" cy="100.17" r="0.66" stroke="#000000" stroke-width="0.25" fill="none" />
  <circle cx="245.02" cy="106.85" r="0.66" stroke="#000000" stroke-width="0.25" fill="none" />
  <line x1="245.20" y1="107.51" x2="245.20" y2="109.51" stroke="#000000" stroke-width="0.25" fill="none" />
  <line x1="245.20" y1="99.51" x2="245.20" y2="97.51" stroke="#000000" stroke-width="0.25" fill="none" />
  <line x1="216.89" y1="103.51" x2="248.09" y2="103.51" stroke="#000000" stroke-width="0.25" fill="none" />
  <line x1="248.09" y1="103.51" x2="246.89" y2="102.91" stroke="#000000" stroke-width="0.25" fill="none" />
  <line x1="248.09" y1="103.51" x2="246.89" y2="104.11" stroke="#000000" stroke-width="0.25" fill="none" />
  <text x="245.20" y="74.75" font-family="Arial, Helvetica, sans-serif" font-size="2.8" fill="#000000" transform="rotate(-90.0,245.20,73.63)">SPARE</text>
  <text x="167.40" y="74.75" font-family="Arial, Helvetica, sans-serif" font-size="2.8" fill="#000000" transform="rotate(-90.0,167.40,73.63)">2C 1.5sqmm PVC/PVC</text>
  <text x="222.60" y="74.75" font-family="Arial, Helvetica, sans-serif" font-size="2.8" fill="#000000" transform="rotate(-90.0,222.60,73.63)">2C 4.0sqmm PVC/PVC</text>
  <text x="161.30" y="154.91" font-family="Arial, Helvetica, sans-serif" font-size="3.0" fill="#000000">63A DB</text>
  <text x="161.30" y="157.95" font-family="Arial, Helvetica, sans-serif" font-size="1.8" fill="#000000">APPROVED LOAD: 14 KVA AT 230V</text>
  <line x1="259.23" y1="163.51" x2="259.23" y2="165.31" stroke="#000000" stroke-width="0.25" fill="none" />
  <line x1="256.98" y1="165.31" x2="261.48" y2="165.31" stroke="#000000" stroke-width="0.25" fill="none" />
  <line x1="257.73" y1="166.44" x2="260.73" y2="166.44" stroke="#000000" stroke-width="0.25" fill="none" />
  <line x1="258.48" y1="167.56" x2="259.98" y2="167.56" stroke="#000000" stroke-width="0.25" fill="none" />
  <text x="264.48" y="165.04" font-family="Arial, Helvetica, sans-serif" font-size="1.6" fill="#000000">E</text>
  <text x="138.96" y="173.35" font-family="Arial, Helvetica, sans-serif" font-size="2.8" fill="#000000"><tspan x="138.96">2 x 1C 16sqmm XLPE/PVC +</tspan><tspan x="138.96" dy="3.9">16sqmm PVC CPC</tspan></text>
  <line x1="210.00" y1="192.11" x2="216.00" y2="192.11" stroke="#000000" stroke-width="0.25" fill="none" />
  <line x1="223.00" y1="192.11" x2="238.50" y2="192.11" stroke="#000000" stroke-width="0.25" fill="none" />
  <line x1="250.50" y1="192.11" x2="265.50" y2="192.11" stroke="#000000" stroke-width="0.25" fill="none" />
  <line x1="273.50" y1="192.11" x2="299.94" y2="192.11" stroke="#000000" stroke-width="0.25" fill="none" />
  <line x1="289.94" y1="192.11" x2="289.94" y2="202.11" stroke="#000000" stroke-width="0.25" fill="none" />
  <line x1="210.00" y1="192.11" x2="210.00" y2="164.51" stroke="#000000" stroke-width="0.25" fill="none" />
  <line x1="210.00" y1="164.51" x2="210.00" y2="150.51" stroke="#000000" stroke-width="0.25" fill="none" />
  <line x1="210.00" y1="152.51" x2="210.00" y2="150.51" stroke="#000000" stroke-width="0.25" fill="none" />
  <line x1="210.00" y1="142.51" x2="210.00" y2="140.51" stroke="#000000" stroke-width="0.25" fill="none" />
  <line x1="210.00" y1="140.51" x2="210.00" y2="135.51" stroke="#000000" stroke-width="0.25" fill="none" />
  <line x1="210.00" y1="137.51" x2="210.00" y2="135.51" stroke="#000000" stroke-width="0.25" fill="none" />
  <line x1="210.00" y1="126.51" x2="210.00" y2="124.51" stroke="#000000" stroke-width="0.25" fill="none" />
  <line x1="210.00" y1="124.51" x2="210.00" y2="119.51" stroke="#000000" stroke-width="0.25" fill="none" />
  <line x1="178.80" y1="119.51" x2="178.80" y2="107.51" stroke="#000000" stroke-width="0.25" fill="none" />
  <line x1="178.80" y1="99.51" x2="178.80" y2="97.51" stroke="#000000" stroke-width="0.25" fill="none" />
  <line x1="178.80" y1="97.51" x2="178.80" y2="74.51" stroke="#000000" stroke-width="0.25" fill="none" />
  <line x1="210.00" y1="119.51" x2="210.00" y2="107.51" stroke="#000000" stroke-width="0.25" fill="none" />
  <line x1="210.00" y1="99.51" x2="210.00" y2="97.51" stroke="#000000" stroke-width="0.25" fill="none" />
  <line x1="210.00" y1="97.51" x2="210.00" y2="74.51" stroke="#000000" stroke-width="0.25" fill="none" />
  <line x1="245.20" y1="119.51" x2="245.20" y2="107.51" stroke="#000000" stroke-width="0.25" fill="none" />
  <line x1="245.20" y1="99.51" x2="245.20" y2="97.51" stroke="#000000" stroke-width="0.25" fill="none" />
  <line x1="245.20" y1="97.51" x2="245.20" y2="74.51" stroke="#000000" stroke-width="0.25" fill="none" />
  <line x1="168.80" y1="79.51" x2="168.80" y2="74.51" stroke="#000000" stroke-width="0.25" fill="none" />
  <line x1="224.00" y1="79.51" x2="224.00" y2="74.51" stroke="#000000" stroke-width="0.25" fill="none" />
  <line x1="259.23" y1="160.51" x2="259.23" y2="163.51" stroke="#000000" stroke-width="0.25" fill="none" />
  <line x1="288.44" y1="193.61" x2="291.44" y2="190.61" stroke="#000000" stroke-width="0.50" fill="none" />
  <line x1="208.75" y1="173.76" x2="211.25" y2="171.26" stroke="#000000" stroke-width="0.50" fill="none" />
  <line x1="177.55" y1="80.76" x2="180.05" y2="78.26" stroke="#000000" stroke-width="0.50" fill="none" />
  <line x1="212.75" y1="80.76" x2="215.25" y2="78.26" stroke="#000000" stroke-width="0.50" fill="none" />
  <line x1="289.94" y1="202.11" x2="292.94" y2="202.11" stroke="#000000" stroke-width="0.25" fill="none" />
  <line x1="210.00" y1="172.51" x2="198.00" y2="172.51" stroke="#000000" stroke-width="0.25" fill="none" />
  <line x1="168.80" y1="79.51" x2="178.80" y2="79.51" stroke="#000000" stroke-width="0.25" fill="none" />
  <line x1="214.00" y1="79.51" x2="224.00" y2="79.51" stroke="#000000" stroke-width="0.25" fill="none" />
  <line x1="212.00" y1="206.89" x2="220.00" y2="206.89" stroke="#808080" stroke-width="0.25" fill="none" />
  <line x1="222.00" y1="206.89" x2="223.50" y2="206.89" stroke="#808080" stroke-width="0.25" fill="none" />
  <line x1="225.50" y1="206.89" x2="233.50" y2="206.89" stroke="#808080" stroke-width="0.25" fill="none" />
  <line x1="235.50" y1="206.89" x2="237.00" y2="206.89" stroke="#808080" stroke-width="0.25" fill="none" />
  <line x1="239.00" y1="206.89" x2="247.00" y2="206.89" stroke="#808080" stroke-width="0.25" fill="none" />
  <line x1="249.00" y1="206.89" x2="250.50" y2="206.89" stroke="#808080" stroke-width="0.25" fill="none" />
  <line x1="252.50" y1="206.89" x2="260.50" y2="206.89" stroke="#808080" stroke-width="0.25" fill="none" />
  <line x1="262.50" y1="206.89" x2="264.00" y2="206.89" stroke="#808080" stroke-width="0.25" fill="none" />
  <line x1="266.00" y1="206.89" x2="274.00" y2="206.89" stroke="#808080" stroke-width="0.25" fill="none" />
  <line x1="276.00" y1="206.89" x2="277.50" y2="206.89" stroke="#808080" stroke-width="0.25" fill="none" />
  <line x1="279.50" y1="206.89" x2="284.94" y2="206.89" stroke="#808080" stroke-width="0.25" fill="none" />
  <line x1="212.00" y1="180.51" x2="220.00" y2="180.51" stroke="#808080" stroke-width="0.25" fill="none" />
  <line x1="222.00" y1="180.51" x2="223.50" y2="180.51" stroke="#808080" stroke-width="0.25" fill="none" />
  <line x1="225.50" y1="180.51" x2="233.50" y2="180.51" stroke="#808080" stroke-width="0.25" fill="none" />
  <line x1="235.50" y1="180.51" x2="237.00" y2="180.51" stroke="#808080" stroke-width="0.25" fill="none" />
  <line x1="239.00" y1="180.51" x2="247.00" y2="180.51" stroke="#808080" stroke-width="0.25" fill="none" />
  <line x1="249.00" y1="180.51" x2="250.50" y2="180.51" stroke="#808080" stroke-width="0.25" fill="none" />
  <line x1="252.50" y1="180.51" x2="260.50" y2="180.51" stroke="#808080" stroke-width="0.25" fill="none" />
  <line x1="262.50" y1="180.51" x2="264.00" y2="180.51" stroke="#808080" stroke-width="0.25" fill="none" />
  <line x1="266.00" y1="180.51" x2="274.00" y2="180.51" stroke="#808080" stroke-width="0.25" fill="none" />
  <line x1="276.00" y1="180.51" x2="277.50" y2="180.51" stroke="#808080" stroke-width="0.25" fill="none" />
  <line x1="279.50" y1="180.51" x2="284.94" y2="180.51" stroke="#808080" stroke-width="0.25" fill="none" />
  <line x1="212.00" y1="206.89" x2="212.00" y2="198.89" stroke="#808080" stroke-width="0.25" fill="none" />
  <line x1="212.00" y1="196.89" x2="212.00" y2="195.39" stroke="#808080" stroke-width="0.25" fill="none" />
  <line x1="212.00" y1="193.39" x2="212.00" y2="185.39" stroke="#808080" stroke-width="0.25" fill="none" />
  <line x1="212.00" y1="183.39" x2="212.00" y2="181.89" stroke="#808080" stroke-width="0.25" fill="none" />
  <line x1="284.94" y1="206.89" x2="284.94" y2="198.89" stroke="#808080" stroke-width="0.25" fill="none" />
  <line x1="284.94" y1="196.89" x2="284.94" y2="195.39" stroke="#808080" stroke-width="0.25" fill="none" />
  <line x1="284.94" y1="193.39" x2="284.94" y2="185.39" stroke="#808080" stroke-width="0.25" fill="none" />
  <line x1="284.94" y1="183.39" x2="284.94" y2="181.89" stroke="#808080" stroke-width="0.25" fill="none" />
  <line x1="155.30" y1="160.51" x2="163.30" y2="160.51" stroke="#808080" stroke-width="0.25" fill="none" />
  <line x1="165.30" y1="160.51" x2="166.80" y2="160.51" stroke="#808080" stroke-width="0.25" fill="none" />
  <line x1="168.80" y1="160.51" x2="176.80" y2="160.51" stroke="#808080" stroke-width="0.25" fill="none" />
  <line x1="178.80" y1="160.51" x2="180.30" y2="160.51" stroke="#808080" stroke-width="0.25" fill="none" />
  <line x1="182.30" y1="160.51" x2="190.30" y2="160.51" stroke="#808080" stroke-width="0.25" fill="none" />
  <line x1="192.30" y1="160.51" x2="193.80" y2="160.51" stroke="#808080" stroke-width="0.25" fill="none" />
  <line x1="195.80" y1="160.51" x2="203.80" y2="160.51" stroke="#808080" stroke-width="0.25" fill="none" />
  <line x1="205.80" y1="160.51" x2="207.30" y2="160.51" stroke="#808080" stroke-width="0.25" fill="none" />
  <line x1="209.30" y1="160.51" x2="217.30" y2="160.51" stroke="#808080" stroke-width="0.25" fill="none" />
  <line x1="219.30" y1="160.51" x2="220.80" y2="160.51" stroke="#808080" stroke-width="0.25" fill="none" />
  <line x1="222.80" y1="160.51" x2="230.80" y2="160.51" stroke="#808080" stroke-width="0.25" fill="none" />
  <line x1="232.80" y1="160.51" x2="234.30" y2="160.51" stroke="#808080" stroke-width="0.25" fill="none" />
  <line x1="236.30" y1="160.51" x2="244.30" y2="160.51" stroke="#808080" stroke-width="0.25" fill="none" />
  <line x1="246.30" y1="160.51" x2="247.80" y2="160.51" stroke="#808080" stroke-width="0.25" fill="none" />
  <line x1="249.80" y1="160.51" x2="257.80" y2="160.51" stroke="#808080" stroke-width="0.25" fill="none" />
  <line x1="259.80" y1="160.51" x2="261.30" y2="160.51" stroke="#808080" stroke-width="0.25" fill="none" />
  <line x1="263.30" y1="160.51" x2="264.70" y2="160.51" stroke="#808080" stroke-width="0.25" fill="none" />
  <line x1="155.30" y1="89.51" x2="163.30" y2="89.51" stroke="#808080" stroke-width="0.25" fill="none" />
  <line x1="165.30" y1="89.51" x2="166.80" y2="89.51" stroke="#808080" stroke-width="0.25" fill="none" />
  <line x1="168.80" y1="89.51" x2="176.80" y2="89.51" stroke="#808080" stroke-width="0.25" fill="none" />
  <line x1="178.80" y1="89.51" x2="180.30" y2="89.51" stroke="#808080" stroke-width="0.25" fill="none" />
  <line x1="182.30" y1="89.51" x2="190.30" y2="89.51" stroke="#808080" stroke-width="0.25" fill="none" />
  <line x1="192.30" y1="89.51" x2="193.80" y2="89.51" stroke="#808080" stroke-width="0.25" fill="none" />
  <line x1="195.80" y1="89.51" x2="203.80" y2="89.51" stroke="#808080" stroke-width="0.25" fill="none" />
  <line x1="205.80" y1="89.51" x2="207.30" y2="89.51" stroke="#808080" stroke-width="0.25" fill="none" />
  <line x1="209.30" y1="89.51" x2="217.30" y2="89.51" stroke="#808080" stroke-width="0.25" fill="none" />
  <line x1="219.30" y1="89.51" x2="220.80" y2="89.51" stroke="#808080" stroke-width="0.25" fill="none" />
  <line x1="222.80" y1="89.51" x2="230.80" y2="89.51" stroke="#808080" stroke-width="0.25" fill="none" />
  <line x1="232.80" y1="89.51" x2="234.30" y2="89.51" stroke="#808080" stroke-width="0.25" fill="none" />
  <line x1="236.30" y1="89.51" x2="244.30" y2="89.51" stroke="#808080" stroke-width="0.25" fill="none" />
  <line x1="246.30" y1="89.51" x2="247.80" y2="89.51" stroke="#808080" stroke-width="0.25" fill="none" />
  <line x1="249.80" y1="89.51" x2="257.80" y2="89.51" stroke="#808080" stroke-width="0.25" fill="none" />
  <line x1="259.80" y1="89.51" x2="261.30" y2="89.51" stroke="#808080" stroke-width="0.25" fill="none" />
  <line x1="263.30" y1="89.51" x2="264.70" y2="89.51" stroke="#808080" stroke-width="0.25" fill="none" />
  <line x1="155.30" y1="160.51" x2="155.30" y2="152.51" stroke="#808080" stroke-width="0.25" fill="none" />
  <line x1="155.30" y1="150.51" x2="155.30" y2="149.01" stroke="#808080" stroke-width="0.25" fill="none" />
  <line x1="155.30" y1="147.01" x2="155.30" y2="139.01" stroke="#808080" stroke-width="0.25" fill="none" />
  <line x1="155.30" y1="137.01" x2="155.30" y2="135.51" stroke="#808080" stroke-width="0.25" fill="none" />
  <line x1="155.30" y1="133.51" x2="155.30" y2="125.51" stroke="#808080" stroke-width="0.25" fill="none" />
  <line x1="155.30" y1="123.51" x2="155.30" y2="122.01" stroke="#808080" stroke-width="0.25" fill="none" />
  <line x1="155.30" y1="120.01" x2="155.30" y2="112.01" stroke="#808080" stroke-width="0.25" fill="none" />
  <line x1="155.30" y1="110.01" x2="155.30" y2="108.51" stroke="#808080" stroke-width="0.25" fill="none" />
  <line x1="155.30" y1="106.51" x2="155.30" y2="98.51" stroke="#808080" stroke-width="0.25" fill="none" />
  <line x1="155.30" y1="96.51" x2="155.30" y2="95.01" stroke="#808080" stroke-width="0.25" fill="none" />
  <line x1="155.30" y1="93.01" x2="155.30" y2="89.51" stroke="#808080" stroke-width="0.25" fill="none" />
  <line x1="264.70" y1="160.51" x2="264.70" y2="152.51" stroke="#808080" stroke-width="0.25" fill="none" />
  <line x1="264.70" y1="150.51" x2="264.70" y2="149.01" stroke="#808080" stroke-width="0.25" fill="none" />
  <line x1="264.70" y1="147.01" x2="264.70" y2="139.01" stroke="#808080" stroke-width="0.25" fill="none" />
  <line x1="264.70" y1="137.01" x2="264.70" y2="135.51" stroke="#808080" stroke-width="0.25" fill="none" />
  <line x1="264.70" y1="133.51" x2="264.70" y2="125.51" stroke="#808080" stroke-width="0.25" fill="none" />
  <line x1="264.70" y1="123.51" x2="264.70" y2="122.01" stroke="#808080" stroke-width="0.25" fill="none" />
  <line x1="264.70" y1="120.01" x2="264.70" y2="112.01" stroke="#808080" stroke-width="0.25" fill="none" />
  <line x1="264.70" y1="110.01" x2="264.70" y2="108.51" stroke="#808080" stroke-width="0.25" fill="none" />
  <line x1="264.70" y1="106.51" x2="264.70" y2="98.51" stroke="#808080" stroke-width="0.25" fill="none" />
  <line x1="264.70" y1="96.51" x2="264.70" y2="95.01" stroke="#808080" stroke-width="0.25" fill="none" />
  <line x1="264.70" y1="93.01" x2="264.70" y2="89.51" stroke="#808080" stroke-width="0.25" fill="none" />
  <circle cx="178.80" cy="119.51" r="0.50" fill="rgb(0,0,0)" stroke="none" />
  <circle cx="214.00" cy="119.51" r="0.50" fill="rgb(0,0,0)" stroke="none" />
  <circle cx="245.20" cy="119.51" r="0.50" fill="rgb(0,0,0)" stroke="none" />
  <circle cx="259.23" cy="160.51" r="0.50" fill="rgb(0,0,0)" stroke="none" />
  <text x="13.00" y="264.40" font-family="Arial, Helvetica, sans-serif" font-size="3.0" fill="#000000">Electrical Installation</text>
  <text x="153.00" y="264.40" font-family="Arial, Helvetica, sans-serif" font-size="3.0" fill="#000000">LicenseKaki</text>
  <text x="225.00" y="263.80" font-family="Arial, Helvetica, sans-serif" font-size="3.5" fill="#000000"><tspan x="225.00">SINGLE LINE DIAGRAM</tspan><tspan x="225.00" dy="4.9">(SLD)</tspan></text>
  <text x="389.00" y="266.00" font-family="Arial, Helvetica, sans-serif" font-size="2.5" fill="#000000">DATE</text>
  <text x="365.00" y="278.00" font-family="Arial, Helvetica, sans-serif" font-size="2.5" fill="#000000"></text>
  <text x="394.00" y="278.80" font-family="Arial, Helvetica, sans-serif" font-size="3.5" fill="#000000">0</text>
  <text x="365.00" y="286.28" font-family="Arial, Helvetica, sans-serif" font-size="1.6" fill="#000000">SCALE : NTS</text>
  <text x="389.00" y="286.28" font-family="Arial, Helvetica, sans-serif" font-size="1.6" fill="#000000">SHEET : 1 OF 1</text>
</svg>