<svg xmlns="http://www.w3.org/2000/svg" viewBox="0 0 420.0 297.0" width="420.0mm" height="297.0mm">
  <rect width="420.0" height="297.0" fill="white" />
  <polygon points="10.00,287.00 410.00,287.00 410.00,10.00 10.00,10.00" stroke="#000000" stroke-width="0.25" fill="none" />
  <polygon points="10.00,287.00 410.00,287.00 410.00,255.00 10.00,255.00" stroke="#000000" stroke-width="0.25" fill="none" />
  <line x1="90.00" y1="255.00" x2="90.00" y2="287.00" stroke="#000000" stroke-width="0.25" fill="none" />
  <line x1="150.00" y1="255.00" x2="150.00" y2="287.00" stroke="#000000" stroke-width="0.25" fill="none" />
  <line x1="222.00" y1="255.00" x2="222.00" y2="287.00" stroke="#000000" stroke-width="0.25" fill="none" />
  <line x1="290.00" y1="255.00" x2="290.00" y2="287.00" stroke="#000000" stroke-width="0.25" fill="none" />
  <line x1="362.00" y1="255.00" x2="362.00" y2="287.00" stroke="#000000" stroke-width="0.25" fill="none" />
  <line x1="362.00" y1="270.00" x2="410.00" y2="270.00" stroke="#000000" stroke-width="0.25" fill="none" />
  <line x1="386.00" y1="255.00" x2="386.00" y2="287.00" stroke="#000000" stroke-width="0.25" fill="none" />
  <text x="12.00" y="258.94" font-family="Arial, Helvetica, sans-serif" font-size="1.8" fill="#000000">CLIENT / ADDRESS :</text>
  <text x="92.00" y="258.94" font-family="Arial, Helvetica, sans-serif" font-size="1.8" fill="#000000">MAIN CONTRACTOR :</text>
  <text x="152.00" y="258.94" font-family="Arial, Helvetica, sans-serif" font-size="1.8" fill="#000000">ELECTRICAL CONTRACTOR :</text>
  <text x="224.00" y="258.94" font-family="Arial, Helvetica, sans-serif" font-size="1.8" fill="#000000">DRAWING TITLE :</text>
  <text x="292.00" y="258.94" font-family="Arial, Helvetica, sans-serif" font-size="1.8" fill="#000000">LEW :</text>
  <text x="364.00" y="258.94" font-family="Arial, Helvetica, sans-serif" font-size="1.8" fill="#000000">CHECKED :</text>
  <text x="388.00" y="258.94" font-family="Arial, Helvetica, sans-serif" font-size="1.8" fill="#000000">DATE :</text>
  <text x="364.00" y="273.94" font-family="Arial, Helvetica, sans-serif" font-size="1.8" fill="#000000">DRAWING NO. :</text>
  <text x="388.00" y="273.94" font-family="Arial, Helvetica, sans-serif" font-size="1.8" fill="#000000">REV :</text>
  <text x="217.00" y="203.19" font-family="Arial, Helvetica, sans-serif" font-size="2.8" fill="#000000">SUPPLY FROM BUILDING RISER</text>
  <text x="166.26" y="194.09" font-family="Arial, Helvetica, sans-serif" font-size="2.8" fill="#000000"><tspan x="166.26">2 x 1C 10sqmm PVC/PVC +</tspan><tspan x="166.26" dy="3.9">10sqmm PVC CPC</tspan></text>
  <polygon points="204.50,187.95 215.50,187.95 215.50,174.95 204.50,174.95" stroke="#000000" stroke-width="0.25" fill="none" />
  <circle cx="210.00" cy="178.45" r="0.55" stroke="#000000" stroke-width="0.25" fill="none" />
  <line x1="210.00" y1="179.00" x2="213.00" y2="184.45" stroke="#000000" stroke-width="0.25" fill="none" />
  <circle cx="210.00" cy="184.45" r="0.55" stroke="#000000" stroke-width="0.25" fill="none" />
  <line x1="210.00" y1="177.90" x2="210.00" y2="176.45" stroke="#000000" stroke-width="0.25" fill="none" />
  <line x1="210.00" y1="186.45" x2="210.00" y2="185.00" stroke="#000000" stroke-width="0.25" fill="none" />
  <line x1="210.00" y1="176.45" x2="210.00" y2="173.45" stroke="#000000" stroke-width="0.25" fill="none" />
  <line x1="210.00" y1="186.45" x2="210.00" y2="189.45" stroke="#000000" stroke-width="0.25" fill="none" />
  <text x="170.52" y="183.19" font-family="Arial, Helvetica, sans-serif" font-size="2.8" fill="#000000"><tspan x="170.52">40A DP ISOLATOR</tspan><tspan x="170.52" dy="3.9">(LOCATED INSIDE UNIT)</tspan></text>
  <circle cx="210.00" cy="154.45" r="0.50" stroke="#000000" stroke-width="0.25" fill="none" />
  <circle cx="210.00" cy="149.45" r="0.50" stroke="#000000" stroke-width="0.25" fill="none" />
  <path d="M 210.60,154.38 A 2.50,2.50 0 0,0 210.64,149.53" stroke="#000000" stroke-width="0.25" fill="none" />
  <line x1="210.00" y1="148.95" x2="210.00" y2="145.45" stroke="#000000" stroke-width="0.25" fill="none" />
  <line x1="210.00" y1="158.45" x2="210.00" y2="154.95" stroke="#000000" stroke-width="0.25" fill="none" />
  <line x1="210.00" y1="145.45" x2="210.00" y2="142.45" stroke="#000000" stroke-width="0.25" fill="none" />
  <line x1="210.00" y1="158.45" x2="210.00" y2="161.45" stroke="#000000" stroke-width="0.25" fill="none" />
  <text x="216.60" y="151.79" font-family="Arial, Helvetica, sans-serif" font-size="2.3" fill="#000000">40A DP MCB (10KA)</text>
  <circle cx="210.00" cy="137.95" r="0.55" stroke="#000000" stroke-width="0.25" fill="none" />
  <circle cx="210.00" cy="131.95" r="0.55" stroke="#000000" stroke-width="0.25" fill="none" />
  <path d="M 211.37,137.62 A 3.00,3.00 0 0,0 211.37,132.28" stroke="#000000" stroke-width="0.25" fill="none" />
  <line x1="210.00" y1="131.40" x2="210.00" y2="127.45" stroke="#000000" stroke-width="0.25" fill="none" />
  <line x1="210.00" y1="142.45" x2="210.00" y2="138.50" stroke="#000000" stroke-width="0.25" fill="none" />
  <line x1="213.00" y1="134.95" x2="214.29" y2="134.95" stroke="#000000" stroke-width="0.25" fill="none" />
  <line x1="214.29" y1="136.12" x2="214.29" y2="133.78" stroke="#000000" stroke-width="0.25" fill="none" />
  <line x1="210.00" y1="127.45" x2="210.00" y2="124.45" stroke="#000000" stroke-width="0.25" fill="none" />
  <line x1="210.00" y1="142.45" x2="210.00" y2="145.45" stroke="#000000" stroke-width="0.25" fill="none" />
  <text x="218.00" y="134.79" font-family="Arial, Helvetica, sans-serif" font-size="2.3" fill="#000000">40A DP RCCB (30mA)</text>
  <line x1="179.30" y1="124.45" x2="240.70" y2="124.45" stroke="#000000" stroke-width="0.50" fill="none" />
  <text x="182.30" y="129.69" font-family="Arial, Helvetica, sans-serif" font-size="2.8" fill="#000000">100A COMB BAR</text>
  <text x="195.40" y="122.71" font-family="Arial, Helvetica, sans-serif" font-size="2.2" fill="#000000" transform="rotate(-90.0,195.40,120.95)">S1</text>
  <circle cx="193.90" cy="108.45" r="0.50" stroke="#000000" stroke-width="0.25" fill="none" />
  <circle cx="193.90" cy="103.45" r="0.50" stroke="#000000" stroke-width="0.25" fill="none" />
  <path d="M 194.50,108.38 A 2.50,2.50 0 0,0 194.54,103.53" stroke="#000000" stroke-width="0.25" fill="none" />
  <line x1="190.40" y1="105.92" x2="196.40" y2="105.97" stroke="#000000" stroke-width="0.25" fill="none" />
  <line x1="196.40" y1="105.97" x2="195.19" y2="106.56" stroke="#000000" stroke-width="0.25" fill="none" />
  <line x1="196.40" y1="105.97" x2="195.21" y2="105.36" stroke="#000000" stroke-width="0.25" fill="none" />
  <line x1="193.90" y1="102.95" x2="193.90" y2="99.45" stroke="#000000" stroke-width="0.25" fill="none" />
  <line x1="193.90" y1="112.45" x2="193.90" y2="108.95" stroke="#000000" stroke-width="0.25" fill="none" />
  <line x1="193.90" y1="99.45" x2="193.90" y2="96.45" stroke="#000000" stroke-width="0.25" fill="none" />
  <line x1="193.90" y1="112.45" x2="193.90" y2="115.45" stroke="#000000" stroke-width="0.25" fill="none" />
  <text x="184.30" y="102.05" font-family="Arial, Helvetica, sans-serif" font-size="2.0" fill="#000000">B10A</text>
  <text x="184.30" y="104.55" font-family="Arial, Helvetica, sans-serif" font-size="2.0" fill="#000000">SPN</text>
  <text x="184.30" y="107.05" font-family="Arial, Helvetica, sans-serif" font-size="2.0" fill="#000000">MCB</text>
  <text x="184.30" y="109.55" font-family="Arial, Helvetica, sans-serif" font-size="2.0" fill="#000000">6kA</text>
  <text x="193.90" y="73.69" font-family="Arial, Helvetica, sans-serif" font-size="2.8" fill="#000000" transform="rotate(-90.0,193.90,71.45)">1 no. Lighting</text>
  <text x="233.60" y="122.71" font-family="Arial, Helvetica, sans-serif" font-size="2.2" fill="#000000" transform="rotate(-90.0,233.60,120.95)">P1</text>
  <circle cx="232.10" cy="108.45" r="0.50" stroke="#000000" stroke-width="0.25" fill="none" />
  <circle cx="232.10" cy="103.45" r="0.50" stroke="#000000" stroke-width="0.25" fill="none" />
  <path d="M 232.70,108.38 A 2.50,2.50 0 0,0 232.74,103.53" stroke="#000000" stroke-width="0.25" fill="none" />
  <line x1="228.60" y1="105.92" x2="234.60" y2="105.97" stroke="#000000" stroke-width="0.25" fill="none" />
  <line x1="234.60" y1="105.97" x2="233.39" y2="106.56" stroke="#000000" stroke-width="0.25" fill="none" />
  <line x1="234.60" y1="105.97" x2="233.41" y2="105.36" stroke="#000000" stroke-width="0.25" fill="none" />
  <line x1="232.10" y1="102.95" x2="232.10" y2="99.45" stroke="#000000" stroke-width="0.25" fill="none" />
  <line x1="232.10" y1="112.45" x2="232.10" y2="108.95" stroke="#000000" stroke-width="0.25" fill="none" />
  <line x1="232.10" y1="99.45" x2="232.10" y2="96.45" stroke="#000000" stroke-width="0.25" fill="none" />
  <line x1="232.10" y1="112.45" x2="232.10" y2="115.45" stroke="#000000" stroke-width="0.25" fill="none" />
  <text x="222.50" y="102.05" font-family="Arial, Helvetica, sans-serif" font-size="2.0" fill="#000000">B20A</text>
  <text x="222.50" y="104.55" font-family="Arial, Helvetica, sans-serif" font-size="2.0" fill="#000000">SPN</text>
  <text x="222.50" y="107.05" font-family="Arial, Helvetica, sans-serif" font-size="2.0" fill="#000000">MCB</text>
  <text x="222.50" y="109.55" font-family="Arial, Helvetica, sans-serif" font-size="2.0" fill="#000000">6kA</text>
  <text x="232.10" y="73.69" font-family="Arial, Helvetica, sans-serif" font-size="2.8" fill="#000000" transform="rotate(-90.0,232.10,71.45)">1 no. Power</text>
  <text x="196.60" y="74.69" font-family="Arial, Helvetica, sans-serif" font-size="2.8" fill="#000000" transform="rotate(-90.0,196.60,72.45)">2C 1.5sqmm PVC/PVC</text>
  <text x="226.40" y="74.69" font-family="Arial, Helvetica, sans-serif" font-size="2.8" fill="#000000" transform="rotate(-90.0,226.40,72.45)">2C 4.0sqmm PVC/PVC</text>
  <text x="175.30" y="162.85" font-family="Arial, Helvetica, sans-serif" font-size="3.0" fill="#000000">40A DB</text>
  <text x="175.30" y="165.89" font-family="Arial, Helvetica, sans-serif" font-size="1.8" fill="#000000">APPROVED LOAD: 9 kVA</text>
  <line x1="259.70" y1="142.75" x2="259.70" y2="145.43" stroke="#000000" stroke-width="0.25" fill="none" />
  <line x1="255.70" y1="145.43" x2="263.70" y2="145.43" stroke="#000000" stroke-width="0.25" fill="none" />
  <line x1="257.03" y1="147.10" x2="262.37" y2="147.10" stroke="#000000" stroke-width="0.25" fill="none" />
  <line x1="258.37" y1="148.78" x2="261.03" y2="148.78" stroke="#000000" stroke-width="0.25" fill="none" />
  <text x="266.70" y="145.94" font-family="Arial, Helvetica, sans-serif" font-size="2.3" fill="#000000">E</text>
  <line x1="210.00" y1="202.45" x2="215.00" y2="202.45" stroke="#000000" stroke-width="0.25" fill="none" />
  <line x1="210.00" y1="202.45" x2="210.00" y2="188.45" stroke="#000000" stroke-width="0.25" fill="none" />
  <line x1="210.00" y1="193.35" x2="201.00" y2="193.35" stroke="#000000" stroke-width="0.25" fill="none" />
  <line x1="210.00" y1="188.45" x2="210.00" y2="186.45" stroke="#000000" stroke-width="0.25" fill="none" />
  <line x1="210.00" y1="174.45" x2="210.00" y2="172.45" stroke="#000000" stroke-width="0.25" fill="none" />
  <line x1="210.00" y1="172.45" x2="210.00" y2="158.45" stroke="#000000" stroke-width="0.25" fill="none" />
  <line x1="210.00" y1="127.45" x2="210.00" y2="124.45" stroke="#000000" stroke-width="0.25" fill="none" />
  <line x1="193.90" y1="124.45" x2="193.90" y2="112.45" stroke="#000000" stroke-width="0.25" fill="none" />
  <line x1="193.90" y1="96.45" x2="193.90" y2="73.45" stroke="#000000" stroke-width="0.25" fill="none" />
  <line x1="232.10" y1="124.45" x2="232.10" y2="112.45" stroke="#000000" stroke-width="0.25" fill="none" />
  <line x1="232.10" y1="96.45" x2="232.10" y2="73.45" stroke="#000000" stroke-width="0.25" fill="none" />
  <line x1="199.60" y1="78.45" x2="193.90" y2="78.45" stroke="#000000" stroke-width="0.25" fill="none" />
  <line x1="199.60" y1="78.45" x2="199.60" y2="73.45" stroke="#000000" stroke-width="0.25" fill="none" />
  <line x1="232.10" y1="78.45" x2="226.40" y2="78.45" stroke="#000000" stroke-width="0.25" fill="none" />
  <line x1="226.40" y1="78.45" x2="226.40" y2="73.45" stroke="#000000" stroke-width="0.25" fill="none" />
  <line x1="250.70" y1="142.75" x2="259.70" y2="142.75" stroke="#000000" stroke-width="0.25" fill="none" />
  <line x1="208.75" y1="194.60" x2="211.25" y2="192.10" stroke="#000000" stroke-width="0.50" fill="none" />
  <line x1="192.65" y1="79.70" x2="195.15" y2="77.20" stroke="#000000" stroke-width="0.50" fill="none" />
  <line x1="230.85" y1="79.70" x2="233.35" y2="77.20" stroke="#000000" stroke-width="0.50" fill="none" />
  <line x1="169.30" y1="168.45" x2="177.30" y2="168.45" stroke="#000000" stroke-width="0.25" fill="none" />
  <line x1="179.30" y1="168.45" x2="180.80" y2="168.45" stroke="#000000" stroke-width="0.25" fill="none" />
  <line x1="182.80" y1="168.45" x2="190.80" y2="168.45" stroke="#000000" stroke-width="0.25" fill="none" />
  <line x1="192.80" y1="168.45" x2="194.30" y2="168.45" stroke="#000000" stroke-width="0.25" fill="none" />
  <line x1="196.30" y1="168.45" x2="204.30" y2="168.45" stroke="#000000" stroke-width="0.25" fill="none" />
  <line x1="206.30" y1="168.45" x2="207.80" y2="168.45" stroke="#000000" stroke-width="0.25" fill="none" />
  <line x1="209.80" y1="168.45" x2="217.80" y2="168.45" stroke="#000000" stroke-width="0.25" fill="none" />
  <line x1="219.80" y1="168.45" x2="221.30" y2="168.45" stroke="#000000" stroke-width="0.25" fill="none" />
  <line x1="223.30" y1="168.45" x2="231.30" y2="168.45" stroke="#000000" stroke-width="0.25" fill="none" />
  <line x1="233.30" y1="168.45" x2="234.80" y2="168.45" stroke="#000000" stroke-width="0.25" fill="none" />
  <line x1="236.80" y1="168.45" x2="244.80" y2="168.45" stroke="#000000" stroke-width="0.25" fill="none" />
  <line x1="246.80" y1="168.45" x2="248.30" y2="168.45" stroke="#000000" stroke-width="0.25" fill="none" />
  <line x1="250.30" y1="168.45" x2="250.70" y2="168.45" stroke="#000000" stroke-width="0.25" fill="none" />
  <line x1="169.30" y1="88.45" x2="177.30" y2="88.45" stroke="#000000" stroke-width="0.25" fill="none" />
  <line x1="179.30" y1="88.45" x2="180.80" y2="88.45" stroke="#000000" stroke-width="0.25" fill="none" />
  <line x1="182.80" y1="88.45" x2="190.80" y2="88.45" stroke="#000000" stroke-width="0.25" fill="none" />
  <line x1="192.80" y1="88.45" x2="194.30" y2="88.45" stroke="#000000" stroke-width="0.25" fill="none" />
  <line x1="196.30" y1="88.45" x2="204.30" y2="88.45" stroke="#000000" stroke-width="0.25" fill="none" />
  <line x1="206.30" y1="88.45" x2="207.80" y2="88.45" stroke="#000000" stroke-width="0.25" fill="none" />
  <line x1="209.80" y1="88.45" x2="217.80" y2="88.45" stroke="#000000" stroke-width="0.25" fill="none" />
  <line x1="219.80" y1="88.45" x2="221.30" y2="88.45" stroke="#000000" stroke-width="0.25" fill="none" />
  <line x1="223.30" y1="88.45" x2="231.30" y2="88.45" stroke="#000000" stroke-width="0.25" fill="none" />
  <line x1="233.30" y1="88.45" x2="234.80" y2="88.45" stroke="#000000" stroke-width="0.25" fill="none" />
  <line x1="236.80" y1="88.45" x2="244.80" y2="88.45" stroke="#000000" stroke-width="0.25" fill="none" />
  <line x1="246.80" y1="88.45" x2="248.30" y2="88.45" stroke="#000000" stroke-width="0.25" fill="none" />
  <line x1="250.30" y1="88.45" x2="250.70" y2="88.45" stroke="#000000" stroke-width="0.25" fill="none" />
  <line x1="169.30" y1="168.45" x2="169.30" y2="160.45" stroke="#000000" stroke-width="0.25" fill="none" />
  <line x1="169.30" y1="158.45" x2="169.30" y2="156.95" stroke="#000000" stroke-width="0.25" fill="none" />
  <line x1="169.30" y1="154.95" x2="169.30" y2="146.95" stroke="#000000" stroke-width="0.25" fill="none" />
  <line x1="169.30" y1="144.95" x2="169.30" y2="143.45" stroke="#000000" stroke-width="0.25" fill="none" />
  <line x1="169.30" y1="141.45" x2="169.30" y2="133.45" stroke="#000000" stroke-width="0.25" fill="none" />
  <line x1="169.30" y1="131.45" x2="169.30" y2="129.95" stroke="#000000" stroke-width="0.25" fill="none" />
  <line x1="169.30" y1="127.95" x2="169.30" y2="119.95" stroke="#000000" stroke-width="0.25" fill="none" />
  <line x1="169.30" y1="117.95" x2="169.30" y2="116.45" stroke="#000000" stroke-width="0.25" fill="none" />
  <line x1="169.30" y1="114.45" x2="169.30" y2="106.45" stroke="#000000" stroke-width="0.25" fill="none" />
  <line x1="169.30" y1="104.45" x2="169.30" y2="102.95" stroke="#000000" stroke-width="0.25" fill="none" />
  <line x1="169.30" y1="100.95" x2="169.30" y2="92.95" stroke="#000000" stroke-width="0.25" fill="none" />
  <line x1="169.30" y1="90.95" x2="169.30" y2="89.45" stroke="#000000" stroke-width="0.25" fill="none" />
  <line x1="250.70" y1="168.45" x2="250.70" y2="160.45" stroke="#000000" stroke-width="0.25" fill="none" />
  <line x1="250.70" y1="158.45" x2="250.70" y2="156.95" stroke="#000000" stroke-width="0.25" fill="none" />
  <line x1="250.70" y1="154.95" x2="250.70" y2="146.95" stroke="#000000" stroke-width="0.25" fill="none" />
  <line x1="250.70" y1="144.95" x2="250.70" y2="143.45" stroke="#000000" stroke-width="0.25" fill="none" />
  <line x1="250.70" y1="141.45" x2="250.70" y2="133.45" stroke="#000000" stroke-width="0.25" fill="none" />
  <line x1="250.70" y1="131.45" x2="250.70" y2="129.95" stroke="#000000" stroke-width="0.25" fill="none" />
  <line x1="250.70" y1="127.95" x2="250.70" y2="119.95" stroke="#000000" stroke-width="0.25" fill="none" />
  <line x1="250.70" y1="117.95" x2="250.70" y2="116.45" stroke="#000000" stroke-width="0.25" fill="none" />
  <line x1="250.70" y1="114.45" x2="250.70" y2="106.45" stroke="#000000" stroke-width="0.25" fill="none" />
  <line x1="250.70" y1="104.45" x2="250.70" y2="102.95" stroke="#000000" stroke-width="0.25" fill="none" />
  <line x1="250.70" y1="100.95" x2="250.70" y2="92.95" stroke="#000000" stroke-width="0.25" fill="none" />
  <line x1="250.70" y1="90.95" x2="250.70" y2="89.45" stroke="#000000" stroke-width="0.25" fill="none" />
  <circle cx="193.90" cy="124.45" r="0.80" fill="rgb(0,0,0)" stroke="none" />
  <circle cx="232.10" cy="124.45" r="0.80" fill="rgb(0,0,0)" stroke="none" />
  <circle cx="250.70" cy="142.75" r="0.80" fill="rgb(0,0,0)" stroke="none" />
  <text x="13.00" y="264.40" font-family="Arial, Helvetica, sans-serif" font-size="3.0" fill="#000000">Electrical Installation</text>
  <text x="153.00" y="264.40" font-family="Arial, Helvetica, sans-serif" font-size="3.0" fill="#000000">LicenseKaki</text>
  <text x="225.00" y="263.80" font-family="Arial, Helvetica, sans-serif" font-size="3.5" fill="#000000"><tspan x="225.00">SINGLE LINE DIAGRAM</tspan><tspan x="225.00" dy="4.9">(SLD)</tspan></text>
  <text x="389.00" y="266.00" font-family="Arial, Helvetica, sans-serif" font-size="2.5" fill="#000000">DATE</text>
  <text x="365.00" y="278.00" font-family="Arial, Helvetica, sans-serif" font-size="2.5" fill="#000000"></text>
  <text x="394.00" y="278.80" font-family="Arial, Helvetica, sans-serif" font-size="3.5" fill="#000000">0</text>
  <text x="365.00" y="286.28" font-family="Arial, Helvetica, sans-serif" font-size="1.6" fill="#000000">SCALE : NTS</text>
  <text x="389.00" y="286.28" font-family="Arial, Helvetica, sans-serif" font-size="1.6" fill="#000000">SHEET : 1 OF 1</text>
</svg>