<svg xmlns="http://www.w3.org/2000/svg" viewBox="0 0 420.0 297.0" width="420.0mm" height="297.0mm">
  <rect width="420.0" height="297.0" fill="white" />
  <polygon points="10.00,287.00 410.00,287.00 410.00,10.00 10.00,10.00" stroke="#000000" stroke-width="0.25" fill="none" />
  <polygon points="10.00,287.00 410.00,287.00 410.00,255.00 10.00,255.00" stroke="#000000" stroke-width="0.25" fill="none" />
  <line x1="90.00" y1="255.00" x2="90.00" y2="287.00" stroke="#000000" stroke-width="0.25" fill="none" />
  <line x1="150.00" y1="255.00" x2="150.00" y2="287.00" stroke="#000000" stroke-width="0.25" fill="none" />
  <line x1="222.00" y1="255.00" x2="222.00" y2="287.00" stroke="#000000" stroke-width="0.25" fill="none" />
  <line x1="290.00" y1="255.00" x2="290.00" y2="287.00" stroke="#000000" stroke-width="0.25" fill="none" />
  <line x1="362.00" y1="255.00" x2="362.00" y2="287.00" stroke="#000000" stroke-width="0.25" fill="none" />
  <line x1="362.00" y1="270.00" x2="410.00" y2="270.00" stroke="#000000" stroke-width="0.25" fill="none" />
  <line x1="386.00" y1="255.00" x2="386.00" y2="287.00" stroke="#000000" stroke-width="0.25" fill="none" />
  <text x="12.00" y="258.94" font-family="Arial, Helvetica, sans-serif" font-size="1.8" fill="#000000">CLIENT / ADDRESS :</text>
  <text x="92.00" y="258.94" font-family="Arial, Helvetica, sans-serif" font-size="1.8" fill="#000000">MAIN CONTRACTOR :</text>
  <text x="152.00" y="258.94" font-family="Arial, Helvetica, sans-serif" font-size="1.8" fill="#000000">ELECTRICAL CONTRACTOR :</text>
  <text x="224.00" y="258.94" font-family="Arial, Helvetica, sans-serif" font-size="1.8" fill="#000000">DRAWING TITLE :</text>
  <text x="292.00" y="258.94" font-family="Arial, Helvetica, sans-serif" font-size="1.8" fill="#000000">LEW :</text>
  <text x="364.00" y="258.94" font-family="Arial, Helvetica, sans-serif" font-size="1.8" fill="#000000">CHECKED :</text>
  <text x="388.00" y="258.94" font-family="Arial, Helvetica, sans-serif" font-size="1.8" fill="#000000">DATE :</text>
  <text x="364.00" y="273.94" font-family="Arial, Helvetica, sans-serif" font-size="1.8" fill="#000000">DRAWING NO. :</text>
  <text x="388.00" y="273.94" font-family="Arial, Helvetica, sans-serif" font-size="1.8" fill="#000000">REV :</text>
  <circle cx="217.50" cy="181.46" r="0.40" stroke="#000000" stroke-width="0.25" fill="none" />
  <line x1="217.90" y1="181.46" x2="221.50" y2="179.46" stroke="#000000" stroke-width="0.25" fill="none" />
  <circle cx="221.50" cy="181.46" r="0.40" stroke="#000000" stroke-width="0.25" fill="none" />
  <line x1="221.90" y1="181.46" x2="223.00" y2="181.46" stroke="#000000" stroke-width="0.25" fill="none" />
  <line x1="216.00" y1="181.46" x2="217.10" y2="181.46" stroke="#000000" stroke-width="0.25" fill="none" />
  <line x1="223.00" y1="181.46" x2="225.00" y2="181.46" stroke="#000000" stroke-width="0.25" fill="none" />
  <line x1="216.00" y1="181.46" x2="214.00" y2="181.46" stroke="#000000" stroke-width="0.25" fill="none" />
  <text x="211.82" y="177.49" font-family="Arial, Helvetica, sans-serif" font-size="1.6" fill="#000000"><tspan x="211.82">63A DP</tspan><tspan x="211.82" dy="2.2">ISOLATOR</tspan></text>
  <polygon points="240.60,183.41 248.40,183.41 248.40,179.51 240.60,179.51" stroke="#000000" stroke-width="0.25" fill="none" />
  <text x="241.77" y="182.28" font-family="Arial, Helvetica, sans-serif" font-size="2.7" fill="#000000">KWH</text>
  <line x1="248.40" y1="181.46" x2="250.40" y2="181.46" stroke="#000000" stroke-width="0.25" fill="none" />
  <line x1="240.60" y1="181.46" x2="238.60" y2="181.46" stroke="#000000" stroke-width="0.25" fill="none" />
  <text x="234.50" y="176.65" font-family="Arial, Helvetica, sans-serif" font-size="2.8" fill="#000000">KWH METER BY SP</text>
  <circle cx="267.80" cy="181.46" r="0.35" stroke="#000000" stroke-width="0.25" fill="none" />
  <circle cx="271.20" cy="181.46" r="0.35" stroke="#000000" stroke-width="0.25" fill="none" />
  <path d="M 271.15,181.05 A 1.70,1.70 0 0,0 267.86,181.03" stroke="#000000" stroke-width="0.25" fill="none" />
  <line x1="271.55" y1="181.46" x2="273.50" y2="181.46" stroke="#000000" stroke-width="0.25" fill="none" />
  <line x1="265.50" y1="181.46" x2="267.45" y2="181.46" stroke="#000000" stroke-width="0.25" fill="none" />
  <line x1="273.50" y1="181.46" x2="275.50" y2="181.46" stroke="#000000" stroke-width="0.25" fill="none" />
  <line x1="265.50" y1="181.46" x2="263.50" y2="181.46" stroke="#000000" stroke-width="0.25" fill="none" />
  <text x="258.46" y="177.74" font-family="Arial, Helvetica, sans-serif" font-size="1.6" fill="#000000"><tspan x="258.46">63A DP MCB</tspan><tspan x="258.46" dy="2.2">TYPE B 10kA</tspan></text>
  <text x="298.50" y="180.70" font-family="Arial, Helvetica, sans-serif" font-size="2.8" fill="#000000">INCOMING FROM HDB ELECTRICAL RISER</text>
  <text x="289.50" y="192.30" font-family="Arial, Helvetica, sans-serif" font-size="2.8" fill="#000000"><tspan x="289.50">2 x 1C 16sqmm XLPE/PVC +</tspan><tspan x="289.50" dy="3.9">16sqmm PVC CPC</tspan></text>
  <text x="163.68" y="165.75" font-family="Arial, Helvetica, sans-serif" font-size="2.8" fill="#000000"><tspan x="163.68">2 x 1C 16sqmm XLPE/PVC +</tspan><tspan x="163.68" dy="3.9">16sqmm PVC CPC</tspan></text>
  <text x="213.00" y="194.43" font-family="Arial, Helvetica, sans-serif" font-size="2.8" fill="#000000">METER BOARD</text>
  <text x="227.75" y="201.23" font-family="Arial, Helvetica, sans-serif" font-size="2.8" fill="#000000">LOCATED AT METER COMPARTMENT</text>
  <circle cx="210.00" cy="140.61" r="0.35" stroke="#000000" stroke-width="0.25" fill="none" />
  <circle cx="210.00" cy="137.21" r="0.35" stroke="#000000" stroke-width="0.25" fill="none" />
  <path d="M 210.41,140.56 A 1.70,1.70 0 0,0 210.43,137.27" stroke="#000000" stroke-width="0.25" fill="none" />
  <line x1="210.00" y1="136.86" x2="210.00" y2="134.91" stroke="#000000" stroke-width="0.25" fill="none" />
  <line x1="210.00" y1="142.91" x2="210.00" y2="140.96" stroke="#000000" stroke-width="0.25" fill="none" />
  <line x1="210.00" y1="134.91" x2="210.00" y2="132.91" stroke="#000000" stroke-width="0.25" fill="none" />
  <line x1="210.00" y1="142.91" x2="210.00" y2="144.91" stroke="#000000" stroke-width="0.25" fill="none" />
  <text x="215.50" y="138.75" font-family="Arial, Helvetica, sans-serif" font-size="2.3" fill="#000000">63A DP MCB (10KA)</text>
  <circle cx="210.00" cy="130.41" r="0.35" stroke="#000000" stroke-width="0.25" fill="none" />
  <circle cx="210.00" cy="126.41" r="0.35" stroke="#000000" stroke-width="0.25" fill="none" />
  <path d="M 210.91,130.19 A 2.00,2.00 0 0,0 210.91,126.63" stroke="#000000" stroke-width="0.25" fill="none" />
  <line x1="210.00" y1="126.06" x2="210.00" y2="123.91" stroke="#000000" stroke-width="0.25" fill="none" />
  <line x1="210.00" y1="132.91" x2="210.00" y2="130.76" stroke="#000000" stroke-width="0.25" fill="none" />
  <line x1="212.00" y1="128.41" x2="212.86" y2="128.41" stroke="#000000" stroke-width="0.25" fill="none" />
  <line x1="212.86" y1="129.19" x2="212.86" y2="127.63" stroke="#000000" stroke-width="0.25" fill="none" />
  <line x1="210.00" y1="123.91" x2="210.00" y2="121.91" stroke="#000000" stroke-width="0.25" fill="none" />
  <line x1="210.00" y1="132.91" x2="210.00" y2="134.91" stroke="#000000" stroke-width="0.25" fill="none" />
  <text x="216.25" y="128.25" font-family="Arial, Helvetica, sans-serif" font-size="2.3" fill="#000000">63A DP RCCB (30mA)</text>
  <line x1="164.50" y1="121.91" x2="255.50" y2="121.91" stroke="#000000" stroke-width="0.50" fill="none" />
  <text x="167.50" y="127.15" font-family="Arial, Helvetica, sans-serif" font-size="2.8" fill="#000000">100A COMB BAR</text>
  <text x="180.60" y="120.17" font-family="Arial, Helvetica, sans-serif" font-size="2.2" fill="#000000" transform="rotate(-90.0,180.60,118.41)">S1</text>
  <circle cx="178.00" cy="107.61" r="0.35" stroke="#000000" stroke-width="0.25" fill="none" />
  <circle cx="178.00" cy="104.21" r="0.35" stroke="#000000" stroke-width="0.25" fill="none" />
  <path d="M 178.41,107.56 A 1.70,1.70 0 0,0 178.43,104.27" stroke="#000000" stroke-width="0.25" fill="none" />
  <line x1="173.70" y1="105.87" x2="179.70" y2="105.92" stroke="#000000" stroke-width="0.25" fill="none" />
  <line x1="179.70" y1="105.92" x2="178.49" y2="106.51" stroke="#000000" stroke-width="0.25" fill="none" />
  <line x1="179.70" y1="105.92" x2="178.51" y2="105.31" stroke="#000000" stroke-width="0.25" fill="none" />
  <line x1="178.00" y1="103.86" x2="178.00" y2="101.91" stroke="#000000" stroke-width="0.25" fill="none" />
  <line x1="178.00" y1="109.91" x2="178.00" y2="107.96" stroke="#000000" stroke-width="0.25" fill="none" />
  <line x1="178.00" y1="101.91" x2="178.00" y2="99.91" stroke="#000000" stroke-width="0.25" fill="none" />
  <line x1="178.00" y1="109.91" x2="178.00" y2="111.91" stroke="#000000" stroke-width="0.25" fill="none" />
  <text x="169.50" y="104.51" font-family="Arial, Helvetica, sans-serif" font-size="2.0" fill="#000000">B10A</text>
  <text x="169.50" y="107.01" font-family="Arial, Helvetica, sans-serif" font-size="2.0" fill="#000000">SPN</text>
  <text x="169.50" y="109.51" font-family="Arial, Helvetica, sans-serif" font-size="2.0" fill="#000000">MCB</text>
  <text x="169.50" y="112.01" font-family="Arial, Helvetica, sans-serif" font-size="2.0" fill="#000000">6kA</text>
  <text x="179.10" y="77.15" font-family="Arial, Helvetica, sans-serif" font-size="2.8" fill="#000000" transform="rotate(-90.0,179.10,74.91)">1 no. Lighting</text>
  <text x="216.60" y="120.17" font-family="Arial, Helvetica, sans-serif" font-size="2.2" fill="#000000" transform="rotate(-90.0,216.60,118.41)">P1</text>
  <circle cx="214.00" cy="107.61" r="0.35" stroke="#000000" stroke-width="0.25" fill="none" />
  <circle cx="214.00" cy="104.21" r="0.35" stroke="#000000" stroke-width="0.25" fill="none" />
  <path d="M 214.41,107.56 A 1.70,1.70 0 0,0 214.43,104.27" stroke="#000000" stroke-width="0.25" fill="none" />
  <line x1="209.70" y1="105.87" x2="215.70" y2="105.92" stroke="#000000" stroke-width="0.25" fill="none" />
  <line x1="215.70" y1="105.92" x2="214.49" y2="106.51" stroke="#000000" stroke-width="0.25" fill="none" />
  <line x1="215.70" y1="105.92" x2="214.51" y2="105.31" stroke="#000000" stroke-width="0.25" fill="none" />
  <line x1="214.00" y1="103.86" x2="214.00" y2="101.91" stroke="#000000" stroke-width="0.25" fill="none" />
  <line x1="214.00" y1="109.91" x2="214.00" y2="107.96" stroke="#000000" stroke-width="0.25" fill="none" />
  <line x1="214.00" y1="101.91" x2="214.00" y2="99.91" stroke="#000000" stroke-width="0.25" fill="none" />
  <line x1="214.00" y1="109.91" x2="214.00" y2="111.91" stroke="#000000" stroke-width="0.25" fill="none" />
  <text x="205.50" y="104.51" font-family="Arial, Helvetica, sans-serif" font-size="2.0" fill="#000000">B20A</text>
  <text x="205.50" y="107.01" font-family="Arial, Helvetica, sans-serif" font-size="2.0" fill="#000000">SPN</text>
  <text x="205.50" y="109.51" font-family="Arial, Helvetica, sans-serif" font-size="2.0" fill="#000000">MCB</text>
  <text x="205.50" y="112.01" font-family="Arial, Helvetica, sans-serif" font-size="2.0" fill="#000000">6kA</text>
  <text x="215.10" y="77.15" font-family="Arial, Helvetica, sans-serif" font-size="2.8" fill="#000000" transform="rotate(-90.0,215.10,74.91)">1 no. 13A S/S/O</text>
  <text x="247.50" y="120.17" font-family="Arial, Helvetica, sans-serif" font-size="2.2" fill="#000000" transform="rotate(-90.0,247.50,118.41)">SP1</text>
  <circle cx="244.90" cy="107.61" r="0.35" stroke="#000000" stroke-width="0.25" fill="none" />
  <circle cx="244.90" cy="104.21" r="0.35" stroke="#000000" stroke-width="0.25" fill="none" />
  <path d="M 245.31,107.56 A 1.70,1.70 0 0,0 245.33,104.27" stroke="#000000" stroke-width="0.25" fill="none" />
  <line x1="244.90" y1="103.86" x2="244.90" y2="101.91" stroke="#000000" stroke-width="0.25" fill="none" />
  <line x1="244.90" y1="109.91" x2="244.90" y2="107.96" stroke="#000000" stroke-width="0.25" fill="none" />
  <line x1="244.90" y1="101.91" x2="244.90" y2="99.91" stroke="#000000" stroke-width="0.25" fill="none" />
  <line x1="244.90" y1="109.91" x2="244.90" y2="111.91" stroke="#000000" stroke-width="0.25" fill="none" />
  <line x1="215.70" y1="105.92" x2="246.60" y2="105.92" stroke="#000000" stroke-width="0.25" fill="none" />
  <line x1="246.60" y1="105.92" x2="245.39" y2="106.51" stroke="#000000" stroke-width="0.25" fill="none" />
  <line x1="246.60" y1="105.92" x2="245.41" y2="105.31" stroke="#000000" stroke-width="0.25" fill="none" />
  <text x="246.00" y="77.15" font-family="Arial, Helvetica, sans-serif" font-size="2.8" fill="#000000" transform="rotate(-90.0,246.00,74.91)">SPARE</text>
  <text x="181.80" y="78.15" font-family="Arial, Helvetica, sans-serif" font-size="2.8" fill="#000000" transform="rotate(-90.0,181.80,75.91)">2C 1.5sqmm PVC/PVC</text>
  <text x="209.40" y="78.15" font-family="Arial, Helvetica, sans-serif" font-size="2.8" fill="#000000" transform="rotate(-90.0,209.40,75.91)">2C 4.0sqmm PVC/PVC</text>
  <text x="160.50" y="147.31" font-family="Arial, Helvetica, sans-serif" font-size="3.0" fill="#000000">63A DB</text>
  <text x="160.50" y="150.35" font-family="Arial, Helvetica, sans-serif" font-size="1.8" fill="#000000">APPROVED LOAD: 14 kVA</text>
  <line x1="273.25" y1="142.41" x2="273.25" y2="144.21" stroke="#000000" stroke-width="0.25" fill="none" />
  <line x1="270.50" y1="144.21" x2="276.00" y2="144.21" stroke="#000000" stroke-width="0.25" fill="none" />
  <line x1="271.42" y1="145.34" x2="275.08" y2="145.34" stroke="#000000" stroke-width="0.25" fill="none" />
  <line x1="272.33" y1="146.46" x2="274.17" y2="146.46" stroke="#000000" stroke-width="0.25" fill="none" />
  <text x="279.00" y="144.50" font-family="Arial, Helvetica, sans-serif" font-size="2.3" fill="#000000">E</text>
  <line x1="210.00" y1="181.46" x2="214.00" y2="181.46" stroke="#000000" stroke-width="0.25" fill="none" />
  <line x1="225.00" y1="181.46" x2="238.60" y2="181.46" stroke="#000000" stroke-width="0.25" fill="none" />
  <line x1="250.40" y1="181.46" x2="263.50" y2="181.46" stroke="#000000" stroke-width="0.25" fill="none" />
  <line x1="275.50" y1="181.46" x2="295.50" y2="181.46" stroke="#000000" stroke-width="0.25" fill="none" />
  <line x1="284.00" y1="182.96" x2="287.00" y2="179.96" stroke="#000000" stroke-width="0.25" fill="none" />
  <line x1="285.50" y1="181.46" x2="285.50" y2="191.46" stroke="#000000" stroke-width="0.25" fill="none" />
  <line x1="285.50" y1="191.46" x2="288.50" y2="191.46" stroke="#000000" stroke-width="0.25" fill="none" />
  <line x1="210.00" y1="181.46" x2="210.00" y2="156.91" stroke="#000000" stroke-width="0.25" fill="none" />
  <line x1="210.00" y1="164.91" x2="207.00" y2="164.91" stroke="#000000" stroke-width="0.25" fill="none" />
  <line x1="210.00" y1="156.91" x2="210.00" y2="142.91" stroke="#000000" stroke-width="0.25" fill="none" />
  <line x1="210.00" y1="124.91" x2="210.00" y2="121.91" stroke="#000000" stroke-width="0.25" fill="none" />
  <line x1="179.10" y1="121.91" x2="179.10" y2="109.91" stroke="#000000" stroke-width="0.25" fill="none" />
  <line x1="179.10" y1="99.91" x2="179.10" y2="76.91" stroke="#000000" stroke-width="0.25" fill="none" />
  <line x1="210.00" y1="121.91" x2="210.00" y2="109.91" stroke="#000000" stroke-width="0.25" fill="none" />
  <line x1="210.00" y1="99.91" x2="210.00" y2="76.91" stroke="#000000" stroke-width="0.25" fill="none" />
  <line x1="246.00" y1="121.91" x2="246.00" y2="109.91" stroke="#000000" stroke-width="0.25" fill="none" />
  <line x1="246.00" y1="99.91" x2="246.00" y2="76.91" stroke="#000000" stroke-width="0.25" fill="none" />
  <line x1="184.80" y1="81.91" x2="179.10" y2="81.91" stroke="#000000" stroke-width="0.25" fill="none" />
  <line x1="184.80" y1="81.91" x2="184.80" y2="76.91" stroke="#000000" stroke-width="0.25" fill="none" />
  <line x1="215.10" y1="81.91" x2="209.40" y2="81.91" stroke="#000000" stroke-width="0.25" fill="none" />
  <line x1="209.40" y1="81.91" x2="209.40" y2="76.91" stroke="#000000" stroke-width="0.25" fill="none" />
  <line x1="265.50" y1="142.41" x2="273.25" y2="142.41" stroke="#000000" stroke-width="0.25" fill="none" />
  <line x1="208.75" y1="166.16" x2="211.25" y2="163.66" stroke="#000000" stroke-width="0.50" fill="none" />
  <line x1="177.85" y1="83.16" x2="180.35" y2="80.66" stroke="#000000" stroke-width="0.50" fill="none" />
  <line x1="213.85" y1="83.16" x2="216.35" y2="80.66" stroke="#000000" stroke-width="0.50" fill="none" />
  <line x1="212.00" y1="195.99" x2="220.00" y2="195.99" stroke="#000000" stroke-width="0.25" fill="none" />
  <line x1="222.00" y1="195.99" x2="223.50" y2="195.99" stroke="#000000" stroke-width="0.25" fill="none" />
  <line x1="225.50" y1="195.99" x2="233.50" y2="195.99" stroke="#000000" stroke-width="0.25" fill="none" />
  <line x1="235.50" y1="195.99" x2="237.00" y2="195.99" stroke="#000000" stroke-width="0.25" fill="none" />
  <line x1="239.00" y1="195.99" x2="247.00" y2="195.99" stroke="#000000" stroke-width="0.25" fill="none" />
  <line x1="249.00" y1="195.99" x2="250.50" y2="195.99" stroke="#000000" stroke-width="0.25" fill="none" />
  <line x1="252.50" y1="195.99" x2="260.50" y2="195.99" stroke="#000000" stroke-width="0.25" fill="none" />
  <line x1="262.50" y1="195.99" x2="264.00" y2="195.99" stroke="#000000" stroke-width="0.25" fill="none" />
  <line x1="266.00" y1="195.99" x2="274.00" y2="195.99" stroke="#000000" stroke-width="0.25" fill="none" />
  <line x1="276.00" y1="195.99" x2="277.50" y2="195.99" stroke="#000000" stroke-width="0.25" fill="none" />
  <line x1="212.00" y1="172.91" x2="220.00" y2="172.91" stroke="#000000" stroke-width="0.25" fill="none" />
  <line x1="222.00" y1="172.91" x2="223.50" y2="172.91" stroke="#000000" stroke-width="0.25" fill="none" />
  <line x1="225.50" y1="172.91" x2="233.50" y2="172.91" stroke="#000000" stroke-width="0.25" fill="none" />
  <line x1="235.50" y1="172.91" x2="237.00" y2="172.91" stroke="#000000" stroke-width="0.25" fill="none" />
  <line x1="239.00" y1="172.91" x2="247.00" y2="172.91" stroke="#000000" stroke-width="0.25" fill="none" />
  <line x1="249.00" y1="172.91" x2="250.50" y2="172.91" stroke="#000000" stroke-width="0.25" fill="none" />
  <line x1="252.50" y1="172.91" x2="260.50" y2="172.91" stroke="#000000" stroke-width="0.25" fill="none" />
  <line x1="262.50" y1="172.91" x2="264.00" y2="172.91" stroke="#000000" stroke-width="0.25" fill="none" />
  <line x1="266.00" y1="172.91" x2="274.00" y2="172.91" stroke="#000000" stroke-width="0.25" fill="none" />
  <line x1="276.00" y1="172.91" x2="277.50" y2="172.91" stroke="#000000" stroke-width="0.25" fill="none" />
  <line x1="212.00" y1="195.99" x2="212.00" y2="187.99" stroke="#000000" stroke-width="0.25" fill="none" />
  <line x1="212.00" y1="185.99" x2="212.00" y2="184.49" stroke="#000000" stroke-width="0.25" fill="none" />
  <line x1="212.00" y1="182.49" x2="212.00" y2="174.49" stroke="#000000" stroke-width="0.25" fill="none" />
  <line x1="279.50" y1="195.99" x2="279.50" y2="187.99" stroke="#000000" stroke-width="0.25" fill="none" />
  <line x1="279.50" y1="185.99" x2="279.50" y2="184.49" stroke="#000000" stroke-width="0.25" fill="none" />
  <line x1="279.50" y1="182.49" x2="279.50" y2="174.49" stroke="#000000" stroke-width="0.25" fill="none" />
  <line x1="154.50" y1="152.91" x2="162.50" y2="152.91" stroke="#000000" stroke-width="0.25" fill="none" />
  <line x1="164.50" y1="152.91" x2="166.00" y2="152.91" stroke="#000000" stroke-width="0.25" fill="none" />
  <line x1="168.00" y1="152.91" x2="176.00" y2="152.91" stroke="#000000" stroke-width="0.25" fill="none" />
  <line x1="178.00" y1="152.91" x2="179.50" y2="152.91" stroke="#000000" stroke-width="0.25" fill="none" />
  <line x1="181.50" y1="152.91" x2="189.50" y2="152.91" stroke="#000000" stroke-width="0.25" fill="none" />
  <line x1="191.50" y1="152.91" x2="193.00" y2="152.91" stroke="#000000" stroke-width="0.25" fill="none" />
  <line x1="195.00" y1="152.91" x2="203.00" y2="152.91" stroke="#000000" stroke-width="0.25" fill="none" />
  <line x1="205.00" y1="152.91" x2="206.50" y2="152.91" stroke="#000000" stroke-width="0.25" fill="none" />
  <line x1="208.50" y1="152.91" x2="216.50" y2="152.91" stroke="#000000" stroke-width="0.25" fill="none" />
  <line x1="218.50" y1="152.91" x2="220.00" y2="152.91" stroke="#000000" stroke-width="0.25" fill="none" />
  <line x1="222.00" y1="152.91" x2="230.00" y2="152.91" stroke="#000000" stroke-width="0.25" fill="none" />
  <line x1="232.00" y1="152.91" x2="233.50" y2="152.91" stroke="#000000" stroke-width="0.25" fill="none" />
  <line x1="235.50" y1="152.91" x2="243.50" y2="152.91" stroke="#000000" stroke-width="0.25" fill="none" />
  <line x1="245.50" y1="152.91" x2="247.00" y2="152.91" stroke="#000000" stroke-width="0.25" fill="none" />
  <line x1="249.00" y1="152.91" x2="257.00" y2="152.91" stroke="#000000" stroke-width="0.25" fill="none" />
  <line x1="259.00" y1="152.91" x2="260.50" y2="152.91" stroke="#000000" stroke-width="0.25" fill="none" />
  <line x1="262.50" y1="152.91" x2="265.50" y2="152.91" stroke="#000000" stroke-width="0.25" fill="none" />
  <line x1="154.50" y1="91.91" x2="162.50" y2="91.91" stroke="#000000" stroke-width="0.25" fill="none" />
  <line x1="164.50" y1="91.91" x2="166.00" y2="91.91" stroke="#000000" stroke-width="0.25" fill="none" />
  <line x1="168.00" y1="91.91" x2="176.00" y2="91.91" stroke="#000000" stroke-width="0.25" fill="none" />
  <line x1="178.00" y1="91.91" x2="179.50" y2="91.91" stroke="#000000" stroke-width="0.25" fill="none" />
  <line x1="181.50" y1="91.91" x2="189.50" y2="91.91" stroke="#000000" stroke-width="0.25" fill="none" />
  <line x1="191.50" y1="91.91" x2="193.00" y2="91.91" stroke="#000000" stroke-width="0.25" fill="none" />
  <line x1="195.00" y1="91.91" x2="203.00" y2="91.91" stroke="#000000" stroke-width="0.25" fill="none" />
  <line x1="205.00" y1="91.91" x2="206.50" y2="91.91" stroke="#000000" stroke-width="0.25" fill="none" />
  <line x1="208.50" y1="91.91" x2="216.50" y2="91.91" stroke="#000000" stroke-width="0.25" fill="none" />
  <line x1="218.50" y1="91.91" x2="220.00" y2="91.91" stroke="#000000" stroke-width="0.25" fill="none" />
  <line x1="222.00" y1="91.91" x2="230.00" y2="91.91" stroke="#000000" stroke-width="0.25" fill="none" />
  <line x1="232.00" y1="91.91" x2="233.50" y2="91.91" stroke="#000000" stroke-width="0.25" fill="none" />
  <line x1="235.50" y1="91.91" x2="243.50" y2="91.91" stroke="#000000" stroke-width="0.25" fill="none" />
  <line x1="245.50" y1="91.91" x2="247.00" y2="91.91" stroke="#000000" stroke-width="0.25" fill="none" />
  <line x1="249.00" y1="91.91" x2="257.00" y2="91.91" stroke="#000000" stroke-width="0.25" fill="none" />
  <line x1="259.00" y1="91.91" x2="260.50" y2="91.91" stroke="#000000" stroke-width="0.25" fill="none" />
  <line x1="262.50" y1="91.91" x2="265.50" y2="91.91" stroke="#000000" stroke-width="0.25" fill="none" />
  <line x1="154.50" y1="152.91" x2="154.50" y2="144.91" stroke="#000000" stroke-width="0.25" fill="none" />
  <line x1="154.50" y1="142.91" x2="154.50" y2="141.41" stroke="#000000" stroke-width="0.25" fill="none" />
  <line x1="154.50" y1="139.41" x2="154.50" y2="131.41" stroke="#000000" stroke-width="0.25" fill="none" />
  <line x1="154.50" y1="129.41" x2="154.50" y2="127.91" stroke="#000000" stroke-width="0.25" fill="none" />
  <line x1="154.50" y1="125.91" x2="154.50" y2="117.91" stroke="#000000" stroke-width="0.25" fill="none" />
  <line x1="154.50" y1="115.91" x2="154.50" y2="114.41" stroke="#000000" stroke-width="0.25" fill="none" />
  <line x1="154.50" y1="112.41" x2="154.50" y2="104.41" stroke="#000000" stroke-width="0.25" fill="none" />
  <line x1="154.50" y1="102.41" x2="154.50" y2="100.91" stroke="#000000" stroke-width="0.25" fill="none" />
  <line x1="154.50" y1="98.91" x2="154.50" y2="91.91" stroke="#000000" stroke-width="0.25" fill="none" />
  <line x1="265.50" y1="152.91" x2="265.50" y2="144.91" stroke="#000000" stroke-width="0.25" fill="none" />
  <line x1="265.50" y1="142.91" x2="265.50" y2="141.41" stroke="#000000" stroke-width="0.25" fill="none" />
  <line x1="265.50" y1="139.41" x2="265.50" y2="131.41" stroke="#000000" stroke-width="0.25" fill="none" />
  <line x1="265.50" y1="129.41" x2="265.50" y2="127.91" stroke="#000000" stroke-width="0.25" fill="none" />
  <line x1="265.50" y1="125.91" x2="265.50" y2="117.91" stroke="#000000" stroke-width="0.25" fill="none" />
  <line x1="265.50" y1="115.91" x2="265.50" y2="114.41" stroke="#000000" stroke-width="0.25" fill="none" />
  <line x1="265.50" y1="112.41" x2="265.50" y2="104.41" stroke="#000000" stroke-width="0.25" fill="none" />
  <line x1="265.50" y1="102.41" x2="265.50" y2="100.91" stroke="#000000" stroke-width="0.25" fill="none" />
  <line x1="265.50" y1="98.91" x2="265.50" y2="91.91" stroke="#000000" stroke-width="0.25" fill="none" />
  <circle cx="179.10" cy="121.91" r="0.50" fill="rgb(0,0,0)" stroke="none" />
  <circle cx="215.10" cy="121.91" r="0.50" fill="rgb(0,0,0)" stroke="none" />
  <circle cx="246.00" cy="121.91" r="0.50" fill="rgb(0,0,0)" stroke="none" />
  <circle cx="265.50" cy="142.41" r="0.50" fill="rgb(0,0,0)" stroke="none" />
  <text x="13.00" y="264.40" font-family="Arial, Helvetica, sans-serif" font-size="3.0" fill="#000000">Electrical Installation</text>
  <text x="153.00" y="264.40" font-family="Arial, Helvetica, sans-serif" font-size="3.0" fill="#000000">LicenseKaki</text>
  <text x="225.00" y="263.80" font-family="Arial, Helvetica, sans-serif" font-size="3.5" fill="#000000"><tspan x="225.00">SINGLE LINE DIAGRAM</tspan><tspan x="225.00" dy="4.9">(SLD)</tspan></text>
  <text x="389.00" y="266.00" font-family="Arial, Helvetica, sans-serif" font-size="2.5" fill="#000000">DATE</text>
  <text x="365.00" y="278.00" font-family="Arial, Helvetica, sans-serif" font-size="2.5" fill="#000000"></text>
  <text x="394.00" y="278.80" font-family="Arial, Helvetica, sans-serif" font-size="3.5" fill="#000000">0</text>
  <text x="365.00" y="286.28" font-family="Arial, Helvetica, sans-serif" font-size="1.6" fill="#000000">SCALE : NTS</text>
  <text x="389.00" y="286.28" font-family="Arial, Helvetica, sans-serif" font-size="1.6" fill="#000000">SHEET : 1 OF 1</text>
</svg>