<svg xmlns="http://www.w3.org/2000/svg" viewBox="0 0 420.0 297.0" width="420.0mm" height="297.0mm">
  <rect width="420.0" height="297.0" fill="white" />
  <polygon points="10.00,287.00 410.00,287.00 410.00,10.00 10.00,10.00" stroke="#000000" stroke-width="0.25" fill="none" />
  <polygon points="10.00,287.00 410.00,287.00 410.00,255.00 10.00,255.00" stroke="#000000" stroke-width="0.25" fill="none" />
  <line x1="90.00" y1="255.00" x2="90.00" y2="287.00" stroke="#000000" stroke-width="0.25" fill="none" />
  <line x1="150.00" y1="255.00" x2="150.00" y2="287.00" stroke="#000000" stroke-width="0.25" fill="none" />
  <line x1="222.00" y1="255.00" x2="222.00" y2="287.00" stroke="#000000" stroke-width="0.25" fill="none" />
  <line x1="290.00" y1="255.00" x2="290.00" y2="287.00" stroke="#000000" stroke-width="0.25" fill="none" />
  <line x1="362.00" y1="255.00" x2="362.00" y2="287.00" stroke="#000000" stroke-width="0.25" fill="none" />
  <line x1="362.00" y1="270.00" x2="410.00" y2="270.00" stroke="#000000" stroke-width="0.25" fill="none" />
  <line x1="386.00" y1="255.00" x2="386.00" y2="287.00" stroke="#000000" stroke-width="0.25" fill="none" />
  <text x="12.00" y="258.94" font-family="Arial, Helvetica, sans-serif" font-size="1.8" fill="#000000">CLIENT / ADDRESS :</text>
  <text x="92.00" y="258.94" font-family="Arial, Helvetica, sans-serif" font-size="1.8" fill="#000000">MAIN CONTRACTOR :</text>
  <text x="152.00" y="258.94" font-family="Arial, Helvetica, sans-serif" font-size="1.8" fill="#000000">ELECTRICAL CONTRACTOR :</text>
  <text x="224.00" y="258.94" font-family="Arial, Helvetica, sans-serif" font-size="1.8" fill="#000000">DRAWING TITLE :</text>
  <text x="292.00" y="258.94" font-family="Arial, Helvetica, sans-serif" font-size="1.8" fill="#000000">LEW :</text>
  <text x="364.00" y="258.94" font-family="Arial, Helvetica, sans-serif" font-size="1.8" fill="#000000">CHECKED :</text>
  <text x="388.00" y="258.94" font-family="Arial, Helvetica, sans-serif" font-size="1.8" fill="#000000">DATE :</text>
  <text x="364.00" y="273.94" font-family="Arial, Helvetica, sans-serif" font-size="1.8" fill="#000000">DRAWING NO. :</text>
  <text x="388.00" y="273.94" font-family="Arial, Helvetica, sans-serif" font-size="1.8" fill="#000000">REV :</text>
  <circle cx="218.00" cy="192.51" r="0.50" stroke="#000000" stroke-width="0.25" fill="none" />
  <line x1="218.50" y1="192.51" x2="230.00" y2="189.51" stroke="#000000" stroke-width="0.25" fill="none" />
  <line x1="230.00" y1="193.01" x2="230.00" y2="192.01" stroke="#000000" stroke-width="0.25" fill="none" />
  <line x1="231.00" y1="192.51" x2="234.00" y2="192.51" stroke="#000000" stroke-width="0.25" fill="none" />
  <line x1="217.00" y1="192.51" x2="214.00" y2="192.51" stroke="#000000" stroke-width="0.25" fill="none" />
  <text x="219.00" y="199.29" font-family="Arial, Helvetica, sans-serif" font-size="1.6" fill="#000000"><tspan x="219.00">63A DP</tspan><tspan x="219.00" dy="2.2">ISOLATOR</tspan></text>
  <polygon points="243.00,195.51 255.00,195.51 255.00,189.51 243.00,189.51" stroke="#000000" stroke-width="0.25" fill="none" />
  <text x="244.80" y="193.56" font-family="Arial, Helvetica, sans-serif" font-size="3.5" fill="#000000">KWH</text>
  <line x1="255.00" y1="192.51" x2="258.00" y2="192.51" stroke="#000000" stroke-width="0.25" fill="none" />
  <line x1="243.00" y1="192.51" x2="240.00" y2="192.51" stroke="#000000" stroke-width="0.25" fill="none" />
  <text x="239.00" y="186.45" font-family="Arial, Helvetica, sans-serif" font-size="2.8" fill="#000000">KWH METER BY SP</text>
  <circle cx="271.50" cy="192.51" r="0.50" stroke="#000000" stroke-width="0.25" fill="none" />
  <circle cx="276.50" cy="192.51" r="0.50" stroke="#000000" stroke-width="0.25" fill="none" />
  <path d="M 276.43,191.91 A 2.50,2.50 0 0,0 271.58,191.87" stroke="#000000" stroke-width="0.25" fill="none" />
  <line x1="277.00" y1="192.51" x2="280.50" y2="192.51" stroke="#000000" stroke-width="0.25" fill="none" />
  <line x1="267.50" y1="192.51" x2="271.00" y2="192.51" stroke="#000000" stroke-width="0.25" fill="none" />
  <line x1="280.50" y1="192.51" x2="283.50" y2="192.51" stroke="#000000" stroke-width="0.25" fill="none" />
  <line x1="267.50" y1="192.51" x2="264.50" y2="192.51" stroke="#000000" stroke-width="0.25" fill="none" />
  <text x="269.00" y="198.89" font-family="Arial, Helvetica, sans-serif" font-size="1.6" fill="#000000"><tspan x="269.00">63A DP MCB</tspan><tspan x="269.00" dy="2.2">TYPE B 10kA</tspan></text>
  <text x="306.50" y="191.75" font-family="Arial, Helvetica, sans-serif" font-size="2.8" fill="#000000">INCOMING FROM HDB ELECTRICAL RISER</text>
  <text x="297.50" y="203.35" font-family="Arial, Helvetica, sans-serif" font-size="2.8" fill="#000000"><tspan x="297.50">2 x 1C 16sqmm XLPE/PVC +</tspan><tspan x="297.50" dy="3.9">16sqmm PVC CPC</tspan></text>
  <text x="165.68" y="175.55" font-family="Arial, Helvetica, sans-serif" font-size="2.8" fill="#000000"><tspan x="165.68">2 x 1C 16sqmm XLPE/PVC +</tspan><tspan x="165.68" dy="3.9">16sqmm PVC CPC</tspan></text>
  <text x="214.00" y="206.73" font-family="Arial, Helvetica, sans-serif" font-size="2.8" fill="#000000">METER BOARD</text>
  <text x="232.25" y="213.53" font-family="Arial, Helvetica, sans-serif" font-size="2.8" fill="#000000">LOCATED AT METER COMPARTMENT</text>
  <circle cx="210.00" cy="152.71" r="0.50" stroke="#000000" stroke-width="0.25" fill="none" />
  <circle cx="210.00" cy="147.71" r="0.50" stroke="#000000" stroke-width="0.25" fill="none" />
  <path d="M 210.60,152.64 A 2.50,2.50 0 0,0 210.64,147.79" stroke="#000000" stroke-width="0.25" fill="none" />
  <line x1="210.00" y1="147.21" x2="210.00" y2="143.71" stroke="#000000" stroke-width="0.25" fill="none" />
  <line x1="210.00" y1="156.71" x2="210.00" y2="153.21" stroke="#000000" stroke-width="0.25" fill="none" />
  <line x1="210.00" y1="143.71" x2="210.00" y2="140.71" stroke="#000000" stroke-width="0.25" fill="none" />
  <line x1="210.00" y1="156.71" x2="210.00" y2="159.71" stroke="#000000" stroke-width="0.25" fill="none" />
  <text x="216.60" y="150.05" font-family="Arial, Helvetica, sans-serif" font-size="2.3" fill="#000000"><tspan x="216.60">63A DP MCB</tspan><tspan x="216.60" dy="3.2">10kA</tspan></text>
  <line x1="162.30" y1="137.71" x2="257.70" y2="137.71" stroke="#000000" stroke-width="0.50" fill="none" />
  <text x="165.30" y="142.95" font-family="Arial, Helvetica, sans-serif" font-size="2.8" fill="#000000">100A COMB BAR</text>
  <text x="178.40" y="135.97" font-family="Arial, Helvetica, sans-serif" font-size="2.2" fill="#000000" transform="rotate(-90.0,178.40,134.21)">S1</text>
  <circle cx="176.90" cy="121.71" r="0.50" stroke="#000000" stroke-width="0.25" fill="none" />
  <circle cx="176.90" cy="116.71" r="0.50" stroke="#000000" stroke-width="0.25" fill="none" />
  <path d="M 177.50,121.64 A 2.50,2.50 0 0,0 177.54,116.79" stroke="#000000" stroke-width="0.25" fill="none" />
  <line x1="173.40" y1="119.18" x2="179.40" y2="119.23" stroke="#000000" stroke-width="0.25" fill="none" />
  <line x1="179.40" y1="119.23" x2="178.19" y2="119.82" stroke="#000000" stroke-width="0.25" fill="none" />
  <line x1="179.40" y1="119.23" x2="178.21" y2="118.62" stroke="#000000" stroke-width="0.25" fill="none" />
  <line x1="176.90" y1="116.21" x2="176.90" y2="112.71" stroke="#000000" stroke-width="0.25" fill="none" />
  <line x1="176.90" y1="125.71" x2="176.90" y2="122.21" stroke="#000000" stroke-width="0.25" fill="none" />
  <line x1="176.90" y1="112.71" x2="176.90" y2="109.71" stroke="#000000" stroke-width="0.25" fill="none" />
  <line x1="176.90" y1="125.71" x2="176.90" y2="128.71" stroke="#000000" stroke-width="0.25" fill="none" />
  <text x="167.30" y="115.31" font-family="Arial, Helvetica, sans-serif" font-size="2.0" fill="#000000">B10A</text>
  <text x="167.30" y="117.81" font-family="Arial, Helvetica, sans-serif" font-size="2.0" fill="#000000">SPN</text>
  <text x="167.30" y="120.31" font-family="Arial, Helvetica, sans-serif" font-size="2.0" fill="#000000">MCB</text>
  <text x="167.30" y="122.81" font-family="Arial, Helvetica, sans-serif" font-size="2.0" fill="#000000">6kA</text>
  <text x="176.90" y="86.95" font-family="Arial, Helvetica, sans-serif" font-size="2.8" fill="#000000" transform="rotate(-90.0,176.90,84.71)">1 no. Lights</text>
  <text x="216.60" y="135.97" font-family="Arial, Helvetica, sans-serif" font-size="2.2" fill="#000000" transform="rotate(-90.0,216.60,134.21)">P1</text>
  <circle cx="215.10" cy="121.71" r="0.50" stroke="#000000" stroke-width="0.25" fill="none" />
  <circle cx="215.10" cy="116.71" r="0.50" stroke="#000000" stroke-width="0.25" fill="none" />
  <path d="M 215.70,121.64 A 2.50,2.50 0 0,0 215.74,116.79" stroke="#000000" stroke-width="0.25" fill="none" />
  <line x1="211.60" y1="119.18" x2="217.60" y2="119.23" stroke="#000000" stroke-width="0.25" fill="none" />
  <line x1="217.60" y1="119.23" x2="216.39" y2="119.82" stroke="#000000" stroke-width="0.25" fill="none" />
  <line x1="217.60" y1="119.23" x2="216.41" y2="118.62" stroke="#000000" stroke-width="0.25" fill="none" />
  <line x1="215.10" y1="116.21" x2="215.10" y2="112.71" stroke="#000000" stroke-width="0.25" fill="none" />
  <line x1="215.10" y1="125.71" x2="215.10" y2="122.21" stroke="#000000" stroke-width="0.25" fill="none" />
  <line x1="215.10" y1="112.71" x2="215.10" y2="109.71" stroke="#000000" stroke-width="0.25" fill="none" />
  <line x1="215.10" y1="125.71" x2="215.10" y2="128.71" stroke="#000000" stroke-width="0.25" fill="none" />
  <text x="205.50" y="115.31" font-family="Arial, Helvetica, sans-serif" font-size="2.0" fill="#000000">B20A</text>
  <text x="205.50" y="117.81" font-family="Arial, Helvetica, sans-serif" font-size="2.0" fill="#000000">SPN</text>
  <text x="205.50" y="120.31" font-family="Arial, Helvetica, sans-serif" font-size="2.0" fill="#000000">MCB</text>
  <text x="205.50" y="122.81" font-family="Arial, Helvetica, sans-serif" font-size="2.0" fill="#000000">6kA</text>
  <text x="215.10" y="86.95" font-family="Arial, Helvetica, sans-serif" font-size="2.8" fill="#000000" transform="rotate(-90.0,215.10,84.71)">1 no. 13A S/S/O</text>
  <text x="249.70" y="135.97" font-family="Arial, Helvetica, sans-serif" font-size="2.2" fill="#000000" transform="rotate(-90.0,249.70,134.21)">SP1</text>
  <circle cx="248.20" cy="121.71" r="0.50" stroke="#000000" stroke-width="0.25" fill="none" />
  <circle cx="248.20" cy="116.71" r="0.50" stroke="#000000" stroke-width="0.25" fill="none" />
  <path d="M 248.80,121.64 A 2.50,2.50 0 0,0 248.84,116.79" stroke="#000000" stroke-width="0.25" fill="none" />
  <line x1="248.20" y1="116.21" x2="248.20" y2="112.71" stroke="#000000" stroke-width="0.25" fill="none" />
  <line x1="248.20" y1="125.71" x2="248.20" y2="122.21" stroke="#000000" stroke-width="0.25" fill="none" />
  <line x1="248.20" y1="112.71" x2="248.20" y2="109.71" stroke="#000000" stroke-width="0.25" fill="none" />
  <line x1="248.20" y1="125.71" x2="248.20" y2="128.71" stroke="#000000" stroke-width="0.25" fill="none" />
  <line x1="217.60" y1="119.23" x2="250.70" y2="119.23" stroke="#000000" stroke-width="0.25" fill="none" />
  <line x1="250.70" y1="119.23" x2="249.49" y2="119.82" stroke="#000000" stroke-width="0.25" fill="none" />
  <line x1="250.70" y1="119.23" x2="249.51" y2="118.62" stroke="#000000" stroke-width="0.25" fill="none" />
  <text x="248.20" y="86.95" font-family="Arial, Helvetica, sans-serif" font-size="2.8" fill="#000000" transform="rotate(-90.0,248.20,84.71)">SPARE</text>
  <text x="163.90" y="87.95" font-family="Arial, Helvetica, sans-serif" font-size="2.8" fill="#000000" transform="rotate(-90.0,163.90,87.95)">2C 1.5sqmm PVC + 1.5sqmm</text>
  <text x="167.82" y="87.95" font-family="Arial, Helvetica, sans-serif" font-size="2.8" fill="#000000" transform="rotate(-90.0,167.82,87.95)">PVC CPC IN METAL TRUNKING</text>
  <text x="225.10" y="87.95" font-family="Arial, Helvetica, sans-serif" font-size="2.8" fill="#000000" transform="rotate(-90.0,225.10,87.95)">2C 2.5sqmm PVC + 2.5sqmm</text>
  <text x="229.02" y="87.95" font-family="Arial, Helvetica, sans-serif" font-size="2.8" fill="#000000" transform="rotate(-90.0,229.02,87.95)">PVC CPC IN METAL TRUNKING</text>
  <text x="158.30" y="152.11" font-family="Arial, Helvetica, sans-serif" font-size="3.0" fill="#000000">63A DB</text>
  <text x="158.30" y="155.15" font-family="Arial, Helvetica, sans-serif" font-size="1.8" fill="#000000">APPROVED LOAD: 14KVA AT 230V</text>
  <line x1="276.70" y1="156.01" x2="276.70" y2="158.69" stroke="#000000" stroke-width="0.25" fill="none" />
  <line x1="272.70" y1="158.69" x2="280.70" y2="158.69" stroke="#000000" stroke-width="0.25" fill="none" />
  <line x1="274.03" y1="160.36" x2="279.37" y2="160.36" stroke="#000000" stroke-width="0.25" fill="none" />
  <line x1="275.37" y1="162.04" x2="278.03" y2="162.04" stroke="#000000" stroke-width="0.25" fill="none" />
  <text x="283.70" y="159.20" font-family="Arial, Helvetica, sans-serif" font-size="2.3" fill="#000000">E</text>
  <line x1="210.00" y1="192.51" x2="214.00" y2="192.51" stroke="#000000" stroke-width="0.25" fill="none" />
  <line x1="234.00" y1="192.51" x2="240.00" y2="192.51" stroke="#000000" stroke-width="0.25" fill="none" />
  <line x1="258.00" y1="192.51" x2="264.50" y2="192.51" stroke="#000000" stroke-width="0.25" fill="none" />
  <line x1="283.50" y1="192.51" x2="303.50" y2="192.51" stroke="#000000" stroke-width="0.25" fill="none" />
  <line x1="292.00" y1="194.01" x2="295.00" y2="191.01" stroke="#000000" stroke-width="0.25" fill="none" />
  <line x1="293.50" y1="192.51" x2="293.50" y2="202.51" stroke="#000000" stroke-width="0.25" fill="none" />
  <line x1="293.50" y1="202.51" x2="296.50" y2="202.51" stroke="#000000" stroke-width="0.25" fill="none" />
  <line x1="210.00" y1="192.51" x2="210.00" y2="166.71" stroke="#000000" stroke-width="0.25" fill="none" />
  <line x1="210.00" y1="174.71" x2="207.00" y2="174.71" stroke="#000000" stroke-width="0.25" fill="none" />
  <line x1="210.00" y1="166.71" x2="210.00" y2="156.71" stroke="#000000" stroke-width="0.25" fill="none" />
  <line x1="210.00" y1="140.71" x2="210.00" y2="137.71" stroke="#000000" stroke-width="0.25" fill="none" />
  <line x1="210.00" y1="140.71" x2="210.00" y2="137.71" stroke="#000000" stroke-width="0.25" fill="none" />
  <line x1="176.90" y1="137.71" x2="176.90" y2="125.71" stroke="#000000" stroke-width="0.25" fill="none" />
  <line x1="176.90" y1="109.71" x2="176.90" y2="86.71" stroke="#000000" stroke-width="0.25" fill="none" />
  <line x1="210.00" y1="137.71" x2="210.00" y2="125.71" stroke="#000000" stroke-width="0.25" fill="none" />
  <line x1="210.00" y1="109.71" x2="210.00" y2="86.71" stroke="#000000" stroke-width="0.25" fill="none" />
  <line x1="248.20" y1="137.71" x2="248.20" y2="125.71" stroke="#000000" stroke-width="0.25" fill="none" />
  <line x1="248.20" y1="109.71" x2="248.20" y2="86.71" stroke="#000000" stroke-width="0.25" fill="none" />
  <line x1="166.90" y1="91.71" x2="176.90" y2="91.71" stroke="#000000" stroke-width="0.25" fill="none" />
  <line x1="166.90" y1="91.71" x2="166.90" y2="86.71" stroke="#000000" stroke-width="0.25" fill="none" />
  <line x1="215.10" y1="91.71" x2="225.10" y2="91.71" stroke="#000000" stroke-width="0.25" fill="none" />
  <line x1="225.10" y1="91.71" x2="225.10" y2="86.71" stroke="#000000" stroke-width="0.25" fill="none" />
  <line x1="267.70" y1="156.01" x2="276.70" y2="156.01" stroke="#000000" stroke-width="0.25" fill="none" />
  <line x1="208.75" y1="175.96" x2="211.25" y2="173.46" stroke="#000000" stroke-width="0.50" fill="none" />
  <line x1="175.65" y1="92.96" x2="178.15" y2="90.46" stroke="#000000" stroke-width="0.50" fill="none" />
  <line x1="213.85" y1="92.96" x2="216.35" y2="90.46" stroke="#000000" stroke-width="0.50" fill="none" />
  <line x1="213.00" y1="208.29" x2="216.00" y2="208.29" stroke="#000000" stroke-width="0.25" fill="none" />
  <line x1="218.00" y1="208.29" x2="221.00" y2="208.29" stroke="#000000" stroke-width="0.25" fill="none" />
  <line x1="223.00" y1="208.29" x2="226.00" y2="208.29" stroke="#000000" stroke-width="0.25" fill="none" />
  <line x1="228.00" y1="208.29" x2="231.00" y2="208.29" stroke="#000000" stroke-width="0.25" fill="none" />
  <line x1="233.00" y1="208.29" x2="236.00" y2="208.29" stroke="#000000" stroke-width="0.25" fill="none" />
  <line x1="238.00" y1="208.29" x2="241.00" y2="208.29" stroke="#000000" stroke-width="0.25" fill="none" />
  <line x1="243.00" y1="208.29" x2="246.00" y2="208.29" stroke="#000000" stroke-width="0.25" fill="none" />
  <line x1="248.00" y1="208.29" x2="251.00" y2="208.29" stroke="#000000" stroke-width="0.25" fill="none" />
  <line x1="253.00" y1="208.29" x2="256.00" y2="208.29" stroke="#000000" stroke-width="0.25" fill="none" />
  <line x1="258.00" y1="208.29" x2="261.00" y2="208.29" stroke="#000000" stroke-width="0.25" fill="none" />
  <line x1="263.00" y1="208.29" x2="266.00" y2="208.29" stroke="#000000" stroke-width="0.25" fill="none" />
  <line x1="268.00" y1="208.29" x2="271.00" y2="208.29" stroke="#000000" stroke-width="0.25" fill="none" />
  <line x1="273.00" y1="208.29" x2="276.00" y2="208.29" stroke="#000000" stroke-width="0.25" fill="none" />
  <line x1="278.00" y1="208.29" x2="281.00" y2="208.29" stroke="#000000" stroke-width="0.25" fill="none" />
  <line x1="283.00" y1="208.29" x2="286.00" y2="208.29" stroke="#000000" stroke-width="0.25" fill="none" />
  <line x1="213.00" y1="182.71" x2="216.00" y2="182.71" stroke="#000000" stroke-width="0.25" fill="none" />
  <line x1="218.00" y1="182.71" x2="221.00" y2="182.71" stroke="#000000" stroke-width="0.25" fill="none" />
  <line x1="223.00" y1="182.71" x2="226.00" y2="182.71" stroke="#000000" stroke-width="0.25" fill="none" />
  <line x1="228.00" y1="182.71" x2="231.00" y2="182.71" stroke="#000000" stroke-width="0.25" fill="none" />
  <line x1="233.00" y1="182.71" x2="236.00" y2="182.71" stroke="#000000" stroke-width="0.25" fill="none" />
  <line x1="238.00" y1="182.71" x2="241.00" y2="182.71" stroke="#000000" stroke-width="0.25" fill="none" />
  <line x1="243.00" y1="182.71" x2="246.00" y2="182.71" stroke="#000000" stroke-width="0.25" fill="none" />
  <line x1="248.00" y1="182.71" x2="251.00" y2="182.71" stroke="#000000" stroke-width="0.25" fill="none" />
  <line x1="253.00" y1="182.71" x2="256.00" y2="182.71" stroke="#000000" stroke-width="0.25" fill="none" />
  <line x1="258.00" y1="182.71" x2="261.00" y2="182.71" stroke="#000000" stroke-width="0.25" fill="none" />
  <line x1="263.00" y1="182.71" x2="266.00" y2="182.71" stroke="#000000" stroke-width="0.25" fill="none" />
  <line x1="268.00" y1="182.71" x2="271.00" y2="182.71" stroke="#000000" stroke-width="0.25" fill="none" />
  <line x1="273.00" y1="182.71" x2="276.00" y2="182.71" stroke="#000000" stroke-width="0.25" fill="none" />
  <line x1="278.00" y1="182.71" x2="281.00" y2="182.71" stroke="#000000" stroke-width="0.25" fill="none" />
  <line x1="283.00" y1="182.71" x2="286.00" y2="182.71" stroke="#000000" stroke-width="0.25" fill="none" />
  <line x1="213.00" y1="208.29" x2="213.00" y2="205.29" stroke="#000000" stroke-width="0.25" fill="none" />
  <line x1="213.00" y1="203.29" x2="213.00" y2="200.29" stroke="#000000" stroke-width="0.25" fill="none" />
  <line x1="213.00" y1="198.29" x2="213.00" y2="195.29" stroke="#000000" stroke-width="0.25" fill="none" />
  <line x1="213.00" y1="193.29" x2="213.00" y2="190.29" stroke="#000000" stroke-width="0.25" fill="none" />
  <line x1="213.00" y1="188.29" x2="213.00" y2="185.29" stroke="#000000" stroke-width="0.25" fill="none" />
  <line x1="213.00" y1="183.29" x2="213.00" y2="182.71" stroke="#000000" stroke-width="0.25" fill="none" />
  <line x1="287.50" y1="208.29" x2="287.50" y2="205.29" stroke="#000000" stroke-width="0.25" fill="none" />
  <line x1="287.50" y1="203.29" x2="287.50" y2="200.29" stroke="#000000" stroke-width="0.25" fill="none" />
  <line x1="287.50" y1="198.29" x2="287.50" y2="195.29" stroke="#000000" stroke-width="0.25" fill="none" />
  <line x1="287.50" y1="193.29" x2="287.50" y2="190.29" stroke="#000000" stroke-width="0.25" fill="none" />
  <line x1="287.50" y1="188.29" x2="287.50" y2="185.29" stroke="#000000" stroke-width="0.25" fill="none" />
  <line x1="287.50" y1="183.29" x2="287.50" y2="182.71" stroke="#000000" stroke-width="0.25" fill="none" />
  <line x1="152.30" y1="165.71" x2="155.30" y2="165.71" stroke="#000000" stroke-width="0.25" fill="none" />
  <line x1="157.30" y1="165.71" x2="160.30" y2="165.71" stroke="#000000" stroke-width="0.25" fill="none" />
  <line x1="162.30" y1="165.71" x2="165.30" y2="165.71" stroke="#000000" stroke-width="0.25" fill="none" />
  <line x1="167.30" y1="165.71" x2="170.30" y2="165.71" stroke="#000000" stroke-width="0.25" fill="none" />
  <line x1="172.30" y1="165.71" x2="175.30" y2="165.71" stroke="#000000" stroke-width="0.25" fill="none" />
  <line x1="177.30" y1="165.71" x2="180.30" y2="165.71" stroke="#000000" stroke-width="0.25" fill="none" />
  <line x1="182.30" y1="165.71" x2="185.30" y2="165.71" stroke="#000000" stroke-width="0.25" fill="none" />
  <line x1="187.30" y1="165.71" x2="190.30" y2="165.71" stroke="#000000" stroke-width="0.25" fill="none" />
  <line x1="192.30" y1="165.71" x2="195.30" y2="165.71" stroke="#000000" stroke-width="0.25" fill="none" />
  <line x1="197.30" y1="165.71" x2="200.30" y2="165.71" stroke="#000000" stroke-width="0.25" fill="none" />
  <line x1="202.30" y1="165.71" x2="205.30" y2="165.71" stroke="#000000" stroke-width="0.25" fill="none" />
  <line x1="207.30" y1="165.71" x2="210.30" y2="165.71" stroke="#000000" stroke-width="0.25" fill="none" />
  <line x1="212.30" y1="165.71" x2="215.30" y2="165.71" stroke="#000000" stroke-width="0.25" fill="none" />
  <line x1="217.30" y1="165.71" x2="220.30" y2="165.71" stroke="#000000" stroke-width="0.25" fill="none" />
  <line x1="222.30" y1="165.71" x2="225.30" y2="165.71" stroke="#000000" stroke-width="0.25" fill="none" />
  <line x1="227.30" y1="165.71" x2="230.30" y2="165.71" stroke="#000000" stroke-width="0.25" fill="none" />
  <line x1="232.30" y1="165.71" x2="235.30" y2="165.71" stroke="#000000" stroke-width="0.25" fill="none" />
  <line x1="237.30" y1="165.71" x2="240.30" y2="165.71" stroke="#000000" stroke-width="0.25" fill="none" />
  <line x1="242.30" y1="165.71" x2="245.30" y2="165.71" stroke="#000000" stroke-width="0.25" fill="none" />
  <line x1="247.30" y1="165.71" x2="250.30" y2="165.71" stroke="#000000" stroke-width="0.25" fill="none" />
  <line x1="252.30" y1="165.71" x2="255.30" y2="165.71" stroke="#000000" stroke-width="0.25" fill="none" />
  <line x1="257.30" y1="165.71" x2="260.30" y2="165.71" stroke="#000000" stroke-width="0.25" fill="none" />
  <line x1="262.30" y1="165.71" x2="265.30" y2="165.71" stroke="#000000" stroke-width="0.25" fill="none" />
  <line x1="267.30" y1="165.71" x2="267.70" y2="165.71" stroke="#000000" stroke-width="0.25" fill="none" />
  <line x1="152.30" y1="101.71" x2="155.30" y2="101.71" stroke="#000000" stroke-width="0.25" fill="none" />
  <line x1="157.30" y1="101.71" x2="160.30" y2="101.71" stroke="#000000" stroke-width="0.25" fill="none" />
  <line x1="162.30" y1="101.71" x2="165.30" y2="101.71" stroke="#000000" stroke-width="0.25" fill="none" />
  <line x1="167.30" y1="101.71" x2="170.30" y2="101.71" stroke="#000000" stroke-width="0.25" fill="none" />
  <line x1="172.30" y1="101.71" x2="175.30" y2="101.71" stroke="#000000" stroke-width="0.25" fill="none" />
  <line x1="177.30" y1="101.71" x2="180.30" y2="101.71" stroke="#000000" stroke-width="0.25" fill="none" />
  <line x1="182.30" y1="101.71" x2="185.30" y2="101.71" stroke="#000000" stroke-width="0.25" fill="none" />
  <line x1="187.30" y1="101.71" x2="190.30" y2="101.71" stroke="#000000" stroke-width="0.25" fill="none" />
  <line x1="192.30" y1="101.71" x2="195.30" y2="101.71" stroke="#000000" stroke-width="0.25" fill="none" />
  <line x1="197.30" y1="101.71" x2="200.30" y2="101.71" stroke="#000000" stroke-width="0.25" fill="none" />
  <line x1="202.30" y1="101.71" x2="205.30" y2="101.71" stroke="#000000" stroke-width="0.25" fill="none" />
  <line x1="207.30" y1="101.71" x2="210.30" y2="101.71" stroke="#000000" stroke-width="0.25" fill="none" />
  <line x1="212.30" y1="101.71" x2="215.30" y2="101.71" stroke="#000000" stroke-width="0.25" fill="none" />
  <line x1="217.30" y1="101.71" x2="220.30" y2="101.71" stroke="#000000" stroke-width="0.25" fill="none" />
  <line x1="222.30" y1="101.71" x2="225.30" y2="101.71" stroke="#000000" stroke-width="0.25" fill="none" />
  <line x1="227.30" y1="101.71" x2="230.30" y2="101.71" stroke="#000000" stroke-width="0.25" fill="none" />
  <line x1="232.30" y1="101.71" x2="235.30" y2="101.71" stroke="#000000" stroke-width="0.25" fill="none" />
  <line x1="237.30" y1="101.71" x2="240.30" y2="101.71" stroke="#000000" stroke-width="0.25" fill="none" />
  <line x1="242.30" y1="101.71" x2="245.30" y2="101.71" stroke="#000000" stroke-width="0.25" fill="none" />
  <line x1="247.30" y1="101.71" x2="250.30" y2="101.71" stroke="#000000" stroke-width="0.25" fill="none" />
  <line x1="252.30" y1="101.71" x2="255.30" y2="101.71" stroke="#000000" stroke-width="0.25" fill="none" />
  <line x1="257.30" y1="101.71" x2="260.30" y2="101.71" stroke="#000000" stroke-width="0.25" fill="none" />
  <line x1="262.30" y1="101.71" x2="265.30" y2="101.71" stroke="#000000" stroke-width="0.25" fill="none" />
  <line x1="267.30" y1="101.71" x2="267.70" y2="101.71" stroke="#000000" stroke-width="0.25" fill="none" />
  <line x1="152.30" y1="165.71" x2="152.30" y2="162.71" stroke="#000000" stroke-width="0.25" fill="none" />
  <line x1="152.30" y1="160.71" x2="152.30" y2="157.71" stroke="#000000" stroke-width="0.25" fill="none" />
  <line x1="152.30" y1="155.71" x2="152.30" y2="152.71" stroke="#000000" stroke-width="0.25" fill="none" />
  <line x1="152.30" y1="150.71" x2="152.30" y2="147.71" stroke="#000000" stroke-width="0.25" fill="none" />
  <line x1="152.30" y1="145.71" x2="152.30" y2="142.71" stroke="#000000" stroke-width="0.25" fill="none" />
  <line x1="152.30" y1="140.71" x2="152.30" y2="137.71" stroke="#000000" stroke-width="0.25" fill="none" />
  <line x1="152.30" y1="135.71" x2="152.30" y2="132.71" stroke="#000000" stroke-width="0.25" fill="none" />
  <line x1="152.30" y1="130.71" x2="152.30" y2="127.71" stroke="#000000" stroke-width="0.25" fill="none" />
  <line x1="152.30" y1="125.71" x2="152.30" y2="122.71" stroke="#000000" stroke-width="0.25" fill="none" />
  <line x1="152.30" y1="120.71" x2="152.30" y2="117.71" stroke="#000000" stroke-width="0.25" fill="none" />
  <line x1="152.30" y1="115.71" x2="152.30" y2="112.71" stroke="#000000" stroke-width="0.25" fill="none" />
  <line x1="152.30" y1="110.71" x2="152.30" y2="107.71" stroke="#000000" stroke-width="0.25" fill="none" />
  <line x1="152.30" y1="105.71" x2="152.30" y2="102.71" stroke="#000000" stroke-width="0.25" fill="none" />
  <line x1="267.70" y1="165.71" x2="267.70" y2="162.71" stroke="#000000" stroke-width="0.25" fill="none" />
  <line x1="267.70" y1="160.71" x2="267.70" y2="157.71" stroke="#000000" stroke-width="0.25" fill="none" />
  <line x1="267.70" y1="155.71" x2="267.70" y2="152.71" stroke="#000000" stroke-width="0.25" fill="none" />
  <line x1="267.70" y1="150.71" x2="267.70" y2="147.71" stroke="#000000" stroke-width="0.25" fill="none" />
  <line x1="267.70" y1="145.71" x2="267.70" y2="142.71" stroke="#000000" stroke-width="0.25" fill="none" />
  <line x1="267.70" y1="140.71" x2="267.70" y2="137.71" stroke="#000000" stroke-width="0.25" fill="none" />
  <line x1="267.70" y1="135.71" x2="267.70" y2="132.71" stroke="#000000" stroke-width="0.25" fill="none" />
  <line x1="267.70" y1="130.71" x2="267.70" y2="127.71" stroke="#000000" stroke-width="0.25" fill="none" />
  <line x1="267.70" y1="125.71" x2="267.70" y2="122.71" stroke="#000000" stroke-width="0.25" fill="none" />
  <line x1="267.70" y1="120.71" x2="267.70" y2="117.71" stroke="#000000" stroke-width="0.25" fill="none" />
  <line x1="267.70" y1="115.71" x2="267.70" y2="112.71" stroke="#000000" stroke-width="0.25" fill="none" />
  <line x1="267.70" y1="110.71" x2="267.70" y2="107.71" stroke="#000000" stroke-width="0.25" fill="none" />
  <line x1="267.70" y1="105.71" x2="267.70" y2="102.71" stroke="#000000" stroke-width="0.25" fill="none" />
  <circle cx="176.90" cy="137.71" r="0.80" fill="rgb(0,0,0)" stroke="none" />
  <circle cx="215.10" cy="137.71" r="0.80" fill="rgb(0,0,0)" stroke="none" />
  <circle cx="248.20" cy="137.71" r="0.80" fill="rgb(0,0,0)" stroke="none" />
  <circle cx="267.70" cy="156.01" r="0.80" fill="rgb(0,0,0)" stroke="none" />
  <text x="13.00" y="264.40" font-family="Arial, Helvetica, sans-serif" font-size="3.0" fill="#000000">Electrical Installation</text>
  <text x="153.00" y="264.40" font-family="Arial, Helvetica, sans-serif" font-size="3.0" fill="#000000">LicenseKaki</text>
  <text x="225.00" y="263.80" font-family="Arial, Helvetica, sans-serif" font-size="3.5" fill="#000000"><tspan x="225.00">SINGLE LINE DIAGRAM</tspan><tspan x="225.00" dy="4.9">(SLD)</tspan></text>
  <text x="389.00" y="266.00" font-family="Arial, Helvetica, sans-serif" font-size="2.5" fill="#000000">DATE</text>
  <text x="365.00" y="278.00" font-family="Arial, Helvetica, sans-serif" font-size="2.5" fill="#000000"></text>
  <text x="394.00" y="278.80" font-family="Arial, Helvetica, sans-serif" font-size="3.5" fill="#000000">0</text>
  <text x="365.00" y="286.28" font-family="Arial, Helvetica, sans-serif" font-size="1.6" fill="#000000">SCALE : NTS</text>
  <text x="389.00" y="286.28" font-family="Arial, Helvetica, sans-serif" font-size="1.6" fill="#000000">SHEET : 1 OF 1</text>
</svg>