<svg xmlns="http://www.w3.org/2000/svg" viewBox="0 0 420.0 297.0" width="420.0mm" height="297.0mm">
  <rect width="420.0" height="297.0" fill="white" />
  <polygon points="10.00,287.00 410.00,287.00 410.00,10.00 10.00,10.00" stroke="#000000" stroke-width="0.25" fill="none" />
  <polygon points="10.00,287.00 410.00,287.00 410.00,255.00 10.00,255.00" stroke="#000000" stroke-width="0.25" fill="none" />
  <line x1="90.00" y1="255.00" x2="90.00" y2="287.00" stroke="#000000" stroke-width="0.25" fill="none" />
  <line x1="150.00" y1="255.00" x2="150.00" y2="287.00" stroke="#000000" stroke-width="0.25" fill="none" />
  <line x1="222.00" y1="255.00" x2="222.00" y2="287.00" stroke="#000000" stroke-width="0.25" fill="none" />
  <line x1="290.00" y1="255.00" x2="290.00" y2="287.00" stroke="#000000" stroke-width="0.25" fill="none" />
  <line x1="362.00" y1="255.00" x2="362.00" y2="287.00" stroke="#000000" stroke-width="0.25" fill="none" />
  <line x1="362.00" y1="270.00" x2="410.00" y2="270.00" stroke="#000000" stroke-width="0.25" fill="none" />
  <line x1="386.00" y1="255.00" x2="386.00" y2="287.00" stroke="#000000" stroke-width="0.25" fill="none" />
  <text x="12.00" y="258.94" font-family="Arial, Helvetica, sans-serif" font-size="1.8" fill="#000000">CLIENT / ADDRESS :</text>
  <text x="92.00" y="258.94" font-family="Arial, Helvetica, sans-serif" font-size="1.8" fill="#000000">MAIN CONTRACTOR :</text>
  <text x="152.00" y="258.94" font-family="Arial, Helvetica, sans-serif" font-size="1.8" fill="#000000">ELECTRICAL CONTRACTOR :</text>
  <text x="224.00" y="258.94" font-family="Arial, Helvetica, sans-serif" font-size="1.8" fill="#000000">DRAWING TITLE :</text>
  <text x="292.00" y="258.94" font-family="Arial, Helvetica, sans-serif" font-size="1.8" fill="#000000">LEW :</text>
  <text x="364.00" y="258.94" font-family="Arial, Helvetica, sans-serif" font-size="1.8" fill="#000000">CHECKED :</text>
  <text x="388.00" y="258.94" font-family="Arial, Helvetica, sans-serif" font-size="1.8" fill="#000000">DATE :</text>
  <text x="364.00" y="273.94" font-family="Arial, Helvetica, sans-serif" font-size="1.8" fill="#000000">DRAWING NO. :</text>
  <text x="388.00" y="273.94" font-family="Arial, Helvetica, sans-serif" font-size="1.8" fill="#000000">REV :</text>
  <polygon points="211.41,179.01 216.00,179.01 216.00,174.42 211.41,174.42" stroke="#000000" stroke-width="0.25" fill="none" />
  <line x1="216.00" y1="176.71" x2="218.41" y2="176.71" stroke="#000000" stroke-width="0.25" fill="none" />
  <line x1="218.41" y1="176.71" x2="218.41" y2="178.68" stroke="#000000" stroke-width="0.25" fill="none" />
  <text x="215.66" y="188.54" font-family="Arial, Helvetica, sans-serif" font-size="1.6" fill="#000000"><tspan x="215.66">40A DP</tspan><tspan x="215.66" dy="2.2">ISOLATOR</tspan></text>
  <polygon points="244.50,180.46 257.51,180.46 257.51,186.96 244.50,186.96" stroke="#000000" stroke-width="0.25" fill="none" />
  <text x="248.40" y="185.13" font-family="Arial, Helvetica, sans-serif" font-size="2.4" fill="#000000">KWH</text>
  <text x="234.50" y="178.90" font-family="Arial, Helvetica, sans-serif" font-size="2.8" fill="#000000">PG KWH METER</text>
  <path d="M 264.66,182.67 A 3.75,3.75 0 0,0 257.98,182.68" stroke="#000000" stroke-width="0.25" fill="none" />
  <circle cx="257.98" cy="183.72" r="0.66" stroke="#000000" stroke-width="0.25" fill="none" />
  <circle cx="264.66" cy="183.71" r="0.66" stroke="#000000" stroke-width="0.25" fill="none" />
  <text x="264.22" y="188.29" font-family="Arial, Helvetica, sans-serif" font-size="1.6" fill="#000000"><tspan x="264.22">40A DP MCB</tspan><tspan x="264.22" dy="2.2">TYPE B 10kA</tspan></text>
  <text x="298.50" y="182.95" font-family="Arial, Helvetica, sans-serif" font-size="2.8" fill="#000000">FROM LANDLORD RISER</text>
  <text x="165.36" y="168.00" font-family="Arial, Helvetica, sans-serif" font-size="2.8" fill="#000000"><tspan x="165.36">2 x 1C 10sqmm PVC/PVC +</tspan><tspan x="165.36" dy="3.9">10sqmm PVC CPC</tspan></text>
  <text x="213.00" y="196.68" font-family="Arial, Helvetica, sans-serif" font-size="2.8" fill="#000000">METER BOARD</text>
  <text x="227.75" y="203.48" font-family="Arial, Helvetica, sans-serif" font-size="2.8" fill="#000000">LOCATED AT METER COMPARTMENT</text>
  <path d="M 210.85,146.50 A 3.75,3.75 0 0,0 210.85,139.82" stroke="#000000" stroke-width="0.25" fill="none" />
  <circle cx="209.81" cy="139.82" r="0.66" stroke="#000000" stroke-width="0.25" fill="none" />
  <circle cx="209.82" cy="146.50" r="0.66" stroke="#000000" stroke-width="0.25" fill="none" />
  <text x="215.50" y="140.44" font-family="Arial, Helvetica, sans-serif" font-size="1.6" fill="#000000">40A DP MCB (10kA)</text>
  <path d="M 208.91,136.42 A 4.22,4.22 0 0,0 208.91,128.90" stroke="#000000" stroke-width="0.25" fill="none" />
  <circle cx="207.73" cy="128.90" r="0.74" stroke="#000000" stroke-width="0.25" fill="none" />
  <circle cx="207.74" cy="136.42" r="0.74" stroke="#000000" stroke-width="0.25" fill="none" />
  <line x1="211.20" y1="132.66" x2="213.01" y2="132.66" stroke="#000000" stroke-width="0.25" fill="none" />
  <line x1="213.01" y1="134.30" x2="213.01" y2="131.02" stroke="#000000" stroke-width="0.25" fill="none" />
  <text x="216.25" y="129.94" font-family="Arial, Helvetica, sans-serif" font-size="1.6" fill="#000000">40A DP RCCB (30mA)</text>
  <line x1="181.50" y1="124.16" x2="238.50" y2="124.16" stroke="#000000" stroke-width="0.50" fill="none" />
  <text x="184.50" y="129.40" font-family="Arial, Helvetica, sans-serif" font-size="2.8" fill="#000000">100A COMB BAR</text>
  <text x="196.50" y="122.42" font-family="Arial, Helvetica, sans-serif" font-size="2.2" fill="#000000" transform="rotate(-90.0,196.50,120.66)">S1</text>
  <path d="M 195.85,113.50 A 3.75,3.75 0 0,0 195.85,106.82" stroke="#000000" stroke-width="0.25" fill="none" />
  <circle cx="194.81" cy="106.82" r="0.66" stroke="#000000" stroke-width="0.25" fill="none" />
  <circle cx="194.82" cy="113.50" r="0.66" stroke="#000000" stroke-width="0.25" fill="none" />
  <text x="186.50" y="106.76" font-family="Arial, Helvetica, sans-serif" font-size="2.0" fill="#000000">B10A</text>
  <text x="186.50" y="109.26" font-family="Arial, Helvetica, sans-serif" font-size="2.0" fill="#000000">SPN</text>
  <text x="186.50" y="111.76" font-family="Arial, Helvetica, sans-serif" font-size="2.0" fill="#000000">MCB</text>
  <text x="186.50" y="114.26" font-family="Arial, Helvetica, sans-serif" font-size="2.0" fill="#000000">6kA</text>
  <text x="195.00" y="79.40" font-family="Arial, Helvetica, sans-serif" font-size="2.8" fill="#000000" transform="rotate(-90.0,195.00,77.16)">1 no. Lighting</text>
  <text x="232.50" y="122.42" font-family="Arial, Helvetica, sans-serif" font-size="2.2" fill="#000000" transform="rotate(-90.0,232.50,120.66)">P1</text>
  <path d="M 231.85,113.50 A 3.75,3.75 0 0,0 231.85,106.82" stroke="#000000" stroke-width="0.25" fill="none" />
  <circle cx="230.81" cy="106.82" r="0.66" stroke="#000000" stroke-width="0.25" fill="none" />
  <circle cx="230.82" cy="113.50" r="0.66" stroke="#000000" stroke-width="0.25" fill="none" />
  <text x="222.50" y="106.76" font-family="Arial, Helvetica, sans-serif" font-size="2.0" fill="#000000">B20A</text>
  <text x="222.50" y="109.26" font-family="Arial, Helvetica, sans-serif" font-size="2.0" fill="#000000">SPN</text>
  <text x="222.50" y="111.76" font-family="Arial, Helvetica, sans-serif" font-size="2.0" fill="#000000">MCB</text>
  <text x="222.50" y="114.26" font-family="Arial, Helvetica, sans-serif" font-size="2.0" fill="#000000">6kA</text>
  <text x="231.00" y="79.40" font-family="Arial, Helvetica, sans-serif" font-size="2.8" fill="#000000" transform="rotate(-90.0,231.00,77.16)">1 no. Power</text>
  <text x="182.00" y="80.40" font-family="Arial, Helvetica, sans-serif" font-size="2.8" fill="#000000" transform="rotate(-90.0,182.00,78.16)">2C 1.5sqmm PVC/PVC</text>
  <text x="241.00" y="80.40" font-family="Arial, Helvetica, sans-serif" font-size="2.8" fill="#000000" transform="rotate(-90.0,241.00,78.16)">2C 4.0sqmm PVC/PVC</text>
  <text x="177.50" y="149.56" font-family="Arial, Helvetica, sans-serif" font-size="3.0" fill="#000000">40A DB</text>
  <text x="177.50" y="152.60" font-family="Arial, Helvetica, sans-serif" font-size="1.8" fill="#000000">APPROVED LOAD: 9 KVA AT 230V</text>
  <line x1="255.75" y1="144.66" x2="255.75" y2="146.46" stroke="#000000" stroke-width="0.25" fill="none" />
  <line x1="253.50" y1="146.46" x2="258.00" y2="146.46" stroke="#000000" stroke-width="0.25" fill="none" />
  <line x1="254.25" y1="147.59" x2="257.25" y2="147.59" stroke="#000000" stroke-width="0.25" fill="none" />
  <line x1="255.00" y1="148.71" x2="256.50" y2="148.71" stroke="#000000" stroke-width="0.25" fill="none" />
  <text x="262.00" y="146.19" font-family="Arial, Helvetica, sans-serif" font-size="1.6" fill="#000000">E</text>
  <line x1="210.00" y1="183.71" x2="214.00" y2="183.71" stroke="#000000" stroke-width="0.25" fill="none" />
  <line x1="225.00" y1="183.71" x2="242.50" y2="183.71" stroke="#000000" stroke-width="0.25" fill="none" />
  <line x1="254.30" y1="183.71" x2="263.50" y2="183.71" stroke="#000000" stroke-width="0.25" fill="none" />
  <line x1="275.50" y1="183.71" x2="295.50" y2="183.71" stroke="#000000" stroke-width="0.25" fill="none" />
  <line x1="210.00" y1="183.71" x2="210.00" y2="159.16" stroke="#000000" stroke-width="0.25" fill="none" />
  <line x1="210.00" y1="167.16" x2="207.00" y2="167.16" stroke="#000000" stroke-width="0.25" fill="none" />
  <line x1="210.00" y1="159.16" x2="210.00" y2="147.16" stroke="#000000" stroke-width="0.25" fill="none" />
  <line x1="210.00" y1="127.16" x2="210.00" y2="124.16" stroke="#000000" stroke-width="0.25" fill="none" />
  <line x1="195.00" y1="124.16" x2="195.00" y2="114.16" stroke="#000000" stroke-width="0.25" fill="none" />
  <line x1="195.00" y1="102.16" x2="195.00" y2="79.16" stroke="#000000" stroke-width="0.25" fill="none" />
  <line x1="231.00" y1="124.16" x2="231.00" y2="114.16" stroke="#000000" stroke-width="0.25" fill="none" />
  <line x1="231.00" y1="102.16" x2="231.00" y2="79.16" stroke="#000000" stroke-width="0.25" fill="none" />
  <line x1="185.00" y1="84.16" x2="195.00" y2="84.16" stroke="#000000" stroke-width="0.25" fill="none" />
  <line x1="185.00" y1="84.16" x2="185.00" y2="79.16" stroke="#000000" stroke-width="0.25" fill="none" />
  <line x1="231.00" y1="84.16" x2="241.00" y2="84.16" stroke="#000000" stroke-width="0.25" fill="none" />
  <line x1="241.00" y1="84.16" x2="241.00" y2="79.16" stroke="#000000" stroke-width="0.25" fill="none" />
  <line x1="248.50" y1="144.66" x2="256.25" y2="144.66" stroke="#000000" stroke-width="0.25" fill="none" />
  <line x1="208.75" y1="168.41" x2="211.25" y2="165.91" stroke="#000000" stroke-width="0.50" fill="none" />
  <line x1="193.75" y1="85.41" x2="196.25" y2="82.91" stroke="#000000" stroke-width="0.50" fill="none" />
  <line x1="229.75" y1="85.41" x2="232.25" y2="82.91" stroke="#000000" stroke-width="0.50" fill="none" />
  <line x1="212.00" y1="198.24" x2="220.00" y2="198.24" stroke="#000000" stroke-width="0.25" fill="none" />
  <line x1="222.00" y1="198.24" x2="223.50" y2="198.24" stroke="#000000" stroke-width="0.25" fill="none" />
  <line x1="225.50" y1="198.24" x2="233.50" y2="198.24" stroke="#000000" stroke-width="0.25" fill="none" />
  <line x1="235.50" y1="198.24" x2="237.00" y2="198.24" stroke="#000000" stroke-width="0.25" fill="none" />
  <line x1="239.00" y1="198.24" x2="247.00" y2="198.24" stroke="#000000" stroke-width="0.25" fill="none" />
  <line x1="249.00" y1="198.24" x2="250.50" y2="198.24" stroke="#000000" stroke-width="0.25" fill="none" />
  <line x1="252.50" y1="198.24" x2="260.50" y2="198.24" stroke="#000000" stroke-width="0.25" fill="none" />
  <line x1="262.50" y1="198.24" x2="264.00" y2="198.24" stroke="#000000" stroke-width="0.25" fill="none" />
  <line x1="266.00" y1="198.24" x2="274.00" y2="198.24" stroke="#000000" stroke-width="0.25" fill="none" />
  <line x1="276.00" y1="198.24" x2="277.50" y2="198.24" stroke="#000000" stroke-width="0.25" fill="none" />
  <line x1="212.00" y1="175.16" x2="220.00" y2="175.16" stroke="#000000" stroke-width="0.25" fill="none" />
  <line x1="222.00" y1="175.16" x2="223.50" y2="175.16" stroke="#000000" stroke-width="0.25" fill="none" />
  <line x1="225.50" y1="175.16" x2="233.50" y2="175.16" stroke="#000000" stroke-width="0.25" fill="none" />
  <line x1="235.50" y1="175.16" x2="237.00" y2="175.16" stroke="#000000" stroke-width="0.25" fill="none" />
  <line x1="239.00" y1="175.16" x2="247.00" y2="175.16" stroke="#000000" stroke-width="0.25" fill="none" />
  <line x1="249.00" y1="175.16" x2="250.50" y2="175.16" stroke="#000000" stroke-width="0.25" fill="none" />
  <line x1="252.50" y1="175.16" x2="260.50" y2="175.16" stroke="#000000" stroke-width="0.25" fill="none" />
  <line x1="262.50" y1="175.16" x2="264.00" y2="175.16" stroke="#000000" stroke-width="0.25" fill="none" />
  <line x1="266.00" y1="175.16" x2="274.00" y2="175.16" stroke="#000000" stroke-width="0.25" fill="none" />
  <line x1="276.00" y1="175.16" x2="277.50" y2="175.16" stroke="#000000" stroke-width="0.25" fill="none" />
  <line x1="212.00" y1="198.24" x2="212.00" y2="190.24" stroke="#000000" stroke-width="0.25" fill="none" />
  <line x1="212.00" y1="188.24" x2="212.00" y2="186.74" stroke="#000000" stroke-width="0.25" fill="none" />
  <line x1="212.00" y1="184.74" x2="212.00" y2="176.74" stroke="#000000" stroke-width="0.25" fill="none" />
  <line x1="279.50" y1="198.24" x2="279.50" y2="190.24" stroke="#000000" stroke-width="0.25" fill="none" />
  <line x1="279.50" y1="188.24" x2="279.50" y2="186.74" stroke="#000000" stroke-width="0.25" fill="none" />
  <line x1="279.50" y1="184.74" x2="279.50" y2="176.74" stroke="#000000" stroke-width="0.25" fill="none" />
  <line x1="171.50" y1="155.16" x2="179.50" y2="155.16" stroke="#000000" stroke-width="0.25" fill="none" />
  <line x1="181.50" y1="155.16" x2="183.00" y2="155.16" stroke="#000000" stroke-width="0.25" fill="none" />
  <line x1="185.00" y1="155.16" x2="193.00" y2="155.16" stroke="#000000" stroke-width="0.25" fill="none" />
  <line x1="195.00" y1="155.16" x2="196.50" y2="155.16" stroke="#000000" stroke-width="0.25" fill="none" />
  <line x1="198.50" y1="155.16" x2="206.50" y2="155.16" stroke="#000000" stroke-width="0.25" fill="none" />
  <line x1="208.50" y1="155.16" x2="210.00" y2="155.16" stroke="#000000" stroke-width="0.25" fill="none" />
  <line x1="212.00" y1="155.16" x2="220.00" y2="155.16" stroke="#000000" stroke-width="0.25" fill="none" />
  <line x1="222.00" y1="155.16" x2="223.50" y2="155.16" stroke="#000000" stroke-width="0.25" fill="none" />
  <line x1="225.50" y1="155.16" x2="233.50" y2="155.16" stroke="#000000" stroke-width="0.25" fill="none" />
  <line x1="235.50" y1="155.16" x2="237.00" y2="155.16" stroke="#000000" stroke-width="0.25" fill="none" />
  <line x1="239.00" y1="155.16" x2="247.00" y2="155.16" stroke="#000000" stroke-width="0.25" fill="none" />
  <line x1="171.50" y1="94.16" x2="179.50" y2="94.16" stroke="#000000" stroke-width="0.25" fill="none" />
  <line x1="181.50" y1="94.16" x2="183.00" y2="94.16" stroke="#000000" stroke-width="0.25" fill="none" />
  <line x1="185.00" y1="94.16" x2="193.00" y2="94.16" stroke="#000000" stroke-width="0.25" fill="none" />
  <line x1="195.00" y1="94.16" x2="196.50" y2="94.16" stroke="#000000" stroke-width="0.25" fill="none" />
  <line x1="198.50" y1="94.16" x2="206.50" y2="94.16" stroke="#000000" stroke-width="0.25" fill="none" />
  <line x1="208.50" y1="94.16" x2="210.00" y2="94.16" stroke="#000000" stroke-width="0.25" fill="none" />
  <line x1="212.00" y1="94.16" x2="220.00" y2="94.16" stroke="#000000" stroke-width="0.25" fill="none" />
  <line x1="222.00" y1="94.16" x2="223.50" y2="94.16" stroke="#000000" stroke-width="0.25" fill="none" />
  <line x1="225.50" y1="94.16" x2="233.50" y2="94.16" stroke="#000000" stroke-width="0.25" fill="none" />
  <line x1="235.50" y1="94.16" x2="237.00" y2="94.16" stroke="#000000" stroke-width="0.25" fill="none" />
  <line x1="239.00" y1="94.16" x2="247.00" y2="94.16" stroke="#000000" stroke-width="0.25" fill="none" />
  <line x1="171.50" y1="155.16" x2="171.50" y2="147.16" stroke="#000000" stroke-width="0.25" fill="none" />
  <line x1="171.50" y1="145.16" x2="171.50" y2="143.66" stroke="#000000" stroke-width="0.25" fill="none" />
  <line x1="171.50" y1="141.66" x2="171.50" y2="133.66" stroke="#000000" stroke-width="0.25" fill="none" />
  <line x1="171.50" y1="131.66" x2="171.50" y2="130.16" stroke="#000000" stroke-width="0.25" fill="none" />
  <line x1="171.50" y1="128.16" x2="171.50" y2="120.16" stroke="#000000" stroke-width="0.25" fill="none" />
  <line x1="171.50" y1="118.16" x2="171.50" y2="116.66" stroke="#000000" stroke-width="0.25" fill="none" />
  <line x1="171.50" y1="114.66" x2="171.50" y2="106.66" stroke="#000000" stroke-width="0.25" fill="none" />
  <line x1="171.50" y1="104.66" x2="171.50" y2="103.16" stroke="#000000" stroke-width="0.25" fill="none" />
  <line x1="171.50" y1="101.16" x2="171.50" y2="94.16" stroke="#000000" stroke-width="0.25" fill="none" />
  <line x1="248.50" y1="155.16" x2="248.50" y2="147.16" stroke="#000000" stroke-width="0.25" fill="none" />
  <line x1="248.50" y1="145.16" x2="248.50" y2="143.66" stroke="#000000" stroke-width="0.25" fill="none" />
  <line x1="248.50" y1="141.66" x2="248.50" y2="133.66" stroke="#000000" stroke-width="0.25" fill="none" />
  <line x1="248.50" y1="131.66" x2="248.50" y2="130.16" stroke="#000000" stroke-width="0.25" fill="none" />
  <line x1="248.50" y1="128.16" x2="248.50" y2="120.16" stroke="#000000" stroke-width="0.25" fill="none" />
  <line x1="248.50" y1="118.16" x2="248.50" y2="116.66" stroke="#000000" stroke-width="0.25" fill="none" />
  <line x1="248.50" y1="114.66" x2="248.50" y2="106.66" stroke="#000000" stroke-width="0.25" fill="none" />
  <line x1="248.50" y1="104.66" x2="248.50" y2="103.16" stroke="#000000" stroke-width="0.25" fill="none" />
  <line x1="248.50" y1="101.16" x2="248.50" y2="94.16" stroke="#000000" stroke-width="0.25" fill="none" />
  <circle cx="195.00" cy="124.16" r="0.50" fill="rgb(0,0,0)" stroke="none" />
  <circle cx="231.00" cy="124.16" r="0.50" fill="rgb(0,0,0)" stroke="none" />
  <circle cx="248.50" cy="144.66" r="0.50" fill="rgb(0,0,0)" stroke="none" />
  <text x="13.00" y="264.40" font-family="Arial, Helvetica, sans-serif" font-size="3.0" fill="#000000">Electrical Installation</text>
  <text x="153.00" y="264.40" font-family="Arial, Helvetica, sans-serif" font-size="3.0" fill="#000000">LicenseKaki</text>
  <text x="225.00" y="263.80" font-family="Arial, Helvetica, sans-serif" font-size="3.5" fill="#000000"><tspan x="225.00">SINGLE LINE DIAGRAM</tspan><tspan x="225.00" dy="4.9">(SLD)</tspan></text>
  <text x="389.00" y="266.00" font-family="Arial, Helvetica, sans-serif" font-size="2.5" fill="#000000">DATE</text>
  <text x="365.00" y="278.00" font-family="Arial, Helvetica, sans-serif" font-size="2.5" fill="#000000"></text>
  <text x="394.00" y="278.80" font-family="Arial, Helvetica, sans-serif" font-size="3.5" fill="#000000">0</text>
  <text x="365.00" y="286.28" font-family="Arial, Helvetica, sans-serif" font-size="1.6" fill="#000000">SCALE : NTS</text>
  <text x="389.00" y="286.28" font-family="Arial, Helvetica, sans-serif" font-size="1.6" fill="#000000">SHEET : 1 OF 1</text>
</svg>