<svg xmlns="http://www.w3.org/2000/svg" viewBox="0 0 420.0 297.0" width="420.0mm" height="297.0mm">
  <rect width="420.0" height="297.0" fill="white" />
  <polygon points="10.00,287.00 410.00,287.00 410.00,10.00 10.00,10.00" stroke="#000000" stroke-width="0.25" fill="none" />
  <polygon points="10.00,287.00 410.00,287.00 410.00,255.00 10.00,255.00" stroke="#000000" stroke-width="0.25" fill="none" />
  <line x1="90.00" y1="255.00" x2="90.00" y2="287.00" stroke="#000000" stroke-width="0.25" fill="none" />
  <line x1="150.00" y1="255.00" x2="150.00" y2="287.00" stroke="#000000" stroke-width="0.25" fill="none" />
  <line x1="222.00" y1="255.00" x2="222.00" y2="287.00" stroke="#000000" stroke-width="0.25" fill="none" />
  <line x1="290.00" y1="255.00" x2="290.00" y2="287.00" stroke="#000000" stroke-width="0.25" fill="none" />
  <line x1="362.00" y1="255.00" x2="362.00" y2="287.00" stroke="#000000" stroke-width="0.25" fill="none" />
  <line x1="362.00" y1="270.00" x2="410.00" y2="270.00" stroke="#000000" stroke-width="0.25" fill="none" />
  <line x1="386.00" y1="255.00" x2="386.00" y2="287.00" stroke="#000000" stroke-width="0.25" fill="none" />
  <text x="12.00" y="258.94" font-family="Arial, Helvetica, sans-serif" font-size="1.8" fill="#000000">CLIENT / ADDRESS :</text>
  <text x="92.00" y="258.94" font-family="Arial, Helvetica, sans-serif" font-size="1.8" fill="#000000">MAIN CONTRACTOR :</text>
  <text x="152.00" y="258.94" font-family="Arial, Helvetica, sans-serif" font-size="1.8" fill="#000000">ELECTRICAL CONTRACTOR :</text>
  <text x="224.00" y="258.94" font-family="Arial, Helvetica, sans-serif" font-size="1.8" fill="#000000">DRAWING TITLE :</text>
  <text x="292.00" y="258.94" font-family="Arial, Helvetica, sans-serif" font-size="1.8" fill="#000000">LEW :</text>
  <text x="364.00" y="258.94" font-family="Arial, Helvetica, sans-serif" font-size="1.8" fill="#000000">CHECKED :</text>
  <text x="388.00" y="258.94" font-family="Arial, Helvetica, sans-serif" font-size="1.8" fill="#000000">DATE :</text>
  <text x="364.00" y="273.94" font-family="Arial, Helvetica, sans-serif" font-size="1.8" fill="#000000">DRAWING NO. :</text>
  <text x="388.00" y="273.94" font-family="Arial, Helvetica, sans-serif" font-size="1.8" fill="#000000">REV :</text>
  <circle cx="222.30" cy="190.71" r="0.70" stroke="#000000" stroke-width="0.25" fill="none" />
  <circle cx="216.70" cy="190.71" r="0.70" stroke="#000000" stroke-width="0.25" fill="none" />
  <polyline points="217.36,190.48 222.21,188.74" stroke="#000000" stroke-width="0.25" fill="none" />
  <text x="215.18" y="195.70" font-family="Arial, Helvetica, sans-serif" font-size="1.8" fill="#000000"><tspan x="215.18">40A DP</tspan><tspan x="215.18" dy="2.5">ISOLATOR</tspan></text>
  <polygon points="238.50,187.71 250.50,187.71 250.50,193.71 238.50,193.71" stroke="#000000" stroke-width="0.25" fill="none" />
  <text x="242.10" y="192.02" font-family="Arial, Helvetica, sans-serif" font-size="2.2" fill="#000000">KWH</text>
  <text x="234.50" y="185.65" font-family="Arial, Helvetica, sans-serif" font-size="2.8" fill="#000000">PG KWH METER</text>
  <path d="M 272.84,189.86 A 3.75,3.75 0 0,0 266.16,189.86" stroke="#000000" stroke-width="0.25" fill="none" />
  <circle cx="266.16" cy="190.90" r="0.66" stroke="#000000" stroke-width="0.25" fill="none" />
  <circle cx="272.84" cy="190.89" r="0.66" stroke="#000000" stroke-width="0.25" fill="none" />
  <line x1="265.50" y1="190.71" x2="263.50" y2="190.71" stroke="#000000" stroke-width="0.25" fill="none" />
  <line x1="273.50" y1="190.71" x2="275.50" y2="190.71" stroke="#000000" stroke-width="0.25" fill="none" />
  <text x="263.56" y="195.45" font-family="Arial, Helvetica, sans-serif" font-size="1.8" fill="#000000"><tspan x="263.56">40A DP MCB</tspan><tspan x="263.56" dy="2.5">TYPE B 10kA</tspan></text>
  <text x="296.50" y="189.95" font-family="Arial, Helvetica, sans-serif" font-size="2.8" fill="#000000">FROM LANDLORD RISER</text>
  <text x="165.36" y="174.75" font-family="Arial, Helvetica, sans-serif" font-size="2.8" fill="#000000"><tspan x="165.36">2 x 1C 10sqmm PVC/PVC +</tspan><tspan x="165.36" dy="3.9">10sqmm PVC CPC</tspan></text>
  <text x="213.00" y="203.93" font-family="Arial, Helvetica, sans-serif" font-size="2.8" fill="#000000">METER BOARD</text>
  <path d="M 210.85,151.25 A 3.75,3.75 0 0,0 210.85,144.57" stroke="#000000" stroke-width="0.25" fill="none" />
  <circle cx="209.81" cy="144.57" r="0.66" stroke="#000000" stroke-width="0.25" fill="none" />
  <circle cx="209.82" cy="151.25" r="0.66" stroke="#000000" stroke-width="0.25" fill="none" />
  <line x1="210.00" y1="151.91" x2="210.00" y2="153.91" stroke="#000000" stroke-width="0.25" fill="none" />
  <line x1="210.00" y1="143.91" x2="210.00" y2="141.91" stroke="#000000" stroke-width="0.25" fill="none" />
  <text x="213.85" y="147.35" font-family="Arial, Helvetica, sans-serif" font-size="1.8" fill="#000000">40A DP MCB (10KA)</text>
  <path d="M 211.17,136.17 A 4.22,4.22 0 0,0 211.17,128.65" stroke="#000000" stroke-width="0.25" fill="none" />
  <circle cx="209.99" cy="128.65" r="0.74" stroke="#000000" stroke-width="0.25" fill="none" />
  <circle cx="210.01" cy="136.17" r="0.74" stroke="#000000" stroke-width="0.25" fill="none" />
  <line x1="213.47" y1="132.41" x2="215.28" y2="132.41" stroke="#000000" stroke-width="0.25" fill="none" />
  <line x1="215.28" y1="134.05" x2="215.28" y2="130.77" stroke="#000000" stroke-width="0.25" fill="none" />
  <line x1="210.00" y1="136.91" x2="210.00" y2="138.91" stroke="#000000" stroke-width="0.25" fill="none" />
  <line x1="210.00" y1="127.91" x2="210.00" y2="125.91" stroke="#000000" stroke-width="0.25" fill="none" />
  <text x="216.01" y="131.85" font-family="Arial, Helvetica, sans-serif" font-size="1.8" fill="#000000"><tspan x="216.01">40A DP</tspan><tspan x="216.01" dy="2.5">RCCB </tspan><tspan x="216.01" dy="2.5">(30mA)</tspan></text>
  <line x1="181.50" y1="120.91" x2="280.00" y2="120.91" stroke="#000000" stroke-width="0.50" fill="none" />
  <text x="184.50" y="126.15" font-family="Arial, Helvetica, sans-serif" font-size="2.8" fill="#000000">100A BUSBAR</text>
  <text x="196.50" y="119.17" font-family="Arial, Helvetica, sans-serif" font-size="2.2" fill="#000000" transform="rotate(-90.0,196.50,118.29)">S1</text>
  <path d="M 195.85,108.25 A 3.75,3.75 0 0,0 195.85,101.57" stroke="#000000" stroke-width="0.25" fill="none" />
  <circle cx="194.81" cy="101.57" r="0.66" stroke="#000000" stroke-width="0.25" fill="none" />
  <circle cx="194.82" cy="108.25" r="0.66" stroke="#000000" stroke-width="0.25" fill="none" />
  <line x1="195.00" y1="108.91" x2="195.00" y2="110.91" stroke="#000000" stroke-width="0.25" fill="none" />
  <line x1="195.00" y1="100.91" x2="195.00" y2="98.91" stroke="#000000" stroke-width="0.25" fill="none" />
  <line x1="191.89" y1="104.91" x2="197.89" y2="104.91" stroke="#000000" stroke-width="0.25" fill="none" />
  <line x1="197.89" y1="104.91" x2="196.69" y2="104.31" stroke="#000000" stroke-width="0.25" fill="none" />
  <line x1="197.89" y1="104.91" x2="196.69" y2="105.51" stroke="#000000" stroke-width="0.25" fill="none" />
  <text x="186.50" y="103.51" font-family="Arial, Helvetica, sans-serif" font-size="2.0" fill="#000000">B10A</text>
  <text x="186.50" y="106.01" font-family="Arial, Helvetica, sans-serif" font-size="2.0" fill="#000000">SPN</text>
  <text x="186.50" y="108.51" font-family="Arial, Helvetica, sans-serif" font-size="2.0" fill="#000000">MCB</text>
  <text x="186.50" y="111.01" font-family="Arial, Helvetica, sans-serif" font-size="2.0" fill="#000000">6kA</text>
  <text x="195.00" y="76.15" font-family="Arial, Helvetica, sans-serif" font-size="2.8" fill="#000000" transform="rotate(-90.0,195.00,75.03)">1 NO. LIGHTING</text>
  <text x="232.50" y="119.17" font-family="Arial, Helvetica, sans-serif" font-size="2.2" fill="#000000" transform="rotate(-90.0,232.50,118.29)">P1</text>
  <path d="M 231.85,108.25 A 3.75,3.75 0 0,0 231.85,101.57" stroke="#000000" stroke-width="0.25" fill="none" />
  <circle cx="230.81" cy="101.57" r="0.66" stroke="#000000" stroke-width="0.25" fill="none" />
  <circle cx="230.82" cy="108.25" r="0.66" stroke="#000000" stroke-width="0.25" fill="none" />
  <line x1="231.00" y1="108.91" x2="231.00" y2="110.91" stroke="#000000" stroke-width="0.25" fill="none" />
  <line x1="231.00" y1="100.91" x2="231.00" y2="98.91" stroke="#000000" stroke-width="0.25" fill="none" />
  <line x1="227.89" y1="104.91" x2="233.89" y2="104.91" stroke="#000000" stroke-width="0.25" fill="none" />
  <line x1="233.89" y1="104.91" x2="232.69" y2="104.31" stroke="#000000" stroke-width="0.25" fill="none" />
  <line x1="233.89" y1="104.91" x2="232.69" y2="105.51" stroke="#000000" stroke-width="0.25" fill="none" />
  <text x="222.50" y="103.51" font-family="Arial, Helvetica, sans-serif" font-size="2.0" fill="#000000">B20A</text>
  <text x="222.50" y="106.01" font-family="Arial, Helvetica, sans-serif" font-size="2.0" fill="#000000">SPN</text>
  <text x="222.50" y="108.51" font-family="Arial, Helvetica, sans-serif" font-size="2.0" fill="#000000">MCB</text>
  <text x="222.50" y="111.01" font-family="Arial, Helvetica, sans-serif" font-size="2.0" fill="#000000">6kA</text>
  <text x="231.00" y="76.15" font-family="Arial, Helvetica, sans-serif" font-size="2.8" fill="#000000" transform="rotate(-90.0,231.00,75.03)">1 NO. POWER</text>
  <text x="182.00" y="76.15" font-family="Arial, Helvetica, sans-serif" font-size="2.8" fill="#000000" transform="rotate(-90.0,182.00,75.03)">2C 1.5sqmm PVC/PVC</text>
  <text x="241.00" y="76.15" font-family="Arial, Helvetica, sans-serif" font-size="2.8" fill="#000000" transform="rotate(-90.0,241.00,75.03)">2C 4.0sqmm PVC/PVC</text>
  <text x="177.50" y="156.31" font-family="Arial, Helvetica, sans-serif" font-size="3.0" fill="#000000">40A DB</text>
  <text x="177.50" y="159.35" font-family="Arial, Helvetica, sans-serif" font-size="1.8" fill="#000000">APPROVED LOAD: 9 kVA</text>
  <text x="177.50" y="169.15" font-family="Arial, Helvetica, sans-serif" font-size="2.8" fill="#000000">LOCATED INSIDE UNIT</text>
  <line x1="244.65" y1="169.91" x2="244.65" y2="171.71" stroke="#000000" stroke-width="0.25" fill="none" />
  <line x1="242.40" y1="171.71" x2="246.90" y2="171.71" stroke="#000000" stroke-width="0.25" fill="none" />
  <line x1="243.15" y1="172.84" x2="246.15" y2="172.84" stroke="#000000" stroke-width="0.25" fill="none" />
  <line x1="243.90" y1="173.96" x2="245.40" y2="173.96" stroke="#000000" stroke-width="0.25" fill="none" />
  <text x="249.90" y="171.44" font-family="Arial, Helvetica, sans-serif" font-size="1.6" fill="#000000">E</text>
  <line x1="210.00" y1="190.71" x2="216.00" y2="190.71" stroke="#000000" stroke-width="0.25" fill="none" />
  <line x1="223.00" y1="190.71" x2="238.50" y2="190.71" stroke="#000000" stroke-width="0.25" fill="none" />
  <line x1="250.50" y1="190.71" x2="265.50" y2="190.71" stroke="#000000" stroke-width="0.25" fill="none" />
  <line x1="273.50" y1="190.71" x2="293.50" y2="190.71" stroke="#000000" stroke-width="0.25" fill="none" />
  <line x1="210.00" y1="190.71" x2="210.00" y2="165.91" stroke="#000000" stroke-width="0.25" fill="none" />
  <line x1="210.00" y1="173.91" x2="207.00" y2="173.91" stroke="#000000" stroke-width="0.25" fill="none" />
  <line x1="210.00" y1="165.91" x2="210.00" y2="151.91" stroke="#000000" stroke-width="0.25" fill="none" />
  <line x1="210.00" y1="141.91" x2="210.00" y2="136.91" stroke="#000000" stroke-width="0.25" fill="none" />
  <line x1="210.00" y1="125.91" x2="210.00" y2="120.91" stroke="#000000" stroke-width="0.25" fill="none" />
  <line x1="210.00" y1="122.91" x2="210.00" y2="120.91" stroke="#000000" stroke-width="0.25" fill="none" />
  <line x1="195.00" y1="120.91" x2="195.00" y2="108.91" stroke="#000000" stroke-width="0.25" fill="none" />
  <line x1="195.00" y1="98.91" x2="195.00" y2="75.91" stroke="#000000" stroke-width="0.25" fill="none" />
  <line x1="231.00" y1="120.91" x2="231.00" y2="108.91" stroke="#000000" stroke-width="0.25" fill="none" />
  <line x1="231.00" y1="98.91" x2="231.00" y2="75.91" stroke="#000000" stroke-width="0.25" fill="none" />
  <line x1="185.00" y1="80.91" x2="195.00" y2="80.91" stroke="#000000" stroke-width="0.25" fill="none" />
  <line x1="185.00" y1="80.91" x2="185.00" y2="75.91" stroke="#000000" stroke-width="0.25" fill="none" />
  <line x1="231.00" y1="80.91" x2="241.00" y2="80.91" stroke="#000000" stroke-width="0.25" fill="none" />
  <line x1="241.00" y1="80.91" x2="241.00" y2="75.91" stroke="#000000" stroke-width="0.25" fill="none" />
  <line x1="244.65" y1="161.91" x2="244.65" y2="169.91" stroke="#000000" stroke-width="0.25" fill="none" />
  <line x1="208.75" y1="175.16" x2="211.25" y2="172.66" stroke="#000000" stroke-width="0.50" fill="none" />
  <line x1="193.75" y1="82.16" x2="196.25" y2="79.66" stroke="#000000" stroke-width="0.50" fill="none" />
  <line x1="229.75" y1="82.16" x2="232.25" y2="79.66" stroke="#000000" stroke-width="0.50" fill="none" />
  <line x1="212.00" y1="205.49" x2="220.00" y2="205.49" stroke="#808080" stroke-width="0.25" fill="none" />
  <line x1="222.00" y1="205.49" x2="223.50" y2="205.49" stroke="#808080" stroke-width="0.25" fill="none" />
  <line x1="225.50" y1="205.49" x2="233.50" y2="205.49" stroke="#808080" stroke-width="0.25" fill="none" />
  <line x1="235.50" y1="205.49" x2="237.00" y2="205.49" stroke="#808080" stroke-width="0.25" fill="none" />
  <line x1="239.00" y1="205.49" x2="247.00" y2="205.49" stroke="#808080" stroke-width="0.25" fill="none" />
  <line x1="249.00" y1="205.49" x2="250.50" y2="205.49" stroke="#808080" stroke-width="0.25" fill="none" />
  <line x1="252.50" y1="205.49" x2="260.50" y2="205.49" stroke="#808080" stroke-width="0.25" fill="none" />
  <line x1="262.50" y1="205.49" x2="264.00" y2="205.49" stroke="#808080" stroke-width="0.25" fill="none" />
  <line x1="266.00" y1="205.49" x2="274.00" y2="205.49" stroke="#808080" stroke-width="0.25" fill="none" />
  <line x1="276.00" y1="205.49" x2="277.50" y2="205.49" stroke="#808080" stroke-width="0.25" fill="none" />
  <line x1="212.00" y1="181.91" x2="220.00" y2="181.91" stroke="#808080" stroke-width="0.25" fill="none" />
  <line x1="222.00" y1="181.91" x2="223.50" y2="181.91" stroke="#808080" stroke-width="0.25" fill="none" />
  <line x1="225.50" y1="181.91" x2="233.50" y2="181.91" stroke="#808080" stroke-width="0.25" fill="none" />
  <line x1="235.50" y1="181.91" x2="237.00" y2="181.91" stroke="#808080" stroke-width="0.25" fill="none" />
  <line x1="239.00" y1="181.91" x2="247.00" y2="181.91" stroke="#808080" stroke-width="0.25" fill="none" />
  <line x1="249.00" y1="181.91" x2="250.50" y2="181.91" stroke="#808080" stroke-width="0.25" fill="none" />
  <line x1="252.50" y1="181.91" x2="260.50" y2="181.91" stroke="#808080" stroke-width="0.25" fill="none" />
  <line x1="262.50" y1="181.91" x2="264.00" y2="181.91" stroke="#808080" stroke-width="0.25" fill="none" />
  <line x1="266.00" y1="181.91" x2="274.00" y2="181.91" stroke="#808080" stroke-width="0.25" fill="none" />
  <line x1="276.00" y1="181.91" x2="277.50" y2="181.91" stroke="#808080" stroke-width="0.25" fill="none" />
  <line x1="212.00" y1="205.49" x2="212.00" y2="197.49" stroke="#808080" stroke-width="0.25" fill="none" />
  <line x1="212.00" y1="195.49" x2="212.00" y2="193.99" stroke="#808080" stroke-width="0.25" fill="none" />
  <line x1="212.00" y1="191.99" x2="212.00" y2="183.99" stroke="#808080" stroke-width="0.25" fill="none" />
  <line x1="212.00" y1="181.99" x2="212.00" y2="181.91" stroke="#808080" stroke-width="0.25" fill="none" />
  <line x1="277.50" y1="205.49" x2="277.50" y2="197.49" stroke="#808080" stroke-width="0.25" fill="none" />
  <line x1="277.50" y1="195.49" x2="277.50" y2="193.99" stroke="#808080" stroke-width="0.25" fill="none" />
  <line x1="277.50" y1="191.99" x2="277.50" y2="183.99" stroke="#808080" stroke-width="0.25" fill="none" />
  <line x1="277.50" y1="181.99" x2="277.50" y2="181.91" stroke="#808080" stroke-width="0.25" fill="none" />
  <line x1="171.50" y1="161.91" x2="179.50" y2="161.91" stroke="#808080" stroke-width="0.25" fill="none" />
  <line x1="181.50" y1="161.91" x2="183.00" y2="161.91" stroke="#808080" stroke-width="0.25" fill="none" />
  <line x1="185.00" y1="161.91" x2="193.00" y2="161.91" stroke="#808080" stroke-width="0.25" fill="none" />
  <line x1="195.00" y1="161.91" x2="196.50" y2="161.91" stroke="#808080" stroke-width="0.25" fill="none" />
  <line x1="198.50" y1="161.91" x2="206.50" y2="161.91" stroke="#808080" stroke-width="0.25" fill="none" />
  <line x1="208.50" y1="161.91" x2="210.00" y2="161.91" stroke="#808080" stroke-width="0.25" fill="none" />
  <line x1="212.00" y1="161.91" x2="220.00" y2="161.91" stroke="#808080" stroke-width="0.25" fill="none" />
  <line x1="222.00" y1="161.91" x2="223.50" y2="161.91" stroke="#808080" stroke-width="0.25" fill="none" />
  <line x1="225.50" y1="161.91" x2="233.50" y2="161.91" stroke="#808080" stroke-width="0.25" fill="none" />
  <line x1="235.50" y1="161.91" x2="237.00" y2="161.91" stroke="#808080" stroke-width="0.25" fill="none" />
  <line x1="239.00" y1="161.91" x2="247.00" y2="161.91" stroke="#808080" stroke-width="0.25" fill="none" />
  <line x1="171.50" y1="90.91" x2="179.50" y2="90.91" stroke="#808080" stroke-width="0.25" fill="none" />
  <line x1="181.50" y1="90.91" x2="183.00" y2="90.91" stroke="#808080" stroke-width="0.25" fill="none" />
  <line x1="185.00" y1="90.91" x2="193.00" y2="90.91" stroke="#808080" stroke-width="0.25" fill="none" />
  <line x1="195.00" y1="90.91" x2="196.50" y2="90.91" stroke="#808080" stroke-width="0.25" fill="none" />
  <line x1="198.50" y1="90.91" x2="206.50" y2="90.91" stroke="#808080" stroke-width="0.25" fill="none" />
  <line x1="208.50" y1="90.91" x2="210.00" y2="90.91" stroke="#808080" stroke-width="0.25" fill="none" />
  <line x1="212.00" y1="90.91" x2="220.00" y2="90.91" stroke="#808080" stroke-width="0.25" fill="none" />
  <line x1="222.00" y1="90.91" x2="223.50" y2="90.91" stroke="#808080" stroke-width="0.25" fill="none" />
  <line x1="225.50" y1="90.91" x2="233.50" y2="90.91" stroke="#808080" stroke-width="0.25" fill="none" />
  <line x1="235.50" y1="90.91" x2="237.00" y2="90.91" stroke="#808080" stroke-width="0.25" fill="none" />
  <line x1="239.00" y1="90.91" x2="247.00" y2="90.91" stroke="#808080" stroke-width="0.25" fill="none" />
  <line x1="171.50" y1="161.91" x2="171.50" y2="153.91" stroke="#808080" stroke-width="0.25" fill="none" />
  <line x1="171.50" y1="151.91" x2="171.50" y2="150.41" stroke="#808080" stroke-width="0.25" fill="none" />
  <line x1="171.50" y1="148.41" x2="171.50" y2="140.41" stroke="#808080" stroke-width="0.25" fill="none" />
  <line x1="171.50" y1="138.41" x2="171.50" y2="136.91" stroke="#808080" stroke-width="0.25" fill="none" />
  <line x1="171.50" y1="134.91" x2="171.50" y2="126.91" stroke="#808080" stroke-width="0.25" fill="none" />
  <line x1="171.50" y1="124.91" x2="171.50" y2="123.41" stroke="#808080" stroke-width="0.25" fill="none" />
  <line x1="171.50" y1="121.41" x2="171.50" y2="113.41" stroke="#808080" stroke-width="0.25" fill="none" />
  <line x1="171.50" y1="111.41" x2="171.50" y2="109.91" stroke="#808080" stroke-width="0.25" fill="none" />
  <line x1="171.50" y1="107.91" x2="171.50" y2="99.91" stroke="#808080" stroke-width="0.25" fill="none" />
  <line x1="171.50" y1="97.91" x2="171.50" y2="96.41" stroke="#808080" stroke-width="0.25" fill="none" />
  <line x1="171.50" y1="94.41" x2="171.50" y2="90.91" stroke="#808080" stroke-width="0.25" fill="none" />
  <line x1="248.50" y1="161.91" x2="248.50" y2="153.91" stroke="#808080" stroke-width="0.25" fill="none" />
  <line x1="248.50" y1="151.91" x2="248.50" y2="150.41" stroke="#808080" stroke-width="0.25" fill="none" />
  <line x1="248.50" y1="148.41" x2="248.50" y2="140.41" stroke="#808080" stroke-width="0.25" fill="none" />
  <line x1="248.50" y1="138.41" x2="248.50" y2="136.91" stroke="#808080" stroke-width="0.25" fill="none" />
  <line x1="248.50" y1="134.91" x2="248.50" y2="126.91" stroke="#808080" stroke-width="0.25" fill="none" />
  <line x1="248.50" y1="124.91" x2="248.50" y2="123.41" stroke="#808080" stroke-width="0.25" fill="none" />
  <line x1="248.50" y1="121.41" x2="248.50" y2="113.41" stroke="#808080" stroke-width="0.25" fill="none" />
  <line x1="248.50" y1="111.41" x2="248.50" y2="109.91" stroke="#808080" stroke-width="0.25" fill="none" />
  <line x1="248.50" y1="107.91" x2="248.50" y2="99.91" stroke="#808080" stroke-width="0.25" fill="none" />
  <line x1="248.50" y1="97.91" x2="248.50" y2="96.41" stroke="#808080" stroke-width="0.25" fill="none" />
  <line x1="248.50" y1="94.41" x2="248.50" y2="90.91" stroke="#808080" stroke-width="0.25" fill="none" />
  <circle cx="195.00" cy="120.91" r="0.50" fill="rgb(0,0,0)" stroke="none" />
  <circle cx="231.00" cy="120.91" r="0.50" fill="rgb(0,0,0)" stroke="none" />
  <circle cx="244.65" cy="161.91" r="0.50" fill="rgb(0,0,0)" stroke="none" />
  <text x="13.00" y="264.40" font-family="Arial, Helvetica, sans-serif" font-size="3.0" fill="#000000">Electrical Installation</text>
  <text x="153.00" y="264.40" font-family="Arial, Helvetica, sans-serif" font-size="3.0" fill="#000000">LicenseKaki</text>
  <text x="225.00" y="263.80" font-family="Arial, Helvetica, sans-serif" font-size="3.5" fill="#000000"><tspan x="225.00">SINGLE LINE DIAGRAM</tspan><tspan x="225.00" dy="4.9">(SLD)</tspan></text>
  <text x="389.00" y="266.00" font-family="Arial, Helvetica, sans-serif" font-size="2.5" fill="#000000">DATE</text>
  <text x="365.00" y="278.00" font-family="Arial, Helvetica, sans-serif" font-size="2.5" fill="#000000"></text>
  <text x="394.00" y="278.80" font-family="Arial, Helvetica, sans-serif" font-size="3.5" fill="#000000">0</text>
  <text x="365.00" y="286.28" font-family="Arial, Helvetica, sans-serif" font-size="1.6" fill="#000000">SCALE : NTS</text>
  <text x="389.00" y="286.28" font-family="Arial, Helvetica, sans-serif" font-size="1.6" fill="#000000">SHEET : 1 OF 1</text>
</svg>