<svg xmlns="http://www.w3.org/2000/svg" viewBox="0 0 420.0 297.0" width="420.0mm" height="297.0mm">
  <rect width="420.0" height="297.0" fill="white" />
  <polygon points="10.00,287.00 410.00,287.00 410.00,10.00 10.00,10.00" stroke="#000000" stroke-width="0.25" fill="none" />
  <polygon points="10.00,287.00 410.00,287.00 410.00,255.00 10.00,255.00" stroke="#000000" stroke-width="0.25" fill="none" />
  <line x1="90.00" y1="255.00" x2="90.00" y2="287.00" stroke="#000000" stroke-width="0.25" fill="none" />
  <line x1="150.00" y1="255.00" x2="150.00" y2="287.00" stroke="#000000" stroke-width="0.25" fill="none" />
  <line x1="222.00" y1="255.00" x2="222.00" y2="287.00" stroke="#000000" stroke-width="0.25" fill="none" />
  <line x1="290.00" y1="255.00" x2="290.00" y2="287.00" stroke="#000000" stroke-width="0.25" fill="none" />
  <line x1="362.00" y1="255.00" x2="362.00" y2="287.00" stroke="#000000" stroke-width="0.25" fill="none" />
  <line x1="362.00" y1="270.00" x2="410.00" y2="270.00" stroke="#000000" stroke-width="0.25" fill="none" />
  <line x1="386.00" y1="255.00" x2="386.00" y2="287.00" stroke="#000000" stroke-width="0.25" fill="none" />
  <text x="12.00" y="258.94" font-family="Arial, Helvetica, sans-serif" font-size="1.8" fill="#000000">CLIENT / ADDRESS :</text>
  <text x="92.00" y="258.94" font-family="Arial, Helvetica, sans-serif" font-size="1.8" fill="#000000">MAIN CONTRACTOR :</text>
  <text x="152.00" y="258.94" font-family="Arial, Helvetica, sans-serif" font-size="1.8" fill="#000000">ELECTRICAL CONTRACTOR :</text>
  <text x="224.00" y="258.94" font-family="Arial, Helvetica, sans-serif" font-size="1.8" fill="#000000">DRAWING TITLE :</text>
  <text x="292.00" y="258.94" font-family="Arial, Helvetica, sans-serif" font-size="1.8" fill="#000000">LEW :</text>
  <text x="364.00" y="258.94" font-family="Arial, Helvetica, sans-serif" font-size="1.8" fill="#000000">CHECKED :</text>
  <text x="388.00" y="258.94" font-family="Arial, Helvetica, sans-serif" font-size="1.8" fill="#000000">DATE :</text>
  <text x="364.00" y="273.94" font-family="Arial, Helvetica, sans-serif" font-size="1.8" fill="#000000">DRAWING NO. :</text>
  <text x="388.00" y="273.94" font-family="Arial, Helvetica, sans-serif" font-size="1.8" fill="#000000">REV :</text>
  <circle cx="216.87" cy="185.71" r="0.87" stroke="#000000" stroke-width="0.25" fill="none" />
  <circle cx="223.87" cy="185.71" r="0.87" stroke="#000000" stroke-width="0.25" fill="none" />
  <polyline points="217.70,185.42 223.76,183.25" stroke="#000000" stroke-width="0.25" fill="none" />
  <text x="215.66" y="190.54" font-family="Arial, Helvetica, sans-serif" font-size="1.6" fill="#000000"><tspan x="215.66">63A 4P</tspan><tspan x="215.66" dy="2.2">ISOLATOR</tspan></text>
  <polygon points="244.50,182.11 258.90,182.11 258.90,189.31 244.50,189.31" stroke="#000000" stroke-width="0.25" fill="none" />
  <text x="248.82" y="187.28" font-family="Arial, Helvetica, sans-serif" font-size="2.7" fill="#000000">KWH</text>
  <text x="234.50" y="180.05" font-family="Arial, Helvetica, sans-serif" font-size="2.8" fill="#000000">KWH METER BY SP</text>
  <path d="M 272.84,184.86 A 3.75,3.75 0 0,0 266.16,184.86" stroke="#000000" stroke-width="0.25" fill="none" />
  <circle cx="266.16" cy="185.90" r="0.66" stroke="#000000" stroke-width="0.25" fill="none" />
  <circle cx="272.84" cy="185.89" r="0.66" stroke="#000000" stroke-width="0.25" fill="none" />
  <text x="264.22" y="190.29" font-family="Arial, Helvetica, sans-serif" font-size="1.6" fill="#000000"><tspan x="264.22">63A TPN MCB</tspan><tspan x="264.22" dy="2.2">TYPE B 25kA</tspan></text>
  <text x="296.50" y="184.95" font-family="Arial, Helvetica, sans-serif" font-size="2.8" fill="#000000">INCOMING FROM HDB ELECTRICAL RISER</text>
  <text x="287.50" y="196.55" font-family="Arial, Helvetica, sans-serif" font-size="2.8" fill="#000000"><tspan x="287.50">4 x 1C 16sqmm PVC/PVC +</tspan><tspan x="287.50" dy="3.9">16sqmm PVC CPC IN METAL TRUNKING</tspan></text>
  <text x="150.24" y="169.15" font-family="Arial, Helvetica, sans-serif" font-size="2.8" fill="#000000"><tspan x="150.24">4 x 1C 16sqmm PVC/PVC +</tspan><tspan x="150.24" dy="3.9">16sqmm PVC CPC IN METAL TRUNKING</tspan></text>
  <text x="213.00" y="199.53" font-family="Arial, Helvetica, sans-serif" font-size="2.8" fill="#000000">METER BOARD</text>
  <text x="226.75" y="206.33" font-family="Arial, Helvetica, sans-serif" font-size="2.8" fill="#000000">LOCATED AT METER COMPARTMENT</text>
  <line x1="281.00" y1="203.59" x2="281.00" y2="205.39" stroke="#000000" stroke-width="0.25" fill="none" />
  <line x1="278.75" y1="205.39" x2="283.25" y2="205.39" stroke="#000000" stroke-width="0.25" fill="none" />
  <line x1="279.50" y1="206.51" x2="282.50" y2="206.51" stroke="#000000" stroke-width="0.25" fill="none" />
  <line x1="280.25" y1="207.64" x2="281.75" y2="207.64" stroke="#000000" stroke-width="0.25" fill="none" />
  <text x="287.25" y="205.12" font-family="Arial, Helvetica, sans-serif" font-size="1.6" fill="#000000">E</text>
  <path d="M 210.96,147.57 A 4.22,4.22 0 0,0 210.96,140.05" stroke="#000000" stroke-width="0.25" fill="none" />
  <circle cx="209.78" cy="140.05" r="0.74" stroke="#000000" stroke-width="0.25" fill="none" />
  <circle cx="209.80" cy="147.57" r="0.74" stroke="#000000" stroke-width="0.25" fill="none" />
  <text x="215.75" y="141.09" font-family="Arial, Helvetica, sans-serif" font-size="1.6" fill="#000000">63A TPN MCCB (25kA)</text>
  <line x1="77.50" y1="135.31" x2="342.50" y2="135.31" stroke="#000000" stroke-width="0.50" fill="none" />
  <text x="80.50" y="140.55" font-family="Arial, Helvetica, sans-serif" font-size="2.8" fill="#000000">200A BUSBAR</text>
  <text x="92.50" y="133.57" font-family="Arial, Helvetica, sans-serif" font-size="2.2" fill="#000000" transform="rotate(-90.0,92.50,131.81)">S1</text>
  <path d="M 91.85,124.65 A 3.75,3.75 0 0,0 91.85,117.97" stroke="#000000" stroke-width="0.25" fill="none" />
  <circle cx="90.81" cy="117.97" r="0.66" stroke="#000000" stroke-width="0.25" fill="none" />
  <circle cx="90.82" cy="124.65" r="0.66" stroke="#000000" stroke-width="0.25" fill="none" />
  <text x="82.50" y="117.91" font-family="Arial, Helvetica, sans-serif" font-size="2.0" fill="#000000">B10A</text>
  <text x="82.50" y="120.41" font-family="Arial, Helvetica, sans-serif" font-size="2.0" fill="#000000">SPN</text>
  <text x="82.50" y="122.91" font-family="Arial, Helvetica, sans-serif" font-size="2.0" fill="#000000">MCB</text>
  <text x="82.50" y="125.41" font-family="Arial, Helvetica, sans-serif" font-size="2.0" fill="#000000">6kA</text>
  <text x="91.00" y="90.55" font-family="Arial, Helvetica, sans-serif" font-size="2.8" fill="#000000" transform="rotate(-90.0,91.00,88.31)">1 no. Lighting</text>
  <text x="119.50" y="133.57" font-family="Arial, Helvetica, sans-serif" font-size="2.2" fill="#000000" transform="rotate(-90.0,119.50,131.81)">S2</text>
  <path d="M 118.85,124.65 A 3.75,3.75 0 0,0 118.85,117.97" stroke="#000000" stroke-width="0.25" fill="none" />
  <circle cx="117.81" cy="117.97" r="0.66" stroke="#000000" stroke-width="0.25" fill="none" />
  <circle cx="117.82" cy="124.65" r="0.66" stroke="#000000" stroke-width="0.25" fill="none" />
  <line x1="92.70" y1="119.32" x2="119.70" y2="119.32" stroke="#000000" stroke-width="0.25" fill="none" />
  <line x1="119.70" y1="119.32" x2="118.49" y2="119.91" stroke="#000000" stroke-width="0.25" fill="none" />
  <line x1="119.70" y1="119.32" x2="118.51" y2="118.71" stroke="#000000" stroke-width="0.25" fill="none" />
  <text x="118.00" y="90.55" font-family="Arial, Helvetica, sans-serif" font-size="2.8" fill="#000000" transform="rotate(-90.0,118.00,88.31)">1 no. Lighting</text>
  <text x="146.50" y="133.57" font-family="Arial, Helvetica, sans-serif" font-size="2.2" fill="#000000" transform="rotate(-90.0,146.50,131.81)">S3</text>
  <path d="M 145.85,124.65 A 3.75,3.75 0 0,0 145.85,117.97" stroke="#000000" stroke-width="0.25" fill="none" />
  <circle cx="144.81" cy="117.97" r="0.66" stroke="#000000" stroke-width="0.25" fill="none" />
  <circle cx="144.82" cy="124.65" r="0.66" stroke="#000000" stroke-width="0.25" fill="none" />
  <line x1="119.70" y1="119.32" x2="146.70" y2="119.32" stroke="#000000" stroke-width="0.25" fill="none" />
  <line x1="146.70" y1="119.32" x2="145.49" y2="119.91" stroke="#000000" stroke-width="0.25" fill="none" />
  <line x1="146.70" y1="119.32" x2="145.51" y2="118.71" stroke="#000000" stroke-width="0.25" fill="none" />
  <text x="145.00" y="90.55" font-family="Arial, Helvetica, sans-serif" font-size="2.8" fill="#000000" transform="rotate(-90.0,145.00,88.31)">1 no. Lighting</text>
  <text x="182.50" y="133.57" font-family="Arial, Helvetica, sans-serif" font-size="2.2" fill="#000000" transform="rotate(-90.0,182.50,131.81)">P1</text>
  <path d="M 181.85,124.65 A 3.75,3.75 0 0,0 181.85,117.97" stroke="#000000" stroke-width="0.25" fill="none" />
  <circle cx="180.81" cy="117.97" r="0.66" stroke="#000000" stroke-width="0.25" fill="none" />
  <circle cx="180.82" cy="124.65" r="0.66" stroke="#000000" stroke-width="0.25" fill="none" />
  <text x="172.50" y="117.91" font-family="Arial, Helvetica, sans-serif" font-size="2.0" fill="#000000">B20A</text>
  <text x="172.50" y="120.41" font-family="Arial, Helvetica, sans-serif" font-size="2.0" fill="#000000">SPN</text>
  <text x="172.50" y="122.91" font-family="Arial, Helvetica, sans-serif" font-size="2.0" fill="#000000">MCB</text>
  <text x="172.50" y="125.41" font-family="Arial, Helvetica, sans-serif" font-size="2.0" fill="#000000">6kA</text>
  <text x="181.00" y="90.55" font-family="Arial, Helvetica, sans-serif" font-size="2.8" fill="#000000" transform="rotate(-90.0,181.00,88.31)">1 no. 13A S/S/O</text>
  <text x="209.50" y="133.57" font-family="Arial, Helvetica, sans-serif" font-size="2.2" fill="#000000" transform="rotate(-90.0,209.50,131.81)">P2</text>
  <path d="M 208.85,124.65 A 3.75,3.75 0 0,0 208.85,117.97" stroke="#000000" stroke-width="0.25" fill="none" />
  <circle cx="207.81" cy="117.97" r="0.66" stroke="#000000" stroke-width="0.25" fill="none" />
  <circle cx="207.82" cy="124.65" r="0.66" stroke="#000000" stroke-width="0.25" fill="none" />
  <line x1="182.70" y1="119.32" x2="209.70" y2="119.32" stroke="#000000" stroke-width="0.25" fill="none" />
  <line x1="209.70" y1="119.32" x2="208.49" y2="119.91" stroke="#000000" stroke-width="0.25" fill="none" />
  <line x1="209.70" y1="119.32" x2="208.51" y2="118.71" stroke="#000000" stroke-width="0.25" fill="none" />
  <text x="208.00" y="90.55" font-family="Arial, Helvetica, sans-serif" font-size="2.8" fill="#000000" transform="rotate(-90.0,208.00,88.31)">1 no. 13A S/S/O</text>
  <text x="236.50" y="133.57" font-family="Arial, Helvetica, sans-serif" font-size="2.2" fill="#000000" transform="rotate(-90.0,236.50,131.81)">P3</text>
  <path d="M 235.85,124.65 A 3.75,3.75 0 0,0 235.85,117.97" stroke="#000000" stroke-width="0.25" fill="none" />
  <circle cx="234.81" cy="117.97" r="0.66" stroke="#000000" stroke-width="0.25" fill="none" />
  <circle cx="234.82" cy="124.65" r="0.66" stroke="#000000" stroke-width="0.25" fill="none" />
  <line x1="209.70" y1="119.32" x2="236.70" y2="119.32" stroke="#000000" stroke-width="0.25" fill="none" />
  <line x1="236.70" y1="119.32" x2="235.49" y2="119.91" stroke="#000000" stroke-width="0.25" fill="none" />
  <line x1="236.70" y1="119.32" x2="235.51" y2="118.71" stroke="#000000" stroke-width="0.25" fill="none" />
  <text x="235.00" y="90.55" font-family="Arial, Helvetica, sans-serif" font-size="2.8" fill="#000000" transform="rotate(-90.0,235.00,88.31)">1 no. 13A S/S/O</text>
  <text x="272.50" y="133.57" font-family="Arial, Helvetica, sans-serif" font-size="2.2" fill="#000000" transform="rotate(-90.0,272.50,131.81)">H4</text>
  <path d="M 271.85,124.65 A 3.75,3.75 0 0,0 271.85,117.97" stroke="#000000" stroke-width="0.25" fill="none" />
  <circle cx="270.81" cy="117.97" r="0.66" stroke="#000000" stroke-width="0.25" fill="none" />
  <circle cx="270.82" cy="124.65" r="0.66" stroke="#000000" stroke-width="0.25" fill="none" />
  <text x="262.50" y="117.91" font-family="Arial, Helvetica, sans-serif" font-size="2.0" fill="#000000">B32A</text>
  <text x="262.50" y="120.41" font-family="Arial, Helvetica, sans-serif" font-size="2.0" fill="#000000">SPN</text>
  <text x="262.50" y="122.91" font-family="Arial, Helvetica, sans-serif" font-size="2.0" fill="#000000">MCB</text>
  <text x="262.50" y="125.41" font-family="Arial, Helvetica, sans-serif" font-size="2.0" fill="#000000">6kA</text>
  <text x="271.00" y="90.55" font-family="Arial, Helvetica, sans-serif" font-size="2.8" fill="#000000" transform="rotate(-90.0,271.00,88.31)">1 no. Water Heater</text>
  <text x="302.50" y="133.57" font-family="Arial, Helvetica, sans-serif" font-size="2.2" fill="#000000" transform="rotate(-90.0,302.50,131.81)">P5</text>
  <path d="M 301.85,124.65 A 3.75,3.75 0 0,0 301.85,117.97" stroke="#000000" stroke-width="0.25" fill="none" />
  <circle cx="300.81" cy="117.97" r="0.66" stroke="#000000" stroke-width="0.25" fill="none" />
  <circle cx="300.82" cy="124.65" r="0.66" stroke="#000000" stroke-width="0.25" fill="none" />
  <line x1="236.70" y1="119.32" x2="302.70" y2="119.32" stroke="#000000" stroke-width="0.25" fill="none" />
  <line x1="302.70" y1="119.32" x2="301.49" y2="119.91" stroke="#000000" stroke-width="0.25" fill="none" />
  <line x1="302.70" y1="119.32" x2="301.51" y2="118.71" stroke="#000000" stroke-width="0.25" fill="none" />
  <text x="301.00" y="90.55" font-family="Arial, Helvetica, sans-serif" font-size="2.8" fill="#000000" transform="rotate(-90.0,301.00,88.31)">1 no. Aircon</text>
  <text x="334.50" y="133.57" font-family="Arial, Helvetica, sans-serif" font-size="2.2" fill="#000000" transform="rotate(-90.0,334.50,131.81)">SP1</text>
  <path d="M 333.85,124.65 A 3.75,3.75 0 0,0 333.85,117.97" stroke="#000000" stroke-width="0.25" fill="none" />
  <circle cx="332.81" cy="117.97" r="0.66" stroke="#000000" stroke-width="0.25" fill="none" />
  <circle cx="332.82" cy="124.65" r="0.66" stroke="#000000" stroke-width="0.25" fill="none" />
  <line x1="302.70" y1="119.32" x2="334.70" y2="119.32" stroke="#000000" stroke-width="0.25" fill="none" />
  <line x1="334.70" y1="119.32" x2="333.49" y2="119.91" stroke="#000000" stroke-width="0.25" fill="none" />
  <line x1="334.70" y1="119.32" x2="333.51" y2="118.71" stroke="#000000" stroke-width="0.25" fill="none" />
  <text x="333.00" y="90.55" font-family="Arial, Helvetica, sans-serif" font-size="2.8" fill="#000000" transform="rotate(-90.0,333.00,88.31)">SPARE</text>
  <text x="78.00" y="92.11" font-family="Arial, Helvetica, sans-serif" font-size="2.8" fill="#000000" transform="rotate(-90.0,78.00,92.11)">2 x 1C 1.5sqmm PVC + 1.5sqmm</text>
  <text x="81.92" y="92.11" font-family="Arial, Helvetica, sans-serif" font-size="2.8" fill="#000000" transform="rotate(-90.0,81.92,92.11)">PVC CPC IN PVC CONDUIT</text>
  <text x="311.00" y="92.11" font-family="Arial, Helvetica, sans-serif" font-size="2.8" fill="#000000" transform="rotate(-90.0,311.00,92.11)">2 x 1C 2.5sqmm PVC + 2.5sqmm</text>
  <text x="314.92" y="92.11" font-family="Arial, Helvetica, sans-serif" font-size="2.8" fill="#000000" transform="rotate(-90.0,314.92,92.11)">PVC CPC IN PVC CONDUIT</text>
  <text x="258.00" y="92.11" font-family="Arial, Helvetica, sans-serif" font-size="2.8" fill="#000000" transform="rotate(-90.0,258.00,92.11)">2 x 1C 6sqmm PVC + 4sqmm</text>
  <text x="261.92" y="92.11" font-family="Arial, Helvetica, sans-serif" font-size="2.8" fill="#000000" transform="rotate(-90.0,261.92,92.11)">PVC CPC IN PVC CONDUIT</text>
  <text x="73.50" y="150.71" font-family="Arial, Helvetica, sans-serif" font-size="3.0" fill="#000000">63A DB</text>
  <text x="73.50" y="153.75" font-family="Arial, Helvetica, sans-serif" font-size="1.8" fill="#000000">APPROVED LOAD: 45 KVA AT 400V</text>
  <line x1="359.75" y1="155.81" x2="359.75" y2="157.61" stroke="#000000" stroke-width="0.25" fill="none" />
  <line x1="357.50" y1="157.61" x2="362.00" y2="157.61" stroke="#000000" stroke-width="0.25" fill="none" />
  <line x1="358.25" y1="158.74" x2="361.25" y2="158.74" stroke="#000000" stroke-width="0.25" fill="none" />
  <line x1="359.00" y1="159.86" x2="360.50" y2="159.86" stroke="#000000" stroke-width="0.25" fill="none" />
  <text x="366.00" y="157.34" font-family="Arial, Helvetica, sans-serif" font-size="1.6" fill="#000000">E</text>
  <line x1="210.00" y1="185.71" x2="214.00" y2="185.71" stroke="#000000" stroke-width="0.25" fill="none" />
  <line x1="225.00" y1="185.71" x2="237.30" y2="185.71" stroke="#000000" stroke-width="0.25" fill="none" />
  <line x1="251.70" y1="185.71" x2="263.50" y2="185.71" stroke="#000000" stroke-width="0.25" fill="none" />
  <line x1="275.50" y1="185.71" x2="293.50" y2="185.71" stroke="#000000" stroke-width="0.25" fill="none" />
  <line x1="282.00" y1="187.21" x2="285.00" y2="184.21" stroke="#000000" stroke-width="0.25" fill="none" />
  <line x1="283.50" y1="185.71" x2="283.50" y2="195.71" stroke="#000000" stroke-width="0.25" fill="none" />
  <line x1="283.50" y1="195.71" x2="286.50" y2="195.71" stroke="#000000" stroke-width="0.25" fill="none" />
  <line x1="210.00" y1="185.71" x2="210.00" y2="160.31" stroke="#000000" stroke-width="0.25" fill="none" />
  <line x1="210.00" y1="168.31" x2="207.00" y2="168.31" stroke="#000000" stroke-width="0.25" fill="none" />
  <line x1="277.50" y1="198.09" x2="281.50" y2="198.09" stroke="#000000" stroke-width="0.25" fill="none" />
  <line x1="281.50" y1="198.09" x2="281.50" y2="203.59" stroke="#000000" stroke-width="0.25" fill="none" />
  <line x1="210.00" y1="160.31" x2="210.00" y2="148.31" stroke="#000000" stroke-width="0.25" fill="none" />
  <line x1="210.00" y1="138.31" x2="210.00" y2="135.31" stroke="#000000" stroke-width="0.25" fill="none" />
  <line x1="91.00" y1="128.13" x2="91.00" y2="123.31" stroke="#000000" stroke-width="0.25" fill="none" />
  <line x1="91.00" y1="113.31" x2="91.00" y2="90.31" stroke="#000000" stroke-width="0.25" fill="none" />
  <line x1="118.00" y1="135.31" x2="118.00" y2="125.31" stroke="#000000" stroke-width="0.25" fill="none" />
  <line x1="118.00" y1="113.31" x2="118.00" y2="90.31" stroke="#000000" stroke-width="0.25" fill="none" />
  <line x1="145.00" y1="128.13" x2="145.00" y2="123.31" stroke="#000000" stroke-width="0.25" fill="none" />
  <line x1="145.00" y1="113.31" x2="145.00" y2="90.31" stroke="#000000" stroke-width="0.25" fill="none" />
  <line x1="181.00" y1="128.13" x2="181.00" y2="123.31" stroke="#000000" stroke-width="0.25" fill="none" />
  <line x1="181.00" y1="113.31" x2="181.00" y2="90.31" stroke="#000000" stroke-width="0.25" fill="none" />
  <line x1="210.00" y1="135.31" x2="210.00" y2="123.31" stroke="#000000" stroke-width="0.25" fill="none" />
  <line x1="210.00" y1="113.31" x2="210.00" y2="90.31" stroke="#000000" stroke-width="0.25" fill="none" />
  <line x1="235.00" y1="128.13" x2="235.00" y2="123.31" stroke="#000000" stroke-width="0.25" fill="none" />
  <line x1="235.00" y1="113.31" x2="235.00" y2="90.31" stroke="#000000" stroke-width="0.25" fill="none" />
  <line x1="271.00" y1="127.33" x2="271.00" y2="123.31" stroke="#000000" stroke-width="0.25" fill="none" />
  <line x1="271.00" y1="113.31" x2="271.00" y2="90.31" stroke="#000000" stroke-width="0.25" fill="none" />
  <line x1="301.00" y1="135.31" x2="301.00" y2="125.31" stroke="#000000" stroke-width="0.25" fill="none" />
  <line x1="301.00" y1="113.31" x2="301.00" y2="90.31" stroke="#000000" stroke-width="0.25" fill="none" />
  <line x1="333.00" y1="126.80" x2="333.00" y2="123.31" stroke="#000000" stroke-width="0.25" fill="none" />
  <line x1="333.00" y1="113.31" x2="333.00" y2="90.31" stroke="#000000" stroke-width="0.25" fill="none" />
  <line x1="81.00" y1="95.31" x2="145.00" y2="95.31" stroke="#000000" stroke-width="0.25" fill="none" />
  <line x1="81.00" y1="95.31" x2="81.00" y2="90.31" stroke="#000000" stroke-width="0.25" fill="none" />
  <line x1="181.00" y1="95.31" x2="311.00" y2="95.31" stroke="#000000" stroke-width="0.25" fill="none" />
  <line x1="311.00" y1="95.31" x2="311.00" y2="90.31" stroke="#000000" stroke-width="0.25" fill="none" />
  <line x1="261.00" y1="95.31" x2="271.00" y2="95.31" stroke="#000000" stroke-width="0.25" fill="none" />
  <line x1="261.00" y1="95.31" x2="261.00" y2="90.31" stroke="#000000" stroke-width="0.25" fill="none" />
  <line x1="352.50" y1="155.81" x2="360.25" y2="155.81" stroke="#000000" stroke-width="0.25" fill="none" />
  <line x1="208.75" y1="169.56" x2="211.25" y2="167.06" stroke="#000000" stroke-width="0.50" fill="none" />
  <line x1="89.75" y1="96.56" x2="92.25" y2="94.06" stroke="#000000" stroke-width="0.50" fill="none" />
  <line x1="116.75" y1="96.56" x2="119.25" y2="94.06" stroke="#000000" stroke-width="0.50" fill="none" />
  <line x1="143.75" y1="96.56" x2="146.25" y2="94.06" stroke="#000000" stroke-width="0.50" fill="none" />
  <line x1="179.75" y1="96.56" x2="182.25" y2="94.06" stroke="#000000" stroke-width="0.50" fill="none" />
  <line x1="206.75" y1="96.56" x2="209.25" y2="94.06" stroke="#000000" stroke-width="0.50" fill="none" />
  <line x1="233.75" y1="96.56" x2="236.25" y2="94.06" stroke="#000000" stroke-width="0.50" fill="none" />
  <line x1="299.75" y1="96.56" x2="302.25" y2="94.06" stroke="#000000" stroke-width="0.50" fill="none" />
  <line x1="269.75" y1="96.56" x2="272.25" y2="94.06" stroke="#000000" stroke-width="0.50" fill="none" />
  <line x1="118.00" y1="135.31" x2="91.00" y2="128.13" stroke="#000000" stroke-width="0.25" fill="none" />
  <line x1="118.00" y1="135.31" x2="145.00" y2="128.13" stroke="#000000" stroke-width="0.25" fill="none" />
  <line x1="208.00" y1="135.31" x2="181.00" y2="128.13" stroke="#000000" stroke-width="0.25" fill="none" />
  <line x1="208.00" y1="135.31" x2="235.00" y2="128.13" stroke="#000000" stroke-width="0.25" fill="none" />
  <line x1="301.00" y1="135.31" x2="271.00" y2="127.33" stroke="#000000" stroke-width="0.25" fill="none" />
  <line x1="301.00" y1="135.31" x2="333.00" y2="126.80" stroke="#000000" stroke-width="0.25" fill="none" />
  <line x1="212.00" y1="201.09" x2="220.00" y2="201.09" stroke="#000000" stroke-width="0.25" fill="none" />
  <line x1="222.00" y1="201.09" x2="223.50" y2="201.09" stroke="#000000" stroke-width="0.25" fill="none" />
  <line x1="225.50" y1="201.09" x2="233.50" y2="201.09" stroke="#000000" stroke-width="0.25" fill="none" />
  <line x1="235.50" y1="201.09" x2="237.00" y2="201.09" stroke="#000000" stroke-width="0.25" fill="none" />
  <line x1="239.00" y1="201.09" x2="247.00" y2="201.09" stroke="#000000" stroke-width="0.25" fill="none" />
  <line x1="249.00" y1="201.09" x2="250.50" y2="201.09" stroke="#000000" stroke-width="0.25" fill="none" />
  <line x1="252.50" y1="201.09" x2="260.50" y2="201.09" stroke="#000000" stroke-width="0.25" fill="none" />
  <line x1="262.50" y1="201.09" x2="264.00" y2="201.09" stroke="#000000" stroke-width="0.25" fill="none" />
  <line x1="266.00" y1="201.09" x2="274.00" y2="201.09" stroke="#000000" stroke-width="0.25" fill="none" />
  <line x1="276.00" y1="201.09" x2="277.50" y2="201.09" stroke="#000000" stroke-width="0.25" fill="none" />
  <line x1="212.00" y1="176.31" x2="220.00" y2="176.31" stroke="#000000" stroke-width="0.25" fill="none" />
  <line x1="222.00" y1="176.31" x2="223.50" y2="176.31" stroke="#000000" stroke-width="0.25" fill="none" />
  <line x1="225.50" y1="176.31" x2="233.50" y2="176.31" stroke="#000000" stroke-width="0.25" fill="none" />
  <line x1="235.50" y1="176.31" x2="237.00" y2="176.31" stroke="#000000" stroke-width="0.25" fill="none" />
  <line x1="239.00" y1="176.31" x2="247.00" y2="176.31" stroke="#000000" stroke-width="0.25" fill="none" />
  <line x1="249.00" y1="176.31" x2="250.50" y2="176.31" stroke="#000000" stroke-width="0.25" fill="none" />
  <line x1="252.50" y1="176.31" x2="260.50" y2="176.31" stroke="#000000" stroke-width="0.25" fill="none" />
  <line x1="262.50" y1="176.31" x2="264.00" y2="176.31" stroke="#000000" stroke-width="0.25" fill="none" />
  <line x1="266.00" y1="176.31" x2="274.00" y2="176.31" stroke="#000000" stroke-width="0.25" fill="none" />
  <line x1="276.00" y1="176.31" x2="277.50" y2="176.31" stroke="#000000" stroke-width="0.25" fill="none" />
  <line x1="212.00" y1="201.09" x2="212.00" y2="193.09" stroke="#000000" stroke-width="0.25" fill="none" />
  <line x1="212.00" y1="191.09" x2="212.00" y2="189.59" stroke="#000000" stroke-width="0.25" fill="none" />
  <line x1="212.00" y1="187.59" x2="212.00" y2="179.59" stroke="#000000" stroke-width="0.25" fill="none" />
  <line x1="212.00" y1="177.59" x2="212.00" y2="176.31" stroke="#000000" stroke-width="0.25" fill="none" />
  <line x1="277.50" y1="201.09" x2="277.50" y2="193.09" stroke="#000000" stroke-width="0.25" fill="none" />
  <line x1="277.50" y1="191.09" x2="277.50" y2="189.59" stroke="#000000" stroke-width="0.25" fill="none" />
  <line x1="277.50" y1="187.59" x2="277.50" y2="179.59" stroke="#000000" stroke-width="0.25" fill="none" />
  <line x1="277.50" y1="177.59" x2="277.50" y2="176.31" stroke="#000000" stroke-width="0.25" fill="none" />
  <line x1="67.50" y1="156.31" x2="75.50" y2="156.31" stroke="#000000" stroke-width="0.25" fill="none" />
  <line x1="77.50" y1="156.31" x2="79.00" y2="156.31" stroke="#000000" stroke-width="0.25" fill="none" />
  <line x1="81.00" y1="156.31" x2="89.00" y2="156.31" stroke="#000000" stroke-width="0.25" fill="none" />
  <line x1="91.00" y1="156.31" x2="92.50" y2="156.31" stroke="#000000" stroke-width="0.25" fill="none" />
  <line x1="94.50" y1="156.31" x2="102.50" y2="156.31" stroke="#000000" stroke-width="0.25" fill="none" />
  <line x1="104.50" y1="156.31" x2="106.00" y2="156.31" stroke="#000000" stroke-width="0.25" fill="none" />
  <line x1="108.00" y1="156.31" x2="116.00" y2="156.31" stroke="#000000" stroke-width="0.25" fill="none" />
  <line x1="118.00" y1="156.31" x2="119.50" y2="156.31" stroke="#000000" stroke-width="0.25" fill="none" />
  <line x1="121.50" y1="156.31" x2="129.50" y2="156.31" stroke="#000000" stroke-width="0.25" fill="none" />
  <line x1="131.50" y1="156.31" x2="133.00" y2="156.31" stroke="#000000" stroke-width="0.25" fill="none" />
  <line x1="135.00" y1="156.31" x2="143.00" y2="156.31" stroke="#000000" stroke-width="0.25" fill="none" />
  <line x1="145.00" y1="156.31" x2="146.50" y2="156.31" stroke="#000000" stroke-width="0.25" fill="none" />
  <line x1="148.50" y1="156.31" x2="156.50" y2="156.31" stroke="#000000" stroke-width="0.25" fill="none" />
  <line x1="158.50" y1="156.31" x2="160.00" y2="156.31" stroke="#000000" stroke-width="0.25" fill="none" />
  <line x1="162.00" y1="156.31" x2="170.00" y2="156.31" stroke="#000000" stroke-width="0.25" fill="none" />
  <line x1="172.00" y1="156.31" x2="173.50" y2="156.31" stroke="#000000" stroke-width="0.25" fill="none" />
  <line x1="175.50" y1="156.31" x2="183.50" y2="156.31" stroke="#000000" stroke-width="0.25" fill="none" />
  <line x1="185.50" y1="156.31" x2="187.00" y2="156.31" stroke="#000000" stroke-width="0.25" fill="none" />
  <line x1="189.00" y1="156.31" x2="197.00" y2="156.31" stroke="#000000" stroke-width="0.25" fill="none" />
  <line x1="199.00" y1="156.31" x2="200.50" y2="156.31" stroke="#000000" stroke-width="0.25" fill="none" />
  <line x1="202.50" y1="156.31" x2="210.50" y2="156.31" stroke="#000000" stroke-width="0.25" fill="none" />
  <line x1="212.50" y1="156.31" x2="214.00" y2="156.31" stroke="#000000" stroke-width="0.25" fill="none" />
  <line x1="216.00" y1="156.31" x2="224.00" y2="156.31" stroke="#000000" stroke-width="0.25" fill="none" />
  <line x1="226.00" y1="156.31" x2="227.50" y2="156.31" stroke="#000000" stroke-width="0.25" fill="none" />
  <line x1="229.50" y1="156.31" x2="237.50" y2="156.31" stroke="#000000" stroke-width="0.25" fill="none" />
  <line x1="239.50" y1="156.31" x2="241.00" y2="156.31" stroke="#000000" stroke-width="0.25" fill="none" />
  <line x1="243.00" y1="156.31" x2="251.00" y2="156.31" stroke="#000000" stroke-width="0.25" fill="none" />
  <line x1="253.00" y1="156.31" x2="254.50" y2="156.31" stroke="#000000" stroke-width="0.25" fill="none" />
  <line x1="256.50" y1="156.31" x2="264.50" y2="156.31" stroke="#000000" stroke-width="0.25" fill="none" />
  <line x1="266.50" y1="156.31" x2="268.00" y2="156.31" stroke="#000000" stroke-width="0.25" fill="none" />
  <line x1="270.00" y1="156.31" x2="278.00" y2="156.31" stroke="#000000" stroke-width="0.25" fill="none" />
  <line x1="280.00" y1="156.31" x2="281.50" y2="156.31" stroke="#000000" stroke-width="0.25" fill="none" />
  <line x1="283.50" y1="156.31" x2="291.50" y2="156.31" stroke="#000000" stroke-width="0.25" fill="none" />
  <line x1="293.50" y1="156.31" x2="295.00" y2="156.31" stroke="#000000" stroke-width="0.25" fill="none" />
  <line x1="297.00" y1="156.31" x2="305.00" y2="156.31" stroke="#000000" stroke-width="0.25" fill="none" />
  <line x1="307.00" y1="156.31" x2="308.50" y2="156.31" stroke="#000000" stroke-width="0.25" fill="none" />
  <line x1="310.50" y1="156.31" x2="318.50" y2="156.31" stroke="#000000" stroke-width="0.25" fill="none" />
  <line x1="320.50" y1="156.31" x2="322.00" y2="156.31" stroke="#000000" stroke-width="0.25" fill="none" />
  <line x1="324.00" y1="156.31" x2="332.00" y2="156.31" stroke="#000000" stroke-width="0.25" fill="none" />
  <line x1="334.00" y1="156.31" x2="335.50" y2="156.31" stroke="#000000" stroke-width="0.25" fill="none" />
  <line x1="337.50" y1="156.31" x2="345.50" y2="156.31" stroke="#000000" stroke-width="0.25" fill="none" />
  <line x1="347.50" y1="156.31" x2="349.00" y2="156.31" stroke="#000000" stroke-width="0.25" fill="none" />
  <line x1="351.00" y1="156.31" x2="352.50" y2="156.31" stroke="#000000" stroke-width="0.25" fill="none" />
  <line x1="67.50" y1="105.31" x2="75.50" y2="105.31" stroke="#000000" stroke-width="0.25" fill="none" />
  <line x1="77.50" y1="105.31" x2="79.00" y2="105.31" stroke="#000000" stroke-width="0.25" fill="none" />
  <line x1="81.00" y1="105.31" x2="89.00" y2="105.31" stroke="#000000" stroke-width="0.25" fill="none" />
  <line x1="91.00" y1="105.31" x2="92.50" y2="105.31" stroke="#000000" stroke-width="0.25" fill="none" />
  <line x1="94.50" y1="105.31" x2="102.50" y2="105.31" stroke="#000000" stroke-width="0.25" fill="none" />
  <line x1="104.50" y1="105.31" x2="106.00" y2="105.31" stroke="#000000" stroke-width="0.25" fill="none" />
  <line x1="108.00" y1="105.31" x2="116.00" y2="105.31" stroke="#000000" stroke-width="0.25" fill="none" />
  <line x1="118.00" y1="105.31" x2="119.50" y2="105.31" stroke="#000000" stroke-width="0.25" fill="none" />
  <line x1="121.50" y1="105.31" x2="129.50" y2="105.31" stroke="#000000" stroke-width="0.25" fill="none" />
  <line x1="131.50" y1="105.31" x2="133.00" y2="105.31" stroke="#000000" stroke-width="0.25" fill="none" />
  <line x1="135.00" y1="105.31" x2="143.00" y2="105.31" stroke="#000000" stroke-width="0.25" fill="none" />
  <line x1="145.00" y1="105.31" x2="146.50" y2="105.31" stroke="#000000" stroke-width="0.25" fill="none" />
  <line x1="148.50" y1="105.31" x2="156.50" y2="105.31" stroke="#000000" stroke-width="0.25" fill="none" />
  <line x1="158.50" y1="105.31" x2="160.00" y2="105.31" stroke="#000000" stroke-width="0.25" fill="none" />
  <line x1="162.00" y1="105.31" x2="170.00" y2="105.31" stroke="#000000" stroke-width="0.25" fill="none" />
  <line x1="172.00" y1="105.31" x2="173.50" y2="105.31" stroke="#000000" stroke-width="0.25" fill="none" />
  <line x1="175.50" y1="105.31" x2="183.50" y2="105.31" stroke="#000000" stroke-width="0.25" fill="none" />
  <line x1="185.50" y1="105.31" x2="187.00" y2="105.31" stroke="#000000" stroke-width="0.25" fill="none" />
  <line x1="189.00" y1="105.31" x2="197.00" y2="105.31" stroke="#000000" stroke-width="0.25" fill="none" />
  <line x1="199.00" y1="105.31" x2="200.50" y2="105.31" stroke="#000000" stroke-width="0.25" fill="none" />
  <line x1="202.50" y1="105.31" x2="210.50" y2="105.31" stroke="#000000" stroke-width="0.25" fill="none" />
  <line x1="212.50" y1="105.31" x2="214.00" y2="105.31" stroke="#000000" stroke-width="0.25" fill="none" />
  <line x1="216.00" y1="105.31" x2="224.00" y2="105.31" stroke="#000000" stroke-width="0.25" fill="none" />
  <line x1="226.00" y1="105.31" x2="227.50" y2="105.31" stroke="#000000" stroke-width="0.25" fill="none" />
  <line x1="229.50" y1="105.31" x2="237.50" y2="105.31" stroke="#000000" stroke-width="0.25" fill="none" />
  <line x1="239.50" y1="105.31" x2="241.00" y2="105.31" stroke="#000000" stroke-width="0.25" fill="none" />
  <line x1="243.00" y1="105.31" x2="251.00" y2="105.31" stroke="#000000" stroke-width="0.25" fill="none" />
  <line x1="253.00" y1="105.31" x2="254.50" y2="105.31" stroke="#000000" stroke-width="0.25" fill="none" />
  <line x1="256.50" y1="105.31" x2="264.50" y2="105.31" stroke="#000000" stroke-width="0.25" fill="none" />
  <line x1="266.50" y1="105.31" x2="268.00" y2="105.31" stroke="#000000" stroke-width="0.25" fill="none" />
  <line x1="270.00" y1="105.31" x2="278.00" y2="105.31" stroke="#000000" stroke-width="0.25" fill="none" />
  <line x1="280.00" y1="105.31" x2="281.50" y2="105.31" stroke="#000000" stroke-width="0.25" fill="none" />
  <line x1="283.50" y1="105.31" x2="291.50" y2="105.31" stroke="#000000" stroke-width="0.25" fill="none" />
  <line x1="293.50" y1="105.31" x2="295.00" y2="105.31" stroke="#000000" stroke-width="0.25" fill="none" />
  <line x1="297.00" y1="105.31" x2="305.00" y2="105.31" stroke="#000000" stroke-width="0.25" fill="none" />
  <line x1="307.00" y1="105.31" x2="308.50" y2="105.31" stroke="#000000" stroke-width="0.25" fill="none" />
  <line x1="310.50" y1="105.31" x2="318.50" y2="105.31" stroke="#000000" stroke-width="0.25" fill="none" />
  <line x1="320.50" y1="105.31" x2="322.00" y2="105.31" stroke="#000000" stroke-width="0.25" fill="none" />
  <line x1="324.00" y1="105.31" x2="332.00" y2="105.31" stroke="#000000" stroke-width="0.25" fill="none" />
  <line x1="334.00" y1="105.31" x2="335.50" y2="105.31" stroke="#000000" stroke-width="0.25" fill="none" />
  <line x1="337.50" y1="105.31" x2="345.50" y2="105.31" stroke="#000000" stroke-width="0.25" fill="none" />
  <line x1="347.50" y1="105.31" x2="349.00" y2="105.31" stroke="#000000" stroke-width="0.25" fill="none" />
  <line x1="351.00" y1="105.31" x2="352.50" y2="105.31" stroke="#000000" stroke-width="0.25" fill="none" />
  <line x1="67.50" y1="156.31" x2="67.50" y2="148.31" stroke="#000000" stroke-width="0.25" fill="none" />
  <line x1="67.50" y1="146.31" x2="67.50" y2="144.81" stroke="#000000" stroke-width="0.25" fill="none" />
  <line x1="67.50" y1="142.81" x2="67.50" y2="134.81" stroke="#000000" stroke-width="0.25" fill="none" />
  <line x1="67.50" y1="132.81" x2="67.50" y2="131.31" stroke="#000000" stroke-width="0.25" fill="none" />
  <line x1="67.50" y1="129.31" x2="67.50" y2="121.31" stroke="#000000" stroke-width="0.25" fill="none" />
  <line x1="67.50" y1="119.31" x2="67.50" y2="117.81" stroke="#000000" stroke-width="0.25" fill="none" />
  <line x1="67.50" y1="115.81" x2="67.50" y2="107.81" stroke="#000000" stroke-width="0.25" fill="none" />
  <line x1="67.50" y1="105.81" x2="67.50" y2="105.31" stroke="#000000" stroke-width="0.25" fill="none" />
  <line x1="352.50" y1="156.31" x2="352.50" y2="148.31" stroke="#000000" stroke-width="0.25" fill="none" />
  <line x1="352.50" y1="146.31" x2="352.50" y2="144.81" stroke="#000000" stroke-width="0.25" fill="none" />
  <line x1="352.50" y1="142.81" x2="352.50" y2="134.81" stroke="#000000" stroke-width="0.25" fill="none" />
  <line x1="352.50" y1="132.81" x2="352.50" y2="131.31" stroke="#000000" stroke-width="0.25" fill="none" />
  <line x1="352.50" y1="129.31" x2="352.50" y2="121.31" stroke="#000000" stroke-width="0.25" fill="none" />
  <line x1="352.50" y1="119.31" x2="352.50" y2="117.81" stroke="#000000" stroke-width="0.25" fill="none" />
  <line x1="352.50" y1="115.81" x2="352.50" y2="107.81" stroke="#000000" stroke-width="0.25" fill="none" />
  <line x1="352.50" y1="105.81" x2="352.50" y2="105.31" stroke="#000000" stroke-width="0.25" fill="none" />
  <circle cx="277.50" cy="198.09" r="0.50" fill="rgb(0,0,0)" stroke="none" />
  <circle cx="118.00" cy="135.31" r="0.50" fill="rgb(0,0,0)" stroke="none" />
  <circle cx="118.00" cy="135.31" r="0.50" fill="rgb(0,0,0)" stroke="none" />
  <circle cx="118.00" cy="135.31" r="0.50" fill="rgb(0,0,0)" stroke="none" />
  <circle cx="208.00" cy="135.31" r="0.50" fill="rgb(0,0,0)" stroke="none" />
  <circle cx="208.00" cy="135.31" r="0.50" fill="rgb(0,0,0)" stroke="none" />
  <circle cx="208.00" cy="135.31" r="0.50" fill="rgb(0,0,0)" stroke="none" />
  <circle cx="301.00" cy="135.31" r="0.50" fill="rgb(0,0,0)" stroke="none" />
  <circle cx="301.00" cy="135.31" r="0.50" fill="rgb(0,0,0)" stroke="none" />
  <circle cx="301.00" cy="135.31" r="0.50" fill="rgb(0,0,0)" stroke="none" />
  <circle cx="352.50" cy="155.81" r="0.50" fill="rgb(0,0,0)" stroke="none" />
  <text x="13.00" y="264.40" font-family="Arial, Helvetica, sans-serif" font-size="3.0" fill="#000000">Electrical Installation</text>
  <text x="153.00" y="264.40" font-family="Arial, Helvetica, sans-serif" font-size="3.0" fill="#000000">LicenseKaki</text>
  <text x="225.00" y="263.80" font-family="Arial, Helvetica, sans-serif" font-size="3.5" fill="#000000"><tspan x="225.00">SINGLE LINE DIAGRAM</tspan><tspan x="225.00" dy="4.9">(SLD)</tspan></text>
  <text x="389.00" y="266.00" font-family="Arial, Helvetica, sans-serif" font-size="2.5" fill="#000000">DATE</text>
  <text x="365.00" y="278.00" font-family="Arial, Helvetica, sans-serif" font-size="2.5" fill="#000000"></text>
  <text x="394.00" y="278.80" font-family="Arial, Helvetica, sans-serif" font-size="3.5" fill="#000000">0</text>
  <text x="365.00" y="286.28" font-family="Arial, Helvetica, sans-serif" font-size="1.6" fill="#000000">SCALE : NTS</text>
  <text x="389.00" y="286.28" font-family="Arial, Helvetica, sans-serif" font-size="1.6" fill="#000000">SHEET : 1 OF 1</text>
</svg>