<svg xmlns="http://www.w3.org/2000/svg" viewBox="0 0 420.0 297.0" width="420.0mm" height="297.0mm">
  <rect width="420.0" height="297.0" fill="white" />
  <polygon points="10.00,287.00 410.00,287.00 410.00,10.00 10.00,10.00" stroke="#000000" stroke-width="0.25" fill="none" />
  <polygon points="10.00,287.00 410.00,287.00 410.00,255.00 10.00,255.00" stroke="#000000" stroke-width="0.25" fill="none" />
  <line x1="90.00" y1="255.00" x2="90.00" y2="287.00" stroke="#000000" stroke-width="0.25" fill="none" />
  <line x1="150.00" y1="255.00" x2="150.00" y2="287.00" stroke="#000000" stroke-width="0.25" fill="none" />
  <line x1="222.00" y1="255.00" x2="222.00" y2="287.00" stroke="#000000" stroke-width="0.25" fill="none" />
  <line x1="290.00" y1="255.00" x2="290.00" y2="287.00" stroke="#000000" stroke-width="0.25" fill="none" />
  <line x1="362.00" y1="255.00" x2="362.00" y2="287.00" stroke="#000000" stroke-width="0.25" fill="none" />
  <line x1="362.00" y1="270.00" x2="410.00" y2="270.00" stroke="#000000" stroke-width="0.25" fill="none" />
  <line x1="386.00" y1="255.00" x2="386.00" y2="287.00" stroke="#000000" stroke-width="0.25" fill="none" />
  <text x="12.00" y="258.94" font-family="Arial, Helvetica, sans-serif" font-size="1.8" fill="#000000">CLIENT / ADDRESS :</text>
  <text x="92.00" y="258.94" font-family="Arial, Helvetica, sans-serif" font-size="1.8" fill="#000000">MAIN CONTRACTOR :</text>
  <text x="152.00" y="258.94" font-family="Arial, Helvetica, sans-serif" font-size="1.8" fill="#000000">ELECTRICAL CONTRACTOR :</text>
  <text x="224.00" y="258.94" font-family="Arial, Helvetica, sans-serif" font-size="1.8" fill="#000000">DRAWING TITLE :</text>
  <text x="292.00" y="258.94" font-family="Arial, Helvetica, sans-serif" font-size="1.8" fill="#000000">LEW :</text>
  <text x="364.00" y="258.94" font-family="Arial, Helvetica, sans-serif" font-size="1.8" fill="#000000">CHECKED :</text>
  <text x="388.00" y="258.94" font-family="Arial, Helvetica, sans-serif" font-size="1.8" fill="#000000">DATE :</text>
  <text x="364.00" y="273.94" font-family="Arial, Helvetica, sans-serif" font-size="1.8" fill="#000000">DRAWING NO. :</text>
  <text x="388.00" y="273.94" font-family="Arial, Helvetica, sans-serif" font-size="1.8" fill="#000000">REV :</text>
  <circle cx="216.70" cy="184.01" r="0.70" stroke="#000000" stroke-width="0.25" fill="none" />
  <circle cx="222.30" cy="184.01" r="0.70" stroke="#000000" stroke-width="0.25" fill="none" />
  <polyline points="217.36,183.77 222.21,182.04" stroke="#000000" stroke-width="0.25" fill="none" />
  <text x="215.66" y="188.84" font-family="Arial, Helvetica, sans-serif" font-size="1.6" fill="#000000"><tspan x="215.66">63A 4P</tspan><tspan x="215.66" dy="2.2">ISOLATOR</tspan></text>
  <polygon points="237.30,180.41 251.70,180.41 251.70,187.61 237.30,187.61" stroke="#000000" stroke-width="0.25" fill="none" />
  <text x="241.62" y="185.58" font-family="Arial, Helvetica, sans-serif" font-size="2.7" fill="#000000">KWH</text>
  <text x="234.50" y="178.35" font-family="Arial, Helvetica, sans-serif" font-size="2.8" fill="#000000">KWH METER BY SP</text>
  <path d="M 272.84,183.16 A 3.75,3.75 0 0,0 266.16,183.16" stroke="#000000" stroke-width="0.25" fill="none" />
  <circle cx="266.16" cy="184.20" r="0.66" stroke="#000000" stroke-width="0.25" fill="none" />
  <circle cx="272.84" cy="184.19" r="0.66" stroke="#000000" stroke-width="0.25" fill="none" />
  <line x1="265.50" y1="184.01" x2="263.50" y2="184.01" stroke="#000000" stroke-width="0.25" fill="none" />
  <line x1="273.50" y1="184.01" x2="275.50" y2="184.01" stroke="#000000" stroke-width="0.25" fill="none" />
  <text x="264.22" y="188.59" font-family="Arial, Helvetica, sans-serif" font-size="1.6" fill="#000000"><tspan x="264.22">63A TPN MCB</tspan><tspan x="264.22" dy="2.2">TYPE B 25kA</tspan></text>
  <text x="296.50" y="183.25" font-family="Arial, Helvetica, sans-serif" font-size="2.8" fill="#000000">INCOMING FROM HDB ELECTRICAL RISER</text>
  <text x="287.50" y="194.85" font-family="Arial, Helvetica, sans-serif" font-size="2.8" fill="#000000"><tspan x="287.50">4 x 1C 16sqmm PVC/PVC +</tspan><tspan x="287.50" dy="3.9">16sqmm PVC CPC IN METAL TRUNKING</tspan></text>
  <text x="150.24" y="167.45" font-family="Arial, Helvetica, sans-serif" font-size="2.8" fill="#000000"><tspan x="150.24">4 x 1C 16sqmm PVC/PVC +</tspan><tspan x="150.24" dy="3.9">16sqmm PVC CPC IN METAL TRUNKING</tspan></text>
  <text x="213.00" y="197.83" font-family="Arial, Helvetica, sans-serif" font-size="2.8" fill="#000000">METER BOARD</text>
  <text x="226.75" y="204.63" font-family="Arial, Helvetica, sans-serif" font-size="2.8" fill="#000000">LOCATED AT METER COMPARTMENT</text>
  <line x1="281.50" y1="201.89" x2="281.50" y2="203.69" stroke="#000000" stroke-width="0.25" fill="none" />
  <line x1="279.25" y1="203.69" x2="283.75" y2="203.69" stroke="#000000" stroke-width="0.25" fill="none" />
  <line x1="280.00" y1="204.81" x2="283.00" y2="204.81" stroke="#000000" stroke-width="0.25" fill="none" />
  <line x1="280.75" y1="205.94" x2="282.25" y2="205.94" stroke="#000000" stroke-width="0.25" fill="none" />
  <text x="287.25" y="203.42" font-family="Arial, Helvetica, sans-serif" font-size="1.6" fill="#000000">E</text>
  <path d="M 210.96,143.87 A 4.22,4.22 0 0,0 210.96,136.35" stroke="#000000" stroke-width="0.25" fill="none" />
  <circle cx="209.78" cy="136.35" r="0.74" stroke="#000000" stroke-width="0.25" fill="none" />
  <circle cx="209.80" cy="143.87" r="0.74" stroke="#000000" stroke-width="0.25" fill="none" />
  <line x1="210.00" y1="144.61" x2="210.00" y2="146.61" stroke="#000000" stroke-width="0.25" fill="none" />
  <line x1="210.00" y1="135.61" x2="210.00" y2="133.61" stroke="#000000" stroke-width="0.25" fill="none" />
  <text x="215.75" y="139.39" font-family="Arial, Helvetica, sans-serif" font-size="1.6" fill="#000000">63A TPN MCCB (25kA)</text>
  <path d="M 211.17,132.87 A 4.22,4.22 0 0,0 211.17,125.35" stroke="#000000" stroke-width="0.25" fill="none" />
  <circle cx="209.99" cy="125.35" r="0.74" stroke="#000000" stroke-width="0.25" fill="none" />
  <circle cx="210.01" cy="132.87" r="0.74" stroke="#000000" stroke-width="0.25" fill="none" />
  <line x1="213.47" y1="129.11" x2="215.28" y2="129.11" stroke="#000000" stroke-width="0.25" fill="none" />
  <line x1="215.28" y1="130.75" x2="215.28" y2="127.47" stroke="#000000" stroke-width="0.25" fill="none" />
  <line x1="210.00" y1="133.61" x2="210.00" y2="135.61" stroke="#000000" stroke-width="0.25" fill="none" />
  <line x1="210.00" y1="124.61" x2="210.00" y2="122.61" stroke="#000000" stroke-width="0.25" fill="none" />
  <text x="216.25" y="128.39" font-family="Arial, Helvetica, sans-serif" font-size="1.6" fill="#000000">63A 4P ELCB (100mA)</text>
  <line x1="114.00" y1="122.61" x2="306.00" y2="122.61" stroke="#000000" stroke-width="0.50" fill="none" />
  <text x="117.00" y="127.85" font-family="Arial, Helvetica, sans-serif" font-size="2.8" fill="#000000">200A BUSBAR</text>
  <text x="129.00" y="120.87" font-family="Arial, Helvetica, sans-serif" font-size="2.2" fill="#000000" transform="rotate(-90.0,129.00,119.11)">L1S1</text>
  <path d="M 128.35,109.95 A 3.75,3.75 0 0,0 128.35,103.27" stroke="#000000" stroke-width="0.25" fill="none" />
  <circle cx="127.31" cy="103.27" r="0.66" stroke="#000000" stroke-width="0.25" fill="none" />
  <circle cx="127.32" cy="109.95" r="0.66" stroke="#000000" stroke-width="0.25" fill="none" />
  <line x1="127.50" y1="110.61" x2="127.50" y2="112.61" stroke="#000000" stroke-width="0.25" fill="none" />
  <line x1="127.50" y1="102.61" x2="127.50" y2="100.61" stroke="#000000" stroke-width="0.25" fill="none" />
  <line x1="124.39" y1="106.61" x2="130.39" y2="106.61" stroke="#000000" stroke-width="0.25" fill="none" />
  <line x1="130.39" y1="106.61" x2="129.19" y2="106.01" stroke="#000000" stroke-width="0.25" fill="none" />
  <line x1="130.39" y1="106.61" x2="129.19" y2="107.21" stroke="#000000" stroke-width="0.25" fill="none" />
  <text x="119.00" y="105.21" font-family="Arial, Helvetica, sans-serif" font-size="2.0" fill="#000000">B10A</text>
  <text x="119.00" y="107.71" font-family="Arial, Helvetica, sans-serif" font-size="2.0" fill="#000000">SPN</text>
  <text x="119.00" y="110.21" font-family="Arial, Helvetica, sans-serif" font-size="2.0" fill="#000000">MCB</text>
  <text x="119.00" y="112.71" font-family="Arial, Helvetica, sans-serif" font-size="2.0" fill="#000000">6kA</text>
  <text x="127.50" y="77.85" font-family="Arial, Helvetica, sans-serif" font-size="2.8" fill="#000000" transform="rotate(-90.0,127.50,75.61)">1 no. Lighting 1</text>
  <text x="162.00" y="120.87" font-family="Arial, Helvetica, sans-serif" font-size="2.2" fill="#000000" transform="rotate(-90.0,162.00,119.11)">L2S1</text>
  <path d="M 161.35,109.95 A 3.75,3.75 0 0,0 161.35,103.27" stroke="#000000" stroke-width="0.25" fill="none" />
  <circle cx="160.31" cy="103.27" r="0.66" stroke="#000000" stroke-width="0.25" fill="none" />
  <circle cx="160.32" cy="109.95" r="0.66" stroke="#000000" stroke-width="0.25" fill="none" />
  <line x1="160.50" y1="110.61" x2="160.50" y2="112.61" stroke="#000000" stroke-width="0.25" fill="none" />
  <line x1="160.50" y1="102.61" x2="160.50" y2="100.61" stroke="#000000" stroke-width="0.25" fill="none" />
  <line x1="130.39" y1="106.61" x2="163.39" y2="106.61" stroke="#000000" stroke-width="0.25" fill="none" />
  <line x1="163.39" y1="106.61" x2="162.19" y2="106.01" stroke="#000000" stroke-width="0.25" fill="none" />
  <line x1="163.39" y1="106.61" x2="162.19" y2="107.21" stroke="#000000" stroke-width="0.25" fill="none" />
  <text x="160.50" y="77.85" font-family="Arial, Helvetica, sans-serif" font-size="2.8" fill="#000000" transform="rotate(-90.0,160.50,75.61)">1 no. Lighting 2</text>
  <text x="195.00" y="120.87" font-family="Arial, Helvetica, sans-serif" font-size="2.2" fill="#000000" transform="rotate(-90.0,195.00,119.11)">L3S1</text>
  <path d="M 194.35,109.95 A 3.75,3.75 0 0,0 194.35,103.27" stroke="#000000" stroke-width="0.25" fill="none" />
  <circle cx="193.31" cy="103.27" r="0.66" stroke="#000000" stroke-width="0.25" fill="none" />
  <circle cx="193.32" cy="109.95" r="0.66" stroke="#000000" stroke-width="0.25" fill="none" />
  <line x1="193.50" y1="110.61" x2="193.50" y2="112.61" stroke="#000000" stroke-width="0.25" fill="none" />
  <line x1="193.50" y1="102.61" x2="193.50" y2="100.61" stroke="#000000" stroke-width="0.25" fill="none" />
  <line x1="163.39" y1="106.61" x2="196.39" y2="106.61" stroke="#000000" stroke-width="0.25" fill="none" />
  <line x1="196.39" y1="106.61" x2="195.19" y2="106.01" stroke="#000000" stroke-width="0.25" fill="none" />
  <line x1="196.39" y1="106.61" x2="195.19" y2="107.21" stroke="#000000" stroke-width="0.25" fill="none" />
  <text x="193.50" y="77.85" font-family="Arial, Helvetica, sans-serif" font-size="2.8" fill="#000000" transform="rotate(-90.0,193.50,75.61)">1 no. Lighting 3</text>
  <text x="234.00" y="120.87" font-family="Arial, Helvetica, sans-serif" font-size="2.2" fill="#000000" transform="rotate(-90.0,234.00,119.11)">L1P1</text>
  <path d="M 233.35,109.95 A 3.75,3.75 0 0,0 233.35,103.27" stroke="#000000" stroke-width="0.25" fill="none" />
  <circle cx="232.31" cy="103.27" r="0.66" stroke="#000000" stroke-width="0.25" fill="none" />
  <circle cx="232.32" cy="109.95" r="0.66" stroke="#000000" stroke-width="0.25" fill="none" />
  <line x1="232.50" y1="110.61" x2="232.50" y2="112.61" stroke="#000000" stroke-width="0.25" fill="none" />
  <line x1="232.50" y1="102.61" x2="232.50" y2="100.61" stroke="#000000" stroke-width="0.25" fill="none" />
  <line x1="229.39" y1="106.61" x2="235.39" y2="106.61" stroke="#000000" stroke-width="0.25" fill="none" />
  <line x1="235.39" y1="106.61" x2="234.19" y2="106.01" stroke="#000000" stroke-width="0.25" fill="none" />
  <line x1="235.39" y1="106.61" x2="234.19" y2="107.21" stroke="#000000" stroke-width="0.25" fill="none" />
  <text x="224.00" y="105.21" font-family="Arial, Helvetica, sans-serif" font-size="2.0" fill="#000000">B20A</text>
  <text x="224.00" y="107.71" font-family="Arial, Helvetica, sans-serif" font-size="2.0" fill="#000000">SPN</text>
  <text x="224.00" y="110.21" font-family="Arial, Helvetica, sans-serif" font-size="2.0" fill="#000000">MCB</text>
  <text x="224.00" y="112.71" font-family="Arial, Helvetica, sans-serif" font-size="2.0" fill="#000000">6kA</text>
  <text x="232.50" y="77.85" font-family="Arial, Helvetica, sans-serif" font-size="2.8" fill="#000000" transform="rotate(-90.0,232.50,75.61)">1 no. Power 1</text>
  <text x="267.00" y="120.87" font-family="Arial, Helvetica, sans-serif" font-size="2.2" fill="#000000" transform="rotate(-90.0,267.00,119.11)">L2P1</text>
  <path d="M 266.35,109.95 A 3.75,3.75 0 0,0 266.35,103.27" stroke="#000000" stroke-width="0.25" fill="none" />
  <circle cx="265.31" cy="103.27" r="0.66" stroke="#000000" stroke-width="0.25" fill="none" />
  <circle cx="265.32" cy="109.95" r="0.66" stroke="#000000" stroke-width="0.25" fill="none" />
  <line x1="265.50" y1="110.61" x2="265.50" y2="112.61" stroke="#000000" stroke-width="0.25" fill="none" />
  <line x1="265.50" y1="102.61" x2="265.50" y2="100.61" stroke="#000000" stroke-width="0.25" fill="none" />
  <line x1="235.39" y1="106.61" x2="268.39" y2="106.61" stroke="#000000" stroke-width="0.25" fill="none" />
  <line x1="268.39" y1="106.61" x2="267.19" y2="106.01" stroke="#000000" stroke-width="0.25" fill="none" />
  <line x1="268.39" y1="106.61" x2="267.19" y2="107.21" stroke="#000000" stroke-width="0.25" fill="none" />
  <text x="265.50" y="77.85" font-family="Arial, Helvetica, sans-serif" font-size="2.8" fill="#000000" transform="rotate(-90.0,265.50,75.61)">1 no. Power 2</text>
  <text x="300.00" y="120.87" font-family="Arial, Helvetica, sans-serif" font-size="2.2" fill="#000000" transform="rotate(-90.0,300.00,119.11)">L3P1</text>
  <path d="M 299.35,109.95 A 3.75,3.75 0 0,0 299.35,103.27" stroke="#000000" stroke-width="0.25" fill="none" />
  <circle cx="298.31" cy="103.27" r="0.66" stroke="#000000" stroke-width="0.25" fill="none" />
  <circle cx="298.32" cy="109.95" r="0.66" stroke="#000000" stroke-width="0.25" fill="none" />
  <line x1="298.50" y1="110.61" x2="298.50" y2="112.61" stroke="#000000" stroke-width="0.25" fill="none" />
  <line x1="298.50" y1="102.61" x2="298.50" y2="100.61" stroke="#000000" stroke-width="0.25" fill="none" />
  <line x1="268.39" y1="106.61" x2="301.39" y2="106.61" stroke="#000000" stroke-width="0.25" fill="none" />
  <line x1="301.39" y1="106.61" x2="300.19" y2="106.01" stroke="#000000" stroke-width="0.25" fill="none" />
  <line x1="301.39" y1="106.61" x2="300.19" y2="107.21" stroke="#000000" stroke-width="0.25" fill="none" />
  <text x="298.50" y="77.85" font-family="Arial, Helvetica, sans-serif" font-size="2.8" fill="#000000" transform="rotate(-90.0,298.50,75.61)">SPARE</text>
  <text x="114.50" y="79.41" font-family="Arial, Helvetica, sans-serif" font-size="2.8" fill="#000000" transform="rotate(-90.0,114.50,79.41)">2 x 1C 1.5sqmm PVC +</text>
  <text x="118.42" y="79.41" font-family="Arial, Helvetica, sans-serif" font-size="2.8" fill="#000000" transform="rotate(-90.0,118.42,79.41)">1.5sqmm PVC CPC</text>
  <text x="275.50" y="79.41" font-family="Arial, Helvetica, sans-serif" font-size="2.8" fill="#000000" transform="rotate(-90.0,275.50,79.41)">2 x 1C 2.5sqmm PVC +</text>
  <text x="279.42" y="79.41" font-family="Arial, Helvetica, sans-serif" font-size="2.8" fill="#000000" transform="rotate(-90.0,279.42,79.41)">2.5sqmm PVC CPC</text>
  <text x="110.00" y="149.01" font-family="Arial, Helvetica, sans-serif" font-size="3.0" fill="#000000">63A DB</text>
  <text x="110.00" y="152.05" font-family="Arial, Helvetica, sans-serif" font-size="1.8" fill="#000000">APPROVED LOAD: 45 KVA AT 400V</text>
  <line x1="323.75" y1="143.11" x2="323.75" y2="144.91" stroke="#000000" stroke-width="0.25" fill="none" />
  <line x1="321.50" y1="144.91" x2="326.00" y2="144.91" stroke="#000000" stroke-width="0.25" fill="none" />
  <line x1="322.25" y1="146.04" x2="325.25" y2="146.04" stroke="#000000" stroke-width="0.25" fill="none" />
  <line x1="323.00" y1="147.16" x2="324.50" y2="147.16" stroke="#000000" stroke-width="0.25" fill="none" />
  <text x="329.50" y="144.64" font-family="Arial, Helvetica, sans-serif" font-size="1.6" fill="#000000">E</text>
  <line x1="210.00" y1="184.01" x2="216.00" y2="184.01" stroke="#000000" stroke-width="0.25" fill="none" />
  <line x1="223.00" y1="184.01" x2="237.30" y2="184.01" stroke="#000000" stroke-width="0.25" fill="none" />
  <line x1="251.70" y1="184.01" x2="265.50" y2="184.01" stroke="#000000" stroke-width="0.25" fill="none" />
  <line x1="273.50" y1="184.01" x2="293.50" y2="184.01" stroke="#000000" stroke-width="0.25" fill="none" />
  <line x1="282.00" y1="185.51" x2="285.00" y2="182.51" stroke="#000000" stroke-width="0.25" fill="none" />
  <line x1="283.50" y1="184.01" x2="283.50" y2="194.01" stroke="#000000" stroke-width="0.25" fill="none" />
  <line x1="283.50" y1="194.01" x2="286.50" y2="194.01" stroke="#000000" stroke-width="0.25" fill="none" />
  <line x1="210.00" y1="184.01" x2="210.00" y2="158.61" stroke="#000000" stroke-width="0.25" fill="none" />
  <line x1="210.00" y1="166.61" x2="207.00" y2="166.61" stroke="#000000" stroke-width="0.25" fill="none" />
  <line x1="277.50" y1="196.39" x2="281.50" y2="196.39" stroke="#000000" stroke-width="0.25" fill="none" />
  <line x1="281.50" y1="196.39" x2="281.50" y2="203.89" stroke="#000000" stroke-width="0.25" fill="none" />
  <line x1="210.00" y1="158.61" x2="210.00" y2="144.61" stroke="#000000" stroke-width="0.25" fill="none" />
  <line x1="210.00" y1="124.61" x2="210.00" y2="122.61" stroke="#000000" stroke-width="0.25" fill="none" />
  <line x1="127.50" y1="113.83" x2="127.50" y2="110.61" stroke="#000000" stroke-width="0.25" fill="none" />
  <line x1="127.50" y1="102.61" x2="127.50" y2="77.61" stroke="#000000" stroke-width="0.25" fill="none" />
  <line x1="160.50" y1="122.61" x2="160.50" y2="110.61" stroke="#000000" stroke-width="0.25" fill="none" />
  <line x1="160.50" y1="102.61" x2="160.50" y2="77.61" stroke="#000000" stroke-width="0.25" fill="none" />
  <line x1="193.50" y1="113.83" x2="193.50" y2="110.61" stroke="#000000" stroke-width="0.25" fill="none" />
  <line x1="193.50" y1="102.61" x2="193.50" y2="77.61" stroke="#000000" stroke-width="0.25" fill="none" />
  <line x1="232.50" y1="113.83" x2="232.50" y2="110.61" stroke="#000000" stroke-width="0.25" fill="none" />
  <line x1="232.50" y1="102.61" x2="232.50" y2="77.61" stroke="#000000" stroke-width="0.25" fill="none" />
  <line x1="265.50" y1="122.61" x2="265.50" y2="110.61" stroke="#000000" stroke-width="0.25" fill="none" />
  <line x1="265.50" y1="102.61" x2="265.50" y2="77.61" stroke="#000000" stroke-width="0.25" fill="none" />
  <line x1="298.50" y1="113.83" x2="298.50" y2="110.61" stroke="#000000" stroke-width="0.25" fill="none" />
  <line x1="298.50" y1="102.61" x2="298.50" y2="77.61" stroke="#000000" stroke-width="0.25" fill="none" />
  <line x1="117.50" y1="82.61" x2="193.50" y2="82.61" stroke="#000000" stroke-width="0.25" fill="none" />
  <line x1="117.50" y1="82.61" x2="117.50" y2="77.61" stroke="#000000" stroke-width="0.25" fill="none" />
  <line x1="232.50" y1="82.61" x2="275.50" y2="82.61" stroke="#000000" stroke-width="0.25" fill="none" />
  <line x1="275.50" y1="82.61" x2="275.50" y2="77.61" stroke="#000000" stroke-width="0.25" fill="none" />
  <line x1="316.00" y1="143.11" x2="323.75" y2="143.11" stroke="#000000" stroke-width="0.25" fill="none" />
  <line x1="208.75" y1="167.86" x2="211.25" y2="165.36" stroke="#000000" stroke-width="0.50" fill="none" />
  <line x1="126.25" y1="83.86" x2="128.75" y2="81.36" stroke="#000000" stroke-width="0.50" fill="none" />
  <line x1="159.25" y1="83.86" x2="161.75" y2="81.36" stroke="#000000" stroke-width="0.50" fill="none" />
  <line x1="192.25" y1="83.86" x2="194.75" y2="81.36" stroke="#000000" stroke-width="0.50" fill="none" />
  <line x1="231.25" y1="83.86" x2="233.75" y2="81.36" stroke="#000000" stroke-width="0.50" fill="none" />
  <line x1="264.25" y1="83.86" x2="266.75" y2="81.36" stroke="#000000" stroke-width="0.50" fill="none" />
  <line x1="160.50" y1="122.61" x2="127.50" y2="113.83" stroke="#000000" stroke-width="0.25" fill="none" />
  <line x1="160.50" y1="122.61" x2="193.50" y2="113.83" stroke="#000000" stroke-width="0.25" fill="none" />
  <line x1="265.50" y1="122.61" x2="232.50" y2="113.83" stroke="#000000" stroke-width="0.25" fill="none" />
  <line x1="265.50" y1="122.61" x2="298.50" y2="113.83" stroke="#000000" stroke-width="0.25" fill="none" />
  <line x1="212.00" y1="199.39" x2="220.00" y2="199.39" stroke="#000000" stroke-width="0.25" fill="none" />
  <line x1="222.00" y1="199.39" x2="223.50" y2="199.39" stroke="#000000" stroke-width="0.25" fill="none" />
  <line x1="225.50" y1="199.39" x2="233.50" y2="199.39" stroke="#000000" stroke-width="0.25" fill="none" />
  <line x1="235.50" y1="199.39" x2="237.00" y2="199.39" stroke="#000000" stroke-width="0.25" fill="none" />
  <line x1="239.00" y1="199.39" x2="247.00" y2="199.39" stroke="#000000" stroke-width="0.25" fill="none" />
  <line x1="249.00" y1="199.39" x2="250.50" y2="199.39" stroke="#000000" stroke-width="0.25" fill="none" />
  <line x1="252.50" y1="199.39" x2="260.50" y2="199.39" stroke="#000000" stroke-width="0.25" fill="none" />
  <line x1="262.50" y1="199.39" x2="264.00" y2="199.39" stroke="#000000" stroke-width="0.25" fill="none" />
  <line x1="266.00" y1="199.39" x2="274.00" y2="199.39" stroke="#000000" stroke-width="0.25" fill="none" />
  <line x1="276.00" y1="199.39" x2="277.50" y2="199.39" stroke="#000000" stroke-width="0.25" fill="none" />
  <line x1="212.00" y1="174.61" x2="220.00" y2="174.61" stroke="#000000" stroke-width="0.25" fill="none" />
  <line x1="222.00" y1="174.61" x2="223.50" y2="174.61" stroke="#000000" stroke-width="0.25" fill="none" />
  <line x1="225.50" y1="174.61" x2="233.50" y2="174.61" stroke="#000000" stroke-width="0.25" fill="none" />
  <line x1="235.50" y1="174.61" x2="237.00" y2="174.61" stroke="#000000" stroke-width="0.25" fill="none" />
  <line x1="239.00" y1="174.61" x2="247.00" y2="174.61" stroke="#000000" stroke-width="0.25" fill="none" />
  <line x1="249.00" y1="174.61" x2="250.50" y2="174.61" stroke="#000000" stroke-width="0.25" fill="none" />
  <line x1="252.50" y1="174.61" x2="260.50" y2="174.61" stroke="#000000" stroke-width="0.25" fill="none" />
  <line x1="262.50" y1="174.61" x2="264.00" y2="174.61" stroke="#000000" stroke-width="0.25" fill="none" />
  <line x1="266.00" y1="174.61" x2="274.00" y2="174.61" stroke="#000000" stroke-width="0.25" fill="none" />
  <line x1="276.00" y1="174.61" x2="277.50" y2="174.61" stroke="#000000" stroke-width="0.25" fill="none" />
  <line x1="212.00" y1="199.39" x2="212.00" y2="191.39" stroke="#000000" stroke-width="0.25" fill="none" />
  <line x1="212.00" y1="189.39" x2="212.00" y2="187.89" stroke="#000000" stroke-width="0.25" fill="none" />
  <line x1="212.00" y1="185.89" x2="212.00" y2="177.89" stroke="#000000" stroke-width="0.25" fill="none" />
  <line x1="212.00" y1="175.89" x2="212.00" y2="174.61" stroke="#000000" stroke-width="0.25" fill="none" />
  <line x1="277.50" y1="199.39" x2="277.50" y2="191.39" stroke="#000000" stroke-width="0.25" fill="none" />
  <line x1="277.50" y1="189.39" x2="277.50" y2="187.89" stroke="#000000" stroke-width="0.25" fill="none" />
  <line x1="277.50" y1="185.89" x2="277.50" y2="177.89" stroke="#000000" stroke-width="0.25" fill="none" />
  <line x1="277.50" y1="175.89" x2="277.50" y2="174.61" stroke="#000000" stroke-width="0.25" fill="none" />
  <line x1="104.00" y1="154.61" x2="112.00" y2="154.61" stroke="#000000" stroke-width="0.25" fill="none" />
  <line x1="114.00" y1="154.61" x2="115.50" y2="154.61" stroke="#000000" stroke-width="0.25" fill="none" />
  <line x1="117.50" y1="154.61" x2="125.50" y2="154.61" stroke="#000000" stroke-width="0.25" fill="none" />
  <line x1="127.50" y1="154.61" x2="129.00" y2="154.61" stroke="#000000" stroke-width="0.25" fill="none" />
  <line x1="131.00" y1="154.61" x2="139.00" y2="154.61" stroke="#000000" stroke-width="0.25" fill="none" />
  <line x1="141.00" y1="154.61" x2="142.50" y2="154.61" stroke="#000000" stroke-width="0.25" fill="none" />
  <line x1="144.50" y1="154.61" x2="152.50" y2="154.61" stroke="#000000" stroke-width="0.25" fill="none" />
  <line x1="154.50" y1="154.61" x2="156.00" y2="154.61" stroke="#000000" stroke-width="0.25" fill="none" />
  <line x1="158.00" y1="154.61" x2="166.00" y2="154.61" stroke="#000000" stroke-width="0.25" fill="none" />
  <line x1="168.00" y1="154.61" x2="169.50" y2="154.61" stroke="#000000" stroke-width="0.25" fill="none" />
  <line x1="171.50" y1="154.61" x2="179.50" y2="154.61" stroke="#000000" stroke-width="0.25" fill="none" />
  <line x1="181.50" y1="154.61" x2="183.00" y2="154.61" stroke="#000000" stroke-width="0.25" fill="none" />
  <line x1="185.00" y1="154.61" x2="193.00" y2="154.61" stroke="#000000" stroke-width="0.25" fill="none" />
  <line x1="195.00" y1="154.61" x2="196.50" y2="154.61" stroke="#000000" stroke-width="0.25" fill="none" />
  <line x1="198.50" y1="154.61" x2="206.50" y2="154.61" stroke="#000000" stroke-width="0.25" fill="none" />
  <line x1="208.50" y1="154.61" x2="210.00" y2="154.61" stroke="#000000" stroke-width="0.25" fill="none" />
  <line x1="212.00" y1="154.61" x2="220.00" y2="154.61" stroke="#000000" stroke-width="0.25" fill="none" />
  <line x1="222.00" y1="154.61" x2="223.50" y2="154.61" stroke="#000000" stroke-width="0.25" fill="none" />
  <line x1="225.50" y1="154.61" x2="233.50" y2="154.61" stroke="#000000" stroke-width="0.25" fill="none" />
  <line x1="235.50" y1="154.61" x2="237.00" y2="154.61" stroke="#000000" stroke-width="0.25" fill="none" />
  <line x1="239.00" y1="154.61" x2="247.00" y2="154.61" stroke="#000000" stroke-width="0.25" fill="none" />
  <line x1="249.00" y1="154.61" x2="250.50" y2="154.61" stroke="#000000" stroke-width="0.25" fill="none" />
  <line x1="252.50" y1="154.61" x2="260.50" y2="154.61" stroke="#000000" stroke-width="0.25" fill="none" />
  <line x1="262.50" y1="154.61" x2="264.00" y2="154.61" stroke="#000000" stroke-width="0.25" fill="none" />
  <line x1="266.00" y1="154.61" x2="274.00" y2="154.61" stroke="#000000" stroke-width="0.25" fill="none" />
  <line x1="276.00" y1="154.61" x2="277.50" y2="154.61" stroke="#000000" stroke-width="0.25" fill="none" />
  <line x1="279.50" y1="154.61" x2="287.50" y2="154.61" stroke="#000000" stroke-width="0.25" fill="none" />
  <line x1="289.50" y1="154.61" x2="291.00" y2="154.61" stroke="#000000" stroke-width="0.25" fill="none" />
  <line x1="293.00" y1="154.61" x2="301.00" y2="154.61" stroke="#000000" stroke-width="0.25" fill="none" />
  <line x1="303.00" y1="154.61" x2="304.50" y2="154.61" stroke="#000000" stroke-width="0.25" fill="none" />
  <line x1="306.50" y1="154.61" x2="314.50" y2="154.61" stroke="#000000" stroke-width="0.25" fill="none" />
  <line x1="104.00" y1="92.61" x2="112.00" y2="92.61" stroke="#000000" stroke-width="0.25" fill="none" />
  <line x1="114.00" y1="92.61" x2="115.50" y2="92.61" stroke="#000000" stroke-width="0.25" fill="none" />
  <line x1="117.50" y1="92.61" x2="125.50" y2="92.61" stroke="#000000" stroke-width="0.25" fill="none" />
  <line x1="127.50" y1="92.61" x2="129.00" y2="92.61" stroke="#000000" stroke-width="0.25" fill="none" />
  <line x1="131.00" y1="92.61" x2="139.00" y2="92.61" stroke="#000000" stroke-width="0.25" fill="none" />
  <line x1="141.00" y1="92.61" x2="142.50" y2="92.61" stroke="#000000" stroke-width="0.25" fill="none" />
  <line x1="144.50" y1="92.61" x2="152.50" y2="92.61" stroke="#000000" stroke-width="0.25" fill="none" />
  <line x1="154.50" y1="92.61" x2="156.00" y2="92.61" stroke="#000000" stroke-width="0.25" fill="none" />
  <line x1="158.00" y1="92.61" x2="166.00" y2="92.61" stroke="#000000" stroke-width="0.25" fill="none" />
  <line x1="168.00" y1="92.61" x2="169.50" y2="92.61" stroke="#000000" stroke-width="0.25" fill="none" />
  <line x1="171.50" y1="92.61" x2="179.50" y2="92.61" stroke="#000000" stroke-width="0.25" fill="none" />
  <line x1="181.50" y1="92.61" x2="183.00" y2="92.61" stroke="#000000" stroke-width="0.25" fill="none" />
  <line x1="185.00" y1="92.61" x2="193.00" y2="92.61" stroke="#000000" stroke-width="0.25" fill="none" />
  <line x1="195.00" y1="92.61" x2="196.50" y2="92.61" stroke="#000000" stroke-width="0.25" fill="none" />
  <line x1="198.50" y1="92.61" x2="206.50" y2="92.61" stroke="#000000" stroke-width="0.25" fill="none" />
  <line x1="208.50" y1="92.61" x2="210.00" y2="92.61" stroke="#000000" stroke-width="0.25" fill="none" />
  <line x1="212.00" y1="92.61" x2="220.00" y2="92.61" stroke="#000000" stroke-width="0.25" fill="none" />
  <line x1="222.00" y1="92.61" x2="223.50" y2="92.61" stroke="#000000" stroke-width="0.25" fill="none" />
  <line x1="225.50" y1="92.61" x2="233.50" y2="92.61" stroke="#000000" stroke-width="0.25" fill="none" />
  <line x1="235.50" y1="92.61" x2="237.00" y2="92.61" stroke="#000000" stroke-width="0.25" fill="none" />
  <line x1="239.00" y1="92.61" x2="247.00" y2="92.61" stroke="#000000" stroke-width="0.25" fill="none" />
  <line x1="249.00" y1="92.61" x2="250.50" y2="92.61" stroke="#000000" stroke-width="0.25" fill="none" />
  <line x1="252.50" y1="92.61" x2="260.50" y2="92.61" stroke="#000000" stroke-width="0.25" fill="none" />
  <line x1="262.50" y1="92.61" x2="264.00" y2="92.61" stroke="#000000" stroke-width="0.25" fill="none" />
  <line x1="266.00" y1="92.61" x2="274.00" y2="92.61" stroke="#000000" stroke-width="0.25" fill="none" />
  <line x1="276.00" y1="92.61" x2="277.50" y2="92.61" stroke="#000000" stroke-width="0.25" fill="none" />
  <line x1="279.50" y1="92.61" x2="287.50" y2="92.61" stroke="#000000" stroke-width="0.25" fill="none" />
  <line x1="289.50" y1="92.61" x2="291.00" y2="92.61" stroke="#000000" stroke-width="0.25" fill="none" />
  <line x1="293.00" y1="92.61" x2="301.00" y2="92.61" stroke="#000000" stroke-width="0.25" fill="none" />
  <line x1="303.00" y1="92.61" x2="304.50" y2="92.61" stroke="#000000" stroke-width="0.25" fill="none" />
  <line x1="306.50" y1="92.61" x2="314.50" y2="92.61" stroke="#000000" stroke-width="0.25" fill="none" />
  <line x1="104.00" y1="154.61" x2="104.00" y2="146.61" stroke="#000000" stroke-width="0.25" fill="none" />
  <line x1="104.00" y1="144.61" x2="104.00" y2="143.11" stroke="#000000" stroke-width="0.25" fill="none" />
  <line x1="104.00" y1="141.11" x2="104.00" y2="133.11" stroke="#000000" stroke-width="0.25" fill="none" />
  <line x1="104.00" y1="131.11" x2="104.00" y2="129.61" stroke="#000000" stroke-width="0.25" fill="none" />
  <line x1="104.00" y1="127.61" x2="104.00" y2="119.61" stroke="#000000" stroke-width="0.25" fill="none" />
  <line x1="104.00" y1="117.61" x2="104.00" y2="116.11" stroke="#000000" stroke-width="0.25" fill="none" />
  <line x1="104.00" y1="114.11" x2="104.00" y2="106.11" stroke="#000000" stroke-width="0.25" fill="none" />
  <line x1="104.00" y1="104.11" x2="104.00" y2="102.61" stroke="#000000" stroke-width="0.25" fill="none" />
  <line x1="104.00" y1="100.61" x2="104.00" y2="92.61" stroke="#000000" stroke-width="0.25" fill="none" />
  <line x1="316.00" y1="154.61" x2="316.00" y2="146.61" stroke="#000000" stroke-width="0.25" fill="none" />
  <line x1="316.00" y1="144.61" x2="316.00" y2="143.11" stroke="#000000" stroke-width="0.25" fill="none" />
  <line x1="316.00" y1="141.11" x2="316.00" y2="133.11" stroke="#000000" stroke-width="0.25" fill="none" />
  <line x1="316.00" y1="131.11" x2="316.00" y2="129.61" stroke="#000000" stroke-width="0.25" fill="none" />
  <line x1="316.00" y1="127.61" x2="316.00" y2="119.61" stroke="#000000" stroke-width="0.25" fill="none" />
  <line x1="316.00" y1="117.61" x2="316.00" y2="116.11" stroke="#000000" stroke-width="0.25" fill="none" />
  <line x1="316.00" y1="114.11" x2="316.00" y2="106.11" stroke="#000000" stroke-width="0.25" fill="none" />
  <line x1="316.00" y1="104.11" x2="316.00" y2="102.61" stroke="#000000" stroke-width="0.25" fill="none" />
  <line x1="316.00" y1="100.61" x2="316.00" y2="92.61" stroke="#000000" stroke-width="0.25" fill="none" />
  <circle cx="277.50" cy="196.39" r="0.50" fill="rgb(0,0,0)" stroke="none" />
  <circle cx="160.50" cy="122.61" r="0.50" fill="rgb(0,0,0)" stroke="none" />
  <circle cx="160.50" cy="122.61" r="0.50" fill="rgb(0,0,0)" stroke="none" />
  <circle cx="160.50" cy="122.61" r="0.50" fill="rgb(0,0,0)" stroke="none" />
  <circle cx="265.50" cy="122.61" r="0.50" fill="rgb(0,0,0)" stroke="none" />
  <circle cx="265.50" cy="122.61" r="0.50" fill="rgb(0,0,0)" stroke="none" />
  <circle cx="265.50" cy="122.61" r="0.50" fill="rgb(0,0,0)" stroke="none" />
  <circle cx="316.00" cy="143.11" r="0.50" fill="rgb(0,0,0)" stroke="none" />
  <text x="13.00" y="264.40" font-family="Arial, Helvetica, sans-serif" font-size="3.0" fill="#000000">Electrical Installation</text>
  <text x="153.00" y="264.40" font-family="Arial, Helvetica, sans-serif" font-size="3.0" fill="#000000">LicenseKaki</text>
  <text x="225.00" y="263.80" font-family="Arial, Helvetica, sans-serif" font-size="3.5" fill="#000000"><tspan x="225.00">SINGLE LINE DIAGRAM</tspan><tspan x="225.00" dy="4.9">(SLD)</tspan></text>
  <text x="389.00" y="266.00" font-family="Arial, Helvetica, sans-serif" font-size="2.5" fill="#000000">DATE</text>
  <text x="365.00" y="278.00" font-family="Arial, Helvetica, sans-serif" font-size="2.5" fill="#000000"></text>
  <text x="394.00" y="278.80" font-family="Arial, Helvetica, sans-serif" font-size="3.5" fill="#000000">0</text>
  <text x="365.00" y="286.28" font-family="Arial, Helvetica, sans-serif" font-size="1.6" fill="#000000">SCALE : NTS</text>
  <text x="389.00" y="286.28" font-family="Arial, Helvetica, sans-serif" font-size="1.6" fill="#000000">SHEET : 1 OF 1</text>
</svg>