<svg xmlns="http://www.w3.org/2000/svg" viewBox="0 0 420.0 297.0" width="420.0mm" height="297.0mm">
  <rect width="420.0" height="297.0" fill="white" />
  <polygon points="10.00,287.00 410.00,287.00 410.00,10.00 10.00,10.00" stroke="#000000" stroke-width="0.25" fill="none" />
  <polygon points="10.00,287.00 410.00,287.00 410.00,255.00 10.00,255.00" stroke="#000000" stroke-width="0.25" fill="none" />
  <line x1="90.00" y1="255.00" x2="90.00" y2="287.00" stroke="#000000" stroke-width="0.25" fill="none" />
  <line x1="150.00" y1="255.00" x2="150.00" y2="287.00" stroke="#000000" stroke-width="0.25" fill="none" />
  <line x1="222.00" y1="255.00" x2="222.00" y2="287.00" stroke="#000000" stroke-width="0.25" fill="none" />
  <line x1="290.00" y1="255.00" x2="290.00" y2="287.00" stroke="#000000" stroke-width="0.25" fill="none" />
  <line x1="362.00" y1="255.00" x2="362.00" y2="287.00" stroke="#000000" stroke-width="0.25" fill="none" />
  <line x1="362.00" y1="270.00" x2="410.00" y2="270.00" stroke="#000000" stroke-width="0.25" fill="none" />
  <line x1="386.00" y1="255.00" x2="386.00" y2="287.00" stroke="#000000" stroke-width="0.25" fill="none" />
  <text x="12.00" y="258.94" font-family="Arial, Helvetica, sans-serif" font-size="1.8" fill="#000000">CLIENT / ADDRESS :</text>
  <text x="92.00" y="258.94" font-family="Arial, Helvetica, sans-serif" font-size="1.8" fill="#000000">MAIN CONTRACTOR :</text>
  <text x="152.00" y="258.94" font-family="Arial, Helvetica, sans-serif" font-size="1.8" fill="#000000">ELECTRICAL CONTRACTOR :</text>
  <text x="224.00" y="258.94" font-family="Arial, Helvetica, sans-serif" font-size="1.8" fill="#000000">DRAWING TITLE :</text>
  <text x="292.00" y="258.94" font-family="Arial, Helvetica, sans-serif" font-size="1.8" fill="#000000">LEW :</text>
  <text x="364.00" y="258.94" font-family="Arial, Helvetica, sans-serif" font-size="1.8" fill="#000000">CHECKED :</text>
  <text x="388.00" y="258.94" font-family="Arial, Helvetica, sans-serif" font-size="1.8" fill="#000000">DATE :</text>
  <text x="364.00" y="273.94" font-family="Arial, Helvetica, sans-serif" font-size="1.8" fill="#000000">DRAWING NO. :</text>
  <text x="388.00" y="273.94" font-family="Arial, Helvetica, sans-serif" font-size="1.8" fill="#000000">REV :</text>
  <circle cx="217.50" cy="183.01" r="0.40" stroke="#000000" stroke-width="0.25" fill="none" />
  <line x1="217.90" y1="183.01" x2="221.50" y2="181.01" stroke="#000000" stroke-width="0.25" fill="none" />
  <circle cx="221.50" cy="183.01" r="0.40" stroke="#000000" stroke-width="0.25" fill="none" />
  <line x1="221.90" y1="183.01" x2="223.00" y2="183.01" stroke="#000000" stroke-width="0.25" fill="none" />
  <line x1="216.00" y1="183.01" x2="217.10" y2="183.01" stroke="#000000" stroke-width="0.25" fill="none" />
  <line x1="223.00" y1="183.01" x2="225.00" y2="183.01" stroke="#000000" stroke-width="0.25" fill="none" />
  <line x1="216.00" y1="183.01" x2="214.00" y2="183.01" stroke="#000000" stroke-width="0.25" fill="none" />
  <text x="215.66" y="187.84" font-family="Arial, Helvetica, sans-serif" font-size="1.6" fill="#000000"><tspan x="215.66">63A 4P</tspan><tspan x="215.66" dy="2.2">ISOLATOR</tspan></text>
  <polygon points="244.50,184.96 252.30,184.96 252.30,181.06 244.50,181.06" stroke="#000000" stroke-width="0.25" fill="none" />
  <text x="245.67" y="183.49" font-family="Arial, Helvetica, sans-serif" font-size="1.6" fill="#000000">KWH</text>
  <line x1="252.30" y1="183.01" x2="254.30" y2="183.01" stroke="#000000" stroke-width="0.25" fill="none" />
  <line x1="244.50" y1="183.01" x2="242.50" y2="183.01" stroke="#000000" stroke-width="0.25" fill="none" />
  <text x="234.50" y="178.20" font-family="Arial, Helvetica, sans-serif" font-size="2.8" fill="#000000">KWH METER BY SP</text>
  <circle cx="267.80" cy="183.01" r="0.35" stroke="#000000" stroke-width="0.25" fill="none" />
  <circle cx="271.20" cy="183.01" r="0.35" stroke="#000000" stroke-width="0.25" fill="none" />
  <path d="M 271.15,182.60 A 1.70,1.70 0 0,0 267.86,182.58" stroke="#000000" stroke-width="0.25" fill="none" />
  <line x1="271.55" y1="183.01" x2="273.50" y2="183.01" stroke="#000000" stroke-width="0.25" fill="none" />
  <line x1="265.50" y1="183.01" x2="267.45" y2="183.01" stroke="#000000" stroke-width="0.25" fill="none" />
  <line x1="273.50" y1="183.01" x2="275.50" y2="183.01" stroke="#000000" stroke-width="0.25" fill="none" />
  <line x1="265.50" y1="183.01" x2="263.50" y2="183.01" stroke="#000000" stroke-width="0.25" fill="none" />
  <text x="264.22" y="187.59" font-family="Arial, Helvetica, sans-serif" font-size="1.6" fill="#000000"><tspan x="264.22">63A TPN MCB</tspan><tspan x="264.22" dy="2.2">TYPE B 25kA</tspan></text>
  <text x="298.50" y="182.25" font-family="Arial, Helvetica, sans-serif" font-size="2.8" fill="#000000">INCOMING FROM HDB ELECTRICAL RISER</text>
  <text x="289.50" y="193.85" font-family="Arial, Helvetica, sans-serif" font-size="2.8" fill="#000000"><tspan x="289.50">4 x 1C 16sqmm PVC/PVC +</tspan><tspan x="289.50" dy="3.9">16sqmm PVC CPC IN METAL TRUNKING</tspan></text>
  <text x="150.24" y="167.30" font-family="Arial, Helvetica, sans-serif" font-size="2.8" fill="#000000"><tspan x="150.24">4 x 1C 16sqmm PVC/PVC +</tspan><tspan x="150.24" dy="3.9">16sqmm PVC CPC IN METAL TRUNKING</tspan></text>
  <text x="213.00" y="195.98" font-family="Arial, Helvetica, sans-serif" font-size="2.8" fill="#000000">METER BOARD</text>
  <text x="227.75" y="202.78" font-family="Arial, Helvetica, sans-serif" font-size="2.8" fill="#000000">LOCATED AT METER COMPARTMENT</text>
  <line x1="283.50" y1="200.04" x2="283.50" y2="201.84" stroke="#000000" stroke-width="0.25" fill="none" />
  <line x1="280.75" y1="201.84" x2="286.25" y2="201.84" stroke="#000000" stroke-width="0.25" fill="none" />
  <line x1="281.67" y1="202.96" x2="285.33" y2="202.96" stroke="#000000" stroke-width="0.25" fill="none" />
  <line x1="282.58" y1="204.09" x2="284.42" y2="204.09" stroke="#000000" stroke-width="0.25" fill="none" />
  <text x="289.25" y="201.57" font-family="Arial, Helvetica, sans-serif" font-size="1.6" fill="#000000">E</text>
  <circle cx="210.00" cy="141.96" r="0.35" stroke="#000000" stroke-width="0.25" fill="none" />
  <circle cx="210.00" cy="137.96" r="0.35" stroke="#000000" stroke-width="0.25" fill="none" />
  <path d="M 210.91,141.74 A 2.00,2.00 0 0,0 210.91,138.18" stroke="#000000" stroke-width="0.25" fill="none" />
  <line x1="210.00" y1="137.61" x2="210.00" y2="135.46" stroke="#000000" stroke-width="0.25" fill="none" />
  <line x1="210.00" y1="144.46" x2="210.00" y2="142.31" stroke="#000000" stroke-width="0.25" fill="none" />
  <line x1="210.00" y1="135.46" x2="210.00" y2="133.46" stroke="#000000" stroke-width="0.25" fill="none" />
  <line x1="210.00" y1="144.46" x2="210.00" y2="146.46" stroke="#000000" stroke-width="0.25" fill="none" />
  <text x="215.75" y="139.24" font-family="Arial, Helvetica, sans-serif" font-size="1.6" fill="#000000">63A TPN MCCB (25KA)</text>
  <line x1="114.00" y1="133.46" x2="306.00" y2="133.46" stroke="#000000" stroke-width="0.50" fill="none" />
  <text x="117.00" y="138.70" font-family="Arial, Helvetica, sans-serif" font-size="2.8" fill="#000000">200A COMB BAR</text>
  <text x="129.00" y="131.72" font-family="Arial, Helvetica, sans-serif" font-size="2.2" fill="#000000" transform="rotate(-90.0,129.00,129.96)">L1S1</text>
  <circle cx="127.50" cy="119.16" r="0.35" stroke="#000000" stroke-width="0.25" fill="none" />
  <circle cx="127.50" cy="115.76" r="0.35" stroke="#000000" stroke-width="0.25" fill="none" />
  <path d="M 127.91,119.11 A 1.70,1.70 0 0,0 127.93,115.82" stroke="#000000" stroke-width="0.25" fill="none" />
  <line x1="123.20" y1="117.42" x2="129.20" y2="117.47" stroke="#000000" stroke-width="0.25" fill="none" />
  <line x1="129.20" y1="117.47" x2="127.99" y2="118.06" stroke="#000000" stroke-width="0.25" fill="none" />
  <line x1="129.20" y1="117.47" x2="128.01" y2="116.86" stroke="#000000" stroke-width="0.25" fill="none" />
  <line x1="127.50" y1="115.41" x2="127.50" y2="113.46" stroke="#000000" stroke-width="0.25" fill="none" />
  <line x1="127.50" y1="121.46" x2="127.50" y2="119.51" stroke="#000000" stroke-width="0.25" fill="none" />
  <line x1="127.50" y1="113.46" x2="127.50" y2="111.46" stroke="#000000" stroke-width="0.25" fill="none" />
  <line x1="127.50" y1="121.46" x2="127.50" y2="123.46" stroke="#000000" stroke-width="0.25" fill="none" />
  <text x="119.00" y="116.06" font-family="Arial, Helvetica, sans-serif" font-size="2.0" fill="#000000">B10A</text>
  <text x="119.00" y="118.56" font-family="Arial, Helvetica, sans-serif" font-size="2.0" fill="#000000">SPN</text>
  <text x="119.00" y="121.06" font-family="Arial, Helvetica, sans-serif" font-size="2.0" fill="#000000">MCB</text>
  <text x="119.00" y="123.56" font-family="Arial, Helvetica, sans-serif" font-size="2.0" fill="#000000">6kA</text>
  <text x="127.50" y="88.70" font-family="Arial, Helvetica, sans-serif" font-size="2.8" fill="#000000" transform="rotate(-90.0,127.50,86.46)">1 no. Lights 1</text>
  <text x="162.00" y="131.72" font-family="Arial, Helvetica, sans-serif" font-size="2.2" fill="#000000" transform="rotate(-90.0,162.00,129.96)">L2S1</text>
  <circle cx="160.50" cy="119.16" r="0.35" stroke="#000000" stroke-width="0.25" fill="none" />
  <circle cx="160.50" cy="115.76" r="0.35" stroke="#000000" stroke-width="0.25" fill="none" />
  <path d="M 160.91,119.11 A 1.70,1.70 0 0,0 160.93,115.82" stroke="#000000" stroke-width="0.25" fill="none" />
  <line x1="160.50" y1="115.41" x2="160.50" y2="113.46" stroke="#000000" stroke-width="0.25" fill="none" />
  <line x1="160.50" y1="121.46" x2="160.50" y2="119.51" stroke="#000000" stroke-width="0.25" fill="none" />
  <line x1="160.50" y1="113.46" x2="160.50" y2="111.46" stroke="#000000" stroke-width="0.25" fill="none" />
  <line x1="160.50" y1="121.46" x2="160.50" y2="123.46" stroke="#000000" stroke-width="0.25" fill="none" />
  <line x1="129.20" y1="117.47" x2="162.20" y2="117.47" stroke="#000000" stroke-width="0.25" fill="none" />
  <line x1="162.20" y1="117.47" x2="160.99" y2="118.06" stroke="#000000" stroke-width="0.25" fill="none" />
  <line x1="162.20" y1="117.47" x2="161.01" y2="116.86" stroke="#000000" stroke-width="0.25" fill="none" />
  <text x="160.50" y="88.70" font-family="Arial, Helvetica, sans-serif" font-size="2.8" fill="#000000" transform="rotate(-90.0,160.50,86.46)">1 no. Lights 2</text>
  <text x="195.00" y="131.72" font-family="Arial, Helvetica, sans-serif" font-size="2.2" fill="#000000" transform="rotate(-90.0,195.00,129.96)">L3S1</text>
  <circle cx="193.50" cy="119.16" r="0.35" stroke="#000000" stroke-width="0.25" fill="none" />
  <circle cx="193.50" cy="115.76" r="0.35" stroke="#000000" stroke-width="0.25" fill="none" />
  <path d="M 193.91,119.11 A 1.70,1.70 0 0,0 193.93,115.82" stroke="#000000" stroke-width="0.25" fill="none" />
  <line x1="193.50" y1="115.41" x2="193.50" y2="113.46" stroke="#000000" stroke-width="0.25" fill="none" />
  <line x1="193.50" y1="121.46" x2="193.50" y2="119.51" stroke="#000000" stroke-width="0.25" fill="none" />
  <line x1="193.50" y1="113.46" x2="193.50" y2="111.46" stroke="#000000" stroke-width="0.25" fill="none" />
  <line x1="193.50" y1="121.46" x2="193.50" y2="123.46" stroke="#000000" stroke-width="0.25" fill="none" />
  <line x1="162.20" y1="117.47" x2="195.20" y2="117.47" stroke="#000000" stroke-width="0.25" fill="none" />
  <line x1="195.20" y1="117.47" x2="193.99" y2="118.06" stroke="#000000" stroke-width="0.25" fill="none" />
  <line x1="195.20" y1="117.47" x2="194.01" y2="116.86" stroke="#000000" stroke-width="0.25" fill="none" />
  <text x="193.50" y="88.70" font-family="Arial, Helvetica, sans-serif" font-size="2.8" fill="#000000" transform="rotate(-90.0,193.50,86.46)">1 no. Lights 3</text>
  <text x="234.00" y="131.72" font-family="Arial, Helvetica, sans-serif" font-size="2.2" fill="#000000" transform="rotate(-90.0,234.00,129.96)">L1P1</text>
  <circle cx="232.50" cy="119.16" r="0.35" stroke="#000000" stroke-width="0.25" fill="none" />
  <circle cx="232.50" cy="115.76" r="0.35" stroke="#000000" stroke-width="0.25" fill="none" />
  <path d="M 232.91,119.11 A 1.70,1.70 0 0,0 232.93,115.82" stroke="#000000" stroke-width="0.25" fill="none" />
  <line x1="228.20" y1="117.42" x2="234.20" y2="117.47" stroke="#000000" stroke-width="0.25" fill="none" />
  <line x1="234.20" y1="117.47" x2="232.99" y2="118.06" stroke="#000000" stroke-width="0.25" fill="none" />
  <line x1="234.20" y1="117.47" x2="233.01" y2="116.86" stroke="#000000" stroke-width="0.25" fill="none" />
  <line x1="232.50" y1="115.41" x2="232.50" y2="113.46" stroke="#000000" stroke-width="0.25" fill="none" />
  <line x1="232.50" y1="121.46" x2="232.50" y2="119.51" stroke="#000000" stroke-width="0.25" fill="none" />
  <line x1="232.50" y1="113.46" x2="232.50" y2="111.46" stroke="#000000" stroke-width="0.25" fill="none" />
  <line x1="232.50" y1="121.46" x2="232.50" y2="123.46" stroke="#000000" stroke-width="0.25" fill="none" />
  <text x="224.00" y="116.06" font-family="Arial, Helvetica, sans-serif" font-size="2.0" fill="#000000">B20A</text>
  <text x="224.00" y="118.56" font-family="Arial, Helvetica, sans-serif" font-size="2.0" fill="#000000">SPN</text>
  <text x="224.00" y="121.06" font-family="Arial, Helvetica, sans-serif" font-size="2.0" fill="#000000">MCB</text>
  <text x="224.00" y="123.56" font-family="Arial, Helvetica, sans-serif" font-size="2.0" fill="#000000">6kA</text>
  <text x="232.50" y="88.70" font-family="Arial, Helvetica, sans-serif" font-size="2.8" fill="#000000" transform="rotate(-90.0,232.50,86.46)">1 no. 13A S/S/O 1</text>
  <text x="267.00" y="131.72" font-family="Arial, Helvetica, sans-serif" font-size="2.2" fill="#000000" transform="rotate(-90.0,267.00,129.96)">L2P1</text>
  <circle cx="265.50" cy="119.16" r="0.35" stroke="#000000" stroke-width="0.25" fill="none" />
  <circle cx="265.50" cy="115.76" r="0.35" stroke="#000000" stroke-width="0.25" fill="none" />
  <path d="M 265.91,119.11 A 1.70,1.70 0 0,0 265.93,115.82" stroke="#000000" stroke-width="0.25" fill="none" />
  <line x1="265.50" y1="115.41" x2="265.50" y2="113.46" stroke="#000000" stroke-width="0.25" fill="none" />
  <line x1="265.50" y1="121.46" x2="265.50" y2="119.51" stroke="#000000" stroke-width="0.25" fill="none" />
  <line x1="265.50" y1="113.46" x2="265.50" y2="111.46" stroke="#000000" stroke-width="0.25" fill="none" />
  <line x1="265.50" y1="121.46" x2="265.50" y2="123.46" stroke="#000000" stroke-width="0.25" fill="none" />
  <line x1="234.20" y1="117.47" x2="267.20" y2="117.47" stroke="#000000" stroke-width="0.25" fill="none" />
  <line x1="267.20" y1="117.47" x2="265.99" y2="118.06" stroke="#000000" stroke-width="0.25" fill="none" />
  <line x1="267.20" y1="117.47" x2="266.01" y2="116.86" stroke="#000000" stroke-width="0.25" fill="none" />
  <text x="265.50" y="88.70" font-family="Arial, Helvetica, sans-serif" font-size="2.8" fill="#000000" transform="rotate(-90.0,265.50,86.46)">1 no. 13A S/S/O 2</text>
  <text x="300.00" y="131.72" font-family="Arial, Helvetica, sans-serif" font-size="2.2" fill="#000000" transform="rotate(-90.0,300.00,129.96)">L3P1</text>
  <circle cx="298.50" cy="119.16" r="0.35" stroke="#000000" stroke-width="0.25" fill="none" />
  <circle cx="298.50" cy="115.76" r="0.35" stroke="#000000" stroke-width="0.25" fill="none" />
  <path d="M 298.91,119.11 A 1.70,1.70 0 0,0 298.93,115.82" stroke="#000000" stroke-width="0.25" fill="none" />
  <line x1="298.50" y1="115.41" x2="298.50" y2="113.46" stroke="#000000" stroke-width="0.25" fill="none" />
  <line x1="298.50" y1="121.46" x2="298.50" y2="119.51" stroke="#000000" stroke-width="0.25" fill="none" />
  <line x1="298.50" y1="113.46" x2="298.50" y2="111.46" stroke="#000000" stroke-width="0.25" fill="none" />
  <line x1="298.50" y1="121.46" x2="298.50" y2="123.46" stroke="#000000" stroke-width="0.25" fill="none" />
  <line x1="267.20" y1="117.47" x2="300.20" y2="117.47" stroke="#000000" stroke-width="0.25" fill="none" />
  <line x1="300.20" y1="117.47" x2="298.99" y2="118.06" stroke="#000000" stroke-width="0.25" fill="none" />
  <line x1="300.20" y1="117.47" x2="299.01" y2="116.86" stroke="#000000" stroke-width="0.25" fill="none" />
  <text x="298.50" y="88.70" font-family="Arial, Helvetica, sans-serif" font-size="2.8" fill="#000000" transform="rotate(-90.0,298.50,86.46)">SPARE</text>
  <text x="114.50" y="90.26" font-family="Arial, Helvetica, sans-serif" font-size="2.8" fill="#000000" transform="rotate(-90.0,114.50,90.26)">2C 1.5sqmm PVC + 1.5sqmm</text>
  <text x="118.42" y="90.26" font-family="Arial, Helvetica, sans-serif" font-size="2.8" fill="#000000" transform="rotate(-90.0,118.42,90.26)">PVC CPC IN METAL TRUNKING</text>
  <text x="275.50" y="90.26" font-family="Arial, Helvetica, sans-serif" font-size="2.8" fill="#000000" transform="rotate(-90.0,275.50,90.26)">2C 2.5sqmm PVC + 2.5sqmm</text>
  <text x="279.42" y="90.26" font-family="Arial, Helvetica, sans-serif" font-size="2.8" fill="#000000" transform="rotate(-90.0,279.42,90.26)">PVC CPC IN METAL TRUNKING</text>
  <text x="110.00" y="148.86" font-family="Arial, Helvetica, sans-serif" font-size="3.0" fill="#000000">63A DB</text>
  <text x="110.00" y="151.90" font-family="Arial, Helvetica, sans-serif" font-size="1.8" fill="#000000">APPROVED LOAD: 45 kVA</text>
  <line x1="323.75" y1="153.96" x2="323.75" y2="155.76" stroke="#000000" stroke-width="0.25" fill="none" />
  <line x1="321.00" y1="155.76" x2="326.50" y2="155.76" stroke="#000000" stroke-width="0.25" fill="none" />
  <line x1="321.92" y1="156.88" x2="325.58" y2="156.88" stroke="#000000" stroke-width="0.25" fill="none" />
  <line x1="322.83" y1="158.01" x2="324.67" y2="158.01" stroke="#000000" stroke-width="0.25" fill="none" />
  <text x="329.50" y="155.49" font-family="Arial, Helvetica, sans-serif" font-size="1.6" fill="#000000">E</text>
  <line x1="210.00" y1="183.01" x2="214.00" y2="183.01" stroke="#000000" stroke-width="0.25" fill="none" />
  <line x1="225.00" y1="183.01" x2="242.50" y2="183.01" stroke="#000000" stroke-width="0.25" fill="none" />
  <line x1="254.30" y1="183.01" x2="263.50" y2="183.01" stroke="#000000" stroke-width="0.25" fill="none" />
  <line x1="275.50" y1="183.01" x2="295.50" y2="183.01" stroke="#000000" stroke-width="0.25" fill="none" />
  <line x1="284.00" y1="184.51" x2="287.00" y2="181.51" stroke="#000000" stroke-width="0.25" fill="none" />
  <line x1="285.50" y1="183.01" x2="285.50" y2="193.01" stroke="#000000" stroke-width="0.25" fill="none" />
  <line x1="285.50" y1="193.01" x2="288.50" y2="193.01" stroke="#000000" stroke-width="0.25" fill="none" />
  <line x1="210.00" y1="183.01" x2="210.00" y2="158.46" stroke="#000000" stroke-width="0.25" fill="none" />
  <line x1="210.00" y1="166.46" x2="207.00" y2="166.46" stroke="#000000" stroke-width="0.25" fill="none" />
  <line x1="279.50" y1="194.54" x2="283.50" y2="194.54" stroke="#000000" stroke-width="0.25" fill="none" />
  <line x1="283.50" y1="194.54" x2="283.50" y2="200.04" stroke="#000000" stroke-width="0.25" fill="none" />
  <line x1="210.00" y1="158.46" x2="210.00" y2="146.46" stroke="#000000" stroke-width="0.25" fill="none" />
  <line x1="210.00" y1="136.46" x2="210.00" y2="133.46" stroke="#000000" stroke-width="0.25" fill="none" />
  <line x1="127.50" y1="124.68" x2="127.50" y2="121.46" stroke="#000000" stroke-width="0.25" fill="none" />
  <line x1="127.50" y1="111.46" x2="127.50" y2="88.46" stroke="#000000" stroke-width="0.25" fill="none" />
  <line x1="160.50" y1="133.46" x2="160.50" y2="123.46" stroke="#000000" stroke-width="0.25" fill="none" />
  <line x1="160.50" y1="111.46" x2="160.50" y2="88.46" stroke="#000000" stroke-width="0.25" fill="none" />
  <line x1="193.50" y1="124.68" x2="193.50" y2="121.46" stroke="#000000" stroke-width="0.25" fill="none" />
  <line x1="193.50" y1="111.46" x2="193.50" y2="88.46" stroke="#000000" stroke-width="0.25" fill="none" />
  <line x1="232.50" y1="124.68" x2="232.50" y2="121.46" stroke="#000000" stroke-width="0.25" fill="none" />
  <line x1="232.50" y1="111.46" x2="232.50" y2="88.46" stroke="#000000" stroke-width="0.25" fill="none" />
  <line x1="265.50" y1="133.46" x2="265.50" y2="123.46" stroke="#000000" stroke-width="0.25" fill="none" />
  <line x1="265.50" y1="111.46" x2="265.50" y2="88.46" stroke="#000000" stroke-width="0.25" fill="none" />
  <line x1="298.50" y1="124.68" x2="298.50" y2="121.46" stroke="#000000" stroke-width="0.25" fill="none" />
  <line x1="298.50" y1="111.46" x2="298.50" y2="88.46" stroke="#000000" stroke-width="0.25" fill="none" />
  <line x1="117.50" y1="93.46" x2="193.50" y2="93.46" stroke="#000000" stroke-width="0.25" fill="none" />
  <line x1="117.50" y1="93.46" x2="117.50" y2="88.46" stroke="#000000" stroke-width="0.25" fill="none" />
  <line x1="232.50" y1="93.46" x2="275.50" y2="93.46" stroke="#000000" stroke-width="0.25" fill="none" />
  <line x1="275.50" y1="93.46" x2="275.50" y2="88.46" stroke="#000000" stroke-width="0.25" fill="none" />
  <line x1="316.00" y1="153.96" x2="323.75" y2="153.96" stroke="#000000" stroke-width="0.25" fill="none" />
  <line x1="208.75" y1="167.71" x2="211.25" y2="165.21" stroke="#000000" stroke-width="0.50" fill="none" />
  <line x1="126.25" y1="94.71" x2="128.75" y2="92.21" stroke="#000000" stroke-width="0.50" fill="none" />
  <line x1="159.25" y1="94.71" x2="161.75" y2="92.21" stroke="#000000" stroke-width="0.50" fill="none" />
  <line x1="192.25" y1="94.71" x2="194.75" y2="92.21" stroke="#000000" stroke-width="0.50" fill="none" />
  <line x1="231.25" y1="94.71" x2="233.75" y2="92.21" stroke="#000000" stroke-width="0.50" fill="none" />
  <line x1="264.25" y1="94.71" x2="266.75" y2="92.21" stroke="#000000" stroke-width="0.50" fill="none" />
  <line x1="160.50" y1="133.46" x2="127.50" y2="124.68" stroke="#000000" stroke-width="0.25" fill="none" />
  <line x1="160.50" y1="133.46" x2="193.50" y2="124.68" stroke="#000000" stroke-width="0.25" fill="none" />
  <line x1="265.50" y1="133.46" x2="232.50" y2="124.68" stroke="#000000" stroke-width="0.25" fill="none" />
  <line x1="265.50" y1="133.46" x2="298.50" y2="124.68" stroke="#000000" stroke-width="0.25" fill="none" />
  <line x1="212.00" y1="197.54" x2="220.00" y2="197.54" stroke="#000000" stroke-width="0.25" fill="none" />
  <line x1="222.00" y1="197.54" x2="223.50" y2="197.54" stroke="#000000" stroke-width="0.25" fill="none" />
  <line x1="225.50" y1="197.54" x2="233.50" y2="197.54" stroke="#000000" stroke-width="0.25" fill="none" />
  <line x1="235.50" y1="197.54" x2="237.00" y2="197.54" stroke="#000000" stroke-width="0.25" fill="none" />
  <line x1="239.00" y1="197.54" x2="247.00" y2="197.54" stroke="#000000" stroke-width="0.25" fill="none" />
  <line x1="249.00" y1="197.54" x2="250.50" y2="197.54" stroke="#000000" stroke-width="0.25" fill="none" />
  <line x1="252.50" y1="197.54" x2="260.50" y2="197.54" stroke="#000000" stroke-width="0.25" fill="none" />
  <line x1="262.50" y1="197.54" x2="264.00" y2="197.54" stroke="#000000" stroke-width="0.25" fill="none" />
  <line x1="266.00" y1="197.54" x2="274.00" y2="197.54" stroke="#000000" stroke-width="0.25" fill="none" />
  <line x1="276.00" y1="197.54" x2="277.50" y2="197.54" stroke="#000000" stroke-width="0.25" fill="none" />
  <line x1="212.00" y1="174.46" x2="220.00" y2="174.46" stroke="#000000" stroke-width="0.25" fill="none" />
  <line x1="222.00" y1="174.46" x2="223.50" y2="174.46" stroke="#000000" stroke-width="0.25" fill="none" />
  <line x1="225.50" y1="174.46" x2="233.50" y2="174.46" stroke="#000000" stroke-width="0.25" fill="none" />
  <line x1="235.50" y1="174.46" x2="237.00" y2="174.46" stroke="#000000" stroke-width="0.25" fill="none" />
  <line x1="239.00" y1="174.46" x2="247.00" y2="174.46" stroke="#000000" stroke-width="0.25" fill="none" />
  <line x1="249.00" y1="174.46" x2="250.50" y2="174.46" stroke="#000000" stroke-width="0.25" fill="none" />
  <line x1="252.50" y1="174.46" x2="260.50" y2="174.46" stroke="#000000" stroke-width="0.25" fill="none" />
  <line x1="262.50" y1="174.46" x2="264.00" y2="174.46" stroke="#000000" stroke-width="0.25" fill="none" />
  <line x1="266.00" y1="174.46" x2="274.00" y2="174.46" stroke="#000000" stroke-width="0.25" fill="none" />
  <line x1="276.00" y1="174.46" x2="277.50" y2="174.46" stroke="#000000" stroke-width="0.25" fill="none" />
  <line x1="212.00" y1="197.54" x2="212.00" y2="189.54" stroke="#000000" stroke-width="0.25" fill="none" />
  <line x1="212.00" y1="187.54" x2="212.00" y2="186.04" stroke="#000000" stroke-width="0.25" fill="none" />
  <line x1="212.00" y1="184.04" x2="212.00" y2="176.04" stroke="#000000" stroke-width="0.25" fill="none" />
  <line x1="279.50" y1="197.54" x2="279.50" y2="189.54" stroke="#000000" stroke-width="0.25" fill="none" />
  <line x1="279.50" y1="187.54" x2="279.50" y2="186.04" stroke="#000000" stroke-width="0.25" fill="none" />
  <line x1="279.50" y1="184.04" x2="279.50" y2="176.04" stroke="#000000" stroke-width="0.25" fill="none" />
  <line x1="104.00" y1="154.46" x2="112.00" y2="154.46" stroke="#000000" stroke-width="0.25" fill="none" />
  <line x1="114.00" y1="154.46" x2="115.50" y2="154.46" stroke="#000000" stroke-width="0.25" fill="none" />
  <line x1="117.50" y1="154.46" x2="125.50" y2="154.46" stroke="#000000" stroke-width="0.25" fill="none" />
  <line x1="127.50" y1="154.46" x2="129.00" y2="154.46" stroke="#000000" stroke-width="0.25" fill="none" />
  <line x1="131.00" y1="154.46" x2="139.00" y2="154.46" stroke="#000000" stroke-width="0.25" fill="none" />
  <line x1="141.00" y1="154.46" x2="142.50" y2="154.46" stroke="#000000" stroke-width="0.25" fill="none" />
  <line x1="144.50" y1="154.46" x2="152.50" y2="154.46" stroke="#000000" stroke-width="0.25" fill="none" />
  <line x1="154.50" y1="154.46" x2="156.00" y2="154.46" stroke="#000000" stroke-width="0.25" fill="none" />
  <line x1="158.00" y1="154.46" x2="166.00" y2="154.46" stroke="#000000" stroke-width="0.25" fill="none" />
  <line x1="168.00" y1="154.46" x2="169.50" y2="154.46" stroke="#000000" stroke-width="0.25" fill="none" />
  <line x1="171.50" y1="154.46" x2="179.50" y2="154.46" stroke="#000000" stroke-width="0.25" fill="none" />
  <line x1="181.50" y1="154.46" x2="183.00" y2="154.46" stroke="#000000" stroke-width="0.25" fill="none" />
  <line x1="185.00" y1="154.46" x2="193.00" y2="154.46" stroke="#000000" stroke-width="0.25" fill="none" />
  <line x1="195.00" y1="154.46" x2="196.50" y2="154.46" stroke="#000000" stroke-width="0.25" fill="none" />
  <line x1="198.50" y1="154.46" x2="206.50" y2="154.46" stroke="#000000" stroke-width="0.25" fill="none" />
  <line x1="208.50" y1="154.46" x2="210.00" y2="154.46" stroke="#000000" stroke-width="0.25" fill="none" />
  <line x1="212.00" y1="154.46" x2="220.00" y2="154.46" stroke="#000000" stroke-width="0.25" fill="none" />
  <line x1="222.00" y1="154.46" x2="223.50" y2="154.46" stroke="#000000" stroke-width="0.25" fill="none" />
  <line x1="225.50" y1="154.46" x2="233.50" y2="154.46" stroke="#000000" stroke-width="0.25" fill="none" />
  <line x1="235.50" y1="154.46" x2="237.00" y2="154.46" stroke="#000000" stroke-width="0.25" fill="none" />
  <line x1="239.00" y1="154.46" x2="247.00" y2="154.46" stroke="#000000" stroke-width="0.25" fill="none" />
  <line x1="249.00" y1="154.46" x2="250.50" y2="154.46" stroke="#000000" stroke-width="0.25" fill="none" />
  <line x1="252.50" y1="154.46" x2="260.50" y2="154.46" stroke="#000000" stroke-width="0.25" fill="none" />
  <line x1="262.50" y1="154.46" x2="264.00" y2="154.46" stroke="#000000" stroke-width="0.25" fill="none" />
  <line x1="266.00" y1="154.46" x2="274.00" y2="154.46" stroke="#000000" stroke-width="0.25" fill="none" />
  <line x1="276.00" y1="154.46" x2="277.50" y2="154.46" stroke="#000000" stroke-width="0.25" fill="none" />
  <line x1="279.50" y1="154.46" x2="287.50" y2="154.46" stroke="#000000" stroke-width="0.25" fill="none" />
  <line x1="289.50" y1="154.46" x2="291.00" y2="154.46" stroke="#000000" stroke-width="0.25" fill="none" />
  <line x1="293.00" y1="154.46" x2="301.00" y2="154.46" stroke="#000000" stroke-width="0.25" fill="none" />
  <line x1="303.00" y1="154.46" x2="304.50" y2="154.46" stroke="#000000" stroke-width="0.25" fill="none" />
  <line x1="306.50" y1="154.46" x2="314.50" y2="154.46" stroke="#000000" stroke-width="0.25" fill="none" />
  <line x1="104.00" y1="103.46" x2="112.00" y2="103.46" stroke="#000000" stroke-width="0.25" fill="none" />
  <line x1="114.00" y1="103.46" x2="115.50" y2="103.46" stroke="#000000" stroke-width="0.25" fill="none" />
  <line x1="117.50" y1="103.46" x2="125.50" y2="103.46" stroke="#000000" stroke-width="0.25" fill="none" />
  <line x1="127.50" y1="103.46" x2="129.00" y2="103.46" stroke="#000000" stroke-width="0.25" fill="none" />
  <line x1="131.00" y1="103.46" x2="139.00" y2="103.46" stroke="#000000" stroke-width="0.25" fill="none" />
  <line x1="141.00" y1="103.46" x2="142.50" y2="103.46" stroke="#000000" stroke-width="0.25" fill="none" />
  <line x1="144.50" y1="103.46" x2="152.50" y2="103.46" stroke="#000000" stroke-width="0.25" fill="none" />
  <line x1="154.50" y1="103.46" x2="156.00" y2="103.46" stroke="#000000" stroke-width="0.25" fill="none" />
  <line x1="158.00" y1="103.46" x2="166.00" y2="103.46" stroke="#000000" stroke-width="0.25" fill="none" />
  <line x1="168.00" y1="103.46" x2="169.50" y2="103.46" stroke="#000000" stroke-width="0.25" fill="none" />
  <line x1="171.50" y1="103.46" x2="179.50" y2="103.46" stroke="#000000" stroke-width="0.25" fill="none" />
  <line x1="181.50" y1="103.46" x2="183.00" y2="103.46" stroke="#000000" stroke-width="0.25" fill="none" />
  <line x1="185.00" y1="103.46" x2="193.00" y2="103.46" stroke="#000000" stroke-width="0.25" fill="none" />
  <line x1="195.00" y1="103.46" x2="196.50" y2="103.46" stroke="#000000" stroke-width="0.25" fill="none" />
  <line x1="198.50" y1="103.46" x2="206.50" y2="103.46" stroke="#000000" stroke-width="0.25" fill="none" />
  <line x1="208.50" y1="103.46" x2="210.00" y2="103.46" stroke="#000000" stroke-width="0.25" fill="none" />
  <line x1="212.00" y1="103.46" x2="220.00" y2="103.46" stroke="#000000" stroke-width="0.25" fill="none" />
  <line x1="222.00" y1="103.46" x2="223.50" y2="103.46" stroke="#000000" stroke-width="0.25" fill="none" />
  <line x1="225.50" y1="103.46" x2="233.50" y2="103.46" stroke="#000000" stroke-width="0.25" fill="none" />
  <line x1="235.50" y1="103.46" x2="237.00" y2="103.46" stroke="#000000" stroke-width="0.25" fill="none" />
  <line x1="239.00" y1="103.46" x2="247.00" y2="103.46" stroke="#000000" stroke-width="0.25" fill="none" />
  <line x1="249.00" y1="103.46" x2="250.50" y2="103.46" stroke="#000000" stroke-width="0.25" fill="none" />
  <line x1="252.50" y1="103.46" x2="260.50" y2="103.46" stroke="#000000" stroke-width="0.25" fill="none" />
  <line x1="262.50" y1="103.46" x2="264.00" y2="103.46" stroke="#000000" stroke-width="0.25" fill="none" />
  <line x1="266.00" y1="103.46" x2="274.00" y2="103.46" stroke="#000000" stroke-width="0.25" fill="none" />
  <line x1="276.00" y1="103.46" x2="277.50" y2="103.46" stroke="#000000" stroke-width="0.25" fill="none" />
  <line x1="279.50" y1="103.46" x2="287.50" y2="103.46" stroke="#000000" stroke-width="0.25" fill="none" />
  <line x1="289.50" y1="103.46" x2="291.00" y2="103.46" stroke="#000000" stroke-width="0.25" fill="none" />
  <line x1="293.00" y1="103.46" x2="301.00" y2="103.46" stroke="#000000" stroke-width="0.25" fill="none" />
  <line x1="303.00" y1="103.46" x2="304.50" y2="103.46" stroke="#000000" stroke-width="0.25" fill="none" />
  <line x1="306.50" y1="103.46" x2="314.50" y2="103.46" stroke="#000000" stroke-width="0.25" fill="none" />
  <line x1="104.00" y1="154.46" x2="104.00" y2="146.46" stroke="#000000" stroke-width="0.25" fill="none" />
  <line x1="104.00" y1="144.46" x2="104.00" y2="142.96" stroke="#000000" stroke-width="0.25" fill="none" />
  <line x1="104.00" y1="140.96" x2="104.00" y2="132.96" stroke="#000000" stroke-width="0.25" fill="none" />
  <line x1="104.00" y1="130.96" x2="104.00" y2="129.46" stroke="#000000" stroke-width="0.25" fill="none" />
  <line x1="104.00" y1="127.46" x2="104.00" y2="119.46" stroke="#000000" stroke-width="0.25" fill="none" />
  <line x1="104.00" y1="117.46" x2="104.00" y2="115.96" stroke="#000000" stroke-width="0.25" fill="none" />
  <line x1="104.00" y1="113.96" x2="104.00" y2="105.96" stroke="#000000" stroke-width="0.25" fill="none" />
  <line x1="104.00" y1="103.96" x2="104.00" y2="103.46" stroke="#000000" stroke-width="0.25" fill="none" />
  <line x1="316.00" y1="154.46" x2="316.00" y2="146.46" stroke="#000000" stroke-width="0.25" fill="none" />
  <line x1="316.00" y1="144.46" x2="316.00" y2="142.96" stroke="#000000" stroke-width="0.25" fill="none" />
  <line x1="316.00" y1="140.96" x2="316.00" y2="132.96" stroke="#000000" stroke-width="0.25" fill="none" />
  <line x1="316.00" y1="130.96" x2="316.00" y2="129.46" stroke="#000000" stroke-width="0.25" fill="none" />
  <line x1="316.00" y1="127.46" x2="316.00" y2="119.46" stroke="#000000" stroke-width="0.25" fill="none" />
  <line x1="316.00" y1="117.46" x2="316.00" y2="115.96" stroke="#000000" stroke-width="0.25" fill="none" />
  <line x1="316.00" y1="113.96" x2="316.00" y2="105.96" stroke="#000000" stroke-width="0.25" fill="none" />
  <line x1="316.00" y1="103.96" x2="316.00" y2="103.46" stroke="#000000" stroke-width="0.25" fill="none" />
  <circle cx="279.50" cy="194.54" r="0.50" fill="rgb(0,0,0)" stroke="none" />
  <circle cx="160.50" cy="133.46" r="0.50" fill="rgb(0,0,0)" stroke="none" />
  <circle cx="160.50" cy="133.46" r="0.50" fill="rgb(0,0,0)" stroke="none" />
  <circle cx="160.50" cy="133.46" r="0.50" fill="rgb(0,0,0)" stroke="none" />
  <circle cx="265.50" cy="133.46" r="0.50" fill="rgb(0,0,0)" stroke="none" />
  <circle cx="265.50" cy="133.46" r="0.50" fill="rgb(0,0,0)" stroke="none" />
  <circle cx="265.50" cy="133.46" r="0.50" fill="rgb(0,0,0)" stroke="none" />
  <circle cx="316.00" cy="153.96" r="0.50" fill="rgb(0,0,0)" stroke="none" />
  <text x="13.00" y="264.40" font-family="Arial, Helvetica, sans-serif" font-size="3.0" fill="#000000">Electrical Installation</text>
  <text x="153.00" y="264.40" font-family="Arial, Helvetica, sans-serif" font-size="3.0" fill="#000000">LicenseKaki</text>
  <text x="225.00" y="263.80" font-family="Arial, Helvetica, sans-serif" font-size="3.5" fill="#000000"><tspan x="225.00">SINGLE LINE DIAGRAM</tspan><tspan x="225.00" dy="4.9">(SLD)</tspan></text>
  <text x="389.00" y="266.00" font-family="Arial, Helvetica, sans-serif" font-size="2.5" fill="#000000">DATE</text>
  <text x="365.00" y="278.00" font-family="Arial, Helvetica, sans-serif" font-size="2.5" fill="#000000"></text>
  <text x="394.00" y="278.80" font-family="Arial, Helvetica, sans-serif" font-size="3.5" fill="#000000">0</text>
  <text x="365.00" y="286.28" font-family="Arial, Helvetica, sans-serif" font-size="1.6" fill="#000000">SCALE : NTS</text>
  <text x="389.00" y="286.28" font-family="Arial, Helvetica, sans-serif" font-size="1.6" fill="#000000">SHEET : 1 OF 1</text>
</svg>