<svg xmlns="http://www.w3.org/2000/svg" viewBox="0 0 420.0 297.0" width="420.0mm" height="297.0mm">
  <rect width="420.0" height="297.0" fill="white" />
  <polygon points="10.00,287.00 410.00,287.00 410.00,10.00 10.00,10.00" stroke="#000000" stroke-width="0.25" fill="none" />
  <polygon points="10.00,287.00 410.00,287.00 410.00,255.00 10.00,255.00" stroke="#000000" stroke-width="0.25" fill="none" />
  <line x1="90.00" y1="255.00" x2="90.00" y2="287.00" stroke="#000000" stroke-width="0.25" fill="none" />
  <line x1="150.00" y1="255.00" x2="150.00" y2="287.00" stroke="#000000" stroke-width="0.25" fill="none" />
  <line x1="222.00" y1="255.00" x2="222.00" y2="287.00" stroke="#000000" stroke-width="0.25" fill="none" />
  <line x1="290.00" y1="255.00" x2="290.00" y2="287.00" stroke="#000000" stroke-width="0.25" fill="none" />
  <line x1="362.00" y1="255.00" x2="362.00" y2="287.00" stroke="#000000" stroke-width="0.25" fill="none" />
  <line x1="362.00" y1="270.00" x2="410.00" y2="270.00" stroke="#000000" stroke-width="0.25" fill="none" />
  <line x1="386.00" y1="255.00" x2="386.00" y2="287.00" stroke="#000000" stroke-width="0.25" fill="none" />
  <text x="12.00" y="258.94" font-family="Arial, Helvetica, sans-serif" font-size="1.8" fill="#000000">CLIENT / ADDRESS :</text>
  <text x="92.00" y="258.94" font-family="Arial, Helvetica, sans-serif" font-size="1.8" fill="#000000">MAIN CONTRACTOR :</text>
  <text x="152.00" y="258.94" font-family="Arial, Helvetica, sans-serif" font-size="1.8" fill="#000000">ELECTRICAL CONTRACTOR :</text>
  <text x="224.00" y="258.94" font-family="Arial, Helvetica, sans-serif" font-size="1.8" fill="#000000">DRAWING TITLE :</text>
  <text x="292.00" y="258.94" font-family="Arial, Helvetica, sans-serif" font-size="1.8" fill="#000000">LEW :</text>
  <text x="364.00" y="258.94" font-family="Arial, Helvetica, sans-serif" font-size="1.8" fill="#000000">CHECKED :</text>
  <text x="388.00" y="258.94" font-family="Arial, Helvetica, sans-serif" font-size="1.8" fill="#000000">DATE :</text>
  <text x="364.00" y="273.94" font-family="Arial, Helvetica, sans-serif" font-size="1.8" fill="#000000">DRAWING NO. :</text>
  <text x="388.00" y="273.94" font-family="Arial, Helvetica, sans-serif" font-size="1.8" fill="#000000">REV :</text>
  <circle cx="217.50" cy="185.71" r="0.40" stroke="#000000" stroke-width="0.25" fill="none" />
  <line x1="217.90" y1="185.71" x2="221.50" y2="183.71" stroke="#000000" stroke-width="0.25" fill="none" />
  <circle cx="221.50" cy="185.71" r="0.40" stroke="#000000" stroke-width="0.25" fill="none" />
  <line x1="221.90" y1="185.71" x2="223.00" y2="185.71" stroke="#000000" stroke-width="0.25" fill="none" />
  <line x1="216.00" y1="185.71" x2="217.10" y2="185.71" stroke="#000000" stroke-width="0.25" fill="none" />
  <line x1="223.00" y1="185.71" x2="225.00" y2="185.71" stroke="#000000" stroke-width="0.25" fill="none" />
  <line x1="216.00" y1="185.71" x2="214.00" y2="185.71" stroke="#000000" stroke-width="0.25" fill="none" />
  <text x="215.66" y="190.54" font-family="Arial, Helvetica, sans-serif" font-size="1.6" fill="#000000"><tspan x="215.66">63A 4P</tspan><tspan x="215.66" dy="2.2">ISOLATOR</tspan></text>
  <polygon points="244.50,187.66 252.30,187.66 252.30,183.76 244.50,183.76" stroke="#000000" stroke-width="0.25" fill="none" />
  <text x="245.67" y="186.19" font-family="Arial, Helvetica, sans-serif" font-size="1.6" fill="#000000">KWH</text>
  <line x1="252.30" y1="185.71" x2="254.30" y2="185.71" stroke="#000000" stroke-width="0.25" fill="none" />
  <line x1="244.50" y1="185.71" x2="242.50" y2="185.71" stroke="#000000" stroke-width="0.25" fill="none" />
  <text x="234.50" y="180.90" font-family="Arial, Helvetica, sans-serif" font-size="2.8" fill="#000000">KWH METER BY SP</text>
  <circle cx="267.80" cy="185.71" r="0.35" stroke="#000000" stroke-width="0.25" fill="none" />
  <circle cx="271.20" cy="185.71" r="0.35" stroke="#000000" stroke-width="0.25" fill="none" />
  <path d="M 271.15,185.30 A 1.70,1.70 0 0,0 267.86,185.28" stroke="#000000" stroke-width="0.25" fill="none" />
  <line x1="271.55" y1="185.71" x2="273.50" y2="185.71" stroke="#000000" stroke-width="0.25" fill="none" />
  <line x1="265.50" y1="185.71" x2="267.45" y2="185.71" stroke="#000000" stroke-width="0.25" fill="none" />
  <line x1="273.50" y1="185.71" x2="275.50" y2="185.71" stroke="#000000" stroke-width="0.25" fill="none" />
  <line x1="265.50" y1="185.71" x2="263.50" y2="185.71" stroke="#000000" stroke-width="0.25" fill="none" />
  <text x="264.22" y="190.29" font-family="Arial, Helvetica, sans-serif" font-size="1.6" fill="#000000"><tspan x="264.22">63A TPN MCB</tspan><tspan x="264.22" dy="2.2">TYPE B 25kA</tspan></text>
  <text x="298.50" y="184.95" font-family="Arial, Helvetica, sans-serif" font-size="2.8" fill="#000000">INCOMING FROM HDB ELECTRICAL RISER</text>
  <text x="289.50" y="196.55" font-family="Arial, Helvetica, sans-serif" font-size="2.8" fill="#000000"><tspan x="289.50">4 x 1C 16sqmm PVC/PVC +</tspan><tspan x="289.50" dy="3.9">16sqmm PVC CPC IN METAL TRUNKING</tspan></text>
  <text x="150.24" y="170.00" font-family="Arial, Helvetica, sans-serif" font-size="2.8" fill="#000000"><tspan x="150.24">4 x 1C 16sqmm PVC/PVC +</tspan><tspan x="150.24" dy="3.9">16sqmm PVC CPC IN METAL TRUNKING</tspan></text>
  <text x="213.00" y="198.68" font-family="Arial, Helvetica, sans-serif" font-size="2.8" fill="#000000">METER BOARD</text>
  <text x="227.75" y="205.48" font-family="Arial, Helvetica, sans-serif" font-size="2.8" fill="#000000">LOCATED AT METER COMPARTMENT</text>
  <line x1="283.50" y1="202.74" x2="283.50" y2="204.54" stroke="#000000" stroke-width="0.25" fill="none" />
  <line x1="280.75" y1="204.54" x2="286.25" y2="204.54" stroke="#000000" stroke-width="0.25" fill="none" />
  <line x1="281.67" y1="205.67" x2="285.33" y2="205.67" stroke="#000000" stroke-width="0.25" fill="none" />
  <line x1="282.58" y1="206.79" x2="284.42" y2="206.79" stroke="#000000" stroke-width="0.25" fill="none" />
  <text x="289.25" y="204.27" font-family="Arial, Helvetica, sans-serif" font-size="1.6" fill="#000000">E</text>
  <circle cx="210.00" cy="144.66" r="0.35" stroke="#000000" stroke-width="0.25" fill="none" />
  <circle cx="210.00" cy="140.66" r="0.35" stroke="#000000" stroke-width="0.25" fill="none" />
  <path d="M 210.91,144.44 A 2.00,2.00 0 0,0 210.91,140.88" stroke="#000000" stroke-width="0.25" fill="none" />
  <line x1="210.00" y1="140.31" x2="210.00" y2="138.16" stroke="#000000" stroke-width="0.25" fill="none" />
  <line x1="210.00" y1="147.16" x2="210.00" y2="145.01" stroke="#000000" stroke-width="0.25" fill="none" />
  <line x1="210.00" y1="138.16" x2="210.00" y2="136.16" stroke="#000000" stroke-width="0.25" fill="none" />
  <line x1="210.00" y1="147.16" x2="210.00" y2="149.16" stroke="#000000" stroke-width="0.25" fill="none" />
  <text x="215.75" y="141.94" font-family="Arial, Helvetica, sans-serif" font-size="1.6" fill="#000000">63A TPN MCCB (25KA)</text>
  <line x1="64.50" y1="136.16" x2="355.50" y2="136.16" stroke="#000000" stroke-width="0.50" fill="none" />
  <text x="67.50" y="141.40" font-family="Arial, Helvetica, sans-serif" font-size="2.8" fill="#000000">200A COMB BAR</text>
  <text x="79.50" y="134.42" font-family="Arial, Helvetica, sans-serif" font-size="2.2" fill="#000000" transform="rotate(-90.0,79.50,132.66)">L1S1</text>
  <circle cx="78.00" cy="121.86" r="0.35" stroke="#000000" stroke-width="0.25" fill="none" />
  <circle cx="78.00" cy="118.46" r="0.35" stroke="#000000" stroke-width="0.25" fill="none" />
  <path d="M 78.41,121.81 A 1.70,1.70 0 0,0 78.43,118.52" stroke="#000000" stroke-width="0.25" fill="none" />
  <line x1="73.70" y1="120.12" x2="79.70" y2="120.17" stroke="#000000" stroke-width="0.25" fill="none" />
  <line x1="79.70" y1="120.17" x2="78.49" y2="120.76" stroke="#000000" stroke-width="0.25" fill="none" />
  <line x1="79.70" y1="120.17" x2="78.51" y2="119.56" stroke="#000000" stroke-width="0.25" fill="none" />
  <line x1="78.00" y1="118.11" x2="78.00" y2="116.16" stroke="#000000" stroke-width="0.25" fill="none" />
  <line x1="78.00" y1="124.16" x2="78.00" y2="122.21" stroke="#000000" stroke-width="0.25" fill="none" />
  <line x1="78.00" y1="116.16" x2="78.00" y2="114.16" stroke="#000000" stroke-width="0.25" fill="none" />
  <line x1="78.00" y1="124.16" x2="78.00" y2="126.16" stroke="#000000" stroke-width="0.25" fill="none" />
  <text x="69.50" y="118.76" font-family="Arial, Helvetica, sans-serif" font-size="2.0" fill="#000000">B10A</text>
  <text x="69.50" y="121.26" font-family="Arial, Helvetica, sans-serif" font-size="2.0" fill="#000000">SPN</text>
  <text x="69.50" y="123.76" font-family="Arial, Helvetica, sans-serif" font-size="2.0" fill="#000000">MCB</text>
  <text x="69.50" y="126.26" font-family="Arial, Helvetica, sans-serif" font-size="2.0" fill="#000000">6kA</text>
  <text x="78.00" y="91.40" font-family="Arial, Helvetica, sans-serif" font-size="2.8" fill="#000000" transform="rotate(-90.0,78.00,89.16)">1 no. Lighting</text>
  <text x="112.50" y="134.42" font-family="Arial, Helvetica, sans-serif" font-size="2.2" fill="#000000" transform="rotate(-90.0,112.50,132.66)">L2S1</text>
  <circle cx="111.00" cy="121.86" r="0.35" stroke="#000000" stroke-width="0.25" fill="none" />
  <circle cx="111.00" cy="118.46" r="0.35" stroke="#000000" stroke-width="0.25" fill="none" />
  <path d="M 111.41,121.81 A 1.70,1.70 0 0,0 111.43,118.52" stroke="#000000" stroke-width="0.25" fill="none" />
  <line x1="111.00" y1="118.11" x2="111.00" y2="116.16" stroke="#000000" stroke-width="0.25" fill="none" />
  <line x1="111.00" y1="124.16" x2="111.00" y2="122.21" stroke="#000000" stroke-width="0.25" fill="none" />
  <line x1="111.00" y1="116.16" x2="111.00" y2="114.16" stroke="#000000" stroke-width="0.25" fill="none" />
  <line x1="111.00" y1="124.16" x2="111.00" y2="126.16" stroke="#000000" stroke-width="0.25" fill="none" />
  <line x1="79.70" y1="120.17" x2="112.70" y2="120.17" stroke="#000000" stroke-width="0.25" fill="none" />
  <line x1="112.70" y1="120.17" x2="111.49" y2="120.76" stroke="#000000" stroke-width="0.25" fill="none" />
  <line x1="112.70" y1="120.17" x2="111.51" y2="119.56" stroke="#000000" stroke-width="0.25" fill="none" />
  <text x="111.00" y="91.40" font-family="Arial, Helvetica, sans-serif" font-size="2.8" fill="#000000" transform="rotate(-90.0,111.00,89.16)">1 no. Lighting</text>
  <text x="145.50" y="134.42" font-family="Arial, Helvetica, sans-serif" font-size="2.2" fill="#000000" transform="rotate(-90.0,145.50,132.66)">L3S1</text>
  <circle cx="144.00" cy="121.86" r="0.35" stroke="#000000" stroke-width="0.25" fill="none" />
  <circle cx="144.00" cy="118.46" r="0.35" stroke="#000000" stroke-width="0.25" fill="none" />
  <path d="M 144.41,121.81 A 1.70,1.70 0 0,0 144.43,118.52" stroke="#000000" stroke-width="0.25" fill="none" />
  <line x1="144.00" y1="118.11" x2="144.00" y2="116.16" stroke="#000000" stroke-width="0.25" fill="none" />
  <line x1="144.00" y1="124.16" x2="144.00" y2="122.21" stroke="#000000" stroke-width="0.25" fill="none" />
  <line x1="144.00" y1="116.16" x2="144.00" y2="114.16" stroke="#000000" stroke-width="0.25" fill="none" />
  <line x1="144.00" y1="124.16" x2="144.00" y2="126.16" stroke="#000000" stroke-width="0.25" fill="none" />
  <line x1="112.70" y1="120.17" x2="145.70" y2="120.17" stroke="#000000" stroke-width="0.25" fill="none" />
  <line x1="145.70" y1="120.17" x2="144.49" y2="120.76" stroke="#000000" stroke-width="0.25" fill="none" />
  <line x1="145.70" y1="120.17" x2="144.51" y2="119.56" stroke="#000000" stroke-width="0.25" fill="none" />
  <text x="144.00" y="91.40" font-family="Arial, Helvetica, sans-serif" font-size="2.8" fill="#000000" transform="rotate(-90.0,144.00,89.16)">1 no. Lighting</text>
  <text x="184.50" y="134.42" font-family="Arial, Helvetica, sans-serif" font-size="2.2" fill="#000000" transform="rotate(-90.0,184.50,132.66)">L1P1</text>
  <circle cx="183.00" cy="121.86" r="0.35" stroke="#000000" stroke-width="0.25" fill="none" />
  <circle cx="183.00" cy="118.46" r="0.35" stroke="#000000" stroke-width="0.25" fill="none" />
  <path d="M 183.41,121.81 A 1.70,1.70 0 0,0 183.43,118.52" stroke="#000000" stroke-width="0.25" fill="none" />
  <line x1="178.70" y1="120.12" x2="184.70" y2="120.17" stroke="#000000" stroke-width="0.25" fill="none" />
  <line x1="184.70" y1="120.17" x2="183.49" y2="120.76" stroke="#000000" stroke-width="0.25" fill="none" />
  <line x1="184.70" y1="120.17" x2="183.51" y2="119.56" stroke="#000000" stroke-width="0.25" fill="none" />
  <line x1="183.00" y1="118.11" x2="183.00" y2="116.16" stroke="#000000" stroke-width="0.25" fill="none" />
  <line x1="183.00" y1="124.16" x2="183.00" y2="122.21" stroke="#000000" stroke-width="0.25" fill="none" />
  <line x1="183.00" y1="116.16" x2="183.00" y2="114.16" stroke="#000000" stroke-width="0.25" fill="none" />
  <line x1="183.00" y1="124.16" x2="183.00" y2="126.16" stroke="#000000" stroke-width="0.25" fill="none" />
  <text x="174.50" y="118.76" font-family="Arial, Helvetica, sans-serif" font-size="2.0" fill="#000000">B20A</text>
  <text x="174.50" y="121.26" font-family="Arial, Helvetica, sans-serif" font-size="2.0" fill="#000000">SPN</text>
  <text x="174.50" y="123.76" font-family="Arial, Helvetica, sans-serif" font-size="2.0" fill="#000000">MCB</text>
  <text x="174.50" y="126.26" font-family="Arial, Helvetica, sans-serif" font-size="2.0" fill="#000000">6kA</text>
  <text x="183.00" y="91.40" font-family="Arial, Helvetica, sans-serif" font-size="2.8" fill="#000000" transform="rotate(-90.0,183.00,89.16)">1 no. 13A S/S/O</text>
  <text x="217.50" y="134.42" font-family="Arial, Helvetica, sans-serif" font-size="2.2" fill="#000000" transform="rotate(-90.0,217.50,132.66)">L2P1</text>
  <circle cx="216.00" cy="121.86" r="0.35" stroke="#000000" stroke-width="0.25" fill="none" />
  <circle cx="216.00" cy="118.46" r="0.35" stroke="#000000" stroke-width="0.25" fill="none" />
  <path d="M 216.41,121.81 A 1.70,1.70 0 0,0 216.43,118.52" stroke="#000000" stroke-width="0.25" fill="none" />
  <line x1="216.00" y1="118.11" x2="216.00" y2="116.16" stroke="#000000" stroke-width="0.25" fill="none" />
  <line x1="216.00" y1="124.16" x2="216.00" y2="122.21" stroke="#000000" stroke-width="0.25" fill="none" />
  <line x1="216.00" y1="116.16" x2="216.00" y2="114.16" stroke="#000000" stroke-width="0.25" fill="none" />
  <line x1="216.00" y1="124.16" x2="216.00" y2="126.16" stroke="#000000" stroke-width="0.25" fill="none" />
  <line x1="184.70" y1="120.17" x2="217.70" y2="120.17" stroke="#000000" stroke-width="0.25" fill="none" />
  <line x1="217.70" y1="120.17" x2="216.49" y2="120.76" stroke="#000000" stroke-width="0.25" fill="none" />
  <line x1="217.70" y1="120.17" x2="216.51" y2="119.56" stroke="#000000" stroke-width="0.25" fill="none" />
  <text x="216.00" y="91.40" font-family="Arial, Helvetica, sans-serif" font-size="2.8" fill="#000000" transform="rotate(-90.0,216.00,89.16)">1 no. 13A S/S/O</text>
  <text x="250.50" y="134.42" font-family="Arial, Helvetica, sans-serif" font-size="2.2" fill="#000000" transform="rotate(-90.0,250.50,132.66)">L3P1</text>
  <circle cx="249.00" cy="121.86" r="0.35" stroke="#000000" stroke-width="0.25" fill="none" />
  <circle cx="249.00" cy="118.46" r="0.35" stroke="#000000" stroke-width="0.25" fill="none" />
  <path d="M 249.41,121.81 A 1.70,1.70 0 0,0 249.43,118.52" stroke="#000000" stroke-width="0.25" fill="none" />
  <line x1="249.00" y1="118.11" x2="249.00" y2="116.16" stroke="#000000" stroke-width="0.25" fill="none" />
  <line x1="249.00" y1="124.16" x2="249.00" y2="122.21" stroke="#000000" stroke-width="0.25" fill="none" />
  <line x1="249.00" y1="116.16" x2="249.00" y2="114.16" stroke="#000000" stroke-width="0.25" fill="none" />
  <line x1="249.00" y1="124.16" x2="249.00" y2="126.16" stroke="#000000" stroke-width="0.25" fill="none" />
  <line x1="217.70" y1="120.17" x2="250.70" y2="120.17" stroke="#000000" stroke-width="0.25" fill="none" />
  <line x1="250.70" y1="120.17" x2="249.49" y2="120.76" stroke="#000000" stroke-width="0.25" fill="none" />
  <line x1="250.70" y1="120.17" x2="249.51" y2="119.56" stroke="#000000" stroke-width="0.25" fill="none" />
  <text x="249.00" y="91.40" font-family="Arial, Helvetica, sans-serif" font-size="2.8" fill="#000000" transform="rotate(-90.0,249.00,89.16)">1 no. 13A S/S/O</text>
  <text x="283.50" y="134.42" font-family="Arial, Helvetica, sans-serif" font-size="2.2" fill="#000000" transform="rotate(-90.0,283.50,132.66)">H4</text>
  <circle cx="282.00" cy="121.86" r="0.35" stroke="#000000" stroke-width="0.25" fill="none" />
  <circle cx="282.00" cy="118.46" r="0.35" stroke="#000000" stroke-width="0.25" fill="none" />
  <path d="M 282.41,121.81 A 1.70,1.70 0 0,0 282.43,118.52" stroke="#000000" stroke-width="0.25" fill="none" />
  <line x1="277.70" y1="120.12" x2="283.70" y2="120.17" stroke="#000000" stroke-width="0.25" fill="none" />
  <line x1="283.70" y1="120.17" x2="282.49" y2="120.76" stroke="#000000" stroke-width="0.25" fill="none" />
  <line x1="283.70" y1="120.17" x2="282.51" y2="119.56" stroke="#000000" stroke-width="0.25" fill="none" />
  <line x1="282.00" y1="118.11" x2="282.00" y2="116.16" stroke="#000000" stroke-width="0.25" fill="none" />
  <line x1="282.00" y1="124.16" x2="282.00" y2="122.21" stroke="#000000" stroke-width="0.25" fill="none" />
  <line x1="282.00" y1="116.16" x2="282.00" y2="114.16" stroke="#000000" stroke-width="0.25" fill="none" />
  <line x1="282.00" y1="124.16" x2="282.00" y2="126.16" stroke="#000000" stroke-width="0.25" fill="none" />
  <text x="273.50" y="118.76" font-family="Arial, Helvetica, sans-serif" font-size="2.0" fill="#000000">B32A</text>
  <text x="273.50" y="121.26" font-family="Arial, Helvetica, sans-serif" font-size="2.0" fill="#000000">SPN</text>
  <text x="273.50" y="123.76" font-family="Arial, Helvetica, sans-serif" font-size="2.0" fill="#000000">MCB</text>
  <text x="273.50" y="126.26" font-family="Arial, Helvetica, sans-serif" font-size="2.0" fill="#000000">6kA</text>
  <text x="282.00" y="91.40" font-family="Arial, Helvetica, sans-serif" font-size="2.8" fill="#000000" transform="rotate(-90.0,282.00,89.16)">1 no. Water Heater</text>
  <text x="316.50" y="134.42" font-family="Arial, Helvetica, sans-serif" font-size="2.2" fill="#000000" transform="rotate(-90.0,316.50,132.66)">L2P2</text>
  <circle cx="315.00" cy="121.86" r="0.35" stroke="#000000" stroke-width="0.25" fill="none" />
  <circle cx="315.00" cy="118.46" r="0.35" stroke="#000000" stroke-width="0.25" fill="none" />
  <path d="M 315.41,121.81 A 1.70,1.70 0 0,0 315.43,118.52" stroke="#000000" stroke-width="0.25" fill="none" />
  <line x1="315.00" y1="118.11" x2="315.00" y2="116.16" stroke="#000000" stroke-width="0.25" fill="none" />
  <line x1="315.00" y1="124.16" x2="315.00" y2="122.21" stroke="#000000" stroke-width="0.25" fill="none" />
  <line x1="315.00" y1="116.16" x2="315.00" y2="114.16" stroke="#000000" stroke-width="0.25" fill="none" />
  <line x1="315.00" y1="124.16" x2="315.00" y2="126.16" stroke="#000000" stroke-width="0.25" fill="none" />
  <line x1="250.70" y1="120.17" x2="316.70" y2="120.17" stroke="#000000" stroke-width="0.25" fill="none" />
  <line x1="316.70" y1="120.17" x2="315.49" y2="120.76" stroke="#000000" stroke-width="0.25" fill="none" />
  <line x1="316.70" y1="120.17" x2="315.51" y2="119.56" stroke="#000000" stroke-width="0.25" fill="none" />
  <text x="315.00" y="91.40" font-family="Arial, Helvetica, sans-serif" font-size="2.8" fill="#000000" transform="rotate(-90.0,315.00,89.16)">1 no. Aircon</text>
  <text x="349.50" y="134.42" font-family="Arial, Helvetica, sans-serif" font-size="2.2" fill="#000000" transform="rotate(-90.0,349.50,132.66)">L1P2</text>
  <circle cx="348.00" cy="121.86" r="0.35" stroke="#000000" stroke-width="0.25" fill="none" />
  <circle cx="348.00" cy="118.46" r="0.35" stroke="#000000" stroke-width="0.25" fill="none" />
  <path d="M 348.41,121.81 A 1.70,1.70 0 0,0 348.43,118.52" stroke="#000000" stroke-width="0.25" fill="none" />
  <line x1="348.00" y1="118.11" x2="348.00" y2="116.16" stroke="#000000" stroke-width="0.25" fill="none" />
  <line x1="348.00" y1="124.16" x2="348.00" y2="122.21" stroke="#000000" stroke-width="0.25" fill="none" />
  <line x1="348.00" y1="116.16" x2="348.00" y2="114.16" stroke="#000000" stroke-width="0.25" fill="none" />
  <line x1="348.00" y1="124.16" x2="348.00" y2="126.16" stroke="#000000" stroke-width="0.25" fill="none" />
  <line x1="316.70" y1="120.17" x2="349.70" y2="120.17" stroke="#000000" stroke-width="0.25" fill="none" />
  <line x1="349.70" y1="120.17" x2="348.49" y2="120.76" stroke="#000000" stroke-width="0.25" fill="none" />
  <line x1="349.70" y1="120.17" x2="348.51" y2="119.56" stroke="#000000" stroke-width="0.25" fill="none" />
  <text x="348.00" y="91.40" font-family="Arial, Helvetica, sans-serif" font-size="2.8" fill="#000000" transform="rotate(-90.0,348.00,89.16)">SPARE</text>
  <text x="65.00" y="92.96" font-family="Arial, Helvetica, sans-serif" font-size="2.8" fill="#000000" transform="rotate(-90.0,65.00,92.96)">2 x 1C 1.5sqmm PVC + 1.5sqmm</text>
  <text x="68.92" y="92.96" font-family="Arial, Helvetica, sans-serif" font-size="2.8" fill="#000000" transform="rotate(-90.0,68.92,92.96)">PVC CPC IN PVC CONDUIT</text>
  <text x="325.00" y="92.96" font-family="Arial, Helvetica, sans-serif" font-size="2.8" fill="#000000" transform="rotate(-90.0,325.00,92.96)">2 x 1C 2.5sqmm PVC + 2.5sqmm</text>
  <text x="328.92" y="92.96" font-family="Arial, Helvetica, sans-serif" font-size="2.8" fill="#000000" transform="rotate(-90.0,328.92,92.96)">PVC CPC IN PVC CONDUIT</text>
  <text x="269.00" y="92.96" font-family="Arial, Helvetica, sans-serif" font-size="2.8" fill="#000000" transform="rotate(-90.0,269.00,92.96)">2 x 1C 6sqmm PVC + 4sqmm</text>
  <text x="272.92" y="92.96" font-family="Arial, Helvetica, sans-serif" font-size="2.8" fill="#000000" transform="rotate(-90.0,272.92,92.96)">PVC CPC IN PVC CONDUIT</text>
  <text x="60.50" y="151.56" font-family="Arial, Helvetica, sans-serif" font-size="3.0" fill="#000000">63A DB</text>
  <text x="60.50" y="154.60" font-family="Arial, Helvetica, sans-serif" font-size="1.8" fill="#000000">APPROVED LOAD: 45 kVA</text>
  <line x1="373.25" y1="156.66" x2="373.25" y2="158.46" stroke="#000000" stroke-width="0.25" fill="none" />
  <line x1="370.50" y1="158.46" x2="376.00" y2="158.46" stroke="#000000" stroke-width="0.25" fill="none" />
  <line x1="371.42" y1="159.59" x2="375.08" y2="159.59" stroke="#000000" stroke-width="0.25" fill="none" />
  <line x1="372.33" y1="160.71" x2="374.17" y2="160.71" stroke="#000000" stroke-width="0.25" fill="none" />
  <text x="379.00" y="158.19" font-family="Arial, Helvetica, sans-serif" font-size="1.6" fill="#000000">E</text>
  <line x1="210.00" y1="185.71" x2="214.00" y2="185.71" stroke="#000000" stroke-width="0.25" fill="none" />
  <line x1="225.00" y1="185.71" x2="242.50" y2="185.71" stroke="#000000" stroke-width="0.25" fill="none" />
  <line x1="254.30" y1="185.71" x2="263.50" y2="185.71" stroke="#000000" stroke-width="0.25" fill="none" />
  <line x1="275.50" y1="185.71" x2="295.50" y2="185.71" stroke="#000000" stroke-width="0.25" fill="none" />
  <line x1="284.00" y1="187.21" x2="287.00" y2="184.21" stroke="#000000" stroke-width="0.25" fill="none" />
  <line x1="285.50" y1="185.71" x2="285.50" y2="195.71" stroke="#000000" stroke-width="0.25" fill="none" />
  <line x1="285.50" y1="195.71" x2="288.50" y2="195.71" stroke="#000000" stroke-width="0.25" fill="none" />
  <line x1="210.00" y1="185.71" x2="210.00" y2="161.16" stroke="#000000" stroke-width="0.25" fill="none" />
  <line x1="210.00" y1="169.16" x2="207.00" y2="169.16" stroke="#000000" stroke-width="0.25" fill="none" />
  <line x1="279.50" y1="197.24" x2="283.50" y2="197.24" stroke="#000000" stroke-width="0.25" fill="none" />
  <line x1="283.50" y1="197.24" x2="283.50" y2="202.74" stroke="#000000" stroke-width="0.25" fill="none" />
  <line x1="210.00" y1="161.16" x2="210.00" y2="149.16" stroke="#000000" stroke-width="0.25" fill="none" />
  <line x1="210.00" y1="139.16" x2="210.00" y2="136.16" stroke="#000000" stroke-width="0.25" fill="none" />
  <line x1="78.00" y1="127.38" x2="78.00" y2="124.16" stroke="#000000" stroke-width="0.25" fill="none" />
  <line x1="78.00" y1="114.16" x2="78.00" y2="91.16" stroke="#000000" stroke-width="0.25" fill="none" />
  <line x1="111.00" y1="136.16" x2="111.00" y2="126.16" stroke="#000000" stroke-width="0.25" fill="none" />
  <line x1="111.00" y1="114.16" x2="111.00" y2="91.16" stroke="#000000" stroke-width="0.25" fill="none" />
  <line x1="144.00" y1="127.38" x2="144.00" y2="124.16" stroke="#000000" stroke-width="0.25" fill="none" />
  <line x1="144.00" y1="114.16" x2="144.00" y2="91.16" stroke="#000000" stroke-width="0.25" fill="none" />
  <line x1="183.00" y1="127.38" x2="183.00" y2="124.16" stroke="#000000" stroke-width="0.25" fill="none" />
  <line x1="183.00" y1="114.16" x2="183.00" y2="91.16" stroke="#000000" stroke-width="0.25" fill="none" />
  <line x1="216.00" y1="136.16" x2="216.00" y2="126.16" stroke="#000000" stroke-width="0.25" fill="none" />
  <line x1="216.00" y1="114.16" x2="216.00" y2="91.16" stroke="#000000" stroke-width="0.25" fill="none" />
  <line x1="249.00" y1="127.38" x2="249.00" y2="124.16" stroke="#000000" stroke-width="0.25" fill="none" />
  <line x1="249.00" y1="114.16" x2="249.00" y2="91.16" stroke="#000000" stroke-width="0.25" fill="none" />
  <line x1="282.00" y1="127.38" x2="282.00" y2="124.16" stroke="#000000" stroke-width="0.25" fill="none" />
  <line x1="282.00" y1="114.16" x2="282.00" y2="91.16" stroke="#000000" stroke-width="0.25" fill="none" />
  <line x1="315.00" y1="136.16" x2="315.00" y2="126.16" stroke="#000000" stroke-width="0.25" fill="none" />
  <line x1="315.00" y1="114.16" x2="315.00" y2="91.16" stroke="#000000" stroke-width="0.25" fill="none" />
  <line x1="348.00" y1="127.38" x2="348.00" y2="124.16" stroke="#000000" stroke-width="0.25" fill="none" />
  <line x1="348.00" y1="114.16" x2="348.00" y2="91.16" stroke="#000000" stroke-width="0.25" fill="none" />
  <line x1="68.00" y1="96.16" x2="144.00" y2="96.16" stroke="#000000" stroke-width="0.25" fill="none" />
  <line x1="68.00" y1="96.16" x2="68.00" y2="91.16" stroke="#000000" stroke-width="0.25" fill="none" />
  <line x1="183.00" y1="96.16" x2="325.00" y2="96.16" stroke="#000000" stroke-width="0.25" fill="none" />
  <line x1="325.00" y1="96.16" x2="325.00" y2="91.16" stroke="#000000" stroke-width="0.25" fill="none" />
  <line x1="272.00" y1="96.16" x2="282.00" y2="96.16" stroke="#000000" stroke-width="0.25" fill="none" />
  <line x1="272.00" y1="96.16" x2="272.00" y2="91.16" stroke="#000000" stroke-width="0.25" fill="none" />
  <line x1="365.50" y1="156.66" x2="373.25" y2="156.66" stroke="#000000" stroke-width="0.25" fill="none" />
  <line x1="208.75" y1="170.41" x2="211.25" y2="167.91" stroke="#000000" stroke-width="0.50" fill="none" />
  <line x1="76.75" y1="97.41" x2="79.25" y2="94.91" stroke="#000000" stroke-width="0.50" fill="none" />
  <line x1="109.75" y1="97.41" x2="112.25" y2="94.91" stroke="#000000" stroke-width="0.50" fill="none" />
  <line x1="142.75" y1="97.41" x2="145.25" y2="94.91" stroke="#000000" stroke-width="0.50" fill="none" />
  <line x1="181.75" y1="97.41" x2="184.25" y2="94.91" stroke="#000000" stroke-width="0.50" fill="none" />
  <line x1="214.75" y1="97.41" x2="217.25" y2="94.91" stroke="#000000" stroke-width="0.50" fill="none" />
  <line x1="247.75" y1="97.41" x2="250.25" y2="94.91" stroke="#000000" stroke-width="0.50" fill="none" />
  <line x1="313.75" y1="97.41" x2="316.25" y2="94.91" stroke="#000000" stroke-width="0.50" fill="none" />
  <line x1="280.75" y1="97.41" x2="283.25" y2="94.91" stroke="#000000" stroke-width="0.50" fill="none" />
  <line x1="111.00" y1="136.16" x2="78.00" y2="127.38" stroke="#000000" stroke-width="0.25" fill="none" />
  <line x1="111.00" y1="136.16" x2="144.00" y2="127.38" stroke="#000000" stroke-width="0.25" fill="none" />
  <line x1="216.00" y1="136.16" x2="183.00" y2="127.38" stroke="#000000" stroke-width="0.25" fill="none" />
  <line x1="216.00" y1="136.16" x2="249.00" y2="127.38" stroke="#000000" stroke-width="0.25" fill="none" />
  <line x1="315.00" y1="136.16" x2="282.00" y2="127.38" stroke="#000000" stroke-width="0.25" fill="none" />
  <line x1="315.00" y1="136.16" x2="348.00" y2="127.38" stroke="#000000" stroke-width="0.25" fill="none" />
  <line x1="212.00" y1="200.24" x2="220.00" y2="200.24" stroke="#000000" stroke-width="0.25" fill="none" />
  <line x1="222.00" y1="200.24" x2="223.50" y2="200.24" stroke="#000000" stroke-width="0.25" fill="none" />
  <line x1="225.50" y1="200.24" x2="233.50" y2="200.24" stroke="#000000" stroke-width="0.25" fill="none" />
  <line x1="235.50" y1="200.24" x2="237.00" y2="200.24" stroke="#000000" stroke-width="0.25" fill="none" />
  <line x1="239.00" y1="200.24" x2="247.00" y2="200.24" stroke="#000000" stroke-width="0.25" fill="none" />
  <line x1="249.00" y1="200.24" x2="250.50" y2="200.24" stroke="#000000" stroke-width="0.25" fill="none" />
  <line x1="252.50" y1="200.24" x2="260.50" y2="200.24" stroke="#000000" stroke-width="0.25" fill="none" />
  <line x1="262.50" y1="200.24" x2="264.00" y2="200.24" stroke="#000000" stroke-width="0.25" fill="none" />
  <line x1="266.00" y1="200.24" x2="274.00" y2="200.24" stroke="#000000" stroke-width="0.25" fill="none" />
  <line x1="276.00" y1="200.24" x2="277.50" y2="200.24" stroke="#000000" stroke-width="0.25" fill="none" />
  <line x1="212.00" y1="177.16" x2="220.00" y2="177.16" stroke="#000000" stroke-width="0.25" fill="none" />
  <line x1="222.00" y1="177.16" x2="223.50" y2="177.16" stroke="#000000" stroke-width="0.25" fill="none" />
  <line x1="225.50" y1="177.16" x2="233.50" y2="177.16" stroke="#000000" stroke-width="0.25" fill="none" />
  <line x1="235.50" y1="177.16" x2="237.00" y2="177.16" stroke="#000000" stroke-width="0.25" fill="none" />
  <line x1="239.00" y1="177.16" x2="247.00" y2="177.16" stroke="#000000" stroke-width="0.25" fill="none" />
  <line x1="249.00" y1="177.16" x2="250.50" y2="177.16" stroke="#000000" stroke-width="0.25" fill="none" />
  <line x1="252.50" y1="177.16" x2="260.50" y2="177.16" stroke="#000000" stroke-width="0.25" fill="none" />
  <line x1="262.50" y1="177.16" x2="264.00" y2="177.16" stroke="#000000" stroke-width="0.25" fill="none" />
  <line x1="266.00" y1="177.16" x2="274.00" y2="177.16" stroke="#000000" stroke-width="0.25" fill="none" />
  <line x1="276.00" y1="177.16" x2="277.50" y2="177.16" stroke="#000000" stroke-width="0.25" fill="none" />
  <line x1="212.00" y1="200.24" x2="212.00" y2="192.24" stroke="#000000" stroke-width="0.25" fill="none" />
  <line x1="212.00" y1="190.24" x2="212.00" y2="188.74" stroke="#000000" stroke-width="0.25" fill="none" />
  <line x1="212.00" y1="186.74" x2="212.00" y2="178.74" stroke="#000000" stroke-width="0.25" fill="none" />
  <line x1="279.50" y1="200.24" x2="279.50" y2="192.24" stroke="#000000" stroke-width="0.25" fill="none" />
  <line x1="279.50" y1="190.24" x2="279.50" y2="188.74" stroke="#000000" stroke-width="0.25" fill="none" />
  <line x1="279.50" y1="186.74" x2="279.50" y2="178.74" stroke="#000000" stroke-width="0.25" fill="none" />
  <line x1="54.50" y1="157.16" x2="62.50" y2="157.16" stroke="#000000" stroke-width="0.25" fill="none" />
  <line x1="64.50" y1="157.16" x2="66.00" y2="157.16" stroke="#000000" stroke-width="0.25" fill="none" />
  <line x1="68.00" y1="157.16" x2="76.00" y2="157.16" stroke="#000000" stroke-width="0.25" fill="none" />
  <line x1="78.00" y1="157.16" x2="79.50" y2="157.16" stroke="#000000" stroke-width="0.25" fill="none" />
  <line x1="81.50" y1="157.16" x2="89.50" y2="157.16" stroke="#000000" stroke-width="0.25" fill="none" />
  <line x1="91.50" y1="157.16" x2="93.00" y2="157.16" stroke="#000000" stroke-width="0.25" fill="none" />
  <line x1="95.00" y1="157.16" x2="103.00" y2="157.16" stroke="#000000" stroke-width="0.25" fill="none" />
  <line x1="105.00" y1="157.16" x2="106.50" y2="157.16" stroke="#000000" stroke-width="0.25" fill="none" />
  <line x1="108.50" y1="157.16" x2="116.50" y2="157.16" stroke="#000000" stroke-width="0.25" fill="none" />
  <line x1="118.50" y1="157.16" x2="120.00" y2="157.16" stroke="#000000" stroke-width="0.25" fill="none" />
  <line x1="122.00" y1="157.16" x2="130.00" y2="157.16" stroke="#000000" stroke-width="0.25" fill="none" />
  <line x1="132.00" y1="157.16" x2="133.50" y2="157.16" stroke="#000000" stroke-width="0.25" fill="none" />
  <line x1="135.50" y1="157.16" x2="143.50" y2="157.16" stroke="#000000" stroke-width="0.25" fill="none" />
  <line x1="145.50" y1="157.16" x2="147.00" y2="157.16" stroke="#000000" stroke-width="0.25" fill="none" />
  <line x1="149.00" y1="157.16" x2="157.00" y2="157.16" stroke="#000000" stroke-width="0.25" fill="none" />
  <line x1="159.00" y1="157.16" x2="160.50" y2="157.16" stroke="#000000" stroke-width="0.25" fill="none" />
  <line x1="162.50" y1="157.16" x2="170.50" y2="157.16" stroke="#000000" stroke-width="0.25" fill="none" />
  <line x1="172.50" y1="157.16" x2="174.00" y2="157.16" stroke="#000000" stroke-width="0.25" fill="none" />
  <line x1="176.00" y1="157.16" x2="184.00" y2="157.16" stroke="#000000" stroke-width="0.25" fill="none" />
  <line x1="186.00" y1="157.16" x2="187.50" y2="157.16" stroke="#000000" stroke-width="0.25" fill="none" />
  <line x1="189.50" y1="157.16" x2="197.50" y2="157.16" stroke="#000000" stroke-width="0.25" fill="none" />
  <line x1="199.50" y1="157.16" x2="201.00" y2="157.16" stroke="#000000" stroke-width="0.25" fill="none" />
  <line x1="203.00" y1="157.16" x2="211.00" y2="157.16" stroke="#000000" stroke-width="0.25" fill="none" />
  <line x1="213.00" y1="157.16" x2="214.50" y2="157.16" stroke="#000000" stroke-width="0.25" fill="none" />
  <line x1="216.50" y1="157.16" x2="224.50" y2="157.16" stroke="#000000" stroke-width="0.25" fill="none" />
  <line x1="226.50" y1="157.16" x2="228.00" y2="157.16" stroke="#000000" stroke-width="0.25" fill="none" />
  <line x1="230.00" y1="157.16" x2="238.00" y2="157.16" stroke="#000000" stroke-width="0.25" fill="none" />
  <line x1="240.00" y1="157.16" x2="241.50" y2="157.16" stroke="#000000" stroke-width="0.25" fill="none" />
  <line x1="243.50" y1="157.16" x2="251.50" y2="157.16" stroke="#000000" stroke-width="0.25" fill="none" />
  <line x1="253.50" y1="157.16" x2="255.00" y2="157.16" stroke="#000000" stroke-width="0.25" fill="none" />
  <line x1="257.00" y1="157.16" x2="265.00" y2="157.16" stroke="#000000" stroke-width="0.25" fill="none" />
  <line x1="267.00" y1="157.16" x2="268.50" y2="157.16" stroke="#000000" stroke-width="0.25" fill="none" />
  <line x1="270.50" y1="157.16" x2="278.50" y2="157.16" stroke="#000000" stroke-width="0.25" fill="none" />
  <line x1="280.50" y1="157.16" x2="282.00" y2="157.16" stroke="#000000" stroke-width="0.25" fill="none" />
  <line x1="284.00" y1="157.16" x2="292.00" y2="157.16" stroke="#000000" stroke-width="0.25" fill="none" />
  <line x1="294.00" y1="157.16" x2="295.50" y2="157.16" stroke="#000000" stroke-width="0.25" fill="none" />
  <line x1="297.50" y1="157.16" x2="305.50" y2="157.16" stroke="#000000" stroke-width="0.25" fill="none" />
  <line x1="307.50" y1="157.16" x2="309.00" y2="157.16" stroke="#000000" stroke-width="0.25" fill="none" />
  <line x1="311.00" y1="157.16" x2="319.00" y2="157.16" stroke="#000000" stroke-width="0.25" fill="none" />
  <line x1="321.00" y1="157.16" x2="322.50" y2="157.16" stroke="#000000" stroke-width="0.25" fill="none" />
  <line x1="324.50" y1="157.16" x2="332.50" y2="157.16" stroke="#000000" stroke-width="0.25" fill="none" />
  <line x1="334.50" y1="157.16" x2="336.00" y2="157.16" stroke="#000000" stroke-width="0.25" fill="none" />
  <line x1="338.00" y1="157.16" x2="346.00" y2="157.16" stroke="#000000" stroke-width="0.25" fill="none" />
  <line x1="348.00" y1="157.16" x2="349.50" y2="157.16" stroke="#000000" stroke-width="0.25" fill="none" />
  <line x1="351.50" y1="157.16" x2="359.50" y2="157.16" stroke="#000000" stroke-width="0.25" fill="none" />
  <line x1="361.50" y1="157.16" x2="363.00" y2="157.16" stroke="#000000" stroke-width="0.25" fill="none" />
  <line x1="365.00" y1="157.16" x2="365.50" y2="157.16" stroke="#000000" stroke-width="0.25" fill="none" />
  <line x1="54.50" y1="106.16" x2="62.50" y2="106.16" stroke="#000000" stroke-width="0.25" fill="none" />
  <line x1="64.50" y1="106.16" x2="66.00" y2="106.16" stroke="#000000" stroke-width="0.25" fill="none" />
  <line x1="68.00" y1="106.16" x2="76.00" y2="106.16" stroke="#000000" stroke-width="0.25" fill="none" />
  <line x1="78.00" y1="106.16" x2="79.50" y2="106.16" stroke="#000000" stroke-width="0.25" fill="none" />
  <line x1="81.50" y1="106.16" x2="89.50" y2="106.16" stroke="#000000" stroke-width="0.25" fill="none" />
  <line x1="91.50" y1="106.16" x2="93.00" y2="106.16" stroke="#000000" stroke-width="0.25" fill="none" />
  <line x1="95.00" y1="106.16" x2="103.00" y2="106.16" stroke="#000000" stroke-width="0.25" fill="none" />
  <line x1="105.00" y1="106.16" x2="106.50" y2="106.16" stroke="#000000" stroke-width="0.25" fill="none" />
  <line x1="108.50" y1="106.16" x2="116.50" y2="106.16" stroke="#000000" stroke-width="0.25" fill="none" />
  <line x1="118.50" y1="106.16" x2="120.00" y2="106.16" stroke="#000000" stroke-width="0.25" fill="none" />
  <line x1="122.00" y1="106.16" x2="130.00" y2="106.16" stroke="#000000" stroke-width="0.25" fill="none" />
  <line x1="132.00" y1="106.16" x2="133.50" y2="106.16" stroke="#000000" stroke-width="0.25" fill="none" />
  <line x1="135.50" y1="106.16" x2="143.50" y2="106.16" stroke="#000000" stroke-width="0.25" fill="none" />
  <line x1="145.50" y1="106.16" x2="147.00" y2="106.16" stroke="#000000" stroke-width="0.25" fill="none" />
  <line x1="149.00" y1="106.16" x2="157.00" y2="106.16" stroke="#000000" stroke-width="0.25" fill="none" />
  <line x1="159.00" y1="106.16" x2="160.50" y2="106.16" stroke="#000000" stroke-width="0.25" fill="none" />
  <line x1="162.50" y1="106.16" x2="170.50" y2="106.16" stroke="#000000" stroke-width="0.25" fill="none" />
  <line x1="172.50" y1="106.16" x2="174.00" y2="106.16" stroke="#000000" stroke-width="0.25" fill="none" />
  <line x1="176.00" y1="106.16" x2="184.00" y2="106.16" stroke="#000000" stroke-width="0.25" fill="none" />
  <line x1="186.00" y1="106.16" x2="187.50" y2="106.16" stroke="#000000" stroke-width="0.25" fill="none" />
  <line x1="189.50" y1="106.16" x2="197.50" y2="106.16" stroke="#000000" stroke-width="0.25" fill="none" />
  <line x1="199.50" y1="106.16" x2="201.00" y2="106.16" stroke="#000000" stroke-width="0.25" fill="none" />
  <line x1="203.00" y1="106.16" x2="211.00" y2="106.16" stroke="#000000" stroke-width="0.25" fill="none" />
  <line x1="213.00" y1="106.16" x2="214.50" y2="106.16" stroke="#000000" stroke-width="0.25" fill="none" />
  <line x1="216.50" y1="106.16" x2="224.50" y2="106.16" stroke="#000000" stroke-width="0.25" fill="none" />
  <line x1="226.50" y1="106.16" x2="228.00" y2="106.16" stroke="#000000" stroke-width="0.25" fill="none" />
  <line x1="230.00" y1="106.16" x2="238.00" y2="106.16" stroke="#000000" stroke-width="0.25" fill="none" />
  <line x1="240.00" y1="106.16" x2="241.50" y2="106.16" stroke="#000000" stroke-width="0.25" fill="none" />
  <line x1="243.50" y1="106.16" x2="251.50" y2="106.16" stroke="#000000" stroke-width="0.25" fill="none" />
  <line x1="253.50" y1="106.16" x2="255.00" y2="106.16" stroke="#000000" stroke-width="0.25" fill="none" />
  <line x1="257.00" y1="106.16" x2="265.00" y2="106.16" stroke="#000000" stroke-width="0.25" fill="none" />
  <line x1="267.00" y1="106.16" x2="268.50" y2="106.16" stroke="#000000" stroke-width="0.25" fill="none" />
  <line x1="270.50" y1="106.16" x2="278.50" y2="106.16" stroke="#000000" stroke-width="0.25" fill="none" />
  <line x1="280.50" y1="106.16" x2="282.00" y2="106.16" stroke="#000000" stroke-width="0.25" fill="none" />
  <line x1="284.00" y1="106.16" x2="292.00" y2="106.16" stroke="#000000" stroke-width="0.25" fill="none" />
  <line x1="294.00" y1="106.16" x2="295.50" y2="106.16" stroke="#000000" stroke-width="0.25" fill="none" />
  <line x1="297.50" y1="106.16" x2="305.50" y2="106.16" stroke="#000000" stroke-width="0.25" fill="none" />
  <line x1="307.50" y1="106.16" x2="309.00" y2="106.16" stroke="#000000" stroke-width="0.25" fill="none" />
  <line x1="311.00" y1="106.16" x2="319.00" y2="106.16" stroke="#000000" stroke-width="0.25" fill="none" />
  <line x1="321.00" y1="106.16" x2="322.50" y2="106.16" stroke="#000000" stroke-width="0.25" fill="none" />
  <line x1="324.50" y1="106.16" x2="332.50" y2="106.16" stroke="#000000" stroke-width="0.25" fill="none" />
  <line x1="334.50" y1="106.16" x2="336.00" y2="106.16" stroke="#000000" stroke-width="0.25" fill="none" />
  <line x1="338.00" y1="106.16" x2="346.00" y2="106.16" stroke="#000000" stroke-width="0.25" fill="none" />
  <line x1="348.00" y1="106.16" x2="349.50" y2="106.16" stroke="#000000" stroke-width="0.25" fill="none" />
  <line x1="351.50" y1="106.16" x2="359.50" y2="106.16" stroke="#000000" stroke-width="0.25" fill="none" />
  <line x1="361.50" y1="106.16" x2="363.00" y2="106.16" stroke="#000000" stroke-width="0.25" fill="none" />
  <line x1="365.00" y1="106.16" x2="365.50" y2="106.16" stroke="#000000" stroke-width="0.25" fill="none" />
  <line x1="54.50" y1="157.16" x2="54.50" y2="149.16" stroke="#000000" stroke-width="0.25" fill="none" />
  <line x1="54.50" y1="147.16" x2="54.50" y2="145.66" stroke="#000000" stroke-width="0.25" fill="none" />
  <line x1="54.50" y1="143.66" x2="54.50" y2="135.66" stroke="#000000" stroke-width="0.25" fill="none" />
  <line x1="54.50" y1="133.66" x2="54.50" y2="132.16" stroke="#000000" stroke-width="0.25" fill="none" />
  <line x1="54.50" y1="130.16" x2="54.50" y2="122.16" stroke="#000000" stroke-width="0.25" fill="none" />
  <line x1="54.50" y1="120.16" x2="54.50" y2="118.66" stroke="#000000" stroke-width="0.25" fill="none" />
  <line x1="54.50" y1="116.66" x2="54.50" y2="108.66" stroke="#000000" stroke-width="0.25" fill="none" />
  <line x1="54.50" y1="106.66" x2="54.50" y2="106.16" stroke="#000000" stroke-width="0.25" fill="none" />
  <line x1="365.50" y1="157.16" x2="365.50" y2="149.16" stroke="#000000" stroke-width="0.25" fill="none" />
  <line x1="365.50" y1="147.16" x2="365.50" y2="145.66" stroke="#000000" stroke-width="0.25" fill="none" />
  <line x1="365.50" y1="143.66" x2="365.50" y2="135.66" stroke="#000000" stroke-width="0.25" fill="none" />
  <line x1="365.50" y1="133.66" x2="365.50" y2="132.16" stroke="#000000" stroke-width="0.25" fill="none" />
  <line x1="365.50" y1="130.16" x2="365.50" y2="122.16" stroke="#000000" stroke-width="0.25" fill="none" />
  <line x1="365.50" y1="120.16" x2="365.50" y2="118.66" stroke="#000000" stroke-width="0.25" fill="none" />
  <line x1="365.50" y1="116.66" x2="365.50" y2="108.66" stroke="#000000" stroke-width="0.25" fill="none" />
  <line x1="365.50" y1="106.66" x2="365.50" y2="106.16" stroke="#000000" stroke-width="0.25" fill="none" />
  <circle cx="279.50" cy="197.24" r="0.50" fill="rgb(0,0,0)" stroke="none" />
  <circle cx="111.00" cy="136.16" r="0.50" fill="rgb(0,0,0)" stroke="none" />
  <circle cx="111.00" cy="136.16" r="0.50" fill="rgb(0,0,0)" stroke="none" />
  <circle cx="111.00" cy="136.16" r="0.50" fill="rgb(0,0,0)" stroke="none" />
  <circle cx="216.00" cy="136.16" r="0.50" fill="rgb(0,0,0)" stroke="none" />
  <circle cx="216.00" cy="136.16" r="0.50" fill="rgb(0,0,0)" stroke="none" />
  <circle cx="216.00" cy="136.16" r="0.50" fill="rgb(0,0,0)" stroke="none" />
  <circle cx="315.00" cy="136.16" r="0.50" fill="rgb(0,0,0)" stroke="none" />
  <circle cx="315.00" cy="136.16" r="0.50" fill="rgb(0,0,0)" stroke="none" />
  <circle cx="315.00" cy="136.16" r="0.50" fill="rgb(0,0,0)" stroke="none" />
  <circle cx="365.50" cy="156.66" r="0.50" fill="rgb(0,0,0)" stroke="none" />
  <text x="13.00" y="264.40" font-family="Arial, Helvetica, sans-serif" font-size="3.0" fill="#000000">Electrical Installation</text>
  <text x="153.00" y="264.40" font-family="Arial, Helvetica, sans-serif" font-size="3.0" fill="#000000">LicenseKaki</text>
  <text x="225.00" y="263.80" font-family="Arial, Helvetica, sans-serif" font-size="3.5" fill="#000000"><tspan x="225.00">SINGLE LINE DIAGRAM</tspan><tspan x="225.00" dy="4.9">(SLD)</tspan></text>
  <text x="389.00" y="266.00" font-family="Arial, Helvetica, sans-serif" font-size="2.5" fill="#000000">DATE</text>
  <text x="365.00" y="278.00" font-family="Arial, Helvetica, sans-serif" font-size="2.5" fill="#000000"></text>
  <text x="394.00" y="278.80" font-family="Arial, Helvetica, sans-serif" font-size="3.5" fill="#000000">0</text>
  <text x="365.00" y="286.28" font-family="Arial, Helvetica, sans-serif" font-size="1.6" fill="#000000">SCALE : NTS</text>
  <text x="389.00" y="286.28" font-family="Arial, Helvetica, sans-serif" font-size="1.6" fill="#000000">SHEET : 1 OF 1</text>
</svg>