<svg xmlns="http://www.w3.org/2000/svg" viewBox="0 0 420.0 297.0" width="420.0mm" height="297.0mm">
  <rect width="420.0" height="297.0" fill="white" />
  <polygon points="10.00,287.00 410.00,287.00 410.00,10.00 10.00,10.00" stroke="#000000" stroke-width="0.25" fill="none" />
  <polygon points="10.00,287.00 410.00,287.00 410.00,255.00 10.00,255.00" stroke="#000000" stroke-width="0.25" fill="none" />
  <line x1="90.00" y1="255.00" x2="90.00" y2="287.00" stroke="#000000" stroke-width="0.25" fill="none" />
  <line x1="150.00" y1="255.00" x2="150.00" y2="287.00" stroke="#000000" stroke-width="0.25" fill="none" />
  <line x1="222.00" y1="255.00" x2="222.00" y2="287.00" stroke="#000000" stroke-width="0.25" fill="none" />
  <line x1="290.00" y1="255.00" x2="290.00" y2="287.00" stroke="#000000" stroke-width="0.25" fill="none" />
  <line x1="362.00" y1="255.00" x2="362.00" y2="287.00" stroke="#000000" stroke-width="0.25" fill="none" />
  <line x1="362.00" y1="270.00" x2="410.00" y2="270.00" stroke="#000000" stroke-width="0.25" fill="none" />
  <line x1="386.00" y1="255.00" x2="386.00" y2="287.00" stroke="#000000" stroke-width="0.25" fill="none" />
  <text x="12.00" y="258.94" font-family="Arial, Helvetica, sans-serif" font-size="1.8" fill="#000000">CLIENT / ADDRESS :</text>
  <text x="92.00" y="258.94" font-family="Arial, Helvetica, sans-serif" font-size="1.8" fill="#000000">MAIN CONTRACTOR :</text>
  <text x="152.00" y="258.94" font-family="Arial, Helvetica, sans-serif" font-size="1.8" fill="#000000">ELECTRICAL CONTRACTOR :</text>
  <text x="224.00" y="258.94" font-family="Arial, Helvetica, sans-serif" font-size="1.8" fill="#000000">DRAWING TITLE :</text>
  <text x="292.00" y="258.94" font-family="Arial, Helvetica, sans-serif" font-size="1.8" fill="#000000">LEW :</text>
  <text x="364.00" y="258.94" font-family="Arial, Helvetica, sans-serif" font-size="1.8" fill="#000000">CHECKED :</text>
  <text x="388.00" y="258.94" font-family="Arial, Helvetica, sans-serif" font-size="1.8" fill="#000000">DATE :</text>
  <text x="364.00" y="273.94" font-family="Arial, Helvetica, sans-serif" font-size="1.8" fill="#000000">DRAWING NO. :</text>
  <text x="388.00" y="273.94" font-family="Arial, Helvetica, sans-serif" font-size="1.8" fill="#000000">REV :</text>
  <circle cx="222.30" cy="193.40" r="0.70" stroke="#000000" stroke-width="0.25" fill="none" />
  <circle cx="216.70" cy="193.40" r="0.70" stroke="#000000" stroke-width="0.25" fill="none" />
  <polyline points="217.36,193.16 222.21,191.43" stroke="#000000" stroke-width="0.25" fill="none" />
  <text x="215.18" y="198.39" font-family="Arial, Helvetica, sans-serif" font-size="1.8" fill="#000000"><tspan x="215.18">63A 4P</tspan><tspan x="215.18" dy="2.5">ISOLATOR</tspan></text>
  <polygon points="238.50,190.40 250.50,190.40 250.50,196.40 238.50,196.40" stroke="#000000" stroke-width="0.25" fill="none" />
  <text x="240.84" y="196.32" font-family="Arial, Helvetica, sans-serif" font-size="2.2" fill="#000000">KWH</text>
  <text x="232.55" y="185.54" font-family="Arial, Helvetica, sans-serif" font-size="2.8" fill="#000000">KWH METER</text>
  <text x="238.74" y="188.84" font-family="Arial, Helvetica, sans-serif" font-size="2.8" fill="#000000">BY SP</text>
  <path d="M 272.84,192.55 A 3.75,3.75 0 0,0 266.16,192.55" stroke="#000000" stroke-width="0.25" fill="none" />
  <circle cx="266.16" cy="193.59" r="0.66" stroke="#000000" stroke-width="0.25" fill="none" />
  <circle cx="272.84" cy="193.58" r="0.66" stroke="#000000" stroke-width="0.25" fill="none" />
  <line x1="265.50" y1="193.40" x2="263.50" y2="193.40" stroke="#000000" stroke-width="0.25" fill="none" />
  <line x1="273.50" y1="193.40" x2="275.50" y2="193.40" stroke="#000000" stroke-width="0.25" fill="none" />
  <text x="263.56" y="198.14" font-family="Arial, Helvetica, sans-serif" font-size="1.8" fill="#000000"><tspan x="263.56">63A TPN MCB</tspan><tspan x="263.56" dy="2.5">TYPE B 25kA</tspan></text>
  <text x="302.94" y="192.64" font-family="Arial, Helvetica, sans-serif" font-size="2.8" fill="#000000">INCOMING FROM HDB ELECTRICAL RISER</text>
  <text x="293.94" y="204.24" font-family="Arial, Helvetica, sans-serif" font-size="2.8" fill="#000000"><tspan x="293.94">4 x 1C 16sqmm PVC/PVC +</tspan><tspan x="293.94" dy="3.9">16sqmm PVC CPC IN METAL TRUNKING</tspan></text>
  <text x="213.00" y="206.62" font-family="Arial, Helvetica, sans-serif" font-size="2.8" fill="#000000">METER BOARD</text>
  <line x1="288.94" y1="210.68" x2="288.94" y2="212.48" stroke="#000000" stroke-width="0.25" fill="none" />
  <line x1="286.69" y1="212.48" x2="291.19" y2="212.48" stroke="#000000" stroke-width="0.25" fill="none" />
  <line x1="287.44" y1="213.60" x2="290.44" y2="213.60" stroke="#000000" stroke-width="0.25" fill="none" />
  <line x1="288.19" y1="214.73" x2="289.69" y2="214.73" stroke="#000000" stroke-width="0.25" fill="none" />
  <text x="294.19" y="212.21" font-family="Arial, Helvetica, sans-serif" font-size="1.6" fill="#000000">E</text>
  <path d="M 210.96,151.05 A 4.22,4.22 0 0,0 210.96,143.54" stroke="#000000" stroke-width="0.25" fill="none" />
  <circle cx="209.78" cy="143.54" r="0.74" stroke="#000000" stroke-width="0.25" fill="none" />
  <circle cx="209.80" cy="151.05" r="0.74" stroke="#000000" stroke-width="0.25" fill="none" />
  <line x1="210.00" y1="151.80" x2="210.00" y2="153.80" stroke="#000000" stroke-width="0.25" fill="none" />
  <line x1="210.00" y1="142.80" x2="210.00" y2="140.80" stroke="#000000" stroke-width="0.25" fill="none" />
  <text x="213.96" y="146.74" font-family="Arial, Helvetica, sans-serif" font-size="1.8" fill="#000000">63A TPN MCCB (25KA)</text>
  <path d="M 211.17,135.05 A 4.22,4.22 0 0,0 211.17,127.54" stroke="#000000" stroke-width="0.25" fill="none" />
  <circle cx="209.99" cy="127.54" r="0.74" stroke="#000000" stroke-width="0.25" fill="none" />
  <circle cx="210.01" cy="135.05" r="0.74" stroke="#000000" stroke-width="0.25" fill="none" />
  <line x1="213.47" y1="131.30" x2="215.28" y2="131.30" stroke="#000000" stroke-width="0.25" fill="none" />
  <line x1="215.28" y1="132.94" x2="215.28" y2="129.66" stroke="#000000" stroke-width="0.25" fill="none" />
  <line x1="210.00" y1="135.80" x2="210.00" y2="137.80" stroke="#000000" stroke-width="0.25" fill="none" />
  <line x1="210.00" y1="126.80" x2="210.00" y2="124.80" stroke="#000000" stroke-width="0.25" fill="none" />
  <text x="216.01" y="130.74" font-family="Arial, Helvetica, sans-serif" font-size="1.8" fill="#000000"><tspan x="216.01">63A 4P</tspan><tspan x="216.01" dy="2.5">ELCB </tspan><tspan x="216.01" dy="2.5">(100mA)</tspan></text>
  <line x1="74.00" y1="119.80" x2="346.00" y2="119.80" stroke="#000000" stroke-width="0.50" fill="none" />
  <text x="119.00" y="125.04" font-family="Arial, Helvetica, sans-serif" font-size="2.8" fill="#000000">200A BUSBAR</text>
  <text x="131.00" y="116.06" font-family="Arial, Helvetica, sans-serif" font-size="2.2" fill="#000000" transform="rotate(-90.0,131.00,115.18)">L1S1</text>
  <path d="M 130.35,107.14 A 3.75,3.75 0 0,0 130.35,100.46" stroke="#000000" stroke-width="0.25" fill="none" />
  <circle cx="129.31" cy="100.46" r="0.66" stroke="#000000" stroke-width="0.25" fill="none" />
  <circle cx="129.32" cy="107.14" r="0.66" stroke="#000000" stroke-width="0.25" fill="none" />
  <line x1="129.50" y1="107.80" x2="129.50" y2="109.80" stroke="#000000" stroke-width="0.25" fill="none" />
  <line x1="129.50" y1="99.80" x2="129.50" y2="97.80" stroke="#000000" stroke-width="0.25" fill="none" />
  <line x1="126.39" y1="103.80" x2="132.39" y2="103.80" stroke="#000000" stroke-width="0.25" fill="none" />
  <line x1="132.39" y1="103.80" x2="131.19" y2="103.20" stroke="#000000" stroke-width="0.25" fill="none" />
  <line x1="132.39" y1="103.80" x2="131.19" y2="104.40" stroke="#000000" stroke-width="0.25" fill="none" />
  <text x="121.00" y="102.40" font-family="Arial, Helvetica, sans-serif" font-size="2.0" fill="#000000"><tspan x="121.00">B10A</tspan><tspan x="121.00" dy="2.8">SPN</tspan><tspan x="121.00" dy="2.8">MCB</tspan><tspan x="121.00" dy="2.8">6kA</tspan></text>
  <text x="129.50" y="75.04" font-family="Arial, Helvetica, sans-serif" font-size="2.8" fill="#000000" transform="rotate(-90.0,129.50,73.92)">1 NO. LIGHTING 1</text>
  <text x="163.20" y="116.06" font-family="Arial, Helvetica, sans-serif" font-size="2.2" fill="#000000" transform="rotate(-90.0,163.20,115.18)">L2S1</text>
  <path d="M 162.55,107.14 A 3.75,3.75 0 0,0 162.55,100.46" stroke="#000000" stroke-width="0.25" fill="none" />
  <circle cx="161.51" cy="100.46" r="0.66" stroke="#000000" stroke-width="0.25" fill="none" />
  <circle cx="161.52" cy="107.14" r="0.66" stroke="#000000" stroke-width="0.25" fill="none" />
  <line x1="161.70" y1="107.80" x2="161.70" y2="109.80" stroke="#000000" stroke-width="0.25" fill="none" />
  <line x1="161.70" y1="99.80" x2="161.70" y2="97.80" stroke="#000000" stroke-width="0.25" fill="none" />
  <line x1="132.39" y1="103.80" x2="164.59" y2="103.80" stroke="#000000" stroke-width="0.25" fill="none" />
  <line x1="164.59" y1="103.80" x2="163.39" y2="103.20" stroke="#000000" stroke-width="0.25" fill="none" />
  <line x1="164.59" y1="103.80" x2="163.39" y2="104.40" stroke="#000000" stroke-width="0.25" fill="none" />
  <text x="161.70" y="75.04" font-family="Arial, Helvetica, sans-serif" font-size="2.8" fill="#000000" transform="rotate(-90.0,161.70,73.92)">1 NO. LIGHTING 2</text>
  <text x="195.40" y="116.06" font-family="Arial, Helvetica, sans-serif" font-size="2.2" fill="#000000" transform="rotate(-90.0,195.40,115.18)">L3S1</text>
  <path d="M 194.75,107.14 A 3.75,3.75 0 0,0 194.75,100.46" stroke="#000000" stroke-width="0.25" fill="none" />
  <circle cx="193.71" cy="100.46" r="0.66" stroke="#000000" stroke-width="0.25" fill="none" />
  <circle cx="193.72" cy="107.14" r="0.66" stroke="#000000" stroke-width="0.25" fill="none" />
  <line x1="193.90" y1="107.80" x2="193.90" y2="109.80" stroke="#000000" stroke-width="0.25" fill="none" />
  <line x1="193.90" y1="99.80" x2="193.90" y2="97.80" stroke="#000000" stroke-width="0.25" fill="none" />
  <line x1="164.59" y1="103.80" x2="196.79" y2="103.80" stroke="#000000" stroke-width="0.25" fill="none" />
  <line x1="196.79" y1="103.80" x2="195.59" y2="103.20" stroke="#000000" stroke-width="0.25" fill="none" />
  <line x1="196.79" y1="103.80" x2="195.59" y2="104.40" stroke="#000000" stroke-width="0.25" fill="none" />
  <text x="193.90" y="75.04" font-family="Arial, Helvetica, sans-serif" font-size="2.8" fill="#000000" transform="rotate(-90.0,193.90,73.92)">1 NO. LIGHTING 3</text>
  <text x="233.60" y="116.06" font-family="Arial, Helvetica, sans-serif" font-size="2.2" fill="#000000" transform="rotate(-90.0,233.60,115.18)">L1P1</text>
  <path d="M 232.95,107.14 A 3.75,3.75 0 0,0 232.95,100.46" stroke="#000000" stroke-width="0.25" fill="none" />
  <circle cx="231.91" cy="100.46" r="0.66" stroke="#000000" stroke-width="0.25" fill="none" />
  <circle cx="231.92" cy="107.14" r="0.66" stroke="#000000" stroke-width="0.25" fill="none" />
  <line x1="232.10" y1="107.80" x2="232.10" y2="109.80" stroke="#000000" stroke-width="0.25" fill="none" />
  <line x1="232.10" y1="99.80" x2="232.10" y2="97.80" stroke="#000000" stroke-width="0.25" fill="none" />
  <line x1="228.99" y1="103.80" x2="234.99" y2="103.80" stroke="#000000" stroke-width="0.25" fill="none" />
  <line x1="234.99" y1="103.80" x2="233.79" y2="103.20" stroke="#000000" stroke-width="0.25" fill="none" />
  <line x1="234.99" y1="103.80" x2="233.79" y2="104.40" stroke="#000000" stroke-width="0.25" fill="none" />
  <text x="223.60" y="102.40" font-family="Arial, Helvetica, sans-serif" font-size="2.0" fill="#000000"><tspan x="223.60">B20A</tspan><tspan x="223.60" dy="2.8">SPN</tspan><tspan x="223.60" dy="2.8">MCB</tspan><tspan x="223.60" dy="2.8">6kA</tspan></text>
  <text x="232.10" y="75.04" font-family="Arial, Helvetica, sans-serif" font-size="2.8" fill="#000000" transform="rotate(-90.0,232.10,73.92)">1 NO. POWER 1</text>
  <text x="265.80" y="116.06" font-family="Arial, Helvetica, sans-serif" font-size="2.2" fill="#000000" transform="rotate(-90.0,265.80,115.18)">L2P1</text>
  <path d="M 265.15,107.14 A 3.75,3.75 0 0,0 265.15,100.46" stroke="#000000" stroke-width="0.25" fill="none" />
  <circle cx="264.11" cy="100.46" r="0.66" stroke="#000000" stroke-width="0.25" fill="none" />
  <circle cx="264.12" cy="107.14" r="0.66" stroke="#000000" stroke-width="0.25" fill="none" />
  <line x1="264.30" y1="107.80" x2="264.30" y2="109.80" stroke="#000000" stroke-width="0.25" fill="none" />
  <line x1="264.30" y1="99.80" x2="264.30" y2="97.80" stroke="#000000" stroke-width="0.25" fill="none" />
  <line x1="234.99" y1="103.80" x2="267.19" y2="103.80" stroke="#000000" stroke-width="0.25" fill="none" />
  <line x1="267.19" y1="103.80" x2="265.99" y2="103.20" stroke="#000000" stroke-width="0.25" fill="none" />
  <line x1="267.19" y1="103.80" x2="265.99" y2="104.40" stroke="#000000" stroke-width="0.25" fill="none" />
  <text x="264.30" y="75.04" font-family="Arial, Helvetica, sans-serif" font-size="2.8" fill="#000000" transform="rotate(-90.0,264.30,73.92)">1 NO. POWER 2</text>
  <text x="298.00" y="116.06" font-family="Arial, Helvetica, sans-serif" font-size="2.2" fill="#000000" transform="rotate(-90.0,298.00,115.18)">L3P1</text>
  <path d="M 297.35,107.14 A 3.75,3.75 0 0,0 297.35,100.46" stroke="#000000" stroke-width="0.25" fill="none" />
  <circle cx="296.31" cy="100.46" r="0.66" stroke="#000000" stroke-width="0.25" fill="none" />
  <circle cx="296.32" cy="107.14" r="0.66" stroke="#000000" stroke-width="0.25" fill="none" />
  <line x1="296.50" y1="107.80" x2="296.50" y2="109.80" stroke="#000000" stroke-width="0.25" fill="none" />
  <line x1="296.50" y1="99.80" x2="296.50" y2="97.80" stroke="#000000" stroke-width="0.25" fill="none" />
  <line x1="267.19" y1="103.80" x2="299.39" y2="103.80" stroke="#000000" stroke-width="0.25" fill="none" />
  <line x1="299.39" y1="103.80" x2="298.19" y2="103.20" stroke="#000000" stroke-width="0.25" fill="none" />
  <line x1="299.39" y1="103.80" x2="298.19" y2="104.40" stroke="#000000" stroke-width="0.25" fill="none" />
  <text x="296.50" y="75.04" font-family="Arial, Helvetica, sans-serif" font-size="2.8" fill="#000000" transform="rotate(-90.0,296.50,73.92)">SPARE</text>
  <text x="118.10" y="75.04" font-family="Arial, Helvetica, sans-serif" font-size="2.8" fill="#000000" transform="rotate(-90.0,118.10,73.92)">2 x 1C 1.5sqmm PVC +</text>
  <text x="122.02" y="75.04" font-family="Arial, Helvetica, sans-serif" font-size="2.8" fill="#000000" transform="rotate(-90.0,122.02,73.92)">1.5sqmm PVC CPC</text>
  <text x="272.90" y="75.04" font-family="Arial, Helvetica, sans-serif" font-size="2.8" fill="#000000" transform="rotate(-90.0,272.90,73.92)">2 x 1C 2.5sqmm PVC +</text>
  <text x="276.82" y="75.04" font-family="Arial, Helvetica, sans-serif" font-size="2.8" fill="#000000" transform="rotate(-90.0,276.82,73.92)">2.5sqmm PVC CPC</text>
  <text x="112.00" y="156.20" font-family="Arial, Helvetica, sans-serif" font-size="3.0" fill="#000000">63A DB</text>
  <text x="112.00" y="159.24" font-family="Arial, Helvetica, sans-serif" font-size="1.8" fill="#000000">APPROVED LOAD: 45 KVA AT 400V</text>
  <line x1="303.60" y1="164.80" x2="303.60" y2="166.60" stroke="#000000" stroke-width="0.25" fill="none" />
  <line x1="301.35" y1="166.60" x2="305.85" y2="166.60" stroke="#000000" stroke-width="0.25" fill="none" />
  <line x1="302.10" y1="167.72" x2="305.10" y2="167.72" stroke="#000000" stroke-width="0.25" fill="none" />
  <line x1="302.85" y1="168.85" x2="304.35" y2="168.85" stroke="#000000" stroke-width="0.25" fill="none" />
  <text x="308.85" y="166.33" font-family="Arial, Helvetica, sans-serif" font-size="1.6" fill="#000000">E</text>
  <text x="111.89" y="174.64" font-family="Arial, Helvetica, sans-serif" font-size="2.8" fill="#000000"><tspan x="111.89">4 x 1C 16sqmm PVC/PVC +</tspan><tspan x="111.89" dy="3.9">16sqmm PVC CPC IN METAL TRUNKING</tspan></text>
  <line x1="210.00" y1="193.40" x2="216.00" y2="193.40" stroke="#000000" stroke-width="0.25" fill="none" />
  <line x1="223.00" y1="193.40" x2="238.50" y2="193.40" stroke="#000000" stroke-width="0.25" fill="none" />
  <line x1="250.50" y1="193.40" x2="265.50" y2="193.40" stroke="#000000" stroke-width="0.25" fill="none" />
  <line x1="273.50" y1="193.40" x2="299.94" y2="193.40" stroke="#000000" stroke-width="0.25" fill="none" />
  <line x1="289.94" y1="193.40" x2="289.94" y2="203.40" stroke="#000000" stroke-width="0.25" fill="none" />
  <line x1="210.00" y1="193.40" x2="210.00" y2="165.80" stroke="#000000" stroke-width="0.25" fill="none" />
  <line x1="284.94" y1="205.18" x2="288.94" y2="205.18" stroke="#000000" stroke-width="0.25" fill="none" />
  <line x1="288.94" y1="205.18" x2="288.94" y2="210.68" stroke="#000000" stroke-width="0.25" fill="none" />
  <line x1="210.00" y1="165.80" x2="210.00" y2="151.80" stroke="#000000" stroke-width="0.25" fill="none" />
  <line x1="210.00" y1="153.80" x2="210.00" y2="151.80" stroke="#000000" stroke-width="0.25" fill="none" />
  <line x1="210.00" y1="142.80" x2="210.00" y2="140.80" stroke="#000000" stroke-width="0.25" fill="none" />
  <line x1="210.00" y1="140.80" x2="210.00" y2="135.80" stroke="#000000" stroke-width="0.25" fill="none" />
  <line x1="210.00" y1="137.80" x2="210.00" y2="135.80" stroke="#000000" stroke-width="0.25" fill="none" />
  <line x1="210.00" y1="126.80" x2="210.00" y2="124.80" stroke="#000000" stroke-width="0.25" fill="none" />
  <line x1="210.00" y1="124.80" x2="210.00" y2="119.80" stroke="#000000" stroke-width="0.25" fill="none" />
  <line x1="129.50" y1="111.23" x2="129.50" y2="107.80" stroke="#000000" stroke-width="0.25" fill="none" />
  <line x1="129.50" y1="99.80" x2="129.50" y2="97.80" stroke="#000000" stroke-width="0.25" fill="none" />
  <line x1="129.50" y1="97.80" x2="129.50" y2="74.80" stroke="#000000" stroke-width="0.25" fill="none" />
  <line x1="161.70" y1="119.80" x2="161.70" y2="107.80" stroke="#000000" stroke-width="0.25" fill="none" />
  <line x1="161.70" y1="99.80" x2="161.70" y2="97.80" stroke="#000000" stroke-width="0.25" fill="none" />
  <line x1="161.70" y1="97.80" x2="161.70" y2="74.80" stroke="#000000" stroke-width="0.25" fill="none" />
  <line x1="193.90" y1="111.23" x2="193.90" y2="107.80" stroke="#000000" stroke-width="0.25" fill="none" />
  <line x1="193.90" y1="99.80" x2="193.90" y2="97.80" stroke="#000000" stroke-width="0.25" fill="none" />
  <line x1="193.90" y1="97.80" x2="193.90" y2="74.80" stroke="#000000" stroke-width="0.25" fill="none" />
  <line x1="232.10" y1="111.23" x2="232.10" y2="107.80" stroke="#000000" stroke-width="0.25" fill="none" />
  <line x1="232.10" y1="99.80" x2="232.10" y2="97.80" stroke="#000000" stroke-width="0.25" fill="none" />
  <line x1="232.10" y1="97.80" x2="232.10" y2="74.80" stroke="#000000" stroke-width="0.25" fill="none" />
  <line x1="264.30" y1="119.80" x2="264.30" y2="107.80" stroke="#000000" stroke-width="0.25" fill="none" />
  <line x1="264.30" y1="99.80" x2="264.30" y2="97.80" stroke="#000000" stroke-width="0.25" fill="none" />
  <line x1="264.30" y1="97.80" x2="264.30" y2="74.80" stroke="#000000" stroke-width="0.25" fill="none" />
  <line x1="296.50" y1="111.23" x2="296.50" y2="107.80" stroke="#000000" stroke-width="0.25" fill="none" />
  <line x1="296.50" y1="99.80" x2="296.50" y2="97.80" stroke="#000000" stroke-width="0.25" fill="none" />
  <line x1="296.50" y1="97.80" x2="296.50" y2="74.80" stroke="#000000" stroke-width="0.25" fill="none" />
  <line x1="119.50" y1="79.80" x2="119.50" y2="74.80" stroke="#000000" stroke-width="0.25" fill="none" />
  <line x1="274.30" y1="79.80" x2="274.30" y2="74.80" stroke="#000000" stroke-width="0.25" fill="none" />
  <line x1="303.60" y1="161.80" x2="303.60" y2="164.80" stroke="#000000" stroke-width="0.25" fill="none" />
  <line x1="288.44" y1="194.90" x2="291.44" y2="191.90" stroke="#000000" stroke-width="0.50" fill="none" />
  <line x1="208.75" y1="175.05" x2="211.25" y2="172.55" stroke="#000000" stroke-width="0.50" fill="none" />
  <line x1="128.25" y1="81.05" x2="130.75" y2="78.55" stroke="#000000" stroke-width="0.50" fill="none" />
  <line x1="160.45" y1="81.05" x2="162.95" y2="78.55" stroke="#000000" stroke-width="0.50" fill="none" />
  <line x1="192.65" y1="81.05" x2="195.15" y2="78.55" stroke="#000000" stroke-width="0.50" fill="none" />
  <line x1="230.85" y1="81.05" x2="233.35" y2="78.55" stroke="#000000" stroke-width="0.50" fill="none" />
  <line x1="263.05" y1="81.05" x2="265.55" y2="78.55" stroke="#000000" stroke-width="0.50" fill="none" />
  <line x1="289.94" y1="203.40" x2="292.94" y2="203.40" stroke="#000000" stroke-width="0.25" fill="none" />
  <line x1="210.00" y1="173.80" x2="198.00" y2="173.80" stroke="#000000" stroke-width="0.25" fill="none" />
  <line x1="119.50" y1="79.80" x2="193.90" y2="79.80" stroke="#000000" stroke-width="0.25" fill="none" />
  <line x1="232.10" y1="79.80" x2="274.30" y2="79.80" stroke="#000000" stroke-width="0.25" fill="none" />
  <line x1="161.70" y1="119.80" x2="129.50" y2="111.23" stroke="#000000" stroke-width="0.25" fill="none" />
  <line x1="161.70" y1="119.80" x2="193.90" y2="111.23" stroke="#000000" stroke-width="0.25" fill="none" />
  <line x1="264.30" y1="119.80" x2="232.10" y2="111.23" stroke="#000000" stroke-width="0.25" fill="none" />
  <line x1="264.30" y1="119.80" x2="296.50" y2="111.23" stroke="#000000" stroke-width="0.25" fill="none" />
  <line x1="212.00" y1="208.18" x2="220.00" y2="208.18" stroke="#808080" stroke-width="0.25" fill="none" />
  <line x1="222.00" y1="208.18" x2="223.50" y2="208.18" stroke="#808080" stroke-width="0.25" fill="none" />
  <line x1="225.50" y1="208.18" x2="233.50" y2="208.18" stroke="#808080" stroke-width="0.25" fill="none" />
  <line x1="235.50" y1="208.18" x2="237.00" y2="208.18" stroke="#808080" stroke-width="0.25" fill="none" />
  <line x1="239.00" y1="208.18" x2="247.00" y2="208.18" stroke="#808080" stroke-width="0.25" fill="none" />
  <line x1="249.00" y1="208.18" x2="250.50" y2="208.18" stroke="#808080" stroke-width="0.25" fill="none" />
  <line x1="252.50" y1="208.18" x2="260.50" y2="208.18" stroke="#808080" stroke-width="0.25" fill="none" />
  <line x1="262.50" y1="208.18" x2="264.00" y2="208.18" stroke="#808080" stroke-width="0.25" fill="none" />
  <line x1="266.00" y1="208.18" x2="274.00" y2="208.18" stroke="#808080" stroke-width="0.25" fill="none" />
  <line x1="276.00" y1="208.18" x2="277.50" y2="208.18" stroke="#808080" stroke-width="0.25" fill="none" />
  <line x1="279.50" y1="208.18" x2="284.94" y2="208.18" stroke="#808080" stroke-width="0.25" fill="none" />
  <line x1="212.00" y1="181.80" x2="220.00" y2="181.80" stroke="#808080" stroke-width="0.25" fill="none" />
  <line x1="222.00" y1="181.80" x2="223.50" y2="181.80" stroke="#808080" stroke-width="0.25" fill="none" />
  <line x1="225.50" y1="181.80" x2="233.50" y2="181.80" stroke="#808080" stroke-width="0.25" fill="none" />
  <line x1="235.50" y1="181.80" x2="237.00" y2="181.80" stroke="#808080" stroke-width="0.25" fill="none" />
  <line x1="239.00" y1="181.80" x2="247.00" y2="181.80" stroke="#808080" stroke-width="0.25" fill="none" />
  <line x1="249.00" y1="181.80" x2="250.50" y2="181.80" stroke="#808080" stroke-width="0.25" fill="none" />
  <line x1="252.50" y1="181.80" x2="260.50" y2="181.80" stroke="#808080" stroke-width="0.25" fill="none" />
  <line x1="262.50" y1="181.80" x2="264.00" y2="181.80" stroke="#808080" stroke-width="0.25" fill="none" />
  <line x1="266.00" y1="181.80" x2="274.00" y2="181.80" stroke="#808080" stroke-width="0.25" fill="none" />
  <line x1="276.00" y1="181.80" x2="277.50" y2="181.80" stroke="#808080" stroke-width="0.25" fill="none" />
  <line x1="279.50" y1="181.80" x2="284.94" y2="181.80" stroke="#808080" stroke-width="0.25" fill="none" />
  <line x1="212.00" y1="208.18" x2="212.00" y2="200.18" stroke="#808080" stroke-width="0.25" fill="none" />
  <line x1="212.00" y1="198.18" x2="212.00" y2="196.68" stroke="#808080" stroke-width="0.25" fill="none" />
  <line x1="212.00" y1="194.68" x2="212.00" y2="186.68" stroke="#808080" stroke-width="0.25" fill="none" />
  <line x1="212.00" y1="184.68" x2="212.00" y2="183.18" stroke="#808080" stroke-width="0.25" fill="none" />
  <line x1="284.94" y1="208.18" x2="284.94" y2="200.18" stroke="#808080" stroke-width="0.25" fill="none" />
  <line x1="284.94" y1="198.18" x2="284.94" y2="196.68" stroke="#808080" stroke-width="0.25" fill="none" />
  <line x1="284.94" y1="194.68" x2="284.94" y2="186.68" stroke="#808080" stroke-width="0.25" fill="none" />
  <line x1="284.94" y1="184.68" x2="284.94" y2="183.18" stroke="#808080" stroke-width="0.25" fill="none" />
  <line x1="106.00" y1="161.80" x2="114.00" y2="161.80" stroke="#808080" stroke-width="0.25" fill="none" />
  <line x1="116.00" y1="161.80" x2="117.50" y2="161.80" stroke="#808080" stroke-width="0.25" fill="none" />
  <line x1="119.50" y1="161.80" x2="127.50" y2="161.80" stroke="#808080" stroke-width="0.25" fill="none" />
  <line x1="129.50" y1="161.80" x2="131.00" y2="161.80" stroke="#808080" stroke-width="0.25" fill="none" />
  <line x1="133.00" y1="161.80" x2="141.00" y2="161.80" stroke="#808080" stroke-width="0.25" fill="none" />
  <line x1="143.00" y1="161.80" x2="144.50" y2="161.80" stroke="#808080" stroke-width="0.25" fill="none" />
  <line x1="146.50" y1="161.80" x2="154.50" y2="161.80" stroke="#808080" stroke-width="0.25" fill="none" />
  <line x1="156.50" y1="161.80" x2="158.00" y2="161.80" stroke="#808080" stroke-width="0.25" fill="none" />
  <line x1="160.00" y1="161.80" x2="168.00" y2="161.80" stroke="#808080" stroke-width="0.25" fill="none" />
  <line x1="170.00" y1="161.80" x2="171.50" y2="161.80" stroke="#808080" stroke-width="0.25" fill="none" />
  <line x1="173.50" y1="161.80" x2="181.50" y2="161.80" stroke="#808080" stroke-width="0.25" fill="none" />
  <line x1="183.50" y1="161.80" x2="185.00" y2="161.80" stroke="#808080" stroke-width="0.25" fill="none" />
  <line x1="187.00" y1="161.80" x2="195.00" y2="161.80" stroke="#808080" stroke-width="0.25" fill="none" />
  <line x1="197.00" y1="161.80" x2="198.50" y2="161.80" stroke="#808080" stroke-width="0.25" fill="none" />
  <line x1="200.50" y1="161.80" x2="208.50" y2="161.80" stroke="#808080" stroke-width="0.25" fill="none" />
  <line x1="210.50" y1="161.80" x2="212.00" y2="161.80" stroke="#808080" stroke-width="0.25" fill="none" />
  <line x1="214.00" y1="161.80" x2="222.00" y2="161.80" stroke="#808080" stroke-width="0.25" fill="none" />
  <line x1="224.00" y1="161.80" x2="225.50" y2="161.80" stroke="#808080" stroke-width="0.25" fill="none" />
  <line x1="227.50" y1="161.80" x2="235.50" y2="161.80" stroke="#808080" stroke-width="0.25" fill="none" />
  <line x1="237.50" y1="161.80" x2="239.00" y2="161.80" stroke="#808080" stroke-width="0.25" fill="none" />
  <line x1="241.00" y1="161.80" x2="249.00" y2="161.80" stroke="#808080" stroke-width="0.25" fill="none" />
  <line x1="251.00" y1="161.80" x2="252.50" y2="161.80" stroke="#808080" stroke-width="0.25" fill="none" />
  <line x1="254.50" y1="161.80" x2="262.50" y2="161.80" stroke="#808080" stroke-width="0.25" fill="none" />
  <line x1="264.50" y1="161.80" x2="266.00" y2="161.80" stroke="#808080" stroke-width="0.25" fill="none" />
  <line x1="268.00" y1="161.80" x2="276.00" y2="161.80" stroke="#808080" stroke-width="0.25" fill="none" />
  <line x1="278.00" y1="161.80" x2="279.50" y2="161.80" stroke="#808080" stroke-width="0.25" fill="none" />
  <line x1="281.50" y1="161.80" x2="289.50" y2="161.80" stroke="#808080" stroke-width="0.25" fill="none" />
  <line x1="291.50" y1="161.80" x2="293.00" y2="161.80" stroke="#808080" stroke-width="0.25" fill="none" />
  <line x1="295.00" y1="161.80" x2="303.00" y2="161.80" stroke="#808080" stroke-width="0.25" fill="none" />
  <line x1="305.00" y1="161.80" x2="306.50" y2="161.80" stroke="#808080" stroke-width="0.25" fill="none" />
  <line x1="308.50" y1="161.80" x2="314.00" y2="161.80" stroke="#808080" stroke-width="0.25" fill="none" />
  <line x1="106.00" y1="89.80" x2="114.00" y2="89.80" stroke="#808080" stroke-width="0.25" fill="none" />
  <line x1="116.00" y1="89.80" x2="117.50" y2="89.80" stroke="#808080" stroke-width="0.25" fill="none" />
  <line x1="119.50" y1="89.80" x2="127.50" y2="89.80" stroke="#808080" stroke-width="0.25" fill="none" />
  <line x1="129.50" y1="89.80" x2="131.00" y2="89.80" stroke="#808080" stroke-width="0.25" fill="none" />
  <line x1="133.00" y1="89.80" x2="141.00" y2="89.80" stroke="#808080" stroke-width="0.25" fill="none" />
  <line x1="143.00" y1="89.80" x2="144.50" y2="89.80" stroke="#808080" stroke-width="0.25" fill="none" />
  <line x1="146.50" y1="89.80" x2="154.50" y2="89.80" stroke="#808080" stroke-width="0.25" fill="none" />
  <line x1="156.50" y1="89.80" x2="158.00" y2="89.80" stroke="#808080" stroke-width="0.25" fill="none" />
  <line x1="160.00" y1="89.80" x2="168.00" y2="89.80" stroke="#808080" stroke-width="0.25" fill="none" />
  <line x1="170.00" y1="89.80" x2="171.50" y2="89.80" stroke="#808080" stroke-width="0.25" fill="none" />
  <line x1="173.50" y1="89.80" x2="181.50" y2="89.80" stroke="#808080" stroke-width="0.25" fill="none" />
  <line x1="183.50" y1="89.80" x2="185.00" y2="89.80" stroke="#808080" stroke-width="0.25" fill="none" />
  <line x1="187.00" y1="89.80" x2="195.00" y2="89.80" stroke="#808080" stroke-width="0.25" fill="none" />
  <line x1="197.00" y1="89.80" x2="198.50" y2="89.80" stroke="#808080" stroke-width="0.25" fill="none" />
  <line x1="200.50" y1="89.80" x2="208.50" y2="89.80" stroke="#808080" stroke-width="0.25" fill="none" />
  <line x1="210.50" y1="89.80" x2="212.00" y2="89.80" stroke="#808080" stroke-width="0.25" fill="none" />
  <line x1="214.00" y1="89.80" x2="222.00" y2="89.80" stroke="#808080" stroke-width="0.25" fill="none" />
  <line x1="224.00" y1="89.80" x2="225.50" y2="89.80" stroke="#808080" stroke-width="0.25" fill="none" />
  <line x1="227.50" y1="89.80" x2="235.50" y2="89.80" stroke="#808080" stroke-width="0.25" fill="none" />
  <line x1="237.50" y1="89.80" x2="239.00" y2="89.80" stroke="#808080" stroke-width="0.25" fill="none" />
  <line x1="241.00" y1="89.80" x2="249.00" y2="89.80" stroke="#808080" stroke-width="0.25" fill="none" />
  <line x1="251.00" y1="89.80" x2="252.50" y2="89.80" stroke="#808080" stroke-width="0.25" fill="none" />
  <line x1="254.50" y1="89.80" x2="262.50" y2="89.80" stroke="#808080" stroke-width="0.25" fill="none" />
  <line x1="264.50" y1="89.80" x2="266.00" y2="89.80" stroke="#808080" stroke-width="0.25" fill="none" />
  <line x1="268.00" y1="89.80" x2="276.00" y2="89.80" stroke="#808080" stroke-width="0.25" fill="none" />
  <line x1="278.00" y1="89.80" x2="279.50" y2="89.80" stroke="#808080" stroke-width="0.25" fill="none" />
  <line x1="281.50" y1="89.80" x2="289.50" y2="89.80" stroke="#808080" stroke-width="0.25" fill="none" />
  <line x1="291.50" y1="89.80" x2="293.00" y2="89.80" stroke="#808080" stroke-width="0.25" fill="none" />
  <line x1="295.00" y1="89.80" x2="303.00" y2="89.80" stroke="#808080" stroke-width="0.25" fill="none" />
  <line x1="305.00" y1="89.80" x2="306.50" y2="89.80" stroke="#808080" stroke-width="0.25" fill="none" />
  <line x1="308.50" y1="89.80" x2="314.00" y2="89.80" stroke="#808080" stroke-width="0.25" fill="none" />
  <line x1="106.00" y1="161.80" x2="106.00" y2="153.80" stroke="#808080" stroke-width="0.25" fill="none" />
  <line x1="106.00" y1="151.80" x2="106.00" y2="150.30" stroke="#808080" stroke-width="0.25" fill="none" />
  <line x1="106.00" y1="148.30" x2="106.00" y2="140.30" stroke="#808080" stroke-width="0.25" fill="none" />
  <line x1="106.00" y1="138.30" x2="106.00" y2="136.80" stroke="#808080" stroke-width="0.25" fill="none" />
  <line x1="106.00" y1="134.80" x2="106.00" y2="126.80" stroke="#808080" stroke-width="0.25" fill="none" />
  <line x1="106.00" y1="124.80" x2="106.00" y2="123.30" stroke="#808080" stroke-width="0.25" fill="none" />
  <line x1="106.00" y1="121.30" x2="106.00" y2="113.30" stroke="#808080" stroke-width="0.25" fill="none" />
  <line x1="106.00" y1="111.30" x2="106.00" y2="109.80" stroke="#808080" stroke-width="0.25" fill="none" />
  <line x1="106.00" y1="107.80" x2="106.00" y2="99.80" stroke="#808080" stroke-width="0.25" fill="none" />
  <line x1="106.00" y1="97.80" x2="106.00" y2="96.30" stroke="#808080" stroke-width="0.25" fill="none" />
  <line x1="106.00" y1="94.30" x2="106.00" y2="89.80" stroke="#808080" stroke-width="0.25" fill="none" />
  <line x1="314.00" y1="161.80" x2="314.00" y2="153.80" stroke="#808080" stroke-width="0.25" fill="none" />
  <line x1="314.00" y1="151.80" x2="314.00" y2="150.30" stroke="#808080" stroke-width="0.25" fill="none" />
  <line x1="314.00" y1="148.30" x2="314.00" y2="140.30" stroke="#808080" stroke-width="0.25" fill="none" />
  <line x1="314.00" y1="138.30" x2="314.00" y2="136.80" stroke="#808080" stroke-width="0.25" fill="none" />
  <line x1="314.00" y1="134.80" x2="314.00" y2="126.80" stroke="#808080" stroke-width="0.25" fill="none" />
  <line x1="314.00" y1="124.80" x2="314.00" y2="123.30" stroke="#808080" stroke-width="0.25" fill="none" />
  <line x1="314.00" y1="121.30" x2="314.00" y2="113.30" stroke="#808080" stroke-width="0.25" fill="none" />
  <line x1="314.00" y1="111.30" x2="314.00" y2="109.80" stroke="#808080" stroke-width="0.25" fill="none" />
  <line x1="314.00" y1="107.80" x2="314.00" y2="99.80" stroke="#808080" stroke-width="0.25" fill="none" />
  <line x1="314.00" y1="97.80" x2="314.00" y2="96.30" stroke="#808080" stroke-width="0.25" fill="none" />
  <line x1="314.00" y1="94.30" x2="314.00" y2="89.80" stroke="#808080" stroke-width="0.25" fill="none" />
  <circle cx="284.94" cy="205.18" r="0.50" fill="rgb(0,0,0)" stroke="none" />
  <circle cx="161.70" cy="119.80" r="0.50" fill="rgb(0,0,0)" stroke="none" />
  <circle cx="161.70" cy="119.80" r="0.50" fill="rgb(0,0,0)" stroke="none" />
  <circle cx="161.70" cy="119.80" r="0.50" fill="rgb(0,0,0)" stroke="none" />
  <circle cx="264.30" cy="119.80" r="0.50" fill="rgb(0,0,0)" stroke="none" />
  <circle cx="264.30" cy="119.80" r="0.50" fill="rgb(0,0,0)" stroke="none" />
  <circle cx="264.30" cy="119.80" r="0.50" fill="rgb(0,0,0)" stroke="none" />
  <circle cx="303.60" cy="161.80" r="0.50" fill="rgb(0,0,0)" stroke="none" />
  <text x="13.00" y="264.40" font-family="Arial, Helvetica, sans-serif" font-size="3.0" fill="#000000">Electrical Installation</text>
  <text x="153.00" y="264.40" font-family="Arial, Helvetica, sans-serif" font-size="3.0" fill="#000000">LicenseKaki</text>
  <text x="225.00" y="263.80" font-family="Arial, Helvetica, sans-serif" font-size="3.5" fill="#000000"><tspan x="225.00">SINGLE LINE DIAGRAM</tspan><tspan x="225.00" dy="4.9">(SLD)</tspan></text>
  <text x="389.00" y="266.00" font-family="Arial, Helvetica, sans-serif" font-size="2.5" fill="#000000">DATE</text>
  <text x="365.00" y="278.00" font-family="Arial, Helvetica, sans-serif" font-size="2.5" fill="#000000"></text>
  <text x="394.00" y="278.80" font-family="Arial, Helvetica, sans-serif" font-size="3.5" fill="#000000">0</text>
  <text x="365.00" y="286.28" font-family="Arial, Helvetica, sans-serif" font-size="1.6" fill="#000000">SCALE : NTS</text>
  <text x="389.00" y="286.28" font-family="Arial, Helvetica, sans-serif" font-size="1.6" fill="#000000">SHEET : 1 OF 1</text>
</svg>