<svg xmlns="http://www.w3.org/2000/svg" viewBox="0 0 420.0 297.0" width="420.0mm" height="297.0mm">
  <rect width="420.0" height="297.0" fill="white" />
  <polygon points="10.00,287.00 410.00,287.00 410.00,10.00 10.00,10.00" stroke="#000000" stroke-width="0.25" fill="none" />
  <polygon points="10.00,287.00 410.00,287.00 410.00,255.00 10.00,255.00" stroke="#000000" stroke-width="0.25" fill="none" />
  <line x1="90.00" y1="255.00" x2="90.00" y2="287.00" stroke="#000000" stroke-width="0.25" fill="none" />
  <line x1="150.00" y1="255.00" x2="150.00" y2="287.00" stroke="#000000" stroke-width="0.25" fill="none" />
  <line x1="222.00" y1="255.00" x2="222.00" y2="287.00" stroke="#000000" stroke-width="0.25" fill="none" />
  <line x1="290.00" y1="255.00" x2="290.00" y2="287.00" stroke="#000000" stroke-width="0.25" fill="none" />
  <line x1="362.00" y1="255.00" x2="362.00" y2="287.00" stroke="#000000" stroke-width="0.25" fill="none" />
  <line x1="362.00" y1="270.00" x2="410.00" y2="270.00" stroke="#000000" stroke-width="0.25" fill="none" />
  <line x1="386.00" y1="255.00" x2="386.00" y2="287.00" stroke="#000000" stroke-width="0.25" fill="none" />
  <text x="12.00" y="258.94" font-family="Arial, Helvetica, sans-serif" font-size="1.8" fill="#000000">CLIENT / ADDRESS :</text>
  <text x="92.00" y="258.94" font-family="Arial, Helvetica, sans-serif" font-size="1.8" fill="#000000">MAIN CONTRACTOR :</text>
  <text x="152.00" y="258.94" font-family="Arial, Helvetica, sans-serif" font-size="1.8" fill="#000000">ELECTRICAL CONTRACTOR :</text>
  <text x="224.00" y="258.94" font-family="Arial, Helvetica, sans-serif" font-size="1.8" fill="#000000">DRAWING TITLE :</text>
  <text x="292.00" y="258.94" font-family="Arial, Helvetica, sans-serif" font-size="1.8" fill="#000000">LEW :</text>
  <text x="364.00" y="258.94" font-family="Arial, Helvetica, sans-serif" font-size="1.8" fill="#000000">CHECKED :</text>
  <text x="388.00" y="258.94" font-family="Arial, Helvetica, sans-serif" font-size="1.8" fill="#000000">DATE :</text>
  <text x="364.00" y="273.94" font-family="Arial, Helvetica, sans-serif" font-size="1.8" fill="#000000">DRAWING NO. :</text>
  <text x="388.00" y="273.94" font-family="Arial, Helvetica, sans-serif" font-size="1.8" fill="#000000">REV :</text>
  <text x="130.00" y="202.24" font-family="Arial, Helvetica, sans-serif" font-size="2.8" fill="#000000">FROM LANDLORD RISER</text>
  <text x="208.00" y="213.00" font-family="Arial, Helvetica, sans-serif" font-size="5.0" fill="#000000">~</text>
  <text x="202.00" y="216.24" font-family="Arial, Helvetica, sans-serif" font-size="2.8" fill="#000000">L1</text>
  <text x="206.00" y="216.24" font-family="Arial, Helvetica, sans-serif" font-size="2.8" fill="#000000">L2</text>
  <text x="210.00" y="216.24" font-family="Arial, Helvetica, sans-serif" font-size="2.8" fill="#000000">L3</text>
  <text x="214.00" y="216.24" font-family="Arial, Helvetica, sans-serif" font-size="2.8" fill="#000000">N</text>
  <text x="222.00" y="206.24" font-family="Arial, Helvetica, sans-serif" font-size="2.8" fill="#000000">4 x 1C 50sqmm XLPE + 25sqmm PVC CPC IN METAL TRUNKING</text>
  <circle cx="210.00" cy="198.30" r="0.70" stroke="#000000" stroke-width="0.25" fill="none" />
  <circle cx="210.00" cy="192.70" r="0.70" stroke="#000000" stroke-width="0.25" fill="none" />
  <polyline points="210.23,193.36 211.97,198.21" stroke="#000000" stroke-width="0.25" fill="none" />
  <text x="215.75" y="194.78" font-family="Arial, Helvetica, sans-serif" font-size="1.6" fill="#000000"><tspan x="215.75">100A 4P ISOLATOR</tspan><tspan x="215.75" dy="2.2">ISOLATOR</tspan></text>
  <line x1="219.03" y1="170.70" x2="222.47" y2="169.30" stroke="#000000" stroke-width="0.25" fill="none" />
  <line x1="219.03" y1="169.30" x2="222.47" y2="170.70" stroke="#000000" stroke-width="0.25" fill="none" />
  <circle cx="222.75" cy="170.00" r="0.75" stroke="#000000" stroke-width="0.25" fill="none" />
  <circle cx="218.75" cy="170.00" r="0.75" stroke="#000000" stroke-width="0.25" fill="none" />
  <text x="219.79" y="173.08" font-family="Arial, Helvetica, sans-serif" font-size="1.6" fill="#000000">2A</text>
  <circle cx="228.50" cy="170.00" r="2.00" stroke="#000000" stroke-width="0.25" fill="none" />
  <line x1="229.91" y1="168.59" x2="230.62" y2="167.88" stroke="#000000" stroke-width="0.25" fill="none" />
  <line x1="227.09" y1="168.59" x2="226.38" y2="167.88" stroke="#000000" stroke-width="0.25" fill="none" />
  <line x1="229.91" y1="171.41" x2="230.62" y2="172.12" stroke="#000000" stroke-width="0.25" fill="none" />
  <line x1="227.09" y1="171.41" x2="226.38" y2="172.12" stroke="#000000" stroke-width="0.25" fill="none" />
  <circle cx="234.50" cy="170.00" r="2.00" stroke="#000000" stroke-width="0.25" fill="none" />
  <line x1="235.91" y1="168.59" x2="236.62" y2="167.88" stroke="#000000" stroke-width="0.25" fill="none" />
  <line x1="233.09" y1="168.59" x2="232.38" y2="167.88" stroke="#000000" stroke-width="0.25" fill="none" />
  <line x1="235.91" y1="171.41" x2="236.62" y2="172.12" stroke="#000000" stroke-width="0.25" fill="none" />
  <line x1="233.09" y1="171.41" x2="232.38" y2="172.12" stroke="#000000" stroke-width="0.25" fill="none" />
  <circle cx="240.50" cy="170.00" r="2.00" stroke="#000000" stroke-width="0.25" fill="none" />
  <line x1="241.91" y1="168.59" x2="242.62" y2="167.88" stroke="#000000" stroke-width="0.25" fill="none" />
  <line x1="239.09" y1="168.59" x2="238.38" y2="167.88" stroke="#000000" stroke-width="0.25" fill="none" />
  <line x1="241.91" y1="171.41" x2="242.62" y2="172.12" stroke="#000000" stroke-width="0.25" fill="none" />
  <line x1="239.09" y1="171.41" x2="238.38" y2="172.12" stroke="#000000" stroke-width="0.25" fill="none" />
  <line x1="230.50" y1="170.00" x2="232.50" y2="170.00" stroke="#000000" stroke-width="0.25" fill="none" />
  <line x1="236.50" y1="170.00" x2="238.50" y2="170.00" stroke="#000000" stroke-width="0.25" fill="none" />
  <line x1="226.50" y1="170.00" x2="224.50" y2="170.00" stroke="#000000" stroke-width="0.25" fill="none" />
  <path d="M 210.96,168.26 A 4.22,4.22 0 0,0 210.96,160.74" stroke="#000000" stroke-width="0.25" fill="none" />
  <circle cx="209.78" cy="160.74" r="0.74" stroke="#000000" stroke-width="0.25" fill="none" />
  <circle cx="209.80" cy="168.26" r="0.74" stroke="#000000" stroke-width="0.25" fill="none" />
  <line x1="210.00" y1="169.00" x2="210.00" y2="171.00" stroke="#000000" stroke-width="0.25" fill="none" />
  <line x1="210.00" y1="160.00" x2="210.00" y2="158.00" stroke="#000000" stroke-width="0.25" fill="none" />
  <text x="215.75" y="163.78" font-family="Arial, Helvetica, sans-serif" font-size="1.6" fill="#000000">100A TPN MCCB (25KA)</text>
  <line x1="210.00" y1="157.65" x2="210.00" y2="159.15" stroke="#000000" stroke-width="0.25" fill="none" />
  <line x1="210.00" y1="155.35" x2="210.00" y2="153.85" stroke="#000000" stroke-width="0.25" fill="none" />
  <text x="214.25" y="155.78" font-family="Arial, Helvetica, sans-serif" font-size="1.6" fill="#000000"><tspan x="214.25">200/5A CT</tspan><tspan x="214.25" dy="2.2">5P10 20VA</tspan></text>
  <polygon points="183.00,159.50 195.00,159.50 195.00,153.50 183.00,153.50" stroke="#000000" stroke-width="0.25" fill="none" />
  <text x="187.11" y="157.34" font-family="Arial, Helvetica, sans-serif" font-size="2.1" fill="#000000">ELR</text>
  <line x1="195.00" y1="156.50" x2="197.00" y2="156.50" stroke="#000000" stroke-width="0.25" fill="none" />
  <line x1="189.00" y1="159.50" x2="189.00" y2="161.50" stroke="#000000" stroke-width="0.25" fill="none" />
  <line x1="210.00" y1="146.15" x2="210.00" y2="147.65" stroke="#000000" stroke-width="0.25" fill="none" />
  <line x1="210.00" y1="143.85" x2="210.00" y2="142.35" stroke="#000000" stroke-width="0.25" fill="none" />
  <text x="214.25" y="137.28" font-family="Arial, Helvetica, sans-serif" font-size="1.6" fill="#000000"><tspan x="214.25">200/5A</tspan><tspan x="214.25" dy="2.2">CL1 5VA</tspan></text>
  <circle cx="227.00" cy="130.52" r="2.00" stroke="#000000" stroke-width="0.25" fill="none" />
  <line x1="228.41" y1="129.11" x2="225.59" y2="131.93" stroke="#000000" stroke-width="0.25" fill="none" />
  <line x1="229.00" y1="130.52" x2="231.00" y2="130.52" stroke="#000000" stroke-width="0.25" fill="none" />
  <line x1="225.00" y1="130.52" x2="223.00" y2="130.52" stroke="#000000" stroke-width="0.25" fill="none" />
  <text x="225.56" y="127.70" font-family="Arial, Helvetica, sans-serif" font-size="1.6" fill="#000000">VSS</text>
  <circle cx="234.00" cy="130.52" r="2.00" stroke="#000000" stroke-width="0.25" fill="none" />
  <text x="233.28" y="131.48" font-family="Arial, Helvetica, sans-serif" font-size="2.4" fill="#000000">V</text>
  <line x1="232.00" y1="130.52" x2="230.00" y2="130.52" stroke="#000000" stroke-width="0.25" fill="none" />
  <text x="239.00" y="131.16" font-family="Arial, Helvetica, sans-serif" font-size="1.6" fill="#000000">0-500V</text>
  <circle cx="199.00" cy="139.00" r="2.00" stroke="#000000" stroke-width="0.25" fill="none" />
  <line x1="200.41" y1="137.59" x2="197.59" y2="140.41" stroke="#000000" stroke-width="0.25" fill="none" />
  <line x1="201.00" y1="139.00" x2="203.00" y2="139.00" stroke="#000000" stroke-width="0.25" fill="none" />
  <line x1="197.00" y1="139.00" x2="195.00" y2="139.00" stroke="#000000" stroke-width="0.25" fill="none" />
  <text x="197.56" y="136.18" font-family="Arial, Helvetica, sans-serif" font-size="1.6" fill="#000000">ASS</text>
  <circle cx="188.00" cy="139.00" r="2.00" stroke="#000000" stroke-width="0.25" fill="none" />
  <text x="187.28" y="139.96" font-family="Arial, Helvetica, sans-serif" font-size="2.4" fill="#000000">A</text>
  <line x1="190.00" y1="139.00" x2="192.00" y2="139.00" stroke="#000000" stroke-width="0.25" fill="none" />
  <text x="179.74" y="139.64" font-family="Arial, Helvetica, sans-serif" font-size="1.6" fill="#000000">0-200A</text>
  <polygon points="225.00,141.50 237.00,141.50 237.00,147.50 225.00,147.50" stroke="#000000" stroke-width="0.25" fill="none" />
  <text x="228.60" y="145.81" font-family="Arial, Helvetica, sans-serif" font-size="2.2" fill="#000000">KWH</text>
  <text x="240.50" y="142.78" font-family="Arial, Helvetica, sans-serif" font-size="1.6" fill="#000000"><tspan x="240.50">SPPG</tspan><tspan x="240.50" dy="2.2">KWH METER</tspan></text>
  <line x1="219.03" y1="135.70" x2="222.47" y2="134.30" stroke="#000000" stroke-width="0.25" fill="none" />
  <line x1="219.03" y1="134.30" x2="222.47" y2="135.70" stroke="#000000" stroke-width="0.25" fill="none" />
  <circle cx="222.75" cy="135.00" r="0.75" stroke="#000000" stroke-width="0.25" fill="none" />
  <circle cx="218.75" cy="135.00" r="0.75" stroke="#000000" stroke-width="0.25" fill="none" />
  <text x="219.79" y="138.08" font-family="Arial, Helvetica, sans-serif" font-size="1.6" fill="#000000">2A</text>
  <polygon points="206.50,131.00 213.50,131.00 213.50,125.50 206.50,125.50" stroke="#000000" stroke-width="0.25" fill="none" />
  <line x1="210.00" y1="125.50" x2="210.00" y2="124.00" stroke="#000000" stroke-width="0.25" fill="none" />
  <line x1="210.00" y1="131.00" x2="210.00" y2="132.50" stroke="#000000" stroke-width="0.25" fill="none" />
  <text x="216.50" y="127.53" font-family="Arial, Helvetica, sans-serif" font-size="1.6" fill="#000000">200A BI CONNECTOR</text>
  <line x1="64.50" y1="124.00" x2="375.00" y2="124.00" stroke="#000000" stroke-width="0.50" fill="none" />
  <text x="67.50" y="129.24" font-family="Arial, Helvetica, sans-serif" font-size="2.8" fill="#000000">200A BUSBAR</text>
  <text x="79.50" y="122.26" font-family="Arial, Helvetica, sans-serif" font-size="2.2" fill="#000000" transform="rotate(-90.0,79.50,120.50)">L1S1</text>
  <path d="M 78.85,111.34 A 3.75,3.75 0 0,0 78.85,104.66" stroke="#000000" stroke-width="0.25" fill="none" />
  <circle cx="77.81" cy="104.66" r="0.66" stroke="#000000" stroke-width="0.25" fill="none" />
  <circle cx="77.82" cy="111.34" r="0.66" stroke="#000000" stroke-width="0.25" fill="none" />
  <line x1="78.00" y1="112.00" x2="78.00" y2="114.00" stroke="#000000" stroke-width="0.25" fill="none" />
  <line x1="78.00" y1="104.00" x2="78.00" y2="102.00" stroke="#000000" stroke-width="0.25" fill="none" />
  <line x1="74.89" y1="108.00" x2="80.89" y2="108.00" stroke="#000000" stroke-width="0.25" fill="none" />
  <line x1="80.89" y1="108.00" x2="79.69" y2="107.40" stroke="#000000" stroke-width="0.25" fill="none" />
  <line x1="80.89" y1="108.00" x2="79.69" y2="108.60" stroke="#000000" stroke-width="0.25" fill="none" />
  <text x="69.50" y="106.60" font-family="Arial, Helvetica, sans-serif" font-size="2.0" fill="#000000">B10A</text>
  <text x="69.50" y="109.10" font-family="Arial, Helvetica, sans-serif" font-size="2.0" fill="#000000">SPN</text>
  <text x="69.50" y="111.60" font-family="Arial, Helvetica, sans-serif" font-size="2.0" fill="#000000">MCB</text>
  <text x="69.50" y="114.10" font-family="Arial, Helvetica, sans-serif" font-size="2.0" fill="#000000">6kA</text>
  <text x="78.00" y="79.24" font-family="Arial, Helvetica, sans-serif" font-size="2.8" fill="#000000" transform="rotate(-90.0,78.00,77.00)">1 NO. LIGHTS 1</text>
  <text x="112.50" y="122.26" font-family="Arial, Helvetica, sans-serif" font-size="2.2" fill="#000000" transform="rotate(-90.0,112.50,120.50)">L2S1</text>
  <path d="M 111.85,111.34 A 3.75,3.75 0 0,0 111.85,104.66" stroke="#000000" stroke-width="0.25" fill="none" />
  <circle cx="110.81" cy="104.66" r="0.66" stroke="#000000" stroke-width="0.25" fill="none" />
  <circle cx="110.82" cy="111.34" r="0.66" stroke="#000000" stroke-width="0.25" fill="none" />
  <line x1="111.00" y1="112.00" x2="111.00" y2="114.00" stroke="#000000" stroke-width="0.25" fill="none" />
  <line x1="111.00" y1="104.00" x2="111.00" y2="102.00" stroke="#000000" stroke-width="0.25" fill="none" />
  <line x1="80.89" y1="108.00" x2="113.89" y2="108.00" stroke="#000000" stroke-width="0.25" fill="none" />
  <line x1="113.89" y1="108.00" x2="112.69" y2="107.40" stroke="#000000" stroke-width="0.25" fill="none" />
  <line x1="113.89" y1="108.00" x2="112.69" y2="108.60" stroke="#000000" stroke-width="0.25" fill="none" />
  <text x="111.00" y="79.24" font-family="Arial, Helvetica, sans-serif" font-size="2.8" fill="#000000" transform="rotate(-90.0,111.00,77.00)">1 NO. LIGHTS 2</text>
  <text x="145.50" y="122.26" font-family="Arial, Helvetica, sans-serif" font-size="2.2" fill="#000000" transform="rotate(-90.0,145.50,120.50)">L3S1</text>
  <path d="M 144.85,111.34 A 3.75,3.75 0 0,0 144.85,104.66" stroke="#000000" stroke-width="0.25" fill="none" />
  <circle cx="143.81" cy="104.66" r="0.66" stroke="#000000" stroke-width="0.25" fill="none" />
  <circle cx="143.82" cy="111.34" r="0.66" stroke="#000000" stroke-width="0.25" fill="none" />
  <line x1="144.00" y1="112.00" x2="144.00" y2="114.00" stroke="#000000" stroke-width="0.25" fill="none" />
  <line x1="144.00" y1="104.00" x2="144.00" y2="102.00" stroke="#000000" stroke-width="0.25" fill="none" />
  <line x1="113.89" y1="108.00" x2="146.89" y2="108.00" stroke="#000000" stroke-width="0.25" fill="none" />
  <line x1="146.89" y1="108.00" x2="145.69" y2="107.40" stroke="#000000" stroke-width="0.25" fill="none" />
  <line x1="146.89" y1="108.00" x2="145.69" y2="108.60" stroke="#000000" stroke-width="0.25" fill="none" />
  <text x="144.00" y="79.24" font-family="Arial, Helvetica, sans-serif" font-size="2.8" fill="#000000" transform="rotate(-90.0,144.00,77.00)">1 NO. LIGHTS 3</text>
  <text x="184.50" y="122.26" font-family="Arial, Helvetica, sans-serif" font-size="2.2" fill="#000000" transform="rotate(-90.0,184.50,120.50)">L1P1</text>
  <path d="M 183.85,111.34 A 3.75,3.75 0 0,0 183.85,104.66" stroke="#000000" stroke-width="0.25" fill="none" />
  <circle cx="182.81" cy="104.66" r="0.66" stroke="#000000" stroke-width="0.25" fill="none" />
  <circle cx="182.82" cy="111.34" r="0.66" stroke="#000000" stroke-width="0.25" fill="none" />
  <line x1="183.00" y1="112.00" x2="183.00" y2="114.00" stroke="#000000" stroke-width="0.25" fill="none" />
  <line x1="183.00" y1="104.00" x2="183.00" y2="102.00" stroke="#000000" stroke-width="0.25" fill="none" />
  <line x1="179.89" y1="108.00" x2="185.89" y2="108.00" stroke="#000000" stroke-width="0.25" fill="none" />
  <line x1="185.89" y1="108.00" x2="184.69" y2="107.40" stroke="#000000" stroke-width="0.25" fill="none" />
  <line x1="185.89" y1="108.00" x2="184.69" y2="108.60" stroke="#000000" stroke-width="0.25" fill="none" />
  <text x="174.50" y="106.60" font-family="Arial, Helvetica, sans-serif" font-size="2.0" fill="#000000">B20A</text>
  <text x="174.50" y="109.10" font-family="Arial, Helvetica, sans-serif" font-size="2.0" fill="#000000">SPN</text>
  <text x="174.50" y="111.60" font-family="Arial, Helvetica, sans-serif" font-size="2.0" fill="#000000">MCB</text>
  <text x="174.50" y="114.10" font-family="Arial, Helvetica, sans-serif" font-size="2.0" fill="#000000">6kA</text>
  <text x="183.00" y="79.24" font-family="Arial, Helvetica, sans-serif" font-size="2.8" fill="#000000" transform="rotate(-90.0,183.00,77.00)">1 NO. 13A S/S/O 1</text>
  <text x="217.50" y="122.26" font-family="Arial, Helvetica, sans-serif" font-size="2.2" fill="#000000" transform="rotate(-90.0,217.50,120.50)">L2P1</text>
  <path d="M 216.85,111.34 A 3.75,3.75 0 0,0 216.85,104.66" stroke="#000000" stroke-width="0.25" fill="none" />
  <circle cx="215.81" cy="104.66" r="0.66" stroke="#000000" stroke-width="0.25" fill="none" />
  <circle cx="215.82" cy="111.34" r="0.66" stroke="#000000" stroke-width="0.25" fill="none" />
  <line x1="216.00" y1="112.00" x2="216.00" y2="114.00" stroke="#000000" stroke-width="0.25" fill="none" />
  <line x1="216.00" y1="104.00" x2="216.00" y2="102.00" stroke="#000000" stroke-width="0.25" fill="none" />
  <line x1="185.89" y1="108.00" x2="218.89" y2="108.00" stroke="#000000" stroke-width="0.25" fill="none" />
  <line x1="218.89" y1="108.00" x2="217.69" y2="107.40" stroke="#000000" stroke-width="0.25" fill="none" />
  <line x1="218.89" y1="108.00" x2="217.69" y2="108.60" stroke="#000000" stroke-width="0.25" fill="none" />
  <text x="216.00" y="79.24" font-family="Arial, Helvetica, sans-serif" font-size="2.8" fill="#000000" transform="rotate(-90.0,216.00,77.00)">1 NO. 13A S/S/O 2</text>
  <text x="250.50" y="122.26" font-family="Arial, Helvetica, sans-serif" font-size="2.2" fill="#000000" transform="rotate(-90.0,250.50,120.50)">L3P1</text>
  <path d="M 249.85,111.34 A 3.75,3.75 0 0,0 249.85,104.66" stroke="#000000" stroke-width="0.25" fill="none" />
  <circle cx="248.81" cy="104.66" r="0.66" stroke="#000000" stroke-width="0.25" fill="none" />
  <circle cx="248.82" cy="111.34" r="0.66" stroke="#000000" stroke-width="0.25" fill="none" />
  <line x1="249.00" y1="112.00" x2="249.00" y2="114.00" stroke="#000000" stroke-width="0.25" fill="none" />
  <line x1="249.00" y1="104.00" x2="249.00" y2="102.00" stroke="#000000" stroke-width="0.25" fill="none" />
  <line x1="218.89" y1="108.00" x2="251.89" y2="108.00" stroke="#000000" stroke-width="0.25" fill="none" />
  <line x1="251.89" y1="108.00" x2="250.69" y2="107.40" stroke="#000000" stroke-width="0.25" fill="none" />
  <line x1="251.89" y1="108.00" x2="250.69" y2="108.60" stroke="#000000" stroke-width="0.25" fill="none" />
  <text x="249.00" y="79.24" font-family="Arial, Helvetica, sans-serif" font-size="2.8" fill="#000000" transform="rotate(-90.0,249.00,77.00)">1 NO. 13A S/S/O 3</text>
  <text x="283.50" y="122.26" font-family="Arial, Helvetica, sans-serif" font-size="2.2" fill="#000000" transform="rotate(-90.0,283.50,120.50)">H4</text>
  <path d="M 282.85,111.34 A 3.75,3.75 0 0,0 282.85,104.66" stroke="#000000" stroke-width="0.25" fill="none" />
  <circle cx="281.81" cy="104.66" r="0.66" stroke="#000000" stroke-width="0.25" fill="none" />
  <circle cx="281.82" cy="111.34" r="0.66" stroke="#000000" stroke-width="0.25" fill="none" />
  <line x1="282.00" y1="112.00" x2="282.00" y2="114.00" stroke="#000000" stroke-width="0.25" fill="none" />
  <line x1="282.00" y1="104.00" x2="282.00" y2="102.00" stroke="#000000" stroke-width="0.25" fill="none" />
  <line x1="278.89" y1="108.00" x2="284.89" y2="108.00" stroke="#000000" stroke-width="0.25" fill="none" />
  <line x1="284.89" y1="108.00" x2="283.69" y2="107.40" stroke="#000000" stroke-width="0.25" fill="none" />
  <line x1="284.89" y1="108.00" x2="283.69" y2="108.60" stroke="#000000" stroke-width="0.25" fill="none" />
  <text x="273.50" y="106.60" font-family="Arial, Helvetica, sans-serif" font-size="2.0" fill="#000000">B32A</text>
  <text x="273.50" y="109.10" font-family="Arial, Helvetica, sans-serif" font-size="2.0" fill="#000000">SPN</text>
  <text x="273.50" y="111.60" font-family="Arial, Helvetica, sans-serif" font-size="2.0" fill="#000000">MCB</text>
  <text x="273.50" y="114.10" font-family="Arial, Helvetica, sans-serif" font-size="2.0" fill="#000000">6kA</text>
  <text x="282.00" y="79.24" font-family="Arial, Helvetica, sans-serif" font-size="2.8" fill="#000000" transform="rotate(-90.0,282.00,77.00)">1 NO. WATER HEATER</text>
  <text x="316.50" y="122.26" font-family="Arial, Helvetica, sans-serif" font-size="2.2" fill="#000000" transform="rotate(-90.0,316.50,120.50)">L2P2</text>
  <path d="M 315.85,111.34 A 3.75,3.75 0 0,0 315.85,104.66" stroke="#000000" stroke-width="0.25" fill="none" />
  <circle cx="314.81" cy="104.66" r="0.66" stroke="#000000" stroke-width="0.25" fill="none" />
  <circle cx="314.82" cy="111.34" r="0.66" stroke="#000000" stroke-width="0.25" fill="none" />
  <line x1="315.00" y1="112.00" x2="315.00" y2="114.00" stroke="#000000" stroke-width="0.25" fill="none" />
  <line x1="315.00" y1="104.00" x2="315.00" y2="102.00" stroke="#000000" stroke-width="0.25" fill="none" />
  <line x1="251.89" y1="108.00" x2="317.89" y2="108.00" stroke="#000000" stroke-width="0.25" fill="none" />
  <line x1="317.89" y1="108.00" x2="316.69" y2="107.40" stroke="#000000" stroke-width="0.25" fill="none" />
  <line x1="317.89" y1="108.00" x2="316.69" y2="108.60" stroke="#000000" stroke-width="0.25" fill="none" />
  <text x="315.00" y="79.24" font-family="Arial, Helvetica, sans-serif" font-size="2.8" fill="#000000" transform="rotate(-90.0,315.00,77.00)">1 NO. AIRCON</text>
  <text x="349.50" y="122.26" font-family="Arial, Helvetica, sans-serif" font-size="2.2" fill="#000000" transform="rotate(-90.0,349.50,120.50)">L1P2</text>
  <path d="M 348.85,111.34 A 3.75,3.75 0 0,0 348.85,104.66" stroke="#000000" stroke-width="0.25" fill="none" />
  <circle cx="347.81" cy="104.66" r="0.66" stroke="#000000" stroke-width="0.25" fill="none" />
  <circle cx="347.82" cy="111.34" r="0.66" stroke="#000000" stroke-width="0.25" fill="none" />
  <line x1="348.00" y1="112.00" x2="348.00" y2="114.00" stroke="#000000" stroke-width="0.25" fill="none" />
  <line x1="348.00" y1="104.00" x2="348.00" y2="102.00" stroke="#000000" stroke-width="0.25" fill="none" />
  <line x1="317.89" y1="108.00" x2="350.89" y2="108.00" stroke="#000000" stroke-width="0.25" fill="none" />
  <line x1="350.89" y1="108.00" x2="349.69" y2="107.40" stroke="#000000" stroke-width="0.25" fill="none" />
  <line x1="350.89" y1="108.00" x2="349.69" y2="108.60" stroke="#000000" stroke-width="0.25" fill="none" />
  <text x="348.00" y="79.24" font-family="Arial, Helvetica, sans-serif" font-size="2.8" fill="#000000" transform="rotate(-90.0,348.00,77.00)">SPARE</text>
  <text x="65.00" y="80.80" font-family="Arial, Helvetica, sans-serif" font-size="2.8" fill="#000000" transform="rotate(-90.0,65.00,80.80)">2C 1.5sqmm PVC + 1.5sqmm</text>
  <text x="68.92" y="80.80" font-family="Arial, Helvetica, sans-serif" font-size="2.8" fill="#000000" transform="rotate(-90.0,68.92,80.80)">PVC CPC IN METAL TRUNKING</text>
  <text x="325.00" y="80.80" font-family="Arial, Helvetica, sans-serif" font-size="2.8" fill="#000000" transform="rotate(-90.0,325.00,80.80)">2C 2.5sqmm PVC + 2.5sqmm</text>
  <text x="328.92" y="80.80" font-family="Arial, Helvetica, sans-serif" font-size="2.8" fill="#000000" transform="rotate(-90.0,328.92,80.80)">PVC CPC IN METAL TRUNKING</text>
  <text x="269.00" y="80.80" font-family="Arial, Helvetica, sans-serif" font-size="2.8" fill="#000000" transform="rotate(-90.0,269.00,80.80)">2C 6.0sqmm PVC + 6.0sqmm</text>
  <text x="272.92" y="80.80" font-family="Arial, Helvetica, sans-serif" font-size="2.8" fill="#000000" transform="rotate(-90.0,272.92,80.80)">PVC CPC IN METAL TRUNKING</text>
  <text x="60.50" y="178.40" font-family="Arial, Helvetica, sans-serif" font-size="3.0" fill="#000000">100A DB</text>
  <text x="60.50" y="181.44" font-family="Arial, Helvetica, sans-serif" font-size="1.8" fill="#000000">APPROVED LOAD: 69 kVA</text>
  <line x1="373.25" y1="144.50" x2="373.25" y2="146.30" stroke="#000000" stroke-width="0.25" fill="none" />
  <line x1="371.00" y1="146.30" x2="375.50" y2="146.30" stroke="#000000" stroke-width="0.25" fill="none" />
  <line x1="371.75" y1="147.43" x2="374.75" y2="147.43" stroke="#000000" stroke-width="0.25" fill="none" />
  <line x1="372.50" y1="148.55" x2="374.00" y2="148.55" stroke="#000000" stroke-width="0.25" fill="none" />
  <text x="379.00" y="146.03" font-family="Arial, Helvetica, sans-serif" font-size="1.6" fill="#000000">E</text>
  <line x1="204.00" y1="211.00" x2="204.00" y2="205.00" stroke="#000000" stroke-width="0.25" fill="none" />
  <line x1="208.00" y1="211.00" x2="208.00" y2="205.00" stroke="#000000" stroke-width="0.25" fill="none" />
  <line x1="212.00" y1="211.00" x2="212.00" y2="205.00" stroke="#000000" stroke-width="0.25" fill="none" />
  <line x1="216.00" y1="211.00" x2="216.00" y2="205.00" stroke="#000000" stroke-width="0.25" fill="none" />
  <line x1="204.00" y1="205.00" x2="216.00" y2="205.00" stroke="#000000" stroke-width="0.25" fill="none" />
  <line x1="210.00" y1="205.00" x2="210.00" y2="199.00" stroke="#000000" stroke-width="0.25" fill="none" />
  <line x1="210.00" y1="201.00" x2="210.00" y2="199.00" stroke="#000000" stroke-width="0.25" fill="none" />
  <line x1="210.00" y1="190.00" x2="210.00" y2="188.00" stroke="#000000" stroke-width="0.25" fill="none" />
  <line x1="210.00" y1="192.00" x2="210.00" y2="174.00" stroke="#000000" stroke-width="0.25" fill="none" />
  <line x1="210.00" y1="170.00" x2="218.00" y2="170.00" stroke="#000000" stroke-width="0.25" fill="none" />
  <line x1="223.50" y1="170.00" x2="226.50" y2="170.00" stroke="#000000" stroke-width="0.25" fill="none" />
  <line x1="210.00" y1="174.00" x2="210.00" y2="169.00" stroke="#000000" stroke-width="0.25" fill="none" />
  <line x1="210.00" y1="157.65" x2="210.00" y2="125.50" stroke="#000000" stroke-width="0.25" fill="none" />
  <line x1="210.00" y1="156.50" x2="195.00" y2="156.50" stroke="#000000" stroke-width="0.25" fill="none" />
  <line x1="189.00" y1="161.50" x2="189.00" y2="164.50" stroke="#000000" stroke-width="0.25" fill="none" />
  <line x1="189.00" y1="164.50" x2="209.00" y2="164.50" stroke="#000000" stroke-width="0.25" fill="none" />
  <line x1="210.00" y1="130.52" x2="225.00" y2="130.52" stroke="#000000" stroke-width="0.25" fill="none" />
  <line x1="229.00" y1="130.52" x2="232.00" y2="130.52" stroke="#000000" stroke-width="0.25" fill="none" />
  <line x1="210.00" y1="139.00" x2="201.00" y2="139.00" stroke="#000000" stroke-width="0.25" fill="none" />
  <line x1="197.00" y1="139.00" x2="190.00" y2="139.00" stroke="#000000" stroke-width="0.25" fill="none" />
  <line x1="210.00" y1="144.50" x2="225.00" y2="144.50" stroke="#000000" stroke-width="0.25" fill="none" />
  <line x1="231.00" y1="147.50" x2="231.00" y2="153.50" stroke="#000000" stroke-width="0.25" fill="none" />
  <line x1="231.00" y1="153.50" x2="210.00" y2="153.50" stroke="#000000" stroke-width="0.25" fill="none" />
  <line x1="210.00" y1="135.00" x2="218.00" y2="135.00" stroke="#000000" stroke-width="0.25" fill="none" />
  <line x1="210.00" y1="126.00" x2="210.00" y2="124.00" stroke="#000000" stroke-width="0.25" fill="none" />
  <line x1="78.00" y1="115.22" x2="78.00" y2="112.00" stroke="#000000" stroke-width="0.25" fill="none" />
  <line x1="78.00" y1="104.00" x2="78.00" y2="79.00" stroke="#000000" stroke-width="0.25" fill="none" />
  <line x1="111.00" y1="124.00" x2="111.00" y2="112.00" stroke="#000000" stroke-width="0.25" fill="none" />
  <line x1="111.00" y1="104.00" x2="111.00" y2="79.00" stroke="#000000" stroke-width="0.25" fill="none" />
  <line x1="144.00" y1="115.22" x2="144.00" y2="112.00" stroke="#000000" stroke-width="0.25" fill="none" />
  <line x1="144.00" y1="104.00" x2="144.00" y2="79.00" stroke="#000000" stroke-width="0.25" fill="none" />
  <line x1="183.00" y1="115.22" x2="183.00" y2="112.00" stroke="#000000" stroke-width="0.25" fill="none" />
  <line x1="183.00" y1="104.00" x2="183.00" y2="79.00" stroke="#000000" stroke-width="0.25" fill="none" />
  <line x1="216.00" y1="124.00" x2="216.00" y2="112.00" stroke="#000000" stroke-width="0.25" fill="none" />
  <line x1="216.00" y1="104.00" x2="216.00" y2="79.00" stroke="#000000" stroke-width="0.25" fill="none" />
  <line x1="249.00" y1="115.22" x2="249.00" y2="112.00" stroke="#000000" stroke-width="0.25" fill="none" />
  <line x1="249.00" y1="104.00" x2="249.00" y2="79.00" stroke="#000000" stroke-width="0.25" fill="none" />
  <line x1="282.00" y1="115.22" x2="282.00" y2="112.00" stroke="#000000" stroke-width="0.25" fill="none" />
  <line x1="282.00" y1="104.00" x2="282.00" y2="79.00" stroke="#000000" stroke-width="0.25" fill="none" />
  <line x1="315.00" y1="124.00" x2="315.00" y2="112.00" stroke="#000000" stroke-width="0.25" fill="none" />
  <line x1="315.00" y1="104.00" x2="315.00" y2="79.00" stroke="#000000" stroke-width="0.25" fill="none" />
  <line x1="348.00" y1="115.22" x2="348.00" y2="112.00" stroke="#000000" stroke-width="0.25" fill="none" />
  <line x1="348.00" y1="104.00" x2="348.00" y2="79.00" stroke="#000000" stroke-width="0.25" fill="none" />
  <line x1="68.00" y1="84.00" x2="144.00" y2="84.00" stroke="#000000" stroke-width="0.25" fill="none" />
  <line x1="68.00" y1="84.00" x2="68.00" y2="79.00" stroke="#000000" stroke-width="0.25" fill="none" />
  <line x1="183.00" y1="84.00" x2="325.00" y2="84.00" stroke="#000000" stroke-width="0.25" fill="none" />
  <line x1="325.00" y1="84.00" x2="325.00" y2="79.00" stroke="#000000" stroke-width="0.25" fill="none" />
  <line x1="272.00" y1="84.00" x2="282.00" y2="84.00" stroke="#000000" stroke-width="0.25" fill="none" />
  <line x1="272.00" y1="84.00" x2="272.00" y2="79.00" stroke="#000000" stroke-width="0.25" fill="none" />
  <line x1="365.50" y1="144.50" x2="373.25" y2="144.50" stroke="#000000" stroke-width="0.25" fill="none" />
  <line x1="76.75" y1="85.25" x2="79.25" y2="82.75" stroke="#000000" stroke-width="0.50" fill="none" />
  <line x1="109.75" y1="85.25" x2="112.25" y2="82.75" stroke="#000000" stroke-width="0.50" fill="none" />
  <line x1="142.75" y1="85.25" x2="145.25" y2="82.75" stroke="#000000" stroke-width="0.50" fill="none" />
  <line x1="181.75" y1="85.25" x2="184.25" y2="82.75" stroke="#000000" stroke-width="0.50" fill="none" />
  <line x1="214.75" y1="85.25" x2="217.25" y2="82.75" stroke="#000000" stroke-width="0.50" fill="none" />
  <line x1="247.75" y1="85.25" x2="250.25" y2="82.75" stroke="#000000" stroke-width="0.50" fill="none" />
  <line x1="313.75" y1="85.25" x2="316.25" y2="82.75" stroke="#000000" stroke-width="0.50" fill="none" />
  <line x1="280.75" y1="85.25" x2="283.25" y2="82.75" stroke="#000000" stroke-width="0.50" fill="none" />
  <line x1="111.00" y1="124.00" x2="78.00" y2="115.22" stroke="#000000" stroke-width="0.25" fill="none" />
  <line x1="111.00" y1="124.00" x2="144.00" y2="115.22" stroke="#000000" stroke-width="0.25" fill="none" />
  <line x1="216.00" y1="124.00" x2="183.00" y2="115.22" stroke="#000000" stroke-width="0.25" fill="none" />
  <line x1="216.00" y1="124.00" x2="249.00" y2="115.22" stroke="#000000" stroke-width="0.25" fill="none" />
  <line x1="315.00" y1="124.00" x2="282.00" y2="115.22" stroke="#000000" stroke-width="0.25" fill="none" />
  <line x1="315.00" y1="124.00" x2="348.00" y2="115.22" stroke="#000000" stroke-width="0.25" fill="none" />
  <line x1="54.50" y1="184.00" x2="62.50" y2="184.00" stroke="#000000" stroke-width="0.25" fill="none" />
  <line x1="64.50" y1="184.00" x2="66.00" y2="184.00" stroke="#000000" stroke-width="0.25" fill="none" />
  <line x1="68.00" y1="184.00" x2="76.00" y2="184.00" stroke="#000000" stroke-width="0.25" fill="none" />
  <line x1="78.00" y1="184.00" x2="79.50" y2="184.00" stroke="#000000" stroke-width="0.25" fill="none" />
  <line x1="81.50" y1="184.00" x2="89.50" y2="184.00" stroke="#000000" stroke-width="0.25" fill="none" />
  <line x1="91.50" y1="184.00" x2="93.00" y2="184.00" stroke="#000000" stroke-width="0.25" fill="none" />
  <line x1="95.00" y1="184.00" x2="103.00" y2="184.00" stroke="#000000" stroke-width="0.25" fill="none" />
  <line x1="105.00" y1="184.00" x2="106.50" y2="184.00" stroke="#000000" stroke-width="0.25" fill="none" />
  <line x1="108.50" y1="184.00" x2="116.50" y2="184.00" stroke="#000000" stroke-width="0.25" fill="none" />
  <line x1="118.50" y1="184.00" x2="120.00" y2="184.00" stroke="#000000" stroke-width="0.25" fill="none" />
  <line x1="122.00" y1="184.00" x2="130.00" y2="184.00" stroke="#000000" stroke-width="0.25" fill="none" />
  <line x1="132.00" y1="184.00" x2="133.50" y2="184.00" stroke="#000000" stroke-width="0.25" fill="none" />
  <line x1="135.50" y1="184.00" x2="143.50" y2="184.00" stroke="#000000" stroke-width="0.25" fill="none" />
  <line x1="145.50" y1="184.00" x2="147.00" y2="184.00" stroke="#000000" stroke-width="0.25" fill="none" />
  <line x1="149.00" y1="184.00" x2="157.00" y2="184.00" stroke="#000000" stroke-width="0.25" fill="none" />
  <line x1="159.00" y1="184.00" x2="160.50" y2="184.00" stroke="#000000" stroke-width="0.25" fill="none" />
  <line x1="162.50" y1="184.00" x2="170.50" y2="184.00" stroke="#000000" stroke-width="0.25" fill="none" />
  <line x1="172.50" y1="184.00" x2="174.00" y2="184.00" stroke="#000000" stroke-width="0.25" fill="none" />
  <line x1="176.00" y1="184.00" x2="184.00" y2="184.00" stroke="#000000" stroke-width="0.25" fill="none" />
  <line x1="186.00" y1="184.00" x2="187.50" y2="184.00" stroke="#000000" stroke-width="0.25" fill="none" />
  <line x1="189.50" y1="184.00" x2="197.50" y2="184.00" stroke="#000000" stroke-width="0.25" fill="none" />
  <line x1="199.50" y1="184.00" x2="201.00" y2="184.00" stroke="#000000" stroke-width="0.25" fill="none" />
  <line x1="203.00" y1="184.00" x2="211.00" y2="184.00" stroke="#000000" stroke-width="0.25" fill="none" />
  <line x1="213.00" y1="184.00" x2="214.50" y2="184.00" stroke="#000000" stroke-width="0.25" fill="none" />
  <line x1="216.50" y1="184.00" x2="224.50" y2="184.00" stroke="#000000" stroke-width="0.25" fill="none" />
  <line x1="226.50" y1="184.00" x2="228.00" y2="184.00" stroke="#000000" stroke-width="0.25" fill="none" />
  <line x1="230.00" y1="184.00" x2="238.00" y2="184.00" stroke="#000000" stroke-width="0.25" fill="none" />
  <line x1="240.00" y1="184.00" x2="241.50" y2="184.00" stroke="#000000" stroke-width="0.25" fill="none" />
  <line x1="243.50" y1="184.00" x2="251.50" y2="184.00" stroke="#000000" stroke-width="0.25" fill="none" />
  <line x1="253.50" y1="184.00" x2="255.00" y2="184.00" stroke="#000000" stroke-width="0.25" fill="none" />
  <line x1="257.00" y1="184.00" x2="265.00" y2="184.00" stroke="#000000" stroke-width="0.25" fill="none" />
  <line x1="267.00" y1="184.00" x2="268.50" y2="184.00" stroke="#000000" stroke-width="0.25" fill="none" />
  <line x1="270.50" y1="184.00" x2="278.50" y2="184.00" stroke="#000000" stroke-width="0.25" fill="none" />
  <line x1="280.50" y1="184.00" x2="282.00" y2="184.00" stroke="#000000" stroke-width="0.25" fill="none" />
  <line x1="284.00" y1="184.00" x2="292.00" y2="184.00" stroke="#000000" stroke-width="0.25" fill="none" />
  <line x1="294.00" y1="184.00" x2="295.50" y2="184.00" stroke="#000000" stroke-width="0.25" fill="none" />
  <line x1="297.50" y1="184.00" x2="305.50" y2="184.00" stroke="#000000" stroke-width="0.25" fill="none" />
  <line x1="307.50" y1="184.00" x2="309.00" y2="184.00" stroke="#000000" stroke-width="0.25" fill="none" />
  <line x1="311.00" y1="184.00" x2="319.00" y2="184.00" stroke="#000000" stroke-width="0.25" fill="none" />
  <line x1="321.00" y1="184.00" x2="322.50" y2="184.00" stroke="#000000" stroke-width="0.25" fill="none" />
  <line x1="324.50" y1="184.00" x2="332.50" y2="184.00" stroke="#000000" stroke-width="0.25" fill="none" />
  <line x1="334.50" y1="184.00" x2="336.00" y2="184.00" stroke="#000000" stroke-width="0.25" fill="none" />
  <line x1="338.00" y1="184.00" x2="346.00" y2="184.00" stroke="#000000" stroke-width="0.25" fill="none" />
  <line x1="348.00" y1="184.00" x2="349.50" y2="184.00" stroke="#000000" stroke-width="0.25" fill="none" />
  <line x1="351.50" y1="184.00" x2="359.50" y2="184.00" stroke="#000000" stroke-width="0.25" fill="none" />
  <line x1="361.50" y1="184.00" x2="363.00" y2="184.00" stroke="#000000" stroke-width="0.25" fill="none" />
  <line x1="365.00" y1="184.00" x2="365.50" y2="184.00" stroke="#000000" stroke-width="0.25" fill="none" />
  <line x1="54.50" y1="94.00" x2="62.50" y2="94.00" stroke="#000000" stroke-width="0.25" fill="none" />
  <line x1="64.50" y1="94.00" x2="66.00" y2="94.00" stroke="#000000" stroke-width="0.25" fill="none" />
  <line x1="68.00" y1="94.00" x2="76.00" y2="94.00" stroke="#000000" stroke-width="0.25" fill="none" />
  <line x1="78.00" y1="94.00" x2="79.50" y2="94.00" stroke="#000000" stroke-width="0.25" fill="none" />
  <line x1="81.50" y1="94.00" x2="89.50" y2="94.00" stroke="#000000" stroke-width="0.25" fill="none" />
  <line x1="91.50" y1="94.00" x2="93.00" y2="94.00" stroke="#000000" stroke-width="0.25" fill="none" />
  <line x1="95.00" y1="94.00" x2="103.00" y2="94.00" stroke="#000000" stroke-width="0.25" fill="none" />
  <line x1="105.00" y1="94.00" x2="106.50" y2="94.00" stroke="#000000" stroke-width="0.25" fill="none" />
  <line x1="108.50" y1="94.00" x2="116.50" y2="94.00" stroke="#000000" stroke-width="0.25" fill="none" />
  <line x1="118.50" y1="94.00" x2="120.00" y2="94.00" stroke="#000000" stroke-width="0.25" fill="none" />
  <line x1="122.00" y1="94.00" x2="130.00" y2="94.00" stroke="#000000" stroke-width="0.25" fill="none" />
  <line x1="132.00" y1="94.00" x2="133.50" y2="94.00" stroke="#000000" stroke-width="0.25" fill="none" />
  <line x1="135.50" y1="94.00" x2="143.50" y2="94.00" stroke="#000000" stroke-width="0.25" fill="none" />
  <line x1="145.50" y1="94.00" x2="147.00" y2="94.00" stroke="#000000" stroke-width="0.25" fill="none" />
  <line x1="149.00" y1="94.00" x2="157.00" y2="94.00" stroke="#000000" stroke-width="0.25" fill="none" />
  <line x1="159.00" y1="94.00" x2="160.50" y2="94.00" stroke="#000000" stroke-width="0.25" fill="none" />
  <line x1="162.50" y1="94.00" x2="170.50" y2="94.00" stroke="#000000" stroke-width="0.25" fill="none" />
  <line x1="172.50" y1="94.00" x2="174.00" y2="94.00" stroke="#000000" stroke-width="0.25" fill="none" />
  <line x1="176.00" y1="94.00" x2="184.00" y2="94.00" stroke="#000000" stroke-width="0.25" fill="none" />
  <line x1="186.00" y1="94.00" x2="187.50" y2="94.00" stroke="#000000" stroke-width="0.25" fill="none" />
  <line x1="189.50" y1="94.00" x2="197.50" y2="94.00" stroke="#000000" stroke-width="0.25" fill="none" />
  <line x1="199.50" y1="94.00" x2="201.00" y2="94.00" stroke="#000000" stroke-width="0.25" fill="none" />
  <line x1="203.00" y1="94.00" x2="211.00" y2="94.00" stroke="#000000" stroke-width="0.25" fill="none" />
  <line x1="213.00" y1="94.00" x2="214.50" y2="94.00" stroke="#000000" stroke-width="0.25" fill="none" />
  <line x1="216.50" y1="94.00" x2="224.50" y2="94.00" stroke="#000000" stroke-width="0.25" fill="none" />
  <line x1="226.50" y1="94.00" x2="228.00" y2="94.00" stroke="#000000" stroke-width="0.25" fill="none" />
  <line x1="230.00" y1="94.00" x2="238.00" y2="94.00" stroke="#000000" stroke-width="0.25" fill="none" />
  <line x1="240.00" y1="94.00" x2="241.50" y2="94.00" stroke="#000000" stroke-width="0.25" fill="none" />
  <line x1="243.50" y1="94.00" x2="251.50" y2="94.00" stroke="#000000" stroke-width="0.25" fill="none" />
  <line x1="253.50" y1="94.00" x2="255.00" y2="94.00" stroke="#000000" stroke-width="0.25" fill="none" />
  <line x1="257.00" y1="94.00" x2="265.00" y2="94.00" stroke="#000000" stroke-width="0.25" fill="none" />
  <line x1="267.00" y1="94.00" x2="268.50" y2="94.00" stroke="#000000" stroke-width="0.25" fill="none" />
  <line x1="270.50" y1="94.00" x2="278.50" y2="94.00" stroke="#000000" stroke-width="0.25" fill="none" />
  <line x1="280.50" y1="94.00" x2="282.00" y2="94.00" stroke="#000000" stroke-width="0.25" fill="none" />
  <line x1="284.00" y1="94.00" x2="292.00" y2="94.00" stroke="#000000" stroke-width="0.25" fill="none" />
  <line x1="294.00" y1="94.00" x2="295.50" y2="94.00" stroke="#000000" stroke-width="0.25" fill="none" />
  <line x1="297.50" y1="94.00" x2="305.50" y2="94.00" stroke="#000000" stroke-width="0.25" fill="none" />
  <line x1="307.50" y1="94.00" x2="309.00" y2="94.00" stroke="#000000" stroke-width="0.25" fill="none" />
  <line x1="311.00" y1="94.00" x2="319.00" y2="94.00" stroke="#000000" stroke-width="0.25" fill="none" />
  <line x1="321.00" y1="94.00" x2="322.50" y2="94.00" stroke="#000000" stroke-width="0.25" fill="none" />
  <line x1="324.50" y1="94.00" x2="332.50" y2="94.00" stroke="#000000" stroke-width="0.25" fill="none" />
  <line x1="334.50" y1="94.00" x2="336.00" y2="94.00" stroke="#000000" stroke-width="0.25" fill="none" />
  <line x1="338.00" y1="94.00" x2="346.00" y2="94.00" stroke="#000000" stroke-width="0.25" fill="none" />
  <line x1="348.00" y1="94.00" x2="349.50" y2="94.00" stroke="#000000" stroke-width="0.25" fill="none" />
  <line x1="351.50" y1="94.00" x2="359.50" y2="94.00" stroke="#000000" stroke-width="0.25" fill="none" />
  <line x1="361.50" y1="94.00" x2="363.00" y2="94.00" stroke="#000000" stroke-width="0.25" fill="none" />
  <line x1="365.00" y1="94.00" x2="365.50" y2="94.00" stroke="#000000" stroke-width="0.25" fill="none" />
  <line x1="54.50" y1="184.00" x2="54.50" y2="176.00" stroke="#000000" stroke-width="0.25" fill="none" />
  <line x1="54.50" y1="174.00" x2="54.50" y2="172.50" stroke="#000000" stroke-width="0.25" fill="none" />
  <line x1="54.50" y1="170.50" x2="54.50" y2="162.50" stroke="#000000" stroke-width="0.25" fill="none" />
  <line x1="54.50" y1="160.50" x2="54.50" y2="159.00" stroke="#000000" stroke-width="0.25" fill="none" />
  <line x1="54.50" y1="157.00" x2="54.50" y2="149.00" stroke="#000000" stroke-width="0.25" fill="none" />
  <line x1="54.50" y1="147.00" x2="54.50" y2="145.50" stroke="#000000" stroke-width="0.25" fill="none" />
  <line x1="54.50" y1="143.50" x2="54.50" y2="135.50" stroke="#000000" stroke-width="0.25" fill="none" />
  <line x1="54.50" y1="133.50" x2="54.50" y2="132.00" stroke="#000000" stroke-width="0.25" fill="none" />
  <line x1="54.50" y1="130.00" x2="54.50" y2="122.00" stroke="#000000" stroke-width="0.25" fill="none" />
  <line x1="54.50" y1="120.00" x2="54.50" y2="118.50" stroke="#000000" stroke-width="0.25" fill="none" />
  <line x1="54.50" y1="116.50" x2="54.50" y2="108.50" stroke="#000000" stroke-width="0.25" fill="none" />
  <line x1="54.50" y1="106.50" x2="54.50" y2="105.00" stroke="#000000" stroke-width="0.25" fill="none" />
  <line x1="54.50" y1="103.00" x2="54.50" y2="95.00" stroke="#000000" stroke-width="0.25" fill="none" />
  <line x1="365.50" y1="184.00" x2="365.50" y2="176.00" stroke="#000000" stroke-width="0.25" fill="none" />
  <line x1="365.50" y1="174.00" x2="365.50" y2="172.50" stroke="#000000" stroke-width="0.25" fill="none" />
  <line x1="365.50" y1="170.50" x2="365.50" y2="162.50" stroke="#000000" stroke-width="0.25" fill="none" />
  <line x1="365.50" y1="160.50" x2="365.50" y2="159.00" stroke="#000000" stroke-width="0.25" fill="none" />
  <line x1="365.50" y1="157.00" x2="365.50" y2="149.00" stroke="#000000" stroke-width="0.25" fill="none" />
  <line x1="365.50" y1="147.00" x2="365.50" y2="145.50" stroke="#000000" stroke-width="0.25" fill="none" />
  <line x1="365.50" y1="143.50" x2="365.50" y2="135.50" stroke="#000000" stroke-width="0.25" fill="none" />
  <line x1="365.50" y1="133.50" x2="365.50" y2="132.00" stroke="#000000" stroke-width="0.25" fill="none" />
  <line x1="365.50" y1="130.00" x2="365.50" y2="122.00" stroke="#000000" stroke-width="0.25" fill="none" />
  <line x1="365.50" y1="120.00" x2="365.50" y2="118.50" stroke="#000000" stroke-width="0.25" fill="none" />
  <line x1="365.50" y1="116.50" x2="365.50" y2="108.50" stroke="#000000" stroke-width="0.25" fill="none" />
  <line x1="365.50" y1="106.50" x2="365.50" y2="105.00" stroke="#000000" stroke-width="0.25" fill="none" />
  <line x1="365.50" y1="103.00" x2="365.50" y2="95.00" stroke="#000000" stroke-width="0.25" fill="none" />
  <circle cx="210.00" cy="170.00" r="0.50" fill="rgb(0,0,0)" stroke="none" />
  <circle cx="210.00" cy="135.00" r="0.50" fill="rgb(0,0,0)" stroke="none" />
  <circle cx="111.00" cy="124.00" r="0.50" fill="rgb(0,0,0)" stroke="none" />
  <circle cx="111.00" cy="124.00" r="0.50" fill="rgb(0,0,0)" stroke="none" />
  <circle cx="111.00" cy="124.00" r="0.50" fill="rgb(0,0,0)" stroke="none" />
  <circle cx="216.00" cy="124.00" r="0.50" fill="rgb(0,0,0)" stroke="none" />
  <circle cx="216.00" cy="124.00" r="0.50" fill="rgb(0,0,0)" stroke="none" />
  <circle cx="216.00" cy="124.00" r="0.50" fill="rgb(0,0,0)" stroke="none" />
  <circle cx="315.00" cy="124.00" r="0.50" fill="rgb(0,0,0)" stroke="none" />
  <circle cx="315.00" cy="124.00" r="0.50" fill="rgb(0,0,0)" stroke="none" />
  <circle cx="315.00" cy="124.00" r="0.50" fill="rgb(0,0,0)" stroke="none" />
  <circle cx="365.50" cy="144.50" r="0.50" fill="rgb(0,0,0)" stroke="none" />
  <polyline points="209.40,156.50 209.63,156.49 209.86,156.48 210.07,156.45 210.25,156.41 210.40,156.37 210.51,156.31 210.58,156.26 210.60,156.20 210.58,156.14 210.51,156.09 210.40,156.03 210.25,155.99 210.07,155.95 209.86,155.92 209.63,155.91 209.40,155.90" stroke="#000000" stroke-width="0.25" fill="none" />
  <polyline points="209.40,157.10 209.63,157.09 209.86,157.08 210.07,157.05 210.25,157.01 210.40,156.97 210.51,156.91 210.58,156.86 210.60,156.80 210.58,156.74 210.51,156.69 210.40,156.63 210.25,156.59 210.07,156.55 209.86,156.52 209.63,156.51 209.40,156.50" stroke="#000000" stroke-width="0.25" fill="none" />
  <polyline points="210.60,130.52 210.37,130.51 210.14,130.50 209.93,130.47 209.75,130.43 209.60,130.39 209.49,130.33 209.42,130.28 209.40,130.22 209.42,130.16 209.49,130.11 209.60,130.05 209.75,130.01 209.93,129.97 210.14,129.94 210.37,129.93 210.60,129.92" stroke="#000000" stroke-width="0.25" fill="none" />
  <polyline points="210.60,131.12 210.37,131.11 210.14,131.10 209.93,131.07 209.75,131.03 209.60,130.99 209.49,130.93 209.42,130.88 209.40,130.82 209.42,130.76 209.49,130.71 209.60,130.65 209.75,130.61 209.93,130.57 210.14,130.54 210.37,130.53 210.60,130.52" stroke="#000000" stroke-width="0.25" fill="none" />
  <polyline points="209.40,139.00 209.63,138.99 209.86,138.98 210.07,138.95 210.25,138.91 210.40,138.87 210.51,138.81 210.58,138.76 210.60,138.70 210.58,138.64 210.51,138.59 210.40,138.53 210.25,138.49 210.07,138.45 209.86,138.42 209.63,138.41 209.40,138.40" stroke="#000000" stroke-width="0.25" fill="none" />
  <polyline points="209.40,139.60 209.63,139.59 209.86,139.58 210.07,139.55 210.25,139.51 210.40,139.47 210.51,139.41 210.58,139.36 210.60,139.30 210.58,139.24 210.51,139.19 210.40,139.13 210.25,139.09 210.07,139.05 209.86,139.02 209.63,139.01 209.40,139.00" stroke="#000000" stroke-width="0.25" fill="none" />
  <polyline points="210.60,144.50 210.37,144.49 210.14,144.48 209.93,144.45 209.75,144.41 209.60,144.37 209.49,144.31 209.42,144.26 209.40,144.20 209.42,144.14 209.49,144.09 209.60,144.03 209.75,143.99 209.93,143.95 210.14,143.92 210.37,143.91 210.60,143.90" stroke="#000000" stroke-width="0.25" fill="none" />
  <polyline points="210.60,145.10 210.37,145.09 210.14,145.08 209.93,145.05 209.75,145.01 209.60,144.97 209.49,144.91 209.42,144.86 209.40,144.80 209.42,144.74 209.49,144.69 209.60,144.63 209.75,144.59 209.93,144.55 210.14,144.52 210.37,144.51 210.60,144.50" stroke="#000000" stroke-width="0.25" fill="none" />
  <text x="13.00" y="264.40" font-family="Arial, Helvetica, sans-serif" font-size="3.0" fill="#000000">Electrical Installation</text>
  <text x="153.00" y="264.40" font-family="Arial, Helvetica, sans-serif" font-size="3.0" fill="#000000">LicenseKaki</text>
  <text x="225.00" y="263.80" font-family="Arial, Helvetica, sans-serif" font-size="3.5" fill="#000000"><tspan x="225.00">SINGLE LINE DIAGRAM</tspan><tspan x="225.00" dy="4.9">(SLD)</tspan></text>
  <text x="389.00" y="266.00" font-family="Arial, Helvetica, sans-serif" font-size="2.5" fill="#000000">DATE</text>
  <text x="365.00" y="278.00" font-family="Arial, Helvetica, sans-serif" font-size="2.5" fill="#000000"></text>
  <text x="394.00" y="278.80" font-family="Arial, Helvetica, sans-serif" font-size="3.5" fill="#000000">0</text>
  <text x="365.00" y="286.28" font-family="Arial, Helvetica, sans-serif" font-size="1.6" fill="#000000">SCALE : NTS</text>
  <text x="389.00" y="286.28" font-family="Arial, Helvetica, sans-serif" font-size="1.6" fill="#000000">SHEET : 1 OF 1</text>
</svg>