<svg xmlns="http://www.w3.org/2000/svg" viewBox="0 0 420.0 297.0" width="420.0mm" height="297.0mm">
  <rect width="420.0" height="297.0" fill="white" />
  <polygon points="10.00,287.00 410.00,287.00 410.00,10.00 10.00,10.00" stroke="#000000" stroke-width="0.25" fill="none" />
  <polygon points="10.00,287.00 410.00,287.00 410.00,255.00 10.00,255.00" stroke="#000000" stroke-width="0.25" fill="none" />
  <line x1="90.00" y1="255.00" x2="90.00" y2="287.00" stroke="#000000" stroke-width="0.25" fill="none" />
  <line x1="150.00" y1="255.00" x2="150.00" y2="287.00" stroke="#000000" stroke-width="0.25" fill="none" />
  <line x1="222.00" y1="255.00" x2="222.00" y2="287.00" stroke="#000000" stroke-width="0.25" fill="none" />
  <line x1="290.00" y1="255.00" x2="290.00" y2="287.00" stroke="#000000" stroke-width="0.25" fill="none" />
  <line x1="362.00" y1="255.00" x2="362.00" y2="287.00" stroke="#000000" stroke-width="0.25" fill="none" />
  <line x1="362.00" y1="270.00" x2="410.00" y2="270.00" stroke="#000000" stroke-width="0.25" fill="none" />
  <line x1="386.00" y1="255.00" x2="386.00" y2="287.00" stroke="#000000" stroke-width="0.25" fill="none" />
  <text x="12.00" y="258.94" font-family="Arial, Helvetica, sans-serif" font-size="1.8" fill="#000000">CLIENT / ADDRESS :</text>
  <text x="92.00" y="258.94" font-family="Arial, Helvetica, sans-serif" font-size="1.8" fill="#000000">MAIN CONTRACTOR :</text>
  <text x="152.00" y="258.94" font-family="Arial, Helvetica, sans-serif" font-size="1.8" fill="#000000">ELECTRICAL CONTRACTOR :</text>
  <text x="224.00" y="258.94" font-family="Arial, Helvetica, sans-serif" font-size="1.8" fill="#000000">DRAWING TITLE :</text>
  <text x="292.00" y="258.94" font-family="Arial, Helvetica, sans-serif" font-size="1.8" fill="#000000">LEW :</text>
  <text x="364.00" y="258.94" font-family="Arial, Helvetica, sans-serif" font-size="1.8" fill="#000000">CHECKED :</text>
  <text x="388.00" y="258.94" font-family="Arial, Helvetica, sans-serif" font-size="1.8" fill="#000000">DATE :</text>
  <text x="364.00" y="273.94" font-family="Arial, Helvetica, sans-serif" font-size="1.8" fill="#000000">DRAWING NO. :</text>
  <text x="388.00" y="273.94" font-family="Arial, Helvetica, sans-serif" font-size="1.8" fill="#000000">REV :</text>
  <circle cx="222.30" cy="186.01" r="0.70" stroke="#000000" stroke-width="0.25" fill="none" />
  <circle cx="216.70" cy="186.01" r="0.70" stroke="#000000" stroke-width="0.25" fill="none" />
  <polyline points="217.36,185.78 222.21,184.04" stroke="#000000" stroke-width="0.25" fill="none" />
  <text x="215.18" y="191.00" font-family="Arial, Helvetica, sans-serif" font-size="1.8" fill="#000000"><tspan x="215.18">63A 4P</tspan><tspan x="215.18" dy="2.5">ISOLATOR</tspan></text>
  <polygon points="238.50,183.01 250.50,183.01 250.50,189.01 238.50,189.01" stroke="#000000" stroke-width="0.25" fill="none" />
  <text x="242.10" y="187.32" font-family="Arial, Helvetica, sans-serif" font-size="2.2" fill="#000000">KWH</text>
  <text x="234.50" y="180.95" font-family="Arial, Helvetica, sans-serif" font-size="2.8" fill="#000000">KWH METER BY SP</text>
  <path d="M 272.84,185.16 A 3.75,3.75 0 0,0 266.16,185.16" stroke="#000000" stroke-width="0.25" fill="none" />
  <circle cx="266.16" cy="186.20" r="0.66" stroke="#000000" stroke-width="0.25" fill="none" />
  <circle cx="272.84" cy="186.19" r="0.66" stroke="#000000" stroke-width="0.25" fill="none" />
  <line x1="265.50" y1="186.01" x2="263.50" y2="186.01" stroke="#000000" stroke-width="0.25" fill="none" />
  <line x1="273.50" y1="186.01" x2="275.50" y2="186.01" stroke="#000000" stroke-width="0.25" fill="none" />
  <text x="263.56" y="190.75" font-family="Arial, Helvetica, sans-serif" font-size="1.8" fill="#000000"><tspan x="263.56">63A TPN MCB</tspan><tspan x="263.56" dy="2.5">TYPE B 25kA</tspan></text>
  <text x="296.50" y="185.25" font-family="Arial, Helvetica, sans-serif" font-size="2.8" fill="#000000">INCOMING FROM HDB ELECTRICAL RISER</text>
  <text x="287.50" y="196.85" font-family="Arial, Helvetica, sans-serif" font-size="2.8" fill="#000000"><tspan x="287.50">4 x 1C 16sqmm PVC/PVC +</tspan><tspan x="287.50" dy="3.9">16sqmm PVC CPC IN METAL TRUNKING</tspan></text>
  <text x="150.24" y="170.05" font-family="Arial, Helvetica, sans-serif" font-size="2.8" fill="#000000"><tspan x="150.24">4 x 1C 16sqmm PVC/PVC +</tspan><tspan x="150.24" dy="3.9">16sqmm PVC CPC IN METAL TRUNKING</tspan></text>
  <text x="213.00" y="199.23" font-family="Arial, Helvetica, sans-serif" font-size="2.8" fill="#000000">METER BOARD</text>
  <line x1="281.50" y1="203.29" x2="281.50" y2="205.09" stroke="#000000" stroke-width="0.25" fill="none" />
  <line x1="279.25" y1="205.09" x2="283.75" y2="205.09" stroke="#000000" stroke-width="0.25" fill="none" />
  <line x1="280.00" y1="206.21" x2="283.00" y2="206.21" stroke="#000000" stroke-width="0.25" fill="none" />
  <line x1="280.75" y1="207.34" x2="282.25" y2="207.34" stroke="#000000" stroke-width="0.25" fill="none" />
  <text x="286.75" y="204.82" font-family="Arial, Helvetica, sans-serif" font-size="1.6" fill="#000000">E</text>
  <path d="M 210.96,146.47 A 4.22,4.22 0 0,0 210.96,138.95" stroke="#000000" stroke-width="0.25" fill="none" />
  <circle cx="209.78" cy="138.95" r="0.74" stroke="#000000" stroke-width="0.25" fill="none" />
  <circle cx="209.80" cy="146.47" r="0.74" stroke="#000000" stroke-width="0.25" fill="none" />
  <line x1="210.00" y1="147.21" x2="210.00" y2="149.21" stroke="#000000" stroke-width="0.25" fill="none" />
  <line x1="210.00" y1="138.21" x2="210.00" y2="136.21" stroke="#000000" stroke-width="0.25" fill="none" />
  <text x="213.96" y="142.15" font-family="Arial, Helvetica, sans-serif" font-size="1.8" fill="#000000">63A TPN MCCB (25KA)</text>
  <line x1="114.00" y1="131.21" x2="346.00" y2="131.21" stroke="#000000" stroke-width="0.50" fill="none" />
  <text x="117.00" y="136.45" font-family="Arial, Helvetica, sans-serif" font-size="2.8" fill="#000000">200A COMB BAR</text>
  <text x="129.00" y="127.47" font-family="Arial, Helvetica, sans-serif" font-size="2.2" fill="#000000" transform="rotate(-90.0,129.00,126.59)">L1S1</text>
  <path d="M 128.35,118.55 A 3.75,3.75 0 0,0 128.35,111.87" stroke="#000000" stroke-width="0.25" fill="none" />
  <circle cx="127.31" cy="111.87" r="0.66" stroke="#000000" stroke-width="0.25" fill="none" />
  <circle cx="127.32" cy="118.55" r="0.66" stroke="#000000" stroke-width="0.25" fill="none" />
  <line x1="127.50" y1="119.21" x2="127.50" y2="121.21" stroke="#000000" stroke-width="0.25" fill="none" />
  <line x1="127.50" y1="111.21" x2="127.50" y2="109.21" stroke="#000000" stroke-width="0.25" fill="none" />
  <line x1="124.39" y1="115.21" x2="130.39" y2="115.21" stroke="#000000" stroke-width="0.25" fill="none" />
  <line x1="130.39" y1="115.21" x2="129.19" y2="114.61" stroke="#000000" stroke-width="0.25" fill="none" />
  <line x1="130.39" y1="115.21" x2="129.19" y2="115.81" stroke="#000000" stroke-width="0.25" fill="none" />
  <text x="119.00" y="113.81" font-family="Arial, Helvetica, sans-serif" font-size="2.0" fill="#000000">B10A</text>
  <text x="119.00" y="116.31" font-family="Arial, Helvetica, sans-serif" font-size="2.0" fill="#000000">SPN</text>
  <text x="119.00" y="118.81" font-family="Arial, Helvetica, sans-serif" font-size="2.0" fill="#000000">MCB</text>
  <text x="119.00" y="121.31" font-family="Arial, Helvetica, sans-serif" font-size="2.0" fill="#000000">6kA</text>
  <text x="127.50" y="86.45" font-family="Arial, Helvetica, sans-serif" font-size="2.8" fill="#000000" transform="rotate(-90.0,127.50,85.33)">1 NO. LIGHTS 1</text>
  <text x="162.00" y="127.47" font-family="Arial, Helvetica, sans-serif" font-size="2.2" fill="#000000" transform="rotate(-90.0,162.00,126.59)">L2S1</text>
  <path d="M 161.35,118.55 A 3.75,3.75 0 0,0 161.35,111.87" stroke="#000000" stroke-width="0.25" fill="none" />
  <circle cx="160.31" cy="111.87" r="0.66" stroke="#000000" stroke-width="0.25" fill="none" />
  <circle cx="160.32" cy="118.55" r="0.66" stroke="#000000" stroke-width="0.25" fill="none" />
  <line x1="160.50" y1="119.21" x2="160.50" y2="121.21" stroke="#000000" stroke-width="0.25" fill="none" />
  <line x1="160.50" y1="111.21" x2="160.50" y2="109.21" stroke="#000000" stroke-width="0.25" fill="none" />
  <line x1="130.39" y1="115.21" x2="163.39" y2="115.21" stroke="#000000" stroke-width="0.25" fill="none" />
  <line x1="163.39" y1="115.21" x2="162.19" y2="114.61" stroke="#000000" stroke-width="0.25" fill="none" />
  <line x1="163.39" y1="115.21" x2="162.19" y2="115.81" stroke="#000000" stroke-width="0.25" fill="none" />
  <text x="160.50" y="86.45" font-family="Arial, Helvetica, sans-serif" font-size="2.8" fill="#000000" transform="rotate(-90.0,160.50,85.33)">1 NO. LIGHTS 2</text>
  <text x="195.00" y="127.47" font-family="Arial, Helvetica, sans-serif" font-size="2.2" fill="#000000" transform="rotate(-90.0,195.00,126.59)">L3S1</text>
  <path d="M 194.35,118.55 A 3.75,3.75 0 0,0 194.35,111.87" stroke="#000000" stroke-width="0.25" fill="none" />
  <circle cx="193.31" cy="111.87" r="0.66" stroke="#000000" stroke-width="0.25" fill="none" />
  <circle cx="193.32" cy="118.55" r="0.66" stroke="#000000" stroke-width="0.25" fill="none" />
  <line x1="193.50" y1="119.21" x2="193.50" y2="121.21" stroke="#000000" stroke-width="0.25" fill="none" />
  <line x1="193.50" y1="111.21" x2="193.50" y2="109.21" stroke="#000000" stroke-width="0.25" fill="none" />
  <line x1="163.39" y1="115.21" x2="196.39" y2="115.21" stroke="#000000" stroke-width="0.25" fill="none" />
  <line x1="196.39" y1="115.21" x2="195.19" y2="114.61" stroke="#000000" stroke-width="0.25" fill="none" />
  <line x1="196.39" y1="115.21" x2="195.19" y2="115.81" stroke="#000000" stroke-width="0.25" fill="none" />
  <text x="193.50" y="86.45" font-family="Arial, Helvetica, sans-serif" font-size="2.8" fill="#000000" transform="rotate(-90.0,193.50,85.33)">1 NO. LIGHTS 3</text>
  <text x="234.00" y="127.47" font-family="Arial, Helvetica, sans-serif" font-size="2.2" fill="#000000" transform="rotate(-90.0,234.00,126.59)">L1P1</text>
  <path d="M 233.35,118.55 A 3.75,3.75 0 0,0 233.35,111.87" stroke="#000000" stroke-width="0.25" fill="none" />
  <circle cx="232.31" cy="111.87" r="0.66" stroke="#000000" stroke-width="0.25" fill="none" />
  <circle cx="232.32" cy="118.55" r="0.66" stroke="#000000" stroke-width="0.25" fill="none" />
  <line x1="232.50" y1="119.21" x2="232.50" y2="121.21" stroke="#000000" stroke-width="0.25" fill="none" />
  <line x1="232.50" y1="111.21" x2="232.50" y2="109.21" stroke="#000000" stroke-width="0.25" fill="none" />
  <line x1="229.39" y1="115.21" x2="235.39" y2="115.21" stroke="#000000" stroke-width="0.25" fill="none" />
  <line x1="235.39" y1="115.21" x2="234.19" y2="114.61" stroke="#000000" stroke-width="0.25" fill="none" />
  <line x1="235.39" y1="115.21" x2="234.19" y2="115.81" stroke="#000000" stroke-width="0.25" fill="none" />
  <text x="224.00" y="113.81" font-family="Arial, Helvetica, sans-serif" font-size="2.0" fill="#000000">B20A</text>
  <text x="224.00" y="116.31" font-family="Arial, Helvetica, sans-serif" font-size="2.0" fill="#000000">SPN</text>
  <text x="224.00" y="118.81" font-family="Arial, Helvetica, sans-serif" font-size="2.0" fill="#000000">MCB</text>
  <text x="224.00" y="121.31" font-family="Arial, Helvetica, sans-serif" font-size="2.0" fill="#000000">6kA</text>
  <text x="232.50" y="86.45" font-family="Arial, Helvetica, sans-serif" font-size="2.8" fill="#000000" transform="rotate(-90.0,232.50,85.33)">1 NO. 13A S/S/O 1</text>
  <text x="267.00" y="127.47" font-family="Arial, Helvetica, sans-serif" font-size="2.2" fill="#000000" transform="rotate(-90.0,267.00,126.59)">L2P1</text>
  <path d="M 266.35,118.55 A 3.75,3.75 0 0,0 266.35,111.87" stroke="#000000" stroke-width="0.25" fill="none" />
  <circle cx="265.31" cy="111.87" r="0.66" stroke="#000000" stroke-width="0.25" fill="none" />
  <circle cx="265.32" cy="118.55" r="0.66" stroke="#000000" stroke-width="0.25" fill="none" />
  <line x1="265.50" y1="119.21" x2="265.50" y2="121.21" stroke="#000000" stroke-width="0.25" fill="none" />
  <line x1="265.50" y1="111.21" x2="265.50" y2="109.21" stroke="#000000" stroke-width="0.25" fill="none" />
  <line x1="235.39" y1="115.21" x2="268.39" y2="115.21" stroke="#000000" stroke-width="0.25" fill="none" />
  <line x1="268.39" y1="115.21" x2="267.19" y2="114.61" stroke="#000000" stroke-width="0.25" fill="none" />
  <line x1="268.39" y1="115.21" x2="267.19" y2="115.81" stroke="#000000" stroke-width="0.25" fill="none" />
  <text x="265.50" y="86.45" font-family="Arial, Helvetica, sans-serif" font-size="2.8" fill="#000000" transform="rotate(-90.0,265.50,85.33)">1 NO. 13A S/S/O 2</text>
  <text x="300.00" y="127.47" font-family="Arial, Helvetica, sans-serif" font-size="2.2" fill="#000000" transform="rotate(-90.0,300.00,126.59)">L3P1</text>
  <path d="M 299.35,118.55 A 3.75,3.75 0 0,0 299.35,111.87" stroke="#000000" stroke-width="0.25" fill="none" />
  <circle cx="298.31" cy="111.87" r="0.66" stroke="#000000" stroke-width="0.25" fill="none" />
  <circle cx="298.32" cy="118.55" r="0.66" stroke="#000000" stroke-width="0.25" fill="none" />
  <line x1="298.50" y1="119.21" x2="298.50" y2="121.21" stroke="#000000" stroke-width="0.25" fill="none" />
  <line x1="298.50" y1="111.21" x2="298.50" y2="109.21" stroke="#000000" stroke-width="0.25" fill="none" />
  <line x1="268.39" y1="115.21" x2="301.39" y2="115.21" stroke="#000000" stroke-width="0.25" fill="none" />
  <line x1="301.39" y1="115.21" x2="300.19" y2="114.61" stroke="#000000" stroke-width="0.25" fill="none" />
  <line x1="301.39" y1="115.21" x2="300.19" y2="115.81" stroke="#000000" stroke-width="0.25" fill="none" />
  <text x="298.50" y="86.45" font-family="Arial, Helvetica, sans-serif" font-size="2.8" fill="#000000" transform="rotate(-90.0,298.50,85.33)">SPARE</text>
  <text x="114.50" y="86.45" font-family="Arial, Helvetica, sans-serif" font-size="2.8" fill="#000000" transform="rotate(-90.0,114.50,85.33)">2C 1.5sqmm PVC + 1.5sqmm</text>
  <text x="118.42" y="86.45" font-family="Arial, Helvetica, sans-serif" font-size="2.8" fill="#000000" transform="rotate(-90.0,118.42,85.33)">PVC CPC IN METAL TRUNKING</text>
  <text x="275.50" y="86.45" font-family="Arial, Helvetica, sans-serif" font-size="2.8" fill="#000000" transform="rotate(-90.0,275.50,85.33)">2C 2.5sqmm PVC + 2.5sqmm</text>
  <text x="279.42" y="86.45" font-family="Arial, Helvetica, sans-serif" font-size="2.8" fill="#000000" transform="rotate(-90.0,279.42,85.33)">PVC CPC IN METAL TRUNKING</text>
  <text x="110.00" y="151.61" font-family="Arial, Helvetica, sans-serif" font-size="3.0" fill="#000000">63A DB</text>
  <text x="110.00" y="154.65" font-family="Arial, Helvetica, sans-serif" font-size="1.8" fill="#000000">APPROVED LOAD: 45 KVA AT 400V</text>
  <line x1="305.40" y1="165.21" x2="305.40" y2="167.01" stroke="#000000" stroke-width="0.25" fill="none" />
  <line x1="303.15" y1="167.01" x2="307.65" y2="167.01" stroke="#000000" stroke-width="0.25" fill="none" />
  <line x1="303.90" y1="168.13" x2="306.90" y2="168.13" stroke="#000000" stroke-width="0.25" fill="none" />
  <line x1="304.65" y1="169.26" x2="306.15" y2="169.26" stroke="#000000" stroke-width="0.25" fill="none" />
  <text x="310.65" y="166.74" font-family="Arial, Helvetica, sans-serif" font-size="1.6" fill="#000000">E</text>
  <line x1="210.00" y1="186.01" x2="216.00" y2="186.01" stroke="#000000" stroke-width="0.25" fill="none" />
  <line x1="223.00" y1="186.01" x2="238.50" y2="186.01" stroke="#000000" stroke-width="0.25" fill="none" />
  <line x1="250.50" y1="186.01" x2="265.50" y2="186.01" stroke="#000000" stroke-width="0.25" fill="none" />
  <line x1="273.50" y1="186.01" x2="293.50" y2="186.01" stroke="#000000" stroke-width="0.25" fill="none" />
  <line x1="282.00" y1="187.51" x2="285.00" y2="184.51" stroke="#000000" stroke-width="0.25" fill="none" />
  <line x1="283.50" y1="186.01" x2="283.50" y2="196.01" stroke="#000000" stroke-width="0.25" fill="none" />
  <line x1="283.50" y1="196.01" x2="286.50" y2="196.01" stroke="#000000" stroke-width="0.25" fill="none" />
  <line x1="210.00" y1="186.01" x2="210.00" y2="161.21" stroke="#000000" stroke-width="0.25" fill="none" />
  <line x1="210.00" y1="169.21" x2="207.00" y2="169.21" stroke="#000000" stroke-width="0.25" fill="none" />
  <line x1="277.50" y1="197.79" x2="281.50" y2="197.79" stroke="#000000" stroke-width="0.25" fill="none" />
  <line x1="281.50" y1="197.79" x2="281.50" y2="203.29" stroke="#000000" stroke-width="0.25" fill="none" />
  <line x1="210.00" y1="161.21" x2="210.00" y2="147.21" stroke="#000000" stroke-width="0.25" fill="none" />
  <line x1="210.00" y1="149.21" x2="210.00" y2="147.21" stroke="#000000" stroke-width="0.25" fill="none" />
  <line x1="210.00" y1="138.21" x2="210.00" y2="136.21" stroke="#000000" stroke-width="0.25" fill="none" />
  <line x1="210.00" y1="136.21" x2="210.00" y2="131.21" stroke="#000000" stroke-width="0.25" fill="none" />
  <line x1="127.50" y1="122.43" x2="127.50" y2="119.21" stroke="#000000" stroke-width="0.25" fill="none" />
  <line x1="127.50" y1="111.21" x2="127.50" y2="109.21" stroke="#000000" stroke-width="0.25" fill="none" />
  <line x1="127.50" y1="109.21" x2="127.50" y2="86.21" stroke="#000000" stroke-width="0.25" fill="none" />
  <line x1="160.50" y1="131.21" x2="160.50" y2="119.21" stroke="#000000" stroke-width="0.25" fill="none" />
  <line x1="160.50" y1="111.21" x2="160.50" y2="109.21" stroke="#000000" stroke-width="0.25" fill="none" />
  <line x1="160.50" y1="109.21" x2="160.50" y2="86.21" stroke="#000000" stroke-width="0.25" fill="none" />
  <line x1="193.50" y1="122.43" x2="193.50" y2="119.21" stroke="#000000" stroke-width="0.25" fill="none" />
  <line x1="193.50" y1="111.21" x2="193.50" y2="109.21" stroke="#000000" stroke-width="0.25" fill="none" />
  <line x1="193.50" y1="109.21" x2="193.50" y2="86.21" stroke="#000000" stroke-width="0.25" fill="none" />
  <line x1="232.50" y1="122.43" x2="232.50" y2="119.21" stroke="#000000" stroke-width="0.25" fill="none" />
  <line x1="232.50" y1="111.21" x2="232.50" y2="109.21" stroke="#000000" stroke-width="0.25" fill="none" />
  <line x1="232.50" y1="109.21" x2="232.50" y2="86.21" stroke="#000000" stroke-width="0.25" fill="none" />
  <line x1="265.50" y1="131.21" x2="265.50" y2="119.21" stroke="#000000" stroke-width="0.25" fill="none" />
  <line x1="265.50" y1="111.21" x2="265.50" y2="109.21" stroke="#000000" stroke-width="0.25" fill="none" />
  <line x1="265.50" y1="109.21" x2="265.50" y2="86.21" stroke="#000000" stroke-width="0.25" fill="none" />
  <line x1="298.50" y1="122.43" x2="298.50" y2="119.21" stroke="#000000" stroke-width="0.25" fill="none" />
  <line x1="298.50" y1="111.21" x2="298.50" y2="109.21" stroke="#000000" stroke-width="0.25" fill="none" />
  <line x1="298.50" y1="109.21" x2="298.50" y2="86.21" stroke="#000000" stroke-width="0.25" fill="none" />
  <line x1="117.50" y1="91.21" x2="193.50" y2="91.21" stroke="#000000" stroke-width="0.25" fill="none" />
  <line x1="117.50" y1="91.21" x2="117.50" y2="86.21" stroke="#000000" stroke-width="0.25" fill="none" />
  <line x1="232.50" y1="91.21" x2="275.50" y2="91.21" stroke="#000000" stroke-width="0.25" fill="none" />
  <line x1="275.50" y1="91.21" x2="275.50" y2="86.21" stroke="#000000" stroke-width="0.25" fill="none" />
  <line x1="305.40" y1="157.21" x2="305.40" y2="165.21" stroke="#000000" stroke-width="0.25" fill="none" />
  <line x1="208.75" y1="170.46" x2="211.25" y2="167.96" stroke="#000000" stroke-width="0.50" fill="none" />
  <line x1="126.25" y1="92.46" x2="128.75" y2="89.96" stroke="#000000" stroke-width="0.50" fill="none" />
  <line x1="159.25" y1="92.46" x2="161.75" y2="89.96" stroke="#000000" stroke-width="0.50" fill="none" />
  <line x1="192.25" y1="92.46" x2="194.75" y2="89.96" stroke="#000000" stroke-width="0.50" fill="none" />
  <line x1="231.25" y1="92.46" x2="233.75" y2="89.96" stroke="#000000" stroke-width="0.50" fill="none" />
  <line x1="264.25" y1="92.46" x2="266.75" y2="89.96" stroke="#000000" stroke-width="0.50" fill="none" />
  <line x1="160.50" y1="131.21" x2="160.50" y2="121.21" stroke="#000000" stroke-width="0.25" fill="none" />
  <line x1="160.50" y1="131.21" x2="127.50" y2="122.43" stroke="#000000" stroke-width="0.25" fill="none" />
  <line x1="127.50" y1="122.43" x2="127.50" y2="121.21" stroke="#000000" stroke-width="0.25" fill="none" />
  <line x1="160.50" y1="131.21" x2="193.50" y2="122.43" stroke="#000000" stroke-width="0.25" fill="none" />
  <line x1="193.50" y1="122.43" x2="193.50" y2="121.21" stroke="#000000" stroke-width="0.25" fill="none" />
  <line x1="265.50" y1="131.21" x2="265.50" y2="121.21" stroke="#000000" stroke-width="0.25" fill="none" />
  <line x1="265.50" y1="131.21" x2="232.50" y2="122.43" stroke="#000000" stroke-width="0.25" fill="none" />
  <line x1="232.50" y1="122.43" x2="232.50" y2="121.21" stroke="#000000" stroke-width="0.25" fill="none" />
  <line x1="265.50" y1="131.21" x2="298.50" y2="122.43" stroke="#000000" stroke-width="0.25" fill="none" />
  <line x1="298.50" y1="122.43" x2="298.50" y2="121.21" stroke="#000000" stroke-width="0.25" fill="none" />
  <line x1="212.00" y1="200.79" x2="220.00" y2="200.79" stroke="#808080" stroke-width="0.25" fill="none" />
  <line x1="222.00" y1="200.79" x2="223.50" y2="200.79" stroke="#808080" stroke-width="0.25" fill="none" />
  <line x1="225.50" y1="200.79" x2="233.50" y2="200.79" stroke="#808080" stroke-width="0.25" fill="none" />
  <line x1="235.50" y1="200.79" x2="237.00" y2="200.79" stroke="#808080" stroke-width="0.25" fill="none" />
  <line x1="239.00" y1="200.79" x2="247.00" y2="200.79" stroke="#808080" stroke-width="0.25" fill="none" />
  <line x1="249.00" y1="200.79" x2="250.50" y2="200.79" stroke="#808080" stroke-width="0.25" fill="none" />
  <line x1="252.50" y1="200.79" x2="260.50" y2="200.79" stroke="#808080" stroke-width="0.25" fill="none" />
  <line x1="262.50" y1="200.79" x2="264.00" y2="200.79" stroke="#808080" stroke-width="0.25" fill="none" />
  <line x1="266.00" y1="200.79" x2="274.00" y2="200.79" stroke="#808080" stroke-width="0.25" fill="none" />
  <line x1="276.00" y1="200.79" x2="277.50" y2="200.79" stroke="#808080" stroke-width="0.25" fill="none" />
  <line x1="212.00" y1="177.21" x2="220.00" y2="177.21" stroke="#808080" stroke-width="0.25" fill="none" />
  <line x1="222.00" y1="177.21" x2="223.50" y2="177.21" stroke="#808080" stroke-width="0.25" fill="none" />
  <line x1="225.50" y1="177.21" x2="233.50" y2="177.21" stroke="#808080" stroke-width="0.25" fill="none" />
  <line x1="235.50" y1="177.21" x2="237.00" y2="177.21" stroke="#808080" stroke-width="0.25" fill="none" />
  <line x1="239.00" y1="177.21" x2="247.00" y2="177.21" stroke="#808080" stroke-width="0.25" fill="none" />
  <line x1="249.00" y1="177.21" x2="250.50" y2="177.21" stroke="#808080" stroke-width="0.25" fill="none" />
  <line x1="252.50" y1="177.21" x2="260.50" y2="177.21" stroke="#808080" stroke-width="0.25" fill="none" />
  <line x1="262.50" y1="177.21" x2="264.00" y2="177.21" stroke="#808080" stroke-width="0.25" fill="none" />
  <line x1="266.00" y1="177.21" x2="274.00" y2="177.21" stroke="#808080" stroke-width="0.25" fill="none" />
  <line x1="276.00" y1="177.21" x2="277.50" y2="177.21" stroke="#808080" stroke-width="0.25" fill="none" />
  <line x1="212.00" y1="200.79" x2="212.00" y2="192.79" stroke="#808080" stroke-width="0.25" fill="none" />
  <line x1="212.00" y1="190.79" x2="212.00" y2="189.29" stroke="#808080" stroke-width="0.25" fill="none" />
  <line x1="212.00" y1="187.29" x2="212.00" y2="179.29" stroke="#808080" stroke-width="0.25" fill="none" />
  <line x1="212.00" y1="177.29" x2="212.00" y2="177.21" stroke="#808080" stroke-width="0.25" fill="none" />
  <line x1="277.50" y1="200.79" x2="277.50" y2="192.79" stroke="#808080" stroke-width="0.25" fill="none" />
  <line x1="277.50" y1="190.79" x2="277.50" y2="189.29" stroke="#808080" stroke-width="0.25" fill="none" />
  <line x1="277.50" y1="187.29" x2="277.50" y2="179.29" stroke="#808080" stroke-width="0.25" fill="none" />
  <line x1="277.50" y1="177.29" x2="277.50" y2="177.21" stroke="#808080" stroke-width="0.25" fill="none" />
  <line x1="104.00" y1="157.21" x2="112.00" y2="157.21" stroke="#808080" stroke-width="0.25" fill="none" />
  <line x1="114.00" y1="157.21" x2="115.50" y2="157.21" stroke="#808080" stroke-width="0.25" fill="none" />
  <line x1="117.50" y1="157.21" x2="125.50" y2="157.21" stroke="#808080" stroke-width="0.25" fill="none" />
  <line x1="127.50" y1="157.21" x2="129.00" y2="157.21" stroke="#808080" stroke-width="0.25" fill="none" />
  <line x1="131.00" y1="157.21" x2="139.00" y2="157.21" stroke="#808080" stroke-width="0.25" fill="none" />
  <line x1="141.00" y1="157.21" x2="142.50" y2="157.21" stroke="#808080" stroke-width="0.25" fill="none" />
  <line x1="144.50" y1="157.21" x2="152.50" y2="157.21" stroke="#808080" stroke-width="0.25" fill="none" />
  <line x1="154.50" y1="157.21" x2="156.00" y2="157.21" stroke="#808080" stroke-width="0.25" fill="none" />
  <line x1="158.00" y1="157.21" x2="166.00" y2="157.21" stroke="#808080" stroke-width="0.25" fill="none" />
  <line x1="168.00" y1="157.21" x2="169.50" y2="157.21" stroke="#808080" stroke-width="0.25" fill="none" />
  <line x1="171.50" y1="157.21" x2="179.50" y2="157.21" stroke="#808080" stroke-width="0.25" fill="none" />
  <line x1="181.50" y1="157.21" x2="183.00" y2="157.21" stroke="#808080" stroke-width="0.25" fill="none" />
  <line x1="185.00" y1="157.21" x2="193.00" y2="157.21" stroke="#808080" stroke-width="0.25" fill="none" />
  <line x1="195.00" y1="157.21" x2="196.50" y2="157.21" stroke="#808080" stroke-width="0.25" fill="none" />
  <line x1="198.50" y1="157.21" x2="206.50" y2="157.21" stroke="#808080" stroke-width="0.25" fill="none" />
  <line x1="208.50" y1="157.21" x2="210.00" y2="157.21" stroke="#808080" stroke-width="0.25" fill="none" />
  <line x1="212.00" y1="157.21" x2="220.00" y2="157.21" stroke="#808080" stroke-width="0.25" fill="none" />
  <line x1="222.00" y1="157.21" x2="223.50" y2="157.21" stroke="#808080" stroke-width="0.25" fill="none" />
  <line x1="225.50" y1="157.21" x2="233.50" y2="157.21" stroke="#808080" stroke-width="0.25" fill="none" />
  <line x1="235.50" y1="157.21" x2="237.00" y2="157.21" stroke="#808080" stroke-width="0.25" fill="none" />
  <line x1="239.00" y1="157.21" x2="247.00" y2="157.21" stroke="#808080" stroke-width="0.25" fill="none" />
  <line x1="249.00" y1="157.21" x2="250.50" y2="157.21" stroke="#808080" stroke-width="0.25" fill="none" />
  <line x1="252.50" y1="157.21" x2="260.50" y2="157.21" stroke="#808080" stroke-width="0.25" fill="none" />
  <line x1="262.50" y1="157.21" x2="264.00" y2="157.21" stroke="#808080" stroke-width="0.25" fill="none" />
  <line x1="266.00" y1="157.21" x2="274.00" y2="157.21" stroke="#808080" stroke-width="0.25" fill="none" />
  <line x1="276.00" y1="157.21" x2="277.50" y2="157.21" stroke="#808080" stroke-width="0.25" fill="none" />
  <line x1="279.50" y1="157.21" x2="287.50" y2="157.21" stroke="#808080" stroke-width="0.25" fill="none" />
  <line x1="289.50" y1="157.21" x2="291.00" y2="157.21" stroke="#808080" stroke-width="0.25" fill="none" />
  <line x1="293.00" y1="157.21" x2="301.00" y2="157.21" stroke="#808080" stroke-width="0.25" fill="none" />
  <line x1="303.00" y1="157.21" x2="304.50" y2="157.21" stroke="#808080" stroke-width="0.25" fill="none" />
  <line x1="306.50" y1="157.21" x2="314.50" y2="157.21" stroke="#808080" stroke-width="0.25" fill="none" />
  <line x1="104.00" y1="101.21" x2="112.00" y2="101.21" stroke="#808080" stroke-width="0.25" fill="none" />
  <line x1="114.00" y1="101.21" x2="115.50" y2="101.21" stroke="#808080" stroke-width="0.25" fill="none" />
  <line x1="117.50" y1="101.21" x2="125.50" y2="101.21" stroke="#808080" stroke-width="0.25" fill="none" />
  <line x1="127.50" y1="101.21" x2="129.00" y2="101.21" stroke="#808080" stroke-width="0.25" fill="none" />
  <line x1="131.00" y1="101.21" x2="139.00" y2="101.21" stroke="#808080" stroke-width="0.25" fill="none" />
  <line x1="141.00" y1="101.21" x2="142.50" y2="101.21" stroke="#808080" stroke-width="0.25" fill="none" />
  <line x1="144.50" y1="101.21" x2="152.50" y2="101.21" stroke="#808080" stroke-width="0.25" fill="none" />
  <line x1="154.50" y1="101.21" x2="156.00" y2="101.21" stroke="#808080" stroke-width="0.25" fill="none" />
  <line x1="158.00" y1="101.21" x2="166.00" y2="101.21" stroke="#808080" stroke-width="0.25" fill="none" />
  <line x1="168.00" y1="101.21" x2="169.50" y2="101.21" stroke="#808080" stroke-width="0.25" fill="none" />
  <line x1="171.50" y1="101.21" x2="179.50" y2="101.21" stroke="#808080" stroke-width="0.25" fill="none" />
  <line x1="181.50" y1="101.21" x2="183.00" y2="101.21" stroke="#808080" stroke-width="0.25" fill="none" />
  <line x1="185.00" y1="101.21" x2="193.00" y2="101.21" stroke="#808080" stroke-width="0.25" fill="none" />
  <line x1="195.00" y1="101.21" x2="196.50" y2="101.21" stroke="#808080" stroke-width="0.25" fill="none" />
  <line x1="198.50" y1="101.21" x2="206.50" y2="101.21" stroke="#808080" stroke-width="0.25" fill="none" />
  <line x1="208.50" y1="101.21" x2="210.00" y2="101.21" stroke="#808080" stroke-width="0.25" fill="none" />
  <line x1="212.00" y1="101.21" x2="220.00" y2="101.21" stroke="#808080" stroke-width="0.25" fill="none" />
  <line x1="222.00" y1="101.21" x2="223.50" y2="101.21" stroke="#808080" stroke-width="0.25" fill="none" />
  <line x1="225.50" y1="101.21" x2="233.50" y2="101.21" stroke="#808080" stroke-width="0.25" fill="none" />
  <line x1="235.50" y1="101.21" x2="237.00" y2="101.21" stroke="#808080" stroke-width="0.25" fill="none" />
  <line x1="239.00" y1="101.21" x2="247.00" y2="101.21" stroke="#808080" stroke-width="0.25" fill="none" />
  <line x1="249.00" y1="101.21" x2="250.50" y2="101.21" stroke="#808080" stroke-width="0.25" fill="none" />
  <line x1="252.50" y1="101.21" x2="260.50" y2="101.21" stroke="#808080" stroke-width="0.25" fill="none" />
  <line x1="262.50" y1="101.21" x2="264.00" y2="101.21" stroke="#808080" stroke-width="0.25" fill="none" />
  <line x1="266.00" y1="101.21" x2="274.00" y2="101.21" stroke="#808080" stroke-width="0.25" fill="none" />
  <line x1="276.00" y1="101.21" x2="277.50" y2="101.21" stroke="#808080" stroke-width="0.25" fill="none" />
  <line x1="279.50" y1="101.21" x2="287.50" y2="101.21" stroke="#808080" stroke-width="0.25" fill="none" />
  <line x1="289.50" y1="101.21" x2="291.00" y2="101.21" stroke="#808080" stroke-width="0.25" fill="none" />
  <line x1="293.00" y1="101.21" x2="301.00" y2="101.21" stroke="#808080" stroke-width="0.25" fill="none" />
  <line x1="303.00" y1="101.21" x2="304.50" y2="101.21" stroke="#808080" stroke-width="0.25" fill="none" />
  <line x1="306.50" y1="101.21" x2="314.50" y2="101.21" stroke="#808080" stroke-width="0.25" fill="none" />
  <line x1="104.00" y1="157.21" x2="104.00" y2="149.21" stroke="#808080" stroke-width="0.25" fill="none" />
  <line x1="104.00" y1="147.21" x2="104.00" y2="145.71" stroke="#808080" stroke-width="0.25" fill="none" />
  <line x1="104.00" y1="143.71" x2="104.00" y2="135.71" stroke="#808080" stroke-width="0.25" fill="none" />
  <line x1="104.00" y1="133.71" x2="104.00" y2="132.21" stroke="#808080" stroke-width="0.25" fill="none" />
  <line x1="104.00" y1="130.21" x2="104.00" y2="122.21" stroke="#808080" stroke-width="0.25" fill="none" />
  <line x1="104.00" y1="120.21" x2="104.00" y2="118.71" stroke="#808080" stroke-width="0.25" fill="none" />
  <line x1="104.00" y1="116.71" x2="104.00" y2="108.71" stroke="#808080" stroke-width="0.25" fill="none" />
  <line x1="104.00" y1="106.71" x2="104.00" y2="105.21" stroke="#808080" stroke-width="0.25" fill="none" />
  <line x1="104.00" y1="103.21" x2="104.00" y2="101.21" stroke="#808080" stroke-width="0.25" fill="none" />
  <line x1="316.00" y1="157.21" x2="316.00" y2="149.21" stroke="#808080" stroke-width="0.25" fill="none" />
  <line x1="316.00" y1="147.21" x2="316.00" y2="145.71" stroke="#808080" stroke-width="0.25" fill="none" />
  <line x1="316.00" y1="143.71" x2="316.00" y2="135.71" stroke="#808080" stroke-width="0.25" fill="none" />
  <line x1="316.00" y1="133.71" x2="316.00" y2="132.21" stroke="#808080" stroke-width="0.25" fill="none" />
  <line x1="316.00" y1="130.21" x2="316.00" y2="122.21" stroke="#808080" stroke-width="0.25" fill="none" />
  <line x1="316.00" y1="120.21" x2="316.00" y2="118.71" stroke="#808080" stroke-width="0.25" fill="none" />
  <line x1="316.00" y1="116.71" x2="316.00" y2="108.71" stroke="#808080" stroke-width="0.25" fill="none" />
  <line x1="316.00" y1="106.71" x2="316.00" y2="105.21" stroke="#808080" stroke-width="0.25" fill="none" />
  <line x1="316.00" y1="103.21" x2="316.00" y2="101.21" stroke="#808080" stroke-width="0.25" fill="none" />
  <circle cx="277.50" cy="197.79" r="0.50" fill="rgb(0,0,0)" stroke="none" />
  <circle cx="160.50" cy="131.21" r="0.50" fill="rgb(0,0,0)" stroke="none" />
  <circle cx="160.50" cy="131.21" r="0.50" fill="rgb(0,0,0)" stroke="none" />
  <circle cx="160.50" cy="131.21" r="0.50" fill="rgb(0,0,0)" stroke="none" />
  <circle cx="265.50" cy="131.21" r="0.50" fill="rgb(0,0,0)" stroke="none" />
  <circle cx="265.50" cy="131.21" r="0.50" fill="rgb(0,0,0)" stroke="none" />
  <circle cx="265.50" cy="131.21" r="0.50" fill="rgb(0,0,0)" stroke="none" />
  <circle cx="305.40" cy="157.21" r="0.50" fill="rgb(0,0,0)" stroke="none" />
  <text x="13.00" y="264.40" font-family="Arial, Helvetica, sans-serif" font-size="3.0" fill="#000000">Electrical Installation</text>
  <text x="153.00" y="264.40" font-family="Arial, Helvetica, sans-serif" font-size="3.0" fill="#000000">LicenseKaki</text>
  <text x="225.00" y="263.80" font-family="Arial, Helvetica, sans-serif" font-size="3.5" fill="#000000"><tspan x="225.00">SINGLE LINE DIAGRAM</tspan><tspan x="225.00" dy="4.9">(SLD)</tspan></text>
  <text x="389.00" y="266.00" font-family="Arial, Helvetica, sans-serif" font-size="2.5" fill="#000000">DATE</text>
  <text x="365.00" y="278.00" font-family="Arial, Helvetica, sans-serif" font-size="2.5" fill="#000000"></text>
  <text x="394.00" y="278.80" font-family="Arial, Helvetica, sans-serif" font-size="3.5" fill="#000000">0</text>
  <text x="365.00" y="286.28" font-family="Arial, Helvetica, sans-serif" font-size="1.6" fill="#000000">SCALE : NTS</text>
  <text x="389.00" y="286.28" font-family="Arial, Helvetica, sans-serif" font-size="1.6" fill="#000000">SHEET : 1 OF 1</text>
</svg>