<svg xmlns="http://www.w3.org/2000/svg" viewBox="0 0 420.0 297.0" width="420.0mm" height="297.0mm">
  <rect width="420.0" height="297.0" fill="white" />
  <polygon points="10.00,287.00 410.00,287.00 410.00,10.00 10.00,10.00" stroke="#000000" stroke-width="0.25" fill="none" />
  <polygon points="10.00,287.00 410.00,287.00 410.00,255.00 10.00,255.00" stroke="#000000" stroke-width="0.25" fill="none" />
  <line x1="90.00" y1="255.00" x2="90.00" y2="287.00" stroke="#000000" stroke-width="0.25" fill="none" />
  <line x1="150.00" y1="255.00" x2="150.00" y2="287.00" stroke="#000000" stroke-width="0.25" fill="none" />
  <line x1="222.00" y1="255.00" x2="222.00" y2="287.00" stroke="#000000" stroke-width="0.25" fill="none" />
  <line x1="290.00" y1="255.00" x2="290.00" y2="287.00" stroke="#000000" stroke-width="0.25" fill="none" />
  <line x1="362.00" y1="255.00" x2="362.00" y2="287.00" stroke="#000000" stroke-width="0.25" fill="none" />
  <line x1="362.00" y1="270.00" x2="410.00" y2="270.00" stroke="#000000" stroke-width="0.25" fill="none" />
  <line x1="386.00" y1="255.00" x2="386.00" y2="287.00" stroke="#000000" stroke-width="0.25" fill="none" />
  <text x="12.00" y="258.94" font-family="Arial, Helvetica, sans-serif" font-size="1.8" fill="#000000">CLIENT / ADDRESS :</text>
  <text x="92.00" y="258.94" font-family="Arial, Helvetica, sans-serif" font-size="1.8" fill="#000000">MAIN CONTRACTOR :</text>
  <text x="152.00" y="258.94" font-family="Arial, Helvetica, sans-serif" font-size="1.8" fill="#000000">ELECTRICAL CONTRACTOR :</text>
  <text x="224.00" y="258.94" font-family="Arial, Helvetica, sans-serif" font-size="1.8" fill="#000000">DRAWING TITLE :</text>
  <text x="292.00" y="258.94" font-family="Arial, Helvetica, sans-serif" font-size="1.8" fill="#000000">LEW :</text>
  <text x="364.00" y="258.94" font-family="Arial, Helvetica, sans-serif" font-size="1.8" fill="#000000">CHECKED :</text>
  <text x="388.00" y="258.94" font-family="Arial, Helvetica, sans-serif" font-size="1.8" fill="#000000">DATE :</text>
  <text x="364.00" y="273.94" font-family="Arial, Helvetica, sans-serif" font-size="1.8" fill="#000000">DRAWING NO. :</text>
  <text x="388.00" y="273.94" font-family="Arial, Helvetica, sans-serif" font-size="1.8" fill="#000000">REV :</text>
  <circle cx="222.30" cy="189.51" r="0.70" stroke="#000000" stroke-width="0.25" fill="none" />
  <circle cx="216.70" cy="189.51" r="0.70" stroke="#000000" stroke-width="0.25" fill="none" />
  <polyline points="217.36,189.28 222.21,187.54" stroke="#000000" stroke-width="0.25" fill="none" />
  <text x="215.18" y="194.50" font-family="Arial, Helvetica, sans-serif" font-size="1.8" fill="#000000"><tspan x="215.18">63A 4P</tspan><tspan x="215.18" dy="2.5">ISOLATOR</tspan></text>
  <polygon points="238.50,186.51 250.50,186.51 250.50,192.51 238.50,192.51" stroke="#000000" stroke-width="0.25" fill="none" />
  <text x="242.10" y="190.82" font-family="Arial, Helvetica, sans-serif" font-size="2.2" fill="#000000">KWH</text>
  <text x="234.50" y="184.45" font-family="Arial, Helvetica, sans-serif" font-size="2.8" fill="#000000">KWH METER BY SP</text>
  <path d="M 272.84,188.66 A 3.75,3.75 0 0,0 266.16,188.66" stroke="#000000" stroke-width="0.25" fill="none" />
  <circle cx="266.16" cy="189.70" r="0.66" stroke="#000000" stroke-width="0.25" fill="none" />
  <circle cx="272.84" cy="189.69" r="0.66" stroke="#000000" stroke-width="0.25" fill="none" />
  <line x1="265.50" y1="189.51" x2="263.50" y2="189.51" stroke="#000000" stroke-width="0.25" fill="none" />
  <line x1="273.50" y1="189.51" x2="275.50" y2="189.51" stroke="#000000" stroke-width="0.25" fill="none" />
  <text x="263.56" y="194.25" font-family="Arial, Helvetica, sans-serif" font-size="1.8" fill="#000000"><tspan x="263.56">63A TPN MCB</tspan><tspan x="263.56" dy="2.5">TYPE B 25kA</tspan></text>
  <text x="296.50" y="188.75" font-family="Arial, Helvetica, sans-serif" font-size="2.8" fill="#000000">INCOMING FROM HDB ELECTRICAL RISER</text>
  <text x="287.50" y="200.35" font-family="Arial, Helvetica, sans-serif" font-size="2.8" fill="#000000"><tspan x="287.50">4 x 1C 16sqmm PVC/PVC +</tspan><tspan x="287.50" dy="3.9">16sqmm PVC CPC IN METAL TRUNKING</tspan></text>
  <text x="150.24" y="173.55" font-family="Arial, Helvetica, sans-serif" font-size="2.8" fill="#000000"><tspan x="150.24">4 x 1C 16sqmm PVC/PVC +</tspan><tspan x="150.24" dy="3.9">16sqmm PVC CPC IN METAL TRUNKING</tspan></text>
  <text x="213.00" y="202.73" font-family="Arial, Helvetica, sans-serif" font-size="2.8" fill="#000000">METER BOARD</text>
  <line x1="281.50" y1="206.79" x2="281.50" y2="208.59" stroke="#000000" stroke-width="0.25" fill="none" />
  <line x1="279.25" y1="208.59" x2="283.75" y2="208.59" stroke="#000000" stroke-width="0.25" fill="none" />
  <line x1="280.00" y1="209.71" x2="283.00" y2="209.71" stroke="#000000" stroke-width="0.25" fill="none" />
  <line x1="280.75" y1="210.84" x2="282.25" y2="210.84" stroke="#000000" stroke-width="0.25" fill="none" />
  <text x="286.75" y="208.32" font-family="Arial, Helvetica, sans-serif" font-size="1.6" fill="#000000">E</text>
  <path d="M 210.96,149.97 A 4.22,4.22 0 0,0 210.96,142.45" stroke="#000000" stroke-width="0.25" fill="none" />
  <circle cx="209.78" cy="142.45" r="0.74" stroke="#000000" stroke-width="0.25" fill="none" />
  <circle cx="209.80" cy="149.97" r="0.74" stroke="#000000" stroke-width="0.25" fill="none" />
  <line x1="210.00" y1="150.71" x2="210.00" y2="152.71" stroke="#000000" stroke-width="0.25" fill="none" />
  <line x1="210.00" y1="141.71" x2="210.00" y2="139.71" stroke="#000000" stroke-width="0.25" fill="none" />
  <text x="213.96" y="145.65" font-family="Arial, Helvetica, sans-serif" font-size="1.8" fill="#000000">63A TPN MCCB (25KA)</text>
  <path d="M 211.17,133.97 A 4.22,4.22 0 0,0 211.17,126.45" stroke="#000000" stroke-width="0.25" fill="none" />
  <circle cx="209.99" cy="126.45" r="0.74" stroke="#000000" stroke-width="0.25" fill="none" />
  <circle cx="210.01" cy="133.97" r="0.74" stroke="#000000" stroke-width="0.25" fill="none" />
  <line x1="213.47" y1="130.21" x2="215.28" y2="130.21" stroke="#000000" stroke-width="0.25" fill="none" />
  <line x1="215.28" y1="131.85" x2="215.28" y2="128.57" stroke="#000000" stroke-width="0.25" fill="none" />
  <line x1="210.00" y1="134.71" x2="210.00" y2="136.71" stroke="#000000" stroke-width="0.25" fill="none" />
  <line x1="210.00" y1="125.71" x2="210.00" y2="123.71" stroke="#000000" stroke-width="0.25" fill="none" />
  <text x="216.01" y="129.65" font-family="Arial, Helvetica, sans-serif" font-size="1.8" fill="#000000"><tspan x="216.01">63A 4P</tspan><tspan x="216.01" dy="2.5">ELCB </tspan><tspan x="216.01" dy="2.5">(100mA)</tspan></text>
  <line x1="116.00" y1="118.71" x2="346.00" y2="118.71" stroke="#000000" stroke-width="0.50" fill="none" />
  <text x="119.00" y="123.95" font-family="Arial, Helvetica, sans-serif" font-size="2.8" fill="#000000">200A COMB BAR</text>
  <text x="131.00" y="114.97" font-family="Arial, Helvetica, sans-serif" font-size="2.2" fill="#000000" transform="rotate(-90.0,131.00,114.09)">L1S1</text>
  <path d="M 130.35,106.05 A 3.75,3.75 0 0,0 130.35,99.37" stroke="#000000" stroke-width="0.25" fill="none" />
  <circle cx="129.31" cy="99.37" r="0.66" stroke="#000000" stroke-width="0.25" fill="none" />
  <circle cx="129.32" cy="106.05" r="0.66" stroke="#000000" stroke-width="0.25" fill="none" />
  <line x1="129.50" y1="106.71" x2="129.50" y2="108.71" stroke="#000000" stroke-width="0.25" fill="none" />
  <line x1="129.50" y1="98.71" x2="129.50" y2="96.71" stroke="#000000" stroke-width="0.25" fill="none" />
  <line x1="126.39" y1="102.71" x2="132.39" y2="102.71" stroke="#000000" stroke-width="0.25" fill="none" />
  <line x1="132.39" y1="102.71" x2="131.19" y2="102.11" stroke="#000000" stroke-width="0.25" fill="none" />
  <line x1="132.39" y1="102.71" x2="131.19" y2="103.31" stroke="#000000" stroke-width="0.25" fill="none" />
  <text x="121.00" y="101.31" font-family="Arial, Helvetica, sans-serif" font-size="2.0" fill="#000000">B10A</text>
  <text x="121.00" y="103.81" font-family="Arial, Helvetica, sans-serif" font-size="2.0" fill="#000000">SPN</text>
  <text x="121.00" y="106.31" font-family="Arial, Helvetica, sans-serif" font-size="2.0" fill="#000000">MCB</text>
  <text x="121.00" y="108.81" font-family="Arial, Helvetica, sans-serif" font-size="2.0" fill="#000000">6kA</text>
  <text x="129.50" y="73.95" font-family="Arial, Helvetica, sans-serif" font-size="2.8" fill="#000000" transform="rotate(-90.0,129.50,72.83)">1 NO. LIGHTING 1</text>
  <text x="163.20" y="114.97" font-family="Arial, Helvetica, sans-serif" font-size="2.2" fill="#000000" transform="rotate(-90.0,163.20,114.09)">L2S1</text>
  <path d="M 162.55,106.05 A 3.75,3.75 0 0,0 162.55,99.37" stroke="#000000" stroke-width="0.25" fill="none" />
  <circle cx="161.51" cy="99.37" r="0.66" stroke="#000000" stroke-width="0.25" fill="none" />
  <circle cx="161.52" cy="106.05" r="0.66" stroke="#000000" stroke-width="0.25" fill="none" />
  <line x1="161.70" y1="106.71" x2="161.70" y2="108.71" stroke="#000000" stroke-width="0.25" fill="none" />
  <line x1="161.70" y1="98.71" x2="161.70" y2="96.71" stroke="#000000" stroke-width="0.25" fill="none" />
  <line x1="132.39" y1="102.71" x2="164.59" y2="102.71" stroke="#000000" stroke-width="0.25" fill="none" />
  <line x1="164.59" y1="102.71" x2="163.39" y2="102.11" stroke="#000000" stroke-width="0.25" fill="none" />
  <line x1="164.59" y1="102.71" x2="163.39" y2="103.31" stroke="#000000" stroke-width="0.25" fill="none" />
  <text x="161.70" y="73.95" font-family="Arial, Helvetica, sans-serif" font-size="2.8" fill="#000000" transform="rotate(-90.0,161.70,72.83)">1 NO. LIGHTING 2</text>
  <text x="195.40" y="114.97" font-family="Arial, Helvetica, sans-serif" font-size="2.2" fill="#000000" transform="rotate(-90.0,195.40,114.09)">L3S1</text>
  <path d="M 194.75,106.05 A 3.75,3.75 0 0,0 194.75,99.37" stroke="#000000" stroke-width="0.25" fill="none" />
  <circle cx="193.71" cy="99.37" r="0.66" stroke="#000000" stroke-width="0.25" fill="none" />
  <circle cx="193.72" cy="106.05" r="0.66" stroke="#000000" stroke-width="0.25" fill="none" />
  <line x1="193.90" y1="106.71" x2="193.90" y2="108.71" stroke="#000000" stroke-width="0.25" fill="none" />
  <line x1="193.90" y1="98.71" x2="193.90" y2="96.71" stroke="#000000" stroke-width="0.25" fill="none" />
  <line x1="164.59" y1="102.71" x2="196.79" y2="102.71" stroke="#000000" stroke-width="0.25" fill="none" />
  <line x1="196.79" y1="102.71" x2="195.59" y2="102.11" stroke="#000000" stroke-width="0.25" fill="none" />
  <line x1="196.79" y1="102.71" x2="195.59" y2="103.31" stroke="#000000" stroke-width="0.25" fill="none" />
  <text x="193.90" y="73.95" font-family="Arial, Helvetica, sans-serif" font-size="2.8" fill="#000000" transform="rotate(-90.0,193.90,72.83)">1 NO. LIGHTING 3</text>
  <text x="233.60" y="114.97" font-family="Arial, Helvetica, sans-serif" font-size="2.2" fill="#000000" transform="rotate(-90.0,233.60,114.09)">L1P1</text>
  <path d="M 232.95,106.05 A 3.75,3.75 0 0,0 232.95,99.37" stroke="#000000" stroke-width="0.25" fill="none" />
  <circle cx="231.91" cy="99.37" r="0.66" stroke="#000000" stroke-width="0.25" fill="none" />
  <circle cx="231.92" cy="106.05" r="0.66" stroke="#000000" stroke-width="0.25" fill="none" />
  <line x1="232.10" y1="106.71" x2="232.10" y2="108.71" stroke="#000000" stroke-width="0.25" fill="none" />
  <line x1="232.10" y1="98.71" x2="232.10" y2="96.71" stroke="#000000" stroke-width="0.25" fill="none" />
  <line x1="228.99" y1="102.71" x2="234.99" y2="102.71" stroke="#000000" stroke-width="0.25" fill="none" />
  <line x1="234.99" y1="102.71" x2="233.79" y2="102.11" stroke="#000000" stroke-width="0.25" fill="none" />
  <line x1="234.99" y1="102.71" x2="233.79" y2="103.31" stroke="#000000" stroke-width="0.25" fill="none" />
  <text x="223.60" y="101.31" font-family="Arial, Helvetica, sans-serif" font-size="2.0" fill="#000000">B20A</text>
  <text x="223.60" y="103.81" font-family="Arial, Helvetica, sans-serif" font-size="2.0" fill="#000000">SPN</text>
  <text x="223.60" y="106.31" font-family="Arial, Helvetica, sans-serif" font-size="2.0" fill="#000000">MCB</text>
  <text x="223.60" y="108.81" font-family="Arial, Helvetica, sans-serif" font-size="2.0" fill="#000000">6kA</text>
  <text x="232.10" y="73.95" font-family="Arial, Helvetica, sans-serif" font-size="2.8" fill="#000000" transform="rotate(-90.0,232.10,72.83)">1 NO. POWER 1</text>
  <text x="265.80" y="114.97" font-family="Arial, Helvetica, sans-serif" font-size="2.2" fill="#000000" transform="rotate(-90.0,265.80,114.09)">L2P1</text>
  <path d="M 265.15,106.05 A 3.75,3.75 0 0,0 265.15,99.37" stroke="#000000" stroke-width="0.25" fill="none" />
  <circle cx="264.11" cy="99.37" r="0.66" stroke="#000000" stroke-width="0.25" fill="none" />
  <circle cx="264.12" cy="106.05" r="0.66" stroke="#000000" stroke-width="0.25" fill="none" />
  <line x1="264.30" y1="106.71" x2="264.30" y2="108.71" stroke="#000000" stroke-width="0.25" fill="none" />
  <line x1="264.30" y1="98.71" x2="264.30" y2="96.71" stroke="#000000" stroke-width="0.25" fill="none" />
  <line x1="234.99" y1="102.71" x2="267.19" y2="102.71" stroke="#000000" stroke-width="0.25" fill="none" />
  <line x1="267.19" y1="102.71" x2="265.99" y2="102.11" stroke="#000000" stroke-width="0.25" fill="none" />
  <line x1="267.19" y1="102.71" x2="265.99" y2="103.31" stroke="#000000" stroke-width="0.25" fill="none" />
  <text x="264.30" y="73.95" font-family="Arial, Helvetica, sans-serif" font-size="2.8" fill="#000000" transform="rotate(-90.0,264.30,72.83)">1 NO. POWER 2</text>
  <text x="298.00" y="114.97" font-family="Arial, Helvetica, sans-serif" font-size="2.2" fill="#000000" transform="rotate(-90.0,298.00,114.09)">L3P1</text>
  <path d="M 297.35,106.05 A 3.75,3.75 0 0,0 297.35,99.37" stroke="#000000" stroke-width="0.25" fill="none" />
  <circle cx="296.31" cy="99.37" r="0.66" stroke="#000000" stroke-width="0.25" fill="none" />
  <circle cx="296.32" cy="106.05" r="0.66" stroke="#000000" stroke-width="0.25" fill="none" />
  <line x1="296.50" y1="106.71" x2="296.50" y2="108.71" stroke="#000000" stroke-width="0.25" fill="none" />
  <line x1="296.50" y1="98.71" x2="296.50" y2="96.71" stroke="#000000" stroke-width="0.25" fill="none" />
  <line x1="267.19" y1="102.71" x2="299.39" y2="102.71" stroke="#000000" stroke-width="0.25" fill="none" />
  <line x1="299.39" y1="102.71" x2="298.19" y2="102.11" stroke="#000000" stroke-width="0.25" fill="none" />
  <line x1="299.39" y1="102.71" x2="298.19" y2="103.31" stroke="#000000" stroke-width="0.25" fill="none" />
  <text x="296.50" y="73.95" font-family="Arial, Helvetica, sans-serif" font-size="2.8" fill="#000000" transform="rotate(-90.0,296.50,72.83)">SPARE</text>
  <text x="116.50" y="73.95" font-family="Arial, Helvetica, sans-serif" font-size="2.8" fill="#000000" transform="rotate(-90.0,116.50,72.83)">2 x 1C 1.5sqmm PVC +</text>
  <text x="120.42" y="73.95" font-family="Arial, Helvetica, sans-serif" font-size="2.8" fill="#000000" transform="rotate(-90.0,120.42,72.83)">1.5sqmm PVC CPC</text>
  <text x="274.30" y="73.95" font-family="Arial, Helvetica, sans-serif" font-size="2.8" fill="#000000" transform="rotate(-90.0,274.30,72.83)">2 x 1C 2.5sqmm PVC +</text>
  <text x="278.22" y="73.95" font-family="Arial, Helvetica, sans-serif" font-size="2.8" fill="#000000" transform="rotate(-90.0,278.22,72.83)">2.5sqmm PVC CPC</text>
  <text x="112.00" y="155.11" font-family="Arial, Helvetica, sans-serif" font-size="3.0" fill="#000000">63A DB</text>
  <text x="112.00" y="158.15" font-family="Arial, Helvetica, sans-serif" font-size="1.8" fill="#000000">APPROVED LOAD: 45 KVA AT 400V</text>
  <line x1="303.60" y1="163.71" x2="303.60" y2="165.51" stroke="#000000" stroke-width="0.25" fill="none" />
  <line x1="301.35" y1="165.51" x2="305.85" y2="165.51" stroke="#000000" stroke-width="0.25" fill="none" />
  <line x1="302.10" y1="166.63" x2="305.10" y2="166.63" stroke="#000000" stroke-width="0.25" fill="none" />
  <line x1="302.85" y1="167.76" x2="304.35" y2="167.76" stroke="#000000" stroke-width="0.25" fill="none" />
  <text x="308.85" y="165.24" font-family="Arial, Helvetica, sans-serif" font-size="1.6" fill="#000000">E</text>
  <line x1="210.00" y1="189.51" x2="216.00" y2="189.51" stroke="#000000" stroke-width="0.25" fill="none" />
  <line x1="223.00" y1="189.51" x2="238.50" y2="189.51" stroke="#000000" stroke-width="0.25" fill="none" />
  <line x1="250.50" y1="189.51" x2="265.50" y2="189.51" stroke="#000000" stroke-width="0.25" fill="none" />
  <line x1="273.50" y1="189.51" x2="293.50" y2="189.51" stroke="#000000" stroke-width="0.25" fill="none" />
  <line x1="282.00" y1="191.01" x2="285.00" y2="188.01" stroke="#000000" stroke-width="0.25" fill="none" />
  <line x1="283.50" y1="189.51" x2="283.50" y2="199.51" stroke="#000000" stroke-width="0.25" fill="none" />
  <line x1="283.50" y1="199.51" x2="286.50" y2="199.51" stroke="#000000" stroke-width="0.25" fill="none" />
  <line x1="210.00" y1="189.51" x2="210.00" y2="164.71" stroke="#000000" stroke-width="0.25" fill="none" />
  <line x1="210.00" y1="172.71" x2="207.00" y2="172.71" stroke="#000000" stroke-width="0.25" fill="none" />
  <line x1="277.50" y1="201.29" x2="281.50" y2="201.29" stroke="#000000" stroke-width="0.25" fill="none" />
  <line x1="281.50" y1="201.29" x2="281.50" y2="206.79" stroke="#000000" stroke-width="0.25" fill="none" />
  <line x1="210.00" y1="164.71" x2="210.00" y2="150.71" stroke="#000000" stroke-width="0.25" fill="none" />
  <line x1="210.00" y1="152.71" x2="210.00" y2="150.71" stroke="#000000" stroke-width="0.25" fill="none" />
  <line x1="210.00" y1="141.71" x2="210.00" y2="139.71" stroke="#000000" stroke-width="0.25" fill="none" />
  <line x1="210.00" y1="139.71" x2="210.00" y2="134.71" stroke="#000000" stroke-width="0.25" fill="none" />
  <line x1="210.00" y1="136.71" x2="210.00" y2="134.71" stroke="#000000" stroke-width="0.25" fill="none" />
  <line x1="210.00" y1="125.71" x2="210.00" y2="123.71" stroke="#000000" stroke-width="0.25" fill="none" />
  <line x1="210.00" y1="123.71" x2="210.00" y2="118.71" stroke="#000000" stroke-width="0.25" fill="none" />
  <line x1="129.50" y1="110.14" x2="129.50" y2="106.71" stroke="#000000" stroke-width="0.25" fill="none" />
  <line x1="129.50" y1="98.71" x2="129.50" y2="96.71" stroke="#000000" stroke-width="0.25" fill="none" />
  <line x1="129.50" y1="96.71" x2="129.50" y2="73.71" stroke="#000000" stroke-width="0.25" fill="none" />
  <line x1="161.70" y1="118.71" x2="161.70" y2="106.71" stroke="#000000" stroke-width="0.25" fill="none" />
  <line x1="161.70" y1="98.71" x2="161.70" y2="96.71" stroke="#000000" stroke-width="0.25" fill="none" />
  <line x1="161.70" y1="96.71" x2="161.70" y2="73.71" stroke="#000000" stroke-width="0.25" fill="none" />
  <line x1="193.90" y1="110.14" x2="193.90" y2="106.71" stroke="#000000" stroke-width="0.25" fill="none" />
  <line x1="193.90" y1="98.71" x2="193.90" y2="96.71" stroke="#000000" stroke-width="0.25" fill="none" />
  <line x1="193.90" y1="96.71" x2="193.90" y2="73.71" stroke="#000000" stroke-width="0.25" fill="none" />
  <line x1="232.10" y1="110.14" x2="232.10" y2="106.71" stroke="#000000" stroke-width="0.25" fill="none" />
  <line x1="232.10" y1="98.71" x2="232.10" y2="96.71" stroke="#000000" stroke-width="0.25" fill="none" />
  <line x1="232.10" y1="96.71" x2="232.10" y2="73.71" stroke="#000000" stroke-width="0.25" fill="none" />
  <line x1="264.30" y1="118.71" x2="264.30" y2="106.71" stroke="#000000" stroke-width="0.25" fill="none" />
  <line x1="264.30" y1="98.71" x2="264.30" y2="96.71" stroke="#000000" stroke-width="0.25" fill="none" />
  <line x1="264.30" y1="96.71" x2="264.30" y2="73.71" stroke="#000000" stroke-width="0.25" fill="none" />
  <line x1="296.50" y1="110.14" x2="296.50" y2="106.71" stroke="#000000" stroke-width="0.25" fill="none" />
  <line x1="296.50" y1="98.71" x2="296.50" y2="96.71" stroke="#000000" stroke-width="0.25" fill="none" />
  <line x1="296.50" y1="96.71" x2="296.50" y2="73.71" stroke="#000000" stroke-width="0.25" fill="none" />
  <line x1="119.50" y1="78.71" x2="193.90" y2="78.71" stroke="#000000" stroke-width="0.25" fill="none" />
  <line x1="119.50" y1="78.71" x2="119.50" y2="73.71" stroke="#000000" stroke-width="0.25" fill="none" />
  <line x1="232.10" y1="78.71" x2="274.30" y2="78.71" stroke="#000000" stroke-width="0.25" fill="none" />
  <line x1="274.30" y1="78.71" x2="274.30" y2="73.71" stroke="#000000" stroke-width="0.25" fill="none" />
  <line x1="303.60" y1="160.71" x2="303.60" y2="163.71" stroke="#000000" stroke-width="0.25" fill="none" />
  <line x1="208.75" y1="173.96" x2="211.25" y2="171.46" stroke="#000000" stroke-width="0.50" fill="none" />
  <line x1="128.25" y1="79.96" x2="130.75" y2="77.46" stroke="#000000" stroke-width="0.50" fill="none" />
  <line x1="160.45" y1="79.96" x2="162.95" y2="77.46" stroke="#000000" stroke-width="0.50" fill="none" />
  <line x1="192.65" y1="79.96" x2="195.15" y2="77.46" stroke="#000000" stroke-width="0.50" fill="none" />
  <line x1="230.85" y1="79.96" x2="233.35" y2="77.46" stroke="#000000" stroke-width="0.50" fill="none" />
  <line x1="263.05" y1="79.96" x2="265.55" y2="77.46" stroke="#000000" stroke-width="0.50" fill="none" />
  <line x1="161.70" y1="118.71" x2="161.70" y2="108.71" stroke="#000000" stroke-width="0.25" fill="none" />
  <line x1="161.70" y1="118.71" x2="129.50" y2="110.14" stroke="#000000" stroke-width="0.25" fill="none" />
  <line x1="129.50" y1="110.14" x2="129.50" y2="108.71" stroke="#000000" stroke-width="0.25" fill="none" />
  <line x1="161.70" y1="118.71" x2="193.90" y2="110.14" stroke="#000000" stroke-width="0.25" fill="none" />
  <line x1="193.90" y1="110.14" x2="193.90" y2="108.71" stroke="#000000" stroke-width="0.25" fill="none" />
  <line x1="264.30" y1="118.71" x2="264.30" y2="108.71" stroke="#000000" stroke-width="0.25" fill="none" />
  <line x1="264.30" y1="118.71" x2="232.10" y2="110.14" stroke="#000000" stroke-width="0.25" fill="none" />
  <line x1="232.10" y1="110.14" x2="232.10" y2="108.71" stroke="#000000" stroke-width="0.25" fill="none" />
  <line x1="264.30" y1="118.71" x2="296.50" y2="110.14" stroke="#000000" stroke-width="0.25" fill="none" />
  <line x1="296.50" y1="110.14" x2="296.50" y2="108.71" stroke="#000000" stroke-width="0.25" fill="none" />
  <line x1="212.00" y1="204.29" x2="220.00" y2="204.29" stroke="#808080" stroke-width="0.25" fill="none" />
  <line x1="222.00" y1="204.29" x2="223.50" y2="204.29" stroke="#808080" stroke-width="0.25" fill="none" />
  <line x1="225.50" y1="204.29" x2="233.50" y2="204.29" stroke="#808080" stroke-width="0.25" fill="none" />
  <line x1="235.50" y1="204.29" x2="237.00" y2="204.29" stroke="#808080" stroke-width="0.25" fill="none" />
  <line x1="239.00" y1="204.29" x2="247.00" y2="204.29" stroke="#808080" stroke-width="0.25" fill="none" />
  <line x1="249.00" y1="204.29" x2="250.50" y2="204.29" stroke="#808080" stroke-width="0.25" fill="none" />
  <line x1="252.50" y1="204.29" x2="260.50" y2="204.29" stroke="#808080" stroke-width="0.25" fill="none" />
  <line x1="262.50" y1="204.29" x2="264.00" y2="204.29" stroke="#808080" stroke-width="0.25" fill="none" />
  <line x1="266.00" y1="204.29" x2="274.00" y2="204.29" stroke="#808080" stroke-width="0.25" fill="none" />
  <line x1="276.00" y1="204.29" x2="277.50" y2="204.29" stroke="#808080" stroke-width="0.25" fill="none" />
  <line x1="212.00" y1="180.71" x2="220.00" y2="180.71" stroke="#808080" stroke-width="0.25" fill="none" />
  <line x1="222.00" y1="180.71" x2="223.50" y2="180.71" stroke="#808080" stroke-width="0.25" fill="none" />
  <line x1="225.50" y1="180.71" x2="233.50" y2="180.71" stroke="#808080" stroke-width="0.25" fill="none" />
  <line x1="235.50" y1="180.71" x2="237.00" y2="180.71" stroke="#808080" stroke-width="0.25" fill="none" />
  <line x1="239.00" y1="180.71" x2="247.00" y2="180.71" stroke="#808080" stroke-width="0.25" fill="none" />
  <line x1="249.00" y1="180.71" x2="250.50" y2="180.71" stroke="#808080" stroke-width="0.25" fill="none" />
  <line x1="252.50" y1="180.71" x2="260.50" y2="180.71" stroke="#808080" stroke-width="0.25" fill="none" />
  <line x1="262.50" y1="180.71" x2="264.00" y2="180.71" stroke="#808080" stroke-width="0.25" fill="none" />
  <line x1="266.00" y1="180.71" x2="274.00" y2="180.71" stroke="#808080" stroke-width="0.25" fill="none" />
  <line x1="276.00" y1="180.71" x2="277.50" y2="180.71" stroke="#808080" stroke-width="0.25" fill="none" />
  <line x1="212.00" y1="204.29" x2="212.00" y2="196.29" stroke="#808080" stroke-width="0.25" fill="none" />
  <line x1="212.00" y1="194.29" x2="212.00" y2="192.79" stroke="#808080" stroke-width="0.25" fill="none" />
  <line x1="212.00" y1="190.79" x2="212.00" y2="182.79" stroke="#808080" stroke-width="0.25" fill="none" />
  <line x1="212.00" y1="180.79" x2="212.00" y2="180.71" stroke="#808080" stroke-width="0.25" fill="none" />
  <line x1="277.50" y1="204.29" x2="277.50" y2="196.29" stroke="#808080" stroke-width="0.25" fill="none" />
  <line x1="277.50" y1="194.29" x2="277.50" y2="192.79" stroke="#808080" stroke-width="0.25" fill="none" />
  <line x1="277.50" y1="190.79" x2="277.50" y2="182.79" stroke="#808080" stroke-width="0.25" fill="none" />
  <line x1="277.50" y1="180.79" x2="277.50" y2="180.71" stroke="#808080" stroke-width="0.25" fill="none" />
  <line x1="106.00" y1="160.71" x2="114.00" y2="160.71" stroke="#808080" stroke-width="0.25" fill="none" />
  <line x1="116.00" y1="160.71" x2="117.50" y2="160.71" stroke="#808080" stroke-width="0.25" fill="none" />
  <line x1="119.50" y1="160.71" x2="127.50" y2="160.71" stroke="#808080" stroke-width="0.25" fill="none" />
  <line x1="129.50" y1="160.71" x2="131.00" y2="160.71" stroke="#808080" stroke-width="0.25" fill="none" />
  <line x1="133.00" y1="160.71" x2="141.00" y2="160.71" stroke="#808080" stroke-width="0.25" fill="none" />
  <line x1="143.00" y1="160.71" x2="144.50" y2="160.71" stroke="#808080" stroke-width="0.25" fill="none" />
  <line x1="146.50" y1="160.71" x2="154.50" y2="160.71" stroke="#808080" stroke-width="0.25" fill="none" />
  <line x1="156.50" y1="160.71" x2="158.00" y2="160.71" stroke="#808080" stroke-width="0.25" fill="none" />
  <line x1="160.00" y1="160.71" x2="168.00" y2="160.71" stroke="#808080" stroke-width="0.25" fill="none" />
  <line x1="170.00" y1="160.71" x2="171.50" y2="160.71" stroke="#808080" stroke-width="0.25" fill="none" />
  <line x1="173.50" y1="160.71" x2="181.50" y2="160.71" stroke="#808080" stroke-width="0.25" fill="none" />
  <line x1="183.50" y1="160.71" x2="185.00" y2="160.71" stroke="#808080" stroke-width="0.25" fill="none" />
  <line x1="187.00" y1="160.71" x2="195.00" y2="160.71" stroke="#808080" stroke-width="0.25" fill="none" />
  <line x1="197.00" y1="160.71" x2="198.50" y2="160.71" stroke="#808080" stroke-width="0.25" fill="none" />
  <line x1="200.50" y1="160.71" x2="208.50" y2="160.71" stroke="#808080" stroke-width="0.25" fill="none" />
  <line x1="210.50" y1="160.71" x2="212.00" y2="160.71" stroke="#808080" stroke-width="0.25" fill="none" />
  <line x1="214.00" y1="160.71" x2="222.00" y2="160.71" stroke="#808080" stroke-width="0.25" fill="none" />
  <line x1="224.00" y1="160.71" x2="225.50" y2="160.71" stroke="#808080" stroke-width="0.25" fill="none" />
  <line x1="227.50" y1="160.71" x2="235.50" y2="160.71" stroke="#808080" stroke-width="0.25" fill="none" />
  <line x1="237.50" y1="160.71" x2="239.00" y2="160.71" stroke="#808080" stroke-width="0.25" fill="none" />
  <line x1="241.00" y1="160.71" x2="249.00" y2="160.71" stroke="#808080" stroke-width="0.25" fill="none" />
  <line x1="251.00" y1="160.71" x2="252.50" y2="160.71" stroke="#808080" stroke-width="0.25" fill="none" />
  <line x1="254.50" y1="160.71" x2="262.50" y2="160.71" stroke="#808080" stroke-width="0.25" fill="none" />
  <line x1="264.50" y1="160.71" x2="266.00" y2="160.71" stroke="#808080" stroke-width="0.25" fill="none" />
  <line x1="268.00" y1="160.71" x2="276.00" y2="160.71" stroke="#808080" stroke-width="0.25" fill="none" />
  <line x1="278.00" y1="160.71" x2="279.50" y2="160.71" stroke="#808080" stroke-width="0.25" fill="none" />
  <line x1="281.50" y1="160.71" x2="289.50" y2="160.71" stroke="#808080" stroke-width="0.25" fill="none" />
  <line x1="291.50" y1="160.71" x2="293.00" y2="160.71" stroke="#808080" stroke-width="0.25" fill="none" />
  <line x1="295.00" y1="160.71" x2="303.00" y2="160.71" stroke="#808080" stroke-width="0.25" fill="none" />
  <line x1="305.00" y1="160.71" x2="306.50" y2="160.71" stroke="#808080" stroke-width="0.25" fill="none" />
  <line x1="308.50" y1="160.71" x2="314.00" y2="160.71" stroke="#808080" stroke-width="0.25" fill="none" />
  <line x1="106.00" y1="88.71" x2="114.00" y2="88.71" stroke="#808080" stroke-width="0.25" fill="none" />
  <line x1="116.00" y1="88.71" x2="117.50" y2="88.71" stroke="#808080" stroke-width="0.25" fill="none" />
  <line x1="119.50" y1="88.71" x2="127.50" y2="88.71" stroke="#808080" stroke-width="0.25" fill="none" />
  <line x1="129.50" y1="88.71" x2="131.00" y2="88.71" stroke="#808080" stroke-width="0.25" fill="none" />
  <line x1="133.00" y1="88.71" x2="141.00" y2="88.71" stroke="#808080" stroke-width="0.25" fill="none" />
  <line x1="143.00" y1="88.71" x2="144.50" y2="88.71" stroke="#808080" stroke-width="0.25" fill="none" />
  <line x1="146.50" y1="88.71" x2="154.50" y2="88.71" stroke="#808080" stroke-width="0.25" fill="none" />
  <line x1="156.50" y1="88.71" x2="158.00" y2="88.71" stroke="#808080" stroke-width="0.25" fill="none" />
  <line x1="160.00" y1="88.71" x2="168.00" y2="88.71" stroke="#808080" stroke-width="0.25" fill="none" />
  <line x1="170.00" y1="88.71" x2="171.50" y2="88.71" stroke="#808080" stroke-width="0.25" fill="none" />
  <line x1="173.50" y1="88.71" x2="181.50" y2="88.71" stroke="#808080" stroke-width="0.25" fill="none" />
  <line x1="183.50" y1="88.71" x2="185.00" y2="88.71" stroke="#808080" stroke-width="0.25" fill="none" />
  <line x1="187.00" y1="88.71" x2="195.00" y2="88.71" stroke="#808080" stroke-width="0.25" fill="none" />
  <line x1="197.00" y1="88.71" x2="198.50" y2="88.71" stroke="#808080" stroke-width="0.25" fill="none" />
  <line x1="200.50" y1="88.71" x2="208.50" y2="88.71" stroke="#808080" stroke-width="0.25" fill="none" />
  <line x1="210.50" y1="88.71" x2="212.00" y2="88.71" stroke="#808080" stroke-width="0.25" fill="none" />
  <line x1="214.00" y1="88.71" x2="222.00" y2="88.71" stroke="#808080" stroke-width="0.25" fill="none" />
  <line x1="224.00" y1="88.71" x2="225.50" y2="88.71" stroke="#808080" stroke-width="0.25" fill="none" />
  <line x1="227.50" y1="88.71" x2="235.50" y2="88.71" stroke="#808080" stroke-width="0.25" fill="none" />
  <line x1="237.50" y1="88.71" x2="239.00" y2="88.71" stroke="#808080" stroke-width="0.25" fill="none" />
  <line x1="241.00" y1="88.71" x2="249.00" y2="88.71" stroke="#808080" stroke-width="0.25" fill="none" />
  <line x1="251.00" y1="88.71" x2="252.50" y2="88.71" stroke="#808080" stroke-width="0.25" fill="none" />
  <line x1="254.50" y1="88.71" x2="262.50" y2="88.71" stroke="#808080" stroke-width="0.25" fill="none" />
  <line x1="264.50" y1="88.71" x2="266.00" y2="88.71" stroke="#808080" stroke-width="0.25" fill="none" />
  <line x1="268.00" y1="88.71" x2="276.00" y2="88.71" stroke="#808080" stroke-width="0.25" fill="none" />
  <line x1="278.00" y1="88.71" x2="279.50" y2="88.71" stroke="#808080" stroke-width="0.25" fill="none" />
  <line x1="281.50" y1="88.71" x2="289.50" y2="88.71" stroke="#808080" stroke-width="0.25" fill="none" />
  <line x1="291.50" y1="88.71" x2="293.00" y2="88.71" stroke="#808080" stroke-width="0.25" fill="none" />
  <line x1="295.00" y1="88.71" x2="303.00" y2="88.71" stroke="#808080" stroke-width="0.25" fill="none" />
  <line x1="305.00" y1="88.71" x2="306.50" y2="88.71" stroke="#808080" stroke-width="0.25" fill="none" />
  <line x1="308.50" y1="88.71" x2="314.00" y2="88.71" stroke="#808080" stroke-width="0.25" fill="none" />
  <line x1="106.00" y1="160.71" x2="106.00" y2="152.71" stroke="#808080" stroke-width="0.25" fill="none" />
  <line x1="106.00" y1="150.71" x2="106.00" y2="149.21" stroke="#808080" stroke-width="0.25" fill="none" />
  <line x1="106.00" y1="147.21" x2="106.00" y2="139.21" stroke="#808080" stroke-width="0.25" fill="none" />
  <line x1="106.00" y1="137.21" x2="106.00" y2="135.71" stroke="#808080" stroke-width="0.25" fill="none" />
  <line x1="106.00" y1="133.71" x2="106.00" y2="125.71" stroke="#808080" stroke-width="0.25" fill="none" />
  <line x1="106.00" y1="123.71" x2="106.00" y2="122.21" stroke="#808080" stroke-width="0.25" fill="none" />
  <line x1="106.00" y1="120.21" x2="106.00" y2="112.21" stroke="#808080" stroke-width="0.25" fill="none" />
  <line x1="106.00" y1="110.21" x2="106.00" y2="108.71" stroke="#808080" stroke-width="0.25" fill="none" />
  <line x1="106.00" y1="106.71" x2="106.00" y2="98.71" stroke="#808080" stroke-width="0.25" fill="none" />
  <line x1="106.00" y1="96.71" x2="106.00" y2="95.21" stroke="#808080" stroke-width="0.25" fill="none" />
  <line x1="106.00" y1="93.21" x2="106.00" y2="88.71" stroke="#808080" stroke-width="0.25" fill="none" />
  <line x1="314.00" y1="160.71" x2="314.00" y2="152.71" stroke="#808080" stroke-width="0.25" fill="none" />
  <line x1="314.00" y1="150.71" x2="314.00" y2="149.21" stroke="#808080" stroke-width="0.25" fill="none" />
  <line x1="314.00" y1="147.21" x2="314.00" y2="139.21" stroke="#808080" stroke-width="0.25" fill="none" />
  <line x1="314.00" y1="137.21" x2="314.00" y2="135.71" stroke="#808080" stroke-width="0.25" fill="none" />
  <line x1="314.00" y1="133.71" x2="314.00" y2="125.71" stroke="#808080" stroke-width="0.25" fill="none" />
  <line x1="314.00" y1="123.71" x2="314.00" y2="122.21" stroke="#808080" stroke-width="0.25" fill="none" />
  <line x1="314.00" y1="120.21" x2="314.00" y2="112.21" stroke="#808080" stroke-width="0.25" fill="none" />
  <line x1="314.00" y1="110.21" x2="314.00" y2="108.71" stroke="#808080" stroke-width="0.25" fill="none" />
  <line x1="314.00" y1="106.71" x2="314.00" y2="98.71" stroke="#808080" stroke-width="0.25" fill="none" />
  <line x1="314.00" y1="96.71" x2="314.00" y2="95.21" stroke="#808080" stroke-width="0.25" fill="none" />
  <line x1="314.00" y1="93.21" x2="314.00" y2="88.71" stroke="#808080" stroke-width="0.25" fill="none" />
  <circle cx="277.50" cy="201.29" r="0.50" fill="rgb(0,0,0)" stroke="none" />
  <circle cx="161.70" cy="118.71" r="0.50" fill="rgb(0,0,0)" stroke="none" />
  <circle cx="161.70" cy="118.71" r="0.50" fill="rgb(0,0,0)" stroke="none" />
  <circle cx="161.70" cy="118.71" r="0.50" fill="rgb(0,0,0)" stroke="none" />
  <circle cx="264.30" cy="118.71" r="0.50" fill="rgb(0,0,0)" stroke="none" />
  <circle cx="264.30" cy="118.71" r="0.50" fill="rgb(0,0,0)" stroke="none" />
  <circle cx="264.30" cy="118.71" r="0.50" fill="rgb(0,0,0)" stroke="none" />
  <circle cx="303.60" cy="160.71" r="0.50" fill="rgb(0,0,0)" stroke="none" />
  <text x="13.00" y="264.40" font-family="Arial, Helvetica, sans-serif" font-size="3.0" fill="#000000">Electrical Installation</text>
  <text x="153.00" y="264.40" font-family="Arial, Helvetica, sans-serif" font-size="3.0" fill="#000000">LicenseKaki</text>
  <text x="225.00" y="263.80" font-family="Arial, Helvetica, sans-serif" font-size="3.5" fill="#000000"><tspan x="225.00">SINGLE LINE DIAGRAM</tspan><tspan x="225.00" dy="4.9">(SLD)</tspan></text>
  <text x="389.00" y="266.00" font-family="Arial, Helvetica, sans-serif" font-size="2.5" fill="#000000">DATE</text>
  <text x="365.00" y="278.00" font-family="Arial, Helvetica, sans-serif" font-size="2.5" fill="#000000"></text>
  <text x="394.00" y="278.80" font-family="Arial, Helvetica, sans-serif" font-size="3.5" fill="#000000">0</text>
  <text x="365.00" y="286.28" font-family="Arial, Helvetica, sans-serif" font-size="1.6" fill="#000000">SCALE : NTS</text>
  <text x="389.00" y="286.28" font-family="Arial, Helvetica, sans-serif" font-size="1.6" fill="#000000">SHEET : 1 OF 1</text>
</svg>