<svg xmlns="http://www.w3.org/2000/svg" viewBox="0 0 420.0 297.0" width="420.0mm" height="297.0mm">
  <rect width="420.0" height="297.0" fill="white" />
  <polygon points="10.00,287.00 410.00,287.00 410.00,10.00 10.00,10.00" stroke="#000000" stroke-width="0.25" fill="none" />
  <polygon points="10.00,287.00 410.00,287.00 410.00,255.00 10.00,255.00" stroke="#000000" stroke-width="0.25" fill="none" />
  <line x1="90.00" y1="255.00" x2="90.00" y2="287.00" stroke="#000000" stroke-width="0.25" fill="none" />
  <line x1="150.00" y1="255.00" x2="150.00" y2="287.00" stroke="#000000" stroke-width="0.25" fill="none" />
  <line x1="222.00" y1="255.00" x2="222.00" y2="287.00" stroke="#000000" stroke-width="0.25" fill="none" />
  <line x1="290.00" y1="255.00" x2="290.00" y2="287.00" stroke="#000000" stroke-width="0.25" fill="none" />
  <line x1="362.00" y1="255.00" x2="362.00" y2="287.00" stroke="#000000" stroke-width="0.25" fill="none" />
  <line x1="362.00" y1="270.00" x2="410.00" y2="270.00" stroke="#000000" stroke-width="0.25" fill="none" />
  <line x1="386.00" y1="255.00" x2="386.00" y2="287.00" stroke="#000000" stroke-width="0.25" fill="none" />
  <text x="12.00" y="258.94" font-family="Arial, Helvetica, sans-serif" font-size="1.8" fill="#000000">CLIENT / ADDRESS :</text>
  <text x="92.00" y="258.94" font-family="Arial, Helvetica, sans-serif" font-size="1.8" fill="#000000">MAIN CONTRACTOR :</text>
  <text x="152.00" y="258.94" font-family="Arial, Helvetica, sans-serif" font-size="1.8" fill="#000000">ELECTRICAL CONTRACTOR :</text>
  <text x="224.00" y="258.94" font-family="Arial, Helvetica, sans-serif" font-size="1.8" fill="#000000">DRAWING TITLE :</text>
  <text x="292.00" y="258.94" font-family="Arial, Helvetica, sans-serif" font-size="1.8" fill="#000000">LEW :</text>
  <text x="364.00" y="258.94" font-family="Arial, Helvetica, sans-serif" font-size="1.8" fill="#000000">CHECKED :</text>
  <text x="388.00" y="258.94" font-family="Arial, Helvetica, sans-serif" font-size="1.8" fill="#000000">DATE :</text>
  <text x="364.00" y="273.94" font-family="Arial, Helvetica, sans-serif" font-size="1.8" fill="#000000">DRAWING NO. :</text>
  <text x="388.00" y="273.94" font-family="Arial, Helvetica, sans-serif" font-size="1.8" fill="#000000">REV :</text>
  <circle cx="217.50" cy="182.21" r="0.40" stroke="#000000" stroke-width="0.25" fill="none" />
  <line x1="217.90" y1="182.21" x2="221.50" y2="180.21" stroke="#000000" stroke-width="0.25" fill="none" />
  <circle cx="221.50" cy="182.21" r="0.40" stroke="#000000" stroke-width="0.25" fill="none" />
  <line x1="221.90" y1="182.21" x2="223.00" y2="182.21" stroke="#000000" stroke-width="0.25" fill="none" />
  <line x1="216.00" y1="182.21" x2="217.10" y2="182.21" stroke="#000000" stroke-width="0.25" fill="none" />
  <line x1="223.00" y1="182.21" x2="225.00" y2="182.21" stroke="#000000" stroke-width="0.25" fill="none" />
  <line x1="216.00" y1="182.21" x2="214.00" y2="182.21" stroke="#000000" stroke-width="0.25" fill="none" />
  <text x="211.82" y="178.24" font-family="Arial, Helvetica, sans-serif" font-size="1.6" fill="#000000"><tspan x="211.82">63A 4P</tspan><tspan x="211.82" dy="2.2">ISOLATOR</tspan></text>
  <polygon points="240.60,184.16 248.40,184.16 248.40,180.26 240.60,180.26" stroke="#000000" stroke-width="0.25" fill="none" />
  <text x="241.77" y="183.03" font-family="Arial, Helvetica, sans-serif" font-size="2.7" fill="#000000">KWH</text>
  <line x1="248.40" y1="182.21" x2="250.40" y2="182.21" stroke="#000000" stroke-width="0.25" fill="none" />
  <line x1="240.60" y1="182.21" x2="238.60" y2="182.21" stroke="#000000" stroke-width="0.25" fill="none" />
  <text x="234.50" y="177.40" font-family="Arial, Helvetica, sans-serif" font-size="2.8" fill="#000000">KWH METER BY SP</text>
  <circle cx="267.80" cy="182.21" r="0.35" stroke="#000000" stroke-width="0.25" fill="none" />
  <circle cx="271.20" cy="182.21" r="0.35" stroke="#000000" stroke-width="0.25" fill="none" />
  <path d="M 271.15,181.80 A 1.70,1.70 0 0,0 267.86,181.78" stroke="#000000" stroke-width="0.25" fill="none" />
  <line x1="271.55" y1="182.21" x2="273.50" y2="182.21" stroke="#000000" stroke-width="0.25" fill="none" />
  <line x1="265.50" y1="182.21" x2="267.45" y2="182.21" stroke="#000000" stroke-width="0.25" fill="none" />
  <line x1="273.50" y1="182.21" x2="275.50" y2="182.21" stroke="#000000" stroke-width="0.25" fill="none" />
  <line x1="265.50" y1="182.21" x2="263.50" y2="182.21" stroke="#000000" stroke-width="0.25" fill="none" />
  <text x="257.98" y="178.49" font-family="Arial, Helvetica, sans-serif" font-size="1.6" fill="#000000"><tspan x="257.98">63A TPN MCB</tspan><tspan x="257.98" dy="2.2">TYPE B 25kA</tspan></text>
  <text x="298.50" y="181.45" font-family="Arial, Helvetica, sans-serif" font-size="2.8" fill="#000000">INCOMING FROM HDB ELECTRICAL RISER</text>
  <text x="289.50" y="193.05" font-family="Arial, Helvetica, sans-serif" font-size="2.8" fill="#000000"><tspan x="289.50">4 x 1C 16sqmm PVC/PVC +</tspan><tspan x="289.50" dy="3.9">16sqmm PVC CPC IN METAL TRUNKING</tspan></text>
  <text x="150.24" y="166.50" font-family="Arial, Helvetica, sans-serif" font-size="2.8" fill="#000000"><tspan x="150.24">4 x 1C 16sqmm PVC/PVC +</tspan><tspan x="150.24" dy="3.9">16sqmm PVC CPC IN METAL TRUNKING</tspan></text>
  <text x="213.00" y="195.18" font-family="Arial, Helvetica, sans-serif" font-size="2.8" fill="#000000">METER BOARD</text>
  <text x="227.75" y="201.98" font-family="Arial, Helvetica, sans-serif" font-size="2.8" fill="#000000">LOCATED AT METER COMPARTMENT</text>
  <line x1="283.50" y1="199.24" x2="283.50" y2="201.04" stroke="#000000" stroke-width="0.25" fill="none" />
  <line x1="280.75" y1="201.04" x2="286.25" y2="201.04" stroke="#000000" stroke-width="0.25" fill="none" />
  <line x1="281.67" y1="202.17" x2="285.33" y2="202.17" stroke="#000000" stroke-width="0.25" fill="none" />
  <line x1="282.58" y1="203.29" x2="284.42" y2="203.29" stroke="#000000" stroke-width="0.25" fill="none" />
  <text x="289.25" y="201.33" font-family="Arial, Helvetica, sans-serif" font-size="2.3" fill="#000000">E</text>
  <circle cx="210.00" cy="141.16" r="0.35" stroke="#000000" stroke-width="0.25" fill="none" />
  <circle cx="210.00" cy="137.16" r="0.35" stroke="#000000" stroke-width="0.25" fill="none" />
  <path d="M 210.91,140.94 A 2.00,2.00 0 0,0 210.91,137.38" stroke="#000000" stroke-width="0.25" fill="none" />
  <line x1="210.00" y1="136.81" x2="210.00" y2="134.66" stroke="#000000" stroke-width="0.25" fill="none" />
  <line x1="210.00" y1="143.66" x2="210.00" y2="141.51" stroke="#000000" stroke-width="0.25" fill="none" />
  <line x1="210.00" y1="134.66" x2="210.00" y2="132.66" stroke="#000000" stroke-width="0.25" fill="none" />
  <line x1="210.00" y1="143.66" x2="210.00" y2="145.66" stroke="#000000" stroke-width="0.25" fill="none" />
  <text x="215.75" y="139.00" font-family="Arial, Helvetica, sans-serif" font-size="2.3" fill="#000000">63A TPN MCCB (25KA)</text>
  <line x1="59.55" y1="132.66" x2="360.45" y2="132.66" stroke="#000000" stroke-width="0.50" fill="none" />
  <text x="62.55" y="137.90" font-family="Arial, Helvetica, sans-serif" font-size="2.8" fill="#000000">200A COMB BAR</text>
  <text x="75.65" y="130.92" font-family="Arial, Helvetica, sans-serif" font-size="2.2" fill="#000000" transform="rotate(-90.0,75.65,129.16)">L1S1</text>
  <circle cx="73.05" cy="118.36" r="0.35" stroke="#000000" stroke-width="0.25" fill="none" />
  <circle cx="73.05" cy="114.96" r="0.35" stroke="#000000" stroke-width="0.25" fill="none" />
  <path d="M 73.46,118.31 A 1.70,1.70 0 0,0 73.48,115.02" stroke="#000000" stroke-width="0.25" fill="none" />
  <line x1="68.75" y1="116.62" x2="74.75" y2="116.67" stroke="#000000" stroke-width="0.25" fill="none" />
  <line x1="74.75" y1="116.67" x2="73.54" y2="117.26" stroke="#000000" stroke-width="0.25" fill="none" />
  <line x1="74.75" y1="116.67" x2="73.56" y2="116.06" stroke="#000000" stroke-width="0.25" fill="none" />
  <line x1="73.05" y1="114.61" x2="73.05" y2="112.66" stroke="#000000" stroke-width="0.25" fill="none" />
  <line x1="73.05" y1="120.66" x2="73.05" y2="118.71" stroke="#000000" stroke-width="0.25" fill="none" />
  <line x1="73.05" y1="112.66" x2="73.05" y2="110.66" stroke="#000000" stroke-width="0.25" fill="none" />
  <line x1="73.05" y1="120.66" x2="73.05" y2="122.66" stroke="#000000" stroke-width="0.25" fill="none" />
  <text x="64.55" y="115.26" font-family="Arial, Helvetica, sans-serif" font-size="2.0" fill="#000000">B10A</text>
  <text x="64.55" y="117.76" font-family="Arial, Helvetica, sans-serif" font-size="2.0" fill="#000000">SPN</text>
  <text x="64.55" y="120.26" font-family="Arial, Helvetica, sans-serif" font-size="2.0" fill="#000000">MCB</text>
  <text x="64.55" y="122.76" font-family="Arial, Helvetica, sans-serif" font-size="2.0" fill="#000000">6kA</text>
  <text x="74.15" y="87.90" font-family="Arial, Helvetica, sans-serif" font-size="2.8" fill="#000000" transform="rotate(-90.0,74.15,85.66)">1 no. Lighting</text>
  <text x="109.75" y="130.92" font-family="Arial, Helvetica, sans-serif" font-size="2.2" fill="#000000" transform="rotate(-90.0,109.75,129.16)">L2S1</text>
  <circle cx="107.15" cy="118.36" r="0.35" stroke="#000000" stroke-width="0.25" fill="none" />
  <circle cx="107.15" cy="114.96" r="0.35" stroke="#000000" stroke-width="0.25" fill="none" />
  <path d="M 107.56,118.31 A 1.70,1.70 0 0,0 107.58,115.02" stroke="#000000" stroke-width="0.25" fill="none" />
  <line x1="107.15" y1="114.61" x2="107.15" y2="112.66" stroke="#000000" stroke-width="0.25" fill="none" />
  <line x1="107.15" y1="120.66" x2="107.15" y2="118.71" stroke="#000000" stroke-width="0.25" fill="none" />
  <line x1="107.15" y1="112.66" x2="107.15" y2="110.66" stroke="#000000" stroke-width="0.25" fill="none" />
  <line x1="107.15" y1="120.66" x2="107.15" y2="122.66" stroke="#000000" stroke-width="0.25" fill="none" />
  <line x1="74.75" y1="116.67" x2="108.85" y2="116.67" stroke="#000000" stroke-width="0.25" fill="none" />
  <line x1="108.85" y1="116.67" x2="107.64" y2="117.26" stroke="#000000" stroke-width="0.25" fill="none" />
  <line x1="108.85" y1="116.67" x2="107.66" y2="116.06" stroke="#000000" stroke-width="0.25" fill="none" />
  <text x="108.25" y="87.90" font-family="Arial, Helvetica, sans-serif" font-size="2.8" fill="#000000" transform="rotate(-90.0,108.25,85.66)">1 no. Lighting</text>
  <text x="143.85" y="130.92" font-family="Arial, Helvetica, sans-serif" font-size="2.2" fill="#000000" transform="rotate(-90.0,143.85,129.16)">L3S1</text>
  <circle cx="141.25" cy="118.36" r="0.35" stroke="#000000" stroke-width="0.25" fill="none" />
  <circle cx="141.25" cy="114.96" r="0.35" stroke="#000000" stroke-width="0.25" fill="none" />
  <path d="M 141.66,118.31 A 1.70,1.70 0 0,0 141.68,115.02" stroke="#000000" stroke-width="0.25" fill="none" />
  <line x1="141.25" y1="114.61" x2="141.25" y2="112.66" stroke="#000000" stroke-width="0.25" fill="none" />
  <line x1="141.25" y1="120.66" x2="141.25" y2="118.71" stroke="#000000" stroke-width="0.25" fill="none" />
  <line x1="141.25" y1="112.66" x2="141.25" y2="110.66" stroke="#000000" stroke-width="0.25" fill="none" />
  <line x1="141.25" y1="120.66" x2="141.25" y2="122.66" stroke="#000000" stroke-width="0.25" fill="none" />
  <line x1="108.85" y1="116.67" x2="142.95" y2="116.67" stroke="#000000" stroke-width="0.25" fill="none" />
  <line x1="142.95" y1="116.67" x2="141.74" y2="117.26" stroke="#000000" stroke-width="0.25" fill="none" />
  <line x1="142.95" y1="116.67" x2="141.76" y2="116.06" stroke="#000000" stroke-width="0.25" fill="none" />
  <text x="142.35" y="87.90" font-family="Arial, Helvetica, sans-serif" font-size="2.8" fill="#000000" transform="rotate(-90.0,142.35,85.66)">1 no. Lighting</text>
  <text x="183.95" y="130.92" font-family="Arial, Helvetica, sans-serif" font-size="2.2" fill="#000000" transform="rotate(-90.0,183.95,129.16)">L1P1</text>
  <circle cx="181.35" cy="118.36" r="0.35" stroke="#000000" stroke-width="0.25" fill="none" />
  <circle cx="181.35" cy="114.96" r="0.35" stroke="#000000" stroke-width="0.25" fill="none" />
  <path d="M 181.76,118.31 A 1.70,1.70 0 0,0 181.78,115.02" stroke="#000000" stroke-width="0.25" fill="none" />
  <line x1="177.05" y1="116.62" x2="183.05" y2="116.67" stroke="#000000" stroke-width="0.25" fill="none" />
  <line x1="183.05" y1="116.67" x2="181.84" y2="117.26" stroke="#000000" stroke-width="0.25" fill="none" />
  <line x1="183.05" y1="116.67" x2="181.86" y2="116.06" stroke="#000000" stroke-width="0.25" fill="none" />
  <line x1="181.35" y1="114.61" x2="181.35" y2="112.66" stroke="#000000" stroke-width="0.25" fill="none" />
  <line x1="181.35" y1="120.66" x2="181.35" y2="118.71" stroke="#000000" stroke-width="0.25" fill="none" />
  <line x1="181.35" y1="112.66" x2="181.35" y2="110.66" stroke="#000000" stroke-width="0.25" fill="none" />
  <line x1="181.35" y1="120.66" x2="181.35" y2="122.66" stroke="#000000" stroke-width="0.25" fill="none" />
  <text x="172.85" y="115.26" font-family="Arial, Helvetica, sans-serif" font-size="2.0" fill="#000000">B20A</text>
  <text x="172.85" y="117.76" font-family="Arial, Helvetica, sans-serif" font-size="2.0" fill="#000000">SPN</text>
  <text x="172.85" y="120.26" font-family="Arial, Helvetica, sans-serif" font-size="2.0" fill="#000000">MCB</text>
  <text x="172.85" y="122.76" font-family="Arial, Helvetica, sans-serif" font-size="2.0" fill="#000000">6kA</text>
  <text x="182.45" y="87.90" font-family="Arial, Helvetica, sans-serif" font-size="2.8" fill="#000000" transform="rotate(-90.0,182.45,85.66)">1 no. 13A S/S/O</text>
  <text x="218.05" y="130.92" font-family="Arial, Helvetica, sans-serif" font-size="2.2" fill="#000000" transform="rotate(-90.0,218.05,129.16)">L2P1</text>
  <circle cx="215.45" cy="118.36" r="0.35" stroke="#000000" stroke-width="0.25" fill="none" />
  <circle cx="215.45" cy="114.96" r="0.35" stroke="#000000" stroke-width="0.25" fill="none" />
  <path d="M 215.86,118.31 A 1.70,1.70 0 0,0 215.88,115.02" stroke="#000000" stroke-width="0.25" fill="none" />
  <line x1="215.45" y1="114.61" x2="215.45" y2="112.66" stroke="#000000" stroke-width="0.25" fill="none" />
  <line x1="215.45" y1="120.66" x2="215.45" y2="118.71" stroke="#000000" stroke-width="0.25" fill="none" />
  <line x1="215.45" y1="112.66" x2="215.45" y2="110.66" stroke="#000000" stroke-width="0.25" fill="none" />
  <line x1="215.45" y1="120.66" x2="215.45" y2="122.66" stroke="#000000" stroke-width="0.25" fill="none" />
  <line x1="183.05" y1="116.67" x2="217.15" y2="116.67" stroke="#000000" stroke-width="0.25" fill="none" />
  <line x1="217.15" y1="116.67" x2="215.94" y2="117.26" stroke="#000000" stroke-width="0.25" fill="none" />
  <line x1="217.15" y1="116.67" x2="215.96" y2="116.06" stroke="#000000" stroke-width="0.25" fill="none" />
  <text x="216.55" y="87.90" font-family="Arial, Helvetica, sans-serif" font-size="2.8" fill="#000000" transform="rotate(-90.0,216.55,85.66)">1 no. 13A S/S/O</text>
  <text x="252.15" y="130.92" font-family="Arial, Helvetica, sans-serif" font-size="2.2" fill="#000000" transform="rotate(-90.0,252.15,129.16)">L3P1</text>
  <circle cx="249.55" cy="118.36" r="0.35" stroke="#000000" stroke-width="0.25" fill="none" />
  <circle cx="249.55" cy="114.96" r="0.35" stroke="#000000" stroke-width="0.25" fill="none" />
  <path d="M 249.96,118.31 A 1.70,1.70 0 0,0 249.98,115.02" stroke="#000000" stroke-width="0.25" fill="none" />
  <line x1="249.55" y1="114.61" x2="249.55" y2="112.66" stroke="#000000" stroke-width="0.25" fill="none" />
  <line x1="249.55" y1="120.66" x2="249.55" y2="118.71" stroke="#000000" stroke-width="0.25" fill="none" />
  <line x1="249.55" y1="112.66" x2="249.55" y2="110.66" stroke="#000000" stroke-width="0.25" fill="none" />
  <line x1="249.55" y1="120.66" x2="249.55" y2="122.66" stroke="#000000" stroke-width="0.25" fill="none" />
  <line x1="217.15" y1="116.67" x2="251.25" y2="116.67" stroke="#000000" stroke-width="0.25" fill="none" />
  <line x1="251.25" y1="116.67" x2="250.04" y2="117.26" stroke="#000000" stroke-width="0.25" fill="none" />
  <line x1="251.25" y1="116.67" x2="250.06" y2="116.06" stroke="#000000" stroke-width="0.25" fill="none" />
  <text x="250.65" y="87.90" font-family="Arial, Helvetica, sans-serif" font-size="2.8" fill="#000000" transform="rotate(-90.0,250.65,85.66)">1 no. 13A S/S/O</text>
  <text x="286.25" y="130.92" font-family="Arial, Helvetica, sans-serif" font-size="2.2" fill="#000000" transform="rotate(-90.0,286.25,129.16)">H4</text>
  <circle cx="283.65" cy="118.36" r="0.35" stroke="#000000" stroke-width="0.25" fill="none" />
  <circle cx="283.65" cy="114.96" r="0.35" stroke="#000000" stroke-width="0.25" fill="none" />
  <path d="M 284.06,118.31 A 1.70,1.70 0 0,0 284.08,115.02" stroke="#000000" stroke-width="0.25" fill="none" />
  <line x1="279.35" y1="116.62" x2="285.35" y2="116.67" stroke="#000000" stroke-width="0.25" fill="none" />
  <line x1="285.35" y1="116.67" x2="284.14" y2="117.26" stroke="#000000" stroke-width="0.25" fill="none" />
  <line x1="285.35" y1="116.67" x2="284.16" y2="116.06" stroke="#000000" stroke-width="0.25" fill="none" />
  <line x1="283.65" y1="114.61" x2="283.65" y2="112.66" stroke="#000000" stroke-width="0.25" fill="none" />
  <line x1="283.65" y1="120.66" x2="283.65" y2="118.71" stroke="#000000" stroke-width="0.25" fill="none" />
  <line x1="283.65" y1="112.66" x2="283.65" y2="110.66" stroke="#000000" stroke-width="0.25" fill="none" />
  <line x1="283.65" y1="120.66" x2="283.65" y2="122.66" stroke="#000000" stroke-width="0.25" fill="none" />
  <text x="275.15" y="115.26" font-family="Arial, Helvetica, sans-serif" font-size="2.0" fill="#000000">B32A</text>
  <text x="275.15" y="117.76" font-family="Arial, Helvetica, sans-serif" font-size="2.0" fill="#000000">SPN</text>
  <text x="275.15" y="120.26" font-family="Arial, Helvetica, sans-serif" font-size="2.0" fill="#000000">MCB</text>
  <text x="275.15" y="122.76" font-family="Arial, Helvetica, sans-serif" font-size="2.0" fill="#000000">6kA</text>
  <text x="284.75" y="87.90" font-family="Arial, Helvetica, sans-serif" font-size="2.8" fill="#000000" transform="rotate(-90.0,284.75,85.66)">1 no. Water Heater</text>
  <text x="320.35" y="130.92" font-family="Arial, Helvetica, sans-serif" font-size="2.2" fill="#000000" transform="rotate(-90.0,320.35,129.16)">L2P2</text>
  <circle cx="317.75" cy="118.36" r="0.35" stroke="#000000" stroke-width="0.25" fill="none" />
  <circle cx="317.75" cy="114.96" r="0.35" stroke="#000000" stroke-width="0.25" fill="none" />
  <path d="M 318.16,118.31 A 1.70,1.70 0 0,0 318.18,115.02" stroke="#000000" stroke-width="0.25" fill="none" />
  <line x1="317.75" y1="114.61" x2="317.75" y2="112.66" stroke="#000000" stroke-width="0.25" fill="none" />
  <line x1="317.75" y1="120.66" x2="317.75" y2="118.71" stroke="#000000" stroke-width="0.25" fill="none" />
  <line x1="317.75" y1="112.66" x2="317.75" y2="110.66" stroke="#000000" stroke-width="0.25" fill="none" />
  <line x1="317.75" y1="120.66" x2="317.75" y2="122.66" stroke="#000000" stroke-width="0.25" fill="none" />
  <line x1="251.25" y1="116.67" x2="319.45" y2="116.67" stroke="#000000" stroke-width="0.25" fill="none" />
  <line x1="319.45" y1="116.67" x2="318.24" y2="117.26" stroke="#000000" stroke-width="0.25" fill="none" />
  <line x1="319.45" y1="116.67" x2="318.26" y2="116.06" stroke="#000000" stroke-width="0.25" fill="none" />
  <text x="318.85" y="87.90" font-family="Arial, Helvetica, sans-serif" font-size="2.8" fill="#000000" transform="rotate(-90.0,318.85,85.66)">1 no. Aircon</text>
  <text x="354.45" y="130.92" font-family="Arial, Helvetica, sans-serif" font-size="2.2" fill="#000000" transform="rotate(-90.0,354.45,129.16)">L1P2</text>
  <circle cx="351.85" cy="118.36" r="0.35" stroke="#000000" stroke-width="0.25" fill="none" />
  <circle cx="351.85" cy="114.96" r="0.35" stroke="#000000" stroke-width="0.25" fill="none" />
  <path d="M 352.26,118.31 A 1.70,1.70 0 0,0 352.28,115.02" stroke="#000000" stroke-width="0.25" fill="none" />
  <line x1="351.85" y1="114.61" x2="351.85" y2="112.66" stroke="#000000" stroke-width="0.25" fill="none" />
  <line x1="351.85" y1="120.66" x2="351.85" y2="118.71" stroke="#000000" stroke-width="0.25" fill="none" />
  <line x1="351.85" y1="112.66" x2="351.85" y2="110.66" stroke="#000000" stroke-width="0.25" fill="none" />
  <line x1="351.85" y1="120.66" x2="351.85" y2="122.66" stroke="#000000" stroke-width="0.25" fill="none" />
  <line x1="319.45" y1="116.67" x2="353.55" y2="116.67" stroke="#000000" stroke-width="0.25" fill="none" />
  <line x1="353.55" y1="116.67" x2="352.34" y2="117.26" stroke="#000000" stroke-width="0.25" fill="none" />
  <line x1="353.55" y1="116.67" x2="352.36" y2="116.06" stroke="#000000" stroke-width="0.25" fill="none" />
  <text x="352.95" y="87.90" font-family="Arial, Helvetica, sans-serif" font-size="2.8" fill="#000000" transform="rotate(-90.0,352.95,85.66)">SPARE</text>
  <text x="76.85" y="89.46" font-family="Arial, Helvetica, sans-serif" font-size="2.8" fill="#000000" transform="rotate(-90.0,76.85,89.46)">2 x 1C 1.5sqmm PVC + 1.5sqmm</text>
  <text x="80.77" y="89.46" font-family="Arial, Helvetica, sans-serif" font-size="2.8" fill="#000000" transform="rotate(-90.0,80.77,89.46)">PVC CPC IN PVC CONDUIT</text>
  <text x="313.15" y="89.46" font-family="Arial, Helvetica, sans-serif" font-size="2.8" fill="#000000" transform="rotate(-90.0,313.15,89.46)">2 x 1C 2.5sqmm PVC + 2.5sqmm</text>
  <text x="317.07" y="89.46" font-family="Arial, Helvetica, sans-serif" font-size="2.8" fill="#000000" transform="rotate(-90.0,317.07,89.46)">PVC CPC IN PVC CONDUIT</text>
  <text x="287.45" y="89.46" font-family="Arial, Helvetica, sans-serif" font-size="2.8" fill="#000000" transform="rotate(-90.0,287.45,89.46)">2 x 1C 6sqmm PVC + 4sqmm</text>
  <text x="291.37" y="89.46" font-family="Arial, Helvetica, sans-serif" font-size="2.8" fill="#000000" transform="rotate(-90.0,291.37,89.46)">PVC CPC IN PVC CONDUIT</text>
  <text x="55.55" y="148.06" font-family="Arial, Helvetica, sans-serif" font-size="3.0" fill="#000000">63A DB</text>
  <text x="55.55" y="151.10" font-family="Arial, Helvetica, sans-serif" font-size="1.8" fill="#000000">APPROVED LOAD: 45 kVA</text>
  <line x1="378.20" y1="153.16" x2="378.20" y2="154.96" stroke="#000000" stroke-width="0.25" fill="none" />
  <line x1="375.45" y1="154.96" x2="380.95" y2="154.96" stroke="#000000" stroke-width="0.25" fill="none" />
  <line x1="376.37" y1="156.09" x2="380.03" y2="156.09" stroke="#000000" stroke-width="0.25" fill="none" />
  <line x1="377.28" y1="157.21" x2="379.12" y2="157.21" stroke="#000000" stroke-width="0.25" fill="none" />
  <text x="383.95" y="155.25" font-family="Arial, Helvetica, sans-serif" font-size="2.3" fill="#000000">E</text>
  <line x1="210.00" y1="182.21" x2="214.00" y2="182.21" stroke="#000000" stroke-width="0.25" fill="none" />
  <line x1="225.00" y1="182.21" x2="238.60" y2="182.21" stroke="#000000" stroke-width="0.25" fill="none" />
  <line x1="250.40" y1="182.21" x2="263.50" y2="182.21" stroke="#000000" stroke-width="0.25" fill="none" />
  <line x1="275.50" y1="182.21" x2="295.50" y2="182.21" stroke="#000000" stroke-width="0.25" fill="none" />
  <line x1="284.00" y1="183.71" x2="287.00" y2="180.71" stroke="#000000" stroke-width="0.25" fill="none" />
  <line x1="285.50" y1="182.21" x2="285.50" y2="192.21" stroke="#000000" stroke-width="0.25" fill="none" />
  <line x1="285.50" y1="192.21" x2="288.50" y2="192.21" stroke="#000000" stroke-width="0.25" fill="none" />
  <line x1="210.00" y1="182.21" x2="210.00" y2="157.66" stroke="#000000" stroke-width="0.25" fill="none" />
  <line x1="210.00" y1="165.66" x2="207.00" y2="165.66" stroke="#000000" stroke-width="0.25" fill="none" />
  <line x1="279.50" y1="193.74" x2="283.50" y2="193.74" stroke="#000000" stroke-width="0.25" fill="none" />
  <line x1="283.50" y1="193.74" x2="283.50" y2="199.24" stroke="#000000" stroke-width="0.25" fill="none" />
  <line x1="210.00" y1="157.66" x2="210.00" y2="145.66" stroke="#000000" stroke-width="0.25" fill="none" />
  <line x1="210.00" y1="135.66" x2="210.00" y2="132.66" stroke="#000000" stroke-width="0.25" fill="none" />
  <line x1="74.15" y1="130.16" x2="74.15" y2="120.66" stroke="#000000" stroke-width="0.25" fill="none" />
  <line x1="74.15" y1="110.66" x2="74.15" y2="87.66" stroke="#000000" stroke-width="0.25" fill="none" />
  <line x1="108.25" y1="132.66" x2="108.25" y2="120.66" stroke="#000000" stroke-width="0.25" fill="none" />
  <line x1="108.25" y1="110.66" x2="108.25" y2="87.66" stroke="#000000" stroke-width="0.25" fill="none" />
  <line x1="142.35" y1="130.16" x2="142.35" y2="120.66" stroke="#000000" stroke-width="0.25" fill="none" />
  <line x1="142.35" y1="110.66" x2="142.35" y2="87.66" stroke="#000000" stroke-width="0.25" fill="none" />
  <line x1="182.45" y1="130.16" x2="182.45" y2="120.66" stroke="#000000" stroke-width="0.25" fill="none" />
  <line x1="182.45" y1="110.66" x2="182.45" y2="87.66" stroke="#000000" stroke-width="0.25" fill="none" />
  <line x1="216.55" y1="132.66" x2="216.55" y2="120.66" stroke="#000000" stroke-width="0.25" fill="none" />
  <line x1="216.55" y1="110.66" x2="216.55" y2="87.66" stroke="#000000" stroke-width="0.25" fill="none" />
  <line x1="250.65" y1="130.16" x2="250.65" y2="120.66" stroke="#000000" stroke-width="0.25" fill="none" />
  <line x1="250.65" y1="110.66" x2="250.65" y2="87.66" stroke="#000000" stroke-width="0.25" fill="none" />
  <line x1="284.75" y1="130.16" x2="284.75" y2="120.66" stroke="#000000" stroke-width="0.25" fill="none" />
  <line x1="284.75" y1="110.66" x2="284.75" y2="87.66" stroke="#000000" stroke-width="0.25" fill="none" />
  <line x1="318.85" y1="132.66" x2="318.85" y2="120.66" stroke="#000000" stroke-width="0.25" fill="none" />
  <line x1="318.85" y1="110.66" x2="318.85" y2="87.66" stroke="#000000" stroke-width="0.25" fill="none" />
  <line x1="352.95" y1="130.16" x2="352.95" y2="120.66" stroke="#000000" stroke-width="0.25" fill="none" />
  <line x1="352.95" y1="110.66" x2="352.95" y2="87.66" stroke="#000000" stroke-width="0.25" fill="none" />
  <line x1="108.25" y1="132.66" x2="74.15" y2="130.16" stroke="#000000" stroke-width="0.25" fill="none" />
  <line x1="108.25" y1="132.66" x2="142.35" y2="130.16" stroke="#000000" stroke-width="0.25" fill="none" />
  <line x1="216.55" y1="132.66" x2="182.45" y2="130.16" stroke="#000000" stroke-width="0.25" fill="none" />
  <line x1="216.55" y1="132.66" x2="250.65" y2="130.16" stroke="#000000" stroke-width="0.25" fill="none" />
  <line x1="318.85" y1="132.66" x2="284.75" y2="130.16" stroke="#000000" stroke-width="0.25" fill="none" />
  <line x1="318.85" y1="132.66" x2="352.95" y2="130.16" stroke="#000000" stroke-width="0.25" fill="none" />
  <line x1="79.85" y1="92.66" x2="142.35" y2="92.66" stroke="#000000" stroke-width="0.25" fill="none" />
  <line x1="79.85" y1="92.66" x2="79.85" y2="87.66" stroke="#000000" stroke-width="0.25" fill="none" />
  <line x1="182.45" y1="92.66" x2="313.15" y2="92.66" stroke="#000000" stroke-width="0.25" fill="none" />
  <line x1="313.15" y1="92.66" x2="313.15" y2="87.66" stroke="#000000" stroke-width="0.25" fill="none" />
  <line x1="290.45" y1="92.66" x2="284.75" y2="92.66" stroke="#000000" stroke-width="0.25" fill="none" />
  <line x1="290.45" y1="92.66" x2="290.45" y2="87.66" stroke="#000000" stroke-width="0.25" fill="none" />
  <line x1="370.45" y1="153.16" x2="378.20" y2="153.16" stroke="#000000" stroke-width="0.25" fill="none" />
  <line x1="208.75" y1="166.91" x2="211.25" y2="164.41" stroke="#000000" stroke-width="0.50" fill="none" />
  <line x1="72.90" y1="93.91" x2="75.40" y2="91.41" stroke="#000000" stroke-width="0.50" fill="none" />
  <line x1="107.00" y1="93.91" x2="109.50" y2="91.41" stroke="#000000" stroke-width="0.50" fill="none" />
  <line x1="141.10" y1="93.91" x2="143.60" y2="91.41" stroke="#000000" stroke-width="0.50" fill="none" />
  <line x1="181.20" y1="93.91" x2="183.70" y2="91.41" stroke="#000000" stroke-width="0.50" fill="none" />
  <line x1="215.30" y1="93.91" x2="217.80" y2="91.41" stroke="#000000" stroke-width="0.50" fill="none" />
  <line x1="249.40" y1="93.91" x2="251.90" y2="91.41" stroke="#000000" stroke-width="0.50" fill="none" />
  <line x1="317.60" y1="93.91" x2="320.10" y2="91.41" stroke="#000000" stroke-width="0.50" fill="none" />
  <line x1="283.50" y1="93.91" x2="286.00" y2="91.41" stroke="#000000" stroke-width="0.50" fill="none" />
  <line x1="212.00" y1="196.74" x2="220.00" y2="196.74" stroke="#000000" stroke-width="0.25" fill="none" />
  <line x1="222.00" y1="196.74" x2="223.50" y2="196.74" stroke="#000000" stroke-width="0.25" fill="none" />
  <line x1="225.50" y1="196.74" x2="233.50" y2="196.74" stroke="#000000" stroke-width="0.25" fill="none" />
  <line x1="235.50" y1="196.74" x2="237.00" y2="196.74" stroke="#000000" stroke-width="0.25" fill="none" />
  <line x1="239.00" y1="196.74" x2="247.00" y2="196.74" stroke="#000000" stroke-width="0.25" fill="none" />
  <line x1="249.00" y1="196.74" x2="250.50" y2="196.74" stroke="#000000" stroke-width="0.25" fill="none" />
  <line x1="252.50" y1="196.74" x2="260.50" y2="196.74" stroke="#000000" stroke-width="0.25" fill="none" />
  <line x1="262.50" y1="196.74" x2="264.00" y2="196.74" stroke="#000000" stroke-width="0.25" fill="none" />
  <line x1="266.00" y1="196.74" x2="274.00" y2="196.74" stroke="#000000" stroke-width="0.25" fill="none" />
  <line x1="276.00" y1="196.74" x2="277.50" y2="196.74" stroke="#000000" stroke-width="0.25" fill="none" />
  <line x1="212.00" y1="173.66" x2="220.00" y2="173.66" stroke="#000000" stroke-width="0.25" fill="none" />
  <line x1="222.00" y1="173.66" x2="223.50" y2="173.66" stroke="#000000" stroke-width="0.25" fill="none" />
  <line x1="225.50" y1="173.66" x2="233.50" y2="173.66" stroke="#000000" stroke-width="0.25" fill="none" />
  <line x1="235.50" y1="173.66" x2="237.00" y2="173.66" stroke="#000000" stroke-width="0.25" fill="none" />
  <line x1="239.00" y1="173.66" x2="247.00" y2="173.66" stroke="#000000" stroke-width="0.25" fill="none" />
  <line x1="249.00" y1="173.66" x2="250.50" y2="173.66" stroke="#000000" stroke-width="0.25" fill="none" />
  <line x1="252.50" y1="173.66" x2="260.50" y2="173.66" stroke="#000000" stroke-width="0.25" fill="none" />
  <line x1="262.50" y1="173.66" x2="264.00" y2="173.66" stroke="#000000" stroke-width="0.25" fill="none" />
  <line x1="266.00" y1="173.66" x2="274.00" y2="173.66" stroke="#000000" stroke-width="0.25" fill="none" />
  <line x1="276.00" y1="173.66" x2="277.50" y2="173.66" stroke="#000000" stroke-width="0.25" fill="none" />
  <line x1="212.00" y1="196.74" x2="212.00" y2="188.74" stroke="#000000" stroke-width="0.25" fill="none" />
  <line x1="212.00" y1="186.74" x2="212.00" y2="185.24" stroke="#000000" stroke-width="0.25" fill="none" />
  <line x1="212.00" y1="183.24" x2="212.00" y2="175.24" stroke="#000000" stroke-width="0.25" fill="none" />
  <line x1="279.50" y1="196.74" x2="279.50" y2="188.74" stroke="#000000" stroke-width="0.25" fill="none" />
  <line x1="279.50" y1="186.74" x2="279.50" y2="185.24" stroke="#000000" stroke-width="0.25" fill="none" />
  <line x1="279.50" y1="183.24" x2="279.50" y2="175.24" stroke="#000000" stroke-width="0.25" fill="none" />
  <line x1="49.55" y1="153.66" x2="57.55" y2="153.66" stroke="#000000" stroke-width="0.25" fill="none" />
  <line x1="59.55" y1="153.66" x2="61.05" y2="153.66" stroke="#000000" stroke-width="0.25" fill="none" />
  <line x1="63.05" y1="153.66" x2="71.05" y2="153.66" stroke="#000000" stroke-width="0.25" fill="none" />
  <line x1="73.05" y1="153.66" x2="74.55" y2="153.66" stroke="#000000" stroke-width="0.25" fill="none" />
  <line x1="76.55" y1="153.66" x2="84.55" y2="153.66" stroke="#000000" stroke-width="0.25" fill="none" />
  <line x1="86.55" y1="153.66" x2="88.05" y2="153.66" stroke="#000000" stroke-width="0.25" fill="none" />
  <line x1="90.05" y1="153.66" x2="98.05" y2="153.66" stroke="#000000" stroke-width="0.25" fill="none" />
  <line x1="100.05" y1="153.66" x2="101.55" y2="153.66" stroke="#000000" stroke-width="0.25" fill="none" />
  <line x1="103.55" y1="153.66" x2="111.55" y2="153.66" stroke="#000000" stroke-width="0.25" fill="none" />
  <line x1="113.55" y1="153.66" x2="115.05" y2="153.66" stroke="#000000" stroke-width="0.25" fill="none" />
  <line x1="117.05" y1="153.66" x2="125.05" y2="153.66" stroke="#000000" stroke-width="0.25" fill="none" />
  <line x1="127.05" y1="153.66" x2="128.55" y2="153.66" stroke="#000000" stroke-width="0.25" fill="none" />
  <line x1="130.55" y1="153.66" x2="138.55" y2="153.66" stroke="#000000" stroke-width="0.25" fill="none" />
  <line x1="140.55" y1="153.66" x2="142.05" y2="153.66" stroke="#000000" stroke-width="0.25" fill="none" />
  <line x1="144.05" y1="153.66" x2="152.05" y2="153.66" stroke="#000000" stroke-width="0.25" fill="none" />
  <line x1="154.05" y1="153.66" x2="155.55" y2="153.66" stroke="#000000" stroke-width="0.25" fill="none" />
  <line x1="157.55" y1="153.66" x2="165.55" y2="153.66" stroke="#000000" stroke-width="0.25" fill="none" />
  <line x1="167.55" y1="153.66" x2="169.05" y2="153.66" stroke="#000000" stroke-width="0.25" fill="none" />
  <line x1="171.05" y1="153.66" x2="179.05" y2="153.66" stroke="#000000" stroke-width="0.25" fill="none" />
  <line x1="181.05" y1="153.66" x2="182.55" y2="153.66" stroke="#000000" stroke-width="0.25" fill="none" />
  <line x1="184.55" y1="153.66" x2="192.55" y2="153.66" stroke="#000000" stroke-width="0.25" fill="none" />
  <line x1="194.55" y1="153.66" x2="196.05" y2="153.66" stroke="#000000" stroke-width="0.25" fill="none" />
  <line x1="198.05" y1="153.66" x2="206.05" y2="153.66" stroke="#000000" stroke-width="0.25" fill="none" />
  <line x1="208.05" y1="153.66" x2="209.55" y2="153.66" stroke="#000000" stroke-width="0.25" fill="none" />
  <line x1="211.55" y1="153.66" x2="219.55" y2="153.66" stroke="#000000" stroke-width="0.25" fill="none" />
  <line x1="221.55" y1="153.66" x2="223.05" y2="153.66" stroke="#000000" stroke-width="0.25" fill="none" />
  <line x1="225.05" y1="153.66" x2="233.05" y2="153.66" stroke="#000000" stroke-width="0.25" fill="none" />
  <line x1="235.05" y1="153.66" x2="236.55" y2="153.66" stroke="#000000" stroke-width="0.25" fill="none" />
  <line x1="238.55" y1="153.66" x2="246.55" y2="153.66" stroke="#000000" stroke-width="0.25" fill="none" />
  <line x1="248.55" y1="153.66" x2="250.05" y2="153.66" stroke="#000000" stroke-width="0.25" fill="none" />
  <line x1="252.05" y1="153.66" x2="260.05" y2="153.66" stroke="#000000" stroke-width="0.25" fill="none" />
  <line x1="262.05" y1="153.66" x2="263.55" y2="153.66" stroke="#000000" stroke-width="0.25" fill="none" />
  <line x1="265.55" y1="153.66" x2="273.55" y2="153.66" stroke="#000000" stroke-width="0.25" fill="none" />
  <line x1="275.55" y1="153.66" x2="277.05" y2="153.66" stroke="#000000" stroke-width="0.25" fill="none" />
  <line x1="279.05" y1="153.66" x2="287.05" y2="153.66" stroke="#000000" stroke-width="0.25" fill="none" />
  <line x1="289.05" y1="153.66" x2="290.55" y2="153.66" stroke="#000000" stroke-width="0.25" fill="none" />
  <line x1="292.55" y1="153.66" x2="300.55" y2="153.66" stroke="#000000" stroke-width="0.25" fill="none" />
  <line x1="302.55" y1="153.66" x2="304.05" y2="153.66" stroke="#000000" stroke-width="0.25" fill="none" />
  <line x1="306.05" y1="153.66" x2="314.05" y2="153.66" stroke="#000000" stroke-width="0.25" fill="none" />
  <line x1="316.05" y1="153.66" x2="317.55" y2="153.66" stroke="#000000" stroke-width="0.25" fill="none" />
  <line x1="319.55" y1="153.66" x2="327.55" y2="153.66" stroke="#000000" stroke-width="0.25" fill="none" />
  <line x1="329.55" y1="153.66" x2="331.05" y2="153.66" stroke="#000000" stroke-width="0.25" fill="none" />
  <line x1="333.05" y1="153.66" x2="341.05" y2="153.66" stroke="#000000" stroke-width="0.25" fill="none" />
  <line x1="343.05" y1="153.66" x2="344.55" y2="153.66" stroke="#000000" stroke-width="0.25" fill="none" />
  <line x1="346.55" y1="153.66" x2="354.55" y2="153.66" stroke="#000000" stroke-width="0.25" fill="none" />
  <line x1="356.55" y1="153.66" x2="358.05" y2="153.66" stroke="#000000" stroke-width="0.25" fill="none" />
  <line x1="360.05" y1="153.66" x2="368.05" y2="153.66" stroke="#000000" stroke-width="0.25" fill="none" />
  <line x1="370.05" y1="153.66" x2="370.45" y2="153.66" stroke="#000000" stroke-width="0.25" fill="none" />
  <line x1="49.55" y1="102.66" x2="57.55" y2="102.66" stroke="#000000" stroke-width="0.25" fill="none" />
  <line x1="59.55" y1="102.66" x2="61.05" y2="102.66" stroke="#000000" stroke-width="0.25" fill="none" />
  <line x1="63.05" y1="102.66" x2="71.05" y2="102.66" stroke="#000000" stroke-width="0.25" fill="none" />
  <line x1="73.05" y1="102.66" x2="74.55" y2="102.66" stroke="#000000" stroke-width="0.25" fill="none" />
  <line x1="76.55" y1="102.66" x2="84.55" y2="102.66" stroke="#000000" stroke-width="0.25" fill="none" />
  <line x1="86.55" y1="102.66" x2="88.05" y2="102.66" stroke="#000000" stroke-width="0.25" fill="none" />
  <line x1="90.05" y1="102.66" x2="98.05" y2="102.66" stroke="#000000" stroke-width="0.25" fill="none" />
  <line x1="100.05" y1="102.66" x2="101.55" y2="102.66" stroke="#000000" stroke-width="0.25" fill="none" />
  <line x1="103.55" y1="102.66" x2="111.55" y2="102.66" stroke="#000000" stroke-width="0.25" fill="none" />
  <line x1="113.55" y1="102.66" x2="115.05" y2="102.66" stroke="#000000" stroke-width="0.25" fill="none" />
  <line x1="117.05" y1="102.66" x2="125.05" y2="102.66" stroke="#000000" stroke-width="0.25" fill="none" />
  <line x1="127.05" y1="102.66" x2="128.55" y2="102.66" stroke="#000000" stroke-width="0.25" fill="none" />
  <line x1="130.55" y1="102.66" x2="138.55" y2="102.66" stroke="#000000" stroke-width="0.25" fill="none" />
  <line x1="140.55" y1="102.66" x2="142.05" y2="102.66" stroke="#000000" stroke-width="0.25" fill="none" />
  <line x1="144.05" y1="102.66" x2="152.05" y2="102.66" stroke="#000000" stroke-width="0.25" fill="none" />
  <line x1="154.05" y1="102.66" x2="155.55" y2="102.66" stroke="#000000" stroke-width="0.25" fill="none" />
  <line x1="157.55" y1="102.66" x2="165.55" y2="102.66" stroke="#000000" stroke-width="0.25" fill="none" />
  <line x1="167.55" y1="102.66" x2="169.05" y2="102.66" stroke="#000000" stroke-width="0.25" fill="none" />
  <line x1="171.05" y1="102.66" x2="179.05" y2="102.66" stroke="#000000" stroke-width="0.25" fill="none" />
  <line x1="181.05" y1="102.66" x2="182.55" y2="102.66" stroke="#000000" stroke-width="0.25" fill="none" />
  <line x1="184.55" y1="102.66" x2="192.55" y2="102.66" stroke="#000000" stroke-width="0.25" fill="none" />
  <line x1="194.55" y1="102.66" x2="196.05" y2="102.66" stroke="#000000" stroke-width="0.25" fill="none" />
  <line x1="198.05" y1="102.66" x2="206.05" y2="102.66" stroke="#000000" stroke-width="0.25" fill="none" />
  <line x1="208.05" y1="102.66" x2="209.55" y2="102.66" stroke="#000000" stroke-width="0.25" fill="none" />
  <line x1="211.55" y1="102.66" x2="219.55" y2="102.66" stroke="#000000" stroke-width="0.25" fill="none" />
  <line x1="221.55" y1="102.66" x2="223.05" y2="102.66" stroke="#000000" stroke-width="0.25" fill="none" />
  <line x1="225.05" y1="102.66" x2="233.05" y2="102.66" stroke="#000000" stroke-width="0.25" fill="none" />
  <line x1="235.05" y1="102.66" x2="236.55" y2="102.66" stroke="#000000" stroke-width="0.25" fill="none" />
  <line x1="238.55" y1="102.66" x2="246.55" y2="102.66" stroke="#000000" stroke-width="0.25" fill="none" />
  <line x1="248.55" y1="102.66" x2="250.05" y2="102.66" stroke="#000000" stroke-width="0.25" fill="none" />
  <line x1="252.05" y1="102.66" x2="260.05" y2="102.66" stroke="#000000" stroke-width="0.25" fill="none" />
  <line x1="262.05" y1="102.66" x2="263.55" y2="102.66" stroke="#000000" stroke-width="0.25" fill="none" />
  <line x1="265.55" y1="102.66" x2="273.55" y2="102.66" stroke="#000000" stroke-width="0.25" fill="none" />
  <line x1="275.55" y1="102.66" x2="277.05" y2="102.66" stroke="#000000" stroke-width="0.25" fill="none" />
  <line x1="279.05" y1="102.66" x2="287.05" y2="102.66" stroke="#000000" stroke-width="0.25" fill="none" />
  <line x1="289.05" y1="102.66" x2="290.55" y2="102.66" stroke="#000000" stroke-width="0.25" fill="none" />
  <line x1="292.55" y1="102.66" x2="300.55" y2="102.66" stroke="#000000" stroke-width="0.25" fill="none" />
  <line x1="302.55" y1="102.66" x2="304.05" y2="102.66" stroke="#000000" stroke-width="0.25" fill="none" />
  <line x1="306.05" y1="102.66" x2="314.05" y2="102.66" stroke="#000000" stroke-width="0.25" fill="none" />
  <line x1="316.05" y1="102.66" x2="317.55" y2="102.66" stroke="#000000" stroke-width="0.25" fill="none" />
  <line x1="319.55" y1="102.66" x2="327.55" y2="102.66" stroke="#000000" stroke-width="0.25" fill="none" />
  <line x1="329.55" y1="102.66" x2="331.05" y2="102.66" stroke="#000000" stroke-width="0.25" fill="none" />
  <line x1="333.05" y1="102.66" x2="341.05" y2="102.66" stroke="#000000" stroke-width="0.25" fill="none" />
  <line x1="343.05" y1="102.66" x2="344.55" y2="102.66" stroke="#000000" stroke-width="0.25" fill="none" />
  <line x1="346.55" y1="102.66" x2="354.55" y2="102.66" stroke="#000000" stroke-width="0.25" fill="none" />
  <line x1="356.55" y1="102.66" x2="358.05" y2="102.66" stroke="#000000" stroke-width="0.25" fill="none" />
  <line x1="360.05" y1="102.66" x2="368.05" y2="102.66" stroke="#000000" stroke-width="0.25" fill="none" />
  <line x1="370.05" y1="102.66" x2="370.45" y2="102.66" stroke="#000000" stroke-width="0.25" fill="none" />
  <line x1="49.55" y1="153.66" x2="49.55" y2="145.66" stroke="#000000" stroke-width="0.25" fill="none" />
  <line x1="49.55" y1="143.66" x2="49.55" y2="142.16" stroke="#000000" stroke-width="0.25" fill="none" />
  <line x1="49.55" y1="140.16" x2="49.55" y2="132.16" stroke="#000000" stroke-width="0.25" fill="none" />
  <line x1="49.55" y1="130.16" x2="49.55" y2="128.66" stroke="#000000" stroke-width="0.25" fill="none" />
  <line x1="49.55" y1="126.66" x2="49.55" y2="118.66" stroke="#000000" stroke-width="0.25" fill="none" />
  <line x1="49.55" y1="116.66" x2="49.55" y2="115.16" stroke="#000000" stroke-width="0.25" fill="none" />
  <line x1="49.55" y1="113.16" x2="49.55" y2="105.16" stroke="#000000" stroke-width="0.25" fill="none" />
  <line x1="49.55" y1="103.16" x2="49.55" y2="102.66" stroke="#000000" stroke-width="0.25" fill="none" />
  <line x1="370.45" y1="153.66" x2="370.45" y2="145.66" stroke="#000000" stroke-width="0.25" fill="none" />
  <line x1="370.45" y1="143.66" x2="370.45" y2="142.16" stroke="#000000" stroke-width="0.25" fill="none" />
  <line x1="370.45" y1="140.16" x2="370.45" y2="132.16" stroke="#000000" stroke-width="0.25" fill="none" />
  <line x1="370.45" y1="130.16" x2="370.45" y2="128.66" stroke="#000000" stroke-width="0.25" fill="none" />
  <line x1="370.45" y1="126.66" x2="370.45" y2="118.66" stroke="#000000" stroke-width="0.25" fill="none" />
  <line x1="370.45" y1="116.66" x2="370.45" y2="115.16" stroke="#000000" stroke-width="0.25" fill="none" />
  <line x1="370.45" y1="113.16" x2="370.45" y2="105.16" stroke="#000000" stroke-width="0.25" fill="none" />
  <line x1="370.45" y1="103.16" x2="370.45" y2="102.66" stroke="#000000" stroke-width="0.25" fill="none" />
  <circle cx="279.50" cy="193.74" r="0.50" fill="rgb(0,0,0)" stroke="none" />
  <circle cx="108.25" cy="132.66" r="0.50" fill="rgb(0,0,0)" stroke="none" />
  <circle cx="108.25" cy="132.66" r="0.50" fill="rgb(0,0,0)" stroke="none" />
  <circle cx="108.25" cy="132.66" r="0.50" fill="rgb(0,0,0)" stroke="none" />
  <circle cx="216.55" cy="132.66" r="0.50" fill="rgb(0,0,0)" stroke="none" />
  <circle cx="216.55" cy="132.66" r="0.50" fill="rgb(0,0,0)" stroke="none" />
  <circle cx="216.55" cy="132.66" r="0.50" fill="rgb(0,0,0)" stroke="none" />
  <circle cx="318.85" cy="132.66" r="0.50" fill="rgb(0,0,0)" stroke="none" />
  <circle cx="318.85" cy="132.66" r="0.50" fill="rgb(0,0,0)" stroke="none" />
  <circle cx="318.85" cy="132.66" r="0.50" fill="rgb(0,0,0)" stroke="none" />
  <circle cx="370.45" cy="153.16" r="0.50" fill="rgb(0,0,0)" stroke="none" />
  <text x="13.00" y="264.40" font-family="Arial, Helvetica, sans-serif" font-size="3.0" fill="#000000">Electrical Installation</text>
  <text x="153.00" y="264.40" font-family="Arial, Helvetica, sans-serif" font-size="3.0" fill="#000000">LicenseKaki</text>
  <text x="225.00" y="263.80" font-family="Arial, Helvetica, sans-serif" font-size="3.5" fill="#000000"><tspan x="225.00">SINGLE LINE DIAGRAM</tspan><tspan x="225.00" dy="4.9">(SLD)</tspan></text>
  <text x="389.00" y="266.00" font-family="Arial, Helvetica, sans-serif" font-size="2.5" fill="#000000">DATE</text>
  <text x="365.00" y="278.00" font-family="Arial, Helvetica, sans-serif" font-size="2.5" fill="#000000"></text>
  <text x="394.00" y="278.80" font-family="Arial, Helvetica, sans-serif" font-size="3.5" fill="#000000">0</text>
  <text x="365.00" y="286.28" font-family="Arial, Helvetica, sans-serif" font-size="1.6" fill="#000000">SCALE : NTS</text>
  <text x="389.00" y="286.28" font-family="Arial, Helvetica, sans-serif" font-size="1.6" fill="#000000">SHEET : 1 OF 1</text>
</svg>