<svg xmlns="http://www.w3.org/2000/svg" viewBox="0 0 420.0 297.0" width="420.0mm" height="297.0mm">
  <rect width="420.0" height="297.0" fill="white" />
  <polygon points="10.00,287.00 410.00,287.00 410.00,10.00 10.00,10.00" stroke="#000000" stroke-width="0.25" fill="none" />
  <polygon points="10.00,287.00 410.00,287.00 410.00,255.00 10.00,255.00" stroke="#000000" stroke-width="0.25" fill="none" />
  <line x1="90.00" y1="255.00" x2="90.00" y2="287.00" stroke="#000000" stroke-width="0.25" fill="none" />
  <line x1="150.00" y1="255.00" x2="150.00" y2="287.00" stroke="#000000" stroke-width="0.25" fill="none" />
  <line x1="222.00" y1="255.00" x2="222.00" y2="287.00" stroke="#000000" stroke-width="0.25" fill="none" />
  <line x1="290.00" y1="255.00" x2="290.00" y2="287.00" stroke="#000000" stroke-width="0.25" fill="none" />
  <line x1="362.00" y1="255.00" x2="362.00" y2="287.00" stroke="#000000" stroke-width="0.25" fill="none" />
  <line x1="362.00" y1="270.00" x2="410.00" y2="270.00" stroke="#000000" stroke-width="0.25" fill="none" />
  <line x1="386.00" y1="255.00" x2="386.00" y2="287.00" stroke="#000000" stroke-width="0.25" fill="none" />
  <text x="12.00" y="258.94" font-family="Arial, Helvetica, sans-serif" font-size="1.8" fill="#000000">CLIENT / ADDRESS :</text>
  <text x="92.00" y="258.94" font-family="Arial, Helvetica, sans-serif" font-size="1.8" fill="#000000">MAIN CONTRACTOR :</text>
  <text x="152.00" y="258.94" font-family="Arial, Helvetica, sans-serif" font-size="1.8" fill="#000000">ELECTRICAL CONTRACTOR :</text>
  <text x="224.00" y="258.94" font-family="Arial, Helvetica, sans-serif" font-size="1.8" fill="#000000">DRAWING TITLE :</text>
  <text x="292.00" y="258.94" font-family="Arial, Helvetica, sans-serif" font-size="1.8" fill="#000000">LEW :</text>
  <text x="364.00" y="258.94" font-family="Arial, Helvetica, sans-serif" font-size="1.8" fill="#000000">CHECKED :</text>
  <text x="388.00" y="258.94" font-family="Arial, Helvetica, sans-serif" font-size="1.8" fill="#000000">DATE :</text>
  <text x="364.00" y="273.94" font-family="Arial, Helvetica, sans-serif" font-size="1.8" fill="#000000">DRAWING NO. :</text>
  <text x="388.00" y="273.94" font-family="Arial, Helvetica, sans-serif" font-size="1.8" fill="#000000">REV :</text>
  <circle cx="222.30" cy="186.01" r="0.70" stroke="#000000" stroke-width="0.25" fill="none" />
  <circle cx="216.70" cy="186.01" r="0.70" stroke="#000000" stroke-width="0.25" fill="none" />
  <polyline points="217.36,185.78 222.21,184.04" stroke="#000000" stroke-width="0.25" fill="none" />
  <text x="215.18" y="191.00" font-family="Arial, Helvetica, sans-serif" font-size="1.8" fill="#000000"><tspan x="215.18">100A 4P</tspan><tspan x="215.18" dy="2.5">ISOLATOR</tspan></text>
  <polygon points="238.50,183.01 250.50,183.01 250.50,189.01 238.50,189.01" stroke="#000000" stroke-width="0.25" fill="none" />
  <text x="242.10" y="187.32" font-family="Arial, Helvetica, sans-serif" font-size="2.2" fill="#000000">KWH</text>
  <text x="234.50" y="180.95" font-family="Arial, Helvetica, sans-serif" font-size="2.8" fill="#000000">PG KWH METER</text>
  <path d="M 272.84,185.16 A 3.75,3.75 0 0,0 266.16,185.16" stroke="#000000" stroke-width="0.25" fill="none" />
  <circle cx="266.16" cy="186.20" r="0.66" stroke="#000000" stroke-width="0.25" fill="none" />
  <circle cx="272.84" cy="186.19" r="0.66" stroke="#000000" stroke-width="0.25" fill="none" />
  <line x1="265.50" y1="186.01" x2="263.50" y2="186.01" stroke="#000000" stroke-width="0.25" fill="none" />
  <line x1="273.50" y1="186.01" x2="275.50" y2="186.01" stroke="#000000" stroke-width="0.25" fill="none" />
  <text x="263.02" y="190.75" font-family="Arial, Helvetica, sans-serif" font-size="1.8" fill="#000000"><tspan x="263.02">100A TPN MCB</tspan><tspan x="263.02" dy="2.5">TYPE B 25kA</tspan></text>
  <text x="296.50" y="185.25" font-family="Arial, Helvetica, sans-serif" font-size="2.8" fill="#000000">FROM LANDLORD RISER</text>
  <text x="150.24" y="170.05" font-family="Arial, Helvetica, sans-serif" font-size="2.8" fill="#000000"><tspan x="150.24">4 x 1C 50sqmm XLPE +</tspan><tspan x="150.24" dy="3.9">25sqmm PVC CPC IN METAL TRUNKING</tspan></text>
  <text x="213.00" y="199.23" font-family="Arial, Helvetica, sans-serif" font-size="2.8" fill="#000000">METER BOARD</text>
  <text x="226.75" y="206.03" font-family="Arial, Helvetica, sans-serif" font-size="2.8" fill="#000000">LOCATED AT METER COMPARTMENT</text>
  <line x1="281.50" y1="203.29" x2="281.50" y2="205.09" stroke="#000000" stroke-width="0.25" fill="none" />
  <line x1="279.25" y1="205.09" x2="283.75" y2="205.09" stroke="#000000" stroke-width="0.25" fill="none" />
  <line x1="280.00" y1="206.21" x2="283.00" y2="206.21" stroke="#000000" stroke-width="0.25" fill="none" />
  <line x1="280.75" y1="207.34" x2="282.25" y2="207.34" stroke="#000000" stroke-width="0.25" fill="none" />
  <text x="286.75" y="204.82" font-family="Arial, Helvetica, sans-serif" font-size="1.6" fill="#000000">E</text>
  <path d="M 210.96,146.47 A 4.22,4.22 0 0,0 210.96,138.95" stroke="#000000" stroke-width="0.25" fill="none" />
  <circle cx="209.78" cy="138.95" r="0.74" stroke="#000000" stroke-width="0.25" fill="none" />
  <circle cx="209.80" cy="146.47" r="0.74" stroke="#000000" stroke-width="0.25" fill="none" />
  <line x1="210.00" y1="147.21" x2="210.00" y2="149.21" stroke="#000000" stroke-width="0.25" fill="none" />
  <line x1="210.00" y1="138.21" x2="210.00" y2="136.21" stroke="#000000" stroke-width="0.25" fill="none" />
  <text x="213.96" y="142.15" font-family="Arial, Helvetica, sans-serif" font-size="1.8" fill="#000000">100A TPN MCCB (25KA)</text>
  <line x1="53.00" y1="131.21" x2="375.00" y2="131.21" stroke="#000000" stroke-width="0.50" fill="none" />
  <text x="56.00" y="136.45" font-family="Arial, Helvetica, sans-serif" font-size="2.8" fill="#000000">200A BUSBAR</text>
  <text x="68.00" y="129.47" font-family="Arial, Helvetica, sans-serif" font-size="2.2" fill="#000000" transform="rotate(-90.0,68.00,128.59)">L1P1</text>
  <path d="M 67.35,118.55 A 3.75,3.75 0 0,0 67.35,111.87" stroke="#000000" stroke-width="0.25" fill="none" />
  <circle cx="66.31" cy="111.87" r="0.66" stroke="#000000" stroke-width="0.25" fill="none" />
  <circle cx="66.32" cy="118.55" r="0.66" stroke="#000000" stroke-width="0.25" fill="none" />
  <line x1="66.50" y1="119.21" x2="66.50" y2="121.21" stroke="#000000" stroke-width="0.25" fill="none" />
  <line x1="66.50" y1="111.21" x2="66.50" y2="109.21" stroke="#000000" stroke-width="0.25" fill="none" />
  <line x1="63.39" y1="115.21" x2="69.39" y2="115.21" stroke="#000000" stroke-width="0.25" fill="none" />
  <line x1="69.39" y1="115.21" x2="68.19" y2="114.61" stroke="#000000" stroke-width="0.25" fill="none" />
  <line x1="69.39" y1="115.21" x2="68.19" y2="115.81" stroke="#000000" stroke-width="0.25" fill="none" />
  <text x="58.00" y="113.81" font-family="Arial, Helvetica, sans-serif" font-size="2.0" fill="#000000">B20A</text>
  <text x="58.00" y="116.31" font-family="Arial, Helvetica, sans-serif" font-size="2.0" fill="#000000">SPN</text>
  <text x="58.00" y="118.81" font-family="Arial, Helvetica, sans-serif" font-size="2.0" fill="#000000">MCB</text>
  <text x="58.00" y="121.31" font-family="Arial, Helvetica, sans-serif" font-size="2.0" fill="#000000">6kA</text>
  <text x="66.50" y="86.45" font-family="Arial, Helvetica, sans-serif" font-size="2.8" fill="#000000" transform="rotate(-90.0,66.50,85.33)">1 NO. CIRCUIT 1</text>
  <text x="94.64" y="129.47" font-family="Arial, Helvetica, sans-serif" font-size="2.2" fill="#000000" transform="rotate(-90.0,94.64,128.59)">L2P1</text>
  <path d="M 93.99,118.55 A 3.75,3.75 0 0,0 93.99,111.87" stroke="#000000" stroke-width="0.25" fill="none" />
  <circle cx="92.94" cy="111.87" r="0.66" stroke="#000000" stroke-width="0.25" fill="none" />
  <circle cx="92.96" cy="118.55" r="0.66" stroke="#000000" stroke-width="0.25" fill="none" />
  <line x1="93.14" y1="119.21" x2="93.14" y2="121.21" stroke="#000000" stroke-width="0.25" fill="none" />
  <line x1="93.14" y1="111.21" x2="93.14" y2="109.21" stroke="#000000" stroke-width="0.25" fill="none" />
  <line x1="69.39" y1="115.21" x2="96.03" y2="115.21" stroke="#000000" stroke-width="0.25" fill="none" />
  <line x1="96.03" y1="115.21" x2="94.83" y2="114.61" stroke="#000000" stroke-width="0.25" fill="none" />
  <line x1="96.03" y1="115.21" x2="94.83" y2="115.81" stroke="#000000" stroke-width="0.25" fill="none" />
  <text x="93.14" y="86.45" font-family="Arial, Helvetica, sans-serif" font-size="2.8" fill="#000000" transform="rotate(-90.0,93.14,85.33)">1 NO. CIRCUIT 2</text>
  <text x="121.27" y="129.47" font-family="Arial, Helvetica, sans-serif" font-size="2.2" fill="#000000" transform="rotate(-90.0,121.27,128.59)">L3P1</text>
  <path d="M 120.63,118.55 A 3.75,3.75 0 0,0 120.63,111.87" stroke="#000000" stroke-width="0.25" fill="none" />
  <circle cx="119.58" cy="111.87" r="0.66" stroke="#000000" stroke-width="0.25" fill="none" />
  <circle cx="119.59" cy="118.55" r="0.66" stroke="#000000" stroke-width="0.25" fill="none" />
  <line x1="119.77" y1="119.21" x2="119.77" y2="121.21" stroke="#000000" stroke-width="0.25" fill="none" />
  <line x1="119.77" y1="111.21" x2="119.77" y2="109.21" stroke="#000000" stroke-width="0.25" fill="none" />
  <line x1="96.03" y1="115.21" x2="122.67" y2="115.21" stroke="#000000" stroke-width="0.25" fill="none" />
  <line x1="122.67" y1="115.21" x2="121.47" y2="114.61" stroke="#000000" stroke-width="0.25" fill="none" />
  <line x1="122.67" y1="115.21" x2="121.47" y2="115.81" stroke="#000000" stroke-width="0.25" fill="none" />
  <text x="119.77" y="86.45" font-family="Arial, Helvetica, sans-serif" font-size="2.8" fill="#000000" transform="rotate(-90.0,119.77,85.33)">1 NO. CIRCUIT 3</text>
  <text x="147.91" y="129.47" font-family="Arial, Helvetica, sans-serif" font-size="2.2" fill="#000000" transform="rotate(-90.0,147.91,128.59)">L1P2</text>
  <path d="M 147.26,118.55 A 3.75,3.75 0 0,0 147.26,111.87" stroke="#000000" stroke-width="0.25" fill="none" />
  <circle cx="146.22" cy="111.87" r="0.66" stroke="#000000" stroke-width="0.25" fill="none" />
  <circle cx="146.23" cy="118.55" r="0.66" stroke="#000000" stroke-width="0.25" fill="none" />
  <line x1="146.41" y1="119.21" x2="146.41" y2="121.21" stroke="#000000" stroke-width="0.25" fill="none" />
  <line x1="146.41" y1="111.21" x2="146.41" y2="109.21" stroke="#000000" stroke-width="0.25" fill="none" />
  <line x1="122.67" y1="115.21" x2="149.30" y2="115.21" stroke="#000000" stroke-width="0.25" fill="none" />
  <line x1="149.30" y1="115.21" x2="148.10" y2="114.61" stroke="#000000" stroke-width="0.25" fill="none" />
  <line x1="149.30" y1="115.21" x2="148.10" y2="115.81" stroke="#000000" stroke-width="0.25" fill="none" />
  <text x="146.41" y="86.45" font-family="Arial, Helvetica, sans-serif" font-size="2.8" fill="#000000" transform="rotate(-90.0,146.41,85.33)">1 NO. CIRCUIT 4</text>
  <text x="174.55" y="129.47" font-family="Arial, Helvetica, sans-serif" font-size="2.2" fill="#000000" transform="rotate(-90.0,174.55,128.59)">L2P2</text>
  <path d="M 173.90,118.55 A 3.75,3.75 0 0,0 173.90,111.87" stroke="#000000" stroke-width="0.25" fill="none" />
  <circle cx="172.85" cy="111.87" r="0.66" stroke="#000000" stroke-width="0.25" fill="none" />
  <circle cx="172.86" cy="118.55" r="0.66" stroke="#000000" stroke-width="0.25" fill="none" />
  <line x1="173.05" y1="119.21" x2="173.05" y2="121.21" stroke="#000000" stroke-width="0.25" fill="none" />
  <line x1="173.05" y1="111.21" x2="173.05" y2="109.21" stroke="#000000" stroke-width="0.25" fill="none" />
  <line x1="149.30" y1="115.21" x2="175.94" y2="115.21" stroke="#000000" stroke-width="0.25" fill="none" />
  <line x1="175.94" y1="115.21" x2="174.74" y2="114.61" stroke="#000000" stroke-width="0.25" fill="none" />
  <line x1="175.94" y1="115.21" x2="174.74" y2="115.81" stroke="#000000" stroke-width="0.25" fill="none" />
  <text x="173.05" y="86.45" font-family="Arial, Helvetica, sans-serif" font-size="2.8" fill="#000000" transform="rotate(-90.0,173.05,85.33)">1 NO. CIRCUIT 5</text>
  <text x="201.18" y="129.47" font-family="Arial, Helvetica, sans-serif" font-size="2.2" fill="#000000" transform="rotate(-90.0,201.18,128.59)">L3P2</text>
  <path d="M 200.54,118.55 A 3.75,3.75 0 0,0 200.53,111.87" stroke="#000000" stroke-width="0.25" fill="none" />
  <circle cx="199.49" cy="111.87" r="0.66" stroke="#000000" stroke-width="0.25" fill="none" />
  <circle cx="199.50" cy="118.55" r="0.66" stroke="#000000" stroke-width="0.25" fill="none" />
  <line x1="199.68" y1="119.21" x2="199.68" y2="121.21" stroke="#000000" stroke-width="0.25" fill="none" />
  <line x1="199.68" y1="111.21" x2="199.68" y2="109.21" stroke="#000000" stroke-width="0.25" fill="none" />
  <line x1="175.94" y1="115.21" x2="202.58" y2="115.21" stroke="#000000" stroke-width="0.25" fill="none" />
  <line x1="202.58" y1="115.21" x2="201.38" y2="114.61" stroke="#000000" stroke-width="0.25" fill="none" />
  <line x1="202.58" y1="115.21" x2="201.38" y2="115.81" stroke="#000000" stroke-width="0.25" fill="none" />
  <text x="199.68" y="86.45" font-family="Arial, Helvetica, sans-serif" font-size="2.8" fill="#000000" transform="rotate(-90.0,199.68,85.33)">1 NO. CIRCUIT 6</text>
  <text x="227.82" y="129.47" font-family="Arial, Helvetica, sans-serif" font-size="2.2" fill="#000000" transform="rotate(-90.0,227.82,128.59)">L1P3</text>
  <path d="M 227.17,118.55 A 3.75,3.75 0 0,0 227.17,111.87" stroke="#000000" stroke-width="0.25" fill="none" />
  <circle cx="226.13" cy="111.87" r="0.66" stroke="#000000" stroke-width="0.25" fill="none" />
  <circle cx="226.14" cy="118.55" r="0.66" stroke="#000000" stroke-width="0.25" fill="none" />
  <line x1="226.32" y1="119.21" x2="226.32" y2="121.21" stroke="#000000" stroke-width="0.25" fill="none" />
  <line x1="226.32" y1="111.21" x2="226.32" y2="109.21" stroke="#000000" stroke-width="0.25" fill="none" />
  <line x1="202.58" y1="115.21" x2="229.21" y2="115.21" stroke="#000000" stroke-width="0.25" fill="none" />
  <line x1="229.21" y1="115.21" x2="228.01" y2="114.61" stroke="#000000" stroke-width="0.25" fill="none" />
  <line x1="229.21" y1="115.21" x2="228.01" y2="115.81" stroke="#000000" stroke-width="0.25" fill="none" />
  <text x="226.32" y="86.45" font-family="Arial, Helvetica, sans-serif" font-size="2.8" fill="#000000" transform="rotate(-90.0,226.32,85.33)">1 NO. CIRCUIT 7</text>
  <text x="254.45" y="129.47" font-family="Arial, Helvetica, sans-serif" font-size="2.2" fill="#000000" transform="rotate(-90.0,254.45,128.59)">L2P3</text>
  <path d="M 253.81,118.55 A 3.75,3.75 0 0,0 253.81,111.87" stroke="#000000" stroke-width="0.25" fill="none" />
  <circle cx="252.76" cy="111.87" r="0.66" stroke="#000000" stroke-width="0.25" fill="none" />
  <circle cx="252.77" cy="118.55" r="0.66" stroke="#000000" stroke-width="0.25" fill="none" />
  <line x1="252.95" y1="119.21" x2="252.95" y2="121.21" stroke="#000000" stroke-width="0.25" fill="none" />
  <line x1="252.95" y1="111.21" x2="252.95" y2="109.21" stroke="#000000" stroke-width="0.25" fill="none" />
  <line x1="229.21" y1="115.21" x2="255.85" y2="115.21" stroke="#000000" stroke-width="0.25" fill="none" />
  <line x1="255.85" y1="115.21" x2="254.65" y2="114.61" stroke="#000000" stroke-width="0.25" fill="none" />
  <line x1="255.85" y1="115.21" x2="254.65" y2="115.81" stroke="#000000" stroke-width="0.25" fill="none" />
  <text x="252.95" y="86.45" font-family="Arial, Helvetica, sans-serif" font-size="2.8" fill="#000000" transform="rotate(-90.0,252.95,85.33)">1 NO. CIRCUIT 8</text>
  <text x="281.09" y="129.47" font-family="Arial, Helvetica, sans-serif" font-size="2.2" fill="#000000" transform="rotate(-90.0,281.09,128.59)">L3P3</text>
  <path d="M 280.44,118.55 A 3.75,3.75 0 0,0 280.44,111.87" stroke="#000000" stroke-width="0.25" fill="none" />
  <circle cx="279.40" cy="111.87" r="0.66" stroke="#000000" stroke-width="0.25" fill="none" />
  <circle cx="279.41" cy="118.55" r="0.66" stroke="#000000" stroke-width="0.25" fill="none" />
  <line x1="279.59" y1="119.21" x2="279.59" y2="121.21" stroke="#000000" stroke-width="0.25" fill="none" />
  <line x1="279.59" y1="111.21" x2="279.59" y2="109.21" stroke="#000000" stroke-width="0.25" fill="none" />
  <line x1="255.85" y1="115.21" x2="282.49" y2="115.21" stroke="#000000" stroke-width="0.25" fill="none" />
  <line x1="282.49" y1="115.21" x2="281.29" y2="114.61" stroke="#000000" stroke-width="0.25" fill="none" />
  <line x1="282.49" y1="115.21" x2="281.29" y2="115.81" stroke="#000000" stroke-width="0.25" fill="none" />
  <text x="279.59" y="86.45" font-family="Arial, Helvetica, sans-serif" font-size="2.8" fill="#000000" transform="rotate(-90.0,279.59,85.33)">1 NO. CIRCUIT 9</text>
  <text x="307.73" y="129.47" font-family="Arial, Helvetica, sans-serif" font-size="2.2" fill="#000000" transform="rotate(-90.0,307.73,128.59)">L1P4</text>
  <path d="M 307.08,118.55 A 3.75,3.75 0 0,0 307.08,111.87" stroke="#000000" stroke-width="0.25" fill="none" />
  <circle cx="306.04" cy="111.87" r="0.66" stroke="#000000" stroke-width="0.25" fill="none" />
  <circle cx="306.05" cy="118.55" r="0.66" stroke="#000000" stroke-width="0.25" fill="none" />
  <line x1="306.23" y1="119.21" x2="306.23" y2="121.21" stroke="#000000" stroke-width="0.25" fill="none" />
  <line x1="306.23" y1="111.21" x2="306.23" y2="109.21" stroke="#000000" stroke-width="0.25" fill="none" />
  <line x1="282.49" y1="115.21" x2="309.12" y2="115.21" stroke="#000000" stroke-width="0.25" fill="none" />
  <line x1="309.12" y1="115.21" x2="307.92" y2="114.61" stroke="#000000" stroke-width="0.25" fill="none" />
  <line x1="309.12" y1="115.21" x2="307.92" y2="115.81" stroke="#000000" stroke-width="0.25" fill="none" />
  <text x="306.23" y="86.45" font-family="Arial, Helvetica, sans-serif" font-size="2.8" fill="#000000" transform="rotate(-90.0,306.23,85.33)">1 NO. CIRCUIT 10</text>
  <text x="334.36" y="129.47" font-family="Arial, Helvetica, sans-serif" font-size="2.2" fill="#000000" transform="rotate(-90.0,334.36,128.59)">L2P4</text>
  <path d="M 333.72,118.55 A 3.75,3.75 0 0,0 333.72,111.87" stroke="#000000" stroke-width="0.25" fill="none" />
  <circle cx="332.67" cy="111.87" r="0.66" stroke="#000000" stroke-width="0.25" fill="none" />
  <circle cx="332.68" cy="118.55" r="0.66" stroke="#000000" stroke-width="0.25" fill="none" />
  <line x1="332.86" y1="119.21" x2="332.86" y2="121.21" stroke="#000000" stroke-width="0.25" fill="none" />
  <line x1="332.86" y1="111.21" x2="332.86" y2="109.21" stroke="#000000" stroke-width="0.25" fill="none" />
  <line x1="309.12" y1="115.21" x2="335.76" y2="115.21" stroke="#000000" stroke-width="0.25" fill="none" />
  <line x1="335.76" y1="115.21" x2="334.56" y2="114.61" stroke="#000000" stroke-width="0.25" fill="none" />
  <line x1="335.76" y1="115.21" x2="334.56" y2="115.81" stroke="#000000" stroke-width="0.25" fill="none" />
  <text x="332.86" y="86.45" font-family="Arial, Helvetica, sans-serif" font-size="2.8" fill="#000000" transform="rotate(-90.0,332.86,85.33)">1 NO. CIRCUIT 11</text>
  <text x="361.00" y="129.47" font-family="Arial, Helvetica, sans-serif" font-size="2.2" fill="#000000" transform="rotate(-90.0,361.00,128.59)">L3P4</text>
  <path d="M 360.35,118.55 A 3.75,3.75 0 0,0 360.35,111.87" stroke="#000000" stroke-width="0.25" fill="none" />
  <circle cx="359.31" cy="111.87" r="0.66" stroke="#000000" stroke-width="0.25" fill="none" />
  <circle cx="359.32" cy="118.55" r="0.66" stroke="#000000" stroke-width="0.25" fill="none" />
  <line x1="359.50" y1="119.21" x2="359.50" y2="121.21" stroke="#000000" stroke-width="0.25" fill="none" />
  <line x1="359.50" y1="111.21" x2="359.50" y2="109.21" stroke="#000000" stroke-width="0.25" fill="none" />
  <line x1="335.76" y1="115.21" x2="362.39" y2="115.21" stroke="#000000" stroke-width="0.25" fill="none" />
  <line x1="362.39" y1="115.21" x2="361.19" y2="114.61" stroke="#000000" stroke-width="0.25" fill="none" />
  <line x1="362.39" y1="115.21" x2="361.19" y2="115.81" stroke="#000000" stroke-width="0.25" fill="none" />
  <text x="359.50" y="86.45" font-family="Arial, Helvetica, sans-serif" font-size="2.8" fill="#000000" transform="rotate(-90.0,359.50,85.33)">1 NO. CIRCUIT 12</text>
  <text x="53.50" y="86.45" font-family="Arial, Helvetica, sans-serif" font-size="2.8" fill="#000000" transform="rotate(-90.0,53.50,85.33)">2C 2.5sqmm PVC + 2.5sqmm</text>
  <text x="57.42" y="86.45" font-family="Arial, Helvetica, sans-serif" font-size="2.8" fill="#000000" transform="rotate(-90.0,57.42,85.33)">PVC CPC IN METAL TRUNKING</text>
  <text x="49.00" y="151.61" font-family="Arial, Helvetica, sans-serif" font-size="3.0" fill="#000000">100A DB</text>
  <text x="49.00" y="154.65" font-family="Arial, Helvetica, sans-serif" font-size="1.8" fill="#000000">APPROVED LOAD: 69 kVA</text>
  <text x="49.00" y="164.45" font-family="Arial, Helvetica, sans-serif" font-size="2.8" fill="#000000">LOCATED INSIDE UNIT</text>
  <line x1="360.30" y1="165.21" x2="360.30" y2="167.01" stroke="#000000" stroke-width="0.25" fill="none" />
  <line x1="358.05" y1="167.01" x2="362.55" y2="167.01" stroke="#000000" stroke-width="0.25" fill="none" />
  <line x1="358.80" y1="168.13" x2="361.80" y2="168.13" stroke="#000000" stroke-width="0.25" fill="none" />
  <line x1="359.55" y1="169.26" x2="361.05" y2="169.26" stroke="#000000" stroke-width="0.25" fill="none" />
  <text x="365.55" y="166.74" font-family="Arial, Helvetica, sans-serif" font-size="1.6" fill="#000000">E</text>
  <line x1="210.00" y1="186.01" x2="216.00" y2="186.01" stroke="#000000" stroke-width="0.25" fill="none" />
  <line x1="223.00" y1="186.01" x2="238.50" y2="186.01" stroke="#000000" stroke-width="0.25" fill="none" />
  <line x1="250.50" y1="186.01" x2="265.50" y2="186.01" stroke="#000000" stroke-width="0.25" fill="none" />
  <line x1="273.50" y1="186.01" x2="293.50" y2="186.01" stroke="#000000" stroke-width="0.25" fill="none" />
  <line x1="210.00" y1="186.01" x2="210.00" y2="161.21" stroke="#000000" stroke-width="0.25" fill="none" />
  <line x1="210.00" y1="169.21" x2="207.00" y2="169.21" stroke="#000000" stroke-width="0.25" fill="none" />
  <line x1="277.50" y1="197.79" x2="281.50" y2="197.79" stroke="#000000" stroke-width="0.25" fill="none" />
  <line x1="281.50" y1="197.79" x2="281.50" y2="203.29" stroke="#000000" stroke-width="0.25" fill="none" />
  <line x1="210.00" y1="161.21" x2="210.00" y2="147.21" stroke="#000000" stroke-width="0.25" fill="none" />
  <line x1="210.00" y1="136.21" x2="210.00" y2="131.21" stroke="#000000" stroke-width="0.25" fill="none" />
  <line x1="210.00" y1="133.21" x2="210.00" y2="131.21" stroke="#000000" stroke-width="0.25" fill="none" />
  <line x1="66.50" y1="124.12" x2="66.50" y2="119.21" stroke="#000000" stroke-width="0.25" fill="none" />
  <line x1="66.50" y1="109.21" x2="66.50" y2="86.21" stroke="#000000" stroke-width="0.25" fill="none" />
  <line x1="93.14" y1="131.21" x2="93.14" y2="119.21" stroke="#000000" stroke-width="0.25" fill="none" />
  <line x1="93.14" y1="109.21" x2="93.14" y2="86.21" stroke="#000000" stroke-width="0.25" fill="none" />
  <line x1="119.77" y1="124.12" x2="119.77" y2="119.21" stroke="#000000" stroke-width="0.25" fill="none" />
  <line x1="119.77" y1="109.21" x2="119.77" y2="86.21" stroke="#000000" stroke-width="0.25" fill="none" />
  <line x1="146.41" y1="124.12" x2="146.41" y2="119.21" stroke="#000000" stroke-width="0.25" fill="none" />
  <line x1="146.41" y1="109.21" x2="146.41" y2="86.21" stroke="#000000" stroke-width="0.25" fill="none" />
  <line x1="173.05" y1="131.21" x2="173.05" y2="119.21" stroke="#000000" stroke-width="0.25" fill="none" />
  <line x1="173.05" y1="109.21" x2="173.05" y2="86.21" stroke="#000000" stroke-width="0.25" fill="none" />
  <line x1="199.68" y1="124.12" x2="199.68" y2="119.21" stroke="#000000" stroke-width="0.25" fill="none" />
  <line x1="199.68" y1="109.21" x2="199.68" y2="86.21" stroke="#000000" stroke-width="0.25" fill="none" />
  <line x1="226.32" y1="124.12" x2="226.32" y2="119.21" stroke="#000000" stroke-width="0.25" fill="none" />
  <line x1="226.32" y1="109.21" x2="226.32" y2="86.21" stroke="#000000" stroke-width="0.25" fill="none" />
  <line x1="252.95" y1="131.21" x2="252.95" y2="119.21" stroke="#000000" stroke-width="0.25" fill="none" />
  <line x1="252.95" y1="109.21" x2="252.95" y2="86.21" stroke="#000000" stroke-width="0.25" fill="none" />
  <line x1="279.59" y1="124.12" x2="279.59" y2="119.21" stroke="#000000" stroke-width="0.25" fill="none" />
  <line x1="279.59" y1="109.21" x2="279.59" y2="86.21" stroke="#000000" stroke-width="0.25" fill="none" />
  <line x1="306.23" y1="124.12" x2="306.23" y2="119.21" stroke="#000000" stroke-width="0.25" fill="none" />
  <line x1="306.23" y1="109.21" x2="306.23" y2="86.21" stroke="#000000" stroke-width="0.25" fill="none" />
  <line x1="332.86" y1="131.21" x2="332.86" y2="119.21" stroke="#000000" stroke-width="0.25" fill="none" />
  <line x1="332.86" y1="109.21" x2="332.86" y2="86.21" stroke="#000000" stroke-width="0.25" fill="none" />
  <line x1="359.50" y1="124.12" x2="359.50" y2="119.21" stroke="#000000" stroke-width="0.25" fill="none" />
  <line x1="359.50" y1="109.21" x2="359.50" y2="86.21" stroke="#000000" stroke-width="0.25" fill="none" />
  <line x1="56.50" y1="91.21" x2="359.50" y2="91.21" stroke="#000000" stroke-width="0.25" fill="none" />
  <line x1="56.50" y1="91.21" x2="56.50" y2="86.21" stroke="#000000" stroke-width="0.25" fill="none" />
  <line x1="360.30" y1="157.21" x2="360.30" y2="165.21" stroke="#000000" stroke-width="0.25" fill="none" />
  <line x1="208.75" y1="170.46" x2="211.25" y2="167.96" stroke="#000000" stroke-width="0.50" fill="none" />
  <line x1="65.25" y1="92.46" x2="67.75" y2="89.96" stroke="#000000" stroke-width="0.50" fill="none" />
  <line x1="91.89" y1="92.46" x2="94.39" y2="89.96" stroke="#000000" stroke-width="0.50" fill="none" />
  <line x1="118.52" y1="92.46" x2="121.02" y2="89.96" stroke="#000000" stroke-width="0.50" fill="none" />
  <line x1="145.16" y1="92.46" x2="147.66" y2="89.96" stroke="#000000" stroke-width="0.50" fill="none" />
  <line x1="171.80" y1="92.46" x2="174.30" y2="89.96" stroke="#000000" stroke-width="0.50" fill="none" />
  <line x1="198.43" y1="92.46" x2="200.93" y2="89.96" stroke="#000000" stroke-width="0.50" fill="none" />
  <line x1="225.07" y1="92.46" x2="227.57" y2="89.96" stroke="#000000" stroke-width="0.50" fill="none" />
  <line x1="251.70" y1="92.46" x2="254.20" y2="89.96" stroke="#000000" stroke-width="0.50" fill="none" />
  <line x1="278.34" y1="92.46" x2="280.84" y2="89.96" stroke="#000000" stroke-width="0.50" fill="none" />
  <line x1="304.98" y1="92.46" x2="307.48" y2="89.96" stroke="#000000" stroke-width="0.50" fill="none" />
  <line x1="331.61" y1="92.46" x2="334.11" y2="89.96" stroke="#000000" stroke-width="0.50" fill="none" />
  <line x1="358.25" y1="92.46" x2="360.75" y2="89.96" stroke="#000000" stroke-width="0.50" fill="none" />
  <line x1="93.14" y1="131.21" x2="93.14" y2="104.57" stroke="#000000" stroke-width="0.25" fill="none" />
  <line x1="93.14" y1="131.21" x2="66.50" y2="124.12" stroke="#000000" stroke-width="0.25" fill="none" />
  <line x1="66.50" y1="124.12" x2="66.50" y2="104.57" stroke="#000000" stroke-width="0.25" fill="none" />
  <line x1="93.14" y1="131.21" x2="119.77" y2="124.12" stroke="#000000" stroke-width="0.25" fill="none" />
  <line x1="119.77" y1="124.12" x2="119.77" y2="104.57" stroke="#000000" stroke-width="0.25" fill="none" />
  <line x1="173.05" y1="131.21" x2="173.05" y2="104.57" stroke="#000000" stroke-width="0.25" fill="none" />
  <line x1="173.05" y1="131.21" x2="146.41" y2="124.12" stroke="#000000" stroke-width="0.25" fill="none" />
  <line x1="146.41" y1="124.12" x2="146.41" y2="104.57" stroke="#000000" stroke-width="0.25" fill="none" />
  <line x1="173.05" y1="131.21" x2="199.68" y2="124.12" stroke="#000000" stroke-width="0.25" fill="none" />
  <line x1="199.68" y1="124.12" x2="199.68" y2="104.57" stroke="#000000" stroke-width="0.25" fill="none" />
  <line x1="252.95" y1="131.21" x2="252.95" y2="104.57" stroke="#000000" stroke-width="0.25" fill="none" />
  <line x1="252.95" y1="131.21" x2="226.32" y2="124.12" stroke="#000000" stroke-width="0.25" fill="none" />
  <line x1="226.32" y1="124.12" x2="226.32" y2="104.57" stroke="#000000" stroke-width="0.25" fill="none" />
  <line x1="252.95" y1="131.21" x2="279.59" y2="124.12" stroke="#000000" stroke-width="0.25" fill="none" />
  <line x1="279.59" y1="124.12" x2="279.59" y2="104.57" stroke="#000000" stroke-width="0.25" fill="none" />
  <line x1="332.86" y1="131.21" x2="332.86" y2="104.57" stroke="#000000" stroke-width="0.25" fill="none" />
  <line x1="332.86" y1="131.21" x2="306.23" y2="124.12" stroke="#000000" stroke-width="0.25" fill="none" />
  <line x1="306.23" y1="124.12" x2="306.23" y2="104.57" stroke="#000000" stroke-width="0.25" fill="none" />
  <line x1="332.86" y1="131.21" x2="359.50" y2="124.12" stroke="#000000" stroke-width="0.25" fill="none" />
  <line x1="359.50" y1="124.12" x2="359.50" y2="104.57" stroke="#000000" stroke-width="0.25" fill="none" />
  <line x1="212.00" y1="200.79" x2="220.00" y2="200.79" stroke="#808080" stroke-width="0.25" fill="none" />
  <line x1="222.00" y1="200.79" x2="223.50" y2="200.79" stroke="#808080" stroke-width="0.25" fill="none" />
  <line x1="225.50" y1="200.79" x2="233.50" y2="200.79" stroke="#808080" stroke-width="0.25" fill="none" />
  <line x1="235.50" y1="200.79" x2="237.00" y2="200.79" stroke="#808080" stroke-width="0.25" fill="none" />
  <line x1="239.00" y1="200.79" x2="247.00" y2="200.79" stroke="#808080" stroke-width="0.25" fill="none" />
  <line x1="249.00" y1="200.79" x2="250.50" y2="200.79" stroke="#808080" stroke-width="0.25" fill="none" />
  <line x1="252.50" y1="200.79" x2="260.50" y2="200.79" stroke="#808080" stroke-width="0.25" fill="none" />
  <line x1="262.50" y1="200.79" x2="264.00" y2="200.79" stroke="#808080" stroke-width="0.25" fill="none" />
  <line x1="266.00" y1="200.79" x2="274.00" y2="200.79" stroke="#808080" stroke-width="0.25" fill="none" />
  <line x1="276.00" y1="200.79" x2="277.50" y2="200.79" stroke="#808080" stroke-width="0.25" fill="none" />
  <line x1="212.00" y1="177.21" x2="220.00" y2="177.21" stroke="#808080" stroke-width="0.25" fill="none" />
  <line x1="222.00" y1="177.21" x2="223.50" y2="177.21" stroke="#808080" stroke-width="0.25" fill="none" />
  <line x1="225.50" y1="177.21" x2="233.50" y2="177.21" stroke="#808080" stroke-width="0.25" fill="none" />
  <line x1="235.50" y1="177.21" x2="237.00" y2="177.21" stroke="#808080" stroke-width="0.25" fill="none" />
  <line x1="239.00" y1="177.21" x2="247.00" y2="177.21" stroke="#808080" stroke-width="0.25" fill="none" />
  <line x1="249.00" y1="177.21" x2="250.50" y2="177.21" stroke="#808080" stroke-width="0.25" fill="none" />
  <line x1="252.50" y1="177.21" x2="260.50" y2="177.21" stroke="#808080" stroke-width="0.25" fill="none" />
  <line x1="262.50" y1="177.21" x2="264.00" y2="177.21" stroke="#808080" stroke-width="0.25" fill="none" />
  <line x1="266.00" y1="177.21" x2="274.00" y2="177.21" stroke="#808080" stroke-width="0.25" fill="none" />
  <line x1="276.00" y1="177.21" x2="277.50" y2="177.21" stroke="#808080" stroke-width="0.25" fill="none" />
  <line x1="212.00" y1="200.79" x2="212.00" y2="192.79" stroke="#808080" stroke-width="0.25" fill="none" />
  <line x1="212.00" y1="190.79" x2="212.00" y2="189.29" stroke="#808080" stroke-width="0.25" fill="none" />
  <line x1="212.00" y1="187.29" x2="212.00" y2="179.29" stroke="#808080" stroke-width="0.25" fill="none" />
  <line x1="212.00" y1="177.29" x2="212.00" y2="177.21" stroke="#808080" stroke-width="0.25" fill="none" />
  <line x1="277.50" y1="200.79" x2="277.50" y2="192.79" stroke="#808080" stroke-width="0.25" fill="none" />
  <line x1="277.50" y1="190.79" x2="277.50" y2="189.29" stroke="#808080" stroke-width="0.25" fill="none" />
  <line x1="277.50" y1="187.29" x2="277.50" y2="179.29" stroke="#808080" stroke-width="0.25" fill="none" />
  <line x1="277.50" y1="177.29" x2="277.50" y2="177.21" stroke="#808080" stroke-width="0.25" fill="none" />
  <line x1="43.00" y1="157.21" x2="51.00" y2="157.21" stroke="#808080" stroke-width="0.25" fill="none" />
  <line x1="53.00" y1="157.21" x2="54.50" y2="157.21" stroke="#808080" stroke-width="0.25" fill="none" />
  <line x1="56.50" y1="157.21" x2="64.50" y2="157.21" stroke="#808080" stroke-width="0.25" fill="none" />
  <line x1="66.50" y1="157.21" x2="68.00" y2="157.21" stroke="#808080" stroke-width="0.25" fill="none" />
  <line x1="70.00" y1="157.21" x2="78.00" y2="157.21" stroke="#808080" stroke-width="0.25" fill="none" />
  <line x1="80.00" y1="157.21" x2="81.50" y2="157.21" stroke="#808080" stroke-width="0.25" fill="none" />
  <line x1="83.50" y1="157.21" x2="91.50" y2="157.21" stroke="#808080" stroke-width="0.25" fill="none" />
  <line x1="93.50" y1="157.21" x2="95.00" y2="157.21" stroke="#808080" stroke-width="0.25" fill="none" />
  <line x1="97.00" y1="157.21" x2="105.00" y2="157.21" stroke="#808080" stroke-width="0.25" fill="none" />
  <line x1="107.00" y1="157.21" x2="108.50" y2="157.21" stroke="#808080" stroke-width="0.25" fill="none" />
  <line x1="110.50" y1="157.21" x2="118.50" y2="157.21" stroke="#808080" stroke-width="0.25" fill="none" />
  <line x1="120.50" y1="157.21" x2="122.00" y2="157.21" stroke="#808080" stroke-width="0.25" fill="none" />
  <line x1="124.00" y1="157.21" x2="132.00" y2="157.21" stroke="#808080" stroke-width="0.25" fill="none" />
  <line x1="134.00" y1="157.21" x2="135.50" y2="157.21" stroke="#808080" stroke-width="0.25" fill="none" />
  <line x1="137.50" y1="157.21" x2="145.50" y2="157.21" stroke="#808080" stroke-width="0.25" fill="none" />
  <line x1="147.50" y1="157.21" x2="149.00" y2="157.21" stroke="#808080" stroke-width="0.25" fill="none" />
  <line x1="151.00" y1="157.21" x2="159.00" y2="157.21" stroke="#808080" stroke-width="0.25" fill="none" />
  <line x1="161.00" y1="157.21" x2="162.50" y2="157.21" stroke="#808080" stroke-width="0.25" fill="none" />
  <line x1="164.50" y1="157.21" x2="172.50" y2="157.21" stroke="#808080" stroke-width="0.25" fill="none" />
  <line x1="174.50" y1="157.21" x2="176.00" y2="157.21" stroke="#808080" stroke-width="0.25" fill="none" />
  <line x1="178.00" y1="157.21" x2="186.00" y2="157.21" stroke="#808080" stroke-width="0.25" fill="none" />
  <line x1="188.00" y1="157.21" x2="189.50" y2="157.21" stroke="#808080" stroke-width="0.25" fill="none" />
  <line x1="191.50" y1="157.21" x2="199.50" y2="157.21" stroke="#808080" stroke-width="0.25" fill="none" />
  <line x1="201.50" y1="157.21" x2="203.00" y2="157.21" stroke="#808080" stroke-width="0.25" fill="none" />
  <line x1="205.00" y1="157.21" x2="213.00" y2="157.21" stroke="#808080" stroke-width="0.25" fill="none" />
  <line x1="215.00" y1="157.21" x2="216.50" y2="157.21" stroke="#808080" stroke-width="0.25" fill="none" />
  <line x1="218.50" y1="157.21" x2="226.50" y2="157.21" stroke="#808080" stroke-width="0.25" fill="none" />
  <line x1="228.50" y1="157.21" x2="230.00" y2="157.21" stroke="#808080" stroke-width="0.25" fill="none" />
  <line x1="232.00" y1="157.21" x2="240.00" y2="157.21" stroke="#808080" stroke-width="0.25" fill="none" />
  <line x1="242.00" y1="157.21" x2="243.50" y2="157.21" stroke="#808080" stroke-width="0.25" fill="none" />
  <line x1="245.50" y1="157.21" x2="253.50" y2="157.21" stroke="#808080" stroke-width="0.25" fill="none" />
  <line x1="255.50" y1="157.21" x2="257.00" y2="157.21" stroke="#808080" stroke-width="0.25" fill="none" />
  <line x1="259.00" y1="157.21" x2="267.00" y2="157.21" stroke="#808080" stroke-width="0.25" fill="none" />
  <line x1="269.00" y1="157.21" x2="270.50" y2="157.21" stroke="#808080" stroke-width="0.25" fill="none" />
  <line x1="272.50" y1="157.21" x2="280.50" y2="157.21" stroke="#808080" stroke-width="0.25" fill="none" />
  <line x1="282.50" y1="157.21" x2="284.00" y2="157.21" stroke="#808080" stroke-width="0.25" fill="none" />
  <line x1="286.00" y1="157.21" x2="294.00" y2="157.21" stroke="#808080" stroke-width="0.25" fill="none" />
  <line x1="296.00" y1="157.21" x2="297.50" y2="157.21" stroke="#808080" stroke-width="0.25" fill="none" />
  <line x1="299.50" y1="157.21" x2="307.50" y2="157.21" stroke="#808080" stroke-width="0.25" fill="none" />
  <line x1="309.50" y1="157.21" x2="311.00" y2="157.21" stroke="#808080" stroke-width="0.25" fill="none" />
  <line x1="313.00" y1="157.21" x2="321.00" y2="157.21" stroke="#808080" stroke-width="0.25" fill="none" />
  <line x1="323.00" y1="157.21" x2="324.50" y2="157.21" stroke="#808080" stroke-width="0.25" fill="none" />
  <line x1="326.50" y1="157.21" x2="334.50" y2="157.21" stroke="#808080" stroke-width="0.25" fill="none" />
  <line x1="336.50" y1="157.21" x2="338.00" y2="157.21" stroke="#808080" stroke-width="0.25" fill="none" />
  <line x1="340.00" y1="157.21" x2="348.00" y2="157.21" stroke="#808080" stroke-width="0.25" fill="none" />
  <line x1="350.00" y1="157.21" x2="351.50" y2="157.21" stroke="#808080" stroke-width="0.25" fill="none" />
  <line x1="353.50" y1="157.21" x2="361.50" y2="157.21" stroke="#808080" stroke-width="0.25" fill="none" />
  <line x1="363.50" y1="157.21" x2="365.00" y2="157.21" stroke="#808080" stroke-width="0.25" fill="none" />
  <line x1="367.00" y1="157.21" x2="375.00" y2="157.21" stroke="#808080" stroke-width="0.25" fill="none" />
  <line x1="43.00" y1="101.21" x2="51.00" y2="101.21" stroke="#808080" stroke-width="0.25" fill="none" />
  <line x1="53.00" y1="101.21" x2="54.50" y2="101.21" stroke="#808080" stroke-width="0.25" fill="none" />
  <line x1="56.50" y1="101.21" x2="64.50" y2="101.21" stroke="#808080" stroke-width="0.25" fill="none" />
  <line x1="66.50" y1="101.21" x2="68.00" y2="101.21" stroke="#808080" stroke-width="0.25" fill="none" />
  <line x1="70.00" y1="101.21" x2="78.00" y2="101.21" stroke="#808080" stroke-width="0.25" fill="none" />
  <line x1="80.00" y1="101.21" x2="81.50" y2="101.21" stroke="#808080" stroke-width="0.25" fill="none" />
  <line x1="83.50" y1="101.21" x2="91.50" y2="101.21" stroke="#808080" stroke-width="0.25" fill="none" />
  <line x1="93.50" y1="101.21" x2="95.00" y2="101.21" stroke="#808080" stroke-width="0.25" fill="none" />
  <line x1="97.00" y1="101.21" x2="105.00" y2="101.21" stroke="#808080" stroke-width="0.25" fill="none" />
  <line x1="107.00" y1="101.21" x2="108.50" y2="101.21" stroke="#808080" stroke-width="0.25" fill="none" />
  <line x1="110.50" y1="101.21" x2="118.50" y2="101.21" stroke="#808080" stroke-width="0.25" fill="none" />
  <line x1="120.50" y1="101.21" x2="122.00" y2="101.21" stroke="#808080" stroke-width="0.25" fill="none" />
  <line x1="124.00" y1="101.21" x2="132.00" y2="101.21" stroke="#808080" stroke-width="0.25" fill="none" />
  <line x1="134.00" y1="101.21" x2="135.50" y2="101.21" stroke="#808080" stroke-width="0.25" fill="none" />
  <line x1="137.50" y1="101.21" x2="145.50" y2="101.21" stroke="#808080" stroke-width="0.25" fill="none" />
  <line x1="147.50" y1="101.21" x2="149.00" y2="101.21" stroke="#808080" stroke-width="0.25" fill="none" />
  <line x1="151.00" y1="101.21" x2="159.00" y2="101.21" stroke="#808080" stroke-width="0.25" fill="none" />
  <line x1="161.00" y1="101.21" x2="162.50" y2="101.21" stroke="#808080" stroke-width="0.25" fill="none" />
  <line x1="164.50" y1="101.21" x2="172.50" y2="101.21" stroke="#808080" stroke-width="0.25" fill="none" />
  <line x1="174.50" y1="101.21" x2="176.00" y2="101.21" stroke="#808080" stroke-width="0.25" fill="none" />
  <line x1="178.00" y1="101.21" x2="186.00" y2="101.21" stroke="#808080" stroke-width="0.25" fill="none" />
  <line x1="188.00" y1="101.21" x2="189.50" y2="101.21" stroke="#808080" stroke-width="0.25" fill="none" />
  <line x1="191.50" y1="101.21" x2="199.50" y2="101.21" stroke="#808080" stroke-width="0.25" fill="none" />
  <line x1="201.50" y1="101.21" x2="203.00" y2="101.21" stroke="#808080" stroke-width="0.25" fill="none" />
  <line x1="205.00" y1="101.21" x2="213.00" y2="101.21" stroke="#808080" stroke-width="0.25" fill="none" />
  <line x1="215.00" y1="101.21" x2="216.50" y2="101.21" stroke="#808080" stroke-width="0.25" fill="none" />
  <line x1="218.50" y1="101.21" x2="226.50" y2="101.21" stroke="#808080" stroke-width="0.25" fill="none" />
  <line x1="228.50" y1="101.21" x2="230.00" y2="101.21" stroke="#808080" stroke-width="0.25" fill="none" />
  <line x1="232.00" y1="101.21" x2="240.00" y2="101.21" stroke="#808080" stroke-width="0.25" fill="none" />
  <line x1="242.00" y1="101.21" x2="243.50" y2="101.21" stroke="#808080" stroke-width="0.25" fill="none" />
  <line x1="245.50" y1="101.21" x2="253.50" y2="101.21" stroke="#808080" stroke-width="0.25" fill="none" />
  <line x1="255.50" y1="101.21" x2="257.00" y2="101.21" stroke="#808080" stroke-width="0.25" fill="none" />
  <line x1="259.00" y1="101.21" x2="267.00" y2="101.21" stroke="#808080" stroke-width="0.25" fill="none" />
  <line x1="269.00" y1="101.21" x2="270.50" y2="101.21" stroke="#808080" stroke-width="0.25" fill="none" />
  <line x1="272.50" y1="101.21" x2="280.50" y2="101.21" stroke="#808080" stroke-width="0.25" fill="none" />
  <line x1="282.50" y1="101.21" x2="284.00" y2="101.21" stroke="#808080" stroke-width="0.25" fill="none" />
  <line x1="286.00" y1="101.21" x2="294.00" y2="101.21" stroke="#808080" stroke-width="0.25" fill="none" />
  <line x1="296.00" y1="101.21" x2="297.50" y2="101.21" stroke="#808080" stroke-width="0.25" fill="none" />
  <line x1="299.50" y1="101.21" x2="307.50" y2="101.21" stroke="#808080" stroke-width="0.25" fill="none" />
  <line x1="309.50" y1="101.21" x2="311.00" y2="101.21" stroke="#808080" stroke-width="0.25" fill="none" />
  <line x1="313.00" y1="101.21" x2="321.00" y2="101.21" stroke="#808080" stroke-width="0.25" fill="none" />
  <line x1="323.00" y1="101.21" x2="324.50" y2="101.21" stroke="#808080" stroke-width="0.25" fill="none" />
  <line x1="326.50" y1="101.21" x2="334.50" y2="101.21" stroke="#808080" stroke-width="0.25" fill="none" />
  <line x1="336.50" y1="101.21" x2="338.00" y2="101.21" stroke="#808080" stroke-width="0.25" fill="none" />
  <line x1="340.00" y1="101.21" x2="348.00" y2="101.21" stroke="#808080" stroke-width="0.25" fill="none" />
  <line x1="350.00" y1="101.21" x2="351.50" y2="101.21" stroke="#808080" stroke-width="0.25" fill="none" />
  <line x1="353.50" y1="101.21" x2="361.50" y2="101.21" stroke="#808080" stroke-width="0.25" fill="none" />
  <line x1="363.50" y1="101.21" x2="365.00" y2="101.21" stroke="#808080" stroke-width="0.25" fill="none" />
  <line x1="367.00" y1="101.21" x2="375.00" y2="101.21" stroke="#808080" stroke-width="0.25" fill="none" />
  <line x1="43.00" y1="157.21" x2="43.00" y2="149.21" stroke="#808080" stroke-width="0.25" fill="none" />
  <line x1="43.00" y1="147.21" x2="43.00" y2="145.71" stroke="#808080" stroke-width="0.25" fill="none" />
  <line x1="43.00" y1="143.71" x2="43.00" y2="135.71" stroke="#808080" stroke-width="0.25" fill="none" />
  <line x1="43.00" y1="133.71" x2="43.00" y2="132.21" stroke="#808080" stroke-width="0.25" fill="none" />
  <line x1="43.00" y1="130.21" x2="43.00" y2="122.21" stroke="#808080" stroke-width="0.25" fill="none" />
  <line x1="43.00" y1="120.21" x2="43.00" y2="118.71" stroke="#808080" stroke-width="0.25" fill="none" />
  <line x1="43.00" y1="116.71" x2="43.00" y2="108.71" stroke="#808080" stroke-width="0.25" fill="none" />
  <line x1="43.00" y1="106.71" x2="43.00" y2="105.21" stroke="#808080" stroke-width="0.25" fill="none" />
  <line x1="43.00" y1="103.21" x2="43.00" y2="101.21" stroke="#808080" stroke-width="0.25" fill="none" />
  <line x1="377.00" y1="157.21" x2="377.00" y2="149.21" stroke="#808080" stroke-width="0.25" fill="none" />
  <line x1="377.00" y1="147.21" x2="377.00" y2="145.71" stroke="#808080" stroke-width="0.25" fill="none" />
  <line x1="377.00" y1="143.71" x2="377.00" y2="135.71" stroke="#808080" stroke-width="0.25" fill="none" />
  <line x1="377.00" y1="133.71" x2="377.00" y2="132.21" stroke="#808080" stroke-width="0.25" fill="none" />
  <line x1="377.00" y1="130.21" x2="377.00" y2="122.21" stroke="#808080" stroke-width="0.25" fill="none" />
  <line x1="377.00" y1="120.21" x2="377.00" y2="118.71" stroke="#808080" stroke-width="0.25" fill="none" />
  <line x1="377.00" y1="116.71" x2="377.00" y2="108.71" stroke="#808080" stroke-width="0.25" fill="none" />
  <line x1="377.00" y1="106.71" x2="377.00" y2="105.21" stroke="#808080" stroke-width="0.25" fill="none" />
  <line x1="377.00" y1="103.21" x2="377.00" y2="101.21" stroke="#808080" stroke-width="0.25" fill="none" />
  <circle cx="277.50" cy="197.79" r="0.50" fill="rgb(0,0,0)" stroke="none" />
  <circle cx="93.14" cy="131.21" r="0.50" fill="rgb(0,0,0)" stroke="none" />
  <circle cx="93.14" cy="131.21" r="0.50" fill="rgb(0,0,0)" stroke="none" />
  <circle cx="93.14" cy="131.21" r="0.50" fill="rgb(0,0,0)" stroke="none" />
  <circle cx="173.05" cy="131.21" r="0.50" fill="rgb(0,0,0)" stroke="none" />
  <circle cx="173.05" cy="131.21" r="0.50" fill="rgb(0,0,0)" stroke="none" />
  <circle cx="173.05" cy="131.21" r="0.50" fill="rgb(0,0,0)" stroke="none" />
  <circle cx="252.95" cy="131.21" r="0.50" fill="rgb(0,0,0)" stroke="none" />
  <circle cx="252.95" cy="131.21" r="0.50" fill="rgb(0,0,0)" stroke="none" />
  <circle cx="252.95" cy="131.21" r="0.50" fill="rgb(0,0,0)" stroke="none" />
  <circle cx="332.86" cy="131.21" r="0.50" fill="rgb(0,0,0)" stroke="none" />
  <circle cx="332.86" cy="131.21" r="0.50" fill="rgb(0,0,0)" stroke="none" />
  <circle cx="332.86" cy="131.21" r="0.50" fill="rgb(0,0,0)" stroke="none" />
  <circle cx="360.30" cy="157.21" r="0.50" fill="rgb(0,0,0)" stroke="none" />
  <text x="13.00" y="264.40" font-family="Arial, Helvetica, sans-serif" font-size="3.0" fill="#000000">Electrical Installation</text>
  <text x="153.00" y="264.40" font-family="Arial, Helvetica, sans-serif" font-size="3.0" fill="#000000">LicenseKaki</text>
  <text x="225.00" y="263.80" font-family="Arial, Helvetica, sans-serif" font-size="3.5" fill="#000000"><tspan x="225.00">SINGLE LINE DIAGRAM</tspan><tspan x="225.00" dy="4.9">(SLD)</tspan></text>
  <text x="389.00" y="266.00" font-family="Arial, Helvetica, sans-serif" font-size="2.5" fill="#000000">DATE</text>
  <text x="365.00" y="278.00" font-family="Arial, Helvetica, sans-serif" font-size="2.5" fill="#000000"></text>
  <text x="394.00" y="278.80" font-family="Arial, Helvetica, sans-serif" font-size="3.5" fill="#000000">0</text>
  <text x="365.00" y="286.28" font-family="Arial, Helvetica, sans-serif" font-size="1.6" fill="#000000">SCALE : NTS</text>
  <text x="389.00" y="286.28" font-family="Arial, Helvetica, sans-serif" font-size="1.6" fill="#000000">SHEET : 1 OF 1</text>
</svg>