<svg xmlns="http://www.w3.org/2000/svg" viewBox="0 0 420.0 297.0" width="420.0mm" height="297.0mm">
  <rect width="420.0" height="297.0" fill="white" />
  <polygon points="10.00,287.00 410.00,287.00 410.00,10.00 10.00,10.00" stroke="#000000" stroke-width="0.25" fill="none" />
  <polygon points="10.00,287.00 410.00,287.00 410.00,255.00 10.00,255.00" stroke="#000000" stroke-width="0.25" fill="none" />
  <line x1="90.00" y1="255.00" x2="90.00" y2="287.00" stroke="#000000" stroke-width="0.25" fill="none" />
  <line x1="150.00" y1="255.00" x2="150.00" y2="287.00" stroke="#000000" stroke-width="0.25" fill="none" />
  <line x1="222.00" y1="255.00" x2="222.00" y2="287.00" stroke="#000000" stroke-width="0.25" fill="none" />
  <line x1="290.00" y1="255.00" x2="290.00" y2="287.00" stroke="#000000" stroke-width="0.25" fill="none" />
  <line x1="362.00" y1="255.00" x2="362.00" y2="287.00" stroke="#000000" stroke-width="0.25" fill="none" />
  <line x1="362.00" y1="270.00" x2="410.00" y2="270.00" stroke="#000000" stroke-width="0.25" fill="none" />
  <line x1="386.00" y1="255.00" x2="386.00" y2="287.00" stroke="#000000" stroke-width="0.25" fill="none" />
  <text x="12.00" y="258.94" font-family="Arial, Helvetica, sans-serif" font-size="1.8" fill="#000000">CLIENT / ADDRESS :</text>
  <text x="92.00" y="258.94" font-family="Arial, Helvetica, sans-serif" font-size="1.8" fill="#000000">MAIN CONTRACTOR :</text>
  <text x="152.00" y="258.94" font-family="Arial, Helvetica, sans-serif" font-size="1.8" fill="#000000">ELECTRICAL CONTRACTOR :</text>
  <text x="224.00" y="258.94" font-family="Arial, Helvetica, sans-serif" font-size="1.8" fill="#000000">DRAWING TITLE :</text>
  <text x="292.00" y="258.94" font-family="Arial, Helvetica, sans-serif" font-size="1.8" fill="#000000">LEW :</text>
  <text x="364.00" y="258.94" font-family="Arial, Helvetica, sans-serif" font-size="1.8" fill="#000000">CHECKED :</text>
  <text x="388.00" y="258.94" font-family="Arial, Helvetica, sans-serif" font-size="1.8" fill="#000000">DATE :</text>
  <text x="364.00" y="273.94" font-family="Arial, Helvetica, sans-serif" font-size="1.8" fill="#000000">DRAWING NO. :</text>
  <text x="388.00" y="273.94" font-family="Arial, Helvetica, sans-serif" font-size="1.8" fill="#000000">REV :</text>
  <circle cx="216.70" cy="183.01" r="0.70" stroke="#000000" stroke-width="0.25" fill="none" />
  <circle cx="222.30" cy="183.01" r="0.70" stroke="#000000" stroke-width="0.25" fill="none" />
  <polyline points="217.36,182.77 222.21,181.04" stroke="#000000" stroke-width="0.25" fill="none" />
  <text x="215.66" y="187.84" font-family="Arial, Helvetica, sans-serif" font-size="1.6" fill="#000000"><tspan x="215.66">63A 4P</tspan><tspan x="215.66" dy="2.2">ISOLATOR</tspan></text>
  <polygon points="237.30,179.41 251.70,179.41 251.70,186.61 237.30,186.61" stroke="#000000" stroke-width="0.25" fill="none" />
  <text x="241.62" y="184.58" font-family="Arial, Helvetica, sans-serif" font-size="2.7" fill="#000000">KWH</text>
  <text x="234.50" y="177.35" font-family="Arial, Helvetica, sans-serif" font-size="2.8" fill="#000000">KWH METER BY SP</text>
  <path d="M 272.84,182.16 A 3.75,3.75 0 0,0 266.16,182.16" stroke="#000000" stroke-width="0.25" fill="none" />
  <circle cx="266.16" cy="183.20" r="0.66" stroke="#000000" stroke-width="0.25" fill="none" />
  <circle cx="272.84" cy="183.19" r="0.66" stroke="#000000" stroke-width="0.25" fill="none" />
  <line x1="265.50" y1="183.01" x2="263.50" y2="183.01" stroke="#000000" stroke-width="0.25" fill="none" />
  <line x1="273.50" y1="183.01" x2="275.50" y2="183.01" stroke="#000000" stroke-width="0.25" fill="none" />
  <text x="264.22" y="187.59" font-family="Arial, Helvetica, sans-serif" font-size="1.6" fill="#000000"><tspan x="264.22">63A TPN MCB</tspan><tspan x="264.22" dy="2.2">TYPE B 25kA</tspan></text>
  <text x="296.50" y="182.25" font-family="Arial, Helvetica, sans-serif" font-size="2.8" fill="#000000">INCOMING FROM HDB ELECTRICAL RISER</text>
  <text x="287.50" y="193.85" font-family="Arial, Helvetica, sans-serif" font-size="2.8" fill="#000000"><tspan x="287.50">4 x 1C 16sqmm PVC/PVC +</tspan><tspan x="287.50" dy="3.9">16sqmm PVC CPC IN METAL TRUNKING</tspan></text>
  <text x="150.24" y="166.45" font-family="Arial, Helvetica, sans-serif" font-size="2.8" fill="#000000"><tspan x="150.24">4 x 1C 16sqmm PVC/PVC +</tspan><tspan x="150.24" dy="3.9">16sqmm PVC CPC IN METAL TRUNKING</tspan></text>
  <text x="213.00" y="196.83" font-family="Arial, Helvetica, sans-serif" font-size="2.8" fill="#000000">METER BOARD</text>
  <text x="226.75" y="203.63" font-family="Arial, Helvetica, sans-serif" font-size="2.8" fill="#000000">LOCATED AT METER COMPARTMENT</text>
  <line x1="281.50" y1="200.89" x2="281.50" y2="202.69" stroke="#000000" stroke-width="0.25" fill="none" />
  <line x1="279.25" y1="202.69" x2="283.75" y2="202.69" stroke="#000000" stroke-width="0.25" fill="none" />
  <line x1="280.00" y1="203.81" x2="283.00" y2="203.81" stroke="#000000" stroke-width="0.25" fill="none" />
  <line x1="280.75" y1="204.94" x2="282.25" y2="204.94" stroke="#000000" stroke-width="0.25" fill="none" />
  <text x="287.25" y="202.42" font-family="Arial, Helvetica, sans-serif" font-size="1.6" fill="#000000">E</text>
  <path d="M 210.96,142.87 A 4.22,4.22 0 0,0 210.96,135.35" stroke="#000000" stroke-width="0.25" fill="none" />
  <circle cx="209.78" cy="135.35" r="0.74" stroke="#000000" stroke-width="0.25" fill="none" />
  <circle cx="209.80" cy="142.87" r="0.74" stroke="#000000" stroke-width="0.25" fill="none" />
  <line x1="210.00" y1="143.61" x2="210.00" y2="145.61" stroke="#000000" stroke-width="0.25" fill="none" />
  <line x1="210.00" y1="134.61" x2="210.00" y2="132.61" stroke="#000000" stroke-width="0.25" fill="none" />
  <text x="215.75" y="138.39" font-family="Arial, Helvetica, sans-serif" font-size="1.6" fill="#000000">63A TPN MCCB (25kA)</text>
  <line x1="82.00" y1="132.61" x2="338.00" y2="132.61" stroke="#000000" stroke-width="0.50" fill="none" />
  <text x="85.00" y="137.85" font-family="Arial, Helvetica, sans-serif" font-size="2.8" fill="#000000">200A BUSBAR</text>
  <text x="97.00" y="130.87" font-family="Arial, Helvetica, sans-serif" font-size="2.2" fill="#000000" transform="rotate(-90.0,97.00,129.11)">L1S1</text>
  <path d="M 96.35,119.95 A 3.75,3.75 0 0,0 96.35,113.27" stroke="#000000" stroke-width="0.25" fill="none" />
  <circle cx="95.31" cy="113.27" r="0.66" stroke="#000000" stroke-width="0.25" fill="none" />
  <circle cx="95.32" cy="119.95" r="0.66" stroke="#000000" stroke-width="0.25" fill="none" />
  <line x1="95.50" y1="120.61" x2="95.50" y2="122.61" stroke="#000000" stroke-width="0.25" fill="none" />
  <line x1="95.50" y1="112.61" x2="95.50" y2="110.61" stroke="#000000" stroke-width="0.25" fill="none" />
  <line x1="92.39" y1="116.61" x2="98.39" y2="116.61" stroke="#000000" stroke-width="0.25" fill="none" />
  <line x1="98.39" y1="116.61" x2="97.19" y2="116.01" stroke="#000000" stroke-width="0.25" fill="none" />
  <line x1="98.39" y1="116.61" x2="97.19" y2="117.21" stroke="#000000" stroke-width="0.25" fill="none" />
  <text x="87.00" y="115.21" font-family="Arial, Helvetica, sans-serif" font-size="2.0" fill="#000000">B10A</text>
  <text x="87.00" y="117.71" font-family="Arial, Helvetica, sans-serif" font-size="2.0" fill="#000000">SPN</text>
  <text x="87.00" y="120.21" font-family="Arial, Helvetica, sans-serif" font-size="2.0" fill="#000000">MCB</text>
  <text x="87.00" y="122.71" font-family="Arial, Helvetica, sans-serif" font-size="2.0" fill="#000000">6kA</text>
  <text x="95.50" y="87.85" font-family="Arial, Helvetica, sans-serif" font-size="2.8" fill="#000000" transform="rotate(-90.0,95.50,85.61)">1 no. Lights</text>
  <text x="125.62" y="130.87" font-family="Arial, Helvetica, sans-serif" font-size="2.2" fill="#000000" transform="rotate(-90.0,125.62,129.11)">L2S1</text>
  <path d="M 124.98,119.95 A 3.75,3.75 0 0,0 124.98,113.27" stroke="#000000" stroke-width="0.25" fill="none" />
  <circle cx="123.93" cy="113.27" r="0.66" stroke="#000000" stroke-width="0.25" fill="none" />
  <circle cx="123.94" cy="119.95" r="0.66" stroke="#000000" stroke-width="0.25" fill="none" />
  <line x1="124.12" y1="120.61" x2="124.12" y2="122.61" stroke="#000000" stroke-width="0.25" fill="none" />
  <line x1="124.12" y1="112.61" x2="124.12" y2="110.61" stroke="#000000" stroke-width="0.25" fill="none" />
  <line x1="98.39" y1="116.61" x2="127.02" y2="116.61" stroke="#000000" stroke-width="0.25" fill="none" />
  <line x1="127.02" y1="116.61" x2="125.82" y2="116.01" stroke="#000000" stroke-width="0.25" fill="none" />
  <line x1="127.02" y1="116.61" x2="125.82" y2="117.21" stroke="#000000" stroke-width="0.25" fill="none" />
  <text x="124.12" y="87.85" font-family="Arial, Helvetica, sans-serif" font-size="2.8" fill="#000000" transform="rotate(-90.0,124.12,85.61)">SPARE</text>
  <text x="154.25" y="130.87" font-family="Arial, Helvetica, sans-serif" font-size="2.2" fill="#000000" transform="rotate(-90.0,154.25,129.11)">L3S1</text>
  <path d="M 153.60,119.95 A 3.75,3.75 0 0,0 153.60,113.27" stroke="#000000" stroke-width="0.25" fill="none" />
  <circle cx="152.56" cy="113.27" r="0.66" stroke="#000000" stroke-width="0.25" fill="none" />
  <circle cx="152.57" cy="119.95" r="0.66" stroke="#000000" stroke-width="0.25" fill="none" />
  <line x1="152.75" y1="120.61" x2="152.75" y2="122.61" stroke="#000000" stroke-width="0.25" fill="none" />
  <line x1="152.75" y1="112.61" x2="152.75" y2="110.61" stroke="#000000" stroke-width="0.25" fill="none" />
  <line x1="127.02" y1="116.61" x2="155.64" y2="116.61" stroke="#000000" stroke-width="0.25" fill="none" />
  <line x1="155.64" y1="116.61" x2="154.44" y2="116.01" stroke="#000000" stroke-width="0.25" fill="none" />
  <line x1="155.64" y1="116.61" x2="154.44" y2="117.21" stroke="#000000" stroke-width="0.25" fill="none" />
  <text x="152.75" y="87.85" font-family="Arial, Helvetica, sans-serif" font-size="2.8" fill="#000000" transform="rotate(-90.0,152.75,85.61)">SPARE</text>
  <text x="188.88" y="130.87" font-family="Arial, Helvetica, sans-serif" font-size="2.2" fill="#000000" transform="rotate(-90.0,188.88,129.11)">L1P1</text>
  <path d="M 188.23,119.95 A 3.75,3.75 0 0,0 188.23,113.27" stroke="#000000" stroke-width="0.25" fill="none" />
  <circle cx="187.18" cy="113.27" r="0.66" stroke="#000000" stroke-width="0.25" fill="none" />
  <circle cx="187.19" cy="119.95" r="0.66" stroke="#000000" stroke-width="0.25" fill="none" />
  <line x1="187.38" y1="120.61" x2="187.38" y2="122.61" stroke="#000000" stroke-width="0.25" fill="none" />
  <line x1="187.38" y1="112.61" x2="187.38" y2="110.61" stroke="#000000" stroke-width="0.25" fill="none" />
  <line x1="184.27" y1="116.61" x2="190.27" y2="116.61" stroke="#000000" stroke-width="0.25" fill="none" />
  <line x1="190.27" y1="116.61" x2="189.07" y2="116.01" stroke="#000000" stroke-width="0.25" fill="none" />
  <line x1="190.27" y1="116.61" x2="189.07" y2="117.21" stroke="#000000" stroke-width="0.25" fill="none" />
  <text x="178.88" y="115.21" font-family="Arial, Helvetica, sans-serif" font-size="2.0" fill="#000000">B20A</text>
  <text x="178.88" y="117.71" font-family="Arial, Helvetica, sans-serif" font-size="2.0" fill="#000000">SPN</text>
  <text x="178.88" y="120.21" font-family="Arial, Helvetica, sans-serif" font-size="2.0" fill="#000000">MCB</text>
  <text x="178.88" y="122.71" font-family="Arial, Helvetica, sans-serif" font-size="2.0" fill="#000000">6kA</text>
  <text x="187.38" y="87.85" font-family="Arial, Helvetica, sans-serif" font-size="2.8" fill="#000000" transform="rotate(-90.0,187.38,85.61)">1 no. 13A S/S/O</text>
  <text x="217.50" y="130.87" font-family="Arial, Helvetica, sans-serif" font-size="2.2" fill="#000000" transform="rotate(-90.0,217.50,129.11)">ISOL 1</text>
  <path d="M 216.85,119.95 A 3.75,3.75 0 0,0 216.85,113.27" stroke="#000000" stroke-width="0.25" fill="none" />
  <circle cx="215.81" cy="113.27" r="0.66" stroke="#000000" stroke-width="0.25" fill="none" />
  <circle cx="215.82" cy="119.95" r="0.66" stroke="#000000" stroke-width="0.25" fill="none" />
  <line x1="216.00" y1="120.61" x2="216.00" y2="122.61" stroke="#000000" stroke-width="0.25" fill="none" />
  <line x1="216.00" y1="112.61" x2="216.00" y2="110.61" stroke="#000000" stroke-width="0.25" fill="none" />
  <line x1="212.89" y1="116.61" x2="218.89" y2="116.61" stroke="#000000" stroke-width="0.25" fill="none" />
  <line x1="218.89" y1="116.61" x2="217.69" y2="116.01" stroke="#000000" stroke-width="0.25" fill="none" />
  <line x1="218.89" y1="116.61" x2="217.69" y2="117.21" stroke="#000000" stroke-width="0.25" fill="none" />
  <text x="216.00" y="84.05" font-family="Arial, Helvetica, sans-serif" font-size="2.8" fill="#000000" transform="rotate(-90.0,216.00,81.81)">1 no. AC Isolator</text>
  <text x="246.12" y="130.87" font-family="Arial, Helvetica, sans-serif" font-size="2.2" fill="#000000" transform="rotate(-90.0,246.12,129.11)">L2P1</text>
  <path d="M 245.48,119.95 A 3.75,3.75 0 0,0 245.48,113.27" stroke="#000000" stroke-width="0.25" fill="none" />
  <circle cx="244.43" cy="113.27" r="0.66" stroke="#000000" stroke-width="0.25" fill="none" />
  <circle cx="244.44" cy="119.95" r="0.66" stroke="#000000" stroke-width="0.25" fill="none" />
  <line x1="244.62" y1="120.61" x2="244.62" y2="122.61" stroke="#000000" stroke-width="0.25" fill="none" />
  <line x1="244.62" y1="112.61" x2="244.62" y2="110.61" stroke="#000000" stroke-width="0.25" fill="none" />
  <line x1="190.27" y1="116.61" x2="247.52" y2="116.61" stroke="#000000" stroke-width="0.25" fill="none" />
  <line x1="247.52" y1="116.61" x2="246.32" y2="116.01" stroke="#000000" stroke-width="0.25" fill="none" />
  <line x1="247.52" y1="116.61" x2="246.32" y2="117.21" stroke="#000000" stroke-width="0.25" fill="none" />
  <text x="244.62" y="87.85" font-family="Arial, Helvetica, sans-serif" font-size="2.8" fill="#000000" transform="rotate(-90.0,244.62,85.61)">1 no. 13A Power</text>
  <text x="274.75" y="130.87" font-family="Arial, Helvetica, sans-serif" font-size="2.2" fill="#000000" transform="rotate(-90.0,274.75,129.11)">L3P1</text>
  <path d="M 274.10,119.95 A 3.75,3.75 0 0,0 274.10,113.27" stroke="#000000" stroke-width="0.25" fill="none" />
  <circle cx="273.06" cy="113.27" r="0.66" stroke="#000000" stroke-width="0.25" fill="none" />
  <circle cx="273.07" cy="119.95" r="0.66" stroke="#000000" stroke-width="0.25" fill="none" />
  <line x1="273.25" y1="120.61" x2="273.25" y2="122.61" stroke="#000000" stroke-width="0.25" fill="none" />
  <line x1="273.25" y1="112.61" x2="273.25" y2="110.61" stroke="#000000" stroke-width="0.25" fill="none" />
  <line x1="247.52" y1="116.61" x2="276.14" y2="116.61" stroke="#000000" stroke-width="0.25" fill="none" />
  <line x1="276.14" y1="116.61" x2="274.94" y2="116.01" stroke="#000000" stroke-width="0.25" fill="none" />
  <line x1="276.14" y1="116.61" x2="274.94" y2="117.21" stroke="#000000" stroke-width="0.25" fill="none" />
  <text x="273.25" y="87.85" font-family="Arial, Helvetica, sans-serif" font-size="2.8" fill="#000000" transform="rotate(-90.0,273.25,85.61)">SPARE</text>
  <text x="303.38" y="130.87" font-family="Arial, Helvetica, sans-serif" font-size="2.2" fill="#000000" transform="rotate(-90.0,303.38,129.11)">L1P2</text>
  <path d="M 302.73,119.95 A 3.75,3.75 0 0,0 302.73,113.27" stroke="#000000" stroke-width="0.25" fill="none" />
  <circle cx="301.68" cy="113.27" r="0.66" stroke="#000000" stroke-width="0.25" fill="none" />
  <circle cx="301.69" cy="119.95" r="0.66" stroke="#000000" stroke-width="0.25" fill="none" />
  <line x1="301.88" y1="120.61" x2="301.88" y2="122.61" stroke="#000000" stroke-width="0.25" fill="none" />
  <line x1="301.88" y1="112.61" x2="301.88" y2="110.61" stroke="#000000" stroke-width="0.25" fill="none" />
  <line x1="276.14" y1="116.61" x2="304.77" y2="116.61" stroke="#000000" stroke-width="0.25" fill="none" />
  <line x1="304.77" y1="116.61" x2="303.57" y2="116.01" stroke="#000000" stroke-width="0.25" fill="none" />
  <line x1="304.77" y1="116.61" x2="303.57" y2="117.21" stroke="#000000" stroke-width="0.25" fill="none" />
  <text x="301.88" y="87.85" font-family="Arial, Helvetica, sans-serif" font-size="2.8" fill="#000000" transform="rotate(-90.0,301.88,85.61)">SPARE</text>
  <text x="332.00" y="130.87" font-family="Arial, Helvetica, sans-serif" font-size="2.2" fill="#000000" transform="rotate(-90.0,332.00,129.11)">L2P2</text>
  <path d="M 331.35,119.95 A 3.75,3.75 0 0,0 331.35,113.27" stroke="#000000" stroke-width="0.25" fill="none" />
  <circle cx="330.31" cy="113.27" r="0.66" stroke="#000000" stroke-width="0.25" fill="none" />
  <circle cx="330.32" cy="119.95" r="0.66" stroke="#000000" stroke-width="0.25" fill="none" />
  <line x1="330.50" y1="120.61" x2="330.50" y2="122.61" stroke="#000000" stroke-width="0.25" fill="none" />
  <line x1="330.50" y1="112.61" x2="330.50" y2="110.61" stroke="#000000" stroke-width="0.25" fill="none" />
  <line x1="304.77" y1="116.61" x2="333.39" y2="116.61" stroke="#000000" stroke-width="0.25" fill="none" />
  <line x1="333.39" y1="116.61" x2="332.19" y2="116.01" stroke="#000000" stroke-width="0.25" fill="none" />
  <line x1="333.39" y1="116.61" x2="332.19" y2="117.21" stroke="#000000" stroke-width="0.25" fill="none" />
  <text x="330.50" y="87.85" font-family="Arial, Helvetica, sans-serif" font-size="2.8" fill="#000000" transform="rotate(-90.0,330.50,85.61)">SPARE</text>
  <text x="82.50" y="89.41" font-family="Arial, Helvetica, sans-serif" font-size="2.8" fill="#000000" transform="rotate(-90.0,82.50,89.41)">2C 1.5sqmm PVC + 1.5sqmm</text>
  <text x="86.42" y="89.41" font-family="Arial, Helvetica, sans-serif" font-size="2.8" fill="#000000" transform="rotate(-90.0,86.42,89.41)">PVC CPC IN METAL TRUNKING</text>
  <text x="254.62" y="89.41" font-family="Arial, Helvetica, sans-serif" font-size="2.8" fill="#000000" transform="rotate(-90.0,254.62,89.41)">2C 2.5sqmm PVC + 2.5sqmm</text>
  <text x="258.55" y="89.41" font-family="Arial, Helvetica, sans-serif" font-size="2.8" fill="#000000" transform="rotate(-90.0,258.55,89.41)">PVC CPC IN METAL TRUNKING</text>
  <text x="203.00" y="89.41" font-family="Arial, Helvetica, sans-serif" font-size="2.8" fill="#000000" transform="rotate(-90.0,203.00,89.41)">2C 6.0sqmm PVC + 6.0sqmm</text>
  <text x="206.92" y="89.41" font-family="Arial, Helvetica, sans-serif" font-size="2.8" fill="#000000" transform="rotate(-90.0,206.92,89.41)">PVC CPC IN METAL TRUNKING</text>
  <polygon points="214.10,87.61 218.69,87.61 218.69,83.02 214.10,83.02" stroke="#000000" stroke-width="0.25" fill="none" />
  <line x1="218.69" y1="85.31" x2="221.10" y2="85.31" stroke="#000000" stroke-width="0.25" fill="none" />
  <line x1="221.10" y1="85.31" x2="221.10" y2="87.28" stroke="#000000" stroke-width="0.25" fill="none" />
  <text x="78.00" y="148.01" font-family="Arial, Helvetica, sans-serif" font-size="3.0" fill="#000000">63A DB</text>
  <text x="78.00" y="151.05" font-family="Arial, Helvetica, sans-serif" font-size="1.8" fill="#000000">APPROVED LOAD: 45 KVA AT 400V</text>
  <line x1="355.75" y1="153.11" x2="355.75" y2="154.91" stroke="#000000" stroke-width="0.25" fill="none" />
  <line x1="353.50" y1="154.91" x2="358.00" y2="154.91" stroke="#000000" stroke-width="0.25" fill="none" />
  <line x1="354.25" y1="156.04" x2="357.25" y2="156.04" stroke="#000000" stroke-width="0.25" fill="none" />
  <line x1="355.00" y1="157.16" x2="356.50" y2="157.16" stroke="#000000" stroke-width="0.25" fill="none" />
  <text x="361.50" y="154.64" font-family="Arial, Helvetica, sans-serif" font-size="1.6" fill="#000000">E</text>
  <line x1="210.00" y1="183.01" x2="216.00" y2="183.01" stroke="#000000" stroke-width="0.25" fill="none" />
  <line x1="223.00" y1="183.01" x2="237.30" y2="183.01" stroke="#000000" stroke-width="0.25" fill="none" />
  <line x1="251.70" y1="183.01" x2="265.50" y2="183.01" stroke="#000000" stroke-width="0.25" fill="none" />
  <line x1="273.50" y1="183.01" x2="293.50" y2="183.01" stroke="#000000" stroke-width="0.25" fill="none" />
  <line x1="282.00" y1="184.51" x2="285.00" y2="181.51" stroke="#000000" stroke-width="0.25" fill="none" />
  <line x1="283.50" y1="183.01" x2="283.50" y2="193.01" stroke="#000000" stroke-width="0.25" fill="none" />
  <line x1="283.50" y1="193.01" x2="286.50" y2="193.01" stroke="#000000" stroke-width="0.25" fill="none" />
  <line x1="210.00" y1="183.01" x2="210.00" y2="157.61" stroke="#000000" stroke-width="0.25" fill="none" />
  <line x1="210.00" y1="165.61" x2="207.00" y2="165.61" stroke="#000000" stroke-width="0.25" fill="none" />
  <line x1="277.50" y1="195.39" x2="281.50" y2="195.39" stroke="#000000" stroke-width="0.25" fill="none" />
  <line x1="281.50" y1="195.39" x2="281.50" y2="202.89" stroke="#000000" stroke-width="0.25" fill="none" />
  <line x1="210.00" y1="157.61" x2="210.00" y2="143.61" stroke="#000000" stroke-width="0.25" fill="none" />
  <line x1="210.00" y1="134.61" x2="210.00" y2="132.61" stroke="#000000" stroke-width="0.25" fill="none" />
  <line x1="95.50" y1="125.00" x2="95.50" y2="120.61" stroke="#000000" stroke-width="0.25" fill="none" />
  <line x1="95.50" y1="112.61" x2="95.50" y2="87.61" stroke="#000000" stroke-width="0.25" fill="none" />
  <line x1="124.12" y1="132.61" x2="124.12" y2="120.61" stroke="#000000" stroke-width="0.25" fill="none" />
  <line x1="124.12" y1="112.61" x2="124.12" y2="87.61" stroke="#000000" stroke-width="0.25" fill="none" />
  <line x1="152.75" y1="125.00" x2="152.75" y2="120.61" stroke="#000000" stroke-width="0.25" fill="none" />
  <line x1="152.75" y1="112.61" x2="152.75" y2="87.61" stroke="#000000" stroke-width="0.25" fill="none" />
  <line x1="187.38" y1="125.00" x2="187.38" y2="120.61" stroke="#000000" stroke-width="0.25" fill="none" />
  <line x1="187.38" y1="112.61" x2="187.38" y2="87.61" stroke="#000000" stroke-width="0.25" fill="none" />
  <line x1="216.00" y1="132.61" x2="216.00" y2="120.61" stroke="#000000" stroke-width="0.25" fill="none" />
  <line x1="216.00" y1="112.61" x2="216.00" y2="87.61" stroke="#000000" stroke-width="0.25" fill="none" />
  <line x1="244.62" y1="125.00" x2="244.62" y2="120.61" stroke="#000000" stroke-width="0.25" fill="none" />
  <line x1="244.62" y1="112.61" x2="244.62" y2="87.61" stroke="#000000" stroke-width="0.25" fill="none" />
  <line x1="273.25" y1="125.00" x2="273.25" y2="120.61" stroke="#000000" stroke-width="0.25" fill="none" />
  <line x1="273.25" y1="112.61" x2="273.25" y2="87.61" stroke="#000000" stroke-width="0.25" fill="none" />
  <line x1="301.88" y1="132.61" x2="301.88" y2="120.61" stroke="#000000" stroke-width="0.25" fill="none" />
  <line x1="301.88" y1="112.61" x2="301.88" y2="87.61" stroke="#000000" stroke-width="0.25" fill="none" />
  <line x1="330.50" y1="125.00" x2="330.50" y2="120.61" stroke="#000000" stroke-width="0.25" fill="none" />
  <line x1="330.50" y1="112.61" x2="330.50" y2="87.61" stroke="#000000" stroke-width="0.25" fill="none" />
  <line x1="85.50" y1="92.61" x2="95.50" y2="92.61" stroke="#000000" stroke-width="0.25" fill="none" />
  <line x1="85.50" y1="92.61" x2="85.50" y2="87.61" stroke="#000000" stroke-width="0.25" fill="none" />
  <line x1="187.38" y1="92.61" x2="254.62" y2="92.61" stroke="#000000" stroke-width="0.25" fill="none" />
  <line x1="254.62" y1="92.61" x2="254.62" y2="87.61" stroke="#000000" stroke-width="0.25" fill="none" />
  <line x1="206.00" y1="92.61" x2="216.00" y2="92.61" stroke="#000000" stroke-width="0.25" fill="none" />
  <line x1="206.00" y1="92.61" x2="206.00" y2="87.61" stroke="#000000" stroke-width="0.25" fill="none" />
  <line x1="348.00" y1="153.11" x2="355.75" y2="153.11" stroke="#000000" stroke-width="0.25" fill="none" />
  <line x1="208.75" y1="166.86" x2="211.25" y2="164.36" stroke="#000000" stroke-width="0.50" fill="none" />
  <line x1="94.25" y1="93.86" x2="96.75" y2="91.36" stroke="#000000" stroke-width="0.50" fill="none" />
  <line x1="186.12" y1="93.86" x2="188.62" y2="91.36" stroke="#000000" stroke-width="0.50" fill="none" />
  <line x1="243.38" y1="93.86" x2="245.88" y2="91.36" stroke="#000000" stroke-width="0.50" fill="none" />
  <line x1="214.75" y1="93.86" x2="217.25" y2="91.36" stroke="#000000" stroke-width="0.50" fill="none" />
  <line x1="124.12" y1="132.61" x2="95.50" y2="125.00" stroke="#000000" stroke-width="0.25" fill="none" />
  <line x1="124.12" y1="132.61" x2="152.75" y2="125.00" stroke="#000000" stroke-width="0.25" fill="none" />
  <line x1="216.00" y1="132.61" x2="187.38" y2="125.00" stroke="#000000" stroke-width="0.25" fill="none" />
  <line x1="216.00" y1="132.61" x2="244.62" y2="125.00" stroke="#000000" stroke-width="0.25" fill="none" />
  <line x1="301.88" y1="132.61" x2="273.25" y2="125.00" stroke="#000000" stroke-width="0.25" fill="none" />
  <line x1="301.88" y1="132.61" x2="330.50" y2="125.00" stroke="#000000" stroke-width="0.25" fill="none" />
  <line x1="212.00" y1="198.39" x2="220.00" y2="198.39" stroke="#000000" stroke-width="0.25" fill="none" />
  <line x1="222.00" y1="198.39" x2="223.50" y2="198.39" stroke="#000000" stroke-width="0.25" fill="none" />
  <line x1="225.50" y1="198.39" x2="233.50" y2="198.39" stroke="#000000" stroke-width="0.25" fill="none" />
  <line x1="235.50" y1="198.39" x2="237.00" y2="198.39" stroke="#000000" stroke-width="0.25" fill="none" />
  <line x1="239.00" y1="198.39" x2="247.00" y2="198.39" stroke="#000000" stroke-width="0.25" fill="none" />
  <line x1="249.00" y1="198.39" x2="250.50" y2="198.39" stroke="#000000" stroke-width="0.25" fill="none" />
  <line x1="252.50" y1="198.39" x2="260.50" y2="198.39" stroke="#000000" stroke-width="0.25" fill="none" />
  <line x1="262.50" y1="198.39" x2="264.00" y2="198.39" stroke="#000000" stroke-width="0.25" fill="none" />
  <line x1="266.00" y1="198.39" x2="274.00" y2="198.39" stroke="#000000" stroke-width="0.25" fill="none" />
  <line x1="276.00" y1="198.39" x2="277.50" y2="198.39" stroke="#000000" stroke-width="0.25" fill="none" />
  <line x1="212.00" y1="173.61" x2="220.00" y2="173.61" stroke="#000000" stroke-width="0.25" fill="none" />
  <line x1="222.00" y1="173.61" x2="223.50" y2="173.61" stroke="#000000" stroke-width="0.25" fill="none" />
  <line x1="225.50" y1="173.61" x2="233.50" y2="173.61" stroke="#000000" stroke-width="0.25" fill="none" />
  <line x1="235.50" y1="173.61" x2="237.00" y2="173.61" stroke="#000000" stroke-width="0.25" fill="none" />
  <line x1="239.00" y1="173.61" x2="247.00" y2="173.61" stroke="#000000" stroke-width="0.25" fill="none" />
  <line x1="249.00" y1="173.61" x2="250.50" y2="173.61" stroke="#000000" stroke-width="0.25" fill="none" />
  <line x1="252.50" y1="173.61" x2="260.50" y2="173.61" stroke="#000000" stroke-width="0.25" fill="none" />
  <line x1="262.50" y1="173.61" x2="264.00" y2="173.61" stroke="#000000" stroke-width="0.25" fill="none" />
  <line x1="266.00" y1="173.61" x2="274.00" y2="173.61" stroke="#000000" stroke-width="0.25" fill="none" />
  <line x1="276.00" y1="173.61" x2="277.50" y2="173.61" stroke="#000000" stroke-width="0.25" fill="none" />
  <line x1="212.00" y1="198.39" x2="212.00" y2="190.39" stroke="#000000" stroke-width="0.25" fill="none" />
  <line x1="212.00" y1="188.39" x2="212.00" y2="186.89" stroke="#000000" stroke-width="0.25" fill="none" />
  <line x1="212.00" y1="184.89" x2="212.00" y2="176.89" stroke="#000000" stroke-width="0.25" fill="none" />
  <line x1="212.00" y1="174.89" x2="212.00" y2="173.61" stroke="#000000" stroke-width="0.25" fill="none" />
  <line x1="277.50" y1="198.39" x2="277.50" y2="190.39" stroke="#000000" stroke-width="0.25" fill="none" />
  <line x1="277.50" y1="188.39" x2="277.50" y2="186.89" stroke="#000000" stroke-width="0.25" fill="none" />
  <line x1="277.50" y1="184.89" x2="277.50" y2="176.89" stroke="#000000" stroke-width="0.25" fill="none" />
  <line x1="277.50" y1="174.89" x2="277.50" y2="173.61" stroke="#000000" stroke-width="0.25" fill="none" />
  <line x1="72.00" y1="153.61" x2="80.00" y2="153.61" stroke="#000000" stroke-width="0.25" fill="none" />
  <line x1="82.00" y1="153.61" x2="83.50" y2="153.61" stroke="#000000" stroke-width="0.25" fill="none" />
  <line x1="85.50" y1="153.61" x2="93.50" y2="153.61" stroke="#000000" stroke-width="0.25" fill="none" />
  <line x1="95.50" y1="153.61" x2="97.00" y2="153.61" stroke="#000000" stroke-width="0.25" fill="none" />
  <line x1="99.00" y1="153.61" x2="107.00" y2="153.61" stroke="#000000" stroke-width="0.25" fill="none" />
  <line x1="109.00" y1="153.61" x2="110.50" y2="153.61" stroke="#000000" stroke-width="0.25" fill="none" />
  <line x1="112.50" y1="153.61" x2="120.50" y2="153.61" stroke="#000000" stroke-width="0.25" fill="none" />
  <line x1="122.50" y1="153.61" x2="124.00" y2="153.61" stroke="#000000" stroke-width="0.25" fill="none" />
  <line x1="126.00" y1="153.61" x2="134.00" y2="153.61" stroke="#000000" stroke-width="0.25" fill="none" />
  <line x1="136.00" y1="153.61" x2="137.50" y2="153.61" stroke="#000000" stroke-width="0.25" fill="none" />
  <line x1="139.50" y1="153.61" x2="147.50" y2="153.61" stroke="#000000" stroke-width="0.25" fill="none" />
  <line x1="149.50" y1="153.61" x2="151.00" y2="153.61" stroke="#000000" stroke-width="0.25" fill="none" />
  <line x1="153.00" y1="153.61" x2="161.00" y2="153.61" stroke="#000000" stroke-width="0.25" fill="none" />
  <line x1="163.00" y1="153.61" x2="164.50" y2="153.61" stroke="#000000" stroke-width="0.25" fill="none" />
  <line x1="166.50" y1="153.61" x2="174.50" y2="153.61" stroke="#000000" stroke-width="0.25" fill="none" />
  <line x1="176.50" y1="153.61" x2="178.00" y2="153.61" stroke="#000000" stroke-width="0.25" fill="none" />
  <line x1="180.00" y1="153.61" x2="188.00" y2="153.61" stroke="#000000" stroke-width="0.25" fill="none" />
  <line x1="190.00" y1="153.61" x2="191.50" y2="153.61" stroke="#000000" stroke-width="0.25" fill="none" />
  <line x1="193.50" y1="153.61" x2="201.50" y2="153.61" stroke="#000000" stroke-width="0.25" fill="none" />
  <line x1="203.50" y1="153.61" x2="205.00" y2="153.61" stroke="#000000" stroke-width="0.25" fill="none" />
  <line x1="207.00" y1="153.61" x2="215.00" y2="153.61" stroke="#000000" stroke-width="0.25" fill="none" />
  <line x1="217.00" y1="153.61" x2="218.50" y2="153.61" stroke="#000000" stroke-width="0.25" fill="none" />
  <line x1="220.50" y1="153.61" x2="228.50" y2="153.61" stroke="#000000" stroke-width="0.25" fill="none" />
  <line x1="230.50" y1="153.61" x2="232.00" y2="153.61" stroke="#000000" stroke-width="0.25" fill="none" />
  <line x1="234.00" y1="153.61" x2="242.00" y2="153.61" stroke="#000000" stroke-width="0.25" fill="none" />
  <line x1="244.00" y1="153.61" x2="245.50" y2="153.61" stroke="#000000" stroke-width="0.25" fill="none" />
  <line x1="247.50" y1="153.61" x2="255.50" y2="153.61" stroke="#000000" stroke-width="0.25" fill="none" />
  <line x1="257.50" y1="153.61" x2="259.00" y2="153.61" stroke="#000000" stroke-width="0.25" fill="none" />
  <line x1="261.00" y1="153.61" x2="269.00" y2="153.61" stroke="#000000" stroke-width="0.25" fill="none" />
  <line x1="271.00" y1="153.61" x2="272.50" y2="153.61" stroke="#000000" stroke-width="0.25" fill="none" />
  <line x1="274.50" y1="153.61" x2="282.50" y2="153.61" stroke="#000000" stroke-width="0.25" fill="none" />
  <line x1="284.50" y1="153.61" x2="286.00" y2="153.61" stroke="#000000" stroke-width="0.25" fill="none" />
  <line x1="288.00" y1="153.61" x2="296.00" y2="153.61" stroke="#000000" stroke-width="0.25" fill="none" />
  <line x1="298.00" y1="153.61" x2="299.50" y2="153.61" stroke="#000000" stroke-width="0.25" fill="none" />
  <line x1="301.50" y1="153.61" x2="309.50" y2="153.61" stroke="#000000" stroke-width="0.25" fill="none" />
  <line x1="311.50" y1="153.61" x2="313.00" y2="153.61" stroke="#000000" stroke-width="0.25" fill="none" />
  <line x1="315.00" y1="153.61" x2="323.00" y2="153.61" stroke="#000000" stroke-width="0.25" fill="none" />
  <line x1="325.00" y1="153.61" x2="326.50" y2="153.61" stroke="#000000" stroke-width="0.25" fill="none" />
  <line x1="328.50" y1="153.61" x2="336.50" y2="153.61" stroke="#000000" stroke-width="0.25" fill="none" />
  <line x1="338.50" y1="153.61" x2="340.00" y2="153.61" stroke="#000000" stroke-width="0.25" fill="none" />
  <line x1="342.00" y1="153.61" x2="348.00" y2="153.61" stroke="#000000" stroke-width="0.25" fill="none" />
  <line x1="72.00" y1="102.61" x2="80.00" y2="102.61" stroke="#000000" stroke-width="0.25" fill="none" />
  <line x1="82.00" y1="102.61" x2="83.50" y2="102.61" stroke="#000000" stroke-width="0.25" fill="none" />
  <line x1="85.50" y1="102.61" x2="93.50" y2="102.61" stroke="#000000" stroke-width="0.25" fill="none" />
  <line x1="95.50" y1="102.61" x2="97.00" y2="102.61" stroke="#000000" stroke-width="0.25" fill="none" />
  <line x1="99.00" y1="102.61" x2="107.00" y2="102.61" stroke="#000000" stroke-width="0.25" fill="none" />
  <line x1="109.00" y1="102.61" x2="110.50" y2="102.61" stroke="#000000" stroke-width="0.25" fill="none" />
  <line x1="112.50" y1="102.61" x2="120.50" y2="102.61" stroke="#000000" stroke-width="0.25" fill="none" />
  <line x1="122.50" y1="102.61" x2="124.00" y2="102.61" stroke="#000000" stroke-width="0.25" fill="none" />
  <line x1="126.00" y1="102.61" x2="134.00" y2="102.61" stroke="#000000" stroke-width="0.25" fill="none" />
  <line x1="136.00" y1="102.61" x2="137.50" y2="102.61" stroke="#000000" stroke-width="0.25" fill="none" />
  <line x1="139.50" y1="102.61" x2="147.50" y2="102.61" stroke="#000000" stroke-width="0.25" fill="none" />
  <line x1="149.50" y1="102.61" x2="151.00" y2="102.61" stroke="#000000" stroke-width="0.25" fill="none" />
  <line x1="153.00" y1="102.61" x2="161.00" y2="102.61" stroke="#000000" stroke-width="0.25" fill="none" />
  <line x1="163.00" y1="102.61" x2="164.50" y2="102.61" stroke="#000000" stroke-width="0.25" fill="none" />
  <line x1="166.50" y1="102.61" x2="174.50" y2="102.61" stroke="#000000" stroke-width="0.25" fill="none" />
  <line x1="176.50" y1="102.61" x2="178.00" y2="102.61" stroke="#000000" stroke-width="0.25" fill="none" />
  <line x1="180.00" y1="102.61" x2="188.00" y2="102.61" stroke="#000000" stroke-width="0.25" fill="none" />
  <line x1="190.00" y1="102.61" x2="191.50" y2="102.61" stroke="#000000" stroke-width="0.25" fill="none" />
  <line x1="193.50" y1="102.61" x2="201.50" y2="102.61" stroke="#000000" stroke-width="0.25" fill="none" />
  <line x1="203.50" y1="102.61" x2="205.00" y2="102.61" stroke="#000000" stroke-width="0.25" fill="none" />
  <line x1="207.00" y1="102.61" x2="215.00" y2="102.61" stroke="#000000" stroke-width="0.25" fill="none" />
  <line x1="217.00" y1="102.61" x2="218.50" y2="102.61" stroke="#000000" stroke-width="0.25" fill="none" />
  <line x1="220.50" y1="102.61" x2="228.50" y2="102.61" stroke="#000000" stroke-width="0.25" fill="none" />
  <line x1="230.50" y1="102.61" x2="232.00" y2="102.61" stroke="#000000" stroke-width="0.25" fill="none" />
  <line x1="234.00" y1="102.61" x2="242.00" y2="102.61" stroke="#000000" stroke-width="0.25" fill="none" />
  <line x1="244.00" y1="102.61" x2="245.50" y2="102.61" stroke="#000000" stroke-width="0.25" fill="none" />
  <line x1="247.50" y1="102.61" x2="255.50" y2="102.61" stroke="#000000" stroke-width="0.25" fill="none" />
  <line x1="257.50" y1="102.61" x2="259.00" y2="102.61" stroke="#000000" stroke-width="0.25" fill="none" />
  <line x1="261.00" y1="102.61" x2="269.00" y2="102.61" stroke="#000000" stroke-width="0.25" fill="none" />
  <line x1="271.00" y1="102.61" x2="272.50" y2="102.61" stroke="#000000" stroke-width="0.25" fill="none" />
  <line x1="274.50" y1="102.61" x2="282.50" y2="102.61" stroke="#000000" stroke-width="0.25" fill="none" />
  <line x1="284.50" y1="102.61" x2="286.00" y2="102.61" stroke="#000000" stroke-width="0.25" fill="none" />
  <line x1="288.00" y1="102.61" x2="296.00" y2="102.61" stroke="#000000" stroke-width="0.25" fill="none" />
  <line x1="298.00" y1="102.61" x2="299.50" y2="102.61" stroke="#000000" stroke-width="0.25" fill="none" />
  <line x1="301.50" y1="102.61" x2="309.50" y2="102.61" stroke="#000000" stroke-width="0.25" fill="none" />
  <line x1="311.50" y1="102.61" x2="313.00" y2="102.61" stroke="#000000" stroke-width="0.25" fill="none" />
  <line x1="315.00" y1="102.61" x2="323.00" y2="102.61" stroke="#000000" stroke-width="0.25" fill="none" />
  <line x1="325.00" y1="102.61" x2="326.50" y2="102.61" stroke="#000000" stroke-width="0.25" fill="none" />
  <line x1="328.50" y1="102.61" x2="336.50" y2="102.61" stroke="#000000" stroke-width="0.25" fill="none" />
  <line x1="338.50" y1="102.61" x2="340.00" y2="102.61" stroke="#000000" stroke-width="0.25" fill="none" />
  <line x1="342.00" y1="102.61" x2="348.00" y2="102.61" stroke="#000000" stroke-width="0.25" fill="none" />
  <line x1="72.00" y1="153.61" x2="72.00" y2="145.61" stroke="#000000" stroke-width="0.25" fill="none" />
  <line x1="72.00" y1="143.61" x2="72.00" y2="142.11" stroke="#000000" stroke-width="0.25" fill="none" />
  <line x1="72.00" y1="140.11" x2="72.00" y2="132.11" stroke="#000000" stroke-width="0.25" fill="none" />
  <line x1="72.00" y1="130.11" x2="72.00" y2="128.61" stroke="#000000" stroke-width="0.25" fill="none" />
  <line x1="72.00" y1="126.61" x2="72.00" y2="118.61" stroke="#000000" stroke-width="0.25" fill="none" />
  <line x1="72.00" y1="116.61" x2="72.00" y2="115.11" stroke="#000000" stroke-width="0.25" fill="none" />
  <line x1="72.00" y1="113.11" x2="72.00" y2="105.11" stroke="#000000" stroke-width="0.25" fill="none" />
  <line x1="72.00" y1="103.11" x2="72.00" y2="102.61" stroke="#000000" stroke-width="0.25" fill="none" />
  <line x1="348.00" y1="153.61" x2="348.00" y2="145.61" stroke="#000000" stroke-width="0.25" fill="none" />
  <line x1="348.00" y1="143.61" x2="348.00" y2="142.11" stroke="#000000" stroke-width="0.25" fill="none" />
  <line x1="348.00" y1="140.11" x2="348.00" y2="132.11" stroke="#000000" stroke-width="0.25" fill="none" />
  <line x1="348.00" y1="130.11" x2="348.00" y2="128.61" stroke="#000000" stroke-width="0.25" fill="none" />
  <line x1="348.00" y1="126.61" x2="348.00" y2="118.61" stroke="#000000" stroke-width="0.25" fill="none" />
  <line x1="348.00" y1="116.61" x2="348.00" y2="115.11" stroke="#000000" stroke-width="0.25" fill="none" />
  <line x1="348.00" y1="113.11" x2="348.00" y2="105.11" stroke="#000000" stroke-width="0.25" fill="none" />
  <line x1="348.00" y1="103.11" x2="348.00" y2="102.61" stroke="#000000" stroke-width="0.25" fill="none" />
  <circle cx="277.50" cy="195.39" r="0.50" fill="rgb(0,0,0)" stroke="none" />
  <circle cx="124.12" cy="132.61" r="0.50" fill="rgb(0,0,0)" stroke="none" />
  <circle cx="124.12" cy="132.61" r="0.50" fill="rgb(0,0,0)" stroke="none" />
  <circle cx="124.12" cy="132.61" r="0.50" fill="rgb(0,0,0)" stroke="none" />
  <circle cx="216.00" cy="132.61" r="0.50" fill="rgb(0,0,0)" stroke="none" />
  <circle cx="216.00" cy="132.61" r="0.50" fill="rgb(0,0,0)" stroke="none" />
  <circle cx="216.00" cy="132.61" r="0.50" fill="rgb(0,0,0)" stroke="none" />
  <circle cx="301.88" cy="132.61" r="0.50" fill="rgb(0,0,0)" stroke="none" />
  <circle cx="301.88" cy="132.61" r="0.50" fill="rgb(0,0,0)" stroke="none" />
  <circle cx="301.88" cy="132.61" r="0.50" fill="rgb(0,0,0)" stroke="none" />
  <circle cx="348.00" cy="153.11" r="0.50" fill="rgb(0,0,0)" stroke="none" />
  <text x="13.00" y="264.40" font-family="Arial, Helvetica, sans-serif" font-size="3.0" fill="#000000">Electrical Installation</text>
  <text x="153.00" y="264.40" font-family="Arial, Helvetica, sans-serif" font-size="3.0" fill="#000000">LicenseKaki</text>
  <text x="225.00" y="263.80" font-family="Arial, Helvetica, sans-serif" font-size="3.5" fill="#000000"><tspan x="225.00">SINGLE LINE DIAGRAM</tspan><tspan x="225.00" dy="4.9">(SLD)</tspan></text>
  <text x="389.00" y="266.00" font-family="Arial, Helvetica, sans-serif" font-size="2.5" fill="#000000">DATE</text>
  <text x="365.00" y="278.00" font-family="Arial, Helvetica, sans-serif" font-size="2.5" fill="#000000"></text>
  <text x="394.00" y="278.80" font-family="Arial, Helvetica, sans-serif" font-size="3.5" fill="#000000">0</text>
  <text x="365.00" y="286.28" font-family="Arial, Helvetica, sans-serif" font-size="1.6" fill="#000000">SCALE : NTS</text>
  <text x="389.00" y="286.28" font-family="Arial, Helvetica, sans-serif" font-size="1.6" fill="#000000">SHEET : 1 OF 1</text>
</svg>