<svg xmlns="http://www.w3.org/2000/svg" viewBox="0 0 420.0 297.0" width="420.0mm" height="297.0mm">
  <rect width="420.0" height="297.0" fill="white" />
  <polygon points="10.00,287.00 410.00,287.00 410.00,10.00 10.00,10.00" stroke="#000000" stroke-width="0.7" fill="none" />
  <polygon points="10.00,287.00 410.00,287.00 410.00,242.00 10.00,242.00" stroke="#000000" stroke-width="0.7" fill="none" />
  <line x1="10.00" y1="262.00" x2="410.00" y2="262.00" stroke="#000000" stroke-width="0.7" fill="none" />
  <line x1="340.00" y1="277.00" x2="410.00" y2="277.00" stroke="#000000" stroke-width="0.7" fill="none" />
  <line x1="105.00" y1="242.00" x2="105.00" y2="262.00" stroke="#000000" stroke-width="0.7" fill="none" />
  <line x1="185.00" y1="242.00" x2="185.00" y2="262.00" stroke="#000000" stroke-width="0.7" fill="none" />
  <line x1="265.00" y1="242.00" x2="265.00" y2="262.00" stroke="#000000" stroke-width="0.7" fill="none" />
  <line x1="340.00" y1="242.00" x2="340.00" y2="287.00" stroke="#000000" stroke-width="0.7" fill="none" />
  <line x1="390.00" y1="277.00" x2="390.00" y2="287.00" stroke="#000000" stroke-width="0.7" fill="none" />
  <text x="13.00" y="245.60" font-family="Helvetica, Arial, sans-serif" font-size="2.0" fill="#262626">CLIENT / ADDRESS :</text>
  <text x="108.00" y="245.60" font-family="Helvetica, Arial, sans-serif" font-size="2.0" fill="#262626">MAIN CONTRACTOR :</text>
  <text x="188.00" y="245.60" font-family="Helvetica, Arial, sans-serif" font-size="2.0" fill="#262626">ELECTRICAL CONTRACTOR :</text>
  <text x="268.00" y="245.60" font-family="Helvetica, Arial, sans-serif" font-size="2.0" fill="#262626">DRAWING TITLE :</text>
  <text x="343.00" y="245.60" font-family="Helvetica, Arial, sans-serif" font-size="2.0" fill="#262626">LEW :</text>
  <text x="343.00" y="280.60" font-family="Helvetica, Arial, sans-serif" font-size="2.0" fill="#262626">CHECKED :</text>
  <text x="343.00" y="285.60" font-family="Helvetica, Arial, sans-serif" font-size="2.0" fill="#262626">DATE :</text>
  <text x="393.00" y="280.60" font-family="Helvetica, Arial, sans-serif" font-size="2.0" fill="#262626">DRAWING NO. :</text>
  <text x="425.00" y="280.60" font-family="Helvetica, Arial, sans-serif" font-size="2.0" fill="#262626">REV :</text>
  <text x="393.00" y="282.60" font-family="Helvetica, Arial, sans-serif" font-size="2.0" fill="#262626">SCALE : NTS</text>
  <text x="425.00" y="282.60" font-family="Helvetica, Arial, sans-serif" font-size="2.0" fill="#262626">SHEET : 1 OF 1</text>
</svg>